G04 ================== begin FILE IDENTIFICATION RECORD ==================*
G04 Layout Name:  D:/projects/Popcorn/Rev2.0/Brd/Popcorn Computer Rev 2p0_Release.brd*
G04 Film Name:    in1*
G04 File Format:  Gerber RS274X*
G04 File Origin:  Cadence Allegro 16.6-2015-S105*
G04 Origin Date:  Tue Jul 14 18:36:52 2020*
G04 *
G04 Layer:  VIA CLASS/IN1*
G04 Layer:  PIN/IN1*
G04 Layer:  ETCH/IN1*
G04 Layer:  BOARD GEOMETRY/OUTLINE*
G04 *
G04 Offset:    (0.0000 0.0000)*
G04 Mirror:    No*
G04 Mode:      Positive*
G04 Rotation:  0*
G04 FullContactRelief:  No*
G04 UndefLineWidth:     0.1270*
G04 ================== end FILE IDENTIFICATION RECORD ====================*
%FSLAX25Y25*MOMM*%
%IR0*IPPOS*OFA0.00000B0.00000*MIA0B0*SFA1.00000B1.00000*%
%ADD18O,.95X2.1001*%
%ADD11C,.4064*%
%ADD17C,.6604*%
%ADD16C,.4572*%
%ADD20C,.5999*%
%ADD19C,1.1001*%
%ADD15O,1.3X2.7501*%
%ADD12C,4.*%
%ADD10C,1.5001*%
%ADD14O,1.524X1.1176*%
%ADD21C,1.651*%
%ADD13O,1.1999X2.3*%
%ADD22C,.2032*%
%ADD23C,.1016*%
%ADD24C,.1143*%
%ADD25C,.127*%
%ADD26C,.254*%
%ADD27C,.1524*%
%ADD28C,.381*%
%ADD29C,.508*%
%ADD30C,.1397*%
%ADD33C,.61*%
%ADD34C,.7116*%
%ADD35C,.6354*%
%ADD31C,1.0002*%
%ADD36C,2.0086*%
%ADD32C,1.7038*%
G75*
%LPD*%
G75*
G36*
G01X4056330Y797560D02*
X4056260Y21010D01*
X3759640D01*
Y22860D01*
X3158940D01*
X3157090Y21010D01*
X2366540D01*
G02X2358470Y37340I3J10161D01*
G03X2310010I-24230J18520D01*
G02X2301940Y21010I-8073J-6169D01*
G01X1979140D01*
Y459760D01*
X1369500D01*
Y21010D01*
X57880D01*
Y347900D01*
G02X76270Y353860I10161J1D01*
G03Y453860I68970J50000D01*
G02X57880Y459820I-8229J5959D01*
G01Y578680D01*
G02X75130Y585950I10159J-5D01*
G03Y729770I70110J71910D01*
G02X57880Y737040I-7091J7275D01*
G01Y855900D01*
G02X76270Y861860I10161J1D01*
G03Y961860I68970J50000D01*
G02X57880Y967820I-8229J5959D01*
G01Y1109900D01*
G02X76270Y1115860I10161J1D01*
G03Y1215860I68970J50000D01*
G02X57880Y1221820I-8229J5959D01*
G01Y1363900D01*
G02X76270Y1369860I10161J1D01*
G03Y1469860I68970J50000D01*
G02X57880Y1475820I-8229J5959D01*
G01Y1617900D01*
G02X76270Y1623860I10161J1D01*
G03Y1723860I68970J50000D01*
G02X57880Y1729820I-8229J5959D01*
G01Y1871900D01*
G02X76270Y1877860I10161J1D01*
G03Y1977860I68970J50000D01*
G02X57880Y1983820I-8229J5959D01*
G01Y2125900D01*
G02X76270Y2131860I10161J1D01*
G03Y2231860I68970J50000D01*
G02X57880Y2237820I-8229J5959D01*
G01Y2379900D01*
G02X76270Y2385860I10161J1D01*
G03Y2485860I68970J50000D01*
G02X57880Y2491820I-8229J5959D01*
G01Y2633900D01*
G02X76270Y2639860I10161J1D01*
G03Y2739860I68970J50000D01*
G02X57880Y2745820I-8229J5959D01*
G01Y2887900D01*
G02X76270Y2893860I10161J1D01*
G03Y2993860I68970J50000D01*
G02X57880Y2999820I-8229J5959D01*
G01Y3141900D01*
G02X76270Y3147860I10161J1D01*
G03X212170Y3145150I68974J50000D01*
G02X230310Y3138870I7982J-6284D01*
G01Y3124970D01*
X326350Y3028930D01*
X335520D01*
Y3021520D01*
X333750Y3020000D01*
G03X435380Y2850160I65491J-76138D01*
G01X438460Y2851350D01*
X491450Y2798360D01*
Y2738430D01*
G02X472550Y2733260I-10159J5D01*
G03X484410Y2691730I-73311J-43394D01*
G02X501750Y2699140I10157J226D01*
G01X588450Y2612440D01*
Y2406890D01*
G02X572030Y2398880I-10161J-6D01*
G03X522760Y2373660I-18794J-24022D01*
G01X522850Y2371440D01*
X494170Y2342760D01*
Y2225510D01*
G02X474980Y2220860I-10159J4D01*
G03X484030Y2173650I-75742J-38992D01*
G01X484480Y2178250D01*
X494170D01*
Y2161730D01*
X532480Y2123420D01*
X534520D01*
G02X538410Y2115080I-3J-5079D01*
G03X531310Y2096410I23389J-19580D01*
G02X521790Y2086570I-10154J299D01*
G03X554190Y2055220I1912J-30441D01*
G02X563710Y2065060I10154J-299D01*
G03X589240Y2108820I-1909J30441D01*
G02X598380Y2123420I9137J4441D01*
G01X613530D01*
X766180Y1970770D01*
X775640D01*
Y1962870D01*
X773250Y1961380D01*
G03X814580Y1918330I16109J-25899D01*
G02X830170Y1919800I8403J-5711D01*
G01X1182900Y1567070D01*
Y1313620D01*
X1319970Y1176550D01*
Y877240D01*
G03X1358110I19070J-23800D01*
G01Y935790D01*
G02X1375450Y942980I10159J3D01*
G01X1580580Y737850D01*
X1697760D01*
G03X1705030Y731290I23802J19069D01*
G01Y723010D01*
X1715990Y712050D01*
G02X1708810Y694710I-7186J-7181D01*
G01X1526290D01*
G02X1516900Y708750I-1J10159D01*
G03X1455820I-30540J12610D01*
G02X1446430Y694710I-9389J-3881D01*
G01X1329130D01*
X1313060Y710780D01*
X1313390Y713270D01*
G03X1287190Y687070I-30230J4030D01*
G01X1289680Y687400D01*
X1315430Y661650D01*
X1718470D01*
X1869390Y510730D01*
X1974590D01*
X2091620Y393700D01*
X2612240D01*
G02X2620230Y377270I-3J-10159D01*
G03X2650260Y328560I24009J-18810D01*
G01X2652920Y329100D01*
X2658440Y323580D01*
X2648300Y313440D01*
X2511980D01*
X2472600Y352820D01*
X2113980D01*
X2088580Y327420D01*
G03X2138900Y277100I25160J-25160D01*
G01X2143460Y281660D01*
X2443120D01*
X2482500Y242280D01*
X2677780D01*
X2773800Y338300D01*
G03X2780610Y379080I-25159J25160D01*
G02X2789740Y393700I9127J4461D01*
G01X2969620D01*
G03X2971780Y390510I26285J15472D01*
G02X2970110Y382900I-4020J-3106D01*
G03X3023510Y378370I23131J-44340D01*
G02X3021230Y392130I6148J8088D01*
G03X3024900Y418660I-25310J17020D01*
G02X3034550Y431990I9652J3170D01*
G01X3605430D01*
X3613460Y440020D01*
X3621790Y434600D01*
G03X3736520Y481400I79450J-30741D01*
G02X3733540Y497830I4206J9248D01*
G01X3861270Y625560D01*
G02X3877700Y622580I7182J-7186D01*
G03X3890580Y713330I77540J35284D01*
G02X3872710Y719940I-7711J6613D01*
G01Y849780D01*
G02X3890580Y856390I10159J-3D01*
G03Y967330I64660J55470D01*
G02X3872710Y973940I-7711J6613D01*
G01Y1103780D01*
G02X3890580Y1110390I10159J-3D01*
G03Y1221330I64660J55470D01*
G02X3872710Y1227940I-7711J6613D01*
G01Y1357780D01*
G02X3890580Y1364390I10159J-3D01*
G03Y1475330I64660J55470D01*
G02X3872710Y1481940I-7711J6613D01*
G01Y1590240D01*
G02X3889520Y1597920I10160J-1D01*
G03X4037960Y1616910I65720J75941D01*
G02X4056490Y1611150I8370J-5760D01*
G01Y797560D01*
X4056330D01*
G37*
G36*
G01X57880Y3253820D02*
Y3395900D01*
G02X76270Y3401860I10161J1D01*
G03X212170Y3399150I68974J50000D01*
G02X230310Y3392870I7982J-6284D01*
G01Y3256850D01*
G02X212170Y3250570I-10158J4D01*
G03X76270Y3247860I-66926J-52710D01*
G02X57880Y3253820I-8229J5959D01*
G37*
G36*
G01Y3507820D02*
Y3649900D01*
G02X76270Y3655860I10161J1D01*
G03X189310Y3632950I68975J49999D01*
G01X192710Y3635010D01*
X230310Y3597410D01*
Y3510850D01*
G02X212170Y3504570I-10158J4D01*
G03X76270Y3501860I-66926J-52710D01*
G02X57880Y3507820I-8229J5959D01*
G37*
G36*
G01X258210Y3640790D02*
G02X240870Y3633610I-10159J6D01*
G01X216090Y3658390D01*
X218150Y3661790D01*
G03X76270Y3755860I-72904J44072D01*
G02X57880Y3761820I-8229J5959D01*
G01Y3903900D01*
G02X76270Y3909860I10161J1D01*
G03X189310Y3886950I68975J49999D01*
G01X192710Y3889010D01*
X258210Y3823510D01*
Y3640790D01*
G37*
G36*
G01X4056780Y5716020D02*
X4056740Y5356860D01*
Y5055290D01*
G02X4039400Y5048110I-10159J6D01*
G01X3813360Y5274150D01*
Y5344810D01*
X3744180Y5413990D01*
X3603110D01*
X3478190Y5289070D01*
Y5201910D01*
X3410990Y5134710D01*
X3039860D01*
X2978620Y5073470D01*
G02X2961650Y5077960I-7177J7187D01*
G03X2955430Y5089670I-29403J-8111D01*
G02X2955290Y5096100I3861J3301D01*
G03X2951980Y5137220I-24050J18757D01*
G02X2950710Y5150690I6913J7447D01*
G03X2937670Y5197000I-24570J18072D01*
G02X2934330Y5213590I3842J9405D01*
G01X2944430Y5223690D01*
X2953030D01*
G03X2993640Y5214540I25205J17172D01*
G02X3007140Y5211540I5134J-8771D01*
G03X3054170Y5207670I25100J17322D01*
G02X3067670Y5208670I7310J-7060D01*
G03X3064310Y5254050I18572J24190D01*
G02X3050810Y5253050I-7310J7060D01*
G03X3016840Y5255180I-18569J-24192D01*
G02X3003340Y5258180I-5134J8771D01*
G03X2985880Y5270390I-25108J-17315D01*
G02X2981240Y5287410I2546J9836D01*
G01X3046610Y5352770D01*
X3049100Y5352440D01*
G03X3029340Y5401760I4029J30233D01*
G02X3013580Y5401660I-7921J6359D01*
G03X2979960Y5353470I-23536J-19403D01*
G02X2983780Y5336700I-3361J-9586D01*
G01X2957180Y5310100D01*
X2889310D01*
G02X2882130Y5327440I6J10159D01*
G01X2905010Y5350330D01*
X2906760Y5350530D01*
G03X2872860Y5384430I-3610J30290D01*
G01X2872660Y5382680D01*
X2844520Y5354550D01*
X2785420D01*
G02X2776250Y5369100I-6J10161D01*
G03X2721230I-27510J13160D01*
G02X2712060Y5354550I-9164J-4389D01*
G01X2675550D01*
X2592630Y5271630D01*
Y5271320D01*
X2557490Y5236180D01*
X2507790D01*
X2472660Y5271310D01*
Y5333240D01*
X2401740Y5404160D01*
G02X2405000Y5420720I7180J7187D01*
G03X2362740Y5448400I-11763J28141D01*
G01Y5443240D01*
X2169920D01*
X2120710Y5394030D01*
G02X2104460Y5396620I-7187J7180D01*
G03X2062730Y5409690I-27221J-13759D01*
G02X2049640Y5412710I-4831J8937D01*
G03X2047590Y5415270I-24797J-17756D01*
G02X2055170Y5432200I7577J6769D01*
G01X2081740D01*
X2224700Y5575160D01*
X2232870D01*
G02X2242700Y5562470I-8J-10158D01*
G03X2291520Y5578490I29536J-7611D01*
G02X2290760Y5593550I6425J7873D01*
G01X2349900Y5652690D01*
X2351650Y5652890D01*
G03X2317750Y5686790I-3610J30290D01*
G01X2317550Y5685040D01*
X2253420Y5620920D01*
X2205740D01*
X2062780Y5477960D01*
X1999280D01*
X1907980Y5386660D01*
Y5351860D01*
X1794840Y5238720D01*
X1537910D01*
X1482910Y5293720D01*
X1188730D01*
X1084250Y5189240D01*
X1062760D01*
X1061470Y5192400D01*
G03X1005010I-28230J-11540D01*
G01X1003720Y5189240D01*
X815120D01*
X748230Y5256120D01*
G02X752930Y5273160I7186J7186D01*
G03X761570Y5276830I-7461J29571D01*
G02X776610Y5271310I5366J-8629D01*
G03X809670Y5250430I29030J9351D01*
G01X812160Y5250760D01*
X859800Y5203120D01*
X945590D01*
X1000080Y5257610D01*
Y5289320D01*
X1080430Y5369670D01*
G02X1096490Y5367430I7184J-7183D01*
G03X1146230Y5402190I26651J14831D01*
G02X1153920Y5418990I7688J6641D01*
G01X1288900D01*
G02X1298550Y5405660I-2J-10160D01*
G03X1297350Y5400570I28978J-9518D01*
G02X1281190Y5393920I-10053J1469D01*
G03X1293020Y5365140I-18349J-24364D01*
G02X1309180Y5371790I10053J-1469D01*
G03X1357850Y5392890I18347J24361D01*
G02X1375140Y5398980I10102J-1091D01*
G01X1385340Y5388780D01*
X1385010Y5386290D01*
G03X1411210Y5412490I30230J-4030D01*
G01X1408720Y5412160D01*
X1368830Y5452050D01*
X1116050D01*
X1102160Y5438160D01*
X1099980D01*
X1067240Y5405420D01*
Y5403240D01*
X967020Y5303020D01*
Y5271310D01*
X931890Y5236180D01*
X873500D01*
X835540Y5274140D01*
X835870Y5276630D01*
G03X789540Y5306560I-30231J4028D01*
G02X774500Y5312080I-5366J8629D01*
G03X715900Y5310190I-29029J-9353D01*
G02X698860Y5305490I-9854J2486D01*
G01X650020Y5354340D01*
X224660D01*
X185860Y5315540D01*
Y5067980D01*
X236660Y5017180D01*
Y4890190D01*
X326270Y4800580D01*
X422980D01*
X604960Y4618600D01*
Y4542540D01*
G02X590360Y4533400I-10159J-3D01*
G03Y4478520I-13320J-27440D01*
G02X604960Y4469380I4441J-9137D01*
G01Y3902010D01*
X838540Y3668430D01*
Y2470170D01*
X814890D01*
G03X812270Y2473040I-23788J-19085D01*
G02X811650Y2487010I7057J7312D01*
G03X779490Y2536090I-23051J19972D01*
G02X766290Y2545780I-3041J9693D01*
G01Y2575890D01*
G02X781370Y2584780I10161J-1D01*
G03Y2638140I14770J26680D01*
G02X766290Y2647030I-4919J8891D01*
G01Y2667170D01*
G02X780110Y2676650I10161J0D01*
G03Y2733550I10980J28450D01*
G02X766290Y2743030I-3659J9480D01*
G01Y2858560D01*
G02X780110Y2868040I10161J0D01*
G03X767640Y2916000I10979J28456D01*
G02X752650Y2915310I-7810J6495D01*
G01X527310Y3140650D01*
Y4245790D01*
X418310Y4354790D01*
Y4384740D01*
X422030Y4385780D01*
G03X376450I-22790J82080D01*
G01X380170Y4384740D01*
Y4338990D01*
X402830Y4316330D01*
G02X396030Y4298990I-7180J-7188D01*
G03X470510Y4167190I3211J-85130D01*
G02X489170Y4161630I8501J-5563D01*
G01Y4012090D01*
G02X470510Y4006530I-10159J3D01*
G03X326330Y3915790I-71271J-46671D01*
G01X328390Y3912390D01*
X288650Y3872650D01*
Y3864350D01*
G02X271310Y3857170I-10159J6D01*
G01X216020Y3912450D01*
G03X76270Y4009860I-70778J47409D01*
G02X57880Y4015820I-8229J5959D01*
G01Y4157900D01*
G02X76270Y4163860I10161J1D01*
G03Y4263860I68970J50000D01*
G02X57880Y4269820I-8229J5959D01*
G01Y4411900D01*
G02X76270Y4417860I10161J1D01*
G03Y4517860I68970J50000D01*
G02X57880Y4523820I-8229J5959D01*
G01Y4665900D01*
G02X76270Y4671860I10161J1D01*
G03Y4771860I68970J50000D01*
G02X57880Y4777820I-8229J5959D01*
G01Y5228320D01*
X57110Y5229090D01*
Y5368790D01*
X57880Y5369560D01*
Y5716020D01*
X357980Y6016120D01*
X838090D01*
Y5666390D01*
X787290D01*
Y5513990D01*
X1829240D01*
Y5496560D01*
X1900240D01*
Y5577020D01*
G02X1915570Y5585770I10160J4D01*
G03Y5638270I15530J26250D01*
G02X1900240Y5647020I-5170J8746D01*
G01Y5666860D01*
X1899410Y5668860D01*
X1852240D01*
Y6016860D01*
X1853240Y6017860D01*
X2448240D01*
Y5666860D01*
X2413240D01*
Y5498560D01*
X2415240Y5496560D01*
X3442140D01*
Y5501290D01*
X3530490D01*
Y5666390D01*
X3479690D01*
Y6016120D01*
X4056800D01*
X4056780Y5716020D01*
G37*
G36*
G01X470510Y3498530D02*
G03X339050Y3512140I-71266J-46671D01*
G02X321710Y3519330I-7179J7192D01*
G01Y3858950D01*
X351770Y3889010D01*
X355170Y3886950D01*
G03X470510Y3913190I44068J72908D01*
G02X489170Y3907630I8501J-5563D01*
G01Y3504090D01*
G02X470510Y3498530I-10159J3D01*
G37*
G36*
G01X876600Y3695090D02*
X844530Y3727160D01*
G02X846540Y3743090I7180J7186D01*
G03X854860Y3788410I-15499J26269D01*
G02Y3801110I7930J6350D01*
G03X807220I-23820J19050D01*
G02Y3788410I-7930J-6350D01*
G03X804770Y3784860I23815J-19056D01*
G02X788840Y3782850I-8744J5170D01*
G01X650720Y3920970D01*
Y4034530D01*
G02X668490Y4041260I10160J-2D01*
G03X715160Y4042410I22851J20200D01*
G02X731020I7930J-6350D01*
G03X772870Y4036860I23819J19050D01*
G02X788710Y4031210I6005J-8193D01*
G03X800210Y4063460I29528J7646D01*
G02X784370Y4069110I-6005J8193D01*
G03X731020Y4080510I-29527J-7648D01*
G02X715160I-7930J6350D01*
G03X668490Y4081660I-23819J-19050D01*
G02X650720Y4088390I-7610J6732D01*
G01Y4637560D01*
X441940Y4846340D01*
X345230D01*
X282420Y4909150D01*
Y5036140D01*
X281320Y5037240D01*
G02X288500Y5054580I7186J7181D01*
G01X332980D01*
G02X340040Y5037120I-5J-10160D01*
G03X458440I59200J-61260D01*
G02X465500Y5054580I7065J7300D01*
G01X471220D01*
X532830Y4992970D01*
X530410Y4989480D01*
G03X556390Y4941570I25033J-17425D01*
G02X566860Y4931420I312J-10153D01*
G01Y4844640D01*
X649020Y4762480D01*
X777700D01*
G02X787860Y4752660I5J-10161D01*
G03X793960Y4735340I30481J1001D01*
G02X793820Y4729060I-4064J-3051D01*
G03X840240Y4685840I24518J-20206D01*
G02X847240I3500J-3677D01*
G03X890300Y4685160I21899J23019D01*
G02X907220Y4677580I6761J-7583D01*
G01Y4482930D01*
X1053310Y4336840D01*
X1053650Y4335480D01*
G03X1060400Y4322650I29592J7378D01*
G02X1052790Y4305760I-7612J-6730D01*
G01X964460D01*
X893940Y4235240D01*
Y3702270D01*
G02X876600Y3695090I-10159J6D01*
G37*
G36*
G01X2130500Y4721860D02*
X2088340Y4764020D01*
Y4788680D01*
G03X2090640Y4791430I-26107J24172D01*
G02X2097390Y4792680I4057J-3057D01*
G03X2135290Y4852910I18849J30179D01*
G02X2133550Y4868670I5445J8577D01*
G01X2139140Y4874260D01*
X2276390D01*
G03X2337220Y4893190I25705J24599D01*
G01X2337490Y4894810D01*
X2355040Y4912360D01*
Y4963160D01*
X2253440Y5064760D01*
X2246160D01*
X2245530Y5069110D01*
G03X2185150I-30190J-4350D01*
G01X2184520Y5064760D01*
X1389840D01*
X1323770Y4998690D01*
X1322030Y4998480D01*
G03X1304110Y4990940I4314J-35318D01*
G02X1297770I-3170J3970D01*
G03X1249740Y4938660I-22228J-27782D01*
G02X1249560Y4924480I-7366J-6998D01*
G01X1233980Y4908900D01*
X971350D01*
X899600Y4837150D01*
Y4828520D01*
X858810Y4787730D01*
X857690Y4787350D01*
G03X846910Y4781440I11458J-33685D01*
G02X840570I-3170J3970D01*
G03X788260Y4772660I-22229J-27780D01*
G01X653240D01*
X626950Y4798950D01*
G02X633940Y4816290I7188J7181D01*
G03X655580Y4879550I-702J35571D01*
G02X655270Y4895100I6382J7905D01*
G03X609480Y4894170I-23448J26760D01*
G02X609790Y4878620I-6382J-7905D01*
G03X597670Y4852560I23452J-26756D01*
G02X580330Y4845570I-10159J198D01*
G01X577040Y4848860D01*
Y4943790D01*
G03X540530Y5004370I-21600J28274D01*
G01X537320Y5002880D01*
X527840Y5012360D01*
X532480Y5017000D01*
X533930Y5017320D01*
G03X493610Y5066230I-7686J34738D01*
G02X477100Y5063100I-9320J4050D01*
G01X475440Y5064760D01*
X264570D01*
X246840Y5082490D01*
Y5267960D01*
X272240Y5293360D01*
X597410D01*
G02X606990Y5279820I1J-10158D01*
G03X620840Y5238330I33548J-11858D01*
G02X623660Y5224230I-5629J-8458D01*
G03X668790Y5236460I29580J-19771D01*
G02X667200Y5244400I2215J4573D01*
G03X667920Y5245240I-26650J23572D01*
G02X682930Y5245940I7824J-6483D01*
G01X848690Y5080180D01*
X933840D01*
G02X943260Y5066210I2J-10160D01*
G03X1009220I32980J-13350D01*
G02X1018640Y5080180I9418J3810D01*
G01X1050680D01*
X1174960Y5204460D01*
X1269960D01*
G03X1325720Y5198840I30078J19002D01*
G02X1332470Y5199360I3666J-3517D01*
G03X1369140Y5195440I21570J28299D01*
G02X1375790Y5193220I2161J-4596D01*
G03X1421370Y5177210I31447J16642D01*
G02X1435560Y5167500I4037J-9324D01*
G03X1490280Y5184870I30479J-1140D01*
G02X1490790Y5191600I4042J3078D01*
G03X1492550Y5193430I-24748J25563D01*
G02X1507300Y5193830I7564J-6780D01*
G01X1517100Y5184040D01*
X1515330Y5180710D01*
G03X1572010Y5172980I26910J-14353D01*
G02X1581930Y5185340I9920J2199D01*
G01X1816950D01*
X1836070Y5204460D01*
X1880320D01*
G02X1886750Y5186430I5J-10160D01*
G03X1931730I22490J-27570D01*
G02X1938160Y5204460I6425J7870D01*
G01X2010270D01*
X2012830Y5201900D01*
X2331860D01*
G02X2340380Y5186210I-2J-10159D01*
G03X2348450Y5138730I29859J-19351D01*
G02X2349700Y5132110I-3111J-4016D01*
G03X2390660Y5079840I30542J-18250D01*
G01X2393580Y5080740D01*
X2426100Y5048220D01*
X2545940D01*
Y4917290D01*
X2504880Y4876230D01*
Y4833250D01*
X2439810Y4768180D01*
X2295810D01*
X2249490Y4721860D01*
X2130500D01*
G37*
G36*
G01X1334620Y1664980D02*
X919960Y2079640D01*
Y2113000D01*
X863380Y2169580D01*
G02X870570Y2186920I7187J7180D01*
G01X915800D01*
X1387090Y1715640D01*
G02X1380490Y1698310I-7185J-7186D01*
G03X1351910Y1671090I1749J-30450D01*
G02X1334620Y1664980I-10103J1070D01*
G37*
G36*
G01X494970Y3079730D02*
X501940D01*
X705290Y2876380D01*
Y2785150D01*
G02X687950Y2777970I-10159J6D01*
G01X537690Y2928230D01*
Y3024750D01*
X491380Y3071060D01*
G02X494970Y3079730I3592J3591D01*
G37*
G36*
G01X637150Y2653600D02*
X554990Y2735760D01*
Y2803710D01*
G02X572330Y2810890I10159J-6D01*
G01X654490Y2728730D01*
Y2660790D01*
G02X637150Y2653600I-10160J-3D01*
G37*
G36*
G01X1596380Y775990D02*
X1387310Y985060D01*
Y1203250D01*
X1246440Y1344120D01*
Y1348950D01*
G02X1261190Y1358020I10161J4D01*
G03X1289360Y1414970I14352J28343D01*
G02X1287230Y1431880I4421J9146D01*
G03X1259060Y1486990I-20489J24282D01*
G02X1246440Y1496850I-2461J9856D01*
G01Y1583360D01*
G02X1259010Y1593230I10160J0D01*
G03X1290030Y1603770I7233J29631D01*
G02X1305140Y1604600I7927J-6354D01*
G01X1393410Y1516330D01*
X1594050D01*
X1594740Y1517020D01*
X1607250D01*
X1693050Y1602830D01*
X1694110Y1603220D01*
G03X1712600Y1618590I-12162J33437D01*
G02X1728530Y1620620I8752J-5157D01*
G01X1754310Y1594840D01*
Y1495290D01*
G02X1739290Y1486360I-10161J-7D01*
G03Y1430560I-15190J-27900D01*
G02X1754310Y1421630I4859J-8923D01*
G01Y847270D01*
G02X1738760Y838650I-10161J-6D01*
G03X1700050Y792250I-16170J-25857D01*
G02X1699790Y778280I-7508J-6848D01*
G03X1697760Y775990I21779J-21351D01*
G01X1596380D01*
G37*
G36*
G01X2141240Y1069990D02*
G03X2123270Y1077390I-19993J-23033D01*
G02X2113820Y1086820I685J10136D01*
G03X2102460Y1108510I-30427J-2116D01*
G01Y1137160D01*
X1843250Y1396370D01*
Y1631700D01*
X1778160Y1696790D01*
G02X1780500Y1712900I7184J7181D01*
G03X1739140Y1754260I-14550J26810D01*
G02X1723030Y1751920I-8929J4844D01*
G01X1666310Y1808640D01*
G02X1673500Y1825980I7187J7181D01*
G01X1793560D01*
X1938430Y1681110D01*
G02X1931250Y1663770I-7186J-7181D01*
G01X1927700D01*
X1926500Y1664500D01*
G03X1927640Y1612930I-15709J-26145D01*
G01X1929320D01*
X2097410Y1444840D01*
Y1391540D01*
X2119750Y1369210D01*
X2120040Y1367670D01*
G03X2172050Y1349650I31202J5988D01*
G02X2185120Y1349850I6654J-7675D01*
G03X2216410Y1344770I20058J24640D01*
G02X2229020Y1339930I3586J-9505D01*
G03X2289020Y1354510I28229J14580D01*
G01Y1522400D01*
X2207740Y1603680D01*
Y1674740D01*
G02X2224120Y1682770I10160J-3D01*
G03X2262990Y1684020I18680J24110D01*
G02X2276430I6720J-7621D01*
G03Y1729740I20190J22860D01*
G02X2262990I-6720J7621D01*
G03X2248920Y1736760I-20192J-22859D01*
G02X2243780Y1753900I2040J9953D01*
G01X2248280Y1758400D01*
Y1880540D01*
X2113720Y2015090D01*
G03X2068800Y1970170I-22460J-22460D01*
G01X2077520Y1961440D01*
X2072440Y1956350D01*
X2070320Y1956360D01*
G03X2047400Y1905650I-79J-30499D01*
G02X2046900Y1891650I-7606J-6737D01*
G03X2091080Y1890070I21339J-21791D01*
G02X2091580Y1904070I7606J6737D01*
G03X2099660Y1917810I-21338J21794D01*
G02X2116640Y1922320I9800J-2677D01*
G01X2184740Y1854220D01*
Y1784720D01*
X2144200Y1744180D01*
Y1577360D01*
X2225480Y1496080D01*
Y1483300D01*
G02X2208140Y1476120I-10159J6D01*
G01X1868220Y1816030D01*
G02X1875120Y1833370I7186J7184D01*
G03X1843750Y1864740I-880J30490D01*
G02X1826410Y1857840I-10156J286D01*
G01X1812520Y1871740D01*
X1495410D01*
X1361270Y2005880D01*
G02X1363280Y2021810I7180J7186D01*
G03X1343910Y2078330I-15500J26267D01*
G02X1333070Y2091890I-1294J10078D01*
G03X1275570Y2112250I-28651J10460D01*
G02X1258780Y2108370I-9607J3303D01*
G01X884300Y2482850D01*
Y2588710D01*
G02X901640Y2595890I10159J-6D01*
G01X917850Y2579680D01*
X917520Y2577190D01*
G03X930540Y2547980I30231J-4032D01*
G02X931170Y2531660I-5727J-8393D01*
G03X980470Y2511890I19069J-23802D01*
G01X980140Y2514380D01*
X1003820Y2538060D01*
G02X1019570Y2544580I9990J-1848D01*
G03X1012750Y2588360I17301J25116D01*
G01X1011220Y2586390D01*
X1003650D01*
Y2596320D01*
X970910Y2629060D01*
X969420D01*
X952400Y2646080D01*
Y3185800D01*
G02X969740Y3192980I10159J-6D01*
G01X998340Y3164380D01*
X998010Y3161890D01*
G03X1050270Y3136770I30231J-4028D01*
G02X1064470Y3137240I7340J-7025D01*
G03X1084440Y3190250I20571J22517D01*
G02X1074310Y3202530I-194J10158D01*
G03X1014900Y3216330I-29825J6383D01*
G02X997860Y3211620I-9854J2472D01*
G01X991770Y3217710D01*
Y3327130D01*
G02X1009110Y3334310I10159J-6D01*
G01X1166440Y3176980D01*
X1166110Y3174490D01*
G03X1226260Y3164530I30233J-4027D01*
G02X1243410Y3169740I9965J-1971D01*
G01X1761280Y2651870D01*
X1972870D01*
X2064310Y2560430D01*
X2628310D01*
X2653410Y2535330D01*
G02X2650580Y2518970I-7184J-7182D01*
G03X2691210Y2478340I13070J-27560D01*
G02X2707570Y2481170I9178J-4354D01*
G01X2710620Y2478120D01*
Y1879520D01*
X2633790Y1802690D01*
G03X2632650Y1801550I20990J-22130D01*
G01X2632610Y1801500D01*
X2631850Y1800750D01*
X2630790Y1799400D01*
G03X2675720Y1758380I23967J-18865D01*
G02X2689680I6980J-7379D01*
G03X2740930Y1776930I20962J22158D01*
G01X2741130Y1778680D01*
X2763830Y1801370D01*
G02X2781170Y1794190I7181J-7186D01*
G01Y1499670D01*
X2825970Y1455010D01*
G02X2818800Y1437660I-7176J-7191D01*
G01X2599740D01*
X2552010Y1389930D01*
G02X2535150Y1394010I-7186J7181D01*
G03X2527360Y1406760I-30242J-9723D01*
G01X2440150Y1493980D01*
Y2360390D01*
X2325700Y2474830D01*
G03X2280780Y2429910I-22460J-22460D01*
G01X2376610Y2334070D01*
Y1467660D01*
X2394810Y1449460D01*
G02X2389820Y1432360I-7186J-7181D01*
G03X2383840Y1430440I7454J-33490D01*
G01X2382890Y1430040D01*
X2338120D01*
X2304220Y1396140D01*
Y1303540D01*
X2158060Y1157380D01*
Y1077660D01*
G02X2141240Y1069990I-10159J0D01*
G37*
G36*
G01X1123570Y4348160D02*
G03X1121900Y4409120I-124J30499D01*
G02X1111360Y4417670I-507J10147D01*
G03X1107160Y4428940I-30120J-4807D01*
G02X1111910Y4443680I8634J5353D01*
G03X1121430Y4493790I-11672J28177D01*
G02X1120430Y4507290I7060J7310D01*
G03X1118730Y4546460I-24191J18572D01*
G02X1120480Y4561700I7495J6860D01*
G03X1128640Y4603750I-17239J25162D01*
G02X1132130Y4618240I8456J5629D01*
G03X1142870Y4628330I-14895J26615D01*
G01X1239210D01*
X1290480Y4577060D01*
X1554030D01*
G02X1561210Y4559720I-6J-10159D01*
G01X1525250Y4523760D01*
X1410960D01*
X1336480Y4449280D01*
Y4412480D01*
X1250000Y4326000D01*
X1198680D01*
X1158710Y4286020D01*
G02X1142460Y4288620I-7183J7187D01*
G03X1109000Y4304710I-27217J-13763D01*
G01X1107480Y4304390D01*
G03X1103640Y4305540I-6630J-15154D01*
G01X1103590Y4305760D01*
X1101450D01*
G03X1100880Y4305770I-575J-16530D01*
G01X1093670D01*
Y4314020D01*
X1096540Y4315410D01*
G03X1113520Y4339210I-13302J27447D01*
G02X1123570Y4348160I10088J-1210D01*
G37*
G36*
G01X1012710Y4768110D02*
G03X972470Y4782560I-27472J-13249D01*
G02X958060Y4791790I-4251J9227D01*
G01Y4812930D01*
X995570Y4850440D01*
X1117220D01*
G02X1126970Y4837430I-2J-10160D01*
G03X1128100Y4817100I29270J-8569D01*
G02X1118730Y4803020I-9374J-3920D01*
G01X1066720D01*
X1029050Y4765340D01*
G02X1012710Y4768110I-7187J7184D01*
G37*
G36*
G01X1760960Y2835450D02*
X1565100Y3031300D01*
G02X1569870Y3048360I7184J7188D01*
G03X1581580Y3101860I-7262J29621D01*
G02X1579810Y3115950I6325J7951D01*
G03X1548280Y3163990I-24319J18406D01*
G02X1542060Y3169700I-1199J4936D01*
G03X1542230Y3171070I-30175J4440D01*
G02X1552990Y3180120I10102J-1089D01*
G03X1585420Y3209530I1947J30438D01*
G02X1602760Y3216370I10155J-343D01*
G01X1966340Y2852790D01*
G02X1959150Y2835450I-7187J-7181D01*
G01X1760960D01*
G37*
G36*
G01X1501310Y3795080D02*
G02X1518350Y3802560I10161J1D01*
G03X1525090Y3797850I20682J22418D01*
G01X1527860Y3793330D01*
X1527550Y3791590D01*
G03X1538160Y3743520I42950J-15726D01*
G01X1583290Y3698380D01*
X1724450D01*
X1796980Y3770910D01*
Y3773490D01*
X1798930Y3775440D01*
Y3806320D01*
X1802610Y3807380D01*
G03X1825580Y3836770I-8779J30532D01*
G02X1834150Y3846440I10155J-367D01*
G03X1846990Y3904150I-4934J31381D01*
G01X1846590Y3904430D01*
X1842650Y3908360D01*
X1848410Y3914120D01*
X1906600D01*
X1919690Y3927210D01*
X1928800Y3918100D01*
X1926950Y3914750D01*
G03X1975210Y3875060I27792J-15392D01*
G01X2008480D01*
X2009220Y3870860D01*
G03X2013560Y3859520I31293J5476D01*
G02X2012630Y3853040I-4311J-2688D01*
G03X2010790Y3851310I29531J-33252D01*
G01X1929570Y3770080D01*
Y3336380D01*
X1882410Y3289220D01*
X1881860D01*
X1834240Y3241600D01*
Y3241090D01*
X1832810Y3239610D01*
G03X1896190Y3177210I31933J-30953D01*
G01X2018510Y3299540D01*
Y3712860D01*
G02X2032900Y3722090I10159J-6D01*
G03X2081460Y3730810I18011J39269D01*
G01X2084060Y3733410D01*
X2087220Y3732060D01*
G03X2130300Y3737300I17030J39701D01*
G02X2137040Y3736760I3067J-4050D01*
G03X2180860Y3734690I22994J21921D01*
G02X2193790Y3735030I6671J-7665D01*
G03X2192530Y3784040I19571J25024D01*
G02X2179600Y3783700I-6671J7665D01*
G03X2153560Y3789780I-19572J-25021D01*
G01X2153040Y3789680D01*
X2147440D01*
Y3799870D01*
X2197440Y3849870D01*
Y3926300D01*
X2200260Y3927700D01*
G03X2198040Y3985620I-14119J28461D01*
G01X2194870Y3990330D01*
X2195170Y3992050D01*
G03X2195860Y4021020I-43029J15518D01*
G03X2214420Y4040040I-11374J29665D01*
G01X2215620Y4043420D01*
X2232830D01*
X2233660Y4039360D01*
G03X2295900I31120J6390D01*
G01X2296730Y4043420D01*
X2316180D01*
X2316700Y4038930D01*
G03X2379820I31560J3660D01*
G01X2380340Y4043420D01*
X2399850D01*
X2400710Y4039410D01*
G03X2458040Y4028220I31061J6679D01*
G02X2473620Y4029690I8399J-5715D01*
G01X2484510Y4018810D01*
G03X2507520Y4006390I32325J32362D01*
G01X2511560Y4005550D01*
Y3930970D01*
X2514890Y3927640D01*
Y3926420D01*
X2510890Y3922420D01*
X2509490Y3922090D01*
G03X2487570Y3878840I7353J-30906D01*
G01X2488890Y3875690D01*
X2460220Y3847010D01*
G02X2446560Y3846360I-7187J7184D01*
G03X2440550Y3850270I-20218J-24503D01*
G02X2442000Y3859830I2271J4546D01*
G03X2409660Y3907610I-5149J31350D01*
G02X2396180Y3903900I-8696J5253D01*
G03X2385060Y3844320I-14939J-28040D01*
G02X2395980Y3831240I1214J-10085D01*
G03X2395760Y3830460I30465J-9014D01*
G02X2382210Y3823770I-9783J2746D01*
G03X2372610Y3762560I-11767J-29512D01*
G02X2383390Y3753620I692J-10134D01*
G03X2401470Y3728590I31548J3743D01*
G01X2404400Y3727220D01*
Y3647510D01*
X2385290Y3628400D01*
X2200090D01*
X2145910Y3574220D01*
Y3514760D01*
X2191160Y3469520D01*
G03X2221000Y3456190I32344J32339D01*
G02X2225800Y3451120I-280J-5073D01*
G01Y3407660D01*
G03X2239200Y3375320I45738J5D01*
G01X2278390Y3336120D01*
X2284630D01*
G02X2291820Y3318780I2J-10160D01*
G01X2193780Y3220740D01*
X2005820D01*
X1981640Y3196560D01*
Y3095020D01*
X1998200Y3078460D01*
X2076880D01*
X2102280Y3103860D01*
X2219180D01*
X2244580Y3078460D01*
X2393670D01*
X2394710Y3077420D01*
X2482450D01*
X2493650Y3088620D01*
X2658570D01*
G02X2668400Y3075930I-8J-10158D01*
G03X2667460Y3069290I29546J-7569D01*
G02X2657310Y3059450I-10156J321D01*
G01X2149530D01*
G03X2094360Y3035310I-25634J-16529D01*
G02X2084530Y3022620I-9838J-2532D01*
G01X2046620D01*
X2026760Y3002760D01*
X2024270Y3003090D01*
G03X2050470Y2976890I-4030J-30230D01*
G01X2050140Y2979380D01*
X2060320Y2989560D01*
X2092460D01*
G02X2101590Y2974960I-7J-10159D01*
G03X2111330Y2936800I27439J-13319D01*
G02X2111140Y2920110I-5891J-8279D01*
G03X2100710Y2881730I17100J-25254D01*
G02X2091540Y2867200I-9171J-4371D01*
G01X2005870D01*
X1766210Y3106860D01*
G02X1773730Y3124200I7184J7185D01*
G03X1744260Y3153670I1010J30480D01*
G02X1726920Y3146150I-10155J-336D01*
G01X1501310Y3371760D01*
Y3795080D01*
G37*
G36*
G01X1515930Y3080470D02*
X1267310Y3329100D01*
Y3953130D01*
G02X1281470Y3962460I10158J-7D01*
G03Y4018540I12010J28040D01*
G02X1267310Y4027870I-4002J9337D01*
G01Y4059580D01*
X1296700Y4088970D01*
Y4117350D01*
X1362140Y4182790D01*
X1674140D01*
X1801140Y4309790D01*
X1937600D01*
X1937760Y4304870D01*
G03X1957350Y4277370I30483J987D01*
G02X1960910Y4260700I-3627J-9490D01*
G01X1953510Y4253300D01*
X1886030D01*
X1872310Y4239580D01*
G02X1855160Y4244790I-7184J7182D01*
G03X1797750Y4252070I-29918J-5930D01*
G02X1785290Y4246870I-9154J4406D01*
G03X1781980Y4247420I-3298J-9611D01*
G01X1774710D01*
X1675280Y4147990D01*
Y4135550D01*
X1672600Y4132870D01*
X1667360D01*
X1660630Y4126140D01*
G02X1644300Y4128910I-7181J7188D01*
G03X1596010Y4093360I-27462J-13270D01*
G02X1594610Y4077430I-6942J-7416D01*
G03X1593080Y4076370I16598J-25591D01*
G02X1579590Y4077620I-6047J8161D01*
G03X1552080Y4086920I-22345J-20761D01*
G02X1540590Y4094170I-1714J10013D01*
G03X1483350Y4098200I-29347J-8309D01*
G02X1470110Y4092960I-9287J4118D01*
G03X1463060Y4094980I-11866J-28100D01*
G02X1454520Y4105460I1609J10030D01*
G03X1393670Y4109570I-30472J1360D01*
G02X1383980Y4100330I-10119J911D01*
G03X1381160Y4100090I1174J-30477D01*
G02X1375410Y4105500I-684J5034D01*
G03X1317520Y4094540I-30414J2280D01*
G02X1313830Y4081570I-9153J-4406D01*
G03X1356260Y4039940I16414J-25709D01*
G02X1370000Y4043440I8666J-5300D01*
G03X1415710Y4071170I15239J26420D01*
G02X1421250Y4076450I5076J220D01*
G03X1423350Y4076330I2789J30371D01*
G02X1428240Y4070340I-110J-5081D01*
G03X1486130Y4052520I30003J-5473D01*
G02X1499370Y4057760I9287J-4118D01*
G03X1516400Y4055800I11862J28100D01*
G02X1527890Y4048550I1714J-10013D01*
G03X1575400Y4032350I29350J8308D01*
G02X1588890Y4031100I6047J-8161D01*
G03X1601380Y4023000I22339J20767D01*
G01X1602500Y4022620D01*
X1606920Y4018190D01*
X1599930Y4011200D01*
Y3962890D01*
X1554420Y3917380D01*
G02X1538490Y3919390I-7186J7182D01*
G03X1484370Y3916260I-26252J-15529D01*
G02X1470630Y3911260I-9282J4129D01*
G03X1461780Y3853700I-13392J-27401D01*
G01X1464310Y3854080D01*
X1469720Y3848680D01*
X1463170Y3842130D01*
Y3355960D01*
X1560750Y3258380D01*
G02X1553910Y3241040I-7183J-7185D01*
G03X1537140Y3235330I1022J-30483D01*
G02X1521270Y3241460I-5933J8248D01*
G03X1468560Y3255290I-29833J-6340D01*
G02X1455350Y3253520I-7623J6715D01*
G03X1461450Y3207880I-16779J-25470D01*
G02X1474660Y3209650I7623J-6715D01*
G03X1481350Y3206340I16769J25476D01*
G02X1486460Y3191150I-3366J-9587D01*
G03X1514100Y3143920I25450J-16809D01*
G02X1524990Y3133930I732J-10133D01*
G03X1536520Y3110480I30497J435D01*
G02X1538290Y3096390I-6325J-7951D01*
G03X1532990Y3085240I24326J-18398D01*
G02X1515930Y3080470I-9872J2414D01*
G37*
G36*
G01X1369540Y4398780D02*
Y4435580D01*
X1424660Y4490700D01*
X1467670D01*
G02X1474850Y4473360I-6J-10159D01*
G01X1304630Y4303140D01*
X1298420D01*
G02X1291240Y4320480I6J10159D01*
G01X1369540Y4398780D01*
G37*
G36*
G01X1566490Y4518240D02*
X1617330Y4569080D01*
X1817670D01*
X1870600Y4622010D01*
G02X1887890Y4615830I7181J-7185D01*
G03X1895820Y4598180I30350J3029D01*
G02X1896070Y4584690I-7471J-6886D01*
G03X1890040Y4556040I23169J-19836D01*
G02X1880320Y4542940I-9724J-2941D01*
G01X1799540D01*
X1757500Y4500900D01*
X1573670D01*
G02X1566490Y4518240I6J10159D01*
G37*
G36*
G01X1447770Y4220930D02*
G02X1440590Y4238270I6J10159D01*
G01X1466060Y4263740D01*
Y4264400D01*
X1529640Y4327980D01*
X1747320D01*
X1883500Y4464160D01*
X1908870D01*
G02X1918700Y4451470I-8J-10158D01*
G03X1942530Y4413900I29537J-7607D01*
G02X1950780Y4403400I-1897J-9982D01*
G03X1958280Y4381780I30461J-1544D01*
G02X1950640Y4364930I-7644J-6691D01*
G01X1940810D01*
G02X1930670Y4375780I-4J10159D01*
G03X1873590Y4363030I-30429J2081D01*
G02X1864710Y4347930I-8879J-4940D01*
G01X1785340D01*
X1658340Y4220930D01*
X1447770D01*
G37*
G36*
G01X1350850Y4284640D02*
X1521350Y4455140D01*
X1776460D01*
X1818500Y4497180D01*
X1827280D01*
G02X1834460Y4479840I-6J-10159D01*
G01X1728360Y4373740D01*
X1510680D01*
X1420300Y4283360D01*
Y4282700D01*
X1404900Y4267300D01*
X1358030D01*
G02X1350850Y4284640I6J10159D01*
G37*
G36*
G01X1395410Y4881390D02*
X1351740Y4925060D01*
Y4938240D01*
G03X1353600Y4986020I-25400J24915D01*
G01X1350610Y4989590D01*
X1400370Y5039340D01*
X2177640D01*
G02X2187060Y5025380I-3J-10160D01*
G03X2245690Y5010940I28280J-11422D01*
G02X2262980Y5017120I10110J-1008D01*
G01X2329620Y4950480D01*
Y4941180D01*
G02X2315600Y4931780I-10160J-3D01*
G03X2266900Y4904020I-13497J-32919D01*
G01X2266260Y4899680D01*
X2128610D01*
X2115890Y4886960D01*
X2024840D01*
X2012140Y4899660D01*
X2004560D01*
X2003520Y4903380D01*
G03X2002170Y4907330I-34284J-9511D01*
G02X2004420Y4913700I4702J1921D01*
G03X1974860Y4978220I-17169J31165D01*
G01X1974010Y4977900D01*
X1927830D01*
X1924900Y4974960D01*
G02X1908500Y4977860I-7186J7186D01*
G03X1855500Y4991770I-32262J-15000D01*
G03X1798900Y4959970I-21161J-28607D01*
G02X1788780Y4948900I-10118J-911D01*
G01X1773820D01*
G02X1763700Y4959900I4J10159D01*
G03X1705270Y4990030I-35457J2960D01*
G03X1647060Y4956130I-23330J-26866D01*
G02X1632960Y4944840I-9959J-2012D01*
G03X1586760Y4896170I-14518J-32481D01*
G02X1577710Y4881390I-9050J-4619D01*
G01X1395410D01*
G37*
G36*
G01X2064320Y1108510D02*
G03X2060310Y1064770I19070J-23802D01*
G01X2063400Y1061200D01*
X2033710Y1031510D01*
Y876760D01*
X2070440Y840030D01*
Y833890D01*
G02X2057110Y824240I-10160J2D01*
G03X2046400Y825740I-9519J-28978D01*
G01X2044180Y825650D01*
X1817850Y1051980D01*
Y1343300D01*
G02X1835190Y1350490I10159J3D01*
G01X2064320Y1121360D01*
Y1108510D01*
G37*
G36*
G01X2722560Y463220D02*
G02X2715380Y480560I6J10159D01*
G01X2753840Y519020D01*
Y576080D01*
X2780320Y602560D01*
X2782810Y602230D01*
G03X2797120Y661180I4034J30233D01*
G02X2793360Y677920I3427J9562D01*
G01X2834680Y719240D01*
G02X2850350Y717640I7183J-7183D01*
G03X2898690Y754590I25490J16748D01*
G02X2898570Y767920I7608J6734D01*
G03X2869000Y817550I-23191J19806D01*
G02X2856710Y827490I-2129J9936D01*
G01Y842870D01*
X2875920Y862080D01*
X2877590Y862330D01*
G03X2897000Y873440I-4390J30181D01*
G01X2940480D01*
X3024840Y957800D01*
Y1045850D01*
X3009110Y1061580D01*
Y1326300D01*
X2819310Y1515510D01*
Y1820930D01*
X2819880Y1821500D01*
Y2520490D01*
X2819310Y2521060D01*
Y2593360D01*
X2732530Y2680140D01*
X2732620Y2682360D01*
G03X2703340Y2653080I-30480J1200D01*
G01X2705560Y2653170D01*
X2781170Y2577560D01*
Y2547800D01*
G02X2763830Y2540620I-10159J6D01*
G01X2548400Y2756050D01*
X1804440D01*
X1780520Y2779970D01*
G02X1787700Y2797310I7186J7181D01*
G01X2764640D01*
X2845250Y2716700D01*
Y1690330D01*
X2915680Y1619900D01*
X2915590Y1617680D01*
G03X2974530Y1605510I30478J-1204D01*
G02X2991200Y1609050I9485J-3646D01*
G01X3047170Y1553070D01*
Y1536040D01*
G03X3085310I19070J-26980D01*
G01Y1568870D01*
X2972910Y1681270D01*
X2955800D01*
X2949900Y1687170D01*
G02X2955650Y1704410I7185J7182D01*
G03X2973610Y1713400I-4511J31446D01*
G01X3043110Y1782890D01*
Y2953900D01*
X3185810Y3096600D01*
Y3196550D01*
X3188190Y3198930D01*
G02X3196860Y3195340I3590J-3594D01*
G01Y1785040D01*
G02X3182590Y1775750I-10159J0D01*
G03Y1719970I-12350J-27890D01*
G02X3196860Y1710680I4111J-9290D01*
G01Y1704880D01*
X3368660Y1533080D01*
Y1457230D01*
G03X3413270Y1415660I22881J-20167D01*
G02X3426870Y1416440I7232J-7134D01*
G03X3464430Y1464500I19117J23766D01*
G01Y1541260D01*
X3266760Y1738930D01*
Y2820230D01*
G02X3284100Y2827410I10159J-5D01*
G01X3333900Y2777610D01*
X3350390D01*
G02X3360530Y2768030I-3J-10160D01*
G03X3416000Y2787210I30450J1739D01*
G03X3412760Y2861790I-28038J36142D01*
G03X3407870Y2898050I-26630J14868D01*
G02X3407040Y2911360I7239J7132D01*
G03X3374860Y2959340I-24215J18541D01*
G02X3362040Y2969150I-2660J9805D01*
G01Y3044920D01*
X3370320Y3044800D01*
X3371690Y3041980D01*
G03X3412840Y3016220I41150J19987D01*
G01X3435590D01*
X3526480Y3107110D01*
G02X3543820Y3099930I7181J-7185D01*
G01Y2713200D01*
X3433190Y2602570D01*
G02X3418110Y2603360I-7184J7185D01*
G03X3417380Y2604240I-23835J-19029D01*
G02X3417390Y2617620I7649J6684D01*
G03X3416850Y2658400I-22950J20090D01*
G02X3416440Y2671730I7459J6901D01*
G03X3370420Y2670340I-23614J19301D01*
G02X3370830Y2657010I-7459J-6901D01*
G03X3371470Y2617640I23611J-19306D01*
G02X3371460Y2604260I-7649J-6684D01*
G03X3368410Y2568230I22951J-20087D01*
G03X3376550Y2488860I26330J-37402D01*
G02X3379650Y2472310I-4039J-9322D01*
G03X3379130Y2429410I21420J-21713D01*
G02X3379830Y2416100I-7307J-7058D01*
G03X3381500Y2376590I24039J-18774D01*
G02X3381930Y2363270I-7448J-6907D01*
G03X3383510Y2322960I23650J-19259D01*
G02X3384130Y2309640I-7349J-7017D01*
G03X3430120Y2311770I23921J-18921D01*
G02X3429500Y2325090I7349J7017D01*
G03X3427950Y2364750I-23920J18925D01*
G02X3427520Y2378070I7448J6907D01*
G03X3425810Y2418520I-23650J19261D01*
G02X3425110Y2431830I7307J7058D01*
G03X3425510Y2468850I-24040J18772D01*
G02X3433650Y2485090I8138J6081D01*
G01X3445090D01*
X3610720Y2650720D01*
G02X3626780Y2648470I7181J-7186D01*
G03X3763630Y2631850I74461J41389D01*
G02X3781230Y2624930I7441J-6916D01*
G01Y2246790D01*
G02X3763630Y2239870I-10159J-4D01*
G03X3648150Y2115240I-62390J-58006D01*
G02X3643970Y2097370I-6336J-7942D01*
G03X3676900Y2082730I6467J-29808D01*
G02X3687370Y2097810I8814J5055D01*
G03X3713240Y2097520I13879J84051D01*
G02X3724820Y2088020I1434J-10059D01*
G03X3772840Y2064780I30452J1691D01*
G02X3788850Y2056470I5850J-8307D01*
G01Y1983470D01*
G02X3770440Y1977550I-10159J6D01*
G03X3728600Y1847180I-69199J-49691D01*
G02X3741990Y1836640I3271J-9619D01*
G03X3802590Y1837910I30371J-2771D01*
G01X3802260Y1840400D01*
X3821910Y1860050D01*
Y2097030D01*
X3839690Y2114810D01*
Y3006720D01*
X3839910Y3006940D01*
Y3074320D01*
X3839690Y3074540D01*
Y4098790D01*
X3772090Y4166390D01*
X3774150Y4169790D01*
G03X3775550Y4172190I-72878J44121D01*
G02X3783570Y4173300I4430J-2481D01*
G01X3900080Y4056790D01*
X3978440D01*
G03X3986240Y4049890I23812J19059D01*
G02X3981990Y4040740I-2663J-4325D01*
G03X4006030Y4028250I-26756J-80878D01*
G02X4009630Y4046270I6055J8160D01*
G03X3978440Y4094930I-7388J29590D01*
G01X3915880D01*
X3814370Y4196440D01*
Y4260730D01*
X3748110Y4326990D01*
X3500820D01*
G02X3493540Y4344240I0J10161D01*
G03X3495160Y4386770I-22761J22163D01*
G02X3497210Y4401660I7798J6513D01*
G03X3508590Y4415690I-17967J26203D01*
G02X3520790Y4421560I9385J-3893D01*
G03X3559470Y4454890I8450J29303D01*
G01X3559140Y4457380D01*
X3559850Y4458090D01*
Y4547210D01*
X3267400Y4839660D01*
G02X3270990Y4848330I3592J3591D01*
G01X3283840D01*
X3590650Y4541520D01*
Y4422040D01*
X3655420Y4357270D01*
X3774900D01*
X3834490Y4297680D01*
X3894690D01*
G02X3901150Y4279670I7J-10161D01*
G03X4018210Y4271230I54089J-65812D01*
G02X4021060Y4287100I7512J6842D01*
G03X4032540Y4331010I-13978J27110D01*
G02X4034810Y4344650I8476J5598D01*
G03X4038990Y4348550I-18626J24153D01*
G02X4056740Y4341800I7591J-6752D01*
G01Y3604300D01*
X4056700Y3604260D01*
Y1736260D01*
G02X4038150Y1730530I-10161J2D01*
G03X3889520Y1749800I-82912J-56671D01*
G02X3872710Y1757480I-6650J7681D01*
G01Y1865780D01*
G02X3890580Y1872390I10159J-3D01*
G03Y1983330I64660J55470D01*
G02X3872710Y1989940I-7711J6613D01*
G01Y2075950D01*
X3907770Y2111010D01*
X3911170Y2108950D01*
G03X3882330Y2137790I44070J72910D01*
G01X3884390Y2134390D01*
X3839650Y2089650D01*
Y650700D01*
X3713480Y524530D01*
X3651210D01*
X3591730Y465050D01*
X2972760D01*
X2970930Y463220D01*
X2722560D01*
G37*
G36*
G01X2004520Y3093720D02*
X1996900Y3101340D01*
Y3190240D01*
X2012140Y3205480D01*
X2200100D01*
X2330740Y3336120D01*
X2474390D01*
X2480910Y3342640D01*
X2601420D01*
X2623900Y3320160D01*
X2639740D01*
X2640320Y3320740D01*
X2995100D01*
Y3218090D01*
X2942940Y3165930D01*
X2753480D01*
X2719840Y3199570D01*
G03X2715470Y3202150I-7186J-7182D01*
G02X2708130Y3212200I2815J9761D01*
G03X2647160Y3214060I-30487J860D01*
G02X2637000Y3204230I-10155J331D01*
G01X2353440D01*
G03Y3166090I-23800J-19070D01*
G01X2422880D01*
G02X2431710Y3150920I-5J-10158D01*
G03X2428700Y3128250I26528J-15057D01*
G02X2418870Y3115560I-9838J-2532D01*
G01X2410510D01*
X2406630Y3119440D01*
X2406720Y3121660D01*
G03X2349270Y3108620I-30477J1199D01*
G02X2340280Y3093720I-8987J-4740D01*
G01X2250900D01*
X2225500Y3119120D01*
X2095960D01*
X2070560Y3093720D01*
X2004520D01*
G37*
G36*
G01X2196270Y524180D02*
X2174700Y545750D01*
X2174500Y547520D01*
G03X2127280Y577110I-35361J-3958D01*
G02X2113740Y586690I-3382J9579D01*
G01Y822960D01*
X2135040Y844260D01*
X2135440Y844530D01*
G03X2145000Y854090I-19920J29480D01*
G01X2145270Y854490D01*
X2168240Y877460D01*
Y1153160D01*
X2314400Y1299320D01*
Y1391920D01*
X2342340Y1419860D01*
X2405840D01*
X2476960Y1348740D01*
X2487920D01*
X2488910Y1348300D01*
G03X2520890I15990J36000D01*
G01X2521880Y1348740D01*
X2525220D01*
X2603960Y1427480D01*
X2837640D01*
X2962100Y1303020D01*
Y1057190D01*
X2958190Y1056260D01*
G03Y987020I8210J-34620D01*
G01X2962100Y986090D01*
Y962660D01*
X2918640Y919200D01*
X2896730D01*
G03X2849800Y865700I-23531J-26692D01*
G02X2850310Y850870I-6679J-7653D01*
G01X2846530Y847090D01*
Y808550D01*
G03X2845690Y768120I28850J-20823D01*
G01X2846530Y766850D01*
Y754610D01*
X2845750Y753370D01*
G03X2840900Y741100I30088J-18987D01*
G01X2840600Y739560D01*
X2743660Y642620D01*
Y627030D01*
X2735600Y618970D01*
G02X2726930Y622560I-3591J3591D01*
G01Y721130D01*
G03X2673550I-26690J23530D01*
G01Y607720D01*
X2590010Y524180D01*
X2345910D01*
G02X2335770Y534900I3J10158D01*
G03X2334950Y544690I-35528J1954D01*
G02X2344920Y557080I9911J2231D01*
G03X2310430Y584830I219J35580D01*
G02X2300460Y572440I-9911J-2231D01*
G03X2264710Y534900I-222J-35581D01*
G02X2254570Y524180I-10143J-562D01*
G01X2196270D01*
G37*
G36*
G01X2823530Y4195700D02*
X2823710Y4198030D01*
G03X2771820Y4225000I-31674J2462D01*
G02X2755200Y4232840I-6462J7838D01*
G01Y4247690D01*
X2756420Y4248910D01*
G03X2755280Y4311110I-30551J30551D01*
G01X2754070Y4312260D01*
Y4319520D01*
X2760140D01*
G03Y4411000I0J45740D01*
G01X2729170D01*
G02X2720060Y4425640I7J10159D01*
G03X2723990Y4454120I-41050J20176D01*
G02X2733980Y4466120I9992J1840D01*
G01X2789340D01*
G02X2799400Y4454570I-4J-10160D01*
G03X2861440Y4458870I31471J-4350D01*
G02X2871210Y4471790I9777J2760D01*
G01X2935520D01*
X2965050Y4501320D01*
G02X2971850Y4501670I3594J-3590D01*
G03X3022220Y4535890I20089J24611D01*
G02X3031900Y4549120I9685J3070D01*
G01X3082930D01*
X3149670Y4482380D01*
Y4410460D01*
X3153590Y4406540D01*
X3149340Y4402290D01*
X3148500Y4401910D01*
G03X3136010Y4393560I18830J-41682D01*
G02X3121870Y4393780I-6957J7405D01*
G01X3096930Y4418710D01*
G02X3096530Y4425440I3595J3591D01*
G03X3039820Y4443230I-24991J19618D01*
G02X3029680Y4432480I-10142J-591D01*
G01X2977930D01*
X2946500Y4401050D01*
X2942910Y4404410D01*
G03X2879320Y4403350I-31247J-33401D01*
G01X2845800Y4369840D01*
Y4197960D01*
G02X2828460Y4190780I-10158J4D01*
G01X2823530Y4195700D01*
G37*
G36*
G01X2546400Y4504260D02*
X2538330Y4512330D01*
X2540140Y4515670D01*
G03X2483690Y4516920I-27902J15191D01*
G01X2484210Y4515860D01*
Y4509610D01*
X2475460D01*
X2463770Y4521300D01*
X2463930Y4523610D01*
G03X2448600Y4553090I-31689J2247D01*
G02X2446650Y4568980I5236J8707D01*
G01X2457460Y4579790D01*
X2534660D01*
X2559030Y4555420D01*
X2612310D01*
X2644490Y4587600D01*
Y4606650D01*
X2676650Y4638810D01*
G02X2693400Y4635020I7177J-7188D01*
G03X2747400Y4624910I29938J10638D01*
G02X2762780I7690J-6637D01*
G03X2767970Y4620100I24057J20752D01*
G02X2768630Y4604270I-6028J-8180D01*
G03X2808400Y4605910I20905J-23921D01*
G02X2807740Y4621740I6028J8180D01*
G03X2814070Y4629300I-20896J23927D01*
G02X2829960Y4631250I8707J-5236D01*
G01X2848790Y4612420D01*
X2942150D01*
X3060310Y4730580D01*
Y4754060D01*
G03X3066200Y4760330I-19062J23809D01*
G01X3251450D01*
X3448630Y4563150D01*
G02X3442720Y4553290I-10141J-623D01*
G03X3429790Y4544310I18504J-40441D01*
G01X3388920Y4503430D01*
Y4493730D01*
X3365670Y4470480D01*
Y4296750D01*
G03X3366440Y4288520I44471J10D01*
G02X3356460Y4276470I-9982J-1891D01*
G01X3337600D01*
X3305900Y4308170D01*
G02X3310050Y4325050I7186J7184D01*
G03X3270230Y4364870I-9510J30310D01*
G02X3253350Y4360720I-9696J3036D01*
G01X3187810Y4426260D01*
Y4498180D01*
X3098730Y4587260D01*
X2970270D01*
X2938450Y4555440D01*
G02X2931650Y4555090I-3594J3590D01*
G03X2880780Y4522610I-20090J-24611D01*
G02X2870940Y4509930I-9842J-2520D01*
G01X2807930D01*
X2802260Y4504260D01*
X2710850D01*
G02X2701010Y4516950I-1J10160D01*
G03X2639470I-30770J7910D01*
G02X2629630Y4504260I-9839J-2530D01*
G01X2546400D01*
G37*
G36*
G01X2916310Y1757590D02*
Y1978370D01*
G02X2932640Y1986440I10159J1D01*
G03X2965180Y1982800I19297J25240D01*
G02X2979570Y1973560I4230J-9237D01*
G01Y1809210D01*
X2928690Y1758320D01*
G03X2925490Y1754600I22412J-22516D01*
G01X2916310Y1757590D01*
G37*
G36*
G01X2942700Y3848540D02*
X2925980Y3865260D01*
X2886350D01*
X2862330Y3889280D01*
Y4093900D01*
X2860430Y4095800D01*
Y4137240D01*
X2848920Y4148750D01*
Y4159470D01*
G02X2866260Y4166650I10159J-5D01*
G01X2905360Y4127550D01*
Y4075090D01*
X2901340Y4074240D01*
G03Y4012080I6600J-31080D01*
G01X2905360Y4011230D01*
Y4006670D01*
X3019400Y3892630D01*
Y3888480D01*
G02X3002920Y3880520I-10160J-5D01*
G03X2951370Y3855660I-19781J-24860D01*
G01Y3852140D01*
G02X2942700Y3848540I-5081J-4D01*
G37*
G36*
G01X3616110Y4725070D02*
G02X3598770Y4718270I-10154J384D01*
G01X3331120Y4985930D01*
X3091540D01*
X3083090Y4986040D01*
X3034330D01*
G02X3027150Y5003380I6J10159D01*
G01X3074620Y5050850D01*
X3521600D01*
X3573670Y5102920D01*
X3621800D01*
X3648470Y5076250D01*
X3742830D01*
X3801630Y5017450D01*
Y4853010D01*
G02X3792960Y4849420I-5079J2D01*
G01X3784900Y4857480D01*
X3785230Y4859970D01*
G03X3729060Y4847950I-30233J4029D01*
G02X3720420Y4832450I-8641J-5342D01*
G01X3662030D01*
X3645140Y4849340D01*
X3645470Y4851830D01*
G03X3618590Y4886170I-30230J4027D01*
G02X3609790Y4898450I1124J10099D01*
G03X3576650Y4874690I-29786J6554D01*
G02X3585450Y4862410I-1124J-10099D01*
G03X3619270Y4825630I29788J-6548D01*
G01X3621760Y4825960D01*
X3646320Y4801400D01*
G02X3645760Y4786510I-7181J-7185D01*
G03X3616110Y4725070I55480J-64648D01*
G37*
%LPC*%
G75*
G36*
G01X900210Y872990D02*
Y955970D01*
X1167250D01*
Y687940D01*
X900210D01*
Y772930D01*
X834220D01*
Y872990D01*
X900210D01*
G37*
G36*
G01X534780Y1890880D02*
G03X535710Y1904180I-7185J7185D01*
G02X537030Y1942510I24361J18349D01*
G03X537020Y1955840I-7675J6659D01*
G02X583060Y1955890I22998J20031D01*
G03X583070Y1942560I7675J-6659D01*
G02X581630Y1900960I-23001J-20029D01*
G03X580700Y1887660I7185J-7185D01*
G02X534780Y1890880I-24360J-18351D01*
G37*
G36*
G01X947660Y1367230D02*
G03X934740Y1364640I-4941J-8875D01*
G02X888410Y1360790I-24959J19659D01*
G03X875480Y1361410I-6840J-7513D01*
G02X877810Y1410350I-19040J25432D01*
G03X890740Y1409730I6840J7513D01*
G02X925240Y1412060I19046J-25429D01*
G03X938160Y1414650I4941J8875D01*
G02X947660Y1367230I24958J-19662D01*
G37*
G36*
G01X1225100Y1078460D02*
G03X1211770Y1075510I-5039J-8822D01*
G02X1201580Y1121460I-25931J18354D01*
G03X1214910Y1124410I5039J8822D01*
G02X1225100Y1078460I25931J-18354D01*
G37*
G36*
G01X728780Y949410D02*
G03X728770Y963500I-7329J7040D01*
G02X777370Y999520I21969J21155D01*
G03X792170Y996220I8872J4951D01*
G02X780460Y960760I18551J-25790D01*
G03X772070Y962850I-4840J-1545D01*
G02X769380Y960510I-21328J21802D01*
G03Y952460I3101J-4025D01*
G02X728780Y949410I-18599J-24171D01*
G37*
G36*
G01X775000Y487420D02*
G03X776680Y502130I-6071J8144D01*
G02X818180Y497410I23262J19729D01*
G03X816500Y482700I6071J-8144D01*
G02X775000Y487420I-23262J-19729D01*
G37*
G36*
G01X2232050Y63640D02*
G03X2224810Y63350I-3477J-3705D01*
G02X2179780Y63220I-22574J20510D01*
G03X2172590Y63510I-3740J-3438D01*
G02X2174300Y106500I-20750J22354D01*
G03X2181490Y106210I3740J3438D01*
G02X2223130Y106080I20750J-22351D01*
G03X2230370Y106370I3477J3705D01*
G02X2232050Y63640I22571J-20511D01*
G37*
G36*
G01X2789710Y54250D02*
G02X2785200Y92430I-25771J16312D01*
G03X2800870Y94270I7088J7279D01*
G02X2805380Y56090I25771J-16312D01*
G03X2789710Y54250I-7088J-7279D01*
G37*
G36*
G01X2063640Y5577630D02*
G03X2068880Y5590630I-4203J9250D01*
G02X2069850Y5615280I28359J11228D01*
G03X2065850Y5628530I-9121J4475D01*
G02X2053900Y5641330I15382J26338D01*
G03X2041580Y5646460I-9104J-4506D01*
G02X2059260Y5688920I-9658J28932D01*
G03X2071580Y5683790I9104J4506D01*
G02X2108630Y5641440I9661J-28930D01*
G03X2112630Y5628190I9121J-4475D01*
G02X2109840Y5574090I-15393J-26328D01*
G03X2104600Y5561090I4203J-9250D01*
G02X2063640Y5577630I-28355J-11233D01*
G37*
G36*
G01X2212220Y5726360D02*
G02X2185690Y5741850I21J30500D01*
G03X2171830Y5745680I-8842J-5004D01*
G02X2183330Y5787220I-15050J26528D01*
G03X2197190Y5783390I8842J5004D01*
G02X2241130Y5747080I15050J-26529D01*
G03X2248870Y5733830I9623J-3265D01*
G02X2216650Y5718790I-5629J-29972D01*
G03X2212220Y5726360I-4431J2488D01*
G37*
G36*
G01X1145370Y4990940D02*
G03X1151710I3170J3970D01*
G02Y4935380I22230J-27780D01*
G03X1145370I-3170J-3970D01*
G02Y4990940I-22230J27780D01*
G37*
G36*
G01X822520Y4819600D02*
G03X815900Y4818480I-2674J-4318D01*
G02X806960Y4871120I-27660J22382D01*
G03X813580Y4872240I2674J4318D01*
G02X822520Y4819600I27660J-22382D01*
G37*
G36*
G01X778660Y5033010D02*
G02Y5071110I-23820J19050D01*
G03X794520I7930J6350D01*
G02Y5033010I23820J-19050D01*
G03X778660I-7930J-6350D01*
G37*
G36*
G01X1654320Y1375340D02*
G03X1669570Y1374370I8050J6196D01*
G02X1666920Y1332590I22529J-22403D01*
G03X1651670Y1333560I-8050J-6196D01*
G02X1654320Y1375340I-22529J22403D01*
G37*
G36*
G01X1651000Y1046810D02*
G03X1636820Y1046420I-6890J-7469D01*
G02X1588920Y1049120I-22778J22142D01*
G03X1575560Y1051550I-8033J-6223D01*
G02X1584030Y1098050I-16652J27055D01*
G03X1597390Y1095620I8033J6223D01*
G02X1635580Y1091910I16646J-27060D01*
G03X1649760Y1092300I6890J7469D01*
G02X1651000Y1046810I22781J-22141D01*
G37*
G36*
G01X1555770Y1375160D02*
G02X1499550Y1402660I-30528J8808D01*
G03X1495970Y1417680I-8213J5979D01*
G02X1542150Y1447840I14468J28282D01*
G03X1557800Y1439890I10145J592D01*
G02X1567830Y1382240I17211J-26703D01*
G03X1555770Y1375160I-2300J-9894D01*
G37*
G36*
G01X1458350Y1410050D02*
G02X1417930Y1404530I-16914J-26891D01*
G03X1415830Y1419970I-7513J6841D01*
G02X1456250Y1425490I16914J26891D01*
G03X1458350Y1410050I7513J-6841D01*
G37*
G36*
G01X1375170Y1406010D02*
G02X1340180Y1403800I-15825J-27549D01*
G03X1339110Y1420710I-6130J8101D01*
G02X1374100Y1422920I15825J27549D01*
G03X1375170Y1406010I6130J-8101D01*
G37*
G36*
G01X1264490Y2695100D02*
G03X1263420Y2679800I6117J-8115D01*
G01X1338440Y2604790D01*
X1411580D01*
X1412240Y2604970D01*
G02Y2546150I8080J-29410D01*
G01X1411580Y2546330D01*
X1314220D01*
X1225590Y2634960D01*
X1088860D01*
X1022160Y2701660D01*
Y2858820D01*
X1098830Y2935490D01*
X1099170Y2936090D01*
G02X1140770Y2894490I26510J-15090D01*
G01X1140170Y2894150D01*
X1080620Y2834600D01*
Y2725880D01*
X1113080Y2693420D01*
X1208710D01*
G03X1218060Y2707550I-1J10159D01*
G02X1264490Y2695100I28078J11911D01*
G37*
G36*
G01X1294090Y2432580D02*
G03X1280660Y2430950I-5802J-8338D01*
G02X1273460Y2477250I-22899J20149D01*
G03X1286750Y2479780I5227J8711D01*
G02X1294090Y2432580I26230J-20092D01*
G37*
G36*
G01X2330260Y2303290D02*
G03X2324000Y2290540I3390J-9576D01*
G02X2284840Y2309730I-28965J-9557D01*
G03X2291100Y2322480I-3390J9576D01*
G02X2330260Y2303290I28965J9557D01*
G37*
G36*
G01X2174990Y2136040D02*
G03X2162290I-6350J-7930D01*
G02Y2183680I-19050J23820D01*
G03X2174990I6350J7930D01*
G02X2202240Y2189240I19052J-23819D01*
G03X2214680Y2196010I2738J9784D01*
G02X2216790Y2201140I29146J-8989D01*
G03X2211400Y2215350I-8997J4715D01*
G02X2249260Y2229700I10844J28510D01*
G03X2254650Y2215490I8997J-4715D01*
G02X2235610Y2157600I-10840J-28511D01*
G03X2223170Y2150830I-2738J-9784D01*
G02X2174990Y2136040I-29132J9030D01*
G37*
G36*
G01X1966620Y1906380D02*
G03X1952380Y1905880I-6866J-7486D01*
G02X1950860Y1949340I-22139J20982D01*
G03X1965100Y1949840I6866J7486D01*
G02X1966620Y1906380I22139J-20982D01*
G37*
G36*
G01X1321210Y2791080D02*
G02X1292180Y2821720I-32968J-2163D01*
G03X1303530Y2832480I1211J10088D01*
G02X1332560Y2801840I32968J2163D01*
G03X1321210Y2791080I-1211J-10088D01*
G37*
G36*
G01X2605240Y2107460D02*
G02X2565340Y2107200I-19800J-23200D01*
G03X2565240Y2122560I-6700J7637D01*
G02X2563590Y2167440I19800J23198D01*
G03X2563170Y2182290I-7143J7229D01*
G02X2604790Y2183480I20173J22872D01*
G03X2605210Y2168630I7143J-7229D01*
G02X2605140Y2122820I-20172J-22874D01*
G03X2605240Y2107460I6700J-7637D01*
G37*
G36*
G01X2246260Y3857640D02*
G03X2250940Y3870580I-4688J9012D01*
G02X2294920Y3854680I29303J12278D01*
G03X2290240Y3841740I4688J-9012D01*
G02X2246260Y3857640I-29303J-12278D01*
G37*
G36*
G01X1305360Y3855110D02*
G03X1305610Y3868990I-7292J7074D01*
G02X1350120Y3868190I22630J20450D01*
G03X1349870Y3854310I7292J-7074D01*
G02X1305360Y3855110I-22630J-20450D01*
G37*
G36*
G01X1382150Y3531810D02*
G02X1384200Y3484260I20088J-22953D01*
G02X1382150Y3531810I-20088J22953D01*
G37*
G36*
G01X3206290Y1248360D02*
G03X3192430Y1248350I-6925J-7436D01*
G02X3147700Y1247990I-22561J24139D01*
G03X3134080Y1248000I-6816J-7535D01*
G02X3134130Y1297040I-22120J24543D01*
G03X3147750Y1297030I6816J7535D01*
G02X3192380Y1296670I22118J-24541D01*
G03X3206240Y1296680I6925J7436D01*
G02X3206290Y1248360I22561J-24137D01*
G37*
G36*
G01X3571160Y2075650D02*
G02X3535080Y2082080I-22318J-20790D01*
G03X3537920Y2098070I-4590J9063D01*
G02X3574000Y2091640I22318J20790D01*
G03X3571160Y2075650I4590J-9063D01*
G37*
G36*
G01X3108720Y615720D02*
G02X3089260Y660540I-26479J15138D01*
G03X3101760Y670050I2346J9887D01*
G02X3175300Y732260I65144J-2437D01*
G03X3186760Y742710I1309J10073D01*
G02X3245780Y733090I30481J1145D01*
G03X3255520Y719350I9505J-3584D01*
G02X3275950Y665590I717J-30490D01*
G03X3274700Y651340I6568J-7756D01*
G02X3225130Y616090I-23459J-19490D01*
G03X3209760Y618490I-8693J-5256D01*
G02X3124190Y618360I-42860J49120D01*
G03X3108720Y615720I-6650J-7680D01*
G37*
G36*
G01X2861460Y1245870D02*
G02X2808160Y1257080I-23823J19048D01*
G03X2793450Y1263370I-9816J-2611D01*
G02X2753820Y1307670I-14708J26719D01*
G03X2750460Y1322410I-8302J5861D01*
G02X2792440Y1330790I16063J28871D01*
G03X2795000Y1315900I7973J-6294D01*
G02X2808220Y1297930I-16259J-25809D01*
G03X2822930Y1291640I9816J2611D01*
G02X2861460Y1283970I14710J-26719D01*
G03X2877320I7930J6350D01*
G02Y1245870I23820J-19050D01*
G03X2861460I-7930J-6350D01*
G37*
G36*
G01X2475630Y594790D02*
G02X2396850I-39390J0D01*
G01Y795240D01*
G03X2380690Y803440I-10160J1D01*
G02Y852640I-18030J24600D01*
G03X2396850Y860840I6000J8199D01*
G01Y934940D01*
G03X2380690Y943140I-10160J1D01*
G02Y992340I-18030J24600D01*
G03X2396850Y1000540I6000J8199D01*
G01Y1074640D01*
G03X2380690Y1082840I-10160J1D01*
G02X2387610Y1124980I-18031J24599D01*
G01X2389130Y1122820D01*
X2396850D01*
Y1131280D01*
X2464470Y1198900D01*
X2903490D01*
X2918830Y1183550D01*
G02X2875030Y1119680I-27853J-27853D01*
G01X2874050Y1120120D01*
X2686050D01*
G03X2676050Y1108180I1J-10158D01*
G02X2615990I-30030J-5360D01*
G03X2605990Y1120120I-10001J1782D01*
G01X2542940D01*
G03X2532800Y1109330I1J-10160D01*
G02X2489930Y1079590I-30440J-1889D01*
G03X2475630Y1070310I-4140J-9279D01*
G01Y1004870D01*
G03X2489930Y995590I10160J-1D01*
G02Y939890I12430J-27850D01*
G03X2475630Y930610I-4140J-9279D01*
G01Y865170D01*
G03X2489930Y855890I10160J-1D01*
G02Y800190I12430J-27850D01*
G03X2475630Y790910I-4140J-9279D01*
G01Y594790D01*
G37*
G54D33*
X593730Y228600D03*
X750780Y848460D03*
X772570Y1118870D03*
X560050Y1781560D03*
X952590Y525610D03*
X1387070Y754380D03*
X2649540Y70160D03*
X791090Y3056480D03*
X772140Y3354460D03*
X516480Y4341620D03*
X2342340Y5534660D03*
X2113740Y5864860D03*
X1113410Y2571860D03*
X1188220Y2794080D03*
X1121490Y2757310D03*
X1188540Y2590960D03*
X1484340Y2739260D03*
X1345740Y2728560D03*
X2085840Y2296260D03*
X2713180Y1576480D03*
X2634440Y1958520D03*
X2586180Y2440460D03*
X1778240Y2970860D03*
X1339040Y3693160D03*
X1548240Y3983860D03*
X1913330Y1100200D03*
X3043380Y817880D03*
X3200240Y1508860D03*
X3577030Y1111810D03*
X3356090Y2064110D03*
X2642060Y967740D03*
Y828040D03*
G54D34*
X752300Y1343660D03*
X2222500Y4826000D03*
X2179940Y707960D03*
G54D35*
X1904240Y3838860D03*
X2358480Y3966260D03*
X2274320Y3962960D03*
X3228270Y4531160D03*
X3231920Y4447540D03*
X3316840Y4531160D03*
X3308540Y4444060D03*
G54D31*
X3393240Y338560D03*
G54D36*
X3701240Y1673860D03*
G54D32*
X399240Y149860D03*
Y657860D03*
Y403860D03*
Y911860D03*
Y1419860D03*
Y1165860D03*
Y1673860D03*
Y1927860D03*
Y2435860D03*
X3955240Y403860D03*
X3701240Y657860D03*
Y911860D03*
Y1165860D03*
Y1419860D03*
X3955240Y2943860D03*
Y2689860D03*
Y3197860D03*
Y3705860D03*
Y3451860D03*
%LPD*%
G75*
G54D10*
X145240Y149860D03*
Y657860D03*
Y403860D03*
Y911860D03*
Y1165860D03*
Y1419860D03*
Y1673860D03*
Y2181860D03*
Y1927860D03*
Y2435860D03*
Y2943860D03*
Y2689860D03*
Y3197860D03*
Y3705860D03*
Y3451860D03*
Y4213860D03*
Y3959860D03*
Y4467860D03*
Y4975860D03*
Y4721860D03*
X399240Y149860D03*
Y657860D03*
Y403860D03*
Y911860D03*
Y1419860D03*
Y1165860D03*
Y1673860D03*
Y2181860D03*
Y1927860D03*
Y2435860D03*
Y2943860D03*
Y2689860D03*
Y3197860D03*
Y3705860D03*
Y3451860D03*
Y4213860D03*
Y3959860D03*
Y4467860D03*
Y4975860D03*
Y4721860D03*
X3701240Y149860D03*
Y657860D03*
Y403860D03*
Y911860D03*
Y1165860D03*
Y1419860D03*
Y1673860D03*
Y2181860D03*
Y1927860D03*
Y2435860D03*
Y2943860D03*
Y2689860D03*
Y3197860D03*
Y3705860D03*
Y3451860D03*
Y4213860D03*
Y3959860D03*
Y4467860D03*
Y4975860D03*
Y4721860D03*
X3955240Y149860D03*
Y657860D03*
Y403860D03*
Y911860D03*
Y1419860D03*
Y1165860D03*
Y1673860D03*
Y2181860D03*
Y1927860D03*
Y2435860D03*
Y2943860D03*
Y2689860D03*
Y3197860D03*
Y3705860D03*
Y3451860D03*
Y4213860D03*
Y3959860D03*
Y4467860D03*
Y4975860D03*
Y4721860D03*
G54D20*
X2993240Y338560D03*
X3393240D03*
G54D11*
X94740Y277960D03*
X71580Y523240D03*
Y787400D03*
Y1292860D03*
Y1038860D03*
Y1544320D03*
Y2049780D03*
Y1803400D03*
Y2560320D03*
Y2306320D03*
Y2816860D03*
Y3324860D03*
Y3068320D03*
Y3573780D03*
Y3830320D03*
Y4089400D03*
X75340Y5270960D03*
Y5146160D03*
X74540Y5664560D03*
Y5544860D03*
X75340Y5414560D03*
X274780Y347980D03*
X295100Y482600D03*
X198580Y523240D03*
X479240Y309060D03*
X201120Y787400D03*
X315420Y749300D03*
X203660Y1292860D03*
X201120Y1038860D03*
Y1541780D03*
Y2049780D03*
Y1800860D03*
Y2560320D03*
X198580Y2306320D03*
Y2816860D03*
Y3324860D03*
Y3070860D03*
X201120Y3573780D03*
X198580Y3827780D03*
X280840Y5241460D03*
X281840Y5178460D03*
X280840Y5112460D03*
X476040Y5987960D03*
X373140Y5987260D03*
X508740Y69760D03*
X800560Y71120D03*
X706580D03*
X607520D03*
X511000Y205740D03*
X579580Y160020D03*
X762460Y147320D03*
X593730Y228600D03*
X785320Y391160D03*
X724360Y408940D03*
X676100Y449580D03*
X658320Y548640D03*
X688800Y360680D03*
X611330Y472440D03*
Y360680D03*
X505920Y449580D03*
X762460Y279400D03*
X853140Y400460D03*
X793240Y462970D03*
X799940Y521860D03*
X750740Y984650D03*
X810720Y970430D03*
X750780Y928290D03*
Y848460D03*
X879300Y721360D03*
X823420Y718820D03*
X658320Y624840D03*
X611330Y683260D03*
X856440Y1386840D03*
X752300Y1343660D03*
X772570Y1118870D03*
X560050Y1781560D03*
X787860Y1473960D03*
X795480Y1690620D03*
X560070Y1922530D03*
X798020Y2062480D03*
X560020Y1975870D03*
X523700Y2056130D03*
X556690Y2181860D03*
X561800Y2095500D03*
X556340Y1869310D03*
X789360Y1935480D03*
X556240Y2288860D03*
X815670Y2371740D03*
X562590Y2540790D03*
X791090Y2451100D03*
X788600Y2506980D03*
X788340Y2284660D03*
X553240Y2374860D03*
X791090Y2896490D03*
Y2705100D03*
X562590Y2937030D03*
Y2738910D03*
Y2594130D03*
X796140Y2611460D03*
X791090Y3056480D03*
X562590Y2990370D03*
X795480Y3282360D03*
X772140Y3354460D03*
X595640Y3400160D03*
X818240Y4038860D03*
X831040Y3820160D03*
Y3769360D03*
X754840Y4061460D03*
X691340D03*
X767540Y4391660D03*
X704040D03*
X767540Y4455160D03*
X704040D03*
X577040Y4505960D03*
X516480Y4341620D03*
X869140Y4753660D03*
X818340D03*
Y4708860D03*
X869140D03*
X633240Y4851860D03*
X631820Y4921860D03*
X841240Y4849860D03*
X788240Y4840860D03*
X818340Y5052060D03*
X754840D03*
X640540Y5267960D03*
X653240Y5204460D03*
X555440Y4972060D03*
X526240Y5052060D03*
X745470Y5302730D03*
X805640Y5280660D03*
X662740Y5989560D03*
X569440D03*
X1190940Y135560D03*
X1191720Y210820D03*
Y71120D03*
X1059640D03*
X958040D03*
X973280Y215900D03*
X1036780Y528320D03*
X1105360D03*
X1176480D03*
X1239980D03*
X1133300Y391160D03*
X1057100D03*
X978360D03*
X1181560Y347980D03*
X1179020Y279400D03*
X921940Y395360D03*
X952590Y525610D03*
X1283160Y717300D03*
X1191720Y718820D03*
X963120Y1394990D03*
X1185840Y1093860D03*
X909780Y1384300D03*
X1240840Y1106060D03*
X1275540Y1386360D03*
X1266240Y1622860D03*
X909780Y1635760D03*
X1266740Y1456160D03*
X988520Y2021840D03*
X1257760Y2451100D03*
X984240Y2433860D03*
X1036870Y2569700D03*
X1113410Y2571860D03*
X947750Y2573160D03*
X950240Y2507860D03*
X1188220Y2794080D03*
X1121490Y2757310D03*
X1246140Y2719460D03*
X1188540Y2590960D03*
X1125680Y2921000D03*
X1044480Y3208900D03*
X1059640Y3108960D03*
X1085040Y3159760D03*
X1196340Y3170460D03*
X1028240Y3157860D03*
X1072340Y3515360D03*
X1065990Y3768630D03*
X1205240Y4126860D03*
X1089240D03*
X975240Y4097860D03*
X1123440Y4378660D03*
X1115240Y4274860D03*
X1065240Y4249860D03*
X1213240Y4181860D03*
X1100240Y4471860D03*
X1096240Y4525860D03*
X1081240Y4412860D03*
X1083240Y4342860D03*
X983240Y4808860D03*
X985240Y4754860D03*
X1091240Y4708860D03*
X1117240Y4644860D03*
X1156240Y4828860D03*
X1103240Y4586860D03*
X1275540Y4963160D03*
X1123140D03*
X1173940D03*
X976240Y5052860D03*
X1033240Y5180860D03*
X976240Y5154860D03*
X1262840Y5369560D03*
X1123140Y5382260D03*
X1349140Y205460D03*
X1346940Y268460D03*
X1349200Y335280D03*
X1496520Y480060D03*
X1626060D03*
X1562560D03*
X1433020D03*
X1366980D03*
X1349200Y398780D03*
X1306020Y518160D03*
X1582880Y891540D03*
X1394920Y850900D03*
X1387070Y754380D03*
X1339040Y853440D03*
X1614040Y1068560D03*
X1672540Y1070160D03*
X1558910Y1078610D03*
X1629140Y1355960D03*
X1525240Y1383960D03*
X1359340Y1378460D03*
X1441440Y1383160D03*
X1596850Y1638350D03*
X1382240Y1667860D03*
X1422240Y1627860D03*
X1575010Y1413190D03*
X1354940Y1448260D03*
X1432740Y1446860D03*
X1510440Y1445960D03*
X1543510Y1638270D03*
X1304420Y2102350D03*
X1347780Y2048080D03*
X1420320Y2575560D03*
X1484340Y2739260D03*
X1345740Y2728560D03*
X1438570Y3228050D03*
X1491440Y3235120D03*
X1511910Y3174340D03*
X1555490Y3134360D03*
X1562610Y3077980D03*
X1554940Y3210560D03*
X1364110Y3507210D03*
X1402240Y3508860D03*
X1289240Y3705860D03*
X1339040Y3693160D03*
X1327240Y3833860D03*
X1539000Y3825000D03*
X1661000Y3989000D03*
X1457240Y3883860D03*
X1328240Y3889440D03*
X1293480Y3990500D03*
X1548240Y3983860D03*
X1512240Y3903860D03*
X1330240Y4055860D03*
X1677240Y3820860D03*
X1656240Y3873860D03*
X1570500Y3775860D03*
X1597500Y3834150D03*
X1616840Y4115640D03*
X1385240Y4069860D03*
X1424050Y4106820D03*
X1557240Y4056860D03*
X1611240Y4051860D03*
X1345000Y4107780D03*
X1458240Y4064860D03*
X1511240Y4085860D03*
X1288240Y4417060D03*
X1516840Y4413660D03*
X1389840Y4417060D03*
X1387540Y4285060D03*
X1516840Y4290060D03*
X1643840Y4417060D03*
X1646140Y4290060D03*
X1382540Y4544060D03*
X1516840D03*
X1651140D03*
X1618440Y4912360D03*
X1456840Y4921560D03*
X1369340Y4756160D03*
X1367140Y4656460D03*
X1453340Y4759960D03*
Y4658360D03*
X1288240D03*
Y4759960D03*
X1661840Y4756160D03*
X1567640Y4658360D03*
Y4759960D03*
X1661840Y4656160D03*
X1542240Y5166360D03*
X1466040D03*
X1326340Y4963160D03*
X1407240Y5209860D03*
X1466040Y5217160D03*
X1300040Y5223460D03*
X1354040Y5227660D03*
X1415240Y5382260D03*
X1327530Y5396150D03*
X2001140Y178360D03*
X2042620Y71120D03*
X1999440Y386080D03*
X1821640Y480060D03*
X1882600D03*
X1999440Y454660D03*
X1692100Y480060D03*
X1755600D03*
X1946100D03*
X1999440Y312420D03*
Y238760D03*
X1886640Y620460D03*
X1722580Y812800D03*
X1721560Y756920D03*
X2047600Y795260D03*
X1718440Y911860D03*
X1912420Y753740D03*
X2019840Y752030D03*
X1692100Y1351970D03*
X1913330Y1100200D03*
X1974370Y1369570D03*
X2019990Y1098980D03*
X1724100Y1458460D03*
X1681940Y1636650D03*
X1765950Y1739710D03*
X1910790Y1638350D03*
X1930240Y1926860D03*
X1874240Y1863860D03*
X1987240Y1928860D03*
X2068240Y1869860D03*
X2070240Y1925860D03*
X1775920Y2910840D03*
X1778240Y2970860D03*
X2020240Y2972860D03*
X1915540Y3207920D03*
X1774740Y3154680D03*
X2029920Y3116580D03*
X1864740Y3208660D03*
X1687000Y4019000D03*
X1691570Y4074430D03*
X1744240Y4082860D03*
X1845240Y4145860D03*
X1793830Y3837910D03*
X1829220Y3877820D03*
X1954740Y3899360D03*
X1904240Y3838860D03*
X2040510Y3876340D03*
X2050910Y3761360D03*
X2042240Y3819860D03*
X1900240Y4377860D03*
X1745440Y4417060D03*
X1825240Y4238860D03*
X1948240Y4443860D03*
X1910240Y4194860D03*
X1968240Y4305860D03*
X1981240Y4401860D03*
X1990000Y4698000D03*
X1984000Y4739000D03*
X1966240Y4642860D03*
X1758140Y4658360D03*
Y4759960D03*
X1919240Y4564860D03*
X1918240Y4618860D03*
X2062240Y4812860D03*
X2064240Y4574860D03*
X1969240Y4893860D03*
X1895240Y4738860D03*
X1932000Y4699000D03*
X1971240Y5241860D03*
X1834340Y4963160D03*
X1876240Y4962860D03*
X1964240Y4993860D03*
X1681940Y4963160D03*
X1728240Y4962860D03*
X1909240Y5158860D03*
X1987240Y4944860D03*
X2024840Y5394960D03*
X1931100Y5612020D03*
X2031920Y5675390D03*
X2148510Y218010D03*
X2202240Y83860D03*
X2252940Y85860D03*
X2151840D03*
X2334240Y55860D03*
X2436240Y594790D03*
X2347740Y261360D03*
X2113740Y302260D03*
X2381240Y551560D03*
X2300240Y536860D03*
X2345140Y592660D03*
X2139140Y543560D03*
X2362660Y967740D03*
Y828040D03*
X2115520Y874010D03*
X2114730Y927220D03*
X2179940Y707960D03*
X2129240Y980860D03*
X2094240Y1000860D03*
X2257250Y1354510D03*
X2362660Y1107440D03*
X2083390Y1084710D03*
X2121240Y1046960D03*
X2205180Y1374490D03*
X2151240Y1373660D03*
X2242800Y1706880D03*
X2126440Y1636650D03*
X2349960Y1705860D03*
X2296620Y1706880D03*
X2194040Y2159860D03*
X2243810Y2186980D03*
X2091260Y1992630D03*
X2297890Y2068830D03*
Y1908810D03*
X2143240Y2159860D03*
X2295040Y2280980D03*
X2303240Y2452370D03*
X2222240Y2243860D03*
X2320060Y2332040D03*
X2085840Y2296260D03*
X2128240Y2894860D03*
X2129030Y2961640D03*
X2097960Y2626490D03*
X2458240Y3135860D03*
X2123900Y3042920D03*
X2376240Y3122860D03*
X2329640Y3185160D03*
X2414940Y3757360D03*
X2432620Y3972010D03*
X2192340Y3882560D03*
X2436850Y3891180D03*
X2186140Y3956160D03*
X2358480Y3966260D03*
X2184480Y4050680D03*
X2260940Y3829460D03*
X2274320Y3962960D03*
X2370440Y3794260D03*
X2431770Y4046090D03*
X2426340Y3821860D03*
X2152140Y4007560D03*
X2104240Y3771760D03*
X2348260Y4042590D03*
X2160030Y3758680D03*
X2264780Y4045750D03*
X2213360Y3760050D03*
X2381240Y3875860D03*
X2280240Y3882860D03*
X2281710Y4332890D03*
X2436850Y4451170D03*
X2351240Y4529860D03*
X2432240Y4525860D03*
X2352810Y4446600D03*
X2274090Y4445360D03*
X2177740Y4331260D03*
X2350340Y4333360D03*
X2409140Y4308760D03*
X2192420Y4769530D03*
X2189940Y4734560D03*
X2302100Y4898860D03*
X2188240Y4594860D03*
X2194240Y4626860D03*
X2116240Y4822860D03*
X2120240Y4544860D03*
X2222500Y4826000D03*
X2215340Y5013960D03*
Y5064760D03*
X2341170Y5277480D03*
X2288240Y5270860D03*
X2308240Y4954860D03*
X2370240Y5166860D03*
X2380240Y5113860D03*
X2075240Y5289380D03*
X2325440Y5484060D03*
X2246240Y5645860D03*
X2077240Y5382860D03*
X2272240Y5554860D03*
X2348040Y5683180D03*
X2342340Y5534660D03*
X2081240Y5654860D03*
X2335510Y5373370D03*
X2393240Y5448860D03*
X2265290Y5332230D03*
X2210240Y5350860D03*
X2243240Y5703860D03*
X2097240Y5601860D03*
X2076240Y5549860D03*
X2156780Y5772210D03*
X2113740Y5864860D03*
X2212240Y5756860D03*
X2649540Y70160D03*
X2826640Y77960D03*
X2763940Y70560D03*
X2585040Y345560D03*
X2748640Y363460D03*
X2562240Y551860D03*
X2644240Y358460D03*
X2502360Y967740D03*
X2642060D03*
X2502360Y828040D03*
X2642060D03*
X2786840Y632460D03*
X2700240Y744660D03*
X2504900Y1384300D03*
X2837640Y1264920D03*
X2778740Y1290090D03*
X2502360Y1107440D03*
X2646020Y1102820D03*
X2710640Y1780540D03*
X2713180Y1576480D03*
X2520650Y1705230D03*
X2654760Y1780540D03*
X2634440Y1958520D03*
X2585040Y2145760D03*
X2585440Y2084260D03*
X2583340Y2205160D03*
X2663650Y2491410D03*
X2586180Y2440460D03*
X2702140Y2683560D03*
X2717570Y2944650D03*
X2504940Y2949360D03*
X2502540Y2895760D03*
X2677640Y3213060D03*
X2658840Y3353760D03*
X2788240Y3276560D03*
X2697940Y3068320D03*
X2715840Y3014860D03*
X2710640Y3616960D03*
X2515060Y3969380D03*
X2783440Y3872960D03*
X2741440Y4132760D03*
X2516840Y3891180D03*
X2593540Y4047060D03*
X2497000Y3760280D03*
X2584590Y3772090D03*
X2597940Y3966760D03*
X2764740Y3977160D03*
X2627440Y3823660D03*
X2756840Y4051170D03*
X2637870Y3769430D03*
X2793020Y4147150D03*
X2516840Y4051170D03*
Y4451170D03*
X2830870Y4450220D03*
X2670240Y4524860D03*
X2513840Y4363260D03*
X2599740Y4445230D03*
X2760140Y4365260D03*
X2679010Y4445820D03*
X2792040Y4200490D03*
X2672610Y4282480D03*
X2725870Y4279460D03*
X2584430Y4227350D03*
X2512240Y4530860D03*
X2789530Y4580350D03*
X2786840Y4645660D03*
X2723340D03*
X2583240Y4613860D03*
X2570940Y4848860D03*
X2705240Y5215360D03*
X2685580Y5012200D03*
X2815240Y5036860D03*
X2799540Y5217160D03*
X2748740Y5382260D03*
X2995920Y409150D03*
X3073860Y513080D03*
X3132280D03*
X3190700D03*
X2875380Y787730D03*
X2873200Y892510D03*
X3052870Y874480D03*
X2875840Y734390D03*
X3082240Y630860D03*
X3217240Y743860D03*
X3043380Y817880D03*
X2890980Y1155700D03*
X3053540Y1267460D03*
X2901140Y1264920D03*
X2966400Y1021640D03*
X2946070Y1616480D03*
X3170240Y1747860D03*
X3200240Y1508860D03*
X3066720Y1448280D03*
X3119580Y1732280D03*
X2951150Y1735860D03*
X2951940Y2011680D03*
X3123870Y1903250D03*
X2944320Y1823720D03*
X3065240Y2367960D03*
X2877140Y3362260D03*
X3097240Y3198360D03*
X2933750Y2976470D03*
X3234400Y3723880D03*
X3123840Y3685860D03*
X3182040Y3749760D03*
X2944990Y3671820D03*
X2998260Y3674660D03*
X2866140Y3545060D03*
X3053540Y3451860D03*
X3061240Y3517860D03*
X3149400Y3831170D03*
X2911300Y3970020D03*
X2907940Y4043160D03*
X3157770Y3883850D03*
X2983140Y3855660D03*
X2991740Y4042460D03*
X3150780Y3961960D03*
X3152980Y4048480D03*
X3155460Y4121140D03*
X2996850Y4451170D03*
X3074520Y4528820D03*
X2912400Y4446460D03*
X2946340Y4220760D03*
X2991940Y4526280D03*
X3228270Y4531160D03*
X3167330Y4360230D03*
X3231920Y4447540D03*
X3071540Y4445060D03*
X3049740Y4286260D03*
X2961090Y4350950D03*
X2911560Y4530480D03*
X2911660Y4371010D03*
X3047380Y4346100D03*
X2975310Y4797860D03*
X2918240Y4926860D03*
X3041240Y4777860D03*
X3042240Y4864860D03*
X2912570Y4747260D03*
X2875240Y5110860D03*
X2877740Y5237860D03*
X2931240Y5114860D03*
X2932240Y5069860D03*
X3086240Y5232860D03*
X2978240Y5240860D03*
X2926140Y5168760D03*
X3032240Y5228860D03*
X3053130Y5382670D03*
X2990040Y5382260D03*
X2903150Y5380820D03*
X3251240Y631860D03*
X3256240Y688860D03*
X3567080Y1353760D03*
X3577030Y1111810D03*
X3266900Y1587800D03*
X3384240Y1740860D03*
X3339770Y1740690D03*
X3391540Y1437060D03*
X3445990Y1440210D03*
X3449800Y2005320D03*
X3356090Y2064110D03*
X3560240Y2118860D03*
X3548840Y2054860D03*
X3394740Y2530830D03*
X3408050Y2290720D03*
X3403870Y2397330D03*
X3401070Y2450600D03*
X3405580Y2344010D03*
X3382830Y2929900D03*
X3386130Y2876660D03*
X3394410Y2584170D03*
X3394440Y2637710D03*
X3390980Y2769770D03*
X3387960Y2823350D03*
X3392830Y2691030D03*
X3373240Y3314760D03*
X3393120Y3146220D03*
X3380860Y3239140D03*
X3356940Y3191460D03*
X3367820Y3090580D03*
X3412840Y3061960D03*
X3425240Y3735860D03*
X3320460Y3698650D03*
X3427440Y3653160D03*
X3285840Y3490760D03*
X3299320Y3550590D03*
X3438670Y3874220D03*
X3271200Y3876420D03*
X3353740Y3882860D03*
X3313240Y4045560D03*
X3394640Y4051860D03*
X3392360Y3846060D03*
X3444700Y4138510D03*
X3310440Y3967260D03*
X3394200Y3974060D03*
X3465380Y4048530D03*
X3329710Y3759420D03*
X3529240Y4450860D03*
X3396850Y4531160D03*
X3316840D03*
X3479240Y4427860D03*
X3470780Y4366400D03*
X3300540Y4355360D03*
X3308540Y4444060D03*
X3461240Y4512860D03*
X3410140Y4296770D03*
X3623240Y4596860D03*
X3615240Y4855860D03*
X3580000Y4905000D03*
X3536140Y5267960D03*
X3599640Y5179060D03*
X3837140Y70260D03*
X4023040Y277060D03*
X3882640D03*
X4028900Y530860D03*
X3795840Y479460D03*
X3957040Y529860D03*
X4026870Y792480D03*
X3901900Y784860D03*
X4027250Y1295400D03*
X3904440Y1290320D03*
X4027250Y1041400D03*
X3906980Y1038860D03*
X4027250Y1546860D03*
X3904440Y1544320D03*
X3755270Y2089710D03*
X3772360Y1833880D03*
X4028900Y2057400D03*
X3904440Y2054860D03*
X4028900Y1800860D03*
X3901900D03*
X3650440Y2067560D03*
X4028900Y2573020D03*
X3906980Y2570480D03*
X4028900Y2316480D03*
X3899360Y2313940D03*
X3768200Y3300670D03*
X3646550Y3289860D03*
X4002240Y4075860D03*
X4007080Y4314210D03*
X4016190Y4368810D03*
X3717140Y4613360D03*
X3866710Y4859390D03*
X3804240Y4594860D03*
X3857350Y4794350D03*
X3884610Y4593860D03*
X3755000Y4864000D03*
X4002430Y4852460D03*
X4016440Y5474360D03*
Y5567660D03*
X4014840Y5661060D03*
X4014140Y5979860D03*
X4014840Y5876960D03*
X4014140Y5763960D03*
X3939340Y5976860D03*
X3846040D03*
X3752640Y5975260D03*
X3649740Y5974560D03*
G54D30*
G01X2370240Y5166860D02*
X2383230Y5153870D01*
X2396820D01*
X2448470Y5102220D01*
X2718030D01*
X2758620Y5142810D01*
X2812890D01*
X2847620Y5177540D01*
X2874000D01*
X2937320Y5240860D01*
X2978240D01*
G01X2926140Y5168760D02*
X2902940D01*
X2885050Y5150870D01*
X2858670D01*
X2823940Y5116140D01*
X2769670D01*
X2729080Y5075550D01*
X2437420D01*
X2399110Y5113860D01*
X2380240D01*
G54D21*
X3995250Y5295860D03*
X3695230D03*
G54D12*
X400050Y5649470D03*
G54D22*
G01X2348040Y5683180D02*
X2262900Y5598040D01*
X2215220D01*
X2072260Y5455080D01*
X2008760D01*
X1930860Y5377180D01*
Y5342380D01*
X1804320Y5215840D01*
X1528430D01*
X1473430Y5270840D01*
X1198210D01*
X1038050Y5110680D01*
X861320D01*
X640540Y5331460D01*
X234140D01*
X208740Y5306060D01*
Y5077460D01*
X259540Y5026660D01*
Y4899670D01*
X335750Y4823460D01*
X432460D01*
X627840Y4628080D01*
Y3911490D01*
X861420Y3677910D01*
Y2473370D01*
X1485930Y1848860D01*
X1803040D01*
X2205180Y1446720D01*
Y1374490D01*
G01X3623240Y4596860D02*
X3600000D01*
X3267010Y4929850D01*
X3091180D01*
X3069280Y4930120D01*
X3069260Y4930140D01*
X3033230D01*
X2931430Y4828340D01*
X2842370D01*
X2842350Y4828330D01*
X2754930D01*
X2754920Y4828340D01*
X2694800D01*
X2520320Y4653860D01*
X2378250D01*
X2182250Y4457860D01*
X1995310D01*
X1966130Y4487040D01*
X1874020D01*
X1737840Y4350860D01*
X1520160D01*
X1443180Y4273880D01*
Y4273220D01*
X1414380Y4244420D01*
X1355490D01*
X1248420Y4137350D01*
Y4108970D01*
X1201880Y4062430D01*
Y3326250D01*
X1794960Y2733170D01*
X2538920D01*
X2771600Y2500490D01*
Y1841500D01*
X2710640Y1780540D01*
G01X3955240Y4467860D02*
X3891740Y4531360D01*
X3777440D01*
X3738620Y4570180D01*
X3699250D01*
X3673960Y4595470D01*
Y4610730D01*
X3321640Y4963050D01*
X3091390D01*
X3082940Y4963160D01*
X3019550D01*
X2917750Y4861360D01*
X2681120D01*
X2506640Y4686880D01*
X2364570D01*
X2168570Y4490880D01*
X2008990D01*
X1979810Y4520060D01*
X1809020D01*
X1766980Y4478020D01*
X1511870D01*
X1314110Y4280260D01*
X1218630D01*
X1135240Y4196870D01*
Y3310270D01*
X1770760Y2674750D01*
X1982350D01*
X2073790Y2583310D01*
X2637790D01*
X2733500Y2487600D01*
Y1870040D01*
X2654760Y1791300D01*
Y1780540D01*
G01X3285840Y3490760D02*
Y3369300D01*
X3219740Y3303200D01*
Y1714360D01*
X3391540Y1542560D01*
Y1437060D01*
G54D13*
X907040Y5351160D03*
X1771040D03*
X2532640D03*
X3396640D03*
G54D23*
G01X2672610Y4282480D02*
X2689140Y4265950D01*
Y4166680D01*
X2667720Y4145260D01*
X2114740D01*
X1962240Y3992760D01*
Y3945750D01*
X1989730Y3918260D01*
X2072710D01*
X2085350Y3930900D01*
X2125180D01*
X2131380Y3924700D01*
Y3877230D01*
X2081380Y3827230D01*
Y3803390D01*
X2066140Y3788150D01*
Y3776590D01*
X2050910Y3761360D01*
G01X2725870Y4279460D02*
X2712000Y4265590D01*
Y4157210D01*
X2677190Y4122400D01*
X2589700D01*
G03X2578080Y4110780I0J-11620D01*
G02X2566460Y4099160I-11620J0D01*
G01X2559220D01*
G02X2547600Y4110780I0J11620D01*
G03X2535980Y4122400I-11620J0D01*
G01X2124210D01*
X1985100Y3983290D01*
Y3955220D01*
X1999200Y3941120D01*
X2063240D01*
X2075880Y3953760D01*
X2134650D01*
X2154240Y3934170D01*
Y3867760D01*
X2104240Y3817760D01*
Y3771760D01*
G01X2944990Y3671820D02*
X2945540Y3672370D01*
Y3708200D01*
X2921110Y3732630D01*
Y3809390D01*
X2907240Y3823260D01*
X2870850D01*
X2821670Y3872440D01*
Y4077060D01*
X2819770Y4078960D01*
Y4120400D01*
X2808260Y4131910D01*
Y4136990D01*
X2798100Y4147150D01*
X2793020D01*
G01X2792040Y4200490D02*
X2807280Y4185250D01*
X2808810D01*
X2831120Y4162940D01*
Y4141380D01*
X2842630Y4129870D01*
Y4088430D01*
X2844530Y4086530D01*
Y3881910D01*
X2878980Y3847460D01*
X2918610D01*
X2943970Y3822100D01*
Y3742100D01*
X2980550Y3705520D01*
Y3692370D01*
X2998260Y3674660D01*
G54D14*
X937010Y5423880D03*
X1741070Y5423830D03*
X2562610Y5423880D03*
X3366670Y5423830D03*
G54D24*
G01X3299320Y3550590D02*
X3330550Y3519360D01*
Y3373580D01*
X3248320Y3291350D01*
Y1731290D01*
X3445990Y1533620D01*
Y1440210D01*
G54D15*
X754050Y5861350D03*
X1924030D03*
X2379650D03*
X3549630D03*
G54D25*
G01X399240Y2943860D02*
Y2935500D01*
X523220Y2811520D01*
Y2722600D01*
X620220Y2625600D01*
Y2287400D01*
X649960Y2257660D01*
X649970D01*
X754980Y2152650D01*
X835380D01*
X888190Y2099840D01*
Y2066480D01*
X1406570Y1548100D01*
X1580890D01*
X1581580Y1548790D01*
X1594090D01*
X1681940Y1636650D01*
G01X1596850Y1638350D02*
Y1635910D01*
X1559840Y1598900D01*
X1527200D01*
X922650Y2203450D01*
X776030D01*
X671020Y2308460D01*
Y2735580D01*
X495760Y2910840D01*
Y3007360D01*
X457660Y3045460D01*
X333200D01*
X246840Y3131820D01*
Y3604260D01*
X145240Y3705860D01*
G01X399240Y3959860D02*
X305180Y3865800D01*
Y3145350D01*
X354270Y3096260D01*
X508790D01*
X721820Y2883230D01*
Y2329520D01*
X764180Y2287160D01*
X785840D01*
X788340Y2284660D01*
G01X1543510Y1638270D02*
Y1642140D01*
X956800Y2228850D01*
X786560D01*
X696420Y2318990D01*
Y2746120D01*
X521160Y2921380D01*
Y3017900D01*
X468200Y3070860D01*
X343740D01*
X274740Y3139860D01*
Y3830360D01*
X145240Y3959860D01*
G01X399240Y4467860D02*
Y4346890D01*
X508240Y4237890D01*
Y3132750D01*
X747220Y2893770D01*
Y2353510D01*
X776700Y2324030D01*
X933500D01*
X1463280Y1794250D01*
X1617800D01*
X1798780Y1613270D01*
Y1044080D01*
X2047600Y795260D01*
G01X1266240Y1622860D02*
X1259960D01*
X837390Y2045430D01*
Y2078790D01*
X814330Y2101850D01*
X733930D01*
X628520Y2207260D01*
X628510D01*
X556240Y2279530D01*
Y2288860D01*
G01X556690Y2181860D02*
X617990D01*
X784610Y2015240D01*
X797630D01*
X1227370Y1585500D01*
Y1336220D01*
X1368240Y1195350D01*
Y977160D01*
X1588480Y756920D01*
X1721560D01*
G01X553240Y2374860D02*
X513240Y2334860D01*
Y2169630D01*
X540380Y2142490D01*
X621430D01*
X774080Y1989840D01*
X787100D01*
X1201970Y1574970D01*
Y1321520D01*
X1339040Y1184450D01*
Y853440D01*
G01X2083390Y1084710D02*
Y1129260D01*
X1824180Y1388470D01*
Y1623800D01*
X1628330Y1819650D01*
X1473820D01*
X842370Y2451100D01*
X791090D01*
G01X1886640Y620460D02*
X1773380Y733720D01*
Y1602740D01*
X1607270Y1768850D01*
X1452750D01*
X936940Y2284660D01*
X788340D01*
G01X805640Y5280660D02*
X866650Y5219650D01*
X938740D01*
X983550Y5264460D01*
Y5296170D01*
X1083770Y5396390D01*
Y5398570D01*
X1106830Y5421630D01*
X1109010D01*
X1122900Y5435520D01*
X1361980D01*
X1415240Y5382260D01*
G01X1065240Y4249860D02*
X967870D01*
X935870Y4217860D01*
Y2639230D01*
X962570Y2612530D01*
X964060D01*
X987120Y2589470D01*
Y2544740D01*
X950240Y2507860D01*
G01X1115240Y4274860D02*
X1100870Y4289230D01*
X971310D01*
X910470Y4228390D01*
Y2610440D01*
X947750Y2573160D01*
G01X2946070Y1616480D02*
X2864320Y1698230D01*
Y2724600D01*
X2772540Y2816380D01*
X1753060D01*
X1248240Y3321200D01*
Y4067480D01*
X1277630Y4096870D01*
Y4125250D01*
X1354240Y4201860D01*
X1666240D01*
X1793240Y4328860D01*
X1924000D01*
X1941000Y4345860D01*
X2012230D01*
X2093230Y4426860D01*
X2192560D01*
X2390350Y4624650D01*
X2532420D01*
X2618200Y4710430D01*
X2813680D01*
X2867220Y4656890D01*
X2920070D01*
X2975310Y4712130D01*
Y4797860D01*
G01X1966240Y4642860D02*
Y4645160D01*
X1953540Y4657860D01*
X1934920D01*
X1934550Y4658230D01*
X1901930D01*
X1901560Y4657860D01*
X1883070D01*
X1810820Y4585610D01*
X1610480D01*
X1532100Y4507230D01*
X1417810D01*
X1353010Y4442430D01*
Y4405630D01*
X1256850Y4309470D01*
X1205530D01*
X1016240Y4120180D01*
Y3350560D01*
X1196340Y3170460D01*
G01X975240Y4097860D02*
Y3210860D01*
X1028240Y3157860D01*
G01X2097960Y2626490D02*
X2020490Y2703960D01*
X1782860D01*
X1165870Y3320950D01*
Y4143170D01*
X1204560Y4181860D01*
X1213240D01*
G01X1091240Y4708860D02*
X1099170Y4716790D01*
X1781560D01*
X1868540Y4803770D01*
X2010840D01*
X2122350Y4692260D01*
X2257640D01*
X2306870Y4741490D01*
X2450870D01*
X2531570Y4822190D01*
Y4865170D01*
X2633170Y4966770D01*
X2866540D01*
X2891400Y4991630D01*
X2956090D01*
X3057240Y5092780D01*
X3457680D01*
X3583330Y5218430D01*
X3615950D01*
X3716200Y5118180D01*
X3760210D01*
X3843560Y5034830D01*
Y4881410D01*
X3865580Y4859390D01*
X3866710D01*
G01X3857350Y4794350D02*
X3858770D01*
X3818160Y4834960D01*
Y5024300D01*
X3749680Y5092780D01*
X3655320D01*
X3628650Y5119450D01*
X3566820D01*
X3514750Y5067380D01*
X3067770D01*
X2966620Y4966230D01*
X2901930D01*
X2877070Y4941370D01*
X2719820D01*
X2494540Y4716090D01*
X2317400D01*
X2268170Y4666860D01*
X2111820D01*
X2000310Y4778370D01*
X1879070D01*
X1855870Y4755170D01*
Y4666590D01*
X1800290Y4611010D01*
X1599950D01*
X1582530Y4593590D01*
X1297330D01*
X1246060Y4644860D01*
X1117240D01*
G01X2995920Y409150D02*
X2994840Y410230D01*
X2098470D01*
X1981440Y527260D01*
X1876240D01*
X1725320Y678180D01*
X1322280D01*
X1283160Y717300D01*
G01X3041240Y4777860D02*
Y4738480D01*
X2934250Y4631490D01*
X2856690D01*
X2803150Y4685030D01*
X2695900D01*
X2625420Y4614550D01*
Y4595500D01*
X2604410Y4574490D01*
X2566930D01*
X2542560Y4598860D01*
X2449560D01*
X2392870Y4542170D01*
Y4430980D01*
X2367880Y4405990D01*
X2257780D01*
X2251320Y4399530D01*
X2126710D01*
X2085490Y4358310D01*
X2085480D01*
X2004190Y4277020D01*
Y4277010D01*
X1961410Y4234230D01*
X1893930D01*
X1844930Y4185230D01*
X1751930D01*
X1680500Y4113800D01*
X1675260D01*
X1652200Y4090740D01*
Y4085500D01*
X1650610Y4083910D01*
Y4034910D01*
X1619000Y4003300D01*
Y3954990D01*
X1551610Y3887600D01*
Y3887550D01*
X1528550Y3864490D01*
X1512500D01*
X1482240Y3834230D01*
Y3363860D01*
X1997970Y2848130D01*
X2785700D01*
X2897240Y2736590D01*
Y1712860D01*
X2947900Y1662200D01*
X2965010D01*
X3066240Y1560970D01*
Y1509060D01*
G01X3955240Y2181860D02*
X3856180Y2082800D01*
Y643850D01*
X3720330Y508000D01*
X3658060D01*
X3598580Y448520D01*
X2979610D01*
X2977780Y446690D01*
X2101400D01*
X1993100Y554990D01*
X1896430D01*
X1721560Y729860D01*
Y756920D01*
G01X2042240Y3819860D02*
X1974040Y3751660D01*
Y3317960D01*
X1900830Y3244750D01*
X1900280D01*
X1878710Y3223180D01*
Y3222630D01*
X1864740Y3208660D01*
G01X2020240Y2972860D02*
X2053470Y3006090D01*
X2667690D01*
X2676460Y3014860D01*
X2715840D01*
G01X1971240Y5241860D02*
X2010620D01*
X2023890Y5228590D01*
X2366250D01*
X2466580Y5128260D01*
X2697710D01*
X2747280Y5177830D01*
X2760210D01*
X2799540Y5217160D01*
G01X2083390Y1084710D02*
Y1057810D01*
X2050240Y1024660D01*
Y883610D01*
X2086970Y846880D01*
Y516160D01*
X2131040Y472090D01*
X2626470D01*
X2786840Y632460D01*
G01X2139140Y543560D02*
X2185210Y497490D01*
X2601070D01*
X2700240Y596660D01*
Y744660D01*
G01X2123900Y3042920D02*
X2672180D01*
X2697580Y3068320D01*
X2697940D01*
G01X2376240Y3122860D02*
X2402610Y3096490D01*
X2474550D01*
X2485750Y3107690D01*
X2963070D01*
X3053540Y3198160D01*
Y3451860D01*
G01X2329640Y3185160D02*
X2653450D01*
X2691750Y3146860D01*
X2950840D01*
X3014170Y3210190D01*
Y3470790D01*
X3061240Y3517860D01*
G01X4002240Y4075860D02*
X3907980D01*
X3795300Y4188540D01*
Y4252830D01*
X3740210Y4307920D01*
X3476970D01*
X3426450Y4257400D01*
X3329700D01*
X3168740Y4418360D01*
Y4490280D01*
X3090830Y4568190D01*
X2978170D01*
X2952570Y4542590D01*
Y4515810D01*
X2927620Y4490860D01*
X2815830D01*
X2810160Y4485190D01*
X2538500D01*
X2533150Y4490540D01*
X2467560D01*
X2432240Y4525860D01*
G01X2341170Y5277480D02*
X2353290D01*
X2474620Y5156150D01*
X2590660D01*
X2672660Y5238150D01*
Y5238460D01*
X2699910Y5265710D01*
X2849890D01*
X2877740Y5237860D01*
G01X3053130Y5382670D02*
X2964030Y5293570D01*
X2692150D01*
X2686840Y5288260D01*
X2686530D01*
X2647260Y5248990D01*
Y5248680D01*
X2580130Y5181550D01*
X2485150D01*
X2418030Y5248670D01*
Y5266600D01*
X2367780Y5316850D01*
X2310460D01*
X2288240Y5294630D01*
Y5270860D01*
G01X2873200Y892510D02*
X2932580D01*
X3005770Y965700D01*
Y1037950D01*
X2990040Y1053680D01*
Y1318380D01*
X2800240Y1507590D01*
Y1828830D01*
X2800810Y1829400D01*
Y2512590D01*
X2800240Y2513160D01*
Y2585460D01*
X2702140Y2683560D01*
G01X2712440Y3783810D02*
Y3934260D01*
X2697430Y3949270D01*
Y4047440D01*
X2740530Y4090540D01*
X2773150D01*
X2796210Y4067480D01*
Y4034860D01*
X2788040Y4026690D01*
Y4000460D01*
X2764740Y3977160D01*
G01X4002430Y4852460D02*
X4049300Y4899330D01*
Y5014830D01*
X3796830Y5267300D01*
Y5337960D01*
X3737330Y5397460D01*
X3609960D01*
X3494720Y5282220D01*
Y5195060D01*
X3417840Y5118180D01*
X3046710D01*
X2945560Y5017030D01*
X2880870D01*
X2856010Y4992170D01*
X2804250D01*
X2784220Y5012200D01*
X2685580D01*
G01X3529240Y4450860D02*
X3543320Y4464940D01*
Y4540360D01*
X3260820Y4822860D01*
X3059020D01*
X3057390Y4824490D01*
X3025930D01*
X3025690Y4824730D01*
X3012630D01*
X2985760Y4797860D01*
X2975310D01*
G01X3479240Y4427860D02*
Y4466200D01*
X3506960Y4493920D01*
Y4531800D01*
X3261900Y4776860D01*
X3049340D01*
X3048340Y4777860D01*
X3041240D01*
G01X3042240Y4864860D02*
X3290690D01*
X3607180Y4548370D01*
Y4428890D01*
X3662270Y4373800D01*
X3781750D01*
X3841340Y4314210D01*
X4007080D01*
G01X3410140Y4296770D02*
Y4452060D01*
X3433390Y4475310D01*
Y4485010D01*
X3461240Y4512860D01*
G01X3768200Y3300670D02*
X3797760Y3271110D01*
Y2132200D01*
X3755270Y2089710D01*
G01X3772360Y1833880D02*
X3805380Y1866900D01*
Y2103880D01*
X3823160Y2121660D01*
Y3013570D01*
X3823380Y3013790D01*
Y3067470D01*
X3823160Y3067690D01*
Y4091940D01*
X3701240Y4213860D01*
G01X3884610Y4593860D02*
X3876240Y4602230D01*
Y4617460D01*
X3815540Y4678160D01*
Y4740590D01*
X3740210Y4815920D01*
X3655180D01*
X3615240Y4855860D01*
G01X4016190Y4368810D02*
X4021290D01*
X4049300Y4396820D01*
Y4572710D01*
X3994210Y4627800D01*
X3916270D01*
X3840940Y4703130D01*
Y4751120D01*
X3792760Y4799300D01*
Y4826240D01*
X3755000Y4864000D01*
G01X869040Y5523850D02*
G02Y5623850I0J50000D01*
G01Y6049520D01*
X340060D01*
X0Y5709460D01*
Y0D01*
X4100050D01*
X4100580Y530D01*
Y6049520D01*
X3434640D01*
Y5623850D01*
G02Y5523850I0J-50000D01*
G01X872310Y6521020D02*
X897720Y6499860D01*
X926290Y6487160D01*
X951690D01*
X977090Y6499860D01*
X996140Y6521020D01*
X1005670Y6550660D01*
X999320Y6580290D01*
X983440Y6605690D01*
X954860Y6622630D01*
X916770Y6631090D01*
X894540Y6648020D01*
X885010Y6677660D01*
X891370Y6707290D01*
X907240Y6728450D01*
X929460Y6741160D01*
X951690D01*
X973920Y6732700D01*
X992970Y6711530D01*
G01X1154890Y6741160D02*
X1231080D01*
G01X1192990D02*
Y6487160D01*
G01X1154890D02*
X1231080D01*
G01X1466040Y6614160D02*
X1529540D01*
Y6537960D01*
X1510490Y6512550D01*
X1488260Y6495620D01*
X1456520Y6487160D01*
X1424770Y6495620D01*
X1402540Y6512550D01*
X1383490Y6537960D01*
X1370790Y6567590D01*
X1364440Y6601460D01*
Y6631090D01*
X1370790Y6656490D01*
X1383490Y6686130D01*
X1402540Y6711530D01*
X1421590Y6728450D01*
X1446990Y6741160D01*
X1469210D01*
X1494610Y6732700D01*
X1513670Y6715760D01*
G01X1659720Y6571820D02*
X1742260D01*
G01X1885140Y6537960D02*
X1904190Y6508320D01*
X1929590Y6491390D01*
X1958170Y6487160D01*
X1983570Y6491390D01*
X2008970Y6512550D01*
X2024840Y6537960D01*
X2028010Y6563360D01*
X2021670Y6592990D01*
X1999440Y6614160D01*
X1977210Y6622630D01*
X1948640D01*
G01X1977210D02*
X1996260Y6635330D01*
X2012140Y6656490D01*
X2018490Y6681890D01*
X2012140Y6707290D01*
X1996260Y6728450D01*
X1967690Y6741160D01*
X1939120Y6736930D01*
X1910540Y6719990D01*
G01X2399490Y6741160D02*
Y6487160D01*
X2526490D01*
G01X2637610D02*
X2716990Y6741160D01*
X2796370Y6487160D01*
G01X2767790Y6576060D02*
X2666190D01*
G01X2970990Y6487160D02*
Y6601460D01*
X2907490Y6741160D01*
G01X3034490D02*
X2970990Y6601460D01*
G01X3288490Y6487160D02*
X3161490D01*
Y6741160D01*
X3288490D01*
G01X3237690Y6618400D02*
X3161490D01*
G01X3415490Y6487160D02*
Y6741160D01*
X3494860D01*
X3520260Y6728450D01*
X3536140Y6711530D01*
X3542490Y6677660D01*
X3536140Y6643790D01*
X3517090Y6622630D01*
X3494860Y6609920D01*
X3415490D01*
G01X3494860D02*
X3542490Y6487160D01*
G01X1809040Y5523850D02*
X869040D01*
G01X1809040D02*
X869040D01*
G01X1809040D02*
G03Y5623850I0J50000D01*
G01Y6049520D01*
X2494640D01*
Y5623850D01*
G03Y5523850I0J-50000D01*
G01X3434640D02*
X2494640D01*
G01X3434640D02*
X2494640D01*
G54D16*
X1288240Y2788920D03*
X1486360Y721360D03*
X1312980Y2459690D03*
X1336500Y2834640D03*
X2128880Y749000D03*
Y805180D03*
X2397240Y1398860D03*
X2455370Y3267710D03*
X2393140Y3268980D03*
X2766520Y1351280D03*
X2708100D03*
X2931620Y977900D03*
X2875330Y978130D03*
X3111960Y1272540D03*
X3169870Y1272490D03*
X3228800Y1272540D03*
X3066240Y1509060D03*
G54D26*
G01X1081240Y4412860D02*
X1041240Y4452860D01*
Y4745180D01*
X1076200Y4780140D01*
X1243760D01*
X1273870Y4810250D01*
X1707840D01*
X1775350Y4877760D01*
X1931030D01*
X1947130Y4893860D01*
X1969240D01*
G01X1083240Y4342860D02*
X932640Y4493460D01*
Y4823460D01*
X985040Y4875860D01*
X1237240D01*
X1264750Y4848350D01*
X1692050D01*
X1759560Y4915860D01*
X1915240D01*
X1922240Y4922860D01*
Y4925580D01*
X1941520Y4944860D01*
X1987240D01*
G01X2151240Y1373660D02*
X2122830Y1402070D01*
Y1455370D01*
X1939850Y1638350D01*
X1910790D01*
G01X2903150Y5380820D02*
X2854000Y5331670D01*
X2685030D01*
X2615510Y5262150D01*
Y5261840D01*
X2566970Y5213300D01*
X2498310D01*
X2449780Y5261830D01*
Y5323760D01*
X2353180Y5420360D01*
X2179400D01*
X2107570Y5348530D01*
Y5321710D01*
X2075240Y5289380D01*
G54D17*
X1679400Y2065020D03*
X1670560Y2398980D03*
X1668020Y2505630D03*
X1510570Y2398980D03*
X1508030Y2505630D03*
X1781000Y2065020D03*
X1830560Y2398980D03*
X1990550D03*
X1988010Y2505630D03*
X1828020D03*
G54D27*
G01X2599740Y4445230D02*
X2597120Y4442610D01*
X2589860D01*
X2551970Y4404720D01*
X2478060D01*
X2447340Y4374000D01*
X2265340D01*
X2264200Y4372860D01*
X2148540D01*
X2099700Y4324020D01*
X2099690D01*
X2038500Y4262820D01*
X1849450Y4073760D01*
X1803240D01*
X1656240Y3926760D01*
Y3873860D01*
G01X1570500Y3775860D02*
X1602240Y3744120D01*
X1705500D01*
X1751240Y3789860D01*
Y3792440D01*
X1753190Y3794390D01*
Y3883590D01*
X1829460Y3959860D01*
X1887650D01*
X2098450Y4170660D01*
X2432420D01*
X2627020Y4365260D01*
X2760140D01*
G01X1597500Y3834150D02*
X1651650Y3780000D01*
X1699280D01*
X1725250Y3805970D01*
Y3895170D01*
X1727240Y3897160D01*
Y3897170D01*
X1822770Y3992700D01*
X1834680Y3992710D01*
X1869010D01*
X2097300Y4221000D01*
X2141180D01*
X2141940Y4221760D01*
X2444000D01*
X2668060Y4445820D01*
X2679010D01*
G01X2513840Y4363260D02*
X2502740Y4352160D01*
X2465020D01*
X2449780Y4336920D01*
Y4315860D01*
X2470240Y4295400D01*
Y4287520D01*
X2441380Y4258660D01*
X2343430D01*
G02X2328530Y4273560I0J14900D01*
G03X2313630Y4288460I-14900J0D01*
G01X2297710D01*
G03X2282810Y4273560I0J-14900D01*
G02X2267910Y4258660I-14900J0D01*
G01X2251990D01*
G02X2237090Y4273560I0J14900D01*
G03X2214240Y4296410I-22850J0D01*
G01X2214220D01*
G03X2191370Y4273560I0J-22850D01*
G02X2176470Y4258660I-14900J0D01*
G01X2160550D01*
G02X2145650Y4273560I0J14900D01*
G03X2130750Y4288460I-14900J0D01*
G01X2114430D01*
X2045800Y4219820D01*
X1854270Y4028270D01*
X1834660D01*
X1808030Y4028250D01*
X1750400Y3970620D01*
Y3970590D01*
X1697240Y3917430D01*
Y3840860D01*
X1677240Y3820860D01*
G01X2497000Y3760280D02*
Y3563320D01*
X2435540Y3501860D01*
X2223500D01*
X2191650Y3533710D01*
Y3555270D01*
X2219040Y3582660D01*
X2404240D01*
X2450140Y3628560D01*
Y3735080D01*
X2455580Y3740520D01*
Y3777690D01*
X2528430Y3850540D01*
X2534620D01*
X2560640Y3876560D01*
Y3946580D01*
X2557300Y3949920D01*
Y4031820D01*
X2572540Y4047060D01*
X2593540D01*
G01X2584590Y3772090D02*
Y3771610D01*
X2568940Y3755960D01*
Y3495360D01*
X2455440Y3381860D01*
X2297340D01*
X2271540Y3407660D01*
Y3443560D01*
X2289490Y3461510D01*
X2449790D01*
X2537640Y3549360D01*
Y3814040D01*
X2599300Y3875700D01*
Y3924760D01*
X2597940Y3926120D01*
Y3966760D01*
G01X2152140Y4007560D02*
X2140240Y4019460D01*
Y4073920D01*
X2163320Y4097000D01*
X2195640D01*
X2203480Y4089160D01*
X2478810D01*
X2516840Y4051170D01*
G01X2627440Y3823660D02*
X2630340Y3820760D01*
X2646640D01*
X2680640Y3786760D01*
Y3683060D01*
X2648740Y3651160D01*
Y3469960D01*
X2688760Y3429940D01*
X2710320D01*
X2751760Y3471380D01*
Y3744490D01*
X2712440Y3783810D01*
G01X2756840Y4051170D02*
X2724100Y4018430D01*
Y3960320D01*
X2739110Y3945310D01*
Y3796660D01*
X2779700Y3756070D01*
Y3554400D01*
X2848870Y3485230D01*
Y3419490D01*
X2827640Y3398260D01*
X2621180D01*
X2605940Y3413500D01*
Y3735960D01*
X2625230Y3755250D01*
Y3756790D01*
X2637870Y3769430D01*
G01X2933750Y2976470D02*
X3096240Y3138960D01*
Y3197040D01*
X3097240Y3198360D01*
G01X3380860Y3239140D02*
X3411340Y3269620D01*
Y3550280D01*
X3278380Y3683240D01*
X3210360D01*
X3192420Y3701180D01*
Y3739380D01*
X3182040Y3749760D01*
G01X2911660Y4371010D02*
X2891540Y4350890D01*
Y4206060D01*
X2951100Y4146500D01*
Y4025620D01*
X3065140Y3911580D01*
Y3802040D01*
X3164480Y3702700D01*
Y3689600D01*
X3198780Y3655300D01*
X3256020D01*
X3364210Y3547110D01*
Y3359630D01*
X3316300Y3311720D01*
Y2859900D01*
X3352850Y2823350D01*
X3387960D01*
G01X2991740Y4042460D02*
X3094440Y3939760D01*
Y3823280D01*
X3127190Y3790530D01*
X3214950D01*
X3236120Y3769360D01*
Y3725600D01*
X3234400Y3723880D01*
G01X3150780Y3961960D02*
X3199640Y3913100D01*
Y3845360D01*
X3284050Y3760950D01*
Y3735060D01*
X3320460Y3698650D01*
G01X3167330Y4360230D02*
Y4348990D01*
X3337170Y4179150D01*
X3484940D01*
X3589560Y4074530D01*
Y2694250D01*
X3426140Y2530830D01*
X3394740D01*
G01X2961090Y4350950D02*
X2996880Y4386740D01*
X3064220D01*
X3227580Y4223380D01*
Y3861550D01*
X3329710Y3759420D01*
G01X3313240Y4045560D02*
X3351080Y4007720D01*
Y3959700D01*
X3377360Y3933420D01*
X3443680D01*
X3482880Y3894220D01*
Y3228780D01*
X3401540Y3147440D01*
X3394340D01*
X3393120Y3146220D01*
G01X3310440Y3967260D02*
X3311840Y3965860D01*
Y3834770D01*
X3378140Y3768470D01*
Y3648560D01*
X3446900Y3579800D01*
Y3247700D01*
X3390660Y3191460D01*
X3356940D01*
G01X3394200Y3974060D02*
X3464050D01*
X3518440Y3919670D01*
Y3214050D01*
X3408750Y3104360D01*
X3381600D01*
X3367820Y3090580D01*
G01X3465380Y4048530D02*
X3554000Y3959910D01*
Y3199320D01*
X3416640Y3061960D01*
X3412840D01*
G54D18*
X2909750Y123570D03*
X3476730D03*
G54D28*
G01X1420320Y2575560D02*
X1326330D01*
X1237700Y2664190D01*
X1100970D01*
X1051390Y2713770D01*
Y2846710D01*
X1125680Y2921000D01*
G01X2436240Y594790D02*
Y1114960D01*
X2480790Y1159510D01*
X2887170D01*
X2890980Y1155700D01*
G01X2091260Y1992630D02*
X2216510Y1867380D01*
Y1771560D01*
X2175970Y1731020D01*
Y1590520D01*
X2257250Y1509240D01*
Y1354510D01*
G01X2504900Y1384300D02*
X2408380Y1480820D01*
Y2347230D01*
X2303240Y2452370D01*
G01X2951150Y1735860D02*
X3011340Y1796050D01*
Y2967060D01*
X3154040Y3109760D01*
Y3579960D01*
X3061010Y3672990D01*
Y3725710D01*
X2983140Y3803580D01*
Y3855660D01*
G54D19*
X3166900Y667610D03*
X3366900D03*
G54D29*
G01X2748640Y363460D02*
X2663040Y277860D01*
X2497240D01*
X2457860Y317240D01*
X2128720D01*
X2113740Y302260D01*
M02*
