G04 ================== begin FILE IDENTIFICATION RECORD ==================*
G04 Layout Name:  D:/projects/Popcorn/Rev2.0/Brd/Popcorn Computer Rev 2p0_Release.brd*
G04 Film Name:    top*
G04 File Format:  Gerber RS274X*
G04 File Origin:  Cadence Allegro 16.6-2015-S105*
G04 Origin Date:  Tue Jul 14 18:36:51 2020*
G04 *
G04 Layer:  VIA CLASS/TOP*
G04 Layer:  PIN/TOP*
G04 Layer:  ETCH/TOP*
G04 Layer:  BOARD GEOMETRY/OUTLINE*
G04 *
G04 Offset:    (0.0000 0.0000)*
G04 Mirror:    No*
G04 Mode:      Positive*
G04 Rotation:  0*
G04 FullContactRelief:  No*
G04 UndefLineWidth:     0.1270*
G04 ================== end FILE IDENTIFICATION RECORD ====================*
%FSLAX25Y25*MOMM*%
%IR0*IPPOS*OFA0.00000B0.00000*MIA0B0*SFA1.00000B1.00000*%
%ADD61R,1.3995X1.1989*%
%ADD64O,.95X2.1001*%
%ADD62R,.6X1.55*%
%ADD56C,.23*%
%ADD50C,.25*%
%AMMACRO15*
4,1,5,-.1501,-.1001,
-.1501,.1001,
.1001,.1001,
.1501,.05,
.1501,-.1001,
-.1501,-.1001,
0.0*
%
%ADD15MACRO15*%
%ADD39O,.6604X1.27*%
%AMMACRO58*
4,1,5,2.0498,-1.5011,
2.0498,2.0498,
-2.0498,2.0498,
-2.0498,-2.0498,
1.5011,-2.0498,
2.0498,-1.5011,
0.0*
%
%ADD58MACRO58*%
%ADD11C,.4064*%
%ADD67C,.762*%
%ADD48C,.6604*%
%ADD38C,.4572*%
%ADD47R,1.X.5999*%
%ADD18R,1.1989X.5004*%
%ADD17R,.5004X1.1989*%
%ADD19C,.5994*%
%ADD14R,.8999X1.7*%
%ADD66C,.5999*%
%ADD34R,.8999X1.8001*%
%ADD22R,.5994X.5994*%
%ADD40R,1.5X1.4*%
%ADD25R,3.7X1.1*%
%ADD21R,.22X.3*%
%ADD20R,.3X.22*%
%ADD42R,.7X.2*%
%ADD57O,1.016X1.27*%
%ADD41R,.2X.7*%
%ADD30R,.8X.2*%
%ADD55O,2.4003X1.6002*%
%ADD28R,.2X.8*%
%ADD65C,1.1001*%
%ADD63R,.2X.9*%
%ADD43R,5.5X3.4*%
%ADD33O,1.3X2.7501*%
%ADD69R,.81X.22*%
%ADD70R,.22X.81*%
%ADD68R,5.7X1.7*%
%ADD51R,2.6X1.75*%
%ADD27R,.3X.84*%
%ADD10C,1.5001*%
%ADD46R,.27X.8001*%
%ADD52O,1.016X1.6256*%
%ADD44R,2.55X1.75*%
%ADD32O,1.524X1.1176*%
%ADD13C,5.5001*%
%ADD36R,.41X.87*%
%ADD71C,1.651*%
%ADD54O,.1905X.254*%
%ADD12R,1.5001X1.5001*%
%ADD49O,.254X.1905*%
%ADD37R,.26X.87*%
%ADD31R,1.8X1.8*%
%ADD29O,1.1999X2.3*%
%ADD72R,1.651X1.651*%
%ADD16R,.3X.1999*%
%ADD35R,.1999X.3*%
%ADD26R,1.4732X1.1684*%
%ADD60O,.1999X.8001*%
%ADD59O,.8001X.1999*%
%ADD53R,.8992X.8001*%
%ADD23R,.8001X.8992*%
%ADD24R,1.1684X2.7178*%
%ADD45R,.27X.8999*%
%ADD73C,.2032*%
%ADD74C,.1016*%
%ADD75C,.1143*%
%ADD76C,.127*%
%ADD77C,.254*%
%ADD78C,.1524*%
%ADD79C,.381*%
%ADD80C,.508*%
%ADD81C,.3048*%
%ADD82C,.3498*%
%ADD87C,.61*%
%ADD91C,.7116*%
%ADD89C,.6354*%
%ADD86C,.9046*%
%ADD88R,.7548X1.4532*%
%ADD85R,1.4532X.7548*%
%ADD90C,1.0002*%
%ADD84C,2.0086*%
%ADD83C,1.7038*%
G75*
%LPD*%
G75*
G36*
G01X2057840Y1773210D02*
Y1657850D01*
G02X2040500Y1650670I-10159J5D01*
G01X2031720Y1659450D01*
Y1758480D01*
X1916360D01*
Y1689520D01*
X1910120Y1683280D01*
X1889980D01*
Y1691790D01*
X1821610D01*
G02X1814430Y1709130I6J10159D01*
G01X1890770Y1785470D01*
Y1838230D01*
G03X1857710I-16530J25630D01*
G01Y1799170D01*
X1809420Y1750870D01*
G02X1793170Y1753470I-7183J7187D01*
G03X1782480Y1765340I-27218J-13763D01*
G01Y1844500D01*
X1733390Y1893590D01*
X917900D01*
Y2003320D01*
X885520D01*
Y2042330D01*
X879560Y2048290D01*
Y2070960D01*
X863430D01*
G02X859840Y2079630I2J5079D01*
G01X868580Y2088370D01*
X912620D01*
Y2173750D01*
X899160D01*
Y2187680D01*
X917900D01*
Y2303040D01*
X812680D01*
G03X781900Y2314470I-24338J-18381D01*
G02X769590Y2324400I-2150J9930D01*
G01Y2335510D01*
X827240D01*
Y2316970D01*
X912620D01*
Y2402350D01*
X827240D01*
Y2401640D01*
X821690D01*
X821230Y2401730D01*
G03X807590Y2401150I-5557J-29990D01*
G01X806930Y2400970D01*
X802560D01*
X798640Y2397050D01*
X798270Y2396790D01*
G03X794790Y2393970I17410J-25042D01*
G01X769590D01*
Y2401560D01*
X684210D01*
Y2316180D01*
X753750D01*
G02X762390Y2300680I-5J-10161D01*
G03X798810Y2256010I25952J-16023D01*
G02X812460Y2246470I3490J-9542D01*
G01Y2187680D01*
X840700D01*
Y2173750D01*
X827240D01*
Y2129710D01*
X824440Y2126910D01*
X819260D01*
X768790Y2076440D01*
Y2071220D01*
X768610Y2070560D01*
G03X809980Y2034420I29411J-8082D01*
G02X824120Y2025080I3981J-9346D01*
G01Y2023520D01*
X844840D01*
Y2003320D01*
X812460D01*
Y1964710D01*
X798100D01*
X797440Y1964890D01*
G03X768140Y1957390I-8082J-29410D01*
G01X689660D01*
Y1964780D01*
X642220D01*
Y1876720D01*
X641030Y1875530D01*
Y1691790D01*
X584900D01*
Y1616310D01*
X730220D01*
Y1691790D01*
X674090D01*
Y1849340D01*
X689660D01*
Y1860530D01*
X839780D01*
Y1711180D01*
X915260D01*
Y1860530D01*
X1019610D01*
Y1711180D01*
X1095090D01*
Y1860530D01*
X1109780D01*
Y1711180D01*
X1185260D01*
Y1860530D01*
X1199700D01*
Y1711180D01*
X1275180D01*
Y1860530D01*
X1289620D01*
Y1711180D01*
X1306650D01*
G02X1313830Y1693830I0J-10161D01*
G01X1272760Y1652760D01*
X1270270Y1653090D01*
G03X1236350Y1616810I-4028J-30231D01*
G02X1226390Y1604630I-9958J-2019D01*
G01X985360D01*
X970510Y1619480D01*
X772600Y1421570D01*
Y1388260D01*
G02X760190Y1378350I-10161J-1D01*
G03X743030Y1378010I-7896J-34691D01*
G02X730220Y1387820I-2648J9811D01*
G01Y1421790D01*
X584900D01*
Y1346310D01*
X716500D01*
X716780Y1341530D01*
G03X717250Y1337570I35511J2207D01*
G01X717320Y1337140D01*
Y1331620D01*
X584900D01*
Y1256140D01*
X730220D01*
Y1311800D01*
X736420D01*
X737430Y1311340D01*
G03X737790Y1311170I15371J32084D01*
G01X740800Y1309830D01*
Y1118870D01*
G03X804340I31770J0D01*
G01Y1277110D01*
X816270Y1289040D01*
G02X833370Y1284060I7182J-7186D01*
G03X852030Y1331240I44150J9818D01*
G02X836140Y1339630I-5729J8391D01*
G01Y1346160D01*
G02X848760Y1356010I10159J-6D01*
G03X875480Y1361410I7675J30829D01*
G02X888410Y1360790I6090J-8133D01*
G03X934740Y1364640I21371J23509D01*
G02X947660Y1367230I7979J-6285D01*
G03X938160Y1414650I15458J27758D01*
G02X925240Y1412060I-7979J6285D01*
G03X890740Y1409730I-15454J-27759D01*
G02X877810Y1410350I-6090J8133D01*
G03X872800Y1414070I-21353J-23523D01*
G02X870850Y1429960I5237J8707D01*
G01X981980Y1541090D01*
X1704950D01*
X1727310Y1563450D01*
G02X1744660Y1556270I7189J-7181D01*
G01Y1526140D01*
X1889980D01*
Y1599110D01*
G02X1902800Y1608910I10160J-5D01*
G03X1940020Y1629650I7985J29437D01*
G01X1940390Y1630880D01*
X1962550Y1653040D01*
X1980600D01*
X2041760Y1591870D01*
Y1477790D01*
X2009330D01*
Y1387330D01*
X2031680D01*
Y1362950D01*
X2051900Y1342730D01*
G02X2044720Y1325390I-7186J-7181D01*
G01X2009330D01*
Y1234930D01*
X2031680D01*
Y1202380D01*
X2041760Y1192300D01*
Y1108140D01*
X2051490D01*
Y1093220D01*
X2053490Y1091220D01*
X2053160Y1088730D01*
G03X2052890Y1084630I30229J-4050D01*
G02X2042730Y1074440I-10160J-30D01*
G01X2024100D01*
Y1082440D01*
X2008350D01*
X2003660Y1087140D01*
X1953880D01*
G02X1943750Y1098020I5J10160D01*
G03X1921940Y1129460I-30421J2181D01*
G01X1921480Y1129920D01*
Y1367560D01*
X1892520Y1396520D01*
Y1424330D01*
X1751810D01*
Y1442870D01*
X1752370Y1443960D01*
G03X1710730Y1429640I-28269J14500D01*
G01X1713670Y1428280D01*
Y1392310D01*
G02X1700750Y1382540I-10160J7D01*
G03X1669570Y1374370I-8650J-30570D01*
G02X1654320Y1375340I-7200J7166D01*
G03X1651670Y1333560I-25179J-19377D01*
G02X1666920Y1332590I7200J-7166D01*
G03X1673030Y1326560I25168J19392D01*
G01Y1232500D01*
X1720640Y1184890D01*
X1742120D01*
Y1133110D01*
X1685720D01*
X1653470Y1100860D01*
Y1095570D01*
G03X1649760Y1092300I19087J-25395D01*
G02X1635580Y1091910I-7290J7079D01*
G03X1597390Y1095620I-21544J-23350D01*
G02X1584030Y1098050I-5327J8653D01*
G03X1539840Y1053200I-25128J-19437D01*
G01Y1036290D01*
X1643140Y932990D01*
X1722940D01*
X1741040Y914890D01*
X1744660D01*
Y896220D01*
X1889980D01*
Y971700D01*
X1744660D01*
Y971130D01*
X1658940D01*
X1642610Y987460D01*
G02X1649790Y1004800I7187J7181D01*
G01X1742120D01*
Y983590D01*
X1892520D01*
X1898240Y985960D01*
X1911510Y972700D01*
X1909250Y967250D01*
Y881870D01*
X1911280D01*
Y854880D01*
G02X1893940Y847700I-10159J6D01*
G01X1889980Y851650D01*
Y881780D01*
X1744660D01*
Y851670D01*
G02X1731520Y841960I-10161J5D01*
G03X1700050Y792250I-8935J-29160D01*
G02X1699790Y778280I-7508J-6848D01*
G03X1731260Y728000I21770J-21363D01*
G02X1744660Y718370I3240J-9630D01*
G01Y716130D01*
X1890050D01*
G02X1903210Y724660I10093J-1155D01*
G03X1942660Y757730I9210J29078D01*
G02X1952730Y769220I10073J1329D01*
G01X1979790D01*
G02X1989800Y757300I1J-10162D01*
G03X2032470Y724270I30040J-5269D01*
G02X2046840Y715030I4210J-9247D01*
G01Y672840D01*
X2066380D01*
X2088010Y651210D01*
X2259660D01*
Y637710D01*
G03X2260110Y633220I22711J9D01*
G02X2250150Y621050I-9960J-2009D01*
G01X2143810D01*
X2121340Y598580D01*
Y568330D01*
G03X2113510Y560090I17808J-24762D01*
G01X2089190D01*
X2051090Y598190D01*
X2031760D01*
Y605380D01*
X1927000D01*
G02X1916920Y616770I3J10158D01*
G03X1871060Y594240I-30277J3690D01*
G01X1871610Y593910D01*
X1900390Y565130D01*
X1916320D01*
Y557940D01*
X1987510D01*
Y541880D01*
X1976320D01*
Y494440D01*
X2031760D01*
Y541880D01*
X2020570D01*
Y557940D01*
X2031760D01*
Y558500D01*
G02X2040430Y562090I5079J-2D01*
G01X2075490Y527030D01*
X2113510D01*
G03X2121340Y518790I25638J16522D01*
G01Y342840D01*
G02X2111820Y332700I-10160J-1D01*
G03X2087230Y317350I1917J-30441D01*
G01X2086890Y316750D01*
X2069750Y299610D01*
Y205250D01*
X2059110D01*
Y119870D01*
X2124250D01*
X2129850Y114280D01*
X2126350Y110680D01*
G03X2151840Y50280I25490J-24821D01*
G01X2252940D01*
G03X2278100Y60700I0J35586D01*
G01X2302470Y85070D01*
X2313170D01*
Y78000D01*
X2311830Y76550D01*
G03X2311220Y35850I22410J-20690D01*
G02X2303550Y19030I-7671J-6661D01*
G01X1979140D01*
Y459760D01*
X1369500D01*
Y157210D01*
X1334920D01*
G02X1311310Y180820I0J23610D01*
G01Y328140D01*
G03X1302520Y358140I-55608J-6D01*
G03X1311310Y388140I-46818J30006D01*
G01Y449580D01*
G03X1295020Y488900I-55599J0D01*
G03X1223380Y518580I-71652J-71649D01*
G01X993130D01*
G02X983000Y527960I0J10159D01*
G03X922410Y530010I-30409J-2350D01*
G01X921780Y525660D01*
X906510D01*
X906110Y530310D01*
G03X905350Y534820I-27572J-2327D01*
G01X905190Y535440D01*
Y551420D01*
X915260D01*
Y687940D01*
X1019610D01*
Y551420D01*
X1095090D01*
Y687940D01*
X1109780D01*
Y551420D01*
X1185260D01*
Y696740D01*
X1167250D01*
Y955970D01*
X914100D01*
G03X856540Y971140I-36580J-22010D01*
G02X841650Y977670I-4997J8847D01*
G03X792170Y996220I-30932J-7241D01*
G02X777370Y999520I-5928J8251D01*
G03X767270Y1010280I-26627J-14874D01*
G01Y1017500D01*
X744370Y1040400D01*
X730220D01*
Y1061610D01*
X584900D01*
Y986130D01*
X719930D01*
X720400Y981560D01*
G03X721000Y977900I30340J3095D01*
G01X721120Y977350D01*
Y971700D01*
X584900D01*
Y896220D01*
X730220D01*
Y901330D01*
X736470D01*
X737510Y900830D01*
G03X769380Y952460I13265J27463D01*
G02Y960510I3101J4025D01*
G03X772070Y962850I-18638J24142D01*
G02X780460Y960760I3550J-3635D01*
G03X794190Y943300I30262J9669D01*
G01Y834870D01*
X782810Y823490D01*
X775160Y830130D01*
G03X737510Y875920I-24379J18329D01*
G01X736470Y875420D01*
X730220D01*
Y881780D01*
X584900D01*
Y806300D01*
X730220D01*
Y809150D01*
G02X742980Y818970I10160J-2D01*
G03X752300Y818000I7780J29492D01*
G02X759990Y800670I505J-10147D01*
G01X747570Y788250D01*
G02X730970Y791610I-7187J7180D01*
G01X584900D01*
Y716130D01*
X730220D01*
Y737340D01*
X743420D01*
X816880Y810800D01*
G02X834220Y803620I7181J-7186D01*
G01Y772930D01*
X900210D01*
Y696740D01*
X839780D01*
Y551420D01*
X849850D01*
Y525680D01*
X830450D01*
X829470Y529490D01*
G03X770540Y513740I-29528J-7641D01*
G03X793240Y407360I22700J-50768D01*
G01X833530D01*
G03X871590Y422420I0J55623D01*
G02X885490I6950J-7406D01*
G03X923550Y407360I38060J40563D01*
G01X1200090D01*
Y388140D01*
G03X1208880Y358140I55608J6D01*
G03X1200090Y328140I46818J-30006D01*
G01Y180820D01*
G03X1334920Y45990I134830J0D01*
G01X1369500D01*
Y19030D01*
X57690D01*
Y348170D01*
G02X76100Y354100I10162J-5D01*
G03Y453620I69140J49760D01*
G02X57690Y459550I-8248J5935D01*
G01Y578860D01*
G02X74960Y586120I10160J2D01*
G03Y729600I70280J71740D01*
G02X57690Y736860I-7110J7258D01*
G01Y856170D01*
G02X76100Y862100I10162J-5D01*
G03Y961620I69140J49760D01*
G02X57690Y967550I-8248J5935D01*
G01Y1080680D01*
X230420D01*
Y1251040D01*
X57690D01*
Y1364170D01*
G02X76100Y1370100I10162J-5D01*
G03Y1469620I69140J49760D01*
G02X57690Y1475550I-8248J5935D01*
G01Y1618170D01*
G02X76100Y1624100I10162J-5D01*
G03Y1723620I69140J49760D01*
G02X57690Y1729550I-8248J5935D01*
G01Y1872170D01*
G02X76100Y1878100I10162J-5D01*
G03Y1977620I69140J49760D01*
G02X57690Y1983550I-8248J5935D01*
G01Y2126170D01*
G02X76100Y2132100I10162J-5D01*
G03Y2231620I69140J49760D01*
G02X57690Y2237550I-8248J5935D01*
G01Y2350680D01*
X230420D01*
Y2521040D01*
X57690D01*
Y2634170D01*
G02X76100Y2640100I10162J-5D01*
G03Y2739620I69140J49760D01*
G02X57690Y2745550I-8248J5935D01*
G01Y2888170D01*
G02X76100Y2894100I10162J-5D01*
G03Y2993620I69140J49760D01*
G02X57690Y2999550I-8248J5935D01*
G01Y3142170D01*
G02X76100Y3148100I10162J-5D01*
G03Y3247620I69140J49760D01*
G02X57690Y3253550I-8248J5935D01*
G01Y3396170D01*
G02X76100Y3402100I10162J-5D01*
G03Y3501620I69140J49760D01*
G02X57690Y3507550I-8248J5935D01*
G01Y3620680D01*
X230420D01*
Y3791040D01*
X57690D01*
Y3904170D01*
G02X76100Y3910100I10162J-5D01*
G03Y4009620I69140J49760D01*
G02X57690Y4015550I-8248J5935D01*
G01Y4158170D01*
G02X76100Y4164100I10162J-5D01*
G03Y4263620I69140J49760D01*
G02X57690Y4269550I-8248J5935D01*
G01Y4412170D01*
G02X76100Y4418100I10162J-5D01*
G03Y4517620I69140J49760D01*
G02X57690Y4523550I-8248J5935D01*
G01Y4666170D01*
G02X76100Y4672100I10162J-5D01*
G03X223850Y4754680I69134J49772D01*
G01X222540Y4757820D01*
X261570Y4796850D01*
X430300D01*
X520800Y4706350D01*
X579560D01*
Y4660880D01*
X788720D01*
X852780Y4596820D01*
Y4567800D01*
X1013300D01*
Y4570340D01*
X1060760D01*
Y4681140D01*
X1062310Y4682630D01*
G03X1063840Y4684520I-7075J7291D01*
G02X1071430Y4685670I4294J-2716D01*
G03X1086080Y4678800I19811J23190D01*
G02X1092580Y4662810I-1716J-10014D01*
G03X1091840Y4627970I24659J-17952D01*
G02X1088350Y4613480I-8456J-5629D01*
G03X1080750Y4566260I14890J-26618D01*
G02X1079000Y4551020I-7495J-6860D01*
G03X1075050Y4503930I17242J-25157D01*
G02X1076050Y4490430I-7060J-7310D01*
G03X1074320Y4455780I24190J-18576D01*
G02X1069570Y4441040I-8634J-5353D01*
G03X1066490Y4386160I11668J-28181D01*
G02X1066990Y4368670I-4911J-8893D01*
G03X1079630Y4312570I16249J-25813D01*
G01X1081380Y4312370D01*
X1083690Y4310050D01*
G02X1091210Y4293640I-483J-10149D01*
G03X1086580Y4285300I24023J-18792D01*
G02X1074090Y4279050I-9546J3472D01*
G03X1081440Y4224020I-8850J-29188D01*
G01X1084870Y4226170D01*
X1092080Y4218960D01*
X1138400D01*
X1155380Y4235940D01*
X1229560D01*
Y4561380D01*
X1154140D01*
X1133450Y4582060D01*
X1133640Y4584410D01*
G03X1133730Y4586050I-30398J2491D01*
G02X1143880Y4595940I10156J-269D01*
G01X1229560D01*
Y4598320D01*
X1248540D01*
G03X1254080Y4599090I-3J20340D01*
G01X1254760Y4599280D01*
X1788450D01*
X1789410Y4598320D01*
X1804120D01*
Y4595940D01*
X1884380D01*
G02X1893090Y4580550I-2J-10161D01*
G03X1888770Y4566230I26148J-15700D01*
G01X1888550Y4561380D01*
X1804120D01*
Y4260860D01*
G03X1794810Y4240870I21121J-22000D01*
G02X1784670Y4231380I-10139J671D01*
G01X1234120D01*
Y4221080D01*
G02X1221280Y4211280I-10160J0D01*
G03X1188210Y4164440I-8037J-29420D01*
G02X1186210Y4150690I-8340J-5807D01*
G03X1175730Y4119160I19031J-23832D01*
G02X1165900Y4106440I-9833J-2560D01*
G01X1165820D01*
Y3991080D01*
X1176120D01*
X1196320Y3970880D01*
Y3799820D01*
X1235540D01*
G03X1276420Y3799310I20950J40660D01*
G01X1277470Y3799820D01*
X1292880D01*
Y3812720D01*
X1293810Y3814040D01*
G03X1294620Y3815210I-37197J26617D01*
G01X1298860Y3817490D01*
X1302910Y3815470D01*
G03X1349870Y3854310I24333J18389D01*
G02X1350120Y3868190I7542J6806D01*
G03X1355200Y3875180I-21884J21245D01*
G02X1372310Y3876530I8983J-4751D01*
G03X1424420Y3860960I36583J27451D01*
G01X1427460Y3862050D01*
X1434880Y3854630D01*
X1448500D01*
X1449160Y3854450D01*
G03X1485110Y3871460I8083J29411D01*
G02X1498850Y3876460I9282J-4129D01*
G03X1484370Y3916260I13388J27405D01*
G02X1470630Y3911260I-9282J4129D01*
G03X1459640Y3914270I-13410J-27394D01*
G01X1457770Y3914410D01*
X1454630Y3917560D01*
Y3964940D01*
G03X1363150I-45740J0D01*
G01Y3921700D01*
G02X1346810Y3913640I-10158J1D01*
G03X1312650Y3915660I-18571J-24198D01*
G02X1298200Y3920220I-5189J8732D01*
G03X1292880Y3929150I-41702J-18794D01*
G01Y3932780D01*
X1330980Y3970880D01*
Y3992020D01*
X1322210Y4000780D01*
X1321830Y4001760D01*
G03X1304740Y4018850I-28350J-11260D01*
G01X1303760Y4019230D01*
X1292880Y4030120D01*
Y4045980D01*
X1301200D01*
X1302570Y4043030D01*
G03X1356260Y4039940I27672J12829D01*
G02X1370000Y4043440I8666J-5300D01*
G03X1415710Y4071170I15239J26420D01*
G02X1421250Y4076450I5076J220D01*
G03X1423350Y4076330I2789J30371D01*
G02X1428240Y4070340I-110J-5081D01*
G03X1486130Y4052520I30003J-5473D01*
G02X1499370Y4057760I9287J-4118D01*
G03X1516400Y4055800I11862J28100D01*
G02X1527890Y4048550I1714J-10013D01*
G03X1575400Y4032350I29350J8308D01*
G02X1588890Y4031100I6047J-8161D01*
G03X1621360Y4023090I22344J20761D01*
G01X1622170Y4023370D01*
X1628120D01*
Y4017660D01*
G02X1614590Y4008080I-10160J5D01*
G03X1572700Y4002080I-15196J-43140D01*
G03X1544630Y3953570I-24459J-18223D01*
G01X1546380Y3953370D01*
X1553650Y3946090D01*
Y3903980D01*
G03X1570960Y3868150I45737J0D01*
G02X1572600Y3853880I-6320J-7956D01*
G03X1571300Y3852130I24840J-19810D01*
G02X1556950Y3849660I-8376J5745D01*
G03X1532010Y3795310I-17948J-24661D01*
G02X1539570Y3783110I-2333J-9888D01*
G03X1551180Y3750640I30931J-7251D01*
G02X1552190Y3735390I-6176J-8067D01*
G01X1549980Y3733180D01*
Y3629540D01*
X1579920Y3599600D01*
X1916560D01*
X1994500Y3677540D01*
Y3771180D01*
X1947560Y3818120D01*
X1944810D01*
G02X1934980Y3830840I2J10160D01*
G03X1872720Y3834900I-30739J8023D01*
G02X1862640Y3823480I-10082J-1260D01*
G01X1835540D01*
G02X1825430Y3834670I-1J10161D01*
G03X1825580Y3836770I-31596J3312D01*
G02X1834150Y3846440I10155J-367D01*
G03X1860990Y3878380I-4925J31386D01*
G02X1871140Y3888720I10156J182D01*
G01X1924630D01*
X1926010Y3885810D01*
G03X1983470I28730J13550D01*
G01X1984850Y3888720D01*
X1998640D01*
G02X2008780Y3878020I-4J-10158D01*
G03X2017700Y3854220I31728J-1680D01*
G02X2018120Y3840540I-7293J-7070D01*
G03X2023240Y3794400I24120J-20678D01*
G02X2025340Y3780220I-6072J-8145D01*
G03X2075750Y3741550I25570J-18860D01*
G02X2088670Y3744070I7942J-6337D01*
G03X2120080Y3744220I15573J27690D01*
G02X2133600Y3741050I5067J-8806D01*
G03X2180860Y3734690I26430J17630D01*
G02X2193790Y3735030I6671J-7665D01*
G03X2192530Y3784040I19571J25024D01*
G02X2179600Y3783700I-6671J7665D01*
G03X2144190Y3786220I-19575J-25021D01*
G02X2130670Y3789390I-5067J8806D01*
G03X2079400Y3791570I-26431J-17629D01*
G02X2066480Y3789050I-7942J6337D01*
G03X2065930Y3789360I-15873J-27519D01*
G01X2063250Y3793840D01*
X2064730Y3797420D01*
G03X2065050Y3841980I-22489J22443D01*
G02X2064630Y3855660I7293J7070D01*
G03X2072250Y3877810I-24118J20683D01*
G02X2082390Y3888440I10147J472D01*
G01X2171670D01*
Y3897170D01*
X2175920Y3901420D01*
X2201320D01*
X2218010Y3918120D01*
X2248710Y3887420D01*
X2248550Y3885110D01*
G03X2250940Y3870580I31690J-2249D01*
G02X2246260Y3857640I-9368J-3928D01*
G03X2290240Y3841740I14677J-28178D01*
G02X2294920Y3854680I9368J3928D01*
G03X2277990Y3914550I-14676J28179D01*
G01X2275680Y3914390D01*
X2263810Y3926260D01*
X2269080Y3931530D01*
X2271450Y3931320D01*
G03X2292110Y3936640I2868J31640D01*
G02X2300040Y3932440I2850J-4206D01*
G01Y3930090D01*
X2349710Y3880420D01*
X2349550Y3878110D01*
G03X2385060Y3844320I31690J-2250D01*
G02X2395980Y3831240I1214J-10085D01*
G03X2395760Y3830460I30465J-9014D01*
G02X2382210Y3823770I-9783J2746D01*
G03X2372610Y3762560I-11767J-29512D01*
G02X2383390Y3753620I692J-10134D01*
G03X2438790Y3778340I31548J3736D01*
G02X2441560Y3793970I7632J6708D01*
G03X2447550Y3845510I-15220J27887D01*
G02X2450100Y3862310I6787J7563D01*
G03X2409660Y3907610I-13249J28874D01*
G02X2396180Y3903900I-8696J5253D01*
G03X2378990Y3907550I-14936J-28040D01*
G01X2376680Y3907390D01*
X2364720Y3919350D01*
G02X2368650Y3936160I7181J7185D01*
G03X2345360Y3995190I-10162J30100D01*
G01X2344360Y3994740D01*
X2338180D01*
Y4000660D01*
G02X2348320Y4010820I10160J0D01*
G03X2376830Y4056490I-59J31771D01*
G02X2385960Y4071100I9132J4451D01*
G01X2392560D01*
G02X2402060Y4057340I-1J-10160D01*
G03X2445370Y4017380I29711J-11249D01*
G02X2459880Y4008200I4350J-9182D01*
G01Y3984400D01*
X2556690D01*
G02X2566680Y3972430I-7J-10160D01*
G03X2629100Y3960550I31261J-5670D01*
G01X2629910Y3964640D01*
X2711470D01*
Y4055100D01*
X2664680D01*
Y4071100D01*
X2681700D01*
Y4251850D01*
X2684830Y4253150D01*
G03X2691400Y4256860I-12227J29325D01*
G02X2704300Y4256130I6007J-8191D01*
G03X2707080Y4305080I21569J23329D01*
G02X2694180Y4305810I-6007J8191D01*
G03X2643150Y4270580I-21572J-23326D01*
G02X2633730Y4256620I-9421J-3801D01*
G01X2596820D01*
X2595930Y4256960D01*
G03X2563180Y4250970I-11507J-29612D01*
G01X2559780Y4249660D01*
G02X2554700Y4254740I0J5080D01*
G01Y4256620D01*
X2464180D01*
Y4158260D01*
X2458400Y4152480D01*
Y4084650D01*
G02X2444250Y4075310I-10159J1D01*
G03X2432640Y4077850I-12476J-29220D01*
G01X2427700Y4082920D01*
Y4256620D01*
X2337180D01*
Y4101030D01*
X2324050D01*
X2318040Y4095020D01*
G02X2300700Y4102200I-7181J7187D01*
G01Y4256620D01*
X2210180D01*
Y4089620D01*
G02X2196250Y4080190I-10159J4D01*
G03X2152760Y4048950I-11768J-29509D01*
G02X2144920Y4038500I-10145J-555D01*
G03X2121730Y3998380I7223J-30937D01*
G02X2112010Y3985280I-9727J-2939D01*
G01X2076500D01*
Y3985520D01*
X2023280D01*
X1963070Y4045730D01*
X1962860Y4046000D01*
G03X1944460Y4064330I-75809J-57698D01*
G01X1921920Y4086880D01*
X1774730D01*
X1773730Y4090660D01*
G03X1757770Y4110190I-29484J-7808D01*
G01Y4135940D01*
X1799560D01*
Y4155900D01*
G02X1808230Y4159490I5079J-2D01*
G01X1815340Y4152380D01*
X1815010Y4149890D01*
G03X1841210Y4176090I30230J-4030D01*
G01X1838720Y4175760D01*
X1823140Y4191340D01*
G02X1829050Y4208600I7186J7181D01*
G03X1854960Y4232000I-3808J30261D01*
G01X1855870Y4235940D01*
X1893710D01*
Y4220490D01*
G03X1928760Y4219090I16529J-25631D01*
G01X1926770Y4220610D01*
Y4227390D01*
X1927770Y4228390D01*
Y4243390D01*
X1934620Y4250240D01*
Y4272650D01*
G02X1950640Y4280950I10160J1D01*
G03X1964630Y4275570I17607J24906D01*
G01X1966380Y4275370D01*
X2015420Y4226320D01*
Y4190500D01*
X2135860D01*
Y4301020D01*
X2098920D01*
Y4412480D01*
X2010000D01*
X2008610Y4415320D01*
G03X1986950Y4431820I-27369J-13461D01*
G02X1978700Y4442320I1897J9982D01*
G03X1960830Y4471640I-30461J1541D01*
G02X1957840Y4488080I4191J9254D01*
G01X1982770Y4513010D01*
Y4617230D01*
G03X1995430Y4634020I-16529J25631D01*
G02X2012010Y4638580I9726J-2942D01*
G03X2017310Y4634890I16366J17855D01*
G01X2018880Y4633330D01*
X2021150D01*
G03X2035530I7190J23130D01*
G01X2046750D01*
Y4627500D01*
X2046300Y4626500D01*
G03X2046860Y4605270I22040J-10041D01*
G01X2047990Y4603100D01*
Y4601380D01*
X2045680Y4599060D01*
X2045440Y4598870D01*
G03X2075350Y4546460I18810J-24005D01*
G02X2089030Y4538900I3700J-9462D01*
G03X2136580Y4572110I31208J5962D01*
G01Y4589290D01*
X2128680Y4597190D01*
Y4603240D01*
X2129350Y4604420D01*
G03X2130380Y4626500I-21011J12044D01*
G01X2129930Y4627500D01*
Y4633330D01*
X2141150D01*
G03X2151460Y4632440I7190J23129D01*
G01X2153500Y4632700D01*
X2162620Y4623590D01*
X2162770Y4622480D01*
G03X2163710Y4618060I31468J4382D01*
G01Y4615060D01*
G03X2159170Y4607680I24537J-20181D01*
G01X2158710Y4607220D01*
Y4606590D01*
G03Y4583140I29528J-11725D01*
G01Y4581500D01*
X2160110Y4580100D01*
G03X2173480Y4566730I28132J14762D01*
G01X2176880Y4563330D01*
X2184360D01*
G03X2192120I3880J31530D01*
G01X2200600D01*
X2205380Y4568110D01*
G03X2215000Y4577720I-17125J26763D01*
G01X2222270Y4585000D01*
Y4611900D01*
X2222480Y4612310D01*
G03X2205590Y4656530I-28241J14549D01*
G01X2205380Y4656610D01*
X2183600Y4678390D01*
X2183110D01*
X2179640Y4681860D01*
X2207160Y4709380D01*
X2207510Y4709630D01*
G03X2215110Y4717330I-17564J24936D01*
G01X2221420Y4723640D01*
Y4758950D01*
G03Y4780110I-29000J10580D01*
G01Y4783080D01*
X2218580Y4785920D01*
G03X2215400Y4790140I-26153J-16400D01*
G01X2220750Y4795480D01*
X2222820Y4795500D01*
G03X2194620Y4838360I-318J30498D01*
G01X2193280Y4835340D01*
X2164650D01*
X2160860Y4831540D01*
G02X2144320Y4834760I-7184J7186D01*
G03X2127400Y4851240I-28079J-11903D01*
G02X2123940Y4867880I3723J9454D01*
G01X2130800Y4874740D01*
X2147260D01*
Y4980180D01*
X2067260D01*
Y5060180D01*
X1961820D01*
Y5058420D01*
X1955560Y5055820D01*
X1925770Y5085610D01*
Y5114200D01*
G02X1943110Y5121380I10159J-5D01*
G01X1961820Y5102670D01*
Y5094740D01*
X2067260D01*
Y5174740D01*
X2261820D01*
Y5094740D01*
X2356480D01*
G03X2398920Y5137970I23763J19118D01*
G02X2396420Y5151210I6222J8031D01*
G03X2342800Y5180180I-26186J15640D01*
G01X2267260D01*
Y5210930D01*
X2309730D01*
X2346150Y5247350D01*
X2347610Y5247670D01*
G03X2318460Y5297840I-6440J29812D01*
G02X2305240Y5296190I-7560J6784D01*
G03X2296550Y5300210I-16993J-25331D01*
G02X2290820Y5315540I2773J9772D01*
G03X2251480Y5359430I-25528J16694D01*
G02X2237730Y5364080I-4599J9056D01*
G03X2235490Y5367970I-27481J-13234D01*
G01X2234610Y5370820D01*
G02X2239690Y5375900I5081J-1D01*
G01X2304200D01*
X2304790Y5375300D01*
X2305090Y5371180D01*
G03X2360740Y5390510I30421J2190D01*
G02X2369140Y5406380I8402J5711D01*
G01X2383120D01*
X2395100Y5418370D01*
X2396850Y5418570D01*
G03X2413580Y5471590I-3608J30288D01*
G01Y5483610D01*
X2415280Y5485310D01*
Y5501320D01*
X2724370D01*
Y5400600D01*
G03X2722410Y5366860I24369J-18343D01*
G02X2713640Y5351580I-8770J-5123D01*
G01X2701920D01*
Y5245940D01*
X2698040Y5245000D01*
G03X2704920Y5184860I7195J-29640D01*
G01X2706990Y5184840D01*
X2726650Y5165180D01*
G02X2719470Y5147840I-7185J-7181D01*
G01X2715220D01*
Y5047890D01*
G02X2700190Y5038970I-10162J1D01*
G03X2715120Y5019790I-14609J-26773D01*
G02X2724960Y5032480I9840J2530D01*
G01X2784810D01*
X2785840Y5028750D01*
G03X2842460Y5023100I29401J8111D01*
G02X2858710Y5025700I9067J-4586D01*
G01X2897900Y4986500D01*
Y4949590D01*
G03X2938580I20340J-22730D01*
G01Y4988400D01*
G02X2955920Y4995580I10159J-6D01*
G01X2973120Y4978380D01*
X3546320D01*
Y5201940D01*
X3541760D01*
Y5209680D01*
X3124750D01*
G02X3115130Y5223090I7J10161D01*
G03X3116510Y5229140I-28890J9772D01*
G01X3117060Y5233600D01*
X3206910D01*
Y5354120D01*
X3133660D01*
G02X3128580Y5359280I-2J5079D01*
G01Y5398580D01*
X3231910D01*
Y5501320D01*
X3525860D01*
X3526450Y5501910D01*
X3530640D01*
Y5523440D01*
X3530320Y5523760D01*
Y5666420D01*
X3479520D01*
Y6016170D01*
X4056650D01*
X4056630Y5739240D01*
Y5463140D01*
X4056610Y5463120D01*
X4056530Y4617360D01*
X4057640D01*
Y4573260D01*
X4056530D01*
Y4553050D01*
X4056520Y4396070D01*
G02X4038820Y4389260I-10161J1D01*
G03X4025780Y4397760I-22623J-20455D01*
G02X4021120Y4413850I3195J9645D01*
G03X3973760Y4384710I-65878J54012D01*
G02X3986020Y4373300I2211J-9916D01*
G03X3990730Y4352010I30169J-4492D01*
G02X3988460Y4338370I-8476J-5598D01*
G03X3976880Y4309930I18620J-24159D01*
G02X3965590Y4298420I-10058J-1426D01*
G03X3916260Y4289610I-10350J-84560D01*
G01X3849170Y4356700D01*
Y4493310D01*
X3795430Y4547050D01*
G02X3803020Y4564380I7184J7181D01*
G03X3811950Y4624370I1227J30477D01*
G02X3807330Y4641380I2566J9829D01*
G01X3859540Y4693590D01*
G02X3876160Y4690190I7189J-7180D01*
G03X3903960Y4789890I79082J31675D01*
G02X3887730Y4797090I-6113J8112D01*
G03X3878650Y4816180I-30377J-2744D01*
G02X3880980Y4832440I7088J7281D01*
G03X3845410Y4837560I-14274J26952D01*
G02X3843080Y4821300I-7088J-7281D01*
G03X3863590Y4764500I14281J-26946D01*
G02X3875210Y4751070I2076J-9946D01*
G03X3872530Y4742250I80051J-29141D01*
G01X3871570Y4738390D01*
X3857580D01*
X3749080Y4629890D01*
X3742890D01*
X3741370Y4631880D01*
G03X3740750Y4632670I-24299J-18432D01*
G02X3743560Y4647930I7858J6442D01*
G03X3651330Y4790900I-42313J73937D01*
G02X3635220Y4799130I-5951J8234D01*
G01Y4832820D01*
G03Y4878900I-19980J23040D01*
G01Y4916580D01*
X3603860Y4947940D01*
X3570020D01*
X3404920Y4782840D01*
X3328720D01*
X3327920Y4782040D01*
X3071700D01*
X3070690Y4785800D01*
G03X3021220Y4800870I-29449J-7940D01*
G02X3004740Y4805860I-6676J7659D01*
G03X2944900Y4800230I-29432J-8000D01*
G01X2944540Y4795540D01*
X2898620D01*
Y4804680D01*
X2758060D01*
X2581120Y4981620D01*
Y5058680D01*
X2408360D01*
Y4916220D01*
X2391460D01*
Y4919280D01*
X2376180D01*
X2370700Y4924760D01*
Y4927280D01*
X2338410Y4959560D01*
X2338110Y4961050D01*
G03X2284070Y4936250I-29867J-6196D01*
G02X2282540Y4922260I-8049J-6198D01*
G03X2276590Y4915580I19554J-23407D01*
G01X2267260Y4918360D01*
Y4980180D01*
X2181820D01*
Y4874740D01*
X2267260D01*
Y4884440D01*
X2275080D01*
X2276590Y4882140D01*
G03X2331060Y4889280I25511J16718D01*
G01X2331430Y4890420D01*
X2335880Y4894860D01*
X2344020Y4886720D01*
Y4796620D01*
X2337180D01*
Y4611100D01*
X2427700D01*
Y4803840D01*
X2438880D01*
X2464180Y4778540D01*
Y4611100D01*
X2490370D01*
Y4565140D01*
X2493170Y4562340D01*
Y4556380D01*
X2491420Y4554860D01*
G03X2531310Y4556270I20818J-24000D01*
G01Y4578140D01*
X2528510Y4580940D01*
Y4610080D01*
X2551450D01*
X2552400Y4606220D01*
G03X2614080I30840J7640D01*
G01X2615030Y4610080D01*
X2752450D01*
G02X2761430Y4595180I-4J-10159D01*
G03X2764680Y4560560I28099J-14825D01*
G01Y4519240D01*
X2754650Y4509210D01*
Y4418640D01*
X2759630Y4413660D01*
G02X2754310Y4396490I-7186J-7183D01*
G03X2791370Y4359430I5830J-31230D01*
G02X2808540Y4364750I9987J-1866D01*
G01X2847780Y4325510D01*
Y4209400D01*
X2918180Y4139000D01*
X3001380D01*
Y4136700D01*
X3053900D01*
Y4137020D01*
X3094100D01*
G02X3101280Y4119680I-7J-10159D01*
G01X3063100Y4081500D01*
Y4002140D01*
X3057240Y3996280D01*
X3022800D01*
Y3943760D01*
X3062980D01*
Y3888490D01*
X3058000Y3883410D01*
G03X3022500Y3872190I1351J-66046D01*
G02X3008670Y3874570I-5669J8432D01*
G03X2951940Y3861650I-25530J-18910D01*
G01X2951650Y3860110D01*
X2944190Y3852660D01*
X2824120D01*
G02X2814270Y3865280I6J10159D01*
G03X2812870Y3884920I-30830J7672D01*
G01X2812500Y3885840D01*
Y3948020D01*
X2802130D01*
G02X2793070Y3962780I-2J10159D01*
G03X2749360Y3949360I-28330J14380D01*
G01X2751980Y3947910D01*
Y3895500D01*
X2756070D01*
Y3889140D01*
X2755460Y3888010D01*
G03X2754510Y3859840I27981J-15045D01*
G01X2754960Y3858840D01*
Y3852660D01*
X2749810D01*
X2680990Y3783840D01*
G02X2665100Y3785790I-7183J7187D01*
G03X2657400Y3794490I-27239J-16350D01*
G02X2654870Y3807630I6242J8015D01*
G03X2596530Y3816320I-27429J16030D01*
G02X2586150Y3803820I-9884J-2352D01*
G03X2603550Y3746600I-1562J-31730D01*
G02X2616460Y3745960I6067J-8151D01*
G03X2621510Y3742200I21404J23476D01*
G02X2623460Y3726310I-5237J-8707D01*
G01X2570430Y3673280D01*
X2414710D01*
X2307610Y3566180D01*
X1541260D01*
X1454630Y3652810D01*
Y3710940D01*
G03X1365880Y3726500I-45739J0D01*
G02X1352010Y3720770I-9550J3464D01*
G03X1308750Y3696770I-12971J-27608D01*
G01X1308550Y3695020D01*
X1291180Y3677650D01*
X1287590Y3680980D01*
G03X1210750Y3647440I-31100J-33540D01*
G01Y3586480D01*
G03X1302230I45740J0D01*
G01Y3623990D01*
X1340900Y3662670D01*
X1342650Y3662870D01*
G03X1349500Y3664510I-3629J30285D01*
G02X1363150Y3654970I3490J-9541D01*
G01Y3649980D01*
G03X1424440Y3606960I45743J0D01*
G01X1427480Y3608060D01*
X1520200Y3515340D01*
X2328670D01*
X2435770Y3622440D01*
X2591490D01*
X2733140Y3764090D01*
G02X2750480Y3756910I7180J-7187D01*
G01Y3741600D01*
X2761670D01*
Y3716820D01*
X2752020D01*
Y3606300D01*
X2872460D01*
Y3716820D01*
X2799810D01*
Y3741600D01*
X2871000D01*
Y3748790D01*
X2970140D01*
X2984810Y3763460D01*
G02X3000970Y3761030I7182J-7186D01*
G03X3068440Y3726530I58371J30930D01*
G02X3080000Y3716470I1400J-10063D01*
G01Y3685860D01*
G03X3167680I43840J0D01*
G01Y3708040D01*
G02X3178860Y3718150I10160J2D01*
G03X3191780Y3719520I3181J31610D01*
G02X3204460Y3713250I3107J-9673D01*
G03X3220720Y3695210I29936J10635D01*
G02X3223530Y3678850I-4371J-9172D01*
G01X3205370Y3660690D01*
Y3542320D01*
X3175630Y3512580D01*
X3093500D01*
X3093010Y3513070D01*
Y3517690D01*
G03X3044930Y3545120I-31769J168D01*
G02X3029630Y3555110I-5218J8720D01*
G03X3030150Y3563360I-65539J8272D01*
G01Y3588760D01*
G03X3013430Y3632690I-66071J0D01*
G02X3015500Y3647980I7587J6758D01*
G03X2976770Y3698060I-17236J26687D01*
G02X2963870Y3697370I-6869J7486D01*
G03X2920530Y3651540I-18884J-25549D01*
G02X2919560Y3637550I-7820J-6486D01*
G03X2898030Y3588760I44517J-48790D01*
G01Y3588170D01*
G02X2883300Y3579100I-10159J3D01*
G03X2845070Y3576820I-17153J-34041D01*
G01X2752020D01*
Y3559680D01*
X2540650D01*
X2457010Y3476040D01*
X1436000D01*
G02X1427560Y3491860I-2J10160D01*
G03X1382150Y3531810I-25323J17000D01*
G03X1338000Y3491450I-18039J-24595D01*
G02X1329300Y3476040I-8699J-5250D01*
G01X1143360D01*
X1130520Y3488880D01*
Y3546280D01*
X1108210Y3568590D01*
X1109240Y3571590D01*
G03X1111730Y3586470I-43251J14886D01*
G01Y3647440D01*
G03X1083790Y3689570I-45733J0D01*
G01Y3743860D01*
G03X1096370Y3771280I-17803J24764D01*
G01X1096170Y3773640D01*
X1134590Y3812060D01*
Y3935480D01*
X1100030Y3970040D01*
X1052130D01*
X1037040Y3985130D01*
Y4121930D01*
X991080Y4167890D01*
Y4281340D01*
X1010760D01*
Y4390780D01*
X855320D01*
Y4389140D01*
X846260D01*
Y4319680D01*
X814120Y4287540D01*
X554160D01*
Y4127480D01*
X939540D01*
G02X948460Y4112460I-1J-10159D01*
G03X987270Y4069830I26779J-14602D01*
G02X1001440Y4060500I4011J-9333D01*
G01Y4002080D01*
G02X984100Y3994900I-10159J6D01*
G01X963240Y4015760D01*
X864720D01*
X848140Y4032340D01*
X848470Y4034830D01*
G03X800210Y4063460I-30232J4030D01*
G02X784370Y4069110I-6005J8193D01*
G03X731020Y4080510I-29527J-7648D01*
G02X715160I-7930J6350D01*
G03Y4042410I-23820J-19050D01*
G02X731020I7930J-6350D01*
G03X772870Y4036860I23819J19050D01*
G02X788710Y4031210I6005J-8193D01*
G03X822270Y4008630I29525J7653D01*
G01X824760Y4008960D01*
X833640Y4000080D01*
G02X826460Y3982740I-7186J-7181D01*
G01X554160D01*
Y3822680D01*
X757360D01*
Y3442640D01*
X676780D01*
X653820Y3419680D01*
Y3284440D01*
X665780Y3272480D01*
X671010D01*
Y3153030D01*
X733920Y3090120D01*
X736140D01*
G02X739730Y3081450I-2J-5079D01*
G01X712040Y3053760D01*
X668000D01*
Y2968380D01*
X761860D01*
Y2908600D01*
X759910Y2906650D01*
Y2867860D01*
X665800D01*
Y2782480D01*
X751180D01*
Y2789780D01*
G02X759850Y2793370I5079J-2D01*
G01X761860Y2791360D01*
Y2713840D01*
X761680Y2713180D01*
G03X820500I29410J-8080D01*
G01X820320Y2713840D01*
Y2815580D01*
X808360Y2827540D01*
X818370Y2837550D01*
Y2882810D01*
X818830Y2883810D01*
G03X820500Y2904570I-27740J12679D01*
G01X820320Y2905230D01*
Y3047740D01*
X820500Y3048400D01*
G03X820650Y3064000I-29410J8084D01*
G02X830490Y3076660I9847J2501D01*
G01X839380D01*
Y3162040D01*
X754000D01*
Y3161580D01*
X747740Y3158980D01*
X729470Y3177250D01*
Y3272480D01*
X739760D01*
X800640Y3333360D01*
X907980D01*
Y3332140D01*
X935360Y3304760D01*
Y3260720D01*
X935690D01*
Y3176790D01*
X948340D01*
Y3146570D01*
X934880D01*
Y3061190D01*
X948340D01*
Y3037350D01*
X934880D01*
Y2951970D01*
X948340D01*
Y2920510D01*
X934880D01*
Y2835130D01*
X986210D01*
G02X989800Y2826460I-2J-5079D01*
G01X987680Y2824340D01*
X958440D01*
Y2708980D01*
X1044060D01*
G02X1051240Y2691640I-6J-10159D01*
G01X1020340Y2660740D01*
Y2595330D01*
G03Y2544070I16530J-25630D01*
G01Y2486390D01*
X1007180D01*
X1006350Y2487220D01*
X989520D01*
G02X979710Y2500000I6J10160D01*
G03X967450Y2533040I-29470J7859D01*
G02X966820Y2549360I5727J8393D01*
G03X933410Y2600080I-19073J23800D01*
G02X918480Y2609050I-4771J8969D01*
G01Y2683460D01*
X833100D01*
Y2663650D01*
X825370D01*
X803010Y2641290D01*
X800490Y2641650D01*
G03X799750Y2641750I-4455J-30176D01*
G01X798000Y2641950D01*
X775110Y2664850D01*
X747480D01*
Y2684660D01*
X662100D01*
Y2599280D01*
X747480D01*
Y2619090D01*
X756150D01*
X765650Y2609600D01*
X765850Y2607850D01*
G03X822420Y2595990I30285J3611D01*
G01X827030Y2600590D01*
X833100Y2598080D01*
X909870D01*
G02X919330Y2584230I-6J-10160D01*
G03X930540Y2547980I28420J-11070D01*
G02X931170Y2531660I-5727J-8393D01*
G03X921270Y2498320I19070J-23802D01*
G02X911620Y2484980I-9649J-3180D01*
G01X890770D01*
X883180Y2477390D01*
X883170D01*
X870440Y2464660D01*
X856600D01*
X818850Y2502410D01*
X819020Y2504730D01*
G03X767420Y2485040I-30416J2252D01*
G02X768040Y2471070I-7057J-7312D01*
G03X820550Y2443190I23053J-19971D01*
G01X820900Y2444500D01*
X825450Y2449050D01*
X831740Y2442760D01*
Y2417220D01*
X887180D01*
Y2434640D01*
X896870Y2444330D01*
X896880D01*
X904470Y2451920D01*
X973590D01*
X975830Y2454160D01*
X992650D01*
X993480Y2453330D01*
X1006990D01*
X1028050Y2432270D01*
G03X1032690Y2429010I11682J11695D01*
G01X1033490Y2428630D01*
X1045170Y2416950D01*
Y2114170D01*
X1044870Y2113330D01*
G03X1048740Y2096060I15560J-5582D01*
G01X1208830Y1935970D01*
X1567370D01*
X1590730Y1959330D01*
X1896250D01*
G02X1904740Y1943600I-4J-10158D01*
G03X1952380Y1905880I25493J-16747D01*
G02X1966620Y1906380I7374J-6986D01*
G03X1997220Y1900040I20614J22480D01*
G02X2010710Y1890440I3330J-9599D01*
G01Y1820340D01*
X2057840Y1773210D01*
G37*
G36*
G01X57690Y4777560D02*
Y5716050D01*
X357810Y6016170D01*
X837920D01*
Y5666420D01*
X787120D01*
Y5514020D01*
X1101310D01*
Y5403560D01*
G03X1096810Y5366860I21829J-21302D01*
G02X1088040Y5351580I-8770J-5123D01*
G01X1076320D01*
Y5248880D01*
X1039040D01*
X1026530Y5261390D01*
X957100D01*
X931890Y5236180D01*
X857560D01*
Y5254780D01*
X843140D01*
G02X833770Y5268870I-2J10159D01*
G03X789540Y5306560I-28129J11787D01*
G02X774500Y5312080I-5366J8629D01*
G03X720250Y5285580I-29031J-9347D01*
G01X722610Y5282100D01*
X716050Y5275540D01*
X703790Y5287800D01*
X701950D01*
X698910Y5290840D01*
X660710D01*
G03X610250Y5271570I-20172J-22879D01*
G01X610050Y5269820D01*
X518360Y5178140D01*
Y5112830D01*
X519100Y5112090D01*
Y5103110D01*
X523530Y5098680D01*
G02X518820Y5081640I-7183J-7185D01*
G03X509710Y5026430I7422J-29581D01*
G01Y5017910D01*
X533710Y4993910D01*
X531060Y4990390D01*
G03X575790Y4949340I24376J-18334D01*
G01X595030D01*
G02X604230Y4934850I7J-10161D01*
G03X616840Y4895290I27592J-12995D01*
G02X617200Y4877800I-4987J-8851D01*
G03X629630Y4821570I16039J-25943D01*
G01X631380Y4821370D01*
X634810Y4817930D01*
G02X631220Y4809260I-3592J-3591D01*
G01X602420D01*
Y4808240D01*
X579560D01*
Y4764810D01*
X545020D01*
X454520Y4855310D01*
X237350D01*
X181200Y4799160D01*
X178060Y4800470D01*
G03X76100Y4771620I-32818J-78612D01*
G02X57690Y4777560I-8248J5935D01*
G37*
G36*
G01X2308600Y3258040D02*
G03X2302130Y3281140I-27340J4798D01*
G02Y3294540I7641J6700D01*
G03Y3331140I-20870J18300D01*
G02Y3344540I7641J6700D01*
G03X2262960Y3383710I-20870J18300D01*
G02X2249560I-6700J7641D01*
G03X2212960I-18300J-20870D01*
G02X2199560I-6700J7641D01*
G03X2162960I-18300J-20870D01*
G02X2149560I-6700J7641D01*
G03X2112960I-18300J-20870D01*
G02X2099560I-6700J7641D01*
G03X2062960I-18300J-20870D01*
G02X2049560I-6700J7641D01*
G03X2012960I-18300J-20870D01*
G02X1999560I-6700J7641D01*
G03X1962960I-18300J-20870D01*
G02X1949560I-6700J7641D01*
G03X1912960I-18300J-20870D01*
G02X1899560I-6700J7641D01*
G03X1862960I-18300J-20870D01*
G02X1849560I-6700J7641D01*
G03X1812960I-18300J-20870D01*
G02X1799560I-6700J7641D01*
G03X1762960I-18300J-20870D01*
G02X1749560I-6700J7641D01*
G03X1712960I-18300J-20870D01*
G02X1699560I-6700J7641D01*
G03X1662960I-18300J-20870D01*
G02X1649560I-6700J7641D01*
G03X1603800Y3358800I-18298J-20873D01*
G02X1593740Y3347160I-10053J-1479D01*
G01X800040D01*
X735540Y3282660D01*
X670000D01*
X664000Y3288660D01*
Y3415460D01*
X678790Y3430250D01*
X701270D01*
Y3432460D01*
X757360D01*
Y3428980D01*
X980920D01*
Y3432460D01*
X1046440D01*
Y3541060D01*
X1051170Y3545790D01*
X1054050Y3544960D01*
G03X1093630Y3553280I11937J41519D01*
G01X1095050Y3554460D01*
X1107940D01*
X1120340Y3542060D01*
Y3484360D01*
X1120640D01*
X1139140Y3465860D01*
X2467140D01*
X2487120Y3445880D01*
Y3261360D01*
X2471880Y3246120D01*
X2318610D01*
G02X2308600Y3258040I-3J10160D01*
G37*
G36*
G01X564340Y3832860D02*
Y3934460D01*
Y3972560D01*
X945340D01*
Y3756660D01*
X970740Y3731260D01*
Y3439160D01*
X767540D01*
Y3782060D01*
Y3832860D01*
X564340D01*
G37*
G36*
G01X945340Y4137660D02*
X564340D01*
Y4226560D01*
Y4277360D01*
X818340D01*
X856440Y4315460D01*
Y4378960D01*
X881840D01*
X945340D01*
Y4277360D01*
Y4137660D01*
G37*
G36*
G01Y4696460D02*
X907240D01*
Y4798060D01*
X589740D01*
Y4671060D01*
X792940D01*
X881840Y4582160D01*
X945340D01*
Y4696460D01*
G37*
G36*
G01X714070Y4826600D02*
X736810Y4849340D01*
X737560D01*
Y4850090D01*
X737720Y4850250D01*
Y4902060D01*
G03X737590Y4904500I-22880J4D01*
G01X737560Y4904770D01*
Y4954780D01*
X657560D01*
Y5034780D01*
X566270D01*
G02X556270Y5046720I2J10159D01*
G03Y5057400I-30030J5340D01*
G02X566270Y5069340I10002J1781D01*
G01X602130D01*
X602400Y5069310D01*
G03X607280I2440J22750D01*
G01X607550Y5069340D01*
X657560D01*
Y5149340D01*
X852120D01*
Y5069340D01*
X936070D01*
G02X946110Y5057600I4J-10159D01*
G03X966490Y5023960I30130J-4740D01*
G02X971230Y5008050I-3244J-9627D01*
G01Y4983310D01*
X950000Y4962080D01*
X924600D01*
X883090Y4920570D01*
Y4837910D01*
X874020Y4828830D01*
X868010Y4834840D01*
X869340Y4837990D01*
G03X857560Y4875630I-28098J11870D01*
G01Y4954780D01*
X772120D01*
Y4866750D01*
G03X762320Y4824780I16119J-25893D01*
G02X753690Y4809260I-8629J-5361D01*
G01X721250D01*
G02X714070Y4826600I6J10159D01*
G37*
G36*
G01X1232280Y3141280D02*
G02X1223300Y3156190I-1J10158D01*
G03X1198310Y3200900I-26960J14270D01*
G01X1193560Y3205970D01*
Y3297780D01*
X1078120D01*
Y3242090D01*
G02X1062090Y3233800I-10160J3D01*
G03X1034540Y3237740I-17618J-24898D01*
G02X1021070Y3247340I-3312J9603D01*
G01Y3262170D01*
X1020740D01*
Y3331910D01*
X1604810D01*
G02X1605460Y3323070I-8795J-5091D01*
G03X1610390Y3294540I25802J-10232D01*
G02Y3281140I-7641J-6700D01*
G03X1611670Y3243180I20872J-18298D01*
G02X1612180Y3229330I-7173J-7199D01*
G03X1613410Y3195020I19080J-16493D01*
G02Y3180660I-7184J-7180D01*
G03Y3145020I17850J-17820D01*
G02Y3130660I-7184J-7180D01*
G03Y3095020I17850J-17820D01*
G02Y3080660I-7184J-7180D01*
G03X1613830Y3044620I17851J-17814D01*
G02X1613470Y3029610I-7026J-7341D01*
G03X1605840Y3013290I14612J-16775D01*
G02X1595690Y3003340I-10156J208D01*
G01X1581680D01*
X1580840Y3003640D01*
G03X1575260Y3004610I-5580J-15565D01*
G01X1241590D01*
X1169150Y2932160D01*
G02X1152900Y2934760I-7183J7187D01*
G03X1099170Y2936090I-27222J-13758D01*
G01X1098830Y2935490D01*
X1037600Y2874260D01*
G02X1020260Y2881440I-7181J7186D01*
G01Y2920510D01*
X1006800D01*
Y2951970D01*
X1020260D01*
Y3037350D01*
X1006800D01*
Y3061190D01*
X1020260D01*
Y3117260D01*
G02X1029880Y3127400I10158J-4D01*
G03X1050270Y3136770I-1648J30456D01*
G02X1064470Y3137240I7340J-7025D01*
G03X1115270Y3163790I20568J22520D01*
G01X1114940Y3166280D01*
X1122370Y3173710D01*
Y3199540D01*
X1140440D01*
Y3147580D01*
X1146670Y3141350D01*
G02X1143080Y3132680I-3592J-3591D01*
G01X1138120D01*
Y3034440D01*
X1193560D01*
Y3092430D01*
X1213720D01*
Y3085840D01*
X1261160D01*
Y3097030D01*
X1363190D01*
X1406370Y3140210D01*
Y3193890D01*
G02X1422040Y3202420I10160J-7D01*
G03X1461450Y3207880I16532J25630D01*
G02X1474660Y3209650I7623J-6715D01*
G03X1481350Y3206340I16769J25476D01*
G02X1486460Y3191150I-3366J-9587D01*
G03X1514100Y3143920I25450J-16809D01*
G02X1524990Y3133930I732J-10133D01*
G03X1536520Y3110480I30497J435D01*
G02X1538290Y3096390I-6325J-7951D01*
G03X1581580Y3101860I24317J-18410D01*
G02X1579810Y3115950I6325J7951D01*
G03X1553300Y3164780I-24319J18408D01*
G02X1542410Y3174770I-732J10133D01*
G03X1542390Y3175570I-30502J-362D01*
G01Y3175780D01*
G02X1547460Y3180850I5075J-5D01*
G01X1548530Y3180740D01*
G03X1562580Y3240090I6410J29821D01*
G01X1558770Y3241070D01*
Y3280910D01*
X1536390Y3303290D01*
X1395690D01*
X1373310Y3280910D01*
Y3153910D01*
X1349490Y3130090D01*
X1261160D01*
Y3141280D01*
X1232280D01*
G37*
G36*
G01X1181100Y4089400D02*
X1257300D01*
X1282700Y4064000D01*
Y4025900D01*
X1320800Y3987800D01*
Y3975100D01*
X1282700Y3937000D01*
Y3810000D01*
X1206500D01*
Y3975100D01*
X1181100Y4000500D01*
Y4089400D01*
G37*
G36*
G01X1004250Y4927090D02*
Y4908530D01*
X1016190D01*
Y4844040D01*
X1009920Y4837770D01*
Y4792840D01*
G02X996130Y4783350I-10160J-1D01*
G03X963900Y4776650I-10889J-28490D01*
G01X962420Y4775200D01*
X961810D01*
X946830Y4760220D01*
X917420D01*
Y4807520D01*
X928850Y4818950D01*
Y4901610D01*
X943560Y4916320D01*
X968960D01*
X986910Y4934270D01*
G02X1004250Y4927090I7181J-7186D01*
G37*
G36*
G01X1300940Y4823460D02*
Y4899660D01*
X1275540D01*
X1224740D01*
Y4988560D01*
X1097740D01*
Y4975860D01*
Y4963160D01*
Y4937760D01*
X1212040Y4823460D01*
X1237440D01*
X1250140D01*
X1300940D01*
G37*
G36*
G01X1502240Y4609460D02*
X1242240D01*
Y4772660D01*
Y4775860D01*
X1211240D01*
X1176240D01*
X1161240D01*
Y4791860D01*
X1232240D01*
X1236240D01*
X1251240D01*
X1489240D01*
X1490240D01*
X1491240D01*
Y4886960D01*
X1491440D01*
X1500240D01*
X1502240D01*
Y4796860D01*
Y4609460D01*
G37*
G36*
G01X1565960Y5014220D02*
Y5100580D01*
X1518520D01*
Y4978900D01*
X1489760D01*
Y5100580D01*
X1442320D01*
Y5018220D01*
X1407760Y4983660D01*
G02X1390420Y4990840I-7181J7186D01*
G01Y4998740D01*
X1089630D01*
Y5093990D01*
X1018950D01*
G02X1011770Y5111330I6J10159D01*
G01X1032140Y5131700D01*
Y5150040D01*
X1036650Y5150550D01*
G03X1057410Y5199460I-3411J30309D01*
G02X1065460Y5215820I8049J6200D01*
G01X1229730D01*
X1250050Y5236140D01*
X1259460D01*
G02X1269600Y5225350I1J-10158D01*
G03X1322060Y5202350I30442J-1893D01*
G02X1335550Y5203400I7333J-7028D01*
G03X1366990Y5200040I18492J24258D01*
G02X1380280Y5195600I4314J-9197D01*
G03X1431870Y5191870I26961J14260D01*
G02X1446560Y5193690I8201J-5997D01*
G03X1495810Y5223780I19478J23470D01*
G02X1505730Y5236140I9918J2201D01*
G01X1578770D01*
Y5351580D01*
X1506100D01*
G02X1498920Y5368920I2J10157D01*
G01X1500430Y5370430D01*
Y5401120D01*
X1603770D01*
Y5514020D01*
X1904720D01*
Y5574740D01*
G02X1918930Y5584050I10159J-6D01*
G03X1930780Y5581520I12167J27970D01*
G01X1932850Y5581500D01*
X1949900Y5564450D01*
Y5559230D01*
X1945870D01*
Y5502490D01*
X1946520D01*
Y5443140D01*
X1993960D01*
Y5452730D01*
X2006020D01*
Y5418960D01*
G03X2039350Y5368130I18819J-24003D01*
G02X2052440Y5365110I4831J-8937D01*
G03X2055440Y5361530I24808J17742D01*
G02X2051810Y5352900I-3634J-3550D01*
G01X1991510D01*
X1907720Y5269110D01*
Y5189610D01*
X1903580Y5188830D01*
G03X1892710Y5133230I5661J-29969D01*
G01Y5071910D01*
X1945890Y5018730D01*
X1942390Y5015140D01*
G03X1952260Y4965810I21850J-21281D01*
G02X1958010Y4953570I-3988J-9344D01*
G03X1959010Y4933310I29230J-8712D01*
G02X1954510Y4920570I-9403J-3843D01*
G03X1973270Y4863630I14729J-26708D01*
G01X1975760Y4863960D01*
X1986390Y4853330D01*
X2035140D01*
G02X2041910Y4835600I-3J-10159D01*
G03X2046430Y4786780I20330J-22737D01*
G03X2046370Y4766260I21910J-10324D01*
G01X2046850Y4765240D01*
Y4759040D01*
X2037140D01*
X2036330Y4759320D01*
G03X2024210Y4760330I-8007J-22859D01*
G01X2021620Y4759880D01*
X2012320Y4769180D01*
X2012220D01*
X1902480Y4878920D01*
Y4947260D01*
X1903090Y4948390D01*
G03Y4977330I-26850J14470D01*
G01X1902480Y4978460D01*
Y4998740D01*
X1798760D01*
Y4909840D01*
X1768320D01*
Y4998740D01*
X1646360D01*
Y4948930D01*
G02X1631760Y4939800I-10159J7D01*
G03X1607260Y4940740I-13321J-27439D01*
G02X1593370Y4950190I-3731J9449D01*
G01Y4986810D01*
X1565960Y5014220D01*
G37*
G36*
G01X1377140Y4988560D02*
X1250140D01*
Y4925060D01*
X1300940D01*
X1326340D01*
X1330240D01*
X1332240D01*
Y4823460D01*
X1377140D01*
X1380240D01*
Y4988560D01*
X1377140D01*
G37*
G36*
G01X2563890Y2664490D02*
X2678340D01*
G03Y2702630I23800J19070D01*
G01X2579690D01*
X2437940Y2844380D01*
Y3096490D01*
G02X2450630Y3106320I10158J-8D01*
G03X2480640Y3115160I7606J29538D01*
G01X2482150Y3116790D01*
X2489720D01*
X2501690Y3104820D01*
X2666970D01*
G02X2674710Y3088080I-3J-10161D01*
G03X2682970Y3041750I23231J-19759D01*
G02X2687160Y3028520I-4982J-8856D01*
G03X2699140Y2987830I28681J-13664D01*
G02X2699560Y2970820I-5341J-8642D01*
G03X2697080Y2920370I18010J-26171D01*
G01Y2854700D01*
X2749600D01*
Y2915220D01*
X2745230D01*
G02X2742420Y2916070I3J5079D01*
G01Y2924850D01*
G03X2734270Y2971680I-24848J19800D01*
G02X2733850Y2988690I5341J8642D01*
G03X2741250Y2995790I-18007J26174D01*
G01X2786840D01*
X2908600Y2874030D01*
G02X2901420Y2856690I-7187J-7181D01*
G01X2895300D01*
Y2774590D01*
X2895270D01*
Y2684130D01*
X3031900D01*
X3061270Y2654760D01*
Y2572510D01*
G03X3033330Y2518560I38117J-53950D01*
G01Y2493160D01*
G03X3036980Y2471510I66059J4D01*
G02X3027380Y2458020I-9599J-3330D01*
G01X2981460D01*
X2922650Y2516830D01*
X2680500D01*
G03X2635410Y2479880I-16852J-25422D01*
G02X2626010Y2465880I-9404J-3841D01*
G01X2603030D01*
G03Y2415040I-16850J-25420D01*
G01X2762020D01*
Y2362770D01*
X2870590Y2254200D01*
X3009850D01*
X3011710Y2252340D01*
X3308700D01*
X3355780Y2205260D01*
Y2134860D01*
X3410400Y2080240D01*
X3414920D01*
Y2031140D01*
X3529670D01*
G03X3532310Y2029230I19172J23720D01*
G01Y2000710D01*
X3616840Y1916190D01*
X3617100Y1914550D01*
G03X3640960Y1867670I84141J13312D01*
G02X3633770Y1850330I-7192J-7179D01*
G01X3519460D01*
Y1936680D01*
X3404020D01*
Y1741240D01*
X3519460D01*
Y1817270D01*
X3746780D01*
G03X3781870Y1804900I25581J16610D01*
G02X3795200Y1795250I3170J-9652D01*
G01Y1787710D01*
X3791940Y1784450D01*
X3655420D01*
X3581360Y1710390D01*
X3231090D01*
X3200140Y1741340D01*
X3200470Y1743830D01*
G03X3174270Y1717630I-30230J4030D01*
G01X3176760Y1717960D01*
X3217390Y1677330D01*
X3600750D01*
X3600820Y1672330D01*
G03X3722180Y1575640I100418J1532D01*
G02X3731480Y1558520I2114J-9937D01*
G01X3715520Y1542560D01*
X3210560D01*
X3206760Y1538760D01*
X3204270Y1539090D01*
G03X3230500Y1505050I-4030J-30231D01*
G01X3231060Y1509500D01*
X3648570D01*
G02X3654180Y1490870I-2J-10160D01*
G03X3736520Y1497400I47060J-71011D01*
G02X3733550Y1513830I4212J9245D01*
G01X3811830Y1592110D01*
Y1721650D01*
X3853660Y1763480D01*
Y3554470D01*
X3791230Y3616900D01*
X3786420D01*
Y3791040D01*
X3616060D01*
Y3616900D01*
X3593400D01*
X3511980Y3535480D01*
X3484560D01*
Y3631800D01*
X3491770Y3639010D01*
Y3658140D01*
X3498960D01*
Y3686200D01*
X3532770Y3720010D01*
Y3772000D01*
G03X3457400Y3837930I-25532J46858D01*
G01X3446320D01*
G02X3436170Y3847710I2J10159D01*
G03X3384860Y3889250I-43808J-1652D01*
G03X3383620Y3893650I-31119J-6395D01*
G01X3383320Y3894490D01*
Y3932140D01*
G02X3393650Y3942290I10158J-7D01*
G03X3385180Y4004520I548J31766D01*
G02X3372130Y4014260I-2889J9741D01*
G01Y4024470D01*
X3378490D01*
X3379610Y4023870D01*
G03X3420640Y4033600I15031J27990D01*
G02X3437780Y4032800I8316J-5836D01*
G03X3462380Y4016900I27604J15728D01*
G01X3466980Y4011850D01*
Y3946600D01*
X3519500D01*
Y3976150D01*
X3521100Y3977750D01*
G02X3529770Y3974160I3590J-3593D01*
G01Y3939260D01*
X3619990Y3849040D01*
X3785090D01*
X3882980Y3751150D01*
X3881080Y3747790D01*
G03X4015430Y3645580I74158J-41926D01*
G02X4032770Y3638390I7179J-7192D01*
G01Y3519330D01*
G02X4015430Y3512140I-10161J2D01*
G03Y3391580I-60190J-60280D01*
G02X4032770Y3384390I7179J-7192D01*
G01Y3298770D01*
X4002710Y3268710D01*
X3999310Y3270770D01*
G03X4026020Y3245270I-44074J-72905D01*
G01X4039170Y3258410D01*
G02X4056510Y3251230I7181J-7186D01*
G01Y1736540D01*
G02X4037980Y1730780I-10160J0D01*
G03Y1616940I-82740J-56920D01*
G02X4056510Y1611180I8370J-5760D01*
G01Y1276030D01*
X4056230Y1275750D01*
X4056190Y787390D01*
Y787380D01*
X4056120Y19030D01*
X2711310D01*
G02X2704130Y36370I6J10159D01*
G01X2722930Y55180D01*
G02X2738570Y53630I7185J-7186D01*
G03X2789710Y54250I25368J16931D01*
G02X2805380Y56090I8582J-5439D01*
G03X2857140Y77520I21262J21869D01*
G01X2857210Y82530D01*
X2899010D01*
X2934180Y117700D01*
Y296320D01*
X2898830Y331670D01*
G02X2902420Y340340I3592J3591D01*
G01X2905360D01*
X2934180Y369160D01*
Y514760D01*
X2895200Y553740D01*
X2875580D01*
G03X2821140Y608100I-86839J-32526D01*
G02X2815230Y621320I3552J9519D01*
G03X2803370Y658090I-28391J11140D01*
G01Y698540D01*
X2794220Y707690D01*
G02X2801400Y725040I7180J7189D01*
G01X2832380D01*
G03X2840670Y726610I-7J22710D01*
G02X2847290Y723670I1863J-4729D01*
G03X2898690Y754590I28553J10717D01*
G02X2898570Y767920I7608J6734D01*
G03X2905400Y782360I-23193J19805D01*
G01X2906150Y786540D01*
X2918110D01*
Y676610D01*
X2979390Y615330D01*
Y434780D01*
G03X2969390Y394100I16529J-25632D01*
G02X2966080Y380550I-8832J-5022D01*
G03X3023510Y378370I27162J-41990D01*
G02X3021230Y392130I6148J8088D01*
G03X3012450Y434780I-25310J17018D01*
G01Y629030D01*
X2951170Y690310D01*
Y786540D01*
X3022360D01*
Y787380D01*
X3045240D01*
Y787390D01*
X3046990Y787590D01*
G03X3017480Y833980I-3608J30286D01*
G01X2934300D01*
X2926920Y841370D01*
G02X2930510Y850040I3593J3591D01*
G01X2962360D01*
Y897480D01*
X2903530D01*
X2902460Y901120D01*
G03X2901850Y902970I-29256J-8621D01*
G02X2911390Y916620I9541J3490D01*
G01X2966430D01*
X2993170Y943360D01*
Y950650D01*
G02X3001840Y954240I5079J-2D01*
G01X3083980Y872110D01*
X3084340Y870840D01*
G03X3148280Y806890I89220J25266D01*
G01X3149550Y806530D01*
X3153460Y802620D01*
X3314300D01*
X3353280Y841600D01*
Y1010060D01*
X3324280Y1039060D01*
G02X3318980Y1056220I1886J9981D01*
G01X3345660Y1082900D01*
Y1145370D01*
X3345690Y1145660D01*
G03Y1166760I-92125J10550D01*
G01X3345660Y1167050D01*
Y1383440D01*
X3319380Y1409720D01*
X3313120D01*
Y1411500D01*
X3207680D01*
Y1409720D01*
X3112820D01*
X3093190Y1390090D01*
Y1313890D01*
X3092890Y1313590D01*
Y1305970D01*
X3082100Y1295180D01*
Y1286720D01*
X3081680Y1285750D01*
G03Y1259330I30280J-13210D01*
G01X3082100Y1258360D01*
Y1248590D01*
X3070510Y1237000D01*
X3009110D01*
Y1503250D01*
X3016250Y1510400D01*
G02X3033500Y1504590I7183J-7185D01*
G03X3098270Y1517170I32736J4483D01*
G02X3104840Y1529280I9850J2493D01*
G01Y1645180D01*
X3080620D01*
X2980010Y1745790D01*
X2979620Y1746800D01*
G03X2924800Y1751210I-28468J-10942D01*
G02X2908830Y1749140I-8782J5115D01*
G01X2882500Y1775480D01*
X2741140D01*
Y1780560D01*
G03X2689680Y1802700I-30501J-19D01*
G02X2675720I-6980J7379D01*
G03X2629730Y1763120I-20955J-22161D01*
G01X2632150Y1759630D01*
X2620780Y1748260D01*
G02X2612110Y1751850I-3591J3592D01*
G01Y1919730D01*
G02X2625310Y1929420I10160J-5D01*
G03X2638240Y1928260I9128J29101D01*
G02X2649660Y1918180I1260J-10082D01*
G01Y1860580D01*
X2673840Y1836400D01*
X2981120D01*
X3025620Y1880900D01*
Y2160240D01*
X3025110Y2160750D01*
Y2169460D01*
X3016400D01*
X2998900Y2186960D01*
X2719500D01*
X2696640Y2209820D01*
X2653460D01*
X2620440Y2242840D01*
X2557000D01*
X2548560Y2234400D01*
X2431870Y2351110D01*
X2343860D01*
G03X2291100Y2322480I-23797J-19074D01*
G02X2284840Y2309730I-9650J-3174D01*
G03X2324000Y2290540I10195J-28747D01*
G02X2330260Y2303290I9650J3174D01*
G03X2343860Y2312970I-10212J28741D01*
G01X2416070D01*
X2515550Y2213480D01*
Y2078040D01*
G02X2498210Y2070860I-10159J6D01*
G01X2491840Y2077230D01*
Y2141500D01*
X2326440D01*
Y1996160D01*
X2492690D01*
Y1820920D01*
X2481540Y1809770D01*
X2332870D01*
X2308510Y1785410D01*
Y1778860D01*
X2297320D01*
Y1750800D01*
X2290400Y1743880D01*
G02X2273060Y1751060I-7181J7186D01*
G01Y1778860D01*
X2261870D01*
Y1836140D01*
X2271880D01*
Y1981480D01*
X2131900D01*
G02X2121750Y1991880I5J10158D01*
G03X2097080Y2022570I-30491J751D01*
G01X2092970Y2023370D01*
Y2104320D01*
X2124300Y2135630D01*
X2127690Y2133620D01*
G03X2162290Y2136040I15549J26240D01*
G02X2174990I6350J-7930D01*
G03X2223170Y2150830I19048J23820D01*
G02X2235610Y2157600I9702J-3014D01*
G03X2254650Y2215490I8200J29379D01*
G02X2249260Y2229700I3607J9495D01*
G03X2211400Y2215350I-27016J14160D01*
G02X2216790Y2201140I-3607J-9495D01*
G03X2214680Y2196010I27036J-14119D01*
G02X2202240Y2189240I-9702J3014D01*
G03X2174990Y2183680I-8198J-29379D01*
G02X2162290I-6350J7930D01*
G03X2116880Y2175210I-19052J-23819D01*
G01X2116550Y2174640D01*
X2059910Y2118020D01*
Y2040360D01*
X2035060Y2015510D01*
X1566390D01*
Y2041670D01*
X1481010D01*
Y1969030D01*
X1466310D01*
Y2041670D01*
X1388260D01*
G02X1378150Y2050890I6J10160D01*
G03X1343910Y2078330I-30369J-2812D01*
G02X1333070Y2091890I-1294J10078D01*
G03X1333690Y2110920I-28650J10459D01*
G02X1343440Y2123940I9749J2860D01*
G01X1526460D01*
Y2159180D01*
X1569160Y2201880D01*
X1615410D01*
Y2204700D01*
X1626550D01*
Y2201880D01*
X1711930D01*
Y2204700D01*
X1723070D01*
Y2201880D01*
X1808450D01*
Y2204700D01*
X1819590D01*
Y2201880D01*
X1904970D01*
Y2204700D01*
X1912200D01*
X1918900Y2198000D01*
Y2186440D01*
X2034260D01*
Y2189480D01*
X2067180D01*
X2078200Y2200500D01*
Y2221640D01*
X2075660Y2224180D01*
Y2246220D01*
X2079860Y2250420D01*
X2123040D01*
X2134080Y2261460D01*
Y2328320D01*
X2125580Y2336820D01*
X2053640D01*
X2051100Y2334280D01*
X1526460D01*
Y2352380D01*
X1485100D01*
X1475130Y2362350D01*
Y2477390D01*
X1470870Y2481650D01*
Y2481660D01*
X1423470Y2529050D01*
G02X1428080Y2546060I7187J7182D01*
G03X1428400Y2546150I-8098J29405D01*
G01X1429060Y2546330D01*
X1654150D01*
X1759810Y2651990D01*
Y2664480D01*
G03X1759480Y2668850I-29231J-10D01*
G01X1759090Y2671390D01*
X1775680Y2687980D01*
X1778190Y2687630D01*
G03X1798030Y2695050I3067J22033D01*
G02X1813040Y2695410I7669J-6666D01*
G03X1849080Y2694990I18226J17431D01*
G02X1863440I7180J-7184D01*
G03X1899080I17820J17850D01*
G02X1913440I7180J-7184D01*
G03X1949080I17820J17850D01*
G02X1963440I7180J-7184D01*
G03X1999080I17820J17850D01*
G02X2013440I7180J-7184D01*
G03X2049080I17820J17850D01*
G02X2063440I7180J-7184D01*
G03X2099080I17820J17850D01*
G02X2113440I7180J-7184D01*
G03X2149080I17820J17850D01*
G02X2163440I7180J-7184D01*
G03X2199080I17820J17850D01*
G02X2213440I7180J-7184D01*
G03X2249480Y2695410I17814J17851D01*
G02X2263490Y2696050I7341J-7026D01*
G03X2278070Y2690600I14586J16794D01*
G01X2284440D01*
G03X2298590Y2730000I-7J22243D01*
G02Y2745680I6462J7840D01*
G03X2299050Y2779610I-14155J17160D01*
G02X2298690Y2794620I6666J7669D01*
G03X2281480Y2838060I-17433J18222D01*
G01X2279400Y2838080D01*
X2256420Y2861060D01*
G03Y2864620I-25160J1780D01*
G01X2279400Y2887600D01*
X2281480Y2887620D01*
G03X2256040Y2913060I-220J25220D01*
G01X2256020Y2910980D01*
X2233120Y2888080D01*
X2231040Y2888060D01*
G03X2212210Y2879370I219J-25220D01*
G01X2200310D01*
G03X2195510Y2883650I-19048J-16531D01*
G01X2193300Y2887840D01*
X2195510Y2892030D01*
G03X2199110Y2930660I-14249J20811D01*
G02Y2945020I7184J7180D01*
G03X2202070Y2948590I-17853J17815D01*
G01X2206260Y2950800D01*
X2210450Y2948590D01*
G03X2249110Y2980660I20806J14256D01*
G02Y2995020I7184J7180D01*
G03X2252070Y2998590I-17853J17815D01*
G01X2256260Y3000800D01*
X2260450Y2998590D01*
G03X2299110Y3030660I20806J14256D01*
G02Y3045020I7184J7180D01*
G03Y3080660I-17850J17820D01*
G02Y3095020I7184J7180D01*
G03Y3130660I-17850J17820D01*
G02Y3145020I7184J7180D01*
G03X2304130Y3152200I-17847J17823D01*
G02X2317410Y3157220I9209J-4287D01*
G03X2318740Y3213650I12229J27942D01*
G02X2305390Y3220180I-3632J9486D01*
G03X2304730Y3222060I-24107J-7407D01*
G02X2305380Y3230840I9456J3714D01*
G01X2445680D01*
G03X2465070I9695J36869D01*
G01X2478210D01*
X2502400Y3255030D01*
Y3413610D01*
X2572230Y3483440D01*
X2752020D01*
Y3466300D01*
X2872460D01*
Y3497470D01*
X2893090Y3518110D01*
G03X2896460Y3521950I-26900J27007D01*
G02X2912470Y3522130I8075J-6161D01*
G03X2927580Y3508300I51620J41228D01*
G02X2929150Y3492650I-5612J-8467D01*
G01X2882030Y3445530D01*
X2859800D01*
Y3452720D01*
X2739280D01*
Y3445530D01*
X2665140D01*
X2591570Y3371960D01*
Y3280160D01*
X2510340Y3198930D01*
X2438660D01*
X2399720Y3159990D01*
G02X2386290Y3151660I-10080J1260D01*
G03Y3094060I-10050J-28800D01*
G02X2399800Y3084470I3351J-9590D01*
G01Y2828580D01*
X2563890Y2664490D01*
G37*
G36*
G01X1542240Y2214880D02*
X1824180D01*
X1916420D01*
X1931640Y2199660D01*
X2062960D01*
X2068020Y2204720D01*
Y2217420D01*
X2065480Y2219960D01*
Y2250440D01*
X2075640Y2260600D01*
X2118820D01*
X2123900Y2265680D01*
Y2324100D01*
X2121360Y2326640D01*
X2057860D01*
X2055320Y2324100D01*
X2037540D01*
X1986740D01*
X1542240D01*
Y2214880D01*
G37*
G36*
G01X1941240Y3802860D02*
X1979240Y3764860D01*
Y3683860D01*
X1910240Y3614860D01*
X1586240D01*
X1565240Y3635860D01*
Y3726860D01*
X1583240Y3744860D01*
X1710240D01*
X1768240Y3802860D01*
X1941240D01*
G37*
G36*
G01X2209800Y3924300D02*
X2199190Y3913690D01*
X2196680Y3914030D01*
G03X2180340Y3911980I-4350J-31471D01*
G01X2179420Y3911600D01*
X2171700D01*
X2159000Y3898900D01*
X2062880D01*
G03X2018140I-22370J-22560D01*
G01X1986820D01*
X1986260Y3903340D01*
G03X1923220I-31520J-3980D01*
G01X1922660Y3898900D01*
X1852990D01*
G03X1805450I-23770J-21080D01*
G01X1689100D01*
X1645130Y3942870D01*
Y3964940D01*
G03X1638300Y3988980I-45739J-5D01*
G01Y4025900D01*
X1663920Y4051520D01*
X1667500Y4048220D01*
G03X1718860Y4051600I24066J26208D01*
G02X1725440Y4052650I3894J-3261D01*
G03X1778430Y4073020I18798J30209D01*
G01X1779490Y4076700D01*
X1917700D01*
X2019300Y3975100D01*
X2197100D01*
X2209800Y3962400D01*
Y3924300D01*
G37*
G36*
G01X1366840Y4838660D02*
X1346840D01*
Y4818660D01*
X1366840D01*
Y4838660D01*
G37*
G36*
G01X1286840D02*
X1266840D01*
Y4818660D01*
X1286840D01*
Y4838660D01*
G37*
G36*
G01X1531240Y4609460D02*
X1796240D01*
Y4628460D01*
Y4632960D01*
Y4772660D01*
X1872440D01*
Y4785360D01*
Y4791860D01*
X1797240D01*
X1544240D01*
Y4798060D01*
Y4886960D01*
X1542240D01*
X1533240D01*
X1531240D01*
Y4796860D01*
Y4609460D01*
G37*
G36*
G01X2119820Y946550D02*
G03X2120760Y946300I9614J34258D01*
G01X2144220Y922850D01*
Y873760D01*
X2106500Y836040D01*
X2106200Y835820D01*
G03X2102950Y833120I22697J-30626D01*
G01X2045160D01*
X2032460Y845820D01*
Y881380D01*
X2022300Y891540D01*
Y939800D01*
X1986740Y975360D01*
X1923240D01*
X1910540Y988060D01*
Y1059600D01*
G02X1915330Y1064680I5081J7D01*
G03X1940270Y1076960I-1997J35522D01*
G01X1998890D01*
G03X2002180Y1074220I21115J22008D01*
G01X2012140Y1064260D01*
X2050240D01*
X2075640Y1038860D01*
Y1031190D01*
G03X2076640Y969940I18601J-30329D01*
G01X2100030Y946550D01*
X2119820D01*
G37*
G36*
G01X1752070Y2827090D02*
G03X1713440Y2830690I-20811J-14249D01*
G02X1699080I-7180J7184D01*
G03X1695510Y2833650I-17815J-17853D01*
G02Y2842030I2870J4190D01*
G03X1699110Y2880660I-14249J20811D01*
G02Y2895020I7184J7180D01*
G03X1702070Y2898590I-17853J17815D01*
G02X1710450I4190J-2870D01*
G03X1745510Y2933650I20810J14250D01*
G02Y2942030I2870J4190D01*
G03X1750310Y2946310I-14248J20811D01*
G01X1760080D01*
X1761350Y2945460D01*
G03X1796340Y2946310I16888J25399D01*
G01X1812210D01*
G03X1817010Y2942030I19048J16531D01*
G02Y2933650I-2870J-4190D01*
G03X1849080Y2894990I14256J-20806D01*
G02X1863440I7180J-7184D01*
G03X1895870Y2933400I17813J17856D01*
G02X1894560Y2948870I5877J8288D01*
G01X2031780Y3086090D01*
X2033530Y3086290D01*
G03X2043790Y3089410I-3606J30289D01*
G01X2044870Y3089970D01*
X2070580D01*
X2071520Y3089580D01*
G03X2099110Y3130660I9741J23263D01*
G02Y3145020I7184J7180D01*
G03X2063440Y3180690I-17850J17820D01*
G02X2049080I-7180J7184D01*
G03X2008000Y3153100I-17817J-17849D01*
G01X2008390Y3152160D01*
Y3138180D01*
G03X1999630Y3120190I21525J-21609D01*
G01X1999430Y3118440D01*
X1866690Y2985710D01*
X1841940D01*
X1841000Y2986100D01*
G03X1817860Y2984210I-9747J-23260D01*
G02X1803910Y2987330I-5399J8605D01*
G03X1769440Y3000060I-25669J-16471D01*
G02X1756390Y3010670I-2929J9728D01*
G03X1749110Y3030660I-25129J2169D01*
G02Y3045020I7184J7180D01*
G03Y3080660I-17850J17820D01*
G02Y3095020I7184J7180D01*
G03X1756440Y3114270I-17850J17818D01*
G02X1768620Y3124800I10143J577D01*
G03X1803550Y3144680I6117J29879D01*
G02X1812190Y3146330I4797J-1672D01*
G03X1813410Y3145020I19056J16524D01*
G02Y3130660I-7184J-7180D01*
G03Y3095020I17850J-17820D01*
G02Y3080660I-7184J-7180D01*
G03X1849110I17850J-17820D01*
G02Y3095020I7184J7180D01*
G03Y3130660I-17850J17820D01*
G02Y3145020I7184J7180D01*
G03X1852070Y3148590I-17853J17815D01*
G02X1860450I4190J-2870D01*
G03X1899080Y3144990I20811J14249D01*
G02X1913440I7180J-7184D01*
G03Y3180690I17820J17850D01*
G02X1899080I-7180J7184D01*
G03X1895830Y3183420I-17788J-17877D01*
G02X1892470Y3195950I5873J8290D01*
G03X1890870Y3224390I-27729J12705D01*
G02X1894670Y3238530I8702J5242D01*
G03X1899560Y3241970I-13434J24293D01*
G02X1912960I6700J-7641D01*
G03X1949560I18300J20870D01*
G02X1962960I6700J-7641D01*
G03X1999560I18300J20870D01*
G02X2012960I6700J-7641D01*
G03X2049560I18300J20870D01*
G02X2062960I6700J-7641D01*
G03X2099560I18300J20870D01*
G02X2112960I6700J-7641D01*
G03X2149560I18300J20870D01*
G02X2162960I6700J-7641D01*
G03X2164980Y3240350I18359J20823D01*
G02X2165230Y3232310I-2974J-4116D01*
G03X2163410Y3195020I16029J-19472D01*
G02Y3180660I-7184J-7180D01*
G03Y3145020I17850J-17820D01*
G02Y3130660I-7184J-7180D01*
G03Y3095020I17850J-17820D01*
G02Y3080660I-7184J-7180D01*
G03X2157710Y3071870I17850J-17818D01*
G02X2142150Y3067360I-9487J3633D01*
G03X2093650Y3046840I-18251J-24439D01*
G02X2082910Y3038010I-10073J1305D01*
G03X2106070Y3008320I-1652J-25167D01*
G01X2106360Y3009880D01*
X2111070Y3014590D01*
X2119690Y3005970D01*
G02X2116630Y2989510I-7187J-7178D01*
G03X2118160Y2933140I12397J-27869D01*
G02X2118050Y2923610I-1810J-4745D01*
G03X2115430Y2922540I10210J-28742D01*
G02X2102570Y2926320I-4276J9217D01*
G03X2080650Y2938050I-21312J-13480D01*
G01X2078480Y2938000D01*
X2050140Y2966340D01*
X2050470Y2968830D01*
G03X2008150Y2944860I-30231J4031D01*
G02X2011910Y2929020I-4034J-9324D01*
G03X2010450Y2927090I19362J-16164D01*
G02X2002070I-4190J2870D01*
G03X1999080Y2894990I-20809J-14251D01*
G02X2013440I7180J-7184D01*
G03X2049080I17820J17850D01*
G02X2063440I7180J-7184D01*
G03X2088120Y2888570I17818J17850D01*
G02X2100220Y2882810I2768J-9775D01*
G03X2133420Y2864800I28021J12048D01*
G01X2135900Y2865230D01*
X2156320Y2846310D01*
X2162210D01*
G03X2167010Y2842030I19048J16531D01*
G02Y2833650I-2870J-4190D01*
G03X2163440Y2830690I14245J-20813D01*
G02X2149080I-7180J7184D01*
G03X2113440I-17820J-17850D01*
G02X2099080I-7180J7184D01*
G03X2063440I-17820J-17850D01*
G02X2049080I-7180J7184D01*
G03X2013440I-17820J-17850D01*
G02X1999080I-7180J7184D01*
G03X1963440I-17820J-17850D01*
G02X1949080I-7180J7184D01*
G03X1913440I-17820J-17850D01*
G02X1899080I-7180J7184D01*
G03X1863440I-17820J-17850D01*
G02X1849080I-7180J7184D01*
G03X1813440I-17820J-17850D01*
G02X1799080I-7180J7184D01*
G03X1795510Y2833650I-17815J-17853D01*
G02Y2842030I2870J4190D01*
G03X1763410Y2845020I-14251J20809D01*
G02Y2830660I-7184J-7180D01*
G03X1760450Y2827090I17853J-17815D01*
G02X1752070I-4190J2870D01*
G37*
G36*
G01X1976000Y4759000D02*
X1963000Y4746000D01*
Y4730000D01*
X1970000Y4723000D01*
Y4686000D01*
X1980000Y4676000D01*
X2004000D01*
X2012860Y4684860D01*
X2021240D01*
X2035240D01*
X2040240Y4689860D01*
Y4711860D01*
X2041240Y4712860D01*
X2051240Y4722860D01*
X2053240Y4724860D01*
X2080240D01*
Y4748860D01*
X2018240D01*
X2017240Y4749860D01*
X2008100Y4759000D01*
X1976000D01*
G37*
G36*
G01X1766840Y4838660D02*
X1746840D01*
Y4818660D01*
X1766840D01*
Y4838660D01*
G37*
G36*
G01X1732740Y4823460D02*
Y4899660D01*
X1758140D01*
X1808940D01*
Y4988560D01*
X1892300D01*
Y4894120D01*
Y4874700D01*
X2008000Y4759000D01*
Y4725000D01*
X1976000D01*
X1970460D01*
X1872000Y4823460D01*
X1821640D01*
X1796240D01*
X1783540D01*
X1732740D01*
G37*
G36*
G01X2113240Y4707860D02*
X2120240Y4700860D01*
Y4681860D01*
X2121240Y4680860D01*
X2132240Y4669860D01*
X2134240Y4667860D01*
X2179240D01*
X2180240Y4666860D01*
X2211740Y4635360D01*
Y4589360D01*
X2196240Y4573860D01*
X2181240D01*
X2169240Y4585860D01*
Y4602860D01*
X2174240Y4607860D01*
Y4626860D01*
X2169240Y4631860D01*
X2157240Y4643860D01*
X2023240D01*
X2016240Y4650860D01*
Y4661860D01*
X2023240Y4668860D01*
X2046240D01*
X2055240Y4677860D01*
X2056240Y4678860D01*
Y4701860D01*
X2062240Y4707860D01*
X2113240D01*
G37*
G36*
G01X1686840Y4838660D02*
X1666840D01*
Y4818660D01*
X1686840D01*
Y4838660D01*
G37*
G36*
G01X1656540Y4988560D02*
X1758140D01*
Y4925060D01*
X1707340D01*
X1702240D01*
Y4823460D01*
X1656540D01*
X1651240D01*
Y4881660D01*
X1657240Y4887660D01*
Y4901860D01*
Y4944860D01*
X1656540D01*
Y4988560D01*
G37*
G36*
G01X1986040Y5585850D02*
X1961620Y5610270D01*
X1961600Y5612340D01*
G03X1918930Y5639990I-30500J-318D01*
G02X1904720Y5649300I-4051J9316D01*
G01Y5666420D01*
X1853920D01*
Y6016170D01*
X2448270D01*
Y5812970D01*
X2450820D01*
Y5666420D01*
X2412720D01*
Y5612470D01*
G02X2395380Y5605290I-10159J5D01*
G01X2382290Y5618380D01*
X2201700D01*
X2180370Y5639710D01*
X2180740Y5642230D01*
G03X2180610Y5650120I-23960J3551D01*
G02X2192430Y5661940I9991J1829D01*
G03X2214480Y5669240I4345J23828D01*
G01X2241750D01*
X2245940Y5673430D01*
X2247610Y5673670D01*
G03X2248870Y5733830I-4371J30185D01*
G02X2241130Y5747080I1883J9985D01*
G03X2241080Y5766770I-28891J9772D01*
G02X2250690Y5780240I9610J3307D01*
G01X2298420D01*
Y5885680D01*
X2183060D01*
Y5821870D01*
X2163300Y5802110D01*
X2160810Y5802440D01*
G03X2136390Y5794890I-4031J-30231D01*
G02X2122410Y5795260I-6795J7556D01*
G01X2120660Y5797020D01*
Y5825080D01*
X2116520D01*
Y5834220D01*
X2120480Y5835110D01*
G03X2083510Y5860830I-6737J29747D01*
G01X2083840Y5858340D01*
X2076410Y5850910D01*
Y5825080D01*
X2065220D01*
Y5777640D01*
X2093280D01*
X2100250Y5770670D01*
Y5743470D01*
G03X2093550Y5732630I16527J-17705D01*
G01X2092480Y5728990D01*
X2062140D01*
X2038440Y5705290D01*
X2035950Y5705620D01*
G03X2026070Y5645460I-4030J-30229D01*
G02X2031300Y5628300I-1950J-9971D01*
G01X1994710Y5591710D01*
Y5589440D01*
G02X1986040Y5585850I-5079J1D01*
G37*
G36*
G01X2163270Y95250D02*
X2144490Y114030D01*
Y182450D01*
G02X2149420Y187520I5079J-6D01*
G03X2144710Y248270I-914J30487D01*
G02X2133290Y258350I-1260J10082D01*
G01Y272530D01*
G03X2131520Y333080I-19549J29729D01*
G01Y497890D01*
G02X2141120Y508030I10158J-3D01*
G03Y579090I-1980J35530D01*
G02X2131520Y589230I558J10143D01*
G01Y594360D01*
X2148030Y610870D01*
X2295350D01*
X2304240Y619760D01*
X2308370D01*
X2309660Y618890D01*
G03X2335040I12690J18840D01*
G01X2336330Y619760D01*
X2348380D01*
X2349670Y618890D01*
G03X2358140Y615410I12690J18840D01*
G01X2359680Y615120D01*
X2365200Y609600D01*
Y594360D01*
X2311860Y541020D01*
Y514880D01*
X2290060D01*
Y409440D01*
X2311860D01*
Y374880D01*
X2290060D01*
Y269440D01*
X2311860D01*
Y269240D01*
X2317270Y263830D01*
X2317240Y261700D01*
G03X2348080Y230860I30500J-340D01*
G01X2350210Y230890D01*
X2357580Y223520D01*
X2390600D01*
X2400760Y213360D01*
Y109220D01*
X2386790Y95250D01*
X2163270D01*
G37*
G36*
G01X2403990Y224530D02*
X2394820Y233700D01*
X2385030D01*
X2384110Y234080D01*
G03X2358930Y238770I-23983J-58820D01*
G01X2356770Y238730D01*
X2322040Y273460D01*
Y409440D01*
X2411660D01*
Y232200D01*
X2403990Y224530D01*
G37*
G36*
G01X2337280Y421640D02*
Y530490D01*
X2381240Y574450D01*
X2407050D01*
G03X2408590Y572400I29198J20331D01*
G01X2409720Y571000D01*
X2409710Y541680D01*
X2406580Y538560D01*
Y421640D01*
X2337280D01*
G37*
G36*
G01X2218280Y684270D02*
G02X2208700Y697810I2J10160D01*
G03X2209760Y701560I-28759J10154D01*
G01X2210080Y703030D01*
X2218890Y711840D01*
Y725040D01*
X2232370D01*
G03X2250400Y761560I0J22711D01*
G02Y773920I8069J6180D01*
G03Y801550I-18030J13815D01*
G02Y813920I8057J6185D01*
G03Y841560I-18030J13820D01*
G02Y853920I8061J6180D01*
G03Y881560I-18030J13820D01*
G02Y893930I8057J6185D01*
G03Y921570I-18030J13820D01*
G02Y933930I8061J6180D01*
G03Y961560I-18030J13815D01*
G02Y973920I8069J6180D01*
G03Y1001550I-18030J13815D01*
G02Y1013910I8061J6180D01*
G03Y1041550I-18030J13820D01*
G02Y1053920I8057J6185D01*
G03Y1081560I-18030J13820D01*
G02Y1093920I8061J6180D01*
G03X2249570Y1122580I-18029J13820D01*
G02X2249890Y1129560I3843J3321D01*
G03X2251370Y1164390I-17520J18191D01*
G02Y1171090I3817J3350D01*
G03X2232370Y1212980I-19000J16636D01*
G01X2172350D01*
G03X2170880Y1212940I-48J-25251D01*
G01X2168610Y1212810D01*
X2156940Y1224480D01*
Y1342180D01*
X2160530Y1343280D01*
G03X2172050Y1349650I-9280J30385D01*
G02X2185120Y1349850I6654J-7675D01*
G03X2216410Y1344770I20058J24640D01*
G02X2229020Y1339930I3586J-9505D01*
G03X2258090Y1322750I28228J14580D01*
G02X2263300Y1317670I131J-5078D01*
G01Y1314400D01*
X2262260Y1313030D01*
G03X2257120Y1297750I20113J-15270D01*
G01Y1237730D01*
G03X2299010Y1218730I25254J0D01*
G02X2305710I3350J-3817D01*
G03X2340540Y1220210I16639J19000D01*
G02X2347520Y1220530I3659J-3523D01*
G03X2377200I14840J17200D01*
G02X2384170Y1220210I3316J-3847D01*
G03X2419010Y1218750I18185J17522D01*
G02X2425720I3355J-3824D01*
G03X2459020Y1218740I16656J18981D01*
G02X2465720I3350J-3818D01*
G03X2499010Y1218730I16651J18990D01*
G02X2505710I3350J-3817D01*
G03X2539000Y1218740I16639J19000D01*
G02X2545700I3350J-3818D01*
G03X2580540Y1220210I16650J18990D01*
G02X2587520Y1220530I3659J-3523D01*
G03X2616180Y1219700I14840J17199D01*
G02X2628540I6180J-8061D01*
G03X2656180I13820J18030D01*
G02X2668550I6185J-8057D01*
G03X2696180I13815J18030D01*
G02X2708540I6180J-8069D01*
G03X2745060Y1237730I13809J18030D01*
G01Y1297750D01*
G03X2744960Y1299960I-22714J79D01*
G01X2744930Y1300210D01*
Y1305540D01*
X2765660D01*
X2819880Y1359760D01*
Y1464720D01*
X2812740Y1471850D01*
Y1488420D01*
X2890120D01*
X2929100Y1527400D01*
Y1576390D01*
G02X2940960Y1586410I10159J4D01*
G03X2947760Y1646930I5116J30067D01*
G02X2938330Y1658930I560J10146D01*
G03X2939860Y1678460I-91164J16967D01*
G02X2957200Y1685920I10155J278D01*
G01X2999400Y1643730D01*
Y1576210D01*
X2950650Y1527470D01*
Y1254910D01*
X2935280Y1239540D01*
X2884630D01*
G03X2865000Y1231970I0J-29237D01*
G01X2863550Y1230650D01*
X2859410D01*
X2838520Y1209750D01*
X2835960Y1210160D01*
G03X2832370Y1210440I-3556J-22433D01*
G01X2772350D01*
G03X2754320Y1173920I0J-22711D01*
G02Y1161560I-8069J-6180D01*
G03Y1133930I18030J-13815D01*
G02Y1121560I-8057J-6185D01*
G03Y1093920I18030J-13820D01*
G02Y1081560I-8061J-6180D01*
G03Y1053920I18030J-13820D01*
G02Y1041550I-8057J-6185D01*
G03Y1013910I18030J-13820D01*
G02Y1001550I-8061J-6180D01*
G03Y973920I18030J-13815D01*
G02Y961560I-8069J-6180D01*
G03Y933930I18030J-13815D01*
G02Y921570I-8061J-6180D01*
G03Y893930I18030J-13820D01*
G02Y881560I-8057J-6185D01*
G03Y853920I18030J-13820D01*
G02Y841560I-8061J-6180D01*
G03Y813920I18030J-13820D01*
G02Y801550I-8057J-6185D01*
G03Y773920I18030J-13815D01*
G02Y761560I-8069J-6180D01*
G03X2752770Y736230I18030J-13816D01*
G02X2744020Y720920I-8756J-5151D01*
G01X2738560D01*
G02X2728990Y734470I6J10159D01*
G03X2669740Y744790I-28749J10187D01*
G01X2669730Y742700D01*
X2665840Y738810D01*
Y727810D01*
G02X2651560Y718520I-10159J-4D01*
G03X2628540Y715780I-9201J-20769D01*
G02X2616180I-6180J8061D01*
G03X2588540I-13820J-18030D01*
G02X2576170I-6185J8057D01*
G03X2548530I-13820J-18030D01*
G02X2536170I-6180J8061D01*
G03X2508540I-13815J-18030D01*
G02X2496180I-6180J8069D01*
G03X2468550I-13815J-18030D01*
G02X2456190I-6180J8061D01*
G03X2428550I-13820J-18030D01*
G02X2416180I-6185J8057D01*
G03X2388540I-13820J-18030D01*
G02X2376180I-6180J8061D01*
G03X2348540I-13820J-18030D01*
G02X2336170I-6185J8057D01*
G03X2308540I-13815J-18030D01*
G02X2296180I-6180J8069D01*
G03X2259660Y697750I-13809J-18030D01*
G01Y684270D01*
X2218280D01*
G37*
G36*
G01X2357580Y1328420D02*
X2343960Y1342040D01*
Y1400540D01*
X2321530Y1422970D01*
Y1503190D01*
X2334720Y1516380D01*
X2400760D01*
X2410390Y1506750D01*
Y1415980D01*
X2420760Y1405620D01*
Y1343340D01*
X2405840Y1328420D01*
X2357580D01*
G37*
G36*
G01X2135740Y1496330D02*
X2116030Y1516040D01*
G02X2110350Y1533270I1505J10047D01*
G01X2114270Y1537190D01*
Y1620410D01*
X2090900Y1643780D01*
Y1786910D01*
X2043770Y1834040D01*
Y1840030D01*
G02X2051620Y1844290I5081J0D01*
G03X2089310Y1847810I16621J25571D01*
G02X2106480Y1840460I7011J-7351D01*
G01Y1836140D01*
X2228810D01*
Y1778860D01*
X2217620D01*
Y1724090D01*
G03X2262990Y1684020I25181J-17209D01*
G02X2276430I6720J-7621D01*
G03X2322290Y1723360I20195J22858D01*
G01X2320080Y1726800D01*
X2324700Y1731420D01*
X2352760D01*
Y1776710D01*
X2474970D01*
G02X2482160Y1759370I3J-10159D01*
G01X2412930Y1690140D01*
Y1534660D01*
X2318990D01*
Y1607340D01*
X2273060Y1653270D01*
Y1659480D01*
X2217620D01*
Y1612040D01*
X2260350D01*
X2280850Y1591540D01*
Y1496330D01*
X2135740D01*
G37*
G36*
G01X2103240Y4748860D02*
X2164240D01*
X2173240Y4757860D01*
X2176240Y4760860D01*
Y4768860D01*
X2193240Y4785860D01*
X2204240D01*
X2211240Y4778860D01*
Y4777860D01*
Y4727860D01*
X2168240Y4684860D01*
X2142240D01*
X2136240Y4690860D01*
Y4714860D01*
X2135240Y4715860D01*
X2127240Y4723860D01*
X2126240Y4724860D01*
X2102240D01*
X2096240D01*
Y4748860D01*
X2103240D01*
G37*
G36*
G01X2291460Y5449600D02*
Y5451980D01*
X2151460D01*
Y5461980D01*
X2111460D01*
Y5486540D01*
X2291460D01*
Y5492730D01*
X2299890D01*
X2320290Y5513130D01*
X2323820Y5510430D01*
G03X2365640Y5514980I18521J24231D01*
G01X2367160Y5516780D01*
X2374600D01*
Y5502170D01*
X2372900Y5500470D01*
Y5471590D01*
G03X2363590Y5456030I20337J-22733D01*
G01X2362650Y5452140D01*
X2345910D01*
G03X2336380Y5450060I0J-22872D01*
G01X2335370Y5449600D01*
X2291460D01*
G37*
G36*
G01X2516330Y92710D02*
X2497280Y111760D01*
Y205740D01*
X2517600Y226060D01*
X2581100D01*
X2619200Y264160D01*
Y271780D01*
X2670000Y322580D01*
X2893520D01*
X2924000Y292100D01*
Y248790D01*
G02X2913230Y238650I-10160J1D01*
G03X2852070Y181080I-3480J-57575D01*
G01Y138380D01*
X2736220D01*
Y135540D01*
X2678360D01*
Y138080D01*
X2622920D01*
Y93770D01*
G03X2622020Y92710I26667J-23554D01*
G01X2516330D01*
G37*
G36*
G01X2615010Y367200D02*
X2614830Y366540D01*
G03X2630500Y331230I29410J-8080D01*
G02X2634090Y316130I-4584J-9066D01*
G03X2619910Y287750I74641J-55027D01*
G01X2619550Y286520D01*
X2609020Y276000D01*
Y268380D01*
X2576880Y236240D01*
X2555720D01*
X2555040Y236430D01*
G03X2520800I-17120J-61170D01*
G01X2520120Y236240D01*
X2513380D01*
X2508920Y231780D01*
X2508250Y231420D01*
G03X2492610Y219770I29673J-56159D01*
G02X2475200Y226890I-7249J7121D01*
G01Y408440D01*
X2582030D01*
X2615010Y375450D01*
Y367200D01*
G37*
G36*
G01X2924000Y510540D02*
Y373380D01*
X2901140Y350520D01*
X2813340D01*
X2812700Y350690D01*
G03X2793820Y353700I-23961J-89580D01*
G02X2784220Y363760I559J10144D01*
G03X2713060Y363750I-35580J-300D01*
G02X2703480Y353690I-10159J83D01*
G03X2689690Y351860I5269J-92578D01*
G01X2687000Y351300D01*
X2679870Y358430D01*
X2679770Y360370D01*
G03X2678710Y367280I-35529J-1914D01*
G01X2678550Y367900D01*
Y401770D01*
X2642060Y438260D01*
Y571500D01*
X2639540Y574020D01*
Y574410D01*
X2626820Y587130D01*
Y601980D01*
X2634440Y609600D01*
X2672540D01*
X2738580Y543560D01*
X2890980D01*
X2924000Y510540D01*
G37*
G36*
G01X2532840Y553720D02*
Y566420D01*
X2545540Y579120D01*
X2598880D01*
X2614120Y563880D01*
Y436880D01*
X2598880Y421640D01*
X2525220D01*
X2509980Y436880D01*
Y530860D01*
X2532840Y553720D01*
G37*
G36*
G01X2652200Y1359270D02*
Y1323320D01*
X2648620Y1319740D01*
X2646050Y1320160D01*
G03X2633490Y1318660I-3693J-22411D01*
G01X2632540Y1318260D01*
X2626820D01*
X2619200Y1325880D01*
Y1732280D01*
X2636640Y1749720D01*
X2639850Y1748230D01*
G03X2679210Y1754690I14907J32308D01*
G02X2686190I3490J-3689D01*
G03X2742790Y1765300I24449J25850D01*
G01X2878280D01*
X2916730Y1726850D01*
G03X2916840Y1726440I34419J9015D01*
G01Y1719100D01*
X2918920Y1717020D01*
Y1639480D01*
G03Y1593480I27150J-23000D01*
G01Y1531620D01*
X2885900Y1498600D01*
X2807550D01*
X2807530Y1498620D01*
X2728050D01*
X2728030Y1498600D01*
X2703020D01*
X2699210Y1494790D01*
Y1406280D01*
X2652200Y1359270D01*
G37*
G36*
G01X2748710Y1315720D02*
X2736330D01*
X2735040Y1316590D01*
G03X2709660I-12690J-18840D01*
G01X2708370Y1315720D01*
X2696350D01*
X2695060Y1316590D01*
G03X2684760Y1320340I-12692J-18839D01*
G01X2682970Y1320530D01*
X2677620Y1325880D01*
Y1348740D01*
X2725880Y1397000D01*
Y1460500D01*
X2738580Y1473200D01*
X2797000D01*
X2809700Y1460500D01*
Y1363980D01*
X2802480Y1356760D01*
X2798070Y1361160D01*
X2797680Y1362250D01*
G03X2746680Y1324860I-31164J-10969D01*
G01X2748710Y1323340D01*
Y1315720D01*
G37*
G36*
G01X2451070Y1534660D02*
Y1674340D01*
X2553690Y1776960D01*
Y2000170D01*
G02X2562360Y2003760I5080J-4D01*
G01X2566350Y1999770D01*
Y1534660D01*
X2451070D01*
G37*
G36*
G01X2680160Y1851660D02*
X2664920Y1866900D01*
Y1940170D01*
G03X2641200Y1993450I-30481J18350D01*
G01X2639670Y1993750D01*
X2639520Y1993900D01*
X2638220D01*
X2637960Y1993920D01*
G03X2630920I-3520J-35400D01*
G01X2630660Y1993900D01*
X2593800D01*
X2556230Y2031470D01*
Y2220490D01*
X2563320Y2227580D01*
X2614120D01*
X2647140Y2194560D01*
X2690320D01*
X2713180Y2171700D01*
X2992580D01*
X3010360Y2153920D01*
Y1941680D01*
X2994020D01*
Y1870880D01*
X2974800Y1851660D01*
X2956590D01*
X2955680Y1852030D01*
G03X2932960I-11360J-28310D01*
G01X2932050Y1851660D01*
X2680160D01*
G37*
G36*
G01X3111260Y2712590D02*
X3085810Y2738040D01*
Y2774590D01*
X2985760D01*
Y2865250D01*
X2990070Y2865910D01*
G03X3023030Y2952820I-8031J52751D01*
G01X3021850Y2954240D01*
X3021910Y2981690D01*
X3048170D01*
Y3172230D01*
X2957710D01*
Y3146070D01*
X2727330D01*
X2724220Y3142960D01*
X2517490D01*
X2508330Y3152120D01*
G02X2511920Y3160790I3593J3590D01*
G01X2526140D01*
X2629710Y3264360D01*
Y3316370D01*
G02X2644470Y3325430I10161J-1D01*
G03X2673840Y3381770I14368J28335D01*
G02X2671450Y3397910I4797J8957D01*
G01X2680940Y3407390D01*
X2739280D01*
Y3400200D01*
X2799280D01*
Y3349400D01*
X2847940D01*
X2849390Y3346790D01*
G03X2850680Y3344670I27766J15443D01*
G02X2846450Y3336780I-4230J-2811D01*
G01X2787780D01*
Y3308630D01*
X2783460Y3307970D01*
G03Y3245150I4780J-31410D01*
G01X2787780Y3244490D01*
Y3216340D01*
X2898300D01*
Y3221120D01*
X2981610D01*
Y3219820D01*
X3056860D01*
G02X3066650Y3206920I5J-10161D01*
G03X3085870Y3228020I30591J-8562D01*
G02X3072070Y3237510I-3639J9488D01*
G01Y3241460D01*
X3107950Y3277340D01*
X3178500D01*
Y3397780D01*
X3067980D01*
Y3327220D01*
X3051030Y3310280D01*
X2985770D01*
Y3311580D01*
X2898300D01*
Y3338570D01*
G03X2866570Y3392220I-21166J23690D01*
G01X2865750Y3391930D01*
X2859800D01*
Y3407390D01*
X2897830D01*
X2983160Y3492720D01*
Y3500010D01*
X2986520Y3501220D01*
G03X3012390Y3518290I-22433J62137D01*
G02X3029850Y3512940I7426J-6931D01*
G03X3039070Y3495100I31389J4920D01*
G02X3037210Y3479110I-7087J-7279D01*
G03X3078950Y3432790I16330J-27252D01*
G01X3185710D01*
X3238570Y3485650D01*
G02X3255470Y3481440I7185J-7184D01*
G03X3290860Y3459390I30371J9320D01*
G01X3293420Y3459800D01*
X3297990Y3455230D01*
X3303120D01*
Y3448040D01*
X3397120D01*
Y3354040D01*
X3404310D01*
Y3336440D01*
X3467420Y3273330D01*
X3592190D01*
G02X3599380Y3255990I3J-10159D01*
G01X3530470Y3187080D01*
Y2860750D01*
X3438370Y2768650D01*
G02X3421140Y2774320I-7184J7183D01*
G03X3412730Y2791160I-30162J-4543D01*
G02X3411970Y2804540I7242J7123D01*
G03X3410280Y2844130I-24011J18806D01*
G02X3409820Y2857460I7435J6929D01*
G03X3407870Y2898050I-23692J19204D01*
G02X3407040Y2911360I7239J7132D01*
G03X3361090Y2908510I-24213J18542D01*
G02X3361920Y2895200I-7239J-7132D01*
G03X3363810Y2855880I24212J-18542D01*
G02X3364270Y2842550I-7435J-6929D01*
G03X3366210Y2801960I23691J-19209D01*
G02X3366970Y2788580I-7242J-7123D01*
G03X3361440Y2762160I24008J-18814D01*
G02X3351610Y2749470I-9838J-2532D01*
G01X3260820D01*
X3260340Y2754020D01*
G03X3128580Y2747160I-65701J-6860D01*
G01Y2721760D01*
G03X3128600Y2720040I66061J-92D01*
G02X3111260Y2712590I-10155J-268D01*
G37*
G36*
G01X3087340Y4257540D02*
G02X3078230Y4272200I-2J10160D01*
G03X3071070Y4309810I-28490J14063D01*
G02X3070500Y4324310I6819J7529D01*
G03X3026050Y4322550I-23123J21789D01*
G02X3026620Y4308050I-6819J-7529D01*
G03X3021370Y4271950I23118J-21794D01*
G02X3012300Y4257220I-9071J-4572D01*
G01X3001380D01*
Y4252380D01*
X2949430D01*
X2949200Y4252400D01*
G03X2943480I-2860J-31640D01*
G01X2943250Y4252380D01*
X2942010D01*
X2941890Y4252250D01*
X2940350Y4251960D01*
G03X2916130Y4230580I5993J-31198D01*
G01X2915750Y4229420D01*
X2911290Y4224970D01*
X2903700Y4232560D01*
Y4329140D01*
G02X2913330Y4339280I10158J-5D01*
G03X2921170Y4340700I-1698J31725D01*
G02X2933150Y4335840I3042J-9697D01*
G03X2951580Y4381260I27943J15111D01*
G02X2939600Y4386120I-3042J9697D01*
G03X2883990Y4386610I-27940J-15114D01*
G02X2867950Y4384420I-8851J4992D01*
G01X2845280Y4407090D01*
G02X2847230Y4422990I7181J7189D01*
G03X2817750Y4479150I-16360J27230D01*
G01X2816750Y4478700D01*
X2810570D01*
Y4486050D01*
X2822900Y4498380D01*
Y4505100D01*
X2825200D01*
Y4557620D01*
X2822900D01*
Y4586520D01*
X2820000Y4589420D01*
X2819620Y4590540D01*
G03X2817630Y4595180I-30101J-10163D01*
G02X2817820Y4605010I8984J4743D01*
G01X2874990D01*
Y4562540D01*
X2886960Y4550580D01*
G03X2941990Y4539600I24600J-20102D01*
G02X2942930Y4547610I9732J2918D01*
G01X2962070D01*
G02X2962650Y4538590I-8788J-5094D01*
G03X3021230I29290J-12310D01*
G02X3021810Y4547610I9368J3926D01*
G01X3196700D01*
G02X3197690Y4539770I-8791J-5093D01*
G03X3258850I30580J-8610D01*
G02X3259840Y4547610I9781J2747D01*
G01X3285270D01*
G02X3286260Y4539770I-8791J-5093D01*
G03X3347420I30580J-8610D01*
G02X3348410Y4547610I9781J2747D01*
G01X3440400D01*
G02X3438780Y4535330I-8796J-5086D01*
G03X3441160Y4488240I22460J-22470D01*
G02X3441920Y4473190I-6426J-7869D01*
G01X3411170Y4442440D01*
Y4328850D01*
X3406650Y4328350D01*
G03X3417820Y4265940I3501J-31578D01*
G02X3430440Y4256090I2461J-9856D01*
G01Y4181480D01*
G02X3428340Y4165740I-7336J-7031D01*
G03X3419650Y4158060I16341J-27247D01*
G01X3415640Y4156100D01*
X3410600Y4160580D01*
G03X3409360Y4166130I-27764J-3289D01*
G01X3409100Y4166920D01*
Y4187540D01*
X3356580D01*
Y4185240D01*
X3343060D01*
Y4187540D01*
X3295620D01*
Y4184760D01*
X3273310Y4184340D01*
X3271500Y4186120D01*
X3230940D01*
X3224360Y4192700D01*
X3104300D01*
Y4257540D01*
X3087340D01*
G37*
G36*
G01X3620370Y4632320D02*
G03X3587670Y4597590I2870J-35462D01*
G01X3587630Y4595550D01*
X3548840Y4556760D01*
X3484340D01*
X3478240Y4562860D01*
X3398960D01*
X3398810Y4562870D01*
G03X3394890I-1960J-31710D01*
G01X3394740Y4562860D01*
X3318950D01*
X3318800Y4562870D01*
G03X3314880I-1960J-31710D01*
G01X3314730Y4562860D01*
X3230380D01*
X3230230Y4562870D01*
G03X3226310I-1960J-31710D01*
G01X3226160Y4562860D01*
X2896240D01*
X2890240Y4568860D01*
Y4620260D01*
X2681700D01*
Y4785360D01*
X2941840D01*
X2943230Y4782480D01*
G03X2998250Y4770660I32084J15380D01*
G01X2999670Y4771860D01*
X3005960D01*
X3007010Y4768160D01*
G03X3075470I34230J9700D01*
G01X3076520Y4771860D01*
X3332140D01*
X3332940Y4772660D01*
X3409140D01*
X3574240Y4937760D01*
X3599640D01*
X3616060Y4921340D01*
Y4891720D01*
X3611510Y4891240D01*
G03X3614960Y4820280I3738J-35382D01*
G02X3625040Y4810120I-79J-10159D01*
G01Y4787310D01*
X3623870Y4785900D01*
G03Y4657820I77370J-64040D01*
G01X3625040Y4656410D01*
Y4637390D01*
G02X3620370Y4632320I-5081J-5D01*
G37*
G36*
G01X2926440Y1015670D02*
G03X2918690Y1013760I5197J-37766D01*
G01X2917860Y1013460D01*
X2889680D01*
X2888810Y1013790D01*
G03X2875090Y1016250I-13474J-35660D01*
G01X2872960Y1016240D01*
X2860500Y1028700D01*
Y1064260D01*
X2878560Y1082320D01*
X2914640D01*
X2934680Y1102360D01*
X2941780D01*
X2967180Y1127760D01*
X3048460D01*
X3147520Y1028700D01*
X3320240D01*
X3343100Y1005840D01*
Y845820D01*
X3310080Y812800D01*
X3157680D01*
X3074710Y895770D01*
X3074690Y895790D01*
G03X3074180Y896300I-21820J-21310D01*
G01X3074160Y896320D01*
X2998250Y972230D01*
Y1005740D01*
X2998720Y1006750D01*
G03X2930830Y1020820I-32318J14886D01*
G02X2926440Y1015670I-5077J-118D01*
G37*
G36*
G01X3335480Y1379220D02*
Y1087120D01*
X3307540Y1059180D01*
X3153870D01*
X3092280Y1120770D01*
Y1290960D01*
X3103070Y1301750D01*
Y1309370D01*
X3103370Y1309670D01*
Y1385870D01*
X3117040Y1399540D01*
X3315160D01*
X3335480Y1379220D01*
G37*
G36*
G01X3043290Y2328580D02*
X3041430Y2330440D01*
X2902170D01*
X2838260Y2394350D01*
Y2415040D01*
X2854210D01*
X2866910Y2402340D01*
X2887580D01*
Y2397500D01*
X3041700D01*
Y2433580D01*
G02X3058200Y2441520I10161J-2D01*
G03X3091450Y2427580I41196J51638D01*
G01X3095920Y2427040D01*
Y2328580D01*
X3043290D01*
G37*
G36*
G01X3128040Y3828660D02*
X3123480Y3833210D01*
X3123130Y3834520D01*
G03X3104080Y3865970I-63796J-17148D01*
G02X3110960Y3883600I6881J7472D01*
G01X3122070D01*
X3126280Y3879400D01*
X3126570Y3877860D01*
G03X3189120Y3888990I31199J5990D01*
G01X3188700Y3891560D01*
X3219140Y3922000D01*
Y3941220D01*
X3226520D01*
Y3993740D01*
X3166000D01*
Y3992310D01*
X3160210D01*
X3159520Y3992500D01*
G03X3121320Y3950080I-8737J-30542D01*
G02X3111890Y3936120I-9425J-3799D01*
G01X3083320D01*
Y3970200D01*
X3099980Y3986860D01*
Y4066220D01*
X3132720Y4098960D01*
G03X3138700Y4094150I22755J22168D01*
G02X3138100Y4076550I-5365J-8627D01*
G03X3167050Y4019990I14881J-28072D01*
G01X3168110Y4020520D01*
X3206820D01*
X3273200Y4086900D01*
Y4128410D01*
X3293810Y4128800D01*
X3295620Y4127020D01*
X3348140D01*
Y4129320D01*
X3361660D01*
Y4127020D01*
X3414610D01*
G02X3406850Y4110300I-7757J-6561D01*
G01X3370430D01*
X3331770Y4071640D01*
X3328440Y4073460D01*
G03X3321260Y4014820I-15199J-27899D01*
G02X3333990Y4004990I2570J-9830D01*
G01Y3994070D01*
X3327550D01*
X3326360Y3994750D01*
G03X3312110Y3935530I-15920J-27494D01*
G02X3322800Y3925390I532J-10144D01*
G01Y3890090D01*
X3322690Y3889560D01*
G03X3322220Y3878840I31049J-6732D01*
G02X3312150Y3867400I-10077J-1282D01*
G01X3284970D01*
X3253470Y3835900D01*
X3135280D01*
X3128040Y3828660D01*
G37*
G36*
G01X3536140Y5191760D02*
Y4988560D01*
X2977340D01*
X2912240Y5053660D01*
Y5129860D01*
X2962240D01*
Y5143860D01*
Y5191760D01*
X3536140D01*
G37*
G36*
G01X3616070Y2183600D02*
G02X3598730Y2176620I-10157J205D01*
G01X3552190Y2223160D01*
X3530360D01*
Y2230980D01*
X3523270D01*
Y2446410D01*
X3461690Y2507990D01*
X3433370D01*
G02X3423720Y2521320I2J10160D01*
G03X3417640Y2550980I-28980J9513D01*
G02X3417560Y2564310I7626J6711D01*
G03X3417380Y2604240I-23149J19861D01*
G02X3417390Y2617620I7649J6684D01*
G03X3416850Y2658400I-22950J20090D01*
G02X3416440Y2671730I7459J6901D01*
G03X3422370Y2698640I-23608J19311D01*
G02X3432200Y2711330I9838J2532D01*
G01X3434990D01*
X3568610Y2844950D01*
Y3171280D01*
X3598770Y3201450D01*
G02X3616110Y3194640I7185J-7185D01*
G03X3776110Y3157220I85129J3220D01*
G02X3795200Y3152370I8930J-4846D01*
G01Y2989350D01*
G02X3776110Y2984500I-10160J-4D01*
G03Y2903220I-74870J-40640D01*
G02X3795200Y2898370I8930J-4846D01*
G01Y2735350D01*
G02X3776110Y2730500I-10160J-4D01*
G03Y2649220I-74870J-40640D01*
G02X3795200Y2644370I8930J-4846D01*
G01Y2227350D01*
G02X3776110Y2222500I-10160J-4D01*
G03X3616070Y2183600I-74869J-40642D01*
G37*
G36*
G01X3499710Y3765880D02*
Y3733710D01*
X3479580Y3713580D01*
X3451520D01*
Y3691360D01*
G02X3437880Y3681820I-10159J4D01*
G03X3421200Y3683010I-10427J-28661D01*
G02X3408960Y3692960I-2079J9946D01*
G01Y3713580D01*
X3361520D01*
Y3702390D01*
X3352260D01*
X3351310Y3706250D01*
G03X3345330Y3718420I-30848J-7604D01*
G02X3347570Y3733150I7951J6326D01*
G03X3360540Y3767100I-17858J26275D01*
G02X3370400Y3779720I9856J2461D01*
G01X3437910D01*
X3447930Y3789740D01*
G02X3463450Y3788360I7183J-7183D01*
G03X3495730Y3766760I43780J30506D01*
G01X3499710Y3765880D01*
G37*
%LPC*%
G75*
G36*
G01X3787960Y5203130D02*
X3637840D01*
G03X3628300Y5189490I6J-10160D01*
G02X3597740Y5209500I-28660J-10430D01*
G03X3602500Y5214570I-320J5070D01*
G01Y5388590D01*
X3787960D01*
Y5203130D01*
G37*
G36*
G01X2546190Y3879010D02*
X2545800Y3878080D01*
Y3819300D01*
X2485280D01*
Y3871820D01*
X2487950D01*
Y3877920D01*
X2487550Y3878870D01*
G02X2546190Y3879010I29291J12308D01*
G37*
G36*
G01X563710Y2065060D02*
G03X554190Y2055220I634J-10139D01*
G02X521790Y2086570I-30488J909D01*
G03X531310Y2096410I-634J10139D01*
G02X563710Y2065060I30488J-909D01*
G37*
G36*
G01X534780Y1890880D02*
G03X535710Y1904180I-7185J7185D01*
G02X537030Y1942510I24361J18349D01*
G03X537020Y1955840I-7675J6659D01*
G02X583060Y1955890I22998J20031D01*
G03X583070Y1942560I7675J-6659D01*
G02X581630Y1900960I-23001J-20029D01*
G03X580700Y1887660I7185J-7185D01*
G02X534780Y1890880I-24360J-18351D01*
G37*
G36*
G01X1225100Y1078460D02*
G03X1211770Y1075510I-5039J-8822D01*
G02X1201580Y1121460I-25931J18354D01*
G03X1214910Y1124410I5039J8822D01*
G02X1225100Y1078460I25931J-18354D01*
G37*
G36*
G01X1312670Y724990D02*
G03X1329690Y720370I9833J2562D01*
G01X1357170Y747850D01*
X1356840Y750340D01*
G02X1383040Y724150I30230J4041D01*
G01X1380550Y724480D01*
X1361490Y705420D01*
G03X1365080Y696740I3590J-3598D01*
G01X1365100D01*
Y551420D01*
X1289620D01*
Y681750D01*
G03X1284340Y686820I-5079J-5D01*
G02X1280670Y686900I-1171J30479D01*
G03X1275180Y681840I-411J-5063D01*
G01Y551420D01*
X1199700D01*
Y696740D01*
X1220910D01*
Y711450D01*
X1243290Y733830D01*
X1257530D01*
G02X1312670Y724990I25628J-16532D01*
G37*
G36*
G01X614040Y138500D02*
Y189230D01*
G03X601350Y199070I-10159J1D01*
G02Y258130I-7620J29530D01*
G03X614040Y267970I2531J9839D01*
G01Y333940D01*
X729480D01*
Y138500D01*
X614040D01*
G37*
G36*
G01X1379790Y696740D02*
X1442970D01*
G03X1452600Y710120I-7J10161D01*
G02X1511520Y746520I33758J11242D01*
G01X1543020Y715020D01*
Y696740D01*
X1545180D01*
Y551420D01*
X1469700D01*
Y687700D01*
X1463940Y693460D01*
G03X1455270Y689870I-3591J-3593D01*
G01Y551420D01*
X1379790D01*
Y696740D01*
G37*
G36*
G01X1375170Y1406010D02*
G02X1340180Y1403800I-15825J-27549D01*
G03X1339110Y1420710I-6130J8101D01*
G02X1374100Y1422920I15825J27549D01*
G03X1375170Y1406010I6130J-8101D01*
G37*
G36*
G01X1458350Y1410050D02*
G02X1417930Y1404530I-16914J-26891D01*
G03X1415830Y1419970I-7513J6841D01*
G02X1456250Y1425490I16914J26891D01*
G03X1458350Y1410050I7513J-6841D01*
G37*
G36*
G01X1555770Y1375160D02*
G02X1499550Y1402660I-30528J8808D01*
G03X1495970Y1417680I-8213J5979D01*
G02X1542150Y1447840I14468J28282D01*
G03X1557800Y1439890I10145J592D01*
G02X1567830Y1382240I17211J-26703D01*
G03X1555770Y1375160I-2300J-9894D01*
G37*
G36*
G01X1289360Y1414970D02*
G02X1255050Y1410640I-13818J-28609D01*
G03X1252920Y1427550I-6551J7764D01*
G02X1287230Y1431880I13818J28609D01*
G03X1289360Y1414970I6551J-7764D01*
G37*
G36*
G01X2825800Y4061200D02*
X2798770D01*
G03X2788610Y4051070I0J-10160D01*
G02X2741210Y4078830I-31770J100D01*
G03X2743390Y4094860I-5001J8843D01*
G01X2736990Y4101270D01*
X2735450Y4101560D01*
G02X2754410Y4161760I5987J31200D01*
G03X2766910Y4165250I4148J9275D01*
G02X2768140Y4166910I26128J-18075D01*
G03X2767900Y4179830I-7957J6314D01*
G02X2816920Y4180730I24139J20658D01*
G03X2817160Y4167810I7957J-6314D01*
G02X2823640Y4138690I-24141J-20653D01*
G03X2833430Y4125820I9793J-2709D01*
G01X2888700D01*
Y4084090D01*
G03X2901060Y4074180I10158J7D01*
G02X2913930Y4011960I6880J-31018D01*
G01X2912390Y4011670D01*
X2910890Y4010160D01*
X2889300D01*
Y4005320D01*
X2836780D01*
Y4073300D01*
X2825800D01*
Y4061200D01*
G37*
G36*
G01X2394830Y4337130D02*
G02X2378900Y4299030I14312J-28364D01*
G03X2364650Y4304990I-9672J-3109D01*
G02X2380580Y4343090I-14312J28364D01*
G03X2394830Y4337130I9672J3109D01*
G37*
G36*
G01X299030Y5136940D02*
G02X263400Y5137480I-18190J-24481D01*
G03X263650Y5153980I-5804J8340D01*
G02X262190Y5201780I18192J24478D01*
G03X261940Y5217520I-6550J7768D01*
G02X300490Y5218140I18895J23941D01*
G03X300740Y5202400I6550J-7768D01*
G02X299280Y5153440I-18900J-23938D01*
G03X299030Y5136940I5804J-8340D01*
G37*
G36*
G01X2480540Y2916890D02*
G03X2481140Y2930280I-7325J7037D01*
G02X2526940Y2928230I23800J19078D01*
G03X2526340Y2914840I7325J-7037D01*
G02X2480540Y2916890I-23800J-19078D01*
G37*
G36*
G01X3426870Y1416440D02*
G03X3413270Y1415660I-6368J-7914D01*
G02X3410660Y1460830I-21729J21405D01*
G03X3424260Y1461610I6368J7914D01*
G02X3426870Y1416440I21729J-21405D01*
G37*
G36*
G01X3052010Y634940D02*
X3052060Y635280D01*
Y778040D01*
X3283420D01*
Y702740D01*
X3283890Y701720D01*
G02Y676000I-27650J-12860D01*
G01X3283420Y674980D01*
Y585680D01*
X3052060D01*
Y626440D01*
X3052010Y626780D01*
G02Y634940I30230J4080D01*
G37*
G36*
G01X3616060Y1080680D02*
Y1083180D01*
G03X3598680Y1090330I-10162J-3D01*
G02X3547620Y1119890I-21650J21482D01*
G01X3547800Y1120550D01*
Y1125060D01*
X3511630Y1161230D01*
X3499920D01*
Y1137640D01*
X3384560D01*
Y1243080D01*
X3499920D01*
Y1219690D01*
X3535850D01*
X3598710Y1156830D01*
G03X3616060Y1164010I7189J7180D01*
G01Y1251040D01*
X3786420D01*
Y1080680D01*
X3616060D01*
G37*
G36*
G01X3408300Y3092120D02*
G02X3383600Y3053270I4538J-30162D01*
G03X3372360Y3060420I-9737J-2897D01*
G02X3359000Y3119780I-4547J30160D01*
G03X3365320Y3133680I-2942J9724D01*
G02X3362830Y3149820I27798J12551D01*
G03X3353790Y3161120I-10087J1196D01*
G02X3345330Y3219670I3144J30340D01*
G03X3351310Y3231580I-3861J9395D01*
G02X3392470Y3210930I29551J7557D01*
G03X3386490Y3199020I3861J-9395D01*
G02X3387230Y3187860I-29549J-7564D01*
G03X3396270Y3176560I10087J-1196D01*
G02X3401940Y3117020I-3145J-30339D01*
G03X3395620Y3103120I2942J-9724D01*
G02X3397060Y3099270I-27783J-12586D01*
G03X3408300Y3092120I9737J2897D01*
G37*
G54D87*
X560050Y1781560D03*
X556690Y2181860D03*
X556240Y2288860D03*
X553240Y2374860D03*
X577040Y4505960D03*
X516480Y4341620D03*
X1089240Y4126860D03*
X1339040Y853440D03*
X3042240Y4864860D03*
X3536140Y5267960D03*
X3884610Y4593860D03*
X3755000Y4864000D03*
X4002430Y4852460D03*
X2303240Y2452370D03*
X2097960Y2626490D03*
X3356090Y2064110D03*
X2348040Y5683180D03*
G54D91*
X2713180Y1576480D03*
G54D89*
X2436850Y4451170D03*
X2351240Y4529860D03*
X2432240Y4525860D03*
X2352810Y4446600D03*
X2274090Y4445360D03*
X2177740Y4331260D03*
X2497000Y3760280D03*
X2670240Y4524860D03*
X2513840Y4363260D03*
X2599740Y4445230D03*
X2679010Y4445820D03*
X2991740Y4042460D03*
X3167330Y4360230D03*
X3231920Y4447540D03*
X3071540Y4445060D03*
X3300540Y4355360D03*
X3308540Y4444060D03*
G54D86*
X877520Y1114040D03*
G54D88*
X1597360Y624080D03*
X1687530D03*
G54D85*
X657560Y1203960D03*
Y1114040D03*
Y1563880D03*
G54D90*
X3393240Y338560D03*
G54D84*
X399240Y2943860D03*
G54D83*
Y149860D03*
Y657860D03*
Y403860D03*
Y911860D03*
Y1419860D03*
Y1165860D03*
Y1673860D03*
Y2181860D03*
Y1927860D03*
Y2435860D03*
Y2689860D03*
Y3197860D03*
Y3451860D03*
Y4213860D03*
Y3959860D03*
Y4467860D03*
X3955240Y4975860D03*
X399240D03*
X3701240Y657860D03*
Y403860D03*
Y911860D03*
X3955240Y657860D03*
Y403860D03*
Y911860D03*
Y1419860D03*
Y1165860D03*
Y2181860D03*
Y1927860D03*
Y2943860D03*
Y2689860D03*
%LPD*%
G75*
G36*
G01X3273240Y767860D02*
Y595860D01*
X3062240D01*
Y767860D01*
X3273240D01*
G37*
G54D10*
X145240Y149860D03*
Y657860D03*
Y403860D03*
Y911860D03*
Y1419860D03*
Y1673860D03*
Y2181860D03*
Y1927860D03*
Y2943860D03*
Y2689860D03*
Y3197860D03*
Y3451860D03*
Y4213860D03*
Y3959860D03*
Y4467860D03*
Y4721860D03*
X399240Y149860D03*
Y657860D03*
Y403860D03*
Y911860D03*
Y1419860D03*
Y1165860D03*
Y1673860D03*
Y2181860D03*
Y1927860D03*
Y2435860D03*
Y2943860D03*
Y2689860D03*
Y3197860D03*
Y3705860D03*
Y3451860D03*
Y4213860D03*
Y3959860D03*
Y4467860D03*
Y4975860D03*
Y4721860D03*
X3701240Y149860D03*
Y657860D03*
Y403860D03*
Y911860D03*
Y1419860D03*
Y1673860D03*
Y2181860D03*
Y1927860D03*
Y2943860D03*
Y2689860D03*
Y3197860D03*
Y3451860D03*
Y4213860D03*
Y3959860D03*
Y4467860D03*
Y4721860D03*
X3955240Y149860D03*
Y657860D03*
Y403860D03*
Y911860D03*
Y1419860D03*
Y1165860D03*
Y1673860D03*
Y2181860D03*
Y1927860D03*
Y2435860D03*
Y2943860D03*
Y2689860D03*
Y3197860D03*
Y3705860D03*
Y3451860D03*
Y4213860D03*
Y3959860D03*
Y4467860D03*
Y4975860D03*
Y4721860D03*
G54D20*
X851840Y2047240D03*
X859460Y2440940D03*
X1255700Y449580D03*
X911840Y2047240D03*
X919460Y2440940D03*
X1105840Y3108960D03*
X1165840D03*
Y3274060D03*
X1105840D03*
X1165840Y3058160D03*
X1105840D03*
Y3223260D03*
X1165840D03*
X1315700Y449580D03*
X1933880Y101600D03*
X1993880D03*
X2004040Y581660D03*
X1944040D03*
Y518160D03*
X2004040D03*
X2032940Y5801360D03*
X2185340Y1635760D03*
X2245340D03*
X2385040Y1755140D03*
X2325040D03*
X2185340D03*
X2245340D03*
X2092940Y5801360D03*
X2650640Y114360D03*
X2710640D03*
X2763940Y114660D03*
X2823940D03*
X2829540Y3426460D03*
X2769540D03*
Y3375660D03*
X2829540D03*
X2515540Y3845560D03*
X2575540D03*
X2782240Y3921760D03*
X2780740Y3767860D03*
X2550140Y4010660D03*
X2490140D03*
X2794940Y4531360D03*
X2934640Y873760D03*
X2994640D03*
X2934640Y810260D03*
X2994640D03*
X2993060Y3970020D03*
X3053060D03*
X2858440Y4099560D03*
X2918440D03*
X2842240Y3921760D03*
X3196260Y3967480D03*
X3093240Y3909860D03*
X3033240D03*
X2840740Y3767860D03*
X2854940Y4531360D03*
X3442640Y2118360D03*
X3502640D03*
X3442640Y2054860D03*
X3502640D03*
X3442640Y2207260D03*
X3502640D03*
X3256260Y3967480D03*
X3353060Y3925680D03*
X3413060D03*
G54D11*
X94740Y277960D03*
X71580Y523240D03*
Y787400D03*
Y1292860D03*
Y1038860D03*
Y1544320D03*
Y2049780D03*
Y1803400D03*
Y2560320D03*
Y2306320D03*
Y2816860D03*
Y3324860D03*
Y3068320D03*
Y3573780D03*
Y3830320D03*
Y4089400D03*
X75340Y5270960D03*
Y5146160D03*
X74540Y5664560D03*
Y5544860D03*
X75340Y5414560D03*
X274780Y347980D03*
X295100Y482600D03*
X198580Y523240D03*
X479240Y309060D03*
X201120Y787400D03*
X315420Y749300D03*
X203660Y1292860D03*
X201120Y1038860D03*
Y1541780D03*
Y2049780D03*
Y1800860D03*
Y2560320D03*
X198580Y2306320D03*
Y2816860D03*
Y3324860D03*
Y3070860D03*
X201120Y3573780D03*
X198580Y3827780D03*
X280840Y5241460D03*
X281840Y5178460D03*
X280840Y5112460D03*
X476040Y5987960D03*
X373140Y5987260D03*
X508740Y69760D03*
X800560Y71120D03*
X706580D03*
X607520D03*
X511000Y205740D03*
X579580Y160020D03*
X762460Y147320D03*
X593730Y228600D03*
X785320Y391160D03*
X724360Y408940D03*
X676100Y449580D03*
X658320Y548640D03*
X688800Y360680D03*
X611330Y472440D03*
Y360680D03*
X505920Y449580D03*
X762460Y279400D03*
X853140Y400460D03*
X793240Y462970D03*
X799940Y521860D03*
X750740Y984650D03*
X810720Y970430D03*
X750780Y928290D03*
Y848460D03*
X879300Y721360D03*
X823420Y718820D03*
X658320Y624840D03*
X611330Y683260D03*
X856440Y1386840D03*
X752300Y1343660D03*
X772570Y1118870D03*
X560050Y1781560D03*
X787860Y1473960D03*
X795480Y1690620D03*
X560070Y1922530D03*
X798020Y2062480D03*
X560020Y1975870D03*
X523700Y2056130D03*
X556690Y2181860D03*
X561800Y2095500D03*
X556340Y1869310D03*
X789360Y1935480D03*
X556240Y2288860D03*
X815670Y2371740D03*
X562590Y2540790D03*
X791090Y2451100D03*
X788600Y2506980D03*
X788340Y2284660D03*
X553240Y2374860D03*
X791090Y2896490D03*
Y2705100D03*
X562590Y2937030D03*
Y2738910D03*
Y2594130D03*
X796140Y2611460D03*
X791090Y3056480D03*
X562590Y2990370D03*
X795480Y3282360D03*
X772140Y3354460D03*
X595640Y3400160D03*
X818240Y4038860D03*
X831040Y3820160D03*
Y3769360D03*
X754840Y4061460D03*
X691340D03*
X767540Y4391660D03*
X704040D03*
X767540Y4455160D03*
X704040D03*
X577040Y4505960D03*
X516480Y4341620D03*
X869140Y4753660D03*
X818340D03*
Y4708860D03*
X869140D03*
X633240Y4851860D03*
X631820Y4921860D03*
X841240Y4849860D03*
X788240Y4840860D03*
X818340Y5052060D03*
X754840D03*
X640540Y5267960D03*
X653240Y5204460D03*
X555440Y4972060D03*
X526240Y5052060D03*
X745470Y5302730D03*
X805640Y5280660D03*
X662740Y5989560D03*
X569440D03*
X1190940Y135560D03*
X1191720Y210820D03*
Y71120D03*
X1059640D03*
X958040D03*
X973280Y215900D03*
X1036780Y528320D03*
X1105360D03*
X1176480D03*
X1239980D03*
X1133300Y391160D03*
X1057100D03*
X978360D03*
X1181560Y347980D03*
X1179020Y279400D03*
X921940Y395360D03*
X952590Y525610D03*
X1283160Y717300D03*
X1191720Y718820D03*
X963120Y1394990D03*
X1185840Y1093860D03*
X909780Y1384300D03*
X1240840Y1106060D03*
X1275540Y1386360D03*
X1266240Y1622860D03*
X909780Y1635760D03*
X1266740Y1456160D03*
X988520Y2021840D03*
X1257760Y2451100D03*
X984240Y2433860D03*
X1036870Y2569700D03*
X1113410Y2571860D03*
X947750Y2573160D03*
X950240Y2507860D03*
X1188220Y2794080D03*
X1121490Y2757310D03*
X1246140Y2719460D03*
X1188540Y2590960D03*
X1125680Y2921000D03*
X1044480Y3208900D03*
X1059640Y3108960D03*
X1085040Y3159760D03*
X1196340Y3170460D03*
X1028240Y3157860D03*
X1072340Y3515360D03*
X1065990Y3768630D03*
X1205240Y4126860D03*
X1089240D03*
X975240Y4097860D03*
X1123440Y4378660D03*
X1115240Y4274860D03*
X1065240Y4249860D03*
X1213240Y4181860D03*
X1100240Y4471860D03*
X1096240Y4525860D03*
X1081240Y4412860D03*
X1083240Y4342860D03*
X983240Y4808860D03*
X985240Y4754860D03*
X1091240Y4708860D03*
X1117240Y4644860D03*
X1156240Y4828860D03*
X1103240Y4586860D03*
X1275540Y4963160D03*
X1123140D03*
X1173940D03*
X976240Y5052860D03*
X1033240Y5180860D03*
X976240Y5154860D03*
X1262840Y5369560D03*
X1123140Y5382260D03*
X1349140Y205460D03*
X1346940Y268460D03*
X1349200Y335280D03*
X1496520Y480060D03*
X1626060D03*
X1562560D03*
X1433020D03*
X1366980D03*
X1349200Y398780D03*
X1306020Y518160D03*
X1582880Y891540D03*
X1394920Y850900D03*
X1387070Y754380D03*
X1339040Y853440D03*
X1614040Y1068560D03*
X1672540Y1070160D03*
X1558910Y1078610D03*
X1629140Y1355960D03*
X1525240Y1383960D03*
X1359340Y1378460D03*
X1441440Y1383160D03*
X1596850Y1638350D03*
X1382240Y1667860D03*
X1422240Y1627860D03*
X1575010Y1413190D03*
X1354940Y1448260D03*
X1432740Y1446860D03*
X1510440Y1445960D03*
X1543510Y1638270D03*
X1304420Y2102350D03*
X1347780Y2048080D03*
X1420320Y2575560D03*
X1484340Y2739260D03*
X1345740Y2728560D03*
X1438570Y3228050D03*
X1491440Y3235120D03*
X1511910Y3174340D03*
X1555490Y3134360D03*
X1562610Y3077980D03*
X1554940Y3210560D03*
X1364110Y3507210D03*
X1402240Y3508860D03*
X1289240Y3705860D03*
X1339040Y3693160D03*
X1327240Y3833860D03*
X1539000Y3825000D03*
X1661000Y3989000D03*
X1457240Y3883860D03*
X1328240Y3889440D03*
X1293480Y3990500D03*
X1548240Y3983860D03*
X1512240Y3903860D03*
X1330240Y4055860D03*
X1677240Y3820860D03*
X1656240Y3873860D03*
X1570500Y3775860D03*
X1597500Y3834150D03*
X1616840Y4115640D03*
X1385240Y4069860D03*
X1424050Y4106820D03*
X1557240Y4056860D03*
X1611240Y4051860D03*
X1345000Y4107780D03*
X1458240Y4064860D03*
X1511240Y4085860D03*
X1288240Y4417060D03*
X1516840Y4413660D03*
X1389840Y4417060D03*
X1387540Y4285060D03*
X1516840Y4290060D03*
X1643840Y4417060D03*
X1646140Y4290060D03*
X1382540Y4544060D03*
X1516840D03*
X1651140D03*
X1618440Y4912360D03*
X1456840Y4921560D03*
X1369340Y4756160D03*
X1367140Y4656460D03*
X1453340Y4759960D03*
Y4658360D03*
X1288240D03*
Y4759960D03*
X1661840Y4756160D03*
X1567640Y4658360D03*
Y4759960D03*
X1661840Y4656160D03*
X1542240Y5166360D03*
X1466040D03*
X1326340Y4963160D03*
X1407240Y5209860D03*
X1466040Y5217160D03*
X1300040Y5223460D03*
X1354040Y5227660D03*
X1415240Y5382260D03*
X1327530Y5396150D03*
X2001140Y178360D03*
X2042620Y71120D03*
X1999440Y386080D03*
X1821640Y480060D03*
X1882600D03*
X1999440Y454660D03*
X1692100Y480060D03*
X1755600D03*
X1946100D03*
X1999440Y312420D03*
Y238760D03*
X1886640Y620460D03*
X1722580Y812800D03*
X1721560Y756920D03*
X2047600Y795260D03*
X1718440Y911860D03*
X1912420Y753740D03*
X2019840Y752030D03*
X1692100Y1351970D03*
X1913330Y1100200D03*
X1974370Y1369570D03*
X2019990Y1098980D03*
X1724100Y1458460D03*
X1681940Y1636650D03*
X1765950Y1739710D03*
X1910790Y1638350D03*
X1930240Y1926860D03*
X1874240Y1863860D03*
X1987240Y1928860D03*
X2068240Y1869860D03*
X2070240Y1925860D03*
X1775920Y2910840D03*
X1778240Y2970860D03*
X2020240Y2972860D03*
X1915540Y3207920D03*
X1774740Y3154680D03*
X2029920Y3116580D03*
X1864740Y3208660D03*
X1687000Y4019000D03*
X1691570Y4074430D03*
X1744240Y4082860D03*
X1845240Y4145860D03*
X1793830Y3837910D03*
X1829220Y3877820D03*
X1954740Y3899360D03*
X1904240Y3838860D03*
X2040510Y3876340D03*
X2050910Y3761360D03*
X2042240Y3819860D03*
X1900240Y4377860D03*
X1745440Y4417060D03*
X1825240Y4238860D03*
X1948240Y4443860D03*
X1910240Y4194860D03*
X1968240Y4305860D03*
X1981240Y4401860D03*
X1990000Y4698000D03*
X1984000Y4739000D03*
X1966240Y4642860D03*
X1758140Y4658360D03*
Y4759960D03*
X1919240Y4564860D03*
X1918240Y4618860D03*
X2062240Y4812860D03*
X2064240Y4574860D03*
X1969240Y4893860D03*
X1895240Y4738860D03*
X1932000Y4699000D03*
X1971240Y5241860D03*
X1834340Y4963160D03*
X1876240Y4962860D03*
X1964240Y4993860D03*
X1681940Y4963160D03*
X1728240Y4962860D03*
X1909240Y5158860D03*
X1987240Y4944860D03*
X2024840Y5394960D03*
X1931100Y5612020D03*
X2031920Y5675390D03*
X2148510Y218010D03*
X2202240Y83860D03*
X2252940Y85860D03*
X2151840D03*
X2334240Y55860D03*
X2436240Y594790D03*
X2347740Y261360D03*
X2113740Y302260D03*
X2381240Y551560D03*
X2300240Y536860D03*
X2345140Y592660D03*
X2139140Y543560D03*
X2362660Y967740D03*
Y828040D03*
X2115520Y874010D03*
X2114730Y927220D03*
X2179940Y707960D03*
X2129240Y980860D03*
X2094240Y1000860D03*
X2257250Y1354510D03*
X2362660Y1107440D03*
X2083390Y1084710D03*
X2121240Y1046960D03*
X2205180Y1374490D03*
X2151240Y1373660D03*
X2242800Y1706880D03*
X2126440Y1636650D03*
X2349960Y1705860D03*
X2296620Y1706880D03*
X2194040Y2159860D03*
X2243810Y2186980D03*
X2091260Y1992630D03*
X2297890Y2068830D03*
Y1908810D03*
X2143240Y2159860D03*
X2295040Y2280980D03*
X2303240Y2452370D03*
X2222240Y2243860D03*
X2320060Y2332040D03*
X2085840Y2296260D03*
X2128240Y2894860D03*
X2129030Y2961640D03*
X2097960Y2626490D03*
X2458240Y3135860D03*
X2123900Y3042920D03*
X2376240Y3122860D03*
X2329640Y3185160D03*
X2414940Y3757360D03*
X2432620Y3972010D03*
X2192340Y3882560D03*
X2436850Y3891180D03*
X2186140Y3956160D03*
X2358480Y3966260D03*
X2184480Y4050680D03*
X2260940Y3829460D03*
X2274320Y3962960D03*
X2370440Y3794260D03*
X2431770Y4046090D03*
X2426340Y3821860D03*
X2152140Y4007560D03*
X2104240Y3771760D03*
X2348260Y4042590D03*
X2160030Y3758680D03*
X2264780Y4045750D03*
X2213360Y3760050D03*
X2381240Y3875860D03*
X2280240Y3882860D03*
X2281710Y4332890D03*
X2436850Y4451170D03*
X2351240Y4529860D03*
X2432240Y4525860D03*
X2352810Y4446600D03*
X2274090Y4445360D03*
X2177740Y4331260D03*
X2350340Y4333360D03*
X2409140Y4308760D03*
X2192420Y4769530D03*
X2189940Y4734560D03*
X2302100Y4898860D03*
X2188240Y4594860D03*
X2194240Y4626860D03*
X2116240Y4822860D03*
X2120240Y4544860D03*
X2222500Y4826000D03*
X2215340Y5013960D03*
Y5064760D03*
X2341170Y5277480D03*
X2288240Y5270860D03*
X2308240Y4954860D03*
X2370240Y5166860D03*
X2380240Y5113860D03*
X2075240Y5289380D03*
X2325440Y5484060D03*
X2246240Y5645860D03*
X2077240Y5382860D03*
X2272240Y5554860D03*
X2348040Y5683180D03*
X2342340Y5534660D03*
X2081240Y5654860D03*
X2335510Y5373370D03*
X2393240Y5448860D03*
X2265290Y5332230D03*
X2210240Y5350860D03*
X2243240Y5703860D03*
X2097240Y5601860D03*
X2076240Y5549860D03*
X2156780Y5772210D03*
X2113740Y5864860D03*
X2212240Y5756860D03*
X2649540Y70160D03*
X2826640Y77960D03*
X2763940Y70560D03*
X2585040Y345560D03*
X2748640Y363460D03*
X2562240Y551860D03*
X2644240Y358460D03*
X2502360Y967740D03*
X2642060D03*
X2502360Y828040D03*
X2642060D03*
X2786840Y632460D03*
X2700240Y744660D03*
X2504900Y1384300D03*
X2837640Y1264920D03*
X2778740Y1290090D03*
X2502360Y1107440D03*
X2646020Y1102820D03*
X2710640Y1780540D03*
X2713180Y1576480D03*
X2520650Y1705230D03*
X2654760Y1780540D03*
X2634440Y1958520D03*
X2585040Y2145760D03*
X2585440Y2084260D03*
X2583340Y2205160D03*
X2663650Y2491410D03*
X2586180Y2440460D03*
X2702140Y2683560D03*
X2717570Y2944650D03*
X2504940Y2949360D03*
X2502540Y2895760D03*
X2677640Y3213060D03*
X2658840Y3353760D03*
X2788240Y3276560D03*
X2697940Y3068320D03*
X2715840Y3014860D03*
X2710640Y3616960D03*
X2515060Y3969380D03*
X2783440Y3872960D03*
X2741440Y4132760D03*
X2516840Y3891180D03*
X2593540Y4047060D03*
X2497000Y3760280D03*
X2584590Y3772090D03*
X2597940Y3966760D03*
X2764740Y3977160D03*
X2627440Y3823660D03*
X2756840Y4051170D03*
X2637870Y3769430D03*
X2793020Y4147150D03*
X2516840Y4051170D03*
Y4451170D03*
X2830870Y4450220D03*
X2670240Y4524860D03*
X2513840Y4363260D03*
X2599740Y4445230D03*
X2760140Y4365260D03*
X2679010Y4445820D03*
X2792040Y4200490D03*
X2672610Y4282480D03*
X2725870Y4279460D03*
X2584430Y4227350D03*
X2512240Y4530860D03*
X2789530Y4580350D03*
X2786840Y4645660D03*
X2723340D03*
X2583240Y4613860D03*
X2570940Y4848860D03*
X2705240Y5215360D03*
X2685580Y5012200D03*
X2815240Y5036860D03*
X2799540Y5217160D03*
X2748740Y5382260D03*
X2995920Y409150D03*
X3073860Y513080D03*
X3132280D03*
X3190700D03*
X2875380Y787730D03*
X2873200Y892510D03*
X3052870Y874480D03*
X2875840Y734390D03*
X3082240Y630860D03*
X3217240Y743860D03*
X3043380Y817880D03*
X2890980Y1155700D03*
X3053540Y1267460D03*
X2901140Y1264920D03*
X2966400Y1021640D03*
X2946070Y1616480D03*
X3170240Y1747860D03*
X3200240Y1508860D03*
X3066720Y1448280D03*
X3119580Y1732280D03*
X2951150Y1735860D03*
X2951940Y2011680D03*
X3123870Y1903250D03*
X2944320Y1823720D03*
X3065240Y2367960D03*
X2877140Y3362260D03*
X3097240Y3198360D03*
X2933750Y2976470D03*
X3234400Y3723880D03*
X3123840Y3685860D03*
X3182040Y3749760D03*
X2944990Y3671820D03*
X2998260Y3674660D03*
X2866140Y3545060D03*
X3053540Y3451860D03*
X3061240Y3517860D03*
X3149400Y3831170D03*
X2911300Y3970020D03*
X2907940Y4043160D03*
X3157770Y3883850D03*
X2983140Y3855660D03*
X2991740Y4042460D03*
X3150780Y3961960D03*
X3152980Y4048480D03*
X3155460Y4121140D03*
X2996850Y4451170D03*
X3074520Y4528820D03*
X2912400Y4446460D03*
X2946340Y4220760D03*
X2991940Y4526280D03*
X3228270Y4531160D03*
X3167330Y4360230D03*
X3231920Y4447540D03*
X3071540Y4445060D03*
X3049740Y4286260D03*
X2961090Y4350950D03*
X2911560Y4530480D03*
X2911660Y4371010D03*
X3047380Y4346100D03*
X2975310Y4797860D03*
X2918240Y4926860D03*
X3041240Y4777860D03*
X3042240Y4864860D03*
X2912570Y4747260D03*
X2875240Y5110860D03*
X2877740Y5237860D03*
X2931240Y5114860D03*
X2932240Y5069860D03*
X3086240Y5232860D03*
X2978240Y5240860D03*
X2926140Y5168760D03*
X3032240Y5228860D03*
X3053130Y5382670D03*
X2990040Y5382260D03*
X2903150Y5380820D03*
X3251240Y631860D03*
X3256240Y688860D03*
X3567080Y1353760D03*
X3577030Y1111810D03*
X3266900Y1587800D03*
X3384240Y1740860D03*
X3339770Y1740690D03*
X3391540Y1437060D03*
X3445990Y1440210D03*
X3449800Y2005320D03*
X3356090Y2064110D03*
X3560240Y2118860D03*
X3548840Y2054860D03*
X3394740Y2530830D03*
X3408050Y2290720D03*
X3403870Y2397330D03*
X3401070Y2450600D03*
X3405580Y2344010D03*
X3382830Y2929900D03*
X3386130Y2876660D03*
X3394410Y2584170D03*
X3394440Y2637710D03*
X3390980Y2769770D03*
X3387960Y2823350D03*
X3392830Y2691030D03*
X3373240Y3314760D03*
X3393120Y3146220D03*
X3380860Y3239140D03*
X3356940Y3191460D03*
X3367820Y3090580D03*
X3412840Y3061960D03*
X3425240Y3735860D03*
X3320460Y3698650D03*
X3427440Y3653160D03*
X3285840Y3490760D03*
X3299320Y3550590D03*
X3438670Y3874220D03*
X3271200Y3876420D03*
X3353740Y3882860D03*
X3313240Y4045560D03*
X3394640Y4051860D03*
X3392360Y3846060D03*
X3444700Y4138510D03*
X3310440Y3967260D03*
X3394200Y3974060D03*
X3465380Y4048530D03*
X3329710Y3759420D03*
X3529240Y4450860D03*
X3396850Y4531160D03*
X3316840D03*
X3479240Y4427860D03*
X3470780Y4366400D03*
X3300540Y4355360D03*
X3308540Y4444060D03*
X3461240Y4512860D03*
X3410140Y4296770D03*
X3623240Y4596860D03*
X3615240Y4855860D03*
X3580000Y4905000D03*
X3536140Y5267960D03*
X3599640Y5179060D03*
X3837140Y70260D03*
X4023040Y277060D03*
X3882640D03*
X4028900Y530860D03*
X3795840Y479460D03*
X3957040Y529860D03*
X4026870Y792480D03*
X3901900Y784860D03*
X4027250Y1295400D03*
X3904440Y1290320D03*
X4027250Y1041400D03*
X3906980Y1038860D03*
X4027250Y1546860D03*
X3904440Y1544320D03*
X3755270Y2089710D03*
X3772360Y1833880D03*
X4028900Y2057400D03*
X3904440Y2054860D03*
X4028900Y1800860D03*
X3901900D03*
X3650440Y2067560D03*
X4028900Y2573020D03*
X3906980Y2570480D03*
X4028900Y2316480D03*
X3899360Y2313940D03*
X3768200Y3300670D03*
X3646550Y3289860D03*
X4002240Y4075860D03*
X4007080Y4314210D03*
X4016190Y4368810D03*
X3717140Y4613360D03*
X3866710Y4859390D03*
X3804240Y4594860D03*
X3857350Y4794350D03*
X3884610Y4593860D03*
X3755000Y4864000D03*
X4002430Y4852460D03*
X4016440Y5474360D03*
Y5567660D03*
X4014840Y5661060D03*
X4014140Y5979860D03*
X4014840Y5876960D03*
X4014140Y5763960D03*
X3939340Y5976860D03*
X3846040D03*
X3752640Y5975260D03*
X3649740Y5974560D03*
G54D12*
X145240Y1165860D03*
Y2435860D03*
Y3705860D03*
Y4975860D03*
X3701240Y1165860D03*
Y2435860D03*
Y3705860D03*
Y4975860D03*
G54D30*
X604840Y5132060D03*
Y5092060D03*
Y5052060D03*
Y5012060D03*
Y4972060D03*
X904840D03*
Y5012060D03*
Y5052060D03*
Y5092060D03*
Y5132060D03*
X2014540Y5157460D03*
Y5117460D03*
Y5077460D03*
Y5037460D03*
Y4997460D03*
X2058740Y5429260D03*
Y5469260D03*
Y5509260D03*
X2314540Y4997460D03*
Y5037460D03*
Y5077460D03*
Y5117460D03*
Y5157460D03*
X2238740Y5429260D03*
Y5469260D03*
Y5509260D03*
G54D21*
X665940Y1877060D03*
Y1937060D03*
X1255700Y328140D03*
Y388140D03*
X1237440Y3053560D03*
Y3113560D03*
X945340Y4729960D03*
Y4789960D03*
X1466040Y5072860D03*
Y5132860D03*
Y4958560D03*
Y5018560D03*
X1542240Y5072860D03*
Y5132860D03*
Y4958560D03*
Y5018560D03*
X2050240Y3955260D03*
Y4015260D03*
X1970240Y5530860D03*
Y5470860D03*
X2070560Y640560D03*
Y700560D03*
X2068020Y1138400D03*
Y1198400D03*
X2065480Y1511780D03*
Y1571780D03*
X2367740Y4891560D03*
Y4831560D03*
X2677620Y2174720D03*
Y2234720D03*
X2723340Y2824960D03*
Y2884960D03*
X2799540Y4091460D03*
Y4031460D03*
X2443940Y4891560D03*
Y4831560D03*
X2520140Y4891560D03*
Y4831560D03*
X3015440Y2367760D03*
Y2427760D03*
X2964640Y2367760D03*
Y2427760D03*
X2913840Y2367760D03*
Y2427760D03*
X2863040Y4035580D03*
Y3975580D03*
X3078040Y4167280D03*
Y4227280D03*
X3027640Y4166960D03*
Y4226960D03*
X3385240Y3685860D03*
X3475240D03*
X3493240Y3976860D03*
Y3916860D03*
X3385240Y3745860D03*
X3475240D03*
X3245240Y4215860D03*
Y4155860D03*
X3382840Y4157280D03*
Y4217280D03*
X3321880D03*
Y4157280D03*
G54D31*
X754840Y5052060D03*
X2164540Y5077460D03*
G54D13*
X400050Y5649470D03*
G54D40*
X958040Y4480560D03*
G54D22*
X869930Y2131060D03*
X875790Y2540750D03*
X704790Y2541950D03*
X726900Y2258850D03*
Y2358870D03*
X869930Y2359660D03*
X877550Y2877820D03*
X875790Y2640770D03*
X704790Y2641970D03*
X708490Y2725150D03*
Y2825170D03*
X710690Y2911050D03*
X877550Y3103880D03*
Y2994660D03*
X878360Y3219480D03*
X878030Y3303410D03*
X796690Y3119350D03*
Y3219370D03*
X710690Y3011070D03*
X969950Y2131060D03*
Y2359660D03*
X977570Y2877820D03*
Y3103880D03*
Y2994660D03*
X978380Y3219480D03*
X978050Y3303410D03*
X958800Y4861560D03*
X1058880D03*
X1046940Y4951220D03*
Y5051300D03*
X1523700Y1998980D03*
X1423620D03*
X1669240Y2144550D03*
X1572720D03*
X1669240Y2244570D03*
X1572720D03*
X2052020Y924560D03*
X1951940D03*
X1954480Y1280160D03*
X2054560D03*
Y1432560D03*
X1954480D03*
X1862280Y2144550D03*
X1765760D03*
X1862280Y2244570D03*
X1765760D03*
X2101800Y162560D03*
X2201880D03*
X2154380Y1551180D03*
Y1451100D03*
X2250900Y1551180D03*
Y1451100D03*
X2126440Y3933670D03*
Y3833650D03*
X2666240Y3909850D03*
Y4009870D03*
X3146760Y1353820D03*
X3046680D03*
X2979880Y2124230D03*
X2883360D03*
X2979880Y2224250D03*
X2883360D03*
X2940500Y2729360D03*
X3040580D03*
X2940530Y2811460D03*
X3040550D03*
X3002940Y3026920D03*
Y3127000D03*
X2940540Y3366370D03*
Y3266350D03*
X3026840Y3365070D03*
Y3265050D03*
G54D23*
X865180Y1945640D03*
Y2245360D03*
X871170Y2766660D03*
X1005180Y1945640D03*
Y2245360D03*
X1011170Y2766660D03*
X1078540Y4048760D03*
X1218540D03*
X2760020Y1432560D03*
X2703040Y3276560D03*
X2843040D03*
X2767940Y5090160D03*
X2627940D03*
X2900020Y1432560D03*
X3192120Y1587500D03*
X3052120D03*
X3123240Y3337560D03*
X3400400Y1353820D03*
X3260400D03*
X3263240Y3337560D03*
G54D32*
X937010Y5423880D03*
X1741070Y5423830D03*
X2562610Y5423880D03*
X3366670Y5423830D03*
G54D41*
X1256840Y4183660D03*
Y4853660D03*
X1296840Y4183660D03*
X1336840D03*
X1376840D03*
X1416840D03*
X1456840D03*
X1496840D03*
X1536840D03*
X1576840D03*
X1616840D03*
X1656840D03*
Y4853660D03*
X1616840D03*
X1576840D03*
X1536840D03*
X1496840D03*
X1456840D03*
X1416840D03*
X1376840D03*
X1336840D03*
X1296840D03*
X1696840Y4183660D03*
X1736840D03*
X1776840D03*
X1696840Y4853660D03*
X1776840D03*
X1736840D03*
G54D14*
X671760Y236220D03*
X3461740Y1838960D03*
G54D50*
X1631260Y3062840D03*
Y3112840D03*
Y3162840D03*
Y3212840D03*
Y3262840D03*
Y3312840D03*
Y3362840D03*
X1681260Y2762840D03*
Y2812840D03*
Y2862840D03*
Y2912840D03*
X1731260Y2762840D03*
Y2812840D03*
Y2862840D03*
Y2912840D03*
X1781260Y2762840D03*
Y2812840D03*
X1831260Y2712840D03*
X1881260D03*
X1831260Y2762840D03*
Y2812840D03*
Y2912840D03*
X1881260Y2762840D03*
Y2812840D03*
Y2912840D03*
X1931260Y2712840D03*
Y2762840D03*
Y2812840D03*
Y2912840D03*
X1981260Y2712840D03*
Y2762840D03*
Y2812840D03*
Y2912840D03*
X2031260Y2712840D03*
Y2762840D03*
Y2812840D03*
Y2912840D03*
X1781260Y2862840D03*
X1681260Y2962840D03*
Y3012840D03*
Y3062840D03*
Y3112840D03*
Y3162840D03*
Y3212840D03*
Y3262840D03*
Y3312840D03*
X1731260Y2962840D03*
Y3012840D03*
Y3062840D03*
Y3112840D03*
Y3162840D03*
Y3212840D03*
Y3262840D03*
Y3312840D03*
X1781260Y3262840D03*
Y3312840D03*
X1831260Y2962840D03*
Y3012840D03*
Y3062840D03*
Y3112840D03*
Y3162840D03*
Y3262840D03*
Y3312840D03*
X1881260Y3162840D03*
Y3262840D03*
Y3312840D03*
X1931260Y3162840D03*
Y3262840D03*
Y3312840D03*
X1981260Y3162840D03*
Y3262840D03*
Y3312840D03*
X2031260Y3162840D03*
Y3262840D03*
Y3312840D03*
X1681260Y3362840D03*
X1731260D03*
X1781260D03*
X1831260D03*
X1881260D03*
X1931260D03*
X1981260D03*
X2031260D03*
X2081260Y2712840D03*
Y2762840D03*
Y2812840D03*
Y2912840D03*
X2131260Y2712840D03*
Y2762840D03*
Y2812840D03*
X2181260Y2712840D03*
Y2762840D03*
Y2812840D03*
Y2862840D03*
Y2912840D03*
X2231260Y2712840D03*
Y2762840D03*
Y2812840D03*
Y2862840D03*
Y2912840D03*
X2281260Y2812840D03*
Y2862840D03*
Y2912840D03*
X2081260Y2962840D03*
Y3012840D03*
Y3062840D03*
Y3112840D03*
Y3162840D03*
Y3262840D03*
Y3312840D03*
X2131260Y3262840D03*
Y3312840D03*
X2181260Y2962840D03*
Y3012840D03*
Y3062840D03*
Y3112840D03*
Y3162840D03*
Y3212840D03*
Y3262840D03*
Y3312840D03*
X2231260Y2962840D03*
Y3012840D03*
Y3062840D03*
Y3112840D03*
Y3162840D03*
Y3212840D03*
Y3262840D03*
Y3312840D03*
X2281260Y2962840D03*
Y3012840D03*
Y3062840D03*
Y3112840D03*
Y3162840D03*
Y3212840D03*
Y3262840D03*
Y3312840D03*
X2081260Y3362840D03*
X2131260D03*
X2181260D03*
X2231260D03*
X2281260D03*
G54D24*
X630130Y3578860D03*
X930350D03*
G54D60*
X2282370Y667740D03*
X2322350D03*
X2362360D03*
X2402360D03*
Y1267740D03*
X2362360D03*
X2322350D03*
X2282370D03*
X2442370Y667740D03*
X2482370D03*
X2522350D03*
X2562350D03*
X2602360D03*
X2642360D03*
X2682370D03*
X2722350D03*
Y1267740D03*
X2682370D03*
X2642360D03*
X2602360D03*
X2562350D03*
X2522350D03*
X2482370D03*
X2442370D03*
G54D51*
X1661840Y4706160D03*
G54D33*
X754050Y5861350D03*
X1924030D03*
X2379650D03*
X3549630D03*
G54D42*
X1181840Y4498660D03*
Y4458660D03*
Y4418660D03*
Y4378660D03*
Y4338660D03*
Y4298660D03*
Y4258660D03*
Y4778660D03*
Y4738660D03*
Y4698660D03*
Y4658660D03*
Y4618660D03*
Y4578660D03*
Y4538660D03*
X1851840Y4258660D03*
Y4298660D03*
Y4338660D03*
Y4378660D03*
Y4418660D03*
Y4458660D03*
Y4498660D03*
Y4538660D03*
Y4578660D03*
Y4618660D03*
Y4658660D03*
Y4698660D03*
Y4738660D03*
Y4778660D03*
G54D15*
X833530Y502950D03*
G54D16*
Y462970D03*
X923550Y502950D03*
Y462970D03*
G54D52*
X1801320Y152400D03*
G54D70*
X3380840Y3407260D03*
X3420840D03*
X3460840D03*
Y3576260D03*
X3420840D03*
X3380840D03*
G54D43*
X1516840Y4413660D03*
G54D25*
X754840Y3911460D03*
Y4211460D03*
G54D34*
X1081760Y236220D03*
X3051740Y1838960D03*
G54D61*
X2189180Y1908810D03*
X2409140D03*
Y2068830D03*
X2189180D03*
G54D80*
G01X710690Y2911050D02*
X588570D01*
X562590Y2937030D01*
G01X708490Y2725150D02*
X576350D01*
X562590Y2738910D01*
G01X877550Y2877820D02*
Y2994660D01*
G01X795480Y3282360D02*
X812970Y3299850D01*
X850460D01*
X854020Y3303410D01*
X878030D01*
G01X877550Y3103880D02*
Y2994660D01*
G01X878360Y3219480D02*
Y3104690D01*
X877550Y3103880D01*
G01X878360Y3219480D02*
Y3303080D01*
X878030Y3303410D01*
G01X796690Y3219370D02*
X795490Y3266430D01*
Y3282350D01*
X795480Y3282360D01*
G01X1507440Y624080D02*
Y700280D01*
X1486360Y721360D01*
G01X1801320Y152400D02*
X1852120Y101600D01*
X1933880D01*
G01X2151840Y85860D02*
X2252940D01*
G01D02*
X2329640Y162560D01*
G01D02*
X2360120D01*
G01X2455370Y3420490D02*
X2556440Y3521560D01*
X2812240D01*
G01X2520140Y321060D02*
X2560540D01*
X2585040Y345560D01*
G01X2883360Y2224250D02*
X2880650Y2226960D01*
X2861930D01*
X2844550Y2244340D01*
X2769060D01*
G01X3134040Y2290460D02*
X3027500D01*
X3025640Y2292320D01*
X2886380D01*
X2800140Y2378560D01*
Y2440460D01*
G01X2455370Y3267710D02*
Y3420490D01*
G01X2812240Y3521560D02*
X2842640D01*
X2866140Y3545060D01*
G01X2883360Y2224250D02*
X2979880D01*
G01X3442640Y2118360D02*
X3426190D01*
X3393900Y2150650D01*
Y2221050D01*
X3324490Y2290460D01*
X3134040D01*
G01X3040580Y2729360D02*
X3099390Y2670550D01*
Y2505860D01*
G01D02*
X3134040Y2471210D01*
Y2290460D01*
G54D53*
X1968960Y821940D03*
Y681740D03*
X1966420Y1029720D03*
Y1169920D03*
X1974040Y1565760D03*
Y1705760D03*
X1976580Y2099160D03*
Y2239160D03*
X2075640Y4105760D03*
X2041240Y4499960D03*
Y4359760D03*
X2075640Y4245760D03*
X2347740Y322160D03*
Y462160D03*
X2363930Y1619400D03*
Y1479400D03*
X2240740Y5832960D03*
Y5972960D03*
X2520140Y321160D03*
Y461160D03*
X2496010Y1619400D03*
Y1479400D03*
X2769060Y2104240D03*
Y2244240D03*
X2812240Y3521560D03*
Y3661560D03*
X3442240Y1050360D03*
Y1190360D03*
G54D26*
X691340Y4555740D03*
Y4735580D03*
X2494740Y5167380D03*
Y4987540D03*
X2812240Y4913380D03*
Y4733540D03*
G54D35*
X878540Y527970D03*
Y437950D03*
G54D71*
X3995250Y5295860D03*
G54D44*
X1369340Y4706160D03*
G54D17*
X787350Y624080D03*
X877520D03*
Y1783840D03*
X787350D03*
X967440Y624080D03*
X1057350D03*
X1147520D03*
X1237440D03*
Y1783840D03*
X1147520D03*
X1057350D03*
X967440D03*
X1327360Y624080D03*
X1417530D03*
X1507440D03*
X1597360D03*
Y1783840D03*
X1507440D03*
X1417530D03*
X1327360D03*
X1687530Y624080D03*
Y1783840D03*
G54D62*
X2382440Y4163860D03*
X2255440D03*
Y4703860D03*
X2382440D03*
X2636440Y4163860D03*
X2509440D03*
Y4703860D03*
X2636440D03*
G54D81*
G01X1966420Y1169920D02*
Y1169820D01*
X2019990Y1116250D01*
Y1098980D01*
G01X3027640Y4166960D02*
X2929760D01*
X2875740Y4220980D01*
Y4337090D01*
X2782610Y4430220D01*
Y4497630D01*
X2794940Y4509960D01*
Y4531360D01*
G01D02*
Y4574940D01*
X2789530Y4580350D01*
G01X3245240Y4155860D02*
Y4098480D01*
X3195240Y4048480D01*
X3152980D01*
G01X3078040Y4167280D02*
X3027960D01*
X3027640Y4166960D01*
G01X3256260Y3967480D02*
Y3891360D01*
X3271200Y3876420D01*
G01X3382840Y4157280D02*
X3321880D01*
G01D02*
X3245240Y4155860D01*
G54D45*
X1052530Y5293860D03*
X1102540D03*
X1152530D03*
X1202540D03*
X1252530D03*
X1302540D03*
X1352530D03*
X1402540D03*
X1452550D03*
X1502540D03*
X1552550D03*
X1602540D03*
X2678130D03*
X2728140D03*
X2778130D03*
X2828140D03*
X2878130D03*
X2928140D03*
X2978130D03*
X3028140D03*
X3078150D03*
X3128140D03*
X3178150D03*
X3228140D03*
G54D72*
X3695230Y5295860D03*
G54D54*
X1681260Y2712840D03*
X1731260D03*
X1781260D03*
G54D36*
X1261240Y2180340D03*
X1096240D03*
X1261240Y2296340D03*
X1096240D03*
X1493240Y2180160D03*
X1328240D03*
X1493240Y2296160D03*
X1328240D03*
G54D27*
X883040Y4336060D03*
Y4625060D03*
X1033040Y4336060D03*
X983040D03*
X933040D03*
Y4625060D03*
X983040D03*
X1033040D03*
G54D63*
X2128740Y5404260D03*
G54D18*
X657560Y933960D03*
Y844040D03*
Y753870D03*
Y1384050D03*
Y1293880D03*
Y1203960D03*
Y1114040D03*
Y1023870D03*
Y1654050D03*
Y1563880D03*
Y1473960D03*
X1817320Y753870D03*
Y844040D03*
Y933960D03*
Y1023870D03*
Y1114040D03*
Y1203960D03*
Y1293880D03*
Y1384050D03*
Y1473960D03*
Y1563880D03*
Y1654050D03*
G54D82*
G01X833530Y462970D02*
X793240D01*
G01X877520Y624080D02*
Y528990D01*
X878540Y527970D01*
G01X1496520Y101600D02*
X1334920D01*
G02X1255700Y180820I0J79220D01*
G01Y328140D01*
G01Y388140D02*
Y449580D01*
G01X923550Y462970D02*
X1223370D01*
G02X1255700Y449580I2J-45720D01*
G01X1261240Y2180340D02*
X1321980D01*
X1328240Y2180160D01*
G01X1153740Y2180340D02*
X1203740D01*
G01X1096240D02*
X1153740D01*
G01X1203740D02*
X1261240D01*
G01X1493240Y2180160D02*
X1507890Y2179740D01*
X1572720Y2244570D01*
G01D02*
X1669240D01*
G01X1385740Y2180160D02*
X1435740D01*
G01X1328240D02*
X1385740D01*
G01X1435740D02*
X1493240D01*
G01X1669240Y2244570D02*
X1765760D01*
G01D02*
X1862280D01*
G01X1976580Y2239160D02*
X1971170Y2244570D01*
X1862280D01*
G54D73*
G01X878540Y437950D02*
Y425860D01*
X853140Y400460D01*
G01X665940Y1937060D02*
Y1937050D01*
X787780D01*
X789360Y1935480D01*
G01X865180Y1945640D02*
Y2033900D01*
X851840Y2047240D01*
G01X911840D02*
X963120D01*
X988520Y2021840D01*
G01X984240Y2433860D02*
X977160Y2440940D01*
X919460D01*
G01X945340Y4729960D02*
X983040Y4692260D01*
Y4625060D01*
G01X945340Y4729960D02*
X970240Y4754860D01*
X985240D01*
G01X1248540Y4618660D02*
X1288240Y4658360D01*
G01X1181840Y4618660D02*
X1248540D01*
G01X1616840Y4853660D02*
Y4910760D01*
X1618440Y4912360D01*
G01X1456840Y4853660D02*
Y4921560D01*
G01X1542240Y5132860D02*
Y5166360D01*
G01X1466040Y5132860D02*
Y5166360D01*
G01X1456840Y4921560D02*
Y4949360D01*
X1466040Y4958560D01*
G01D02*
X1542240D01*
G01X2065480Y1571780D02*
Y1596920D01*
X1974040Y1688360D01*
Y1705760D01*
G01D02*
Y1705860D01*
G01X1851840Y4618660D02*
X1797840D01*
X1758140Y4658360D01*
G01X2014540Y5117460D02*
X1975800D01*
X1954220Y5139040D01*
Y5177780D01*
X1928060Y5203940D01*
Y5260680D01*
X1999940Y5332560D01*
X2107140D01*
X2124540Y5315160D01*
G01X1931100Y5612020D02*
X1970240Y5572880D01*
Y5530860D01*
G01X2442370Y667740D02*
Y600920D01*
X2436240Y594790D01*
G01X2402360Y667740D02*
Y621980D01*
X2393060Y612680D01*
Y563380D01*
G01D02*
X2381240Y551560D01*
G01X2345140Y592660D02*
X2355040Y608360D01*
G01X2322350Y607050D02*
X2336740Y592660D01*
X2345140D01*
G01X2202360Y827740D02*
X2151430D01*
X2128880Y805180D01*
G01X2202360Y787730D02*
X2146330D01*
X2128880Y805180D01*
G01X2322350Y667740D02*
Y607050D01*
G01X2355040Y608360D02*
Y622600D01*
X2362360Y629920D01*
Y667740D01*
G01X2115520Y874010D02*
X2121790Y867740D01*
G01X2114730Y927220D02*
X2134200Y907750D01*
G01X2121790Y867740D02*
X2202360D01*
G01X2134200Y907750D02*
X2202360D01*
G01X2362660Y1107440D02*
X2362360Y1107740D01*
G01D02*
Y1267740D01*
G01X2054560Y1432560D02*
Y1372430D01*
X2108660Y1318330D01*
Y1204480D01*
X2113040Y1200100D01*
Y1200090D01*
X2134900Y1178230D01*
Y1142160D01*
X2139140Y1137920D01*
G01X2202360Y1107740D02*
X2169320D01*
X2139140Y1137920D01*
G01X2202360Y1147750D02*
X2148970D01*
X2139140Y1137920D01*
G01X2402360Y1347010D02*
Y1267740D01*
G01X2202360Y1067740D02*
X2163600D01*
X2156620Y1074720D01*
X2155620D01*
X2101880Y1128470D01*
Y1164540D01*
X2068020Y1198400D01*
G01D02*
X2054560Y1211860D01*
Y1280160D01*
G01X2126440Y1636650D02*
X2113740Y1649350D01*
Y1720850D01*
X2148030Y1755140D01*
X2185340D01*
G01Y1635760D02*
X2127330D01*
G01X2068340Y4776460D02*
Y4806760D01*
X2062240Y4812860D01*
G01X2108340Y4776460D02*
Y4796960D01*
X2118240Y4806860D01*
Y4820860D01*
X2116240Y4822860D01*
G01X2068340Y4616460D02*
Y4592960D01*
X2064240Y4588860D01*
Y4574860D01*
G01X2108340Y4616460D02*
Y4588760D01*
X2116240Y4580860D01*
Y4548860D01*
X2120240Y4544860D01*
G01X2222500Y4826000D02*
X2211500Y4815000D01*
X2173080D01*
X2148340Y4790260D01*
Y4776460D01*
G01X2124540Y5315160D02*
Y5227460D01*
G01X2238740Y5469260D02*
X2239920Y5469950D01*
X2311330D01*
X2325440Y5484060D01*
G01X2168740Y5399260D02*
X2171760Y5396240D01*
X2312640D01*
X2335510Y5373370D01*
G01X2238740Y5429260D02*
X2345910D01*
G01X2393240Y5448860D02*
Y5492040D01*
X2394940Y5493740D01*
Y5576960D01*
X2373860Y5598040D01*
X2193270D01*
X2156780Y5634530D01*
Y5645770D01*
G01X2210240Y5350860D02*
X2189240Y5329860D01*
X2139240D01*
X2124540Y5315160D01*
G01X2602360Y667740D02*
Y626440D01*
X2623340Y605460D01*
X2664490D01*
G01D02*
X2748740Y521210D01*
G01X2562350Y667740D02*
Y565450D01*
G01D02*
X2562240Y565340D01*
Y551860D01*
G01X2642060Y828040D02*
X2642360Y827740D01*
G01D02*
Y667740D01*
G01X2802360Y987730D02*
X2847800D01*
X2857400Y978130D01*
X2875330D01*
G01X2482370Y1267740D02*
Y1361770D01*
X2504900Y1384300D01*
G01X2589230Y1999490D02*
Y1368880D01*
X2562350Y1342010D01*
Y1267740D01*
G01X2802360Y1107740D02*
X2904110D01*
X3013030Y1216660D01*
X3078940D01*
X3111960Y1249680D01*
G01X2802360Y1147750D02*
X2883030D01*
X2890980Y1155700D01*
G01X2646020Y1102820D02*
X2681100Y1067740D01*
G01X2646020Y1102820D02*
X2602360Y1146480D01*
G01X2681100Y1067740D02*
X2802360D01*
G01X2602360Y1146480D02*
Y1267740D01*
G01X2884630Y1210310D02*
X2867840D01*
X2845260Y1187730D01*
X2802360D01*
G01X2642360Y1356660D02*
Y1267740D01*
G01X2802360Y1027730D02*
X2875740D01*
G01X2722350Y1267740D02*
Y1322350D01*
G01X2682370Y1267740D02*
Y1325550D01*
G01D02*
X2708100Y1351280D01*
G01X2677620Y2174720D02*
Y2087880D01*
X2589230Y1999490D01*
G01X2769060Y2244340D02*
X2719920D01*
X2709040Y2233460D01*
X2678880D01*
X2677620Y2234720D01*
G01X2782240Y3921760D02*
X2781040Y3920560D01*
Y3875360D01*
X2783440Y3872960D01*
G01X2918240Y4926860D02*
Y4994930D01*
X2832060Y5081110D01*
Y5139750D01*
X2805450Y5166360D01*
X2754240D01*
X2705240Y5215360D01*
G01X3052870Y874480D02*
Y874490D01*
X3052610Y874750D01*
X3042370D01*
X3041380Y873760D01*
X2994640D01*
G01X3111960Y1249680D02*
Y1272540D01*
G01X2863040Y3975580D02*
X2905740D01*
X2911300Y3970020D01*
G01D02*
X2993060D01*
G01X3157770Y3883850D02*
Y3892990D01*
X3196260Y3931480D01*
Y3967480D01*
G01X2912400Y4446460D02*
X2908400D01*
X2867640Y4487220D01*
Y4518660D01*
X2854940Y4531360D01*
G01X3380840Y3407260D02*
Y3322360D01*
X3373240Y3314760D01*
G01X3420840Y3576260D02*
Y3646560D01*
X3427440Y3653160D01*
G01X3353740Y3882860D02*
X3353850Y3924890D01*
X3353060Y3925680D01*
G54D37*
X1203740Y2180340D03*
X1153740D03*
Y2296340D03*
X1203740D03*
X1435740Y2180160D03*
X1385740D03*
Y2296160D03*
X1435740D03*
G54D46*
X1077550Y5453850D03*
X1127530D03*
X1177550D03*
X1227530D03*
X1277550D03*
X1327530D03*
X1377550D03*
X1427530D03*
X1477550D03*
X1527530D03*
X1577550D03*
X1627530D03*
X2703150D03*
X2753130D03*
X2803150D03*
X2853130D03*
X2903150D03*
X2953130D03*
X3003150D03*
X3053130D03*
X3103150D03*
X3153130D03*
X3203150D03*
X3253130D03*
G54D28*
X674840Y4902060D03*
X714840D03*
X754840D03*
X794840D03*
X834840D03*
Y5202060D03*
X794840D03*
X754840D03*
X714840D03*
X674840D03*
X2084540Y4927460D03*
X2124540D03*
X2164540D03*
X2204540D03*
X2244540D03*
Y5227460D03*
X2204540D03*
X2164540D03*
X2124540D03*
X2084540D03*
X2168740Y5399260D03*
X2128740Y5539260D03*
X2168740D03*
G54D55*
X1847040Y3728210D03*
Y3988310D03*
X2748740Y261110D03*
Y521210D03*
X2807160Y1675890D03*
Y1935990D03*
X3213560Y896110D03*
Y1156210D03*
G54D19*
X877520Y933960D03*
Y1114040D03*
Y1293880D03*
G54D64*
X2909750Y123570D03*
X3476730D03*
G54D74*
G01X1039740Y2443960D02*
X1060430Y2423270D01*
Y2107750D01*
G01X1631270Y2862830D02*
X1588600D01*
G01X1121490Y2757310D02*
Y2761880D01*
X1120320Y2763050D01*
Y2830010D01*
X1150350Y2860040D01*
X1150940D01*
X1257390Y2966490D01*
X1468100D01*
X1521730Y2912860D01*
X1631260Y2912840D01*
G01X1575260Y2988080D02*
X1617820D01*
X1617830Y2988070D01*
X1656030D01*
X1681260Y2962840D01*
G01X1560440Y2887610D02*
X1656030D01*
X1681260Y2912840D01*
G01X1631260Y2812840D02*
X1581130Y2812850D01*
X1530620D01*
G01X1681250Y2862830D02*
X1655480Y2837060D01*
X1645240D01*
X1644690Y2837610D01*
X1617830D01*
X1617280Y2837060D01*
X1590240D01*
G01X1731260Y2762840D02*
X1756490Y2737610D01*
Y2690370D01*
X1730580Y2664460D01*
G01X1547410Y2738070D02*
X1656490D01*
X1681260Y2762840D01*
G01X1566930Y2788070D02*
X1656490D01*
X1681260Y2812840D01*
G01X2306780Y2727960D02*
X2296670Y2738070D01*
G01D02*
X2256030D01*
G54D29*
X907040Y5351160D03*
X1771040D03*
X2532640D03*
X3396640D03*
G54D65*
X3166900Y667610D03*
X3366900D03*
G54D47*
X1496520Y101600D03*
Y203200D03*
G54D38*
X1288240Y2788920D03*
X1486360Y721360D03*
X1312980Y2459690D03*
X1336500Y2834640D03*
X2128880Y749000D03*
Y805180D03*
X2397240Y1398860D03*
X2455370Y3267710D03*
X2393140Y3268980D03*
X2766520Y1351280D03*
X2708100D03*
X2931620Y977900D03*
X2875330Y978130D03*
X3111960Y1272540D03*
X3169870Y1272490D03*
X3228800Y1272540D03*
X3066240Y1509060D03*
G54D56*
X2028340Y4616460D03*
Y4656460D03*
Y4696460D03*
Y4736460D03*
Y4776460D03*
X2148340Y4616460D03*
X2108340D03*
X2068340D03*
X2148340Y4656460D03*
X2108340D03*
X2068340D03*
X2148340Y4696460D03*
X2108340D03*
X2068340D03*
X2148340Y4736460D03*
X2108340D03*
X2068340D03*
X2148340Y4776460D03*
X2108340D03*
X2068340D03*
X2116780Y5685770D03*
X2156780D03*
X2196780D03*
X2116780Y5645770D03*
X2156780D03*
X2196780D03*
X2116780Y5725770D03*
X2156780D03*
X2196780D03*
G54D75*
G01X1302540Y5293860D02*
Y5327150D01*
X1330120Y5354730D01*
X1340900D01*
X1377550Y5391380D01*
Y5453850D01*
G01X2024840Y5394960D02*
Y5395360D01*
X2058740Y5429260D01*
G01X2128740Y5404260D02*
Y5393690D01*
X2117310Y5382260D01*
X2077840D01*
X2077240Y5382860D01*
G01X2076240Y5549860D02*
X2089500Y5563120D01*
X2126970D01*
X2128740Y5561350D01*
Y5539260D01*
G01X3392360Y3846060D02*
X3369860Y3823560D01*
X3303130D01*
X3271630Y3792060D01*
X3153440D01*
X3123840Y3762460D01*
Y3685860D01*
G01X3155460Y4121140D02*
X3153400Y4123200D01*
X3130880D01*
X3081540Y4073860D01*
Y3994500D01*
X3057060Y3970020D01*
X3053060D01*
G01X2978240Y5240860D02*
Y5293750D01*
X2978130Y5293860D01*
G01D02*
Y5324830D01*
X2951300Y5351660D01*
Y5452020D01*
X2953130Y5453850D01*
G01X3650440Y2067560D02*
X3622590Y2095410D01*
Y2130270D01*
X3545600Y2207260D01*
X3502640D01*
G54D57*
X2360120Y162560D03*
X2537920D03*
X3099390Y2505860D03*
X3194640Y2734460D03*
X2964090Y3576060D03*
X3154590D03*
X3059340Y3804660D03*
X3289890Y2505860D03*
G54D66*
X2993240Y338560D03*
X3393240D03*
G54D48*
X1679400Y2065020D03*
X1670560Y2398980D03*
X1668020Y2505630D03*
X1510570Y2398980D03*
X1508030Y2505630D03*
X1781000Y2065020D03*
X1830560Y2398980D03*
X1990550D03*
X1988010Y2505630D03*
X1828020D03*
G54D39*
X1256490Y3616960D03*
X1161240D03*
X1065990D03*
Y3870960D03*
X1256490D03*
X1599390Y3680460D03*
X1504140D03*
X1408890D03*
Y3934460D03*
X1599390D03*
G54D76*
G01X671760Y236220D02*
X664140Y228600D01*
X593730D01*
G01X833530Y502950D02*
X818850D01*
X799940Y521860D01*
G01X657560Y1023870D02*
X737520D01*
X750740Y1010650D01*
Y984650D01*
G01X657560Y753870D02*
X736570D01*
X810720Y828020D01*
Y970430D01*
G01X657560Y933960D02*
X745110D01*
X750780Y928290D01*
G01X657560Y844040D02*
X746360D01*
X750780Y848460D01*
G01X657560Y1654050D02*
Y1868680D01*
X665940Y1877060D01*
G01X1765950Y1739710D02*
Y1837650D01*
X1726540Y1877060D01*
X665940D01*
G01X859460Y2440940D02*
X870100D01*
X890020Y2460860D01*
X890030D01*
X897620Y2468450D01*
X966740D01*
X968980Y2470690D01*
X999500D01*
X1000330Y2469860D01*
X1013840D01*
X1039740Y2443960D01*
G01X1060430Y2107750D02*
X1215680Y1952500D01*
X1560520D01*
X1583880Y1975860D01*
X1997240D01*
X2027240Y1945860D01*
Y1827190D01*
X2074370Y1780060D01*
Y1636930D01*
X2097740Y1613560D01*
Y1544040D01*
X2065480Y1511780D01*
G01X859460Y2440940D02*
X856940D01*
X790900Y2506980D01*
X788600D01*
G01X1065990Y3870960D02*
Y3889630D01*
X956390Y3999230D01*
X857870D01*
X818240Y4038860D01*
G01X834840Y4902060D02*
Y4870460D01*
X841240Y4864060D01*
Y4849860D01*
G01X794840Y4902060D02*
Y4868700D01*
X790240Y4864100D01*
Y4842860D01*
X788240Y4840860D01*
G01X604840Y4972060D02*
X555440D01*
G01X604840Y5012060D02*
X538940D01*
X526240Y5024760D01*
Y5052060D01*
G01X754840Y5202060D02*
Y5293360D01*
X745470Y5302730D01*
G01X1252530Y5293860D02*
Y5262000D01*
X1222880Y5232350D01*
X1032190D01*
X1019680Y5244860D01*
X963950D01*
X938740Y5219650D01*
X852430D01*
X834840Y5202060D01*
G01X794840D02*
Y5269860D01*
X805640Y5280660D01*
G01X923550Y502950D02*
X929930D01*
X952590Y525610D01*
G01X1237440Y624080D02*
Y704600D01*
X1250140Y717300D01*
X1283160D01*
G01X1188220Y2794080D02*
X1183840Y2789700D01*
Y2695600D01*
X1150240Y2662000D01*
Y2501470D01*
X1261240Y2390470D01*
Y2296340D01*
G01X1153740D02*
Y2406960D01*
X1076240Y2484460D01*
Y2652660D01*
X1118940Y2695360D01*
Y2754760D01*
X1121490Y2757310D01*
G01X1036870Y2569700D02*
Y2487140D01*
X1096240Y2427770D01*
Y2296340D01*
G01X1113410Y2571860D02*
Y2486190D01*
X1203740Y2395860D01*
Y2296340D01*
G01X1328240Y2296160D02*
Y2367860D01*
X1362880Y2402500D01*
Y2469270D01*
X1351830Y2480320D01*
Y2480330D01*
X1313500Y2518660D01*
X1262490D01*
X1190190Y2590960D01*
G01X1631260Y2862840D02*
X1631270Y2862830D01*
G01X1588600D02*
X1500680D01*
X1500290Y2863220D01*
X1500280D01*
X1441460Y2922040D01*
X1275810D01*
X1193980Y2840210D01*
Y2802500D01*
X1188220Y2796740D01*
Y2794080D01*
G01X1036870Y2569700D02*
Y2653890D01*
X1084660Y2701680D01*
Y2824890D01*
X1141400Y2881630D01*
X1141990D01*
X1248440Y2988080D01*
X1575260D01*
G01X1113410Y2571860D02*
Y2657500D01*
X1160980Y2705070D01*
Y2769230D01*
X1151390Y2778820D01*
Y2829950D01*
X1266340Y2944900D01*
X1454310D01*
X1511600Y2887610D01*
X1560440D01*
G01X1530620Y2812850D02*
X1485990D01*
X1422520Y2876320D01*
X1294750D01*
X1247910Y2829480D01*
Y2721230D01*
X1246140Y2719460D01*
G01D02*
Y2618350D01*
X1374690Y2489800D01*
Y2489790D01*
X1385740Y2478740D01*
Y2296160D01*
G01X1681260Y2862840D02*
X1681250Y2862830D01*
G01X1590240Y2837060D02*
X1494110D01*
X1431990Y2899180D01*
X1285280D01*
X1225050Y2838950D01*
Y2760790D01*
X1206700Y2742440D01*
Y2607470D01*
X1190190Y2590960D01*
G01D02*
X1188540D01*
G01X1105840Y3223260D02*
Y3180560D01*
X1085040Y3159760D01*
G01X1105840Y3223260D02*
Y3274060D01*
G01X1165840Y3223260D02*
Y3195360D01*
X1156970Y3186490D01*
Y3154430D01*
X1165840Y3145560D01*
Y3108960D01*
G01X1554940Y3210560D02*
X1542240Y3223260D01*
Y3274060D01*
X1529540Y3286760D01*
X1402540D01*
X1389840Y3274060D01*
Y3147060D01*
X1356340Y3113560D01*
X1237440D01*
G01X1165840Y3108960D02*
X1232840D01*
X1237440Y3113560D01*
G01X1165840Y3223260D02*
Y3274060D01*
G01Y3058160D02*
Y3108960D01*
G01X1205240Y4126860D02*
X1268390D01*
X1296840Y4155310D01*
Y4183660D01*
G01X1181840Y4298660D02*
X1131840D01*
X1115240Y4282060D01*
Y4274860D01*
G01X1181840Y4258660D02*
X1154720D01*
X1131550Y4235490D01*
X1098930D01*
X1084560Y4249860D01*
X1065240D01*
G01X1256840Y4183660D02*
X1215040D01*
X1213240Y4181860D01*
G01X1181840Y4458660D02*
X1105440D01*
X1098240Y4465860D01*
Y4469860D01*
X1100240Y4471860D01*
G01X1181840Y4498660D02*
X1153480D01*
X1126280Y4525860D01*
X1096240D01*
G01X958800Y4861560D02*
Y4835400D01*
X983240Y4810960D01*
Y4808860D01*
G01X1181840Y4698660D02*
X1136440D01*
X1126240Y4708860D01*
X1091240D01*
G01X1181840Y4658660D02*
X1131040D01*
X1117240Y4644860D01*
G01X1181840Y4738660D02*
X1133940D01*
X1121240Y4751360D01*
Y4793860D01*
X1156240Y4828860D01*
G01X1181840Y4538660D02*
X1153480D01*
X1105280Y4586860D01*
X1103240D01*
G01X904840Y5092060D02*
X969120D01*
X1015610Y5138550D01*
Y5163230D01*
X1033240Y5180860D01*
G01X904840Y5132060D02*
X953440D01*
X976240Y5154860D01*
G01X1817320Y933960D02*
X1748940D01*
X1730840Y952060D01*
X1651040D01*
X1558910Y1044190D01*
Y1078610D01*
G01X1327360Y624080D02*
Y694660D01*
X1387070Y754380D01*
G01X1817320Y1023870D02*
X1633430D01*
X1614040Y1043260D01*
Y1068560D01*
G01X1874240Y1863860D02*
Y1792320D01*
X1782260Y1700340D01*
X1405440D01*
X1398550Y1707230D01*
X1365930D01*
X1359040Y1700340D01*
X1343720D01*
X1266240Y1622860D01*
G01X2143240Y2159860D02*
X2125150D01*
X2076440Y2111170D01*
Y2033510D01*
X2041910Y1998980D01*
X1523700D01*
G01X1493240Y2296160D02*
Y2320860D01*
X1458600Y2355500D01*
Y2470540D01*
X1454340Y2474800D01*
Y2474810D01*
X1382740Y2546410D01*
Y2683060D01*
X1438940Y2739260D01*
X1484340D01*
G01X1345740Y2728560D02*
Y2551080D01*
X1397550Y2499270D01*
Y2499260D01*
X1435740Y2461070D01*
Y2296160D01*
G01X1484340Y2739260D02*
X1485530Y2738070D01*
X1547410D01*
G01X1345740Y2728560D02*
X1405250Y2788070D01*
X1566930D01*
G01X1336840Y4183660D02*
Y4155460D01*
X1323350Y4141970D01*
Y4141820D01*
X1313680Y4132150D01*
X1313530D01*
X1302390Y4121010D01*
Y4083710D01*
X1330240Y4055860D01*
G01X1616840Y4183660D02*
Y4115640D01*
G01X1416840Y4183660D02*
Y4155300D01*
X1384370Y4122830D01*
Y4070730D01*
X1385240Y4069860D01*
G01X1456840Y4183660D02*
Y4139610D01*
X1424050Y4106820D01*
G01X1576840Y4183660D02*
Y4157460D01*
X1566840Y4147460D01*
Y4105840D01*
X1557240Y4096240D01*
Y4056860D01*
G01X1656840Y4183660D02*
Y4097460D01*
X1611240Y4051860D01*
G01X1376840Y4183660D02*
Y4155300D01*
X1345000Y4123460D01*
Y4107780D01*
G01X1496840Y4183660D02*
Y4137500D01*
X1471870Y4112530D01*
Y4078490D01*
X1458240Y4064860D01*
G01X1536840Y4183660D02*
Y4111460D01*
X1511240Y4085860D01*
G01X1681840Y4578660D02*
X1665740D01*
X1631140Y4544060D01*
G01X1351840Y4578660D02*
X1367940D01*
X1402540Y4544060D01*
G01X1416840Y4853660D02*
Y4917130D01*
X1416510Y4917460D01*
Y4969030D01*
X1466040Y5018560D01*
G01X1576840Y4853660D02*
Y4979960D01*
X1542240Y5014560D01*
Y5018560D01*
G01X1466040D02*
Y5072860D01*
G01X1542240Y5018560D02*
Y5072860D01*
G01X1302540Y5293860D02*
Y5225960D01*
X1300040Y5223460D01*
G01X1352530Y5293860D02*
Y5229170D01*
X1354040Y5227660D01*
G01X1427530Y5453850D02*
Y5394550D01*
X1415240Y5382260D01*
G01X1327530Y5453850D02*
Y5396150D01*
G01X1944040Y581660D02*
X1907240D01*
X1886640Y602260D01*
Y620460D01*
G01X2139140Y543560D02*
X2082340D01*
X2044240Y581660D01*
X2004040D01*
G01D02*
Y518160D01*
G01X1817320Y753870D02*
X1781510D01*
X1722580Y812800D01*
G01X1817320Y844040D02*
X1874220D01*
X1900380Y817880D01*
Y765780D01*
X1912420Y753740D01*
G01X1672540Y1070160D02*
Y1092960D01*
X1693620Y1114040D01*
X1817320D01*
G01Y1293880D02*
X1759660D01*
X1732740Y1320800D01*
Y1447110D01*
X1725840Y1454030D01*
Y1456720D01*
X1724100Y1458460D01*
G01X1817320Y1203960D02*
X1728540D01*
X1692100Y1240400D01*
Y1351970D01*
G01X1817320Y1384050D02*
X1878030D01*
X1902410Y1359660D01*
Y1122020D01*
X1913330Y1111100D01*
Y1100200D01*
G01X1988010Y2505630D02*
X2193810D01*
X2316440Y2628260D01*
Y2718300D01*
X2306780Y2727960D01*
G01X1731260Y2862840D02*
Y2866180D01*
X1775920Y2910840D01*
G01X1881260Y2912840D02*
X1831270Y2962830D01*
G01X1981250Y3162830D02*
X1974040Y3155620D01*
Y3121660D01*
X1865220Y3012840D01*
X1831260D01*
G01X1981260Y3162840D02*
X1981250Y3162830D01*
G01X1831260Y2962840D02*
X1786260D01*
X1778240Y2970860D01*
G01X1731260Y2962840D02*
X1770220D01*
X1778240Y2970860D01*
G01X2081260Y2912840D02*
X2080260D01*
X2020240Y2972860D01*
G01X1691570Y4074430D02*
Y4108570D01*
X1696840Y4113840D01*
Y4183660D01*
G01X1736840D02*
Y4127640D01*
X1739240Y4125240D01*
Y4124240D01*
X1741240Y4122240D01*
Y4085860D01*
X1744240Y4082860D01*
G01X1776840Y4183660D02*
X1807440D01*
X1845240Y4145860D01*
G01X1851840Y4258660D02*
X1845040D01*
X1825240Y4238860D01*
G01X1851840Y4458660D02*
X1933440D01*
X1948240Y4443860D01*
G01X1966240Y4642860D02*
Y4519860D01*
X1945040Y4498660D01*
X1851840D01*
G01Y4298660D02*
X1905900D01*
X1918090Y4286470D01*
Y4257090D01*
X1911240Y4250240D01*
Y4235240D01*
X1910240Y4234240D01*
Y4194860D01*
G01X1981240Y4401860D02*
X1965240D01*
X1962610Y4404490D01*
X1931930D01*
X1917760Y4418660D01*
X1851840D01*
G01Y4538660D02*
X1893040D01*
X1919240Y4564860D01*
G01X1918240Y4618860D02*
Y4622760D01*
X1882340Y4658660D01*
X1851840D01*
G01X1969240Y4893860D02*
X1993240Y4869860D01*
X2102540D01*
X2124540Y4891860D01*
Y4927460D01*
G01X1987240Y4944860D02*
X2036840Y4895260D01*
X2071840D01*
X2084540Y4907960D01*
Y4927460D01*
G01X1851840Y4738660D02*
X1895040D01*
X1895240Y4738860D01*
G01X1851840Y4698660D02*
X1931660D01*
X1932000Y4699000D01*
G01X2014540Y5037460D02*
X1950540D01*
X1909240Y5078760D01*
Y5158860D01*
G01X2116780Y5685770D02*
X2090090Y5712460D01*
X2068990D01*
X2031920Y5675390D01*
G01X2058740Y5509260D02*
X2023940D01*
X2011240Y5521960D01*
Y5584860D01*
X2081240Y5654860D01*
G01X2058740Y5469260D02*
X1971840D01*
X1970240Y5470860D01*
G01X2334240Y55860D02*
X2362090Y28010D01*
X2672390D01*
X2710640Y66260D01*
Y114360D01*
G01X2070560Y700560D02*
Y782560D01*
X2057860Y795260D01*
X2047600D01*
G01X2282370Y667740D02*
X2094860D01*
X2070560Y692040D01*
Y700560D01*
G01X2202360Y747750D02*
Y718690D01*
X2191630Y707960D01*
X2179940D01*
G01X2068020Y1138400D02*
Y1100070D01*
X2083390Y1084710D01*
G01X2154380Y1451100D02*
X2106100Y1402820D01*
Y1362200D01*
X2137870Y1330430D01*
Y1216580D01*
X2166720Y1187730D01*
X2202360D01*
G01X2282370Y1267740D02*
Y1314170D01*
X2296620Y1328420D01*
Y1379220D01*
X2250900Y1424940D01*
Y1451100D01*
G01X2322350Y1267740D02*
Y1391590D01*
X2299920Y1414020D01*
Y1599440D01*
X2263600Y1635760D01*
X2245340D01*
G01X2202360Y1027730D02*
X2143290D01*
X2132590Y1038430D01*
X2129770D01*
X2121240Y1046960D01*
G01X2242800Y1706880D02*
X2245340Y1709420D01*
Y1755140D01*
G01D02*
Y1852650D01*
X2189180Y1908810D01*
G01X2325040Y1755140D02*
X2296620Y1726720D01*
Y1706880D01*
G01X2325040Y1755140D02*
Y1778560D01*
X2339720Y1793240D01*
X2488390D01*
X2509220Y1814070D01*
Y2036470D01*
X2476860Y2068830D01*
X2409140D01*
G01X2065480Y1511780D02*
X2080400Y1496860D01*
X2108240D01*
X2154000Y1451100D01*
X2154380D01*
G01X2442370Y1267740D02*
Y1414580D01*
X2432000Y1424940D01*
Y1682240D01*
X2534620Y1784860D01*
Y2221380D01*
X2423970Y2332030D01*
X2320060Y2332040D01*
G01X2702140Y2683560D02*
X2571790D01*
X2418870Y2836480D01*
Y3152170D01*
X2446560Y3179860D01*
X2518240D01*
X2610640Y3272260D01*
Y3364060D01*
X2673040Y3426460D01*
X2769540D01*
G01X2231260Y2912840D02*
X2281260Y2962840D01*
G01X2256030Y2738070D02*
X2231260Y2762840D01*
G01X2281260Y2812840D02*
X2231260Y2862840D01*
G01D02*
X2281260Y2912840D01*
G01X2181260Y2862840D02*
X2162800D01*
X2128240Y2894860D01*
G01X2231260Y2862840D02*
X2181260D01*
G01Y2912840D02*
X2132460Y2961640D01*
X2129030D01*
G01X2181260Y2962840D02*
X2146210Y2997890D01*
Y3002830D01*
X2128980Y3020060D01*
Y3034820D01*
X2123900Y3039900D01*
Y3042920D01*
G01X2382440Y4163860D02*
Y4112450D01*
X2351950Y4081960D01*
X2331950D01*
X2308890Y4058900D01*
Y4026280D01*
X2319110Y4016060D01*
Y3937990D01*
X2381240Y3875860D01*
G01X2255440Y4163860D02*
X2230000Y4138420D01*
Y4066650D01*
X2225410Y4062060D01*
Y4062030D01*
X2223850Y4060470D01*
Y3990370D01*
X2234950Y3979270D01*
Y3928150D01*
X2280240Y3882860D01*
G01X2382440Y4703860D02*
X2367740Y4718560D01*
Y4831560D01*
G01X2244540Y5227460D02*
X2302880D01*
X2336240Y5260820D01*
Y5272550D01*
X2341170Y5277480D01*
G01X2204540Y5227460D02*
Y5260820D01*
X2227690Y5283970D01*
X2275130D01*
X2288240Y5270860D01*
G01X2164540Y5227460D02*
Y5260820D01*
X2213090Y5309370D01*
X2242430D01*
X2265290Y5332230D01*
G01X2314540Y5157460D02*
X2358840D01*
X2368240Y5166860D01*
X2370240D01*
G01X2314540Y5117460D02*
X2376640D01*
X2380240Y5113860D01*
G01X2196780Y5645770D02*
X2246150D01*
X2246240Y5645860D01*
G01X2156780Y5685770D02*
Y5725770D01*
G01X2342340Y5534660D02*
X2318440D01*
X2293040Y5509260D01*
X2238740D01*
G01X2081240Y5654860D02*
X2085480Y5659100D01*
X2103450D01*
X2116780Y5645770D01*
G01X2196780Y5685770D02*
X2234900D01*
X2247600Y5698470D01*
Y5699500D01*
X2243240Y5703860D01*
G01X2097240Y5601860D02*
X2139490D01*
X2168740Y5572610D01*
Y5539260D01*
G01X2156780Y5725770D02*
Y5772210D01*
G01D02*
X2217530Y5832960D01*
X2240740D01*
G01X2116780Y5725770D02*
Y5777520D01*
X2092940Y5801360D01*
G01D02*
Y5844060D01*
X2113740Y5864860D01*
G01X2196780Y5725770D02*
Y5741400D01*
X2212240Y5756860D01*
G01X2650640Y114360D02*
Y71260D01*
X2649540Y70160D01*
G01X2826640Y77960D02*
Y111960D01*
X2823940Y114660D01*
G01X2763940D02*
Y70560D01*
G01X2802360Y827740D02*
X2917170D01*
X2934640Y810260D01*
G01X2802360Y787730D02*
X2875380D01*
G01X2802360Y907750D02*
X2857960D01*
X2873200Y892510D01*
G01X2722350Y667740D02*
Y691690D01*
X2735050Y704390D01*
X2774140D01*
X2786840Y691690D01*
Y632460D01*
G01X2802360Y747750D02*
X2862480D01*
X2875840Y734390D01*
G01X2802360Y947750D02*
X2839850D01*
X2854450Y933150D01*
X2959580D01*
X2976640Y950210D01*
Y1008550D01*
X2966400Y1018790D01*
Y1021640D01*
G01X2802360Y867740D02*
X2842260D01*
X2856870Y853140D01*
X2890680D01*
X2911300Y873760D01*
X2934640D01*
G01X2682370Y667740D02*
Y731960D01*
X2695070Y744660D01*
X2700240D01*
G01X2723340Y2884960D02*
Y2938880D01*
X2717570Y2944650D01*
G01X2458240Y3135860D02*
X2497620D01*
X2509590Y3123890D01*
X2732120D01*
X2735230Y3127000D01*
X3002940D01*
G01X2697940Y3068320D02*
X2815780D01*
X2857180Y3026920D01*
X3002940D01*
G01X2715840Y3014860D02*
X2794740D01*
X2940530Y2869070D01*
Y2811460D01*
G01X2812240Y3661560D02*
X2780740Y3709660D01*
Y3767860D01*
G01X2665450Y4010660D02*
X2662480Y4007690D01*
X2553110D01*
X2550140Y4010660D01*
G01X2509440Y4163860D02*
X2496750D01*
X2477470Y4144580D01*
Y4034860D01*
X2490140Y4022190D01*
Y4010660D01*
G01X2636440Y4703860D02*
Y4748660D01*
X2582020Y4803080D01*
X2544620D01*
X2520140Y4827560D01*
Y4831560D01*
G01X2636440Y4703860D02*
Y4667060D01*
X2583240Y4613860D01*
G01X2509440Y4703860D02*
Y4573040D01*
X2512240Y4570240D01*
Y4530860D01*
G01X2443940Y4831560D02*
Y4822160D01*
X2509440Y4756660D01*
Y4703860D01*
G01X2815240Y5036860D02*
X2767940Y5084160D01*
Y5090160D01*
G01X2995920Y409150D02*
Y622180D01*
X2934640Y683460D01*
Y810260D01*
G01X3485340Y3471760D02*
X3525750D01*
X3540350Y3486360D01*
X3543070D01*
X3617710Y3561000D01*
X3768070D01*
X3811730Y3517340D01*
Y1780860D01*
X3798790Y1767920D01*
X3662270D01*
X3588210Y1693860D01*
X3224240D01*
X3170240Y1747860D01*
G01X3200240Y1508860D02*
X3217410Y1526030D01*
X3722370D01*
X3795300Y1598960D01*
Y1728500D01*
X3837130Y1770330D01*
Y3547620D01*
X3784380Y3600370D01*
X3600250D01*
X3511640Y3511760D01*
X3485340D01*
G01X3266600Y1587500D02*
X3266900Y1587800D01*
G01X3646550Y3289860D02*
Y3276190D01*
X3549540Y3179180D01*
Y2852850D01*
X3427090Y2730400D01*
X3198700D01*
X3194640Y2734460D01*
G01X3002940Y3026920D02*
X3002740Y2936240D01*
X2982040Y2918660D01*
G01X2940530Y2811460D02*
X2939090Y2809970D01*
X2940500Y2729360D01*
G01X2829540Y3426460D02*
X2889930D01*
X2964090Y3500620D01*
Y3576060D01*
G01X2829540Y3375660D02*
Y3426460D01*
G01X3282140Y3629660D02*
X3249840Y3597360D01*
Y3523890D01*
X3177810Y3451860D01*
X3053540D01*
G01X3061240Y3517860D02*
X3085590Y3493510D01*
X3183530D01*
X3224440Y3534420D01*
Y3652790D01*
X3282240Y3710590D01*
Y3767630D01*
X3313400Y3798790D01*
X3430010D01*
X3450080Y3818860D01*
X3507240D01*
G01X2840740Y3767860D02*
X2962240D01*
X2999040Y3804660D01*
X3059340D01*
G01X2877740Y5237860D02*
X2878130Y5238250D01*
Y5293860D01*
G01X3078150Y5243350D02*
X3078940Y5242560D01*
Y5240160D01*
G01X2928140Y5293860D02*
Y5183760D01*
X2926140Y5181760D01*
Y5168760D01*
G01X3053130Y5453850D02*
Y5382670D01*
G01X3003150Y5453850D02*
Y5395370D01*
X2990040Y5382260D01*
G01X3461740Y1838960D02*
X3466900Y1833800D01*
X3740210D01*
X3740290Y1833880D01*
X3772360D01*
G01X3502640Y2118360D02*
X3559740D01*
X3560240Y2118860D01*
G01X3548840Y2054860D02*
X3502640D01*
G01X3701240Y1927860D02*
X3628540D01*
X3548840Y2007560D01*
Y2054860D01*
G01X3289890Y2505860D02*
X3304290Y2491460D01*
X3454840D01*
X3506740Y2439560D01*
Y2211360D01*
X3502640Y2207260D01*
G01X3768200Y3300670D02*
X3739640Y3329230D01*
X3490380D01*
X3460840Y3358760D01*
Y3407260D01*
G01X3646550Y3289860D02*
X3474270D01*
X3420840Y3343290D01*
Y3407260D01*
G01X3356340Y3471760D02*
X3304840D01*
X3285840Y3490760D01*
G01X3356340Y3511760D02*
X3338150D01*
X3299320Y3550590D01*
G01X3385240Y3685860D02*
X3363350D01*
X3307150Y3629660D01*
X3282140D01*
G01X3385240Y3685860D02*
Y3661260D01*
X3380840Y3656860D01*
Y3576260D01*
G01X3460840D02*
Y3631460D01*
X3475240Y3645860D01*
Y3685860D01*
G01D02*
X3516240Y3726860D01*
Y3809860D01*
X3507240Y3818860D01*
G01X3529240Y4450860D02*
X3526240D01*
X3524240Y4452860D01*
X3510240D01*
X3490700Y4472400D01*
X3472720D01*
X3467550Y4467230D01*
X3462930D01*
X3430240Y4434540D01*
Y4332350D01*
X3449510Y4313080D01*
Y4189380D01*
X3548840Y4090050D01*
Y3947160D01*
X3627890Y3868110D01*
X3792990D01*
X3955240Y3705860D01*
G01X3493240Y3976860D02*
X3504750Y3988370D01*
Y4064840D01*
X3478360Y4091230D01*
X3378330D01*
X3353060Y4065960D01*
Y3925680D01*
G01X3955240Y3197860D02*
X4049300Y3291920D01*
Y4272200D01*
X4007290Y4314210D01*
X4007080D01*
G01X3623240Y4596860D02*
X3651090Y4569010D01*
X3750090D01*
X3832640Y4486460D01*
Y4349850D01*
X3955240Y4227250D01*
Y4213860D01*
G01X3717140Y4613360D02*
X3755930D01*
X3864430Y4721860D01*
X3955240D01*
G01X869040Y5523850D02*
G02Y5623850I0J50000D01*
G01Y6049520D01*
X340060D01*
X0Y5709460D01*
Y0D01*
X4100050D01*
X4100580Y530D01*
Y6049520D01*
X3434640D01*
Y5623850D01*
G02Y5523850I0J-50000D01*
G01X1809040D02*
X869040D01*
G01X1809040D02*
X869040D01*
G01X1065990Y6728460D02*
Y6474460D01*
G01X992970Y6728460D02*
X1139010D01*
G01X1319990Y6474460D02*
X1294590Y6478690D01*
X1272370Y6495620D01*
X1253310Y6521020D01*
X1240610Y6550660D01*
X1234260Y6584530D01*
Y6618390D01*
X1240610Y6652260D01*
X1253310Y6681900D01*
X1272370Y6707290D01*
X1294590Y6724230D01*
X1319990Y6728460D01*
X1345390Y6724230D01*
X1367610Y6707290D01*
X1386670Y6681900D01*
X1399370Y6652260D01*
X1405720Y6618390D01*
Y6584530D01*
X1399370Y6550660D01*
X1386670Y6521020D01*
X1367610Y6495620D01*
X1345390Y6478690D01*
X1319990Y6474460D01*
G01X1510490D02*
Y6728460D01*
X1586690D01*
X1612090Y6715750D01*
X1631140Y6686130D01*
X1637490Y6652260D01*
X1631140Y6618390D01*
X1615260Y6592990D01*
X1586690Y6580290D01*
X1510490D01*
G01X2018490Y6728460D02*
Y6474460D01*
X2145490D01*
G01X2256610D02*
X2335990Y6728460D01*
X2415370Y6474460D01*
G01X2386790Y6563360D02*
X2285190D01*
G01X2589990Y6474460D02*
Y6588760D01*
X2526490Y6728460D01*
G01X2653490D02*
X2589990Y6588760D01*
G01X2907490Y6474460D02*
X2780490D01*
Y6728460D01*
X2907490D01*
G01X2856690Y6605700D02*
X2780490D01*
G01X3034490Y6474460D02*
Y6728460D01*
X3113860D01*
X3139260Y6715750D01*
X3155140Y6698830D01*
X3161490Y6664960D01*
X3155140Y6631090D01*
X3136090Y6609930D01*
X3113860Y6597220D01*
X3034490D01*
G01X3113860D02*
X3161490Y6474460D01*
G01X1809040Y5523850D02*
G03Y5623850I0J50000D01*
G01Y6049520D01*
X2494640D01*
Y5623850D01*
G03Y5523850I0J-50000D01*
G01X3434640D02*
X2494640D01*
G01X3434640D02*
X2494640D01*
G54D49*
X1631260Y2712840D03*
Y2762840D03*
Y2812840D03*
Y2862840D03*
Y2912840D03*
Y2962840D03*
Y3012840D03*
X2281260Y2712840D03*
Y2762840D03*
G54D67*
X2982040Y2918660D03*
X3282140Y3629660D03*
X3317700Y2189480D03*
X3507240Y3818860D03*
G54D58*
X2502360Y967740D03*
G54D77*
G01X796140Y2611460D02*
X765630Y2641970D01*
X704790D01*
G01X875790Y2640770D02*
X834850D01*
X805540Y2611460D01*
X796140D01*
G01X869140Y4791600D02*
X905970Y4828430D01*
Y4911090D01*
X934080Y4939200D01*
X959480D01*
X994110Y4973830D01*
Y4998470D01*
X1046940Y5051300D01*
G01X869140Y4791600D02*
Y4753660D01*
G01X754840Y4902060D02*
Y5052060D01*
G01X633240Y4851860D02*
X652140Y4832960D01*
X688070D01*
X714840Y4859730D01*
Y4902060D01*
G01X674840D02*
X653040D01*
X633240Y4921860D01*
X631820D01*
G01X604840Y5052060D02*
X754840D01*
G01X714840Y5202060D02*
Y5242550D01*
X707700Y5249690D01*
Y5251530D01*
X694310Y5264920D01*
X692470D01*
X689430Y5267960D01*
X640540D01*
G01X604840Y5092060D02*
X602940Y5093960D01*
X565610D01*
X560370Y5099200D01*
X555370D01*
X541980Y5112590D01*
Y5121570D01*
X541240Y5122310D01*
Y5168660D01*
X640540Y5267960D01*
G01X674840Y5202060D02*
X655640D01*
X653240Y5204460D01*
G01X604840Y5132060D02*
Y5156060D01*
X653240Y5204460D01*
G01X1261240Y2180340D02*
Y2026400D01*
X1288660Y1998980D01*
X1423620D01*
G01X1105840Y3058160D02*
Y3108960D01*
G01D02*
X1059640D01*
G01X1256490Y3616960D02*
X1262840D01*
X1339040Y3693160D01*
G01X1181840Y4378660D02*
X1123440D01*
G01X1181840Y4418660D02*
X1148100D01*
X1142380Y4424380D01*
X1092760D01*
X1081240Y4412860D01*
G01X1181840Y4338660D02*
X1148100D01*
X1142380Y4332940D01*
X1093160D01*
X1083240Y4342860D01*
G01X1181840Y4578660D02*
X1351840D01*
G01X1202540Y5293860D02*
Y5377390D01*
X1197670Y5382260D01*
G01X1277550Y5453850D02*
Y5384270D01*
X1262840Y5369560D01*
G01X1197670Y5382260D02*
X1123140D01*
G01X1197670D02*
X1227530Y5412120D01*
Y5453850D01*
G01X1408890Y3680460D02*
Y3662600D01*
X1530730Y3540760D01*
X2318140D01*
X2425240Y3647860D01*
X2580960D01*
X2760340Y3827240D01*
X2954720D01*
X2983140Y3855660D01*
G01X1548240Y3983860D02*
X1597640Y3934460D01*
X1599390D01*
G01X1351840Y4578660D02*
X1516840Y4413660D01*
G01D02*
X1681840Y4578660D01*
G01X1407240Y5209860D02*
X1402540Y5214560D01*
Y5293860D01*
G01X1452550D02*
Y5230650D01*
X1466040Y5217160D01*
G01X1477550Y5453850D02*
Y5379910D01*
X1452550Y5354910D01*
Y5293860D01*
G01X1831270Y2962830D02*
X1876170D01*
X2029920Y3116580D01*
G01X1981250Y3162830D02*
Y3190650D01*
X1956260Y3215640D01*
X1921860Y3215440D01*
X1915540Y3209120D01*
Y3207920D01*
G01X2031260Y3162840D02*
X2031270Y3162830D01*
Y3117930D01*
X2029920Y3116580D01*
G01X2081260Y3112840D02*
X2081250Y3112850D01*
X2033650D01*
X2029920Y3116580D01*
G01X1851840Y4378660D02*
X1899440D01*
X1900240Y4377860D01*
G01X1851840Y4338660D02*
X1858980Y4331520D01*
X1896310D01*
X1896690Y4331140D01*
X1942960D01*
X1968240Y4305860D01*
G01X2075640Y4245760D02*
X2028340D01*
X1968240Y4305860D01*
G01X2041240Y4359760D02*
X2015340D01*
X1981240Y4393860D01*
Y4401860D01*
G01X1851840Y4578660D02*
X1681840D01*
G01X2014540Y5077460D02*
X2164540D01*
G01X2014540Y4997460D02*
X1967840D01*
X1964240Y4993860D01*
G01X2084540Y5227460D02*
X2014540Y5157460D01*
G01X2202360Y947750D02*
X2158860D01*
X2129240Y977370D01*
Y980860D01*
G01X2367740Y4891560D02*
X2406080D01*
X2407860Y4893340D01*
X2442160D01*
X2443940Y4891560D01*
G01X2367740D02*
Y4895360D01*
X2347820Y4915280D01*
Y4917800D01*
X2321040Y4944580D01*
X2318520D01*
X2308240Y4954860D01*
G01X2314540Y5037460D02*
X2364910D01*
X2490240Y5162790D01*
Y5162880D01*
X2494740Y5167380D01*
G01X2164540Y4927460D02*
Y5077460D01*
G01X2075240Y5289380D02*
Y5273380D01*
X2084540Y5264080D01*
Y5227460D01*
G01X2345910Y5429260D02*
X2373640D01*
X2393240Y5448860D01*
G01X2964640Y2427760D02*
Y2438890D01*
X2912120Y2491410D01*
X2663650D01*
G01X2800140Y2440460D02*
X2586180D01*
G01X2913840Y2427760D02*
X2877440D01*
X2864740Y2440460D01*
X2800140D01*
G01X2677640Y3213060D02*
X2703040Y3238460D01*
Y3276560D01*
G01X2741440Y4132760D02*
X2782740Y4091460D01*
X2799540D01*
G01X2515540Y3845560D02*
Y3889880D01*
X2516840Y3891180D01*
G01X2636440Y4163860D02*
Y4151160D01*
X2639260Y4148340D01*
Y4036850D01*
X2665450Y4010660D01*
G01D02*
X2666240Y4009870D01*
G01X2636440Y4163860D02*
Y4175340D01*
X2584430Y4227350D01*
G01X2443940Y4891560D02*
X2520140D01*
G01D02*
X2528240D01*
X2570940Y4848860D01*
G01X2824940Y5382260D02*
X2828140Y5379060D01*
Y5293860D01*
G01X2748740Y5382260D02*
X2824940D01*
G01D02*
X2853130Y5410450D01*
Y5453850D01*
G01X2994640Y810260D02*
X3035760D01*
X3043380Y817880D01*
G01X3015440Y2427760D02*
X2964640D01*
G01X2863040Y4035580D02*
X2900360D01*
X2907940Y4043160D01*
G01X2863040Y4035580D02*
Y4094960D01*
X2858440Y4099560D01*
G01X3093240Y3909860D02*
X3131760D01*
X3157770Y3883850D01*
G01X3027640Y4226960D02*
X3077720D01*
X3078040Y4227280D01*
G01X3027640Y4226960D02*
X2952540D01*
X2946340Y4220760D01*
G01X3078040Y4167280D02*
X3213830D01*
X3225250Y4155860D01*
X3245240D01*
G01X3103150Y5453850D02*
Y5359700D01*
X3078150Y5334700D01*
Y5293860D01*
G01D02*
Y5243350D01*
G01X3078940Y5240160D02*
X3086240Y5232860D01*
G01X3028140Y5293860D02*
Y5232960D01*
X3032240Y5228860D01*
G01X2903150Y5453850D02*
Y5380820D01*
G01X3442640Y2112830D02*
X3447240Y2117430D01*
Y2169160D01*
X3442640Y2173760D01*
Y2207260D01*
G01Y2112830D02*
Y2054860D01*
G01Y2118360D02*
Y2112830D01*
G01X3425240Y3735860D02*
X3415240Y3745860D01*
X3385240D01*
G01X3475240D02*
X3435240D01*
X3425240Y3735860D01*
G01X3438670Y3874220D02*
X3437640Y3875250D01*
Y3887360D01*
X3413060Y3911940D01*
Y3925680D01*
G01X3479240Y4427860D02*
X3561540Y4345560D01*
Y4178400D01*
X3664590Y4075350D01*
X3763550D01*
X3879040Y3959860D01*
X3955240D01*
G54D59*
X2202360Y987730D03*
Y947750D03*
Y907750D03*
Y867740D03*
Y827740D03*
Y787730D03*
Y747750D03*
Y1187730D03*
Y1147750D03*
Y1107740D03*
Y1067740D03*
Y1027730D03*
X2802360Y747750D03*
Y787730D03*
Y827740D03*
Y867740D03*
Y907750D03*
Y947750D03*
Y987730D03*
Y1027730D03*
Y1067740D03*
Y1107740D03*
Y1147750D03*
Y1187730D03*
G54D68*
X3244040Y4661960D03*
Y5111960D03*
G54D78*
G01X1065990Y3768630D02*
Y3616960D01*
G01Y3768630D02*
X1116790Y3819430D01*
Y3928110D01*
X1092660Y3952240D01*
X1044760D01*
X1019240Y3977760D01*
Y4114560D01*
X973280Y4160520D01*
Y4326300D01*
X983040Y4336060D01*
G01X1033040Y4625060D02*
Y4673500D01*
X1027720Y4678820D01*
Y4830400D01*
X1058880Y4861560D01*
G01D02*
Y4939280D01*
X1046940Y4951220D01*
G01X2360120Y162560D02*
X2403240D01*
X2429460Y188780D01*
Y529080D01*
X2476880Y576500D01*
Y609190D01*
X2482370Y614680D01*
Y667740D01*
G01X2537920Y162560D02*
X2484540D01*
X2457400Y189700D01*
Y517500D01*
X2504820Y564920D01*
Y596820D01*
X2522350Y614350D01*
Y667740D01*
G54D69*
X3356340Y3511760D03*
Y3471760D03*
X3485340D03*
Y3511760D03*
G54D79*
G01X691340Y4735580D02*
X532910D01*
X442410Y4826080D01*
X249460D01*
X145240Y4721860D01*
G01X1817320Y1654050D02*
X1772980D01*
X1691790Y1572860D01*
X972200D01*
X970510Y1574550D01*
X804370Y1408410D01*
Y1322070D01*
X772570Y1290270D01*
Y1118870D01*
G01X657560Y1473960D02*
X787860D01*
G01X787350Y1783840D02*
Y1698750D01*
X795480Y1690620D01*
G01X865180Y2245360D02*
X869930Y2240610D01*
Y2131060D01*
G01X798020Y2062480D02*
Y2064330D01*
X831370Y2097680D01*
X836550D01*
X869930Y2131060D01*
G01X789360Y1935480D02*
X855020D01*
X865180Y1945640D01*
G01X815670Y2371740D02*
X814670D01*
X807670Y2364740D01*
X732770D01*
X726900Y2358870D01*
G01X815670Y2371740D02*
X822670Y2364740D01*
X864850D01*
X869930Y2359660D01*
G01X562590Y2540790D02*
X704790Y2541950D01*
G01X562590Y2540790D02*
Y2594130D01*
G01X791090Y2896490D02*
Y3056480D01*
G01X764650Y2825170D02*
X769390D01*
X791090Y2803470D01*
Y2705100D01*
G01X764650Y2825170D02*
X708490D01*
G01X791090Y2896490D02*
X789140Y2894540D01*
Y2849660D01*
X764650Y2825170D01*
G01X562590Y2937030D02*
Y2990370D01*
G01X791090Y3056480D02*
X756100D01*
X710690Y3011070D01*
G01X772140Y3354460D02*
X744610Y3326930D01*
X700240D01*
G01D02*
Y3165140D01*
X746030Y3119350D01*
X796690D01*
G01X920100Y3362590D02*
X780270D01*
X772140Y3354460D01*
G01X967440Y1783840D02*
Y1693420D01*
X909780Y1635760D01*
G01X1005180Y2245360D02*
X969950Y2210130D01*
Y2131060D01*
G01X1005180Y1945640D02*
Y2005180D01*
X988520Y2021840D01*
G01X969950Y2131060D02*
Y2104160D01*
X988520Y2085590D01*
Y2021840D01*
G01X984240Y2433860D02*
X991060Y2427040D01*
Y2380770D01*
X969950Y2359660D01*
G01X977570Y2877820D02*
Y2994660D01*
G01X1011170Y2766660D02*
Y2806490D01*
X1125680Y2921000D01*
G01X978380Y3219480D02*
Y3303080D01*
X978050Y3303410D01*
G01X977570Y3103880D02*
Y3218670D01*
X978380Y3219480D01*
G01X977570Y3103880D02*
Y2994660D01*
G01X978050Y3303410D02*
X937210Y3344250D01*
Y3345480D01*
X920100Y3362590D01*
G01X1349140Y205460D02*
X1351400Y203200D01*
G01D02*
X1496520D01*
G01X1730580Y2664460D02*
Y2664100D01*
X1642040Y2575560D01*
X1420320D01*
G01X1457240Y3883860D02*
X1446990D01*
X1408890Y3921960D01*
Y3934460D01*
G01X1951940Y924560D02*
Y838960D01*
X1968960Y821940D01*
G01X1975240Y1365500D02*
Y1365480D01*
X1954480Y1344720D01*
Y1280160D01*
G01X1967400Y1368310D02*
X1964890D01*
Y1371950D01*
X1954480Y1382360D01*
Y1432560D01*
G01X1974370Y1369570D02*
X1975240Y1368700D01*
Y1365500D01*
G01X1967400Y1368310D02*
Y1364930D01*
X1964880Y1362410D01*
X1964450D01*
G01X1975240Y1365500D02*
X1972430Y1368310D01*
X1967400D01*
G01X1817320Y1473960D02*
X1886920D01*
X1928320Y1432560D01*
X1954480D01*
G01X1974040Y1565660D02*
X1957140Y1548760D01*
Y1435220D01*
X1954480Y1432560D01*
G01X1910790Y1638350D02*
X1895100Y1654050D01*
X1817320D01*
G01X1974040Y1705860D02*
X1910790Y1642620D01*
Y1638350D01*
G01X2101800Y162560D02*
X2098980Y165380D01*
Y287500D01*
X2113740Y302260D01*
G01X2347740Y322160D02*
Y261360D01*
G01Y462260D02*
X2381240Y495760D01*
Y551560D01*
G01X2128880Y805180D02*
Y749000D01*
G01X2094240Y1000860D02*
X2114240Y980860D01*
X2129240D01*
G01X2363930Y1479300D02*
X2358610Y1473980D01*
Y1433490D01*
X2397240Y1394860D01*
Y1395860D01*
X2396240Y1396860D01*
Y1397860D01*
X2397240Y1398860D01*
G01X2154380Y1551180D02*
X2250900D01*
G01X2127330Y1635760D02*
X2126440Y1636650D01*
G01X2363930Y1619500D02*
X2349960Y1633470D01*
Y1705860D01*
G01X2385040Y1755140D02*
Y1741960D01*
X2354240Y1711160D01*
Y1710140D01*
X2349960Y1705860D01*
G01X2127330Y1635760D02*
X2154380Y1608710D01*
Y1551180D01*
G01X2189180Y2068830D02*
X2297890D01*
G01X2409140Y1908810D02*
X2297890D01*
G01X2126440Y3833650D02*
X2143430D01*
X2192340Y3882560D01*
G01X2748640Y363460D02*
X2748740Y344060D01*
Y261110D01*
G01X2520140Y461260D02*
X2570540D01*
G01D02*
X2644240Y387560D01*
Y358460D01*
G01X2504900Y1384300D02*
Y1470510D01*
X2496010Y1479400D01*
G01X3052120Y1587500D02*
X3052020D01*
X2979880Y1515360D01*
Y1242800D01*
X2947390Y1210310D01*
X2884630D01*
G01X2496010Y1619500D02*
Y1680590D01*
X2520650Y1705230D01*
G01X2788240Y3276560D02*
X2843040D01*
G01X2812240Y4733540D02*
X2799540Y4720840D01*
X2766340D01*
Y4755060D01*
G01D02*
X2533860Y4987540D01*
X2494740D01*
G01X2875330Y978130D02*
X2931390D01*
X2931620Y977900D01*
G01X2900120Y1432560D02*
Y1265940D01*
X2901140Y1264920D01*
G01X3192220Y1587500D02*
X3266600D01*
G01X3052120D02*
Y1632340D01*
X2951150Y1733310D01*
Y1735860D01*
G01X3065240Y2367960D02*
X3065040Y2367760D01*
X3015440D01*
G01X2843040Y3276560D02*
X2930330D01*
X2940540Y3266350D01*
G01D02*
X3025540D01*
X3026840Y3265050D01*
G01X3123240Y3337560D02*
X3050730Y3265050D01*
X3026840D01*
G01X3400500Y1353820D02*
X3506980D01*
X3507040Y1353760D01*
X3567080D01*
G01X3577030Y1111810D02*
Y1137170D01*
X3523740Y1190460D01*
X3442340D01*
X3442240Y1190360D01*
M02*
