G04 ================== begin FILE IDENTIFICATION RECORD ==================*
G04 Layout Name:  D:/projects/Popcorn/Rev2.0/Brd/Popcorn Computer Rev 2p0_Release.brd*
G04 Film Name:    vcc2*
G04 File Format:  Gerber RS274X*
G04 File Origin:  Cadence Allegro 16.6-2015-S105*
G04 Origin Date:  Tue Jul 14 18:36:51 2020*
G04 *
G04 Layer:  VIA CLASS/VCC2*
G04 Layer:  PIN/VCC2*
G04 Layer:  ETCH/VCC2*
G04 Layer:  BOARD GEOMETRY/OUTLINE*
G04 *
G04 Offset:    (0.0000 0.0000)*
G04 Mirror:    No*
G04 Mode:      Positive*
G04 Rotation:  0*
G04 FullContactRelief:  No*
G04 UndefLineWidth:     0.1270*
G04 ================== end FILE IDENTIFICATION RECORD ====================*
%FSLAX25Y25*MOMM*%
%IR0*IPPOS*OFA0.00000B0.00000*MIA0B0*SFA1.00000B1.00000*%
%ADD18O,.95X2.1001*%
%ADD11C,.4064*%
%ADD17C,.6604*%
%ADD16C,.4572*%
%ADD20C,.5999*%
%ADD19C,1.1001*%
%ADD15O,1.3X2.7501*%
%ADD12C,4.*%
%ADD10C,1.5001*%
%ADD14O,1.524X1.1176*%
%ADD21C,1.651*%
%ADD13O,1.1999X2.3*%
%ADD22C,.127*%
%ADD25C,.61*%
%ADD30C,.7116*%
%ADD32C,.864*%
%ADD31C,.6354*%
%ADD26C,.6608*%
%ADD33C,.6862*%
%ADD23C,1.0002*%
%ADD28C,4.2036*%
%ADD27C,2.0086*%
%ADD24C,1.7038*%
%ADD29C,1.8546*%
G75*
%LPD*%
G75*
G36*
G01X4049210Y866380D02*
X4049190Y716100D01*
Y703370D01*
G02X4030100Y698520I-10160J-5D01*
G03Y617200I-74860J-40660D01*
G02X4049190Y612350I8930J-4845D01*
G01Y520520D01*
X4049180Y449380D01*
G02X4030100Y444530I-10157J3D01*
G03X4030090Y363180I-74859J-40666D01*
G02X4049170Y358320I8922J-4857D01*
G01X4049140Y6840D01*
X1979140D01*
Y459760D01*
X1369500D01*
Y6840D01*
X51640D01*
Y357720D01*
G02X70690Y362630I10159J-5D01*
G03Y445090I74550J41230D01*
G02X51640Y450000I-8891J4915D01*
G01Y585280D01*
G02X69470Y591950I10161J3D01*
G03Y723770I75770J65910D01*
G02X51640Y730440I-7669J6667D01*
G01Y865720D01*
G02X70690Y870630I10159J-5D01*
G03X74890Y959900I74550J41226D01*
G02X56340Y965630I-8390J5731D01*
G01Y1051560D01*
X81740Y1076960D01*
X1158940D01*
G03X1212740I26900J16900D01*
G01X1228050D01*
X1228970Y1076590D01*
G03X1252710I11870J29470D01*
G01X1253630Y1076960D01*
X1453340D01*
X1698440Y831860D01*
X1696410Y828460D01*
G03X1700050Y792250I26171J-15657D01*
G02X1699790Y778280I-7508J-6848D01*
G03X1750650Y766100I21773J-21360D01*
G01X1749720Y769040D01*
X1755490Y774810D01*
X1758140Y772160D01*
X1872610D01*
G02X1882560Y759940I0J-10161D01*
G03X1942280I29860J-6200D01*
G02X1952230Y772160I9950J2059D01*
G01X1980420D01*
G02X1990270Y759510I1J-10159D01*
G03X2050150Y755470I29572J-7475D01*
G02X2057080Y766270I10093J1147D01*
G03X2067520Y772160I-9475J28992D01*
G01X2087680D01*
G02X2097370Y758940I2J-10159D01*
G03X2136840Y716930I31510J-9942D01*
G02X2149450Y707290I2453J-9859D01*
G03X2174030Y737880I30491J670D01*
G02X2161910Y748120I-1964J9968D01*
G03X2160390Y758940I-33029J877D01*
G02X2170080Y772160I9688J3061D01*
G01X2367740D01*
X2393140Y797560D01*
Y962660D01*
X2443940Y1013460D01*
X2840220D01*
G02X2848480Y997380I2J-10160D01*
G03X2896750Y952980I26856J-19242D01*
G02X2909990Y952920I6585J-7737D01*
G03X2964520Y980900I21627J24978D01*
G02X2972580Y991770I10118J921D01*
G03X2994700Y1010270I-6183J29867D01*
G01X2995980Y1013460D01*
X3015440D01*
X3019340Y1009560D01*
X3023240Y1013460D01*
X3168020D01*
X3292300Y1137740D01*
Y1389560D01*
X3214640Y1467220D01*
G02X3216430Y1483010I7185J7182D01*
G03X3169990Y1504970I-16189J25849D01*
G02X3159910Y1493520I-10078J-1290D01*
G01X3109100D01*
G02X3099020Y1504950I1J10161D01*
G03X3033460I-32780J4110D01*
G02X3023380Y1493520I-10081J-1269D01*
G01X2723520D01*
X2634440Y1582600D01*
Y1741170D01*
G02X2647140Y1751010I10161J2D01*
G03X2675720Y1758380I7625J29531D01*
G02X2689680I6980J-7379D01*
G03Y1802700I20960J22160D01*
G02X2675720I-6980J7379D01*
G03X2647140Y1810070I-20955J-22161D01*
G02X2634440Y1819910I-2539J9838D01*
G01Y1902460D01*
X2672540Y1940560D01*
X3295020D01*
X3562730Y2208270D01*
X3563540D01*
X3639630Y2284360D01*
X4010050D01*
X4049350Y2245060D01*
Y2191700D01*
X4039970D01*
X4039260Y2195940D01*
G03X4030240Y2141460I-84019J-14076D01*
G02X4049340Y2136640I8941J-4824D01*
G01X4049330Y1973110D01*
G02X4030220Y1968290I-10162J-3D01*
G03X4039230Y1913630I-74981J-40432D01*
G01X4039950Y1917860D01*
X4049320D01*
Y1902640D01*
X4049300Y1773100D01*
Y1745910D01*
G02X4031430Y1739290I-10161J-1D01*
G03X4031420Y1608420I-76191J-65429D01*
G02X4049290Y1601800I7708J-6621D01*
G01X4049280Y1465210D01*
G02X4030180Y1460380I-10160J-3D01*
G03X4030170Y1379330I-74940J-40516D01*
G02X4049270Y1374500I8940J-4829D01*
G01X4049260Y1211240D01*
G02X4030160Y1206410I-10161J2D01*
G03X4039170Y1151240I-74918J-40556D01*
G01X4039900Y1155450D01*
X4049250D01*
Y1137740D01*
X4049220Y995500D01*
Y957320D01*
G02X4030130Y952470I-10160J-3D01*
G03X4030120Y871230I-74889J-40611D01*
G02X4049210Y866380I8930J-4846D01*
G37*
G36*
G01X56340Y4340860D02*
X50810Y4346390D01*
Y4677250D01*
G02X69950Y4682000I10160J-1D01*
G03Y4761720I75290J39860D01*
G02X50810Y4766470I-8980J4751D01*
G01Y4931250D01*
G02X69950Y4936000I10160J-1D01*
G03Y5015720I75290J39860D01*
G02X50810Y5020470I-8980J4751D01*
G01Y5090160D01*
X81740D01*
X107140Y5115560D01*
Y5712460D01*
X348440Y5953760D01*
X669270D01*
G02X679360Y5942440I-3J-10159D01*
G03X678870Y5933860I74691J-8570D01*
G01Y5788840D01*
G03X704040Y5732710I75180J4D01*
G01Y5598160D01*
X818340Y5483860D01*
X859010D01*
G02X866700Y5467060I-2J-10161D01*
G03X860600Y5458770I49994J-43176D01*
G03X836860Y5406160I46435J-52615D01*
G01Y5315440D01*
G02X821440Y5306750I-10158J-2D01*
G03X789540Y5306560I-15795J-26090D01*
G02X774500Y5312080I-5366J8629D01*
G03X761570Y5276830I-29030J-9348D01*
G02X776610Y5271310I5366J-8629D01*
G03X829670Y5261880I29030J9351D01*
G02X846450Y5260750I8007J-6254D01*
G03X977220Y5296160I60593J35402D01*
G01Y5360790D01*
X980510Y5362020D01*
G03X1007320Y5467060I-23181J61858D01*
G02X1015010Y5483860I7692J6639D01*
G01X1663110D01*
G02X1670790Y5467050I0J-10160D01*
G03X1697570Y5361970I49960J-43220D01*
G01X1700860Y5360740D01*
Y5296160D01*
G03X1841220I70180J-5D01*
G01Y5406160D01*
G03X1817410Y5458830I-70175J-6D01*
G03X1811350Y5467050I-56041J-34971D01*
G02X1819030Y5483860I7680J6650D01*
G01X1847040D01*
X1897840Y5534660D01*
Y5648960D01*
X1923240Y5674360D01*
X1948640D01*
X1999440Y5725160D01*
Y5953760D01*
X2037540Y5991860D01*
X2240740D01*
X2291540Y5941060D01*
Y5661660D01*
X2304240D01*
X2484570Y5481330D01*
X2481400Y5477750D01*
G03X2462500Y5408300I60891J-53868D01*
G03X2462460Y5406160I70135J-2381D01*
G01Y5296160D01*
G03X2602820I70180J-5D01*
G01Y5344960D01*
X2606430Y5346050D01*
G03X2651110Y5468170I-23499J77831D01*
G02X2659630Y5483860I8521J5531D01*
G01X3269680D01*
G02X3278200Y5468160I3J-10160D01*
G03X3311220Y5350510I68150J-44332D01*
G01Y5296160D01*
G03X3482060I85420J-5D01*
G01Y5406160D01*
G03X3454730Y5468780I-85415J-5D01*
G03X3449720Y5475550I-67768J-44912D01*
G02X3453640Y5483860I3919J3231D01*
G01X3498040D01*
X3548840Y5534660D01*
Y5610860D01*
X3498040Y5661660D01*
Y5674360D01*
X3485340Y5687060D01*
Y5722870D01*
G02X3501940Y5730720I10158J-4D01*
G03X3624810Y5788840I47688J58122D01*
G01Y5933860D01*
G03X3624780Y5935850I-75179J-138D01*
G01Y5941060D01*
X4069540D01*
Y5376320D01*
G02X4053050Y5368370I-10160J-2D01*
G03Y5223350I-57800J-72510D01*
G02X4069540Y5215400I6330J-7948D01*
G01Y5191760D01*
X4044140Y5166360D01*
X3640220D01*
G02X3630080Y5177150I0J10160D01*
G03X3569200I-30440J1910D01*
G02X3559060Y5166360I-10140J-630D01*
G01X3244040D01*
X3139390Y5061710D01*
X2972850D01*
G02X2962700Y5071370I-2J10161D01*
G03X2955430Y5089670I-30462J-1507D01*
G02X2955290Y5096100I3861J3301D01*
G03X2951980Y5137220I-24050J18757D01*
G02X2950710Y5150690I6913J7447D01*
G03X2905400Y5146400I-24569J18071D01*
G02X2906670Y5132930I-6913J-7447D01*
G03X2905900Y5131840I24521J-18139D01*
G02X2897910Y5131270I-4217J2828D01*
G03X2887630Y5082990I-22668J-20408D01*
G02X2901880Y5072750I4135J-9281D01*
G03X2901780Y5071370I30361J-2894D01*
G02X2891630Y5061710I-10148J501D01*
G01X2832920D01*
G03X2797560I-17680J-24850D01*
G01X2453590D01*
X2409720Y5105580D01*
X2410210Y5108220D01*
G03X2398920Y5137970I-29972J5643D01*
G02X2396420Y5151210I6222J8031D01*
G03X2339830Y5164580I-26177J15651D01*
G02X2329690Y5153660I-10133J-759D01*
G01X2219440D01*
X2214940Y5158160D01*
X1940060D01*
X1939510Y5162610D01*
G03X1878740Y5158760I-30270J-3746D01*
G01Y5153660D01*
X1582820D01*
G02X1572680Y5164450I0J10160D01*
G03X1511800I-30440J1910D01*
G02X1501660Y5153660I-10140J-630D01*
G01X1495710D01*
Y5159290D01*
X1495830Y5159830D01*
G03X1489860Y5185410I-29791J6534D01*
G02Y5198110I7930J6350D01*
G03X1441410Y5235150I-23825J19043D01*
G02X1426720Y5233330I-8201J5997D01*
G03X1394290Y5237480I-19484J-23468D01*
G02X1381000Y5241920I-4314J9197D01*
G03X1332020Y5248770I-26963J-14259D01*
G02X1318530Y5247720I-7333J7028D01*
G03X1322060Y5202350I-18488J-24261D01*
G02X1335550Y5203400I7333J-7028D01*
G03X1366990Y5200040I18492J24258D01*
G02X1380280Y5195600I4314J-9197D01*
G03X1434520Y5196230I26958J14262D01*
G02X1442920Y5197270I4546J-2272D01*
G03X1444680Y5195390I23125J19885D01*
G02Y5188130I-3555J-3630D01*
G03X1435600Y5164450I21360J-21771D01*
G02X1425460Y5153660I-10140J-630D01*
G01X1070160D01*
G02X1060930Y5168080I-5J10161D01*
G03X1003790Y5188800I-27691J12784D01*
G02X989550Y5182300I-9810J2643D01*
G03X1005690Y5146920I-13309J-27443D01*
G02X1019930Y5153420I9810J-2643D01*
G03X1031760Y5150400I13306J27442D01*
G02X1038440Y5133060I-499J-10149D01*
G01X989240Y5083860D01*
X665940D01*
X618290Y5036210D01*
X566500D01*
G02X556440Y5047790I0J10160D01*
G03X523220Y5021710I-30200J4270D01*
G02X529400Y5004420I-1008J-10110D01*
G01X513540Y4988560D01*
Y4372250D01*
X509610Y4371340D01*
G03X486210Y4345320I6875J-29715D01*
G01X485660Y4340860D01*
X56340D01*
G37*
G36*
G01X1783720Y789940D02*
X1758090Y815570D01*
X1757880Y817290D01*
G03X1727070Y848100I-35300J-4490D01*
G01X1725350Y848310D01*
X1709610Y864050D01*
G02X1717210Y881380I7185J7180D01*
G03X1687960Y910630I1230J30480D01*
G02X1670630Y903030I-10150J-415D01*
G01X1478740Y1094920D01*
Y1102360D01*
X1440640Y1140460D01*
X794110D01*
G03X751030I-21540J-21590D01*
G01X508770D01*
G02X498710Y1152020I3J10160D01*
G03X299770I-99470J13840D01*
G02X289710Y1140460I-10063J-1400D01*
G01X272240D01*
X246840Y1165860D01*
Y4277360D01*
X302360D01*
G02X311260Y4262300I2J-10158D01*
G03X487220I87980J-48440D01*
G02X496120Y4277360I8898J4902D01*
G01X500840D01*
X534290Y4310810D01*
X534830Y4311140D01*
G03X538940Y4369220I-18349J30484D01*
G01Y4469750D01*
G02X555310Y4477790I10161J-2D01*
G03Y4534130I21730J28170D01*
G02X538940Y4542170I-6209J8042D01*
G01Y4926760D01*
G02X550510Y4936820I10159J0D01*
G03X587790Y4986870I4929J35238D01*
G02X597030Y5001260I9238J4230D01*
G01X635740D01*
X691340Y5056860D01*
X724300D01*
X724340Y5051820D01*
G03X778660Y5033010I30500J239D01*
G02X794520I7930J-6350D01*
G03X848840Y5051820I23820J19049D01*
G01X848880Y5056860D01*
X940540D01*
X940670Y5051920D01*
G03X1008570Y5037990I35570J934D01*
G01X1008950Y5038820D01*
X1072970Y5102840D01*
X1890970D01*
X1903690Y5115560D01*
X2278840D01*
X2354540Y5039860D01*
X2456140D01*
X2456640Y5039360D01*
X2643120D01*
G02X2652550Y5025420I-1J-10161D01*
G03X2718610I33030J-13220D01*
G02X2728040Y5039360I9431J3779D01*
G01X2779430D01*
X2779730Y5034600D01*
G03X2850750I35510J2260D01*
G01X2851050Y5039360D01*
X2913920D01*
G03X2950560I18320J30500D01*
G01X3053540D01*
X3104320Y4988580D01*
Y4755940D01*
X3070260Y4721880D01*
X2873570D01*
X2733870Y4861580D01*
X2604320D01*
X2602930Y4864440D01*
G03X2538950I-31990J-15580D01*
G01X2537560Y4861580D01*
X2338930D01*
G02X2330750Y4877760I3J10159D01*
G03X2330290Y4920570I-28650J21100D01*
G02X2331060Y4927560I4028J3094D01*
G03X2280050Y4933150I-22820J27299D01*
G02X2279280Y4926160I-4028J-3094D01*
G03X2273450Y4877760I22819J-27300D01*
G02X2265270Y4861580I-8183J-6021D01*
G01X2225880D01*
X2225870Y4861590D01*
X2141320D01*
X2140690Y4860960D01*
X2126440D01*
X2123300Y4857820D01*
X2120820Y4858140D01*
G03X2087840Y4844290I-4582J-35282D01*
G02X2081090Y4843040I-4057J3057D01*
G03X2029810Y4827500I-18849J-30179D01*
G01X1512800D01*
X1491440Y4848860D01*
X1294690D01*
X1294670Y4848880D01*
X1185650D01*
G03X1126830I-29410J-20020D01*
G01X877100D01*
X876640Y4853450D01*
G03X813580Y4872240I-35399J-3590D01*
G02X806960Y4871120I-3946J3198D01*
G03X776790Y4807170I-18713J-30263D01*
G01X780240Y4806000D01*
Y4795910D01*
X780220Y4795890D01*
Y4673230D01*
X780240Y4673210D01*
Y4658360D01*
X860940Y4577660D01*
Y4071000D01*
G02X843550Y4063860I-10161J1D01*
G03X801670Y4070350I-25317J-24999D01*
G02X787590Y4075370I-4730J8990D01*
G03X730140Y4087070I-32749J-13910D01*
G02X716040I-7050J7315D01*
G03Y4035850I-24700J-25610D01*
G02X730140I7050J-7315D01*
G03X771410Y4029970I24703J25609D01*
G02X785490Y4024950I4730J-8990D01*
G03X799090Y4008870I32751J13908D01*
G02X800810Y3993130I-5468J-8562D01*
G01X754840Y3947160D01*
Y3705860D01*
X894540Y3566160D01*
X1161240D01*
X1212040Y3515360D01*
Y3215860D01*
G02X1200650Y3205780I-10159J4D01*
G03Y3135140I-4310J-35320D01*
G02X1212040Y3125060I1231J-10084D01*
G01Y2832380D01*
G02X1198470Y2822810I-10158J-2D01*
G03Y2765350I-10250J-28730D01*
G02X1212040Y2755780I3412J-9568D01*
G01Y2629370D01*
G02X1198550Y2619770I-10160J-1D01*
G03Y2562150I-10010J-28810D01*
G02X1212040Y2552550I3330J-9599D01*
G01Y2042160D01*
X1389840Y1864360D01*
X1707340D01*
X1893610Y1678090D01*
G02X1892520Y1662770I-7181J-7188D01*
G03X1935210Y1620080I18270J-24420D01*
G02X1950530Y1621170I8132J-6091D01*
G01X2113740Y1457960D01*
Y1125750D01*
G02X2099100Y1116640I-10158J5D01*
G03X2061020Y1112370I-15699J-31929D01*
G02X2045970Y1114950I-6392J7902D01*
G03X2036620Y1073410I-25981J-15974D01*
G02X2051320Y1069300I5545J-8512D01*
G03X2081020Y1049210I32069J15411D01*
G02X2085750Y1044490I-339J-5070D01*
G03X2086280Y1040350I35495J2440D01*
G02X2082910Y1034590I-4990J-946D01*
G03X2097190Y965400I11324J-33731D01*
G03X2146020Y1012240I32047J15464D01*
G02X2145020Y1020490I2397J4476D01*
G03X2147520Y1022970I-23778J26470D01*
G02X2154860Y1023140I3751J-3424D01*
G01X2164540Y1013460D01*
X2192090D01*
X2192110Y1013440D01*
X2316960D01*
X2340870Y989530D01*
X2338240Y986010D01*
G03X2342340Y944990I24420J-18274D01*
G01Y850790D01*
G03X2333740Y818340I20319J-22750D01*
G01X2334740Y815360D01*
X2309320Y789940D01*
X2176890D01*
G02X2166790Y801170I3J10159D01*
G03X2093440Y819220I-37909J4011D01*
G02X2075910Y816810I-9445J3744D01*
G03X2012020Y795050I-28311J-21551D01*
G01Y789940D01*
X1783720D01*
G37*
G36*
G01X1522410Y4048740D02*
X1523590Y4045310D01*
G03X1563190Y4021780I33653J11549D01*
G01X1565780Y4022220D01*
X1574800Y4013200D01*
Y3944160D01*
X1554940Y3924300D01*
X1541360D01*
G03X1481500Y3921780I-29123J-20440D01*
G02X1469290Y3917340I-8774J5119D01*
G03X1435100Y3856010I-12049J-33478D01*
G01Y3644900D01*
X1409700Y3619500D01*
X1371600D01*
Y3616960D01*
X894540D01*
X792940Y3718560D01*
Y3921760D01*
X932640Y4061460D01*
X973890D01*
X975550Y4059800D01*
X1281930D01*
X1283590Y4061460D01*
X1294660D01*
Y4056320D01*
G03X1360590Y4037290I35578J-462D01*
G02X1367460Y4039040I4333J-2650D01*
G03X1413870Y4048740I17777J30820D01*
G01X1426520D01*
G03X1489960I31720J16120D01*
G01X1522410D01*
G37*
G36*
G01X4049590Y5026660D02*
X4049580Y4968420D01*
Y4793580D01*
G02X4031690Y4786990I-10159J1D01*
G03X4015050Y4802540I-76449J-65130D01*
G02X4016950Y4819980I6046J8165D01*
G03X3970500Y4836760I-14522J32481D01*
G02X3960820Y4822130I-9118J-4485D01*
G03X3902830Y4807530I-5587J-100273D01*
G02X3888610Y4811350I-5294J8670D01*
G03X3885490Y4816120I-31241J-17029D01*
G02X3887570Y4830570I8037J6218D01*
G03X3838570Y4837620I-20860J28821D01*
G02X3836490Y4823170I-8037J-6218D01*
G03X3850210Y4759490I20860J-28824D01*
G02X3858010Y4747000I-2037J-9953D01*
G03X3980610Y4624690I97231J-25139D01*
G02X3993340Y4614860I2569J-9830D01*
G01Y4574860D01*
G02X3980610Y4565030I-10161J0D01*
G03X3928750Y4564730I-25369J-97171D01*
G02X3916860Y4578830I-2684J9800D01*
G03X3853560Y4611240I-32251J15031D01*
G02X3835710Y4611460I-8865J4961D01*
G03X3835290Y4577480I-31469J-16604D01*
G02X3853140Y4577260I8865J-4961D01*
G03X3880610Y4558510I31467J16603D01*
G02X3886430Y4541010I-1142J-10098D01*
G03X3970120Y4368540I68812J-73149D01*
G02X3981530Y4360780I1510J-10048D01*
G03X3986500Y4349210I34659J8036D01*
G02X3985360Y4342390I-4243J-2796D01*
G03X3971720Y4318180I21718J-28183D01*
G02X3966120Y4313700I-5047J569D01*
G03X3908520Y4302760I-10876J-99839D01*
G01X3747960D01*
G03X3654520I-46720J-88900D01*
G01X3523440D01*
X3497590Y4328610D01*
G02X3497220Y4342590I7183J7185D01*
G03X3499970Y4386740I-26440J23808D01*
G02X3501850Y4400390I8339J5806D01*
G03X3512060Y4414130I-22613J27467D01*
G02X3518310Y4417000I4686J-1964D01*
G03X3496420Y4464590I10932J33858D01*
G02X3490170Y4461720I-4686J1964D01*
G03X3466800Y4461190I-10923J-33861D01*
G01X3465940Y4460870D01*
X3459940D01*
Y4472380D01*
G02X3464550Y4477430I5078J-7D01*
G03Y4548290I-3310J35430D01*
G02X3459940Y4553340I468J5057D01*
G01Y4556760D01*
X3434540Y4582160D01*
X2821530D01*
X2820740Y4586290D01*
G03X2808400Y4605910I-31210J-5939D01*
G02X2807740Y4621740I6028J8180D01*
G03X2762780Y4666410I-20896J23929D01*
G02X2747400I-7690J6637D01*
G03Y4624910I-24060J-20750D01*
G02X2762780I7690J-6637D01*
G03X2767970Y4620100I24057J20752D01*
G02X2768630Y4604270I-6028J-8180D01*
G03X2758320Y4586290I20896J-23928D01*
G01X2757530Y4582160D01*
X2672540D01*
X2609040Y4645660D01*
X2355040D01*
X2202640Y4493260D01*
Y4407660D01*
X2200990Y4406010D01*
Y4371090D01*
G02X2187660Y4361440I-10160J3D01*
G03X2146020Y4332970I-9918J-30180D01*
G01X2145760Y4328160D01*
X1995960D01*
G03X1940520I-27720J-22300D01*
G01X1128750D01*
G02X1118640Y4339330I1J10161D01*
G03X1105350Y4370740I-35403J3537D01*
G02X1104900Y4386290I6308J7964D01*
G03X1113540Y4427790I-23659J26575D01*
G02X1117760Y4440890I9222J4259D01*
G03X1124960Y4497450I-17520J30968D01*
G02X1124460Y4504190I3532J3651D01*
G03X1125170Y4546580I-28219J21674D01*
G02X1126720Y4560130I8256J5919D01*
G03X1134900Y4603090I-23481J26730D01*
G02X1138010Y4615970I9043J4632D01*
G03X1128740Y4678530I-20770J28889D01*
G02X1122960Y4692750I3279J9617D01*
G03X1079740Y4675190I-31723J16110D01*
G02X1085520Y4660970I-3279J-9617D01*
G03X1085580Y4628630I31721J-16111D01*
G02X1082470Y4615750I-9043J-4632D01*
G03X1074310Y4566140I20768J-28892D01*
G02X1072760Y4552590I-8256J-5919D01*
G03X1071520Y4500270I23480J-26731D01*
G02X1072020Y4493530I-3532J-3651D01*
G03X1067940Y4456930I28219J-21673D01*
G02X1063720Y4443830I-9222J-4259D01*
G03X1059130Y4384980I17518J-30970D01*
G02X1059580Y4369430I-6308J-7964D01*
G03X1047840Y4339330I23662J-26568D01*
G02X1037730Y4328160I-10111J-1009D01*
G01X907240D01*
X894540Y4340860D01*
Y4594860D01*
X805640Y4683760D01*
Y4785360D01*
X835020Y4814740D01*
X837440Y4814480D01*
G03X865090Y4823460I3794J35378D01*
G01X942820D01*
G02X952920Y4812190I2J-10159D01*
G03X961050Y4787940I30318J-3323D01*
G02X960840Y4780750I-3694J-3490D01*
G03X1007660Y4782490I24405J-25890D01*
G02X1006920Y4789630I3203J3940D01*
G03X1013560Y4812190I-23680J19227D01*
G02X1023660Y4823460I10098J1111D01*
G01X1120860D01*
X1121860Y4819690D01*
G03X1152280Y4793500I34379J9170D01*
G01X1154050Y4793300D01*
X1174040Y4773310D01*
X1242610D01*
G02X1252750Y4762440I4J-10161D01*
G03X1319020Y4742110I35493J-2479D01*
G02X1337030Y4741260I8784J-5104D01*
G03X1403320Y4766720I32314J14893D01*
G01X1403090Y4767460D01*
Y4773310D01*
X1418610D01*
Y4767710D01*
X1418500Y4767200D01*
G03X1488830Y4762440I34836J-7239D01*
G02X1498970Y4773310I10136J709D01*
G01X1522010D01*
G02X1532150Y4762440I4J-10161D01*
G03X1603130I35490J-2480D01*
G02X1613270Y4773310I10136J709D01*
G01X1616640D01*
G02X1626680Y4761600I-1J-10160D01*
G03X1697000I35160J-5440D01*
G02X1707040Y4773310I10041J1550D01*
G01X1712510D01*
G02X1722650Y4762440I4J-10161D01*
G03X1793630I35490J-2480D01*
G02X1803770Y4773310I10136J709D01*
G01X1856480D01*
G02X1865090Y4757750I4J-10160D01*
G03X1891830Y4703440I30151J-18893D01*
G02X1896420Y4698460I-487J-5054D01*
G03X1910580Y4670590I35577J544D01*
G02X1907530Y4652790I-6114J-8114D01*
G03X1892080Y4594740I10709J-33931D01*
G02X1892210Y4587990I-3731J-3448D01*
G03X1945400Y4588980I27035J-23130D01*
G02X1945270Y4595730I3731J3448D01*
G03X1951200Y4605450I-27017J23152D01*
G02X1957190Y4608450I4704J-1913D01*
G03X2000130Y4653680I9047J34409D01*
G02X2005410Y4665930I9680J3091D01*
G03X2015620Y4722690I-15410J32070D01*
G03X2019560Y4737900I-31622J16307D01*
G02X2036320Y4745310I10156J-311D01*
G01X2140180D01*
X2152520Y4757660D01*
X2158540Y4751640D01*
X2157200Y4748490D01*
G03X2222060Y4749850I32736J-13933D01*
G03X2226560Y4779540I-29641J19679D01*
G02X2233240Y4792080I9751J2855D01*
G03X2258080Y4826000I-10740J33920D01*
G02X2268240Y4836160I10160J0D01*
G01X2537550D01*
X2538940Y4833300D01*
G03X2602940I32000J15560D01*
G01X2604330Y4836160D01*
X2723340D01*
X2863040Y4696460D01*
X3091640D01*
X3129740Y4734560D01*
Y4988560D01*
X3282140Y5140960D01*
X4006040D01*
X4049590Y5097410D01*
Y5026660D01*
G37*
G36*
G01X2202640Y1038860D02*
X2164540Y1076960D01*
Y1344660D01*
X2167090Y1346120D01*
G03X2172050Y1349650I-15858J27532D01*
G02X2185120Y1349850I6654J-7675D01*
G03X2216410Y1344770I20058J24640D01*
G02X2229020Y1339930I3586J-9505D01*
G03X2246020Y1384230I28229J14579D01*
G02X2233410Y1389070I-3586J9505D01*
G03X2184370Y1398500I-28230J-14578D01*
G02X2171300Y1398300I-6654J7675D01*
G03X2167090Y1401200I-20071J-24631D01*
G01X2164540Y1402660D01*
Y1457960D01*
X1694640Y1927860D01*
X1382400D01*
X1250140Y2060120D01*
Y2405430D01*
G02X1259740Y2415570I10158J-3D01*
G03Y2486630I-1980J35530D01*
G02X1250140Y2496770I558J10143D01*
G01Y2688970D01*
X1253920Y2689970D01*
G03Y2748950I-7780J29490D01*
G01X1250140Y2749950D01*
Y3515360D01*
X1265380Y3530600D01*
X1438100D01*
X1447780Y3520920D01*
Y3495310D01*
X1450780Y3492310D01*
Y3273740D01*
G02X1440160Y3263590I-10161J1D01*
G03X1465260Y3204520I-1590J-35543D01*
G02X1471870Y3205410I3816J-3354D01*
G03X1475110Y3203510I19592J29698D01*
G01X1475820Y3203140D01*
X1483220Y3195740D01*
X1481230Y3192360D01*
G03X1510510Y3138790I30680J-18018D01*
G02X1520190Y3129910I-401J-10153D01*
G03X1533360Y3106500I35300J4450D01*
G02X1534250Y3099460I-3164J-3976D01*
G03X1597950Y3073890I28358J-21484D01*
G01X1598470Y3078390D01*
X2085800D01*
G02X2094260Y3062610I-1J-10158D01*
G03X2153540I29640J-19690D01*
G02X2162000Y3078390I8461J5622D01*
G01X2296710D01*
X2468530Y2906570D01*
X2467890Y2903830D01*
G03X2479500Y2868650I34651J-8070D01*
G01Y2004060D01*
X2609040Y1874520D01*
Y1572080D01*
X2713000Y1468120D01*
X3027230D01*
G02X3037100Y1455540I1J-10161D01*
G03X3096340I29620J-7260D01*
G02X3106210Y1468120I9869J2419D01*
G01X3177820D01*
X3266900Y1379040D01*
Y1148260D01*
X3157500Y1038860D01*
X2997540D01*
G03X2935260I-31140J-17220D01*
G01X2202640D01*
G37*
G36*
G01X1357030Y4290060D02*
X1357040Y4284990D01*
G03X1418040I30500J70D01*
G01X1418050Y4290060D01*
X1486020D01*
X1486650Y4285710D01*
G03X1547030I30190J4350D01*
G01X1547660Y4290060D01*
X1615320D01*
X1615950Y4285710D01*
G03X1676330I30190J4350D01*
G01X1676960Y4290060D01*
X1936360D01*
G03X2000120I31880J15800D01*
G01X2240740D01*
X2278840Y4251960D01*
X2621740D01*
X2647140Y4226560D01*
Y4112260D01*
X2609580Y4074700D01*
X2606400Y4076110D01*
G03X2578060Y4074800I-12857J-29051D01*
G01X2576910Y4074160D01*
X2538770D01*
G03X2494910I-21930J-22990D01*
G01X2446700D01*
X2445640Y4074670D01*
G03X2417900I-13870J-28580D01*
G01X2416840Y4074160D01*
X2351830D01*
X2351570Y4074190D01*
G03X2344950I-3310J-31600D01*
G01X2344690Y4074160D01*
X2279040D01*
X2278030Y4074620D01*
G03X2251530I-13250J-28870D01*
G01X2250520Y4074160D01*
X2205880D01*
G03X2163080I-21400J-23480D01*
G01X1891490D01*
G02X1884020Y4091200I4J10159D01*
G01X1929120Y4136300D01*
G03X1929600Y4136790I-18833J18929D01*
G01X1936930Y4144120D01*
Y4154380D01*
G03Y4155980I-26690J800D01*
G01Y4171330D01*
G03X1882440Y4172660I-26687J23531D01*
G01X1883550Y4171260D01*
Y4166250D01*
X1881510Y4164210D01*
X1875840D01*
X1874320Y4166360D01*
G03X1809710Y4143900I-29083J-20499D01*
G02X1799570Y4133180I-10143J-562D01*
G01X1787350D01*
X1738830Y4181700D01*
X1325490D01*
X1278940Y4135150D01*
Y4132310D01*
X1259810Y4113180D01*
X1250840D01*
G02X1240710Y4124120I1J10161D01*
G03X1234440Y4147190I-35472J2746D01*
G02X1235440Y4154060I4172J2901D01*
G03X1184040Y4161530I-22202J27801D01*
G02X1183040Y4154660I-4172J-2901D01*
G03X1169770Y4124120I22202J-27800D01*
G02X1159640Y4113180I-10131J-779D01*
G01X1007350D01*
G03X940160Y4103790I-32110J-15323D01*
G01X939440Y4099560D01*
X932640D01*
X907240Y4124960D01*
Y4277360D01*
X919940Y4290060D01*
X1030750D01*
G02X1038410Y4273230I-3J-10159D01*
G03X1098670Y4237690I26827J-23371D01*
G02X1104920Y4240810I4773J-1742D01*
G03X1150600Y4278780I10318J34050D01*
G02X1160700Y4290060I10099J1119D01*
G01X1357030D01*
G37*
G36*
G01X2535380Y1988820D02*
X2507440Y2016760D01*
Y2860300D01*
X2511270Y2861270D01*
G03X2530300Y2918020I-8729J34493D01*
G02X2530600Y2924710I3964J3174D01*
G03X2479120Y2973840I-25659J24649D01*
G02X2464560Y2973640I-7377J6985D01*
G01X2368260Y3069940D01*
G02X2375620Y3087290I7180J7190D01*
G03X2373100Y3158300I620J35572D01*
G02X2362750Y3172140I-894J10121D01*
G03X2332780Y3149720I-33111J13020D01*
G02X2343130Y3135880I894J-10121D01*
G03X2340670Y3122240I33112J-13014D01*
G02X2323320Y3114880I-10160J-180D01*
G01X2316940Y3121260D01*
X2060300D01*
X2059250Y3124950D01*
G03X2000590I-29330J-8370D01*
G01X1999540Y3121260D01*
X1781940D01*
Y3118860D01*
X1674760D01*
X1670600Y3123020D01*
X1617080D01*
X1581920Y3158180D01*
G03X1579400Y3160710I-26437J-23813D01*
G01X1579310Y3160790D01*
X1574110Y3165990D01*
G02X1575440Y3181480I7183J7185D01*
G03X1538810Y3242280I-20492J29089D01*
G02X1524710Y3247730I-4603J9055D01*
G03X1487490Y3270480I-33270J-12610D01*
G02X1476200Y3280580I-1130J10097D01*
G01Y3502840D01*
X1473200Y3505840D01*
Y3835400D01*
X1506470Y3868670D01*
X1508850Y3868440D01*
G03X1543130Y3886200I3390J35419D01*
G01X1567640D01*
X1618440Y3937000D01*
Y3997960D01*
X1656540Y4036060D01*
X2114430D01*
G02X2123570Y4021460I3J-10159D01*
G03X2183860Y4009290I28567J-13900D01*
G02X2191700Y4019740I10145J555D01*
G03X2212690Y4036060I-7217J30941D01*
G01X2234340D01*
X2235670Y4033020D01*
G03X2293890I29110J12730D01*
G01X2295220Y4036060D01*
X2316950D01*
X2318110Y4032580D01*
G03X2378410I30150J10010D01*
G01X2379570Y4036060D01*
X2401450D01*
X2402790Y4033060D01*
G03X2460750I28980J13030D01*
G01X2462090Y4036060D01*
X2488890D01*
G03X2544790I27950J15110D01*
G01X2563570D01*
X2564950Y4033200D01*
G03X2623780Y4037310I28590J13858D01*
G01X2624150Y4038470D01*
X2685240Y4099560D01*
Y4226560D01*
X2676850Y4234950D01*
G02X2681260Y4251910I7182J7186D01*
G03X2691400Y4256860I-8646J30572D01*
G02X2704300Y4256130I6007J-8191D01*
G03X2707080Y4305080I21569J23329D01*
G02X2694180Y4305810I-6007J8191D01*
G03X2642040Y4291130I-21568J-23328D01*
G02X2625080Y4286720I-9774J2772D01*
G01X2621740Y4290060D01*
X2450190D01*
G02X2440240Y4302290I-2J10161D01*
G03X2394830Y4337130I-31104J6473D01*
G02X2380580Y4343090I-4578J9069D01*
G03X2324210Y4351440I-30245J-9729D01*
G02X2307590Y4351320I-8352J5780D01*
G03X2267990Y4361540I-25876J-18432D01*
G02X2253440Y4370710I-4389J9164D01*
G01Y4404760D01*
G02X2266140Y4414600I10159J3D01*
G03X2274430Y4477130I7947J30761D01*
G02X2267350Y4494470I106J10159D01*
G01X2393140Y4620260D01*
X2541480D01*
G02X2551600Y4611010I1J-10160D01*
G03X2607560Y4593420I31641J2851D01*
G02X2622530Y4594070I7783J-6531D01*
G01X2685240Y4531360D01*
X2850340D01*
X2875740Y4556760D01*
X2881420D01*
G02X2885570Y4548760I-4J-5078D01*
G03X2940890Y4542690I25987J-18278D01*
G02X2950270Y4556760I9377J3910D01*
G01X3036550D01*
G02X3045750Y4542290I-2J-10161D01*
G03X3103290I28770J-13470D01*
G02X3112490Y4556760I9202J4309D01*
G01X3357870D01*
G02X3367310Y4542860I-5J-10159D01*
G03X3413570Y4504150I29538J-11697D01*
G02X3428320Y4499360I5347J-8640D01*
G03X3434540Y4489340I32922J13496D01*
G01Y4353560D01*
X3440690Y4347410D01*
G03X3451790Y4336310I30090J18990D01*
G01X3510740Y4277360D01*
X3604360D01*
G02X3613260Y4262300I2J-10158D01*
G03X3789220I87980J-48440D01*
G02X3798120Y4277360I8898J4902D01*
G01X3858360D01*
G02X3867260Y4262300I2J-10158D01*
G03X3965030Y4113910I87978J-48438D01*
G02X3974070Y4097590I996J-10112D01*
G03X3966910Y4071640I28169J-21735D01*
G02X3956680Y4060280I-10088J-1202D01*
G03X4026750Y3889340I-1438J-100421D01*
G02X4044140Y3882210I7231J-7135D01*
G01Y3783510D01*
G02X4026750Y3776380I-10159J5D01*
G03Y3635340I-71510J-70520D01*
G02X4044140Y3628210I7231J-7135D01*
G01Y3529510D01*
G02X4026750Y3522380I-10159J5D01*
G03Y3381340I-71510J-70520D01*
G02X4044140Y3374210I7231J-7135D01*
G01Y3275510D01*
G02X4026750Y3268380I-10159J5D01*
G03Y3127340I-71510J-70520D01*
G02X4044140Y3120210I7231J-7135D01*
G01Y3021510D01*
G02X4026750Y3014380I-10159J5D01*
G03Y2873340I-71510J-70520D01*
G02X4044140Y2866210I7231J-7135D01*
G01Y2767510D01*
G02X4026750Y2760380I-10159J5D01*
G03X3891300Y2612410I-71510J-70520D01*
G02X3890370Y2596060I-6468J-7834D01*
G03X3936700Y2577330I16610J-25580D01*
G02X3947400Y2589740I9902J2280D01*
G03X3986810Y2594520I7851J100122D01*
G02X3999730Y2581910I3201J-9644D01*
G03X4032710Y2542760I29173J-8891D01*
G02X4044140Y2532680I1270J-10080D01*
G01Y2489630D01*
G02X4025590Y2483900I-10160J1D01*
G03Y2387820I-70350J-48040D01*
G02X4044140Y2382090I8390J-5731D01*
G01Y2359660D01*
X4031430Y2346950D01*
X4029290Y2346980D01*
G03X3999670Y2325190I-389J-30498D01*
G01X3998590Y2321560D01*
X3929100D01*
X3927850Y2324830D01*
G03X3870870I-28490J-10890D01*
G01X3869620Y2321560D01*
X3637740D01*
X3538680Y2222500D01*
Y2220140D01*
X3401130Y2082590D01*
G02X3385540Y2084080I-7179J7188D01*
G03X3336120Y2034660I-29450J-19970D01*
G02X3337610Y2019070I-5698J-8411D01*
G01X3307360Y1988820D01*
X2995880D01*
G02X2986120Y2001800I1J10160D01*
G03X2917760I-34180J9880D01*
G02X2908000Y1988820I-9761J-2820D01*
G01X2653090D01*
G03X2615790I-18650J-30300D01*
G01X2535380D01*
G37*
%LPC*%
G75*
G36*
G01X3426870Y1416440D02*
G03X3413270Y1415660I-6368J-7914D01*
G02X3410660Y1460830I-21729J21405D01*
G03X3424260Y1461610I6368J7914D01*
G02X3426870Y1416440I21729J-21405D01*
G37*
G36*
G01X728780Y949410D02*
G03X728770Y963500I-7329J7040D01*
G02X777370Y999520I21969J21155D01*
G03X792170Y996220I8872J4951D01*
G02X780460Y960760I18551J-25790D01*
G03X772070Y962850I-4840J-1545D01*
G02X769380Y960510I-21328J21802D01*
G03Y952460I3101J-4025D01*
G02X728780Y949410I-18599J-24171D01*
G37*
G36*
G01X2898570Y767920D02*
G03X2898690Y754590I7728J-6596D01*
G02X2852650Y754200I-22851J-20201D01*
G03X2852530Y767530I-7728J6596D01*
G02X2898570Y767920I22851J20201D01*
G37*
G36*
G01X739480Y805060D02*
G03X736910Y821290I-7185J7181D01*
G02X777950Y862330I13870J27170D01*
G03X794180Y859760I9049J4615D01*
G01X815800Y881380D01*
X900210D01*
Y955970D01*
X1167250D01*
Y687940D01*
X900210D01*
Y769620D01*
X836120D01*
X782780Y716280D01*
Y561910D01*
G03X794690Y551900I10161J0D01*
G02X822840Y501710I5251J-30044D01*
G03X823280Y487820I7627J-6710D01*
G01X825960Y485140D01*
Y443230D01*
X799290Y416560D01*
X752300D01*
X693880Y474980D01*
Y759460D01*
X739480Y805060D01*
G37*
G36*
G01X3021230Y392130D02*
G03X3023510Y378370I8428J-5672D01*
G02X2966080Y380550I-30268J-39810D01*
G03X2969390Y394100I-5522J8528D01*
G02X3021230Y392130I26529J15049D01*
G37*
G36*
G01X2232050Y63640D02*
G03X2224810Y63350I-3477J-3705D01*
G02X2179780Y63220I-22574J20510D01*
G03X2172590Y63510I-3740J-3438D01*
G02X2174300Y106500I-20750J22354D01*
G03X2181490Y106210I3740J3438D01*
G02X2223130Y106080I20750J-22351D01*
G03X2230370Y106370I3477J3705D01*
G02X2232050Y63640I22571J-20511D01*
G37*
G36*
G01X3676900Y2082730D02*
G02X3643970Y2097370I-26463J-15168D01*
G03X3648150Y2115240I-2156J9928D01*
G02X3768980Y2130200I53093J66621D01*
G03X3771610Y2115460I8078J-6163D01*
G02X3724820Y2088020I-16339J-25752D01*
G03X3713240Y2097520I-10146J-559D01*
G02X3687370Y2097810I-11991J84341D01*
G03X3676900Y2082730I-1656J-10025D01*
G37*
G36*
G01X3571160Y2075650D02*
G02X3535080Y2082080I-22318J-20790D01*
G03X3537920Y2098070I-4590J9063D01*
G02X3574000Y2091640I22318J20790D01*
G03X3571160Y2075650I4590J-9063D01*
G37*
G36*
G01X3777950Y1863860D02*
G02X3741990Y1836640I-5588J-29981D01*
G03X3728600Y1847180I-10119J921D01*
G02X3771450Y1879600I-27354J80682D01*
G03X3777950Y1863860I8371J-5755D01*
G37*
G36*
G01X3108720Y615720D02*
G02X3089260Y660540I-26479J15138D01*
G03X3101760Y670050I2346J9887D01*
G02X3175300Y732260I65144J-2437D01*
G03X3186760Y742710I1309J10073D01*
G02X3245780Y733090I30481J1145D01*
G03X3255520Y719350I9505J-3584D01*
G02X3275950Y665590I717J-30490D01*
G03X3274700Y651340I6568J-7756D01*
G02X3225130Y616090I-23459J-19490D01*
G03X3209760Y618490I-8693J-5256D01*
G02X3124190Y618360I-42860J49120D01*
G03X3108720Y615720I-6650J-7680D01*
G37*
G36*
G01X2411480Y555550D02*
G02X2350740Y552080I-30241J-3990D01*
G03X2341720Y562350I-10156J176D01*
G02X2375640Y592140I3422J30310D01*
G03X2384660Y581870I10156J-176D01*
G02X2392260Y580000I-3427J-30308D01*
G03X2406000Y590800I3668J9474D01*
G02X2425220Y566350I30239J3991D01*
G03X2411480Y555550I-3668J-9474D01*
G37*
G36*
G01X2789710Y54250D02*
G02X2785200Y92430I-25771J16312D01*
G03X2800870Y94270I7088J7279D01*
G02X2805380Y56090I25771J-16312D01*
G03X2789710Y54250I-7088J-7279D01*
G37*
G36*
G01X2063640Y5577630D02*
G03X2068880Y5590630I-4203J9250D01*
G02X2069850Y5615280I28359J11228D01*
G03X2065850Y5628530I-9121J4475D01*
G02X2053900Y5641330I15382J26338D01*
G03X2041580Y5646460I-9104J-4506D01*
G02X2059260Y5688920I-9658J28932D01*
G03X2071580Y5683790I9104J4506D01*
G02X2108630Y5641440I9661J-28930D01*
G03X2112630Y5628190I9121J-4475D01*
G02X2109840Y5574090I-15393J-26328D01*
G03X2104600Y5561090I4203J-9250D01*
G02X2063640Y5577630I-28355J-11233D01*
G37*
G36*
G01X2049640Y5412710D02*
G03X2062730Y5409690I8259J5917D01*
G02X2052440Y5365110I14511J-26827D01*
G03X2039350Y5368130I-8259J-5917D01*
G02X2049640Y5412710I-14511J26827D01*
G37*
G36*
G01X3067670Y5208670D02*
G03X3054170Y5207670I-6190J-8060D01*
G02X3007140Y5211540I-21930J21192D01*
G03X2993640Y5214540I-8366J-5771D01*
G02X3003340Y5258180I-15402J26322D01*
G03X3016840Y5255180I8366J5771D01*
G02X3050810Y5253050I15401J-26322D01*
G03X3064310Y5254050I6190J8060D01*
G02X3067670Y5208670I21932J-21190D01*
G37*
G36*
G01X2212220Y5726360D02*
G02X2185690Y5741850I21J30500D01*
G03X2171830Y5745680I-8842J-5004D01*
G02X2183330Y5787220I-15050J26528D01*
G03X2197190Y5783390I8842J5004D01*
G02X2241130Y5747080I15050J-26529D01*
G03X2248870Y5733830I9623J-3265D01*
G02X2265690Y5683210I-5629J-29975D01*
G03X2266430Y5668720I7472J-6882D01*
G02X2223790Y5666510I-20192J-22860D01*
G03X2223050Y5681000I-7472J6882D01*
G02X2216650Y5718790I20192J22857D01*
G03X2212220Y5726360I-4431J2488D01*
G37*
G36*
G01X3013830Y5363170D02*
G02X3013580Y5401660I-23789J19091D01*
G03X3029340Y5401760I7839J6459D01*
G02X3029590Y5363270I23789J-19091D01*
G03X3013830Y5363170I-7839J-6459D01*
G37*
G36*
G01X1293020Y5365140D02*
G02X1281190Y5393920I-30179J4416D01*
G03X1297350Y5400570I6107J8119D01*
G02X1309180Y5371790I30179J-4416D01*
G03X1293020Y5365140I-6107J-8119D01*
G37*
G36*
G01X2310950Y5250500D02*
G02X2262710Y5287550I-22713J20357D01*
G03X2256980Y5302880I-8503J5558D01*
G02X2237800Y5319010I8309J29349D01*
G03X2224050Y5323660I-9151J-4406D01*
G02X2237730Y5364080I-13808J27198D01*
G03X2251480Y5359430I9151J4406D01*
G02X2290820Y5315540I13812J-27196D01*
G03X2296550Y5300210I8503J-5558D01*
G02X2305240Y5296190I-8303J-29351D01*
G03X2318460Y5297840I5660J8434D01*
G02X2324170Y5252150I22709J-20364D01*
G03X2310950Y5250500I-5660J-8434D01*
G37*
G36*
G01X666570Y5231890D02*
G02X630390Y5224660I-13331J-27431D01*
G03X627210Y5240530I-7615J6728D01*
G02X663390Y5247760I13331J27431D01*
G03X666570Y5231890I7615J-6728D01*
G37*
G36*
G01X299030Y5136940D02*
G02X263400Y5137480I-18190J-24481D01*
G03X263650Y5153980I-5804J8340D01*
G02X262190Y5201780I18192J24478D01*
G03X261940Y5217520I-6550J7768D01*
G02X300490Y5218140I18895J23941D01*
G03X300740Y5202400I6550J-7768D01*
G02X299280Y5153440I-18900J-23938D01*
G03X299030Y5136940I5804J-8340D01*
G37*
G36*
G01X2239160Y5045710D02*
G03Y5033010I7930J-6350D01*
G02X2191520I-23820J-19050D01*
G03Y5045710I-7930J6350D01*
G02X2239160I23820J19050D01*
G37*
G36*
G01X1297770Y4990940D02*
G03X1304110I3170J3970D01*
G02Y4935380I22230J-27780D01*
G03X1297770I-3170J-3970D01*
G02Y4990940I-22230J27780D01*
G37*
G36*
G01X1145370D02*
G03X1151710I3170J3970D01*
G02Y4935380I22230J-27780D01*
G03X1145370I-3170J-3970D01*
G02Y4990940I-22230J27780D01*
G37*
G36*
G01X1855080Y4934250D02*
G02X1855500Y4991770I-20739J28913D01*
G02X1855080Y4934250I20739J-28913D01*
G37*
G36*
G01X2004420Y4913700D02*
G03X2002170Y4907330I2452J-4449D01*
G02X1952060Y4925020I-32932J-13469D01*
G03X1954310Y4931390I-2452J4449D01*
G02X1953140Y4955020I32930J13474D01*
G03X1950270Y4961140I-4869J1450D01*
G02X1998340Y4983700I13972J32721D01*
G03X2001210Y4977580I4869J-1450D01*
G02X2004420Y4913700I-13970J-32723D01*
G37*
G36*
G01X609790Y4878620D02*
G03X609480Y4894170I-6692J7645D01*
G02X655270Y4895100I22342J27690D01*
G03X655580Y4879550I6692J-7645D01*
G02X609790Y4878620I-22342J-27690D01*
G37*
G36*
G01X3007750Y4812480D02*
G03X3022390Y4808040I9260J4176D01*
G02X3008800Y4763240I18849J-30179D01*
G03X2994160Y4767680I-9260J-4176D01*
G02X3007750Y4812480I-18849J30179D01*
G37*
G36*
G01X743480Y4370910D02*
G03X728100I-7690J-6637D01*
G02X683290Y4415720I-24060J20750D01*
G03Y4431100I-6637J7690D01*
G02X728100Y4475910I20750J24060D01*
G03X743480I7690J6637D01*
G02X788290Y4431100I24060J-20750D01*
G03Y4415720I6637J-7690D01*
G02X743480Y4370910I-20750J-24060D01*
G37*
G36*
G01X1029290Y3112010D02*
G03X1021200Y3122980I-10107J1015D01*
G02X1009830Y3188310I7037J34879D01*
G03X1011860Y3194690I-2624J4348D01*
G02X1079940Y3206040I32617J14212D01*
G03X1088950Y3195120I10130J-819D01*
G02X1096380Y3126030I-3909J-35365D01*
G03X1089620Y3114540I3229J-9633D01*
G02X1029290Y3112010I-29984J-5583D01*
G37*
G36*
G01X585610Y2970360D02*
G03Y2957040I7671J-6660D01*
G02X539570I-23020J-20010D01*
G03Y2970360I-7671J6660D01*
G02X585610I23020J20010D01*
G37*
G36*
G01Y2574120D02*
G03Y2560800I7671J-6660D01*
G02X539570I-23020J-20010D01*
G03Y2574120I-7671J6660D01*
G02X585610I23020J20010D01*
G37*
G36*
G01X973600Y2548710D02*
G03X974150Y2534210I7381J-6980D01*
G02X924390Y2532310I-23910J-26349D01*
G03X923840Y2546810I-7381J6980D01*
G02X973600Y2548710I23910J26349D01*
G37*
G36*
G01X764200Y2474400D02*
G03X763890Y2481380I-3839J3326D01*
G02X815490Y2483680I24710J25600D01*
G03X815800Y2476700I3839J-3326D01*
G02X764200Y2474400I-24710J-25600D01*
G37*
G36*
G01X564020Y2059990D02*
G03X559260Y2055070I319J-5071D01*
G02X521480Y2091640I-35563J1061D01*
G03X526240Y2096560I-319J5071D01*
G02X564020Y2059990I35563J-1061D01*
G37*
G36*
G01X585220Y1897370D02*
G03X584760Y1890720I3596J-3590D01*
G02X531190Y1894470I-28415J-21411D01*
G03X531650Y1901120I-3596J3590D01*
G02X533190Y1945840I28420J21408D01*
G03Y1952510I-3835J3335D01*
G02X586900Y1952560I26833J23362D01*
G03Y1945890I3835J-3335D01*
G02X585220Y1897370I-26833J-23360D01*
G37*
G36*
G01X1573550Y1611460D02*
G03X1566890Y1611450I-3324J-3841D01*
G02X1566810Y1665160I-23380J26820D01*
G03X1573470Y1665170I3324J3841D01*
G02X1573550Y1611460I23380J-26820D01*
G37*
G36*
G01X1417820Y1668430D02*
G03X1422810Y1663440I5075J85D01*
G02X1386660Y1627290I-570J-35580D01*
G03X1381670Y1632280I-5075J-85D01*
G02X1417820Y1668430I570J35580D01*
G37*
G36*
G01X947660Y1367230D02*
G03X934740Y1364640I-4941J-8875D01*
G02X888410Y1360790I-24959J19659D01*
G03X875480Y1361410I-6840J-7513D01*
G02X877810Y1410350I-19040J25432D01*
G03X890740Y1409730I6840J7513D01*
G02X925240Y1412060I19046J-25429D01*
G03X938160Y1414650I4941J8875D01*
G02X947660Y1367230I24958J-19662D01*
G37*
G36*
G01X1654320Y1375340D02*
G03X1669570Y1374370I8050J6196D01*
G02X1666920Y1332590I22529J-22403D01*
G03X1651670Y1333560I-8050J-6196D01*
G02X1654320Y1375340I-22529J22403D01*
G37*
G36*
G01X1651000Y1046810D02*
G03X1636820Y1046420I-6890J-7469D01*
G02X1588920Y1049120I-22778J22142D01*
G03X1575560Y1051550I-8033J-6223D01*
G02X1584030Y1098050I-16652J27055D01*
G03X1597390Y1095620I8033J6223D01*
G02X1635580Y1091910I16646J-27060D01*
G03X1649760Y1092300I6890J7469D01*
G02X1651000Y1046810I22781J-22141D01*
G37*
G36*
G01X1653320Y4919390D02*
G02X1632960Y4944840I-34878J-7033D01*
G03X1647060Y4956130I4141J9278D01*
G02X1705270Y4990030I34880J7034D01*
G02X1704910Y4935990I22969J-27174D01*
G02X1667420Y4930680I-22969J27171D01*
G03X1653320Y4919390I-4141J-9278D01*
G37*
G36*
G01X1289360Y1414970D02*
G02X1255050Y1410640I-13818J-28609D01*
G03X1252920Y1427550I-6551J7764D01*
G02X1287230Y1431880I13818J28609D01*
G03X1289360Y1414970I6551J-7764D01*
G37*
G36*
G01X1555770Y1375160D02*
G02X1499550Y1402660I-30528J8808D01*
G03X1495970Y1417680I-8213J5979D01*
G02X1542150Y1447840I14468J28282D01*
G03X1557800Y1439890I10145J592D01*
G02X1567830Y1382240I17211J-26703D01*
G03X1555770Y1375160I-2300J-9894D01*
G37*
G36*
G01X1458350Y1410050D02*
G02X1417930Y1404530I-16914J-26891D01*
G03X1415830Y1419970I-7513J6841D01*
G02X1456250Y1425490I16914J26891D01*
G03X1458350Y1410050I7513J-6841D01*
G37*
G36*
G01X1375170Y1406010D02*
G02X1340180Y1403800I-15825J-27549D01*
G03X1339110Y1420710I-6130J8101D01*
G02X1374100Y1422920I15825J27549D01*
G03X1375170Y1406010I6130J-8101D01*
G37*
G36*
G01X1301710Y3858650D02*
G03X1301840Y3865590I-3642J3539D01*
G02X1353770Y3864650I26405J23849D01*
G03X1353640Y3857710I3642J-3539D01*
G02X1301710Y3858650I-26405J-23849D01*
G37*
G36*
G01X1313390Y3724490D02*
G03X1320110Y3723290I4021J3102D01*
G02X1308000Y3675770I18930J-30127D01*
G03X1301520Y3677940I-4434J-2479D01*
G02X1313390Y3724490I-12280J27920D01*
G37*
G36*
G01X3579840Y4859410D02*
G03X3572010Y4870330I-10110J1018D01*
G02X3615400Y4901450I7989J34670D01*
G03X3623230Y4890530I10110J-1018D01*
G02X3579840Y4859410I-7989J-34670D01*
G37*
G36*
G01X3751470Y4634890D02*
G03X3749410Y4628360I2545J-4393D01*
G02X3681930Y4618470I-32267J-14997D01*
G03X3678070Y4624140I-5028J726D01*
G02X3751470Y4634890I23175J97720D01*
G37*
G36*
G01X2160140Y4616690D02*
G02X2222340Y4605030I34099J10167D01*
G02X2160140Y4616690I-34099J-10167D01*
G37*
G36*
G01X2098110Y4585760D02*
G03X2110550Y4579090I9674J3107D01*
G02X2086370Y4533960I9689J-34234D01*
G03X2073930Y4540630I-9674J-3107D01*
G02X2098110Y4585760I-9689J34234D01*
G37*
G36*
G01X1983770Y4442060D02*
G03X1987900Y4436810I5075J-257D01*
G02X1945710Y4403660I-6657J-34950D01*
G03X1941580Y4408910I-5075J257D01*
G02X1983770Y4442060I6657J34950D01*
G37*
G36*
G01X3765160Y4898100D02*
G02X3722030Y4877370I-10157J-34099D01*
G03X3711400Y4891280I-9415J3822D01*
G02X3760940Y4915080I-10149J84585D01*
G03X3765160Y4898100I7119J-7245D01*
G37*
G36*
G01X1336890Y4675180D02*
G02X1336020Y4639210I30251J-18727D01*
G03X1318490Y4639640I-8891J-4920D01*
G02X1319360Y4675610I-30251J18727D01*
G03X1336890Y4675180I8891J4920D01*
G37*
G36*
G01X1756250Y2934150D02*
G03X1756820Y2949140I-6560J7755D01*
G02X1797910Y2947550I21416J21719D01*
G03X1797340Y2932560I6560J-7755D01*
G02X1756250Y2934150I-21416J-21719D01*
G37*
G36*
G01X2283150Y2314510D02*
G03X2286270Y2320890I-1704J4786D01*
G02X2331950Y2298510I33786J11152D01*
G03X2328830Y2292130I1704J-4786D01*
G02X2283150Y2314510I-33786J-11152D01*
G37*
G36*
G01X2234240Y2152710D02*
G03X2228020Y2149320I-1367J-4893D01*
G02X2168480Y2135110I-33981J10541D01*
G03X2161750Y2135620I-3652J-3532D01*
G02Y2184100I-18510J24240D01*
G03X2168480Y2184610I3078J4042D01*
G02X2203610Y2194130I25562J-24749D01*
G03X2209830Y2197520I1367J4893D01*
G02X2210570Y2199680I34012J-10446D01*
G03X2205780Y2212310I-9488J3625D01*
G02X2255480Y2231160I16460J31547D01*
G03X2260270Y2218530I9488J-3625D01*
G02X2234240Y2152710I-16449J-31552D01*
G37*
G36*
G01X1339370Y2095690D02*
G03X1349000Y2083640I9981J-1896D01*
G02X1312830Y2054740I-1219J-35559D01*
G03X1303200Y2066790I-9981J1896D01*
G02X1339370Y2095690I1219J35559D01*
G37*
G36*
G01X1963190Y1902640D02*
G03X1956070Y1902390I-3433J-3744D01*
G02X1954290Y1953080I-25830J24469D01*
G03X1961410Y1953330I3433J3744D01*
G02X1963190Y1902640I25830J-24469D01*
G37*
G36*
G01X2043350Y1895280D02*
G03X2043600Y1902280I-3555J3631D01*
G02X2056570Y1958710I26641J23582D01*
G03X2061240Y1973540I-3906J9380D01*
G02X2104930Y1959780I30024J19090D01*
G03X2100260Y1944950I3906J-9380D01*
G02X2095130Y1900440I-30022J-19090D01*
G03X2094880Y1893440I3555J-3631D01*
G02X2043350Y1895280I-26640J-23582D01*
G37*
G36*
G01X2273070Y1680210D02*
G03X2266350I-3360J-3811D01*
G02Y1733550I-23550J26670D01*
G03X2273070I3360J3811D01*
G02X2323590Y1730090I23552J-26670D01*
G03X2330650Y1729470I3848J3314D01*
G02X2329760Y1683000I19308J-23613D01*
G03X2322680Y1682660I-3366J-3804D01*
G02X2273070Y1680210I-26062J24221D01*
G37*
G36*
G01X2145940Y2919700D02*
G02X2111140Y2920110I-17695J-24841D01*
G03X2111330Y2936800I-5701J8411D01*
G02X2146130Y2936390I17695J24841D01*
G03X2145940Y2919700I5701J-8411D01*
G37*
G36*
G01X2861460Y1245870D02*
G02X2808160Y1257080I-23823J19048D01*
G03X2793450Y1263370I-9816J-2611D01*
G02X2753820Y1307670I-14708J26719D01*
G03X2750460Y1322410I-8302J5861D01*
G02X2747220Y1324460I16016J28898D01*
G03X2734300Y1323590I-5934J-8245D01*
G02Y1378970I-26200J27690D01*
G03X2747220Y1378100I6986J7375D01*
G02X2792440Y1330790I19302J-26817D01*
G03X2795000Y1315900I7973J-6294D01*
G02X2808220Y1297930I-16259J-25809D01*
G03X2822930Y1291640I9816J2611D01*
G02X2861460Y1283970I14710J-26719D01*
G03X2877320I7930J6350D01*
G02Y1245870I23820J-19050D01*
G03X2861460I-7930J-6350D01*
G37*
G36*
G01X2939600Y4386120D02*
G03X2951580Y4381260I8938J4837D01*
G02X2933150Y4335840I9513J-30309D01*
G03X2921170Y4340700I-8938J-4837D01*
G02X2939600Y4386120I-9513J30309D01*
G37*
G36*
G01X3026620Y4308050D02*
G03X3026050Y4322550I-7389J6971D01*
G02X3070500Y4324310I21327J23549D01*
G03X3071070Y4309810I7389J-6971D01*
G02X3026620Y4308050I-21327J-23549D01*
G37*
G36*
G01X2816920Y4180730D02*
G03X2817160Y4167810I7957J-6314D01*
G02X2768140Y4166910I-24139J-20658D01*
G03X2767900Y4179830I-7957J6314D01*
G02X2816920Y4180730I24139J20658D01*
G37*
G36*
G01X3433720Y3842840D02*
G03X3422500Y3836010I-1579J-10036D01*
G02X3397310Y3877440I-30139J10048D01*
G03X3408530Y3884270I1579J10036D01*
G02X3433720Y3842840I30139J-10048D01*
G37*
G36*
G01X1834150Y3846440D02*
G03X1825580Y3836770I1585J-10037D01*
G02X1788900Y3869290I-31748J1137D01*
G03X1797470Y3878960I-1585J10037D01*
G02X1834150Y3846440I31748J-1137D01*
G37*
G36*
G01X2294920Y3854680D02*
G03X2290240Y3841740I4688J-9012D01*
G02X2246260Y3857640I-29303J-12278D01*
G03X2250940Y3870580I-4688J9012D01*
G02X2294920Y3854680I29303J12278D01*
G37*
G36*
G01X1607170Y3799910D02*
G03X1600370Y3786670I2754J-9781D01*
G02X1559430Y3805640I-29874J-10809D01*
G03X1565130Y3819380I-3542J9522D01*
G02X1607760Y3868220I32370J14771D01*
G03X1620800Y3877040I2922J9729D01*
G02X1689280Y3860650I35439J-3186D01*
G03X1693510Y3848150I9431J-3774D01*
G02X1646700Y3829600I-16266J-27289D01*
G03X1641220Y3841610I-9770J2797D01*
G02X1640300Y3842050I14889J32314D01*
G03X1632960Y3837090I-2278J-4540D01*
G02X1607170Y3799910I-35459J-2939D01*
G37*
G36*
G01X2654870Y3807630D02*
G03X2657400Y3794490I8772J-5125D01*
G02X2616460Y3745960I-19528J-25059D01*
G03X2603550Y3746600I-6843J-7511D01*
G02X2586150Y3803820I-18962J25490D01*
G03X2596530Y3816320I496J10148D01*
G02X2654870Y3807630I30911J7340D01*
G37*
G36*
G01X2018120Y3840540D02*
G03X2017700Y3854220I-7713J6610D01*
G02X2064630Y3855660I22808J22119D01*
G03X2065050Y3841980I7713J-6610D01*
G02X2064730Y3797420I-22809J-22117D01*
G03X2065930Y3789360I3598J-3584D01*
G02X2066480Y3789050I-15323J-27829D01*
G03X2079400Y3791570I4978J8857D01*
G02X2130670Y3789390I24839J-19809D01*
G03X2144190Y3786220I8453J5636D01*
G02X2179600Y3783700I15835J-27541D01*
G03X2192530Y3784040I6259J8005D01*
G02X2193790Y3735030I20831J-23986D01*
G03X2180860Y3734690I-6259J-8005D01*
G02X2133600Y3741050I-20830J23990D01*
G03X2120080Y3744220I-8453J-5636D01*
G02X2088670Y3744070I-15837J27540D01*
G03X2075750Y3741550I-4978J-8857D01*
G02X2025340Y3780220I-24840J19810D01*
G03X2023240Y3794400I-8172J6035D01*
G02X2018120Y3840540I19000J25462D01*
G37*
G36*
G01X3211980Y3760390D02*
G03X3224660Y3754120I9573J3403D01*
G02X3204460Y3713250I9739J-30241D01*
G03X3191780Y3719520I-9573J-3403D01*
G02X3211980Y3760390I-9739J30241D01*
G37*
G36*
G01X3347570Y3733150D02*
G03X3345330Y3718420I5711J-8404D01*
G02X3302600Y3724920I-24867J-19771D01*
G03X3304840Y3739650I-5711J8404D01*
G02X3347570Y3733150I24867J19771D01*
G37*
G36*
G01X2979380Y3649110D02*
G03X2966480Y3648420I-6031J-8176D01*
G02X2963870Y3697370I-21490J23399D01*
G03X2976770Y3698060I6031J8176D01*
G02X2979380Y3649110I21490J-23399D01*
G37*
G36*
G01X3319830Y3521520D02*
G03X3316840Y3508230I5859J-8300D01*
G02X3265330Y3519830I-30996J-17471D01*
G03X3268320Y3533120I-5859J8300D01*
G02X3319830Y3521520I30996J17471D01*
G37*
G36*
G01X2417650Y3292990D02*
G03X2431860Y3292700I7253J7114D01*
G02X2430860Y3243700I23510J-24990D01*
G03X2416650Y3243990I-7253J-7114D01*
G02X2417650Y3292990I-23510J24990D01*
G37*
G36*
G01X1896680Y3183950D02*
G03X1889940Y3183540I-3140J-3993D01*
G02X1890660Y3233030I-25200J25117D01*
G03X1897390Y3232430I3702J3480D01*
G02X1896680Y3183950I18150J-24511D01*
G37*
G36*
G01X3624140Y3262220D02*
G02X3681540Y3296340I22413J27637D01*
G02X3720830Y3296360I19695J-98480D01*
G03X3732890Y3305070I1979J9964D01*
G02X3786500Y3270160I35307J-4398D01*
G03X3783410Y3255600I5223J-8716D01*
G02X3624140Y3262220I-82173J-57740D01*
G37*
G36*
G01X2685710Y3024930D02*
G03X2680930Y3037070I-9638J3216D01*
G02X2730340Y3053610I17012J31250D01*
G03X2733840Y3041040I9251J-4196D01*
G02X2685710Y3024930I-17998J-26180D01*
G37*
G36*
G01X2611530Y2122010D02*
G03X2611620Y2108350I7568J-6780D01*
G02X2558950Y2108010I-26181J-24091D01*
G03X2558860Y2121670I-7568J6780D01*
G02X2557340Y2168090I26181J24092D01*
G03X2556960Y2181280I-7911J6373D01*
G02X2611040Y2182830I26378J23879D01*
G03X2611420Y2169640I7911J-6373D01*
G02X2611530Y2122010I-26380J-23876D01*
G37*
G36*
G01X3439380Y4066790D02*
G02X3437780Y4032800I26000J-18257D01*
G03X3420640Y4033600I-8824J-5036D01*
G02X3422240Y4067590I-26000J18257D01*
G03X3439380Y4066790I8824J5036D01*
G37*
G36*
G01X3169740Y4075470D02*
G02X3138100Y4076550I-16760J-26990D01*
G03X3138700Y4094150I-4765J8973D01*
G02X3170340Y4093070I16760J26990D01*
G03X3169740Y4075470I4765J-8973D01*
G37*
G36*
G01X2438790Y3778340D02*
G02X2383390Y3753620I-23852J-20984D01*
G03X2372610Y3762560I-10088J-1194D01*
G02X2382210Y3823770I-2167J31698D01*
G03X2395760Y3830460I3767J9436D01*
G02X2395980Y3831240I30685J-8234D01*
G03X2385060Y3844320I-9706J2995D01*
G02X2411600Y3866480I-3815J31542D01*
G03X2422520Y3853400I9706J-2995D01*
G02X2441560Y3793970I3823J-31540D01*
G03X2438790Y3778340I4862J-8922D01*
G37*
G36*
G01X3075710Y3474620D02*
G02X3037210Y3479110I-22166J-22760D01*
G03X3039070Y3495100I-5227J8711D01*
G02X3077570Y3490610I22166J22760D01*
G03X3075710Y3474620I5227J-8711D01*
G37*
G36*
G01X3407550Y3097140D02*
G02X3378740Y3051820I5292J-35181D01*
G03X3373110Y3055400I-4873J-1446D01*
G02X3353560Y3123180I-5288J35184D01*
G03X3359180Y3135540I-4069J9308D01*
G02X3357790Y3150420I33941J10675D01*
G03X3353270Y3156070I-5045J597D01*
G02X3343400Y3224360I3672J35389D01*
G03X3346390Y3230320I-1932J4699D01*
G02X3361810Y3269190I34470J8819D01*
G03X3360580Y3287010I-5446J8577D01*
G02X3391180Y3290090I12662J27749D01*
G03X3393540Y3272390I5979J-8210D01*
G02X3394400Y3206240I-12679J-33245D01*
G03X3391410Y3200280I1932J-4699D01*
G02X3392270Y3187260I-34470J-8815D01*
G03X3396790Y3181610I5045J-597D01*
G02X3407380Y3113620I-3668J-35391D01*
G03X3401760Y3101260I4069J-9308D01*
G02X3401920Y3100720I-34030J-10377D01*
G03X3407550Y3097140I4873J1446D01*
G37*
G36*
G01X3433790Y2315280D02*
G02X3380140Y2312790I-25743J-24560D01*
G03X3379840Y2319450I-3980J3157D01*
G02X3377990Y2366480I25740J24564D01*
G03X3377780Y2373140I-3937J3209D01*
G02X3375830Y2419230I26091J24190D01*
G03X3375480Y2425880I-4007J3123D01*
G02X3381740Y2480470I25590J24719D01*
G03X3380340Y2498290I-5514J8532D01*
G02X3367740Y2554000I14400J32537D01*
G03X3367700Y2560670I-3854J3312D01*
G02X3367640Y2607610I26710J23504D01*
G03X3367650Y2614300I-3819J3351D01*
G02X3366890Y2660230I26790J23415D01*
G03X3366690Y2666890I-3931J3215D01*
G02X3374020Y2721230I26140J24138D01*
G03X3373610Y2738720I-5373J8624D01*
G02X3362970Y2791710I17370J31051D01*
G03X3362590Y2798400I-4001J3129D01*
G02X3360320Y2845750I25370J24946D01*
G03X3360090Y2852410I-3947J3198D01*
G02X3357880Y2898290I26040J24248D01*
G03X3357470Y2904940I-4032J3089D01*
G02X3411080Y2908270I25358J24959D01*
G03X3411490Y2901620I4032J-3089D01*
G02X3413770Y2854260I-25360J-24956D01*
G03X3414000Y2847600I3947J-3198D01*
G02X3415970Y2801410I-26040J-24248D01*
G03X3416350Y2794720I4001J-3129D01*
G02X3409790Y2739570I-25369J-24948D01*
G03X3410200Y2722080I5373J-8624D01*
G02X3420380Y2668510I-17369J-31053D01*
G03X3420580Y2661850I3931J-3215D01*
G02X3421210Y2614270I-26139J-24140D01*
G03X3421200Y2607580I3819J-3351D01*
G02X3421410Y2561000I-26791J-23411D01*
G03X3421450Y2554330I3854J-3312D01*
G02X3414070Y2500960I-26711J-23502D01*
G03X3415470Y2483140I5514J-8532D01*
G02X3429110Y2428700I-14400J-32537D01*
G03X3429460Y2422050I4007J-3123D01*
G02X3431460Y2374860I-25589J-24722D01*
G03X3431670Y2368200I3937J-3209D01*
G02X3433490Y2321940I-26090J-24192D01*
G03X3433790Y2315280I3980J-3157D01*
G37*
G54D25*
X593730Y228600D03*
X952590Y525610D03*
X1283160Y717300D03*
X1387070Y754380D03*
X1339040Y853440D03*
X1886640Y620460D03*
X2334240Y55860D03*
X2113740Y302260D03*
X2300240Y536860D03*
X2139140Y543560D03*
X2649540Y70160D03*
X2748640Y363460D03*
X2562240Y551860D03*
X2644240Y358460D03*
X2786840Y632460D03*
X2700240Y744660D03*
X2713180Y1576480D03*
X2873200Y892510D03*
X3043380Y817880D03*
X2946070Y1616480D03*
X3170240Y1747860D03*
X2951150Y1735860D03*
X3577030Y1111810D03*
X1123140Y5382260D03*
X1415240D03*
X1971240Y5241860D03*
X2075240Y5289380D03*
X2325440Y5484060D03*
X2272240Y5554860D03*
X2335510Y5373370D03*
X2393240Y5448860D03*
X2705240Y5215360D03*
X2799540Y5217160D03*
X2748740Y5382260D03*
X2877740Y5237860D03*
X2903150Y5380820D03*
X3536140Y5267960D03*
X4016440Y5474360D03*
Y5567660D03*
X4014840Y5661060D03*
Y5876960D03*
X4014140Y5763960D03*
X795480Y1690620D03*
X789360Y1935480D03*
X562590Y2738910D03*
X796140Y2611460D03*
X795480Y3282360D03*
X772140Y3354460D03*
X595640Y3400160D03*
X909780Y1635760D03*
X988520Y2021840D03*
X984240Y2433860D03*
X1113410Y2571860D03*
X1121490Y2757310D03*
X1072340Y3515360D03*
X1288240Y4417060D03*
X1516840Y4413660D03*
X1389840Y4417060D03*
X1643840D03*
X1382540Y4544060D03*
X1516840D03*
X1651140D03*
X1745440Y4417060D03*
X1484340Y2739260D03*
X1345740Y2728560D03*
X2020240Y2972860D03*
X2362660Y1107440D03*
X2126440Y1636650D03*
X2297890Y2068830D03*
Y1908810D03*
X2085840Y2296260D03*
X2502360Y1107440D03*
X2646020Y1102820D03*
X2520650Y1705230D03*
X3053540Y1267460D03*
X2586180Y2440460D03*
X2677640Y3213060D03*
X3425240Y3735860D03*
X3427440Y3653160D03*
G54D30*
X752300Y1343660D03*
X560050Y1781560D03*
X798020Y2062480D03*
X556690Y2181860D03*
X556240Y2288860D03*
X815670Y2371740D03*
X788340Y2284660D03*
X553240Y2374860D03*
X791090Y2896490D03*
Y2705100D03*
Y3056480D03*
X1266240Y1622860D03*
X1036870Y2569700D03*
X1125680Y2921000D03*
X1456840Y4921560D03*
X1913330Y1100200D03*
X1681940Y1636650D03*
X1765950Y1739710D03*
X2918240Y4926860D03*
X3042240Y4864860D03*
X1065990Y3768630D03*
X1453340Y4658360D03*
X1567640D03*
X1661840Y4656160D03*
X1758140Y4658360D03*
X3623240Y4596860D03*
X1420320Y2575560D03*
X1874240Y1863860D03*
X2303240Y2452370D03*
X2097960Y2626490D03*
X2890980Y1155700D03*
X1825240Y4238860D03*
X2458240Y3135860D03*
X2702140Y2683560D03*
G54D32*
X1679400Y2065020D03*
X1670560Y2398980D03*
X1668020Y2505630D03*
X1510570Y2398980D03*
X1508030Y2505630D03*
X1781000Y2065020D03*
X1830560Y2398980D03*
X1990550D03*
X1988010Y2505630D03*
X1828020D03*
G54D31*
X787860Y1473960D03*
X1974370Y1369570D03*
X1724100Y1458460D03*
X2504900Y1384300D03*
X1954740Y3899360D03*
X1904240Y3838860D03*
X2432620Y3972010D03*
X2192340Y3882560D03*
X2358480Y3966260D03*
X2274320Y3962960D03*
X2432240Y4525860D03*
X2352810Y4446600D03*
X2788240Y3276560D03*
X2710640Y3616960D03*
X2515060Y3969380D03*
X2497000Y3760280D03*
X2597940Y3966760D03*
X2764740Y3977160D03*
X2756840Y4051170D03*
X2516840Y4451170D03*
X2513840Y4363260D03*
X2599740Y4445230D03*
X2760140Y4365260D03*
X2679010Y4445820D03*
X2512240Y4530860D03*
X3065240Y2367960D03*
X3097240Y3198360D03*
X2933750Y2976470D03*
X3123840Y3685860D03*
X2866140Y3545060D03*
X3149400Y3831170D03*
X2911300Y3970020D03*
X2983140Y3855660D03*
X2991740Y4042460D03*
X3150780Y3961960D03*
X2996850Y4451170D03*
X2912400Y4446460D03*
X3167330Y4360230D03*
X3231920Y4447540D03*
X3071540Y4445060D03*
X3271200Y3876420D03*
X3313240Y4045560D03*
X3444700Y4138510D03*
X3310440Y3967260D03*
X3394200Y3974060D03*
X3300540Y4355360D03*
X3308540Y4444060D03*
X3410140Y4296770D03*
G54D26*
X1486360Y721360D03*
G54D33*
X2397240Y1398860D03*
G54D23*
X3393240Y338560D03*
G54D28*
X400050Y5649470D03*
G54D27*
X3701240Y1673860D03*
X399240Y1419860D03*
Y1673860D03*
Y2181860D03*
Y1927860D03*
Y2435860D03*
Y2943860D03*
Y2689860D03*
Y3197860D03*
Y3451860D03*
Y3959860D03*
X3701240Y4467860D03*
Y2943860D03*
Y2689860D03*
Y3705860D03*
Y3451860D03*
G54D24*
X399240Y149860D03*
Y657860D03*
Y403860D03*
Y911860D03*
X3701240Y657860D03*
Y403860D03*
Y911860D03*
Y1165860D03*
Y1419860D03*
X399240Y4467860D03*
Y4975860D03*
Y4721860D03*
Y3705860D03*
X3701240Y2435860D03*
Y3959860D03*
G54D29*
X3695230Y5295860D03*
%LPD*%
G75*
G54D10*
X145240Y149860D03*
Y657860D03*
Y403860D03*
Y911860D03*
Y1165860D03*
Y1419860D03*
Y1673860D03*
Y2181860D03*
Y1927860D03*
Y2435860D03*
Y2943860D03*
Y2689860D03*
Y3197860D03*
Y3705860D03*
Y3451860D03*
Y4213860D03*
Y3959860D03*
Y4467860D03*
Y4975860D03*
Y4721860D03*
X399240Y149860D03*
Y657860D03*
Y403860D03*
Y911860D03*
Y1419860D03*
Y1165860D03*
Y1673860D03*
Y2181860D03*
Y1927860D03*
Y2435860D03*
Y2943860D03*
Y2689860D03*
Y3197860D03*
Y3705860D03*
Y3451860D03*
Y4213860D03*
Y3959860D03*
Y4467860D03*
Y4975860D03*
Y4721860D03*
X3701240Y149860D03*
Y657860D03*
Y403860D03*
Y911860D03*
Y1165860D03*
Y1419860D03*
Y1673860D03*
Y2181860D03*
Y1927860D03*
Y2435860D03*
Y2943860D03*
Y2689860D03*
Y3197860D03*
Y3705860D03*
Y3451860D03*
Y4213860D03*
Y3959860D03*
Y4467860D03*
Y4975860D03*
Y4721860D03*
X3955240Y149860D03*
Y657860D03*
Y403860D03*
Y911860D03*
Y1419860D03*
Y1165860D03*
Y1673860D03*
Y2181860D03*
Y1927860D03*
Y2435860D03*
Y2943860D03*
Y2689860D03*
Y3197860D03*
Y3705860D03*
Y3451860D03*
Y4213860D03*
Y3959860D03*
Y4467860D03*
Y4975860D03*
Y4721860D03*
G54D20*
X2993240Y338560D03*
X3393240D03*
G54D11*
X94740Y277960D03*
X71580Y523240D03*
Y787400D03*
Y1292860D03*
Y1038860D03*
Y1544320D03*
Y2049780D03*
Y1803400D03*
Y2560320D03*
Y2306320D03*
Y2816860D03*
Y3324860D03*
Y3068320D03*
Y3573780D03*
Y3830320D03*
Y4089400D03*
X75340Y5270960D03*
Y5146160D03*
X74540Y5664560D03*
Y5544860D03*
X75340Y5414560D03*
X274780Y347980D03*
X295100Y482600D03*
X198580Y523240D03*
X479240Y309060D03*
X201120Y787400D03*
X315420Y749300D03*
X203660Y1292860D03*
X201120Y1038860D03*
Y1541780D03*
Y2049780D03*
Y1800860D03*
Y2560320D03*
X198580Y2306320D03*
Y2816860D03*
Y3324860D03*
Y3070860D03*
X201120Y3573780D03*
X198580Y3827780D03*
X280840Y5241460D03*
X281840Y5178460D03*
X280840Y5112460D03*
X476040Y5987960D03*
X373140Y5987260D03*
X508740Y69760D03*
X800560Y71120D03*
X706580D03*
X607520D03*
X511000Y205740D03*
X579580Y160020D03*
X762460Y147320D03*
X593730Y228600D03*
X785320Y391160D03*
X724360Y408940D03*
X676100Y449580D03*
X658320Y548640D03*
X688800Y360680D03*
X611330Y472440D03*
Y360680D03*
X505920Y449580D03*
X762460Y279400D03*
X853140Y400460D03*
X793240Y462970D03*
X799940Y521860D03*
X750740Y984650D03*
X810720Y970430D03*
X750780Y928290D03*
Y848460D03*
X879300Y721360D03*
X823420Y718820D03*
X658320Y624840D03*
X611330Y683260D03*
X856440Y1386840D03*
X752300Y1343660D03*
X772570Y1118870D03*
X560050Y1781560D03*
X787860Y1473960D03*
X795480Y1690620D03*
X560070Y1922530D03*
X798020Y2062480D03*
X560020Y1975870D03*
X523700Y2056130D03*
X556690Y2181860D03*
X561800Y2095500D03*
X556340Y1869310D03*
X789360Y1935480D03*
X556240Y2288860D03*
X815670Y2371740D03*
X562590Y2540790D03*
X791090Y2451100D03*
X788600Y2506980D03*
X788340Y2284660D03*
X553240Y2374860D03*
X791090Y2896490D03*
Y2705100D03*
X562590Y2937030D03*
Y2738910D03*
Y2594130D03*
X796140Y2611460D03*
X791090Y3056480D03*
X562590Y2990370D03*
X795480Y3282360D03*
X772140Y3354460D03*
X595640Y3400160D03*
X818240Y4038860D03*
X831040Y3820160D03*
Y3769360D03*
X754840Y4061460D03*
X691340D03*
X767540Y4391660D03*
X704040D03*
X767540Y4455160D03*
X704040D03*
X577040Y4505960D03*
X516480Y4341620D03*
X869140Y4753660D03*
X818340D03*
Y4708860D03*
X869140D03*
X633240Y4851860D03*
X631820Y4921860D03*
X841240Y4849860D03*
X788240Y4840860D03*
X818340Y5052060D03*
X754840D03*
X640540Y5267960D03*
X653240Y5204460D03*
X555440Y4972060D03*
X526240Y5052060D03*
X745470Y5302730D03*
X805640Y5280660D03*
X662740Y5989560D03*
X569440D03*
X1190940Y135560D03*
X1191720Y210820D03*
Y71120D03*
X1059640D03*
X958040D03*
X973280Y215900D03*
X1036780Y528320D03*
X1105360D03*
X1176480D03*
X1239980D03*
X1133300Y391160D03*
X1057100D03*
X978360D03*
X1181560Y347980D03*
X1179020Y279400D03*
X921940Y395360D03*
X952590Y525610D03*
X1283160Y717300D03*
X1191720Y718820D03*
X963120Y1394990D03*
X1185840Y1093860D03*
X909780Y1384300D03*
X1240840Y1106060D03*
X1275540Y1386360D03*
X1266240Y1622860D03*
X909780Y1635760D03*
X1266740Y1456160D03*
X988520Y2021840D03*
X1257760Y2451100D03*
X984240Y2433860D03*
X1036870Y2569700D03*
X1113410Y2571860D03*
X947750Y2573160D03*
X950240Y2507860D03*
X1188220Y2794080D03*
X1121490Y2757310D03*
X1246140Y2719460D03*
X1188540Y2590960D03*
X1125680Y2921000D03*
X1044480Y3208900D03*
X1059640Y3108960D03*
X1085040Y3159760D03*
X1196340Y3170460D03*
X1028240Y3157860D03*
X1072340Y3515360D03*
X1065990Y3768630D03*
X1205240Y4126860D03*
X1089240D03*
X975240Y4097860D03*
X1123440Y4378660D03*
X1115240Y4274860D03*
X1065240Y4249860D03*
X1213240Y4181860D03*
X1100240Y4471860D03*
X1096240Y4525860D03*
X1081240Y4412860D03*
X1083240Y4342860D03*
X983240Y4808860D03*
X985240Y4754860D03*
X1091240Y4708860D03*
X1117240Y4644860D03*
X1156240Y4828860D03*
X1103240Y4586860D03*
X1275540Y4963160D03*
X1123140D03*
X1173940D03*
X976240Y5052860D03*
X1033240Y5180860D03*
X976240Y5154860D03*
X1262840Y5369560D03*
X1123140Y5382260D03*
X1349140Y205460D03*
X1346940Y268460D03*
X1349200Y335280D03*
X1496520Y480060D03*
X1626060D03*
X1562560D03*
X1433020D03*
X1366980D03*
X1349200Y398780D03*
X1306020Y518160D03*
X1582880Y891540D03*
X1394920Y850900D03*
X1387070Y754380D03*
X1339040Y853440D03*
X1614040Y1068560D03*
X1672540Y1070160D03*
X1558910Y1078610D03*
X1629140Y1355960D03*
X1525240Y1383960D03*
X1359340Y1378460D03*
X1441440Y1383160D03*
X1596850Y1638350D03*
X1382240Y1667860D03*
X1422240Y1627860D03*
X1575010Y1413190D03*
X1354940Y1448260D03*
X1432740Y1446860D03*
X1510440Y1445960D03*
X1543510Y1638270D03*
X1304420Y2102350D03*
X1347780Y2048080D03*
X1420320Y2575560D03*
X1484340Y2739260D03*
X1345740Y2728560D03*
X1438570Y3228050D03*
X1491440Y3235120D03*
X1511910Y3174340D03*
X1555490Y3134360D03*
X1562610Y3077980D03*
X1554940Y3210560D03*
X1364110Y3507210D03*
X1402240Y3508860D03*
X1289240Y3705860D03*
X1339040Y3693160D03*
X1327240Y3833860D03*
X1539000Y3825000D03*
X1661000Y3989000D03*
X1457240Y3883860D03*
X1328240Y3889440D03*
X1293480Y3990500D03*
X1548240Y3983860D03*
X1512240Y3903860D03*
X1330240Y4055860D03*
X1677240Y3820860D03*
X1656240Y3873860D03*
X1570500Y3775860D03*
X1597500Y3834150D03*
X1616840Y4115640D03*
X1385240Y4069860D03*
X1424050Y4106820D03*
X1557240Y4056860D03*
X1611240Y4051860D03*
X1345000Y4107780D03*
X1458240Y4064860D03*
X1511240Y4085860D03*
X1288240Y4417060D03*
X1516840Y4413660D03*
X1389840Y4417060D03*
X1387540Y4285060D03*
X1516840Y4290060D03*
X1643840Y4417060D03*
X1646140Y4290060D03*
X1382540Y4544060D03*
X1516840D03*
X1651140D03*
X1618440Y4912360D03*
X1456840Y4921560D03*
X1369340Y4756160D03*
X1367140Y4656460D03*
X1453340Y4759960D03*
Y4658360D03*
X1288240D03*
Y4759960D03*
X1661840Y4756160D03*
X1567640Y4658360D03*
Y4759960D03*
X1661840Y4656160D03*
X1542240Y5166360D03*
X1466040D03*
X1326340Y4963160D03*
X1407240Y5209860D03*
X1466040Y5217160D03*
X1300040Y5223460D03*
X1354040Y5227660D03*
X1415240Y5382260D03*
X1327530Y5396150D03*
X2001140Y178360D03*
X2042620Y71120D03*
X1999440Y386080D03*
X1821640Y480060D03*
X1882600D03*
X1999440Y454660D03*
X1692100Y480060D03*
X1755600D03*
X1946100D03*
X1999440Y312420D03*
Y238760D03*
X1886640Y620460D03*
X1722580Y812800D03*
X1721560Y756920D03*
X2047600Y795260D03*
X1718440Y911860D03*
X1912420Y753740D03*
X2019840Y752030D03*
X1692100Y1351970D03*
X1913330Y1100200D03*
X1974370Y1369570D03*
X2019990Y1098980D03*
X1724100Y1458460D03*
X1681940Y1636650D03*
X1765950Y1739710D03*
X1910790Y1638350D03*
X1930240Y1926860D03*
X1874240Y1863860D03*
X1987240Y1928860D03*
X2068240Y1869860D03*
X2070240Y1925860D03*
X1775920Y2910840D03*
X1778240Y2970860D03*
X2020240Y2972860D03*
X1915540Y3207920D03*
X1774740Y3154680D03*
X2029920Y3116580D03*
X1864740Y3208660D03*
X1687000Y4019000D03*
X1691570Y4074430D03*
X1744240Y4082860D03*
X1845240Y4145860D03*
X1793830Y3837910D03*
X1829220Y3877820D03*
X1954740Y3899360D03*
X1904240Y3838860D03*
X2040510Y3876340D03*
X2050910Y3761360D03*
X2042240Y3819860D03*
X1900240Y4377860D03*
X1745440Y4417060D03*
X1825240Y4238860D03*
X1948240Y4443860D03*
X1910240Y4194860D03*
X1968240Y4305860D03*
X1981240Y4401860D03*
X1990000Y4698000D03*
X1984000Y4739000D03*
X1966240Y4642860D03*
X1758140Y4658360D03*
Y4759960D03*
X1919240Y4564860D03*
X1918240Y4618860D03*
X2062240Y4812860D03*
X2064240Y4574860D03*
X1969240Y4893860D03*
X1895240Y4738860D03*
X1932000Y4699000D03*
X1971240Y5241860D03*
X1834340Y4963160D03*
X1876240Y4962860D03*
X1964240Y4993860D03*
X1681940Y4963160D03*
X1728240Y4962860D03*
X1909240Y5158860D03*
X1987240Y4944860D03*
X2024840Y5394960D03*
X1931100Y5612020D03*
X2031920Y5675390D03*
X2148510Y218010D03*
X2202240Y83860D03*
X2252940Y85860D03*
X2151840D03*
X2334240Y55860D03*
X2436240Y594790D03*
X2347740Y261360D03*
X2113740Y302260D03*
X2381240Y551560D03*
X2300240Y536860D03*
X2345140Y592660D03*
X2139140Y543560D03*
X2362660Y967740D03*
Y828040D03*
X2115520Y874010D03*
X2114730Y927220D03*
X2179940Y707960D03*
X2129240Y980860D03*
X2094240Y1000860D03*
X2257250Y1354510D03*
X2362660Y1107440D03*
X2083390Y1084710D03*
X2121240Y1046960D03*
X2205180Y1374490D03*
X2151240Y1373660D03*
X2242800Y1706880D03*
X2126440Y1636650D03*
X2349960Y1705860D03*
X2296620Y1706880D03*
X2194040Y2159860D03*
X2243810Y2186980D03*
X2091260Y1992630D03*
X2297890Y2068830D03*
Y1908810D03*
X2143240Y2159860D03*
X2295040Y2280980D03*
X2303240Y2452370D03*
X2222240Y2243860D03*
X2320060Y2332040D03*
X2085840Y2296260D03*
X2128240Y2894860D03*
X2129030Y2961640D03*
X2097960Y2626490D03*
X2458240Y3135860D03*
X2123900Y3042920D03*
X2376240Y3122860D03*
X2329640Y3185160D03*
X2414940Y3757360D03*
X2432620Y3972010D03*
X2192340Y3882560D03*
X2436850Y3891180D03*
X2186140Y3956160D03*
X2358480Y3966260D03*
X2184480Y4050680D03*
X2260940Y3829460D03*
X2274320Y3962960D03*
X2370440Y3794260D03*
X2431770Y4046090D03*
X2426340Y3821860D03*
X2152140Y4007560D03*
X2104240Y3771760D03*
X2348260Y4042590D03*
X2160030Y3758680D03*
X2264780Y4045750D03*
X2213360Y3760050D03*
X2381240Y3875860D03*
X2280240Y3882860D03*
X2281710Y4332890D03*
X2436850Y4451170D03*
X2351240Y4529860D03*
X2432240Y4525860D03*
X2352810Y4446600D03*
X2274090Y4445360D03*
X2177740Y4331260D03*
X2350340Y4333360D03*
X2409140Y4308760D03*
X2192420Y4769530D03*
X2189940Y4734560D03*
X2302100Y4898860D03*
X2188240Y4594860D03*
X2194240Y4626860D03*
X2116240Y4822860D03*
X2120240Y4544860D03*
X2222500Y4826000D03*
X2215340Y5013960D03*
Y5064760D03*
X2341170Y5277480D03*
X2288240Y5270860D03*
X2308240Y4954860D03*
X2370240Y5166860D03*
X2380240Y5113860D03*
X2075240Y5289380D03*
X2325440Y5484060D03*
X2246240Y5645860D03*
X2077240Y5382860D03*
X2272240Y5554860D03*
X2348040Y5683180D03*
X2342340Y5534660D03*
X2081240Y5654860D03*
X2335510Y5373370D03*
X2393240Y5448860D03*
X2265290Y5332230D03*
X2210240Y5350860D03*
X2243240Y5703860D03*
X2097240Y5601860D03*
X2076240Y5549860D03*
X2156780Y5772210D03*
X2113740Y5864860D03*
X2212240Y5756860D03*
X2649540Y70160D03*
X2826640Y77960D03*
X2763940Y70560D03*
X2585040Y345560D03*
X2748640Y363460D03*
X2562240Y551860D03*
X2644240Y358460D03*
X2502360Y967740D03*
X2642060D03*
X2502360Y828040D03*
X2642060D03*
X2786840Y632460D03*
X2700240Y744660D03*
X2504900Y1384300D03*
X2837640Y1264920D03*
X2778740Y1290090D03*
X2502360Y1107440D03*
X2646020Y1102820D03*
X2710640Y1780540D03*
X2713180Y1576480D03*
X2520650Y1705230D03*
X2654760Y1780540D03*
X2634440Y1958520D03*
X2585040Y2145760D03*
X2585440Y2084260D03*
X2583340Y2205160D03*
X2663650Y2491410D03*
X2586180Y2440460D03*
X2702140Y2683560D03*
X2717570Y2944650D03*
X2504940Y2949360D03*
X2502540Y2895760D03*
X2677640Y3213060D03*
X2658840Y3353760D03*
X2788240Y3276560D03*
X2697940Y3068320D03*
X2715840Y3014860D03*
X2710640Y3616960D03*
X2515060Y3969380D03*
X2783440Y3872960D03*
X2741440Y4132760D03*
X2516840Y3891180D03*
X2593540Y4047060D03*
X2497000Y3760280D03*
X2584590Y3772090D03*
X2597940Y3966760D03*
X2764740Y3977160D03*
X2627440Y3823660D03*
X2756840Y4051170D03*
X2637870Y3769430D03*
X2793020Y4147150D03*
X2516840Y4051170D03*
Y4451170D03*
X2830870Y4450220D03*
X2670240Y4524860D03*
X2513840Y4363260D03*
X2599740Y4445230D03*
X2760140Y4365260D03*
X2679010Y4445820D03*
X2792040Y4200490D03*
X2672610Y4282480D03*
X2725870Y4279460D03*
X2584430Y4227350D03*
X2512240Y4530860D03*
X2789530Y4580350D03*
X2786840Y4645660D03*
X2723340D03*
X2583240Y4613860D03*
X2570940Y4848860D03*
X2705240Y5215360D03*
X2685580Y5012200D03*
X2815240Y5036860D03*
X2799540Y5217160D03*
X2748740Y5382260D03*
X2995920Y409150D03*
X3073860Y513080D03*
X3132280D03*
X3190700D03*
X2875380Y787730D03*
X2873200Y892510D03*
X3052870Y874480D03*
X2875840Y734390D03*
X3082240Y630860D03*
X3217240Y743860D03*
X3043380Y817880D03*
X2890980Y1155700D03*
X3053540Y1267460D03*
X2901140Y1264920D03*
X2966400Y1021640D03*
X2946070Y1616480D03*
X3170240Y1747860D03*
X3200240Y1508860D03*
X3066720Y1448280D03*
X3119580Y1732280D03*
X2951150Y1735860D03*
X2951940Y2011680D03*
X3123870Y1903250D03*
X2944320Y1823720D03*
X3065240Y2367960D03*
X2877140Y3362260D03*
X3097240Y3198360D03*
X2933750Y2976470D03*
X3234400Y3723880D03*
X3123840Y3685860D03*
X3182040Y3749760D03*
X2944990Y3671820D03*
X2998260Y3674660D03*
X2866140Y3545060D03*
X3053540Y3451860D03*
X3061240Y3517860D03*
X3149400Y3831170D03*
X2911300Y3970020D03*
X2907940Y4043160D03*
X3157770Y3883850D03*
X2983140Y3855660D03*
X2991740Y4042460D03*
X3150780Y3961960D03*
X3152980Y4048480D03*
X3155460Y4121140D03*
X2996850Y4451170D03*
X3074520Y4528820D03*
X2912400Y4446460D03*
X2946340Y4220760D03*
X2991940Y4526280D03*
X3228270Y4531160D03*
X3167330Y4360230D03*
X3231920Y4447540D03*
X3071540Y4445060D03*
X3049740Y4286260D03*
X2961090Y4350950D03*
X2911560Y4530480D03*
X2911660Y4371010D03*
X3047380Y4346100D03*
X2975310Y4797860D03*
X2918240Y4926860D03*
X3041240Y4777860D03*
X3042240Y4864860D03*
X2912570Y4747260D03*
X2875240Y5110860D03*
X2877740Y5237860D03*
X2931240Y5114860D03*
X2932240Y5069860D03*
X3086240Y5232860D03*
X2978240Y5240860D03*
X2926140Y5168760D03*
X3032240Y5228860D03*
X3053130Y5382670D03*
X2990040Y5382260D03*
X2903150Y5380820D03*
X3251240Y631860D03*
X3256240Y688860D03*
X3567080Y1353760D03*
X3577030Y1111810D03*
X3266900Y1587800D03*
X3384240Y1740860D03*
X3339770Y1740690D03*
X3391540Y1437060D03*
X3445990Y1440210D03*
X3449800Y2005320D03*
X3356090Y2064110D03*
X3560240Y2118860D03*
X3548840Y2054860D03*
X3394740Y2530830D03*
X3408050Y2290720D03*
X3403870Y2397330D03*
X3401070Y2450600D03*
X3405580Y2344010D03*
X3382830Y2929900D03*
X3386130Y2876660D03*
X3394410Y2584170D03*
X3394440Y2637710D03*
X3390980Y2769770D03*
X3387960Y2823350D03*
X3392830Y2691030D03*
X3373240Y3314760D03*
X3393120Y3146220D03*
X3380860Y3239140D03*
X3356940Y3191460D03*
X3367820Y3090580D03*
X3412840Y3061960D03*
X3425240Y3735860D03*
X3320460Y3698650D03*
X3427440Y3653160D03*
X3285840Y3490760D03*
X3299320Y3550590D03*
X3438670Y3874220D03*
X3271200Y3876420D03*
X3353740Y3882860D03*
X3313240Y4045560D03*
X3394640Y4051860D03*
X3392360Y3846060D03*
X3444700Y4138510D03*
X3310440Y3967260D03*
X3394200Y3974060D03*
X3465380Y4048530D03*
X3329710Y3759420D03*
X3529240Y4450860D03*
X3396850Y4531160D03*
X3316840D03*
X3479240Y4427860D03*
X3470780Y4366400D03*
X3300540Y4355360D03*
X3308540Y4444060D03*
X3461240Y4512860D03*
X3410140Y4296770D03*
X3623240Y4596860D03*
X3615240Y4855860D03*
X3580000Y4905000D03*
X3536140Y5267960D03*
X3599640Y5179060D03*
X3837140Y70260D03*
X4023040Y277060D03*
X3882640D03*
X4028900Y530860D03*
X3795840Y479460D03*
X3957040Y529860D03*
X4026870Y792480D03*
X3901900Y784860D03*
X4027250Y1295400D03*
X3904440Y1290320D03*
X4027250Y1041400D03*
X3906980Y1038860D03*
X4027250Y1546860D03*
X3904440Y1544320D03*
X3755270Y2089710D03*
X3772360Y1833880D03*
X4028900Y2057400D03*
X3904440Y2054860D03*
X4028900Y1800860D03*
X3901900D03*
X3650440Y2067560D03*
X4028900Y2573020D03*
X3906980Y2570480D03*
X4028900Y2316480D03*
X3899360Y2313940D03*
X3768200Y3300670D03*
X3646550Y3289860D03*
X4002240Y4075860D03*
X4007080Y4314210D03*
X4016190Y4368810D03*
X3717140Y4613360D03*
X3866710Y4859390D03*
X3804240Y4594860D03*
X3857350Y4794350D03*
X3884610Y4593860D03*
X3755000Y4864000D03*
X4002430Y4852460D03*
X4016440Y5474360D03*
Y5567660D03*
X4014840Y5661060D03*
X4014140Y5979860D03*
X4014840Y5876960D03*
X4014140Y5763960D03*
X3939340Y5976860D03*
X3846040D03*
X3752640Y5975260D03*
X3649740Y5974560D03*
G54D21*
X3995250Y5295860D03*
X3695230D03*
G54D12*
X400050Y5649470D03*
G54D22*
G01X1910240Y4194860D02*
Y4155180D01*
X1861550Y4106490D01*
X1776290D01*
X1727770Y4155010D01*
X1336550D01*
X1305630Y4124090D01*
Y4121250D01*
X1270870Y4086490D01*
X986610D01*
X975240Y4097860D01*
G01X1156240Y4828860D02*
X1185100Y4800000D01*
X2019420D01*
X2047420Y4772000D01*
X2129120D01*
X2183120Y4826000D01*
X2222500D01*
G01X1909240Y5158860D02*
X1879910Y5129530D01*
X1061910D01*
X985240Y5052860D01*
X976240D01*
G01X869040Y5523850D02*
G02Y5623850I0J50000D01*
G01Y6049520D01*
X340060D01*
X0Y5709460D01*
Y0D01*
X4100050D01*
X4100580Y530D01*
Y6049520D01*
X3434640D01*
Y5623850D01*
G02Y5523850I0J-50000D01*
G01X697690Y6461760D02*
Y6715760D01*
X773890D01*
X799290Y6703050D01*
X818340Y6673430D01*
X824690Y6639560D01*
X818340Y6605690D01*
X802460Y6580290D01*
X773890Y6567590D01*
X697690D01*
G01X919940Y6715760D02*
X964390Y6461760D01*
X1015190Y6715760D01*
X1065990Y6461760D01*
X1110440Y6715760D01*
G01X1205690Y6461760D02*
Y6715760D01*
X1285060D01*
X1310460Y6703050D01*
X1326340Y6686130D01*
X1332690Y6652260D01*
X1326340Y6618390D01*
X1307290Y6597230D01*
X1285060Y6584520D01*
X1205690D01*
G01X1285060D02*
X1332690Y6461760D01*
G01X1481920Y6546420D02*
X1564460D01*
G01X1770840Y6461760D02*
X1777190Y6516790D01*
X1786720Y6563350D01*
X1799410Y6605690D01*
X1815290Y6652260D01*
X1840690Y6715760D01*
X1713690D01*
G01X2221690D02*
Y6461760D01*
X2348690D01*
G01X2459810D02*
X2539190Y6715760D01*
X2618570Y6461760D01*
G01X2589990Y6550660D02*
X2488390D01*
G01X2793190Y6461760D02*
Y6576060D01*
X2729690Y6715760D01*
G01X2856690D02*
X2793190Y6576060D01*
G01X3110690Y6461760D02*
X2983690D01*
Y6715760D01*
X3110690D01*
G01X3059890Y6593000D02*
X2983690D01*
G01X3237690Y6461760D02*
Y6715760D01*
X3317060D01*
X3342460Y6703050D01*
X3358340Y6686130D01*
X3364690Y6652260D01*
X3358340Y6618390D01*
X3339290Y6597230D01*
X3317060Y6584520D01*
X3237690D01*
G01X3317060D02*
X3364690Y6461760D01*
G01X1809040Y5523850D02*
X869040D01*
G01X1809040D02*
X869040D01*
G01X1809040D02*
G03Y5623850I0J50000D01*
G01Y6049520D01*
X2494640D01*
Y5623850D01*
G03Y5523850I0J-50000D01*
G01X3434640D02*
X2494640D01*
G01X3434640D02*
X2494640D01*
G54D13*
X907040Y5351160D03*
X1771040D03*
X2532640D03*
X3396640D03*
G54D14*
X937010Y5423880D03*
X1741070Y5423830D03*
X2562610Y5423880D03*
X3366670Y5423830D03*
G54D15*
X754050Y5861350D03*
X1924030D03*
X2379650D03*
X3549630D03*
G54D16*
X1288240Y2788920D03*
X1486360Y721360D03*
X1312980Y2459690D03*
X1336500Y2834640D03*
X2128880Y749000D03*
Y805180D03*
X2397240Y1398860D03*
X2455370Y3267710D03*
X2393140Y3268980D03*
X2766520Y1351280D03*
X2708100D03*
X2931620Y977900D03*
X2875330Y978130D03*
X3111960Y1272540D03*
X3169870Y1272490D03*
X3228800Y1272540D03*
X3066240Y1509060D03*
G54D17*
X1679400Y2065020D03*
X1670560Y2398980D03*
X1668020Y2505630D03*
X1510570Y2398980D03*
X1508030Y2505630D03*
X1781000Y2065020D03*
X1830560Y2398980D03*
X1990550D03*
X1988010Y2505630D03*
X1828020D03*
G54D18*
X2909750Y123570D03*
X3476730D03*
G54D19*
X3166900Y667610D03*
X3366900D03*
M02*
