G04 ================== begin FILE IDENTIFICATION RECORD ==================*
G04 Layout Name:  D:/projects/Popcorn/Rev2.0/Brd/Popcorn Computer Rev 2p0_Release.brd*
G04 Film Name:    paste_top*
G04 File Format:  Gerber RS274X*
G04 File Origin:  Cadence Allegro 16.6-2015-S105*
G04 Origin Date:  Tue Jul 21 11:26:30 2020*
G04 *
G04 Layer:  PIN/PASTEMASK_TOP*
G04 Layer:  PACKAGE GEOMETRY/PASTEMASK_TOP*
G04 Layer:  BOARD GEOMETRY/OUTLINE*
G04 *
G04 Offset:    (0.0000 0.0000)*
G04 Mirror:    No*
G04 Mode:      Positive*
G04 Rotation:  0*
G04 FullContactRelief:  No*
G04 UndefLineWidth:     0.1270*
G04 ================== end FILE IDENTIFICATION RECORD ====================*
%FSLAX25Y25*MOMM*%
%IR0*IPPOS*OFA0.00000B0.00000*MIA0B0*SFA1.00000B1.00000*%
%ADD48R,1.3995X1.1989*%
%ADD49R,.6X1.55*%
%ADD43C,.23*%
%ADD38C,.25*%
%AMMACRO11*
4,1,5,-.1501,-.1001,
-.1501,.1001,
.1001,.1001,
.1501,.05,
.1501,-.1001,
-.1501,-.1001,
0.0*
%
%ADD11MACRO11*%
%ADD30O,.6604X1.27*%
%AMMACRO45*
4,1,5,2.0498,-1.5011,
2.0498,2.0498,
-2.0498,2.0498,
-2.0498,-2.0498,
1.5011,-2.0498,
2.0498,-1.5011,
0.0*
%
%ADD45MACRO45*%
%ADD36R,1.X.5999*%
%ADD14R,1.1989X.5004*%
%ADD13R,.5004X1.1989*%
%ADD15C,.5994*%
%ADD10R,.8999X1.7*%
%ADD26R,.8999X1.8001*%
%ADD19R,.5994X.5994*%
%ADD31R,1.5X1.4*%
%ADD21R,3.7X1.1*%
%ADD17R,.22X.3*%
%ADD18R,.3X.22*%
%ADD33R,.7X.2*%
%ADD44O,1.016X1.27*%
%ADD32R,.2X.7*%
%ADD25R,.8X.2*%
%ADD42O,2.4003X1.6002*%
%ADD24R,.2X.8*%
%ADD50R,.2X.9*%
%ADD52R,.81X.22*%
%ADD53R,.22X.81*%
%ADD51R,5.7X1.7*%
%ADD22R,.3X.84*%
%ADD35R,.27X.8001*%
%ADD39O,1.016X1.6256*%
%ADD28R,.41X.87*%
%ADD41O,.1905X.254*%
%ADD37O,.254X.1905*%
%ADD29R,.26X.87*%
%ADD12R,.3X.1999*%
%ADD27R,.1999X.3*%
%ADD23R,1.4732X1.1684*%
%ADD47O,.1999X.8001*%
%ADD46O,.8001X.1999*%
%ADD40R,.8992X.8001*%
%ADD16R,.8001X.8992*%
%ADD20R,1.1684X2.7178*%
%ADD34R,.27X.8999*%
%ADD54C,.127*%
G75*
%LPD*%
G75*
G36*
G01X697600Y5244200D02*
X624600D01*
Y5171200D01*
X697600D01*
Y5244200D01*
G37*
G36*
G01X594600D02*
X521600D01*
Y5171200D01*
X594600D01*
Y5244200D01*
G37*
G36*
G01Y5141200D02*
X521600D01*
Y5068200D01*
X594600D01*
Y5141200D01*
G37*
G36*
G01X697600D02*
X624600D01*
Y5068200D01*
X697600D01*
Y5141200D01*
G37*
G36*
G01X1214100Y4883800D02*
X1099100D01*
Y4736800D01*
X1214100D01*
Y4883800D01*
G37*
G36*
G01X1493600Y4679800D02*
X1381600D01*
Y4532800D01*
X1493600D01*
Y4679800D01*
G37*
G36*
G01X1361600D02*
X1249600D01*
Y4532800D01*
X1361600D01*
Y4679800D01*
G37*
G36*
G01X1229600D02*
X1117600D01*
Y4532800D01*
X1229600D01*
Y4679800D01*
G37*
G36*
G01Y4507800D02*
X1117600D01*
Y4360800D01*
X1229600D01*
Y4507800D01*
G37*
G36*
G01X1361600D02*
X1249600D01*
Y4360800D01*
X1361600D01*
Y4507800D01*
G37*
G36*
G01X1493600D02*
X1381600D01*
Y4360800D01*
X1493600D01*
Y4507800D01*
G37*
G36*
G01X1349100Y4883800D02*
X1234100D01*
Y4736800D01*
X1349100D01*
Y4883800D01*
G37*
G36*
G01X1506600D02*
X1391600D01*
Y4736800D01*
X1506600D01*
Y4883800D01*
G37*
G36*
G01X1221600Y4942800D02*
X1201600D01*
Y4922800D01*
X1221600D01*
Y4942800D01*
G37*
G36*
G01X1141600D02*
X1121600D01*
Y4922800D01*
X1141600D01*
Y4942800D01*
G37*
G36*
G01X1625600Y4679800D02*
X1513600D01*
Y4532800D01*
X1625600D01*
Y4679800D01*
G37*
G36*
G01Y4507800D02*
X1513600D01*
Y4360800D01*
X1625600D01*
Y4507800D01*
G37*
G36*
G01X1641600Y4883800D02*
X1526600D01*
Y4736800D01*
X1641600D01*
Y4883800D01*
G37*
G36*
G01X1541600Y4942800D02*
X1521600D01*
Y4922800D01*
X1541600D01*
Y4942800D01*
G37*
G36*
G01X1621600D02*
X1601600D01*
Y4922800D01*
X1621600D01*
Y4942800D01*
G37*
G36*
G01X2107300Y5269600D02*
X2034300D01*
Y5196600D01*
X2107300D01*
Y5269600D01*
G37*
G36*
G01X2004300D02*
X1931300D01*
Y5196600D01*
X2004300D01*
Y5269600D01*
G37*
G36*
G01Y5166600D02*
X1931300D01*
Y5093600D01*
X2004300D01*
Y5166600D01*
G37*
G36*
G01X2107300D02*
X2034300D01*
Y5093600D01*
X2107300D01*
Y5166600D01*
G37*
G54D10*
X526520Y340360D03*
X3316500Y1943100D03*
G54D20*
X785110Y3683000D03*
X484890D03*
G54D11*
X688290Y607090D03*
G54D12*
Y567110D03*
X778310Y607090D03*
Y567110D03*
G54D21*
X609600Y4015600D03*
Y4315600D03*
G54D30*
X1111250Y3721100D03*
X1016000D03*
X920750D03*
Y3975100D03*
X1111250D03*
X1454150Y3784600D03*
X1358900D03*
X1263650D03*
Y4038600D03*
X1454150D03*
G54D40*
X1823720Y785880D03*
Y926080D03*
X1821180Y1274060D03*
Y1133860D03*
X1828800Y1809900D03*
Y1669900D03*
X1831340Y2203300D03*
Y2343300D03*
X1930400Y4209900D03*
Y4349900D03*
X1896000Y4463900D03*
Y4604100D03*
X2202500Y566300D03*
Y426300D03*
X2218690Y1583540D03*
Y1723540D03*
X2095500Y6077100D03*
Y5937100D03*
X2374900Y565300D03*
Y425300D03*
X2350770Y1583540D03*
Y1723540D03*
X2623820Y2208380D03*
Y2348380D03*
X2667000Y3765700D03*
Y3625700D03*
X3297000Y1294500D03*
Y1154500D03*
G54D22*
X737800Y4440200D03*
Y4729200D03*
X887800Y4440200D03*
X837800D03*
X787800D03*
Y4729200D03*
X837800D03*
X887800D03*
G54D31*
X812800Y4584700D03*
G54D13*
X642110Y728220D03*
X732280D03*
Y1887980D03*
X642110D03*
X822200Y728220D03*
X912110D03*
X1002280D03*
X1092200D03*
Y1887980D03*
X1002280D03*
X912110D03*
X822200D03*
X1182120Y728220D03*
X1272290D03*
X1362200D03*
X1452120D03*
Y1887980D03*
X1362200D03*
X1272290D03*
X1182120D03*
X1542290Y728220D03*
Y1887980D03*
G54D23*
X546100Y4659880D03*
Y4839720D03*
X2349500Y5091680D03*
Y5271520D03*
X2667000Y4837680D03*
Y5017520D03*
G54D41*
X1536020Y2816980D03*
X1586020D03*
X1636020D03*
G54D50*
X1983500Y5508400D03*
G54D32*
X1111600Y4287800D03*
Y4957800D03*
X1151600Y4287800D03*
X1191600D03*
X1231600D03*
X1271600D03*
X1311600D03*
X1351600D03*
X1391600D03*
X1431600D03*
X1471600D03*
X1511600D03*
Y4957800D03*
X1471600D03*
X1431600D03*
X1391600D03*
X1351600D03*
X1311600D03*
X1271600D03*
X1231600D03*
X1191600D03*
X1151600D03*
X1551600Y4287800D03*
X1591600D03*
X1631600D03*
X1551600Y4957800D03*
X1631600D03*
X1591600D03*
G54D14*
X512320Y1038100D03*
Y948180D03*
Y858010D03*
Y1488190D03*
Y1398020D03*
Y1308100D03*
Y1218180D03*
Y1128010D03*
Y1758190D03*
Y1668020D03*
Y1578100D03*
X1672080Y858010D03*
Y948180D03*
Y1038100D03*
Y1128010D03*
Y1218180D03*
Y1308100D03*
Y1398020D03*
Y1488190D03*
Y1578100D03*
Y1668020D03*
Y1758190D03*
G54D51*
X3098800Y4766100D03*
Y5216100D03*
G54D24*
X529600Y5006200D03*
X569600D03*
X609600D03*
X649600D03*
X689600D03*
Y5306200D03*
X649600D03*
X609600D03*
X569600D03*
X529600D03*
X1939300Y5031600D03*
X1979300D03*
X2019300D03*
X2059300D03*
X2099300D03*
Y5331600D03*
X2059300D03*
X2019300D03*
X1979300D03*
X1939300D03*
X2023500Y5503400D03*
X1983500Y5643400D03*
X2023500D03*
G54D42*
X1701800Y3832350D03*
Y4092450D03*
X2603500Y365250D03*
Y625350D03*
X2661920Y1780030D03*
Y2040130D03*
X3068320Y1000250D03*
Y1260350D03*
G54D33*
X1036600Y4602800D03*
Y4562800D03*
Y4522800D03*
Y4482800D03*
Y4442800D03*
Y4402800D03*
Y4362800D03*
Y4882800D03*
Y4842800D03*
Y4802800D03*
Y4762800D03*
Y4722800D03*
Y4682800D03*
Y4642800D03*
X1706600Y4362800D03*
Y4402800D03*
Y4442800D03*
Y4482800D03*
Y4522800D03*
Y4562800D03*
Y4602800D03*
Y4642800D03*
Y4682800D03*
Y4722800D03*
Y4762800D03*
Y4802800D03*
Y4842800D03*
Y4882800D03*
G54D15*
X732280Y1038100D03*
Y1218180D03*
Y1398020D03*
G54D34*
X907290Y5398000D03*
X957300D03*
X1007290D03*
X1057300D03*
X1107290D03*
X1157300D03*
X1207290D03*
X1257300D03*
X1307310D03*
X1357300D03*
X1407310D03*
X1457300D03*
X2532890D03*
X2582900D03*
X2632890D03*
X2682900D03*
X2732890D03*
X2782900D03*
X2832890D03*
X2882900D03*
X2932910D03*
X2982900D03*
X3032910D03*
X3082900D03*
G54D16*
X719940Y2049780D03*
Y2349500D03*
X725930Y2870800D03*
X859940Y2049780D03*
Y2349500D03*
X865930Y2870800D03*
X1073300Y4152900D03*
X933300D03*
X2614780Y1536700D03*
X2697800Y3380700D03*
X2557800D03*
X2482700Y5194300D03*
X2622700D03*
X2906880Y1691640D03*
X3046880D03*
X2754780Y1536700D03*
X2978000Y3441700D03*
X3115160Y1457960D03*
X3255160D03*
X3118000Y3441700D03*
G54D52*
X3211100Y3615900D03*
Y3575900D03*
X3340100D03*
Y3615900D03*
G54D25*
X459600Y5236200D03*
Y5196200D03*
Y5156200D03*
Y5116200D03*
Y5076200D03*
X759600D03*
Y5116200D03*
Y5156200D03*
Y5196200D03*
Y5236200D03*
X1869300Y5261600D03*
Y5221600D03*
Y5181600D03*
Y5141600D03*
Y5101600D03*
X1913500Y5533400D03*
Y5573400D03*
Y5613400D03*
X2169300Y5101600D03*
Y5141600D03*
Y5181600D03*
Y5221600D03*
Y5261600D03*
X2093500Y5533400D03*
Y5573400D03*
Y5613400D03*
G54D43*
X1883100Y4720600D03*
Y4760600D03*
Y4800600D03*
Y4840600D03*
Y4880600D03*
X2003100Y4720600D03*
X1963100D03*
X1923100D03*
X2003100Y4760600D03*
X1963100D03*
X1923100D03*
X2003100Y4800600D03*
X1963100D03*
X1923100D03*
X2003100Y4840600D03*
X1963100D03*
X1923100D03*
X2003100Y4880600D03*
X1963100D03*
X1923100D03*
X1971540Y5789910D03*
X2011540D03*
X2051540D03*
X1971540Y5749910D03*
X2011540D03*
X2051540D03*
X1971540Y5829910D03*
X2011540D03*
X2051540D03*
G54D35*
X932310Y5557990D03*
X982290D03*
X1032310D03*
X1082290D03*
X1132310D03*
X1182290D03*
X1232310D03*
X1282290D03*
X1332310D03*
X1382290D03*
X1432310D03*
X1482290D03*
X2557910D03*
X2607890D03*
X2657910D03*
X2707890D03*
X2757910D03*
X2807890D03*
X2857910D03*
X2907890D03*
X2957910D03*
X3007890D03*
X3057910D03*
X3107890D03*
G54D53*
X3235600Y3511400D03*
X3275600D03*
X3315600D03*
Y3680400D03*
X3275600D03*
X3235600D03*
G54D44*
X2214880Y266700D03*
X2392680D03*
X2954150Y2610000D03*
X3049400Y2838600D03*
X2818850Y3680200D03*
X3009350D03*
X2914100Y3908800D03*
X3144650Y2610000D03*
G54D17*
X520700Y2041200D03*
Y1981200D03*
X1110460Y492280D03*
Y432280D03*
X1092200Y3217700D03*
Y3157700D03*
X800100Y4894100D03*
Y4834100D03*
X1397000Y5122700D03*
Y5062700D03*
Y5237000D03*
Y5177000D03*
X1320800Y5122700D03*
Y5062700D03*
Y5237000D03*
Y5177000D03*
X1905000Y4119400D03*
Y4059400D03*
X1825000Y5575000D03*
Y5635000D03*
X1925320Y804700D03*
Y744700D03*
X1922780Y1302540D03*
Y1242540D03*
X1920240Y1675920D03*
Y1615920D03*
X2222500Y4935700D03*
Y4995700D03*
X2532380Y2278860D03*
Y2338860D03*
X2578100Y2989100D03*
Y2929100D03*
X2654300Y4135600D03*
Y4195600D03*
X2374900Y4935700D03*
Y4995700D03*
X2298700Y4935700D03*
Y4995700D03*
X2768600Y2531900D03*
Y2471900D03*
X2819400Y2531900D03*
Y2471900D03*
X2870200Y2531900D03*
Y2471900D03*
X2717800Y4079720D03*
Y4139720D03*
X2882400Y4331100D03*
Y4271100D03*
X2932800Y4331420D03*
Y4271420D03*
X3330000Y3790000D03*
X3240000D03*
X3330000Y3850000D03*
X3240000D03*
X3348000Y4021000D03*
Y4081000D03*
X3176640Y4261420D03*
Y4321420D03*
X3237600D03*
Y4261420D03*
X3100000Y4260000D03*
Y4320000D03*
G54D26*
X936520Y340360D03*
X2906500Y1943100D03*
G54D54*
G01X723800Y5627990D02*
G02Y5727990I0J50000D01*
G01Y6153660D01*
X194820D01*
X-145240Y5813600D01*
Y104140D01*
X3954810D01*
X3955340Y104670D01*
Y6153660D01*
X3289400D01*
Y5727990D01*
G02Y5627990I0J-50000D01*
G01X637790Y6488130D02*
Y6742130D01*
X713990D01*
X739390Y6729420D01*
X758440Y6699800D01*
X764790Y6665930D01*
X758440Y6632060D01*
X742560Y6606660D01*
X713990Y6593960D01*
X637790D01*
G01X872740Y6488130D02*
Y6742130D01*
X955290Y6530460D01*
X1037840Y6742130D01*
Y6488130D01*
G01X1209290Y6742130D02*
Y6488130D01*
G01X1136270Y6742130D02*
X1282310D01*
G01X1653790D02*
Y6488130D01*
X1780790D01*
G01X1891910D02*
X1971290Y6742130D01*
X2050670Y6488130D01*
G01X2022090Y6577030D02*
X1920490D01*
G01X2225290Y6488130D02*
Y6602430D01*
X2161790Y6742130D01*
G01X2288790D02*
X2225290Y6602430D01*
G01X2542790Y6488130D02*
X2415790D01*
Y6742130D01*
X2542790D01*
G01X2491990Y6619370D02*
X2415790D01*
G01X2669790Y6488130D02*
Y6742130D01*
X2749160D01*
X2774560Y6729420D01*
X2790440Y6712500D01*
X2796790Y6678630D01*
X2790440Y6644760D01*
X2771390Y6623600D01*
X2749160Y6610890D01*
X2669790D01*
G01X2749160D02*
X2796790Y6488130D01*
G01X1663800Y5627990D02*
X723800D01*
G01X1663800D02*
X723800D01*
G01X1663800D02*
G03Y5727990I0J50000D01*
G01Y6153660D01*
X2349400D01*
Y5727990D01*
G03Y5627990I0J-50000D01*
G01X3289400D02*
X2349400D01*
G01X3289400D02*
X2349400D01*
G54D27*
X733300Y632110D03*
Y542090D03*
G54D18*
X706600Y2151380D03*
X714220Y2545080D03*
X1110460Y553720D03*
X766600Y2151380D03*
X774220Y2545080D03*
X1020600Y3327400D03*
X960600D03*
Y3162300D03*
X1020600D03*
X960600Y3378200D03*
X1020600D03*
Y3213100D03*
X960600D03*
X1170460Y553720D03*
X1848640Y205740D03*
X1788640D03*
X1858800Y622300D03*
X1798800D03*
Y685800D03*
X1858800D03*
X1887700Y5905500D03*
X2100100Y1859280D03*
X2040100D03*
X2179800D03*
X2239800D03*
X2100100Y1739900D03*
X2040100D03*
X1947700Y5905500D03*
X2678700Y218800D03*
X2618700D03*
X2565400Y218500D03*
X2505400D03*
X2684300Y3479800D03*
X2624300D03*
Y3530600D03*
X2684300D03*
X2635500Y3872000D03*
X2637000Y4025900D03*
X2430300Y3949700D03*
X2370300D03*
X2344900Y4114800D03*
X2404900D03*
X2649700Y4635500D03*
X2849400Y914400D03*
X2789400D03*
X2849400Y977900D03*
X2789400D03*
X2695500Y3872000D03*
X2888000Y4014000D03*
X2948000D03*
X3051020Y4071620D03*
X2697000Y4025900D03*
X2773200Y4203700D03*
X2713200D03*
X2907820Y4074160D03*
X2847820D03*
X2709700Y4635500D03*
X3357400Y2159000D03*
X3297400D03*
X3357400Y2222500D03*
X3297400D03*
X3357400Y2311400D03*
X3297400D03*
X3267820Y4029820D03*
X3207820D03*
X3111020Y4071620D03*
G54D36*
X1351280Y205740D03*
Y307340D03*
G54D45*
X2357120Y1071880D03*
G54D46*
X2057120Y1091870D03*
Y1051890D03*
Y1011890D03*
Y971880D03*
Y931880D03*
Y891870D03*
Y851890D03*
Y1291870D03*
Y1251890D03*
Y1211880D03*
Y1171880D03*
Y1131870D03*
X2657120Y851890D03*
Y891870D03*
Y931880D03*
Y971880D03*
Y1011890D03*
Y1051890D03*
Y1091870D03*
Y1131870D03*
Y1171880D03*
Y1211880D03*
Y1251890D03*
Y1291870D03*
G54D37*
X1486020Y2816980D03*
Y2866980D03*
Y2916980D03*
Y2966980D03*
Y3016980D03*
Y3066980D03*
Y3116980D03*
X2136020Y2816980D03*
Y2866980D03*
G54D28*
X1116000Y2284480D03*
X951000D03*
X1116000Y2400480D03*
X951000D03*
X1348000Y2284300D03*
X1183000D03*
X1348000Y2400300D03*
X1183000D03*
G54D19*
X724690Y2235200D03*
Y2463800D03*
X581660Y2463010D03*
Y2362990D03*
X559550Y2646090D03*
X730550Y2644890D03*
X565450Y3015190D03*
X563250Y2929310D03*
Y2829290D03*
X559550Y2746110D03*
X730550Y2744910D03*
X732310Y2981960D03*
X565450Y3115210D03*
X651450Y3323510D03*
Y3223490D03*
X732790Y3407550D03*
X733120Y3323620D03*
X732310Y3098800D03*
Y3208020D03*
X824710Y2235200D03*
Y2463800D03*
X832330Y2981960D03*
X832810Y3407550D03*
X833140Y3323620D03*
X832330Y3098800D03*
Y3208020D03*
X913640Y4965700D03*
X813560D03*
X901700Y5155440D03*
Y5055360D03*
X1427480Y2248690D03*
X1524000D03*
X1278380Y2103120D03*
X1378460D03*
X1427480Y2348710D03*
X1524000D03*
X1806700Y1028700D03*
X1906780D03*
X1909320Y1384300D03*
X1809240D03*
Y1536700D03*
X1909320D03*
X1620520Y2248690D03*
X1717040D03*
X1620520Y2348710D03*
X1717040D03*
X2056640Y266700D03*
X1956560D03*
X2009140Y1555240D03*
Y1655320D03*
X2105660Y1555240D03*
Y1655320D03*
X1981200Y3937790D03*
Y4037810D03*
X2521000Y4114010D03*
Y4013990D03*
X2901440Y1457960D03*
X3001520D03*
X2738120Y2228370D03*
X2834640D03*
X2738120Y2328390D03*
X2834640D03*
X2889270Y2923540D03*
X2789250D03*
X2895340Y2833500D03*
X2795260D03*
X2881600Y3369190D03*
Y3469210D03*
X2795300Y3370490D03*
Y3470510D03*
X2857700Y3231140D03*
Y3131060D03*
G54D47*
X2137130Y771880D03*
X2177110D03*
X2217120D03*
X2257120D03*
Y1371880D03*
X2217120D03*
X2177110D03*
X2137130D03*
X2297130Y771880D03*
X2337130D03*
X2377110D03*
X2417110D03*
X2457120D03*
X2497120D03*
X2537130D03*
X2577110D03*
Y1371880D03*
X2537130D03*
X2497120D03*
X2457120D03*
X2417110D03*
X2377110D03*
X2337130D03*
X2297130D03*
G54D29*
X1058500Y2284480D03*
X1008500D03*
Y2400480D03*
X1058500D03*
X1290500Y2284300D03*
X1240500D03*
Y2400300D03*
X1290500D03*
G54D38*
X1486020Y3166980D03*
Y3216980D03*
Y3266980D03*
Y3316980D03*
Y3366980D03*
Y3416980D03*
Y3466980D03*
X1536020Y2866980D03*
Y2916980D03*
Y2966980D03*
Y3016980D03*
X1586020Y2866980D03*
Y2916980D03*
Y2966980D03*
Y3016980D03*
X1636020Y2866980D03*
Y2916980D03*
X1686020Y2816980D03*
X1736020D03*
X1686020Y2866980D03*
Y2916980D03*
Y3016980D03*
X1736020Y2866980D03*
Y2916980D03*
Y3016980D03*
X1786020Y2816980D03*
Y2866980D03*
Y2916980D03*
Y3016980D03*
X1836020Y2816980D03*
Y2866980D03*
Y2916980D03*
Y3016980D03*
X1886020Y2816980D03*
Y2866980D03*
Y2916980D03*
Y3016980D03*
X1636020Y2966980D03*
X1536020Y3066980D03*
Y3116980D03*
Y3166980D03*
Y3216980D03*
Y3266980D03*
Y3316980D03*
Y3366980D03*
Y3416980D03*
X1586020Y3066980D03*
Y3116980D03*
Y3166980D03*
Y3216980D03*
Y3266980D03*
Y3316980D03*
Y3366980D03*
Y3416980D03*
X1636020Y3366980D03*
Y3416980D03*
X1686020Y3066980D03*
Y3116980D03*
Y3166980D03*
Y3216980D03*
Y3266980D03*
Y3366980D03*
Y3416980D03*
X1736020Y3266980D03*
Y3366980D03*
Y3416980D03*
X1786020Y3266980D03*
Y3366980D03*
Y3416980D03*
X1836020Y3266980D03*
Y3366980D03*
Y3416980D03*
X1886020Y3266980D03*
Y3366980D03*
Y3416980D03*
X1536020Y3466980D03*
X1586020D03*
X1636020D03*
X1686020D03*
X1736020D03*
X1786020D03*
X1836020D03*
X1886020D03*
X1936020Y2816980D03*
Y2866980D03*
Y2916980D03*
Y3016980D03*
X1986020Y2816980D03*
Y2866980D03*
Y2916980D03*
X2036020Y2816980D03*
Y2866980D03*
Y2916980D03*
Y2966980D03*
Y3016980D03*
X2086020Y2816980D03*
Y2866980D03*
Y2916980D03*
Y2966980D03*
Y3016980D03*
X2136020Y2916980D03*
Y2966980D03*
Y3016980D03*
X1936020Y3066980D03*
Y3116980D03*
Y3166980D03*
Y3216980D03*
Y3266980D03*
Y3366980D03*
Y3416980D03*
X1986020Y3366980D03*
Y3416980D03*
X2036020Y3066980D03*
Y3116980D03*
Y3166980D03*
Y3216980D03*
Y3266980D03*
Y3316980D03*
Y3366980D03*
Y3416980D03*
X2086020Y3066980D03*
Y3116980D03*
Y3166980D03*
Y3216980D03*
Y3266980D03*
Y3316980D03*
Y3366980D03*
Y3416980D03*
X2136020Y3066980D03*
Y3116980D03*
Y3166980D03*
Y3216980D03*
Y3266980D03*
Y3316980D03*
Y3366980D03*
Y3416980D03*
X1936020Y3466980D03*
X1986020D03*
X2036020D03*
X2086020D03*
X2136020D03*
G54D39*
X1656080Y256540D03*
G54D48*
X2043940Y2012950D03*
X2263900D03*
Y2172970D03*
X2043940D03*
G54D49*
X2237200Y4268000D03*
X2110200D03*
Y4808000D03*
X2237200D03*
X2491200Y4268000D03*
X2364200D03*
Y4808000D03*
X2491200D03*
M02*
