G04 ================== begin FILE IDENTIFICATION RECORD ==================*
G04 Layout Name:  D:/projects/Popcorn/Rev2.0/Brd/Popcorn Computer Rev 2p0_Release.brd*
G04 Film Name:    in2*
G04 File Format:  Gerber RS274X*
G04 File Origin:  Cadence Allegro 16.6-2015-S105*
G04 Origin Date:  Tue Jul 14 12:45:48 2020*
G04 *
G04 Layer:  VIA CLASS/IN2*
G04 Layer:  PIN/IN2*
G04 Layer:  ETCH/IN2*
G04 Layer:  BOARD GEOMETRY/OUTLINE*
G04 *
G04 Offset:    (0.0000 0.0000)*
G04 Mirror:    No*
G04 Mode:      Positive*
G04 Rotation:  0*
G04 FullContactRelief:  No*
G04 UndefLineWidth:     0.1270*
G04 ================== end FILE IDENTIFICATION RECORD ====================*
%FSLAX25Y25*MOMM*%
%IR0*IPPOS*OFA0.00000B0.00000*MIA0B0*SFA1.00000B1.00000*%
%ADD18O,.95X2.1001*%
%ADD11C,.4064*%
%ADD17C,.6604*%
%ADD16C,.4572*%
%ADD20C,.5999*%
%ADD19C,1.1001*%
%ADD15O,1.3X2.7501*%
%ADD12C,4.*%
%ADD10C,1.5001*%
%ADD14O,1.524X1.1176*%
%ADD21C,1.651*%
%ADD13O,1.1999X2.3*%
%ADD22C,.1016*%
%ADD23C,.127*%
%ADD24C,.254*%
%ADD25C,.1524*%
%ADD26C,.381*%
%ADD27C,.1397*%
%ADD28C,.61*%
%ADD32C,.7116*%
%ADD33C,.6354*%
%ADD29C,.6608*%
%ADD31C,2.0086*%
%ADD30C,1.7038*%
%ADD34C,1.8546*%
G75*
%LPD*%
G75*
G36*
G01X57880Y21010D02*
Y347900D01*
G02X76270Y353860I10161J1D01*
G03X219400Y445790I68973J50001D01*
G01X217500Y449150D01*
X280140Y511790D01*
X452860D01*
X484750Y543680D01*
G02X502090Y536490I7181J-7187D01*
G01Y533680D01*
X444470Y476050D01*
G03X473400Y445790I-45224J-72196D01*
G01X471500Y449150D01*
X510150Y487800D01*
G02X527490Y480610I7181J-7187D01*
G01Y421990D01*
X503400Y397900D01*
Y280990D01*
X444530Y222120D01*
X441170Y224020D01*
G03X473400Y191790I-41930J-74160D01*
G01X471500Y195150D01*
X535860Y259510D01*
X563340Y232020D01*
X563250Y229800D01*
G03X592530Y259080I30480J-1200D01*
G01X590310Y258990D01*
X566940Y282360D01*
Y368190D01*
X591030Y392280D01*
Y939140D01*
X714860Y1062970D01*
X721880D01*
G02X729070Y1045630I3J-10159D01*
G01X692300Y1008860D01*
Y758930D01*
X922200Y529030D01*
X922110Y526810D01*
G03X951390Y556090I30480J-1200D01*
G01X949170Y556000D01*
X730440Y774730D01*
Y809100D01*
G02X743140Y818930I10159J-6D01*
G03X774580Y829390I7636J29529D01*
G01X788260D01*
X816880Y858010D01*
G02X834220Y850820I7181J-7187D01*
G01Y772930D01*
X900210D01*
Y687940D01*
X1167250D01*
Y955970D01*
X939370D01*
G02X932180Y973310I-3J10159D01*
G01X1208010Y1249140D01*
Y1279960D01*
G02X1225350Y1287150I10159J3D01*
G01X1396770Y1115730D01*
X1526800D01*
G02X1534580Y1099040I-3J-10160D01*
G03X1531070Y1063310I24331J-20428D01*
G02X1522160Y1048260I-8907J-4889D01*
G01X1325610D01*
X1272370Y1101500D01*
X1272530Y1103810D01*
G03X1214910Y1124410I-31689J2247D01*
G02X1201580Y1121460I-8291J5872D01*
G03X1188090Y1062170I-15738J-27599D01*
G01X1190400Y1062330D01*
X1268010Y984720D01*
X1742220D01*
X1789590Y1032090D01*
X1927980D01*
X2012630Y1116740D01*
X2049110D01*
G02X2057680Y1101120I3J-10159D01*
G03X2081360Y1054280I25710J-16408D01*
G02X2090810Y1044850I-685J-10136D01*
G03X2091270Y1041290I30428J2122D01*
G02X2084530Y1029770I-9983J-1891D01*
G03X2100380Y970990I9710J-28909D01*
G03X2102300Y966560I28857J9876D01*
G02X2098680Y953150I-8971J-4772D01*
G03X2091970Y906920I16052J-25932D01*
G02X2092160Y893620I-7586J-6760D01*
G03X2103390Y846030I23361J-19608D01*
G02X2106290Y829290I-4044J-9322D01*
G03X2103780Y783700I22591J-24108D01*
G02Y770480I-7720J-6610D01*
G03X2136840Y716930I25102J-21483D01*
G02X2149450Y707290I2453J-9859D01*
G03X2163410Y682330I30491J670D01*
G01Y581690D01*
G02X2149720Y572160I-10162J-1D01*
G03X2108700Y545450I-10581J-28603D01*
G02X2091370Y538890I-10143J624D01*
G01X2036370Y593900D01*
Y726400D01*
G03X2050150Y755470I-16527J25635D01*
G02X2057080Y766270I10093J1147D01*
G03X2017290Y791820I-9483J28990D01*
G02X2010360Y781020I-10093J-1147D01*
G03X2003310Y726400I9481J-28989D01*
G01Y580200D01*
X2185720Y397790D01*
Y304010D01*
X2317710Y172020D01*
Y81490D01*
G03X2310010Y37340I16531J-25630D01*
G02X2301940Y21010I-8073J-6169D01*
G01X1979140D01*
Y459760D01*
X1369500D01*
Y21010D01*
X57880D01*
G37*
G36*
G01Y459820D02*
Y578680D01*
G02X75130Y585950I10159J-5D01*
G03X236590Y699600I70114J71907D01*
G01X235120Y702810D01*
X326870Y794560D01*
Y839600D01*
G02X343660Y847300I10160J1D01*
G03X459360Y851500I55583J64560D01*
G02X476690Y844310I7171J-7196D01*
G01Y725410D01*
G02X459360Y718220I-10159J6D01*
G03X467540Y606940I-60119J-60360D01*
G01X469060Y608980D01*
X476690D01*
Y589560D01*
X437060Y549930D01*
X264340D01*
X190470Y476050D01*
G03X76270Y453860I-45229J-72191D01*
G02X57880Y459820I-8229J5959D01*
G37*
G36*
G01X75130Y729770D02*
G02X57880Y737040I-7091J7275D01*
G01Y855900D01*
G02X76270Y861860I10161J1D01*
G03Y961860I68970J50000D01*
G02X57880Y967820I-8229J5959D01*
G01Y1109900D01*
G02X76270Y1115860I10161J1D01*
G03Y1215860I68970J50000D01*
G02X57880Y1221820I-8229J5959D01*
G01Y1363900D01*
G02X76270Y1369860I10161J1D01*
G03Y1469860I68970J50000D01*
G02X57880Y1475820I-8229J5959D01*
G01Y1617900D01*
G02X76270Y1623860I10161J1D01*
G03Y1723860I68970J50000D01*
G02X57880Y1729820I-8229J5959D01*
G01Y1871900D01*
G02X76270Y1877860I10161J1D01*
G03Y1977860I68970J50000D01*
G02X57880Y1983820I-8229J5959D01*
G01Y2125900D01*
G02X76270Y2131860I10161J1D01*
G03X189310Y2108950I68975J49999D01*
G01X192710Y2111010D01*
X245520Y2058200D01*
Y1862620D01*
X343110Y1765030D01*
X348950D01*
G02X354310Y1746240I1J-10159D01*
G03X444170I44930J-72380D01*
G02X449530Y1765030I5359J8631D01*
G01X534420D01*
G03Y1798090I25630J16530D01*
G01X520750D01*
G02X517160Y1806760I3J5080D01*
G01X549810Y1839410D01*
X552300Y1839080D01*
G03X580700Y1887660I4039J30230D01*
G02X581630Y1900960I8115J6115D01*
G03X590490Y1924770I-21558J21575D01*
G01X590320Y1927090D01*
X615920Y1952680D01*
Y1999050D01*
X583080Y2031890D01*
X561840D01*
G02X552310Y2045570I2J10161D01*
G03X554190Y2055220I-28606J10581D01*
G02X563710Y2065060I10154J-299D01*
G03X592050Y2099400I-1910J30440D01*
G01X591730Y2101870D01*
X600320Y2110460D01*
G02X617660Y2103280I7181J-7186D01*
G01Y2015080D01*
X755700Y1877040D01*
X802870D01*
X983420Y1696490D01*
Y1435680D01*
G02X970800Y1425820I-10159J-4D01*
G03X938160Y1414650I-7681J-30829D01*
G02X925240Y1412060I-7979J6285D01*
G03X890740Y1409730I-15454J-27759D01*
G02X877810Y1410350I-6090J8133D01*
G03X837370Y1361430I-21367J-23512D01*
G01Y1347240D01*
X801410Y1311280D01*
G02X784070Y1318470I-7181J7187D01*
G01Y1327600D01*
X784550Y1328620D01*
G03X720050I-32250J15040D01*
G01X720530Y1327600D01*
Y1320220D01*
X450620Y1050310D01*
X337820D01*
X263330Y975820D01*
Y820880D01*
X190190Y747740D01*
X186980Y749210D01*
G03X75130Y729770I-41738J-91348D01*
G37*
G36*
G01X57880Y2237820D02*
Y2379900D01*
G02X76270Y2385860I10161J1D01*
G03X189310Y2362950I68975J49999D01*
G01X192710Y2365010D01*
X230310Y2327410D01*
Y2240850D01*
G02X212170Y2234570I-10158J4D01*
G03X76270Y2231860I-66926J-52710D01*
G02X57880Y2237820I-8229J5959D01*
G37*
G36*
G01X255710Y2373290D02*
G02X238370Y2366110I-10159J6D01*
G01X216090Y2388390D01*
X218150Y2391790D01*
G03X76270Y2485860I-72904J44072D01*
G02X57880Y2491820I-8229J5959D01*
G01Y2633900D01*
G02X76270Y2639860I10161J1D01*
G03X189310Y2616950I68975J49999D01*
G01X192710Y2619010D01*
X255710Y2556010D01*
Y2373290D01*
G37*
G36*
G01X306110Y2366110D02*
G02X288770Y2373290I-7181J7186D01*
G01Y2569710D01*
X216090Y2642390D01*
X218150Y2645790D01*
G03X76270Y2739860I-72904J44072D01*
G02X57880Y2745820I-8229J5959D01*
G01Y2887900D01*
G02X76270Y2893860I10161J1D01*
G03X189310Y2870950I68975J49999D01*
G01X192710Y2873010D01*
X285710Y2780010D01*
X347340D01*
G02X352870Y2761330I1J-10158D01*
G03X443310Y2616950I46370J-71470D01*
G01X446710Y2619010D01*
X476770Y2588950D01*
Y2503330D01*
G02X459430Y2496140I-10161J2D01*
G03X326330Y2391790I-60193J-60284D01*
G01X328390Y2388390D01*
X306110Y2366110D01*
G37*
G36*
G01X600320Y2406840D02*
X540770Y2466390D01*
Y2724110D01*
X451810Y2813070D01*
X299410D01*
X216090Y2896390D01*
X218150Y2899790D01*
G03X76270Y2993860I-72904J44072D01*
G02X57880Y2999820I-8229J5959D01*
G01Y3141900D01*
G02X76270Y3147860I10161J1D01*
G03X187170Y3123700I68974J49999D01*
G01X190530Y3125600D01*
X231400Y3084730D01*
X446110D01*
X563170Y3201790D01*
Y3396410D01*
X661760Y3495000D01*
X759900D01*
Y3493360D01*
X761680Y3491580D01*
G02X759920Y3475810I-7183J-7182D01*
G03X755530Y3472200I12227J-19343D01*
G01X699820D01*
X589720Y3362100D01*
Y2675480D01*
X617660Y2647540D01*
Y2414020D01*
G02X600320Y2406840I-10159J6D01*
G37*
G36*
G01X247200Y3122870D02*
X217500Y3152570D01*
X219400Y3155930D01*
G03X76270Y3247860I-74157J41929D01*
G02X57880Y3253820I-8229J5959D01*
G01Y3395900D01*
G02X76270Y3401860I10161J1D01*
G03X187170Y3377700I68974J49999D01*
G01X190530Y3379600D01*
X231400Y3338730D01*
X446110D01*
X482290Y3374910D01*
G02X499630Y3367720I7181J-7187D01*
G01Y3325220D01*
X444530Y3270120D01*
X441170Y3272020D01*
G03X336770Y3139940I-41931J-74157D01*
G02X329320Y3122870I-7448J-6910D01*
G01X247200D01*
G37*
G36*
G01Y3376870D02*
X217500Y3406570D01*
X219400Y3409930D01*
G03X76270Y3501860I-74157J41929D01*
G02X57880Y3507820I-8229J5959D01*
G01Y3649900D01*
G02X76270Y3655860I10161J1D01*
G03Y3755860I68970J50000D01*
G02X57880Y3761820I-8229J5959D01*
G01Y3903900D01*
G02X76270Y3909860I10161J1D01*
G03X217880Y3915350I68973J50000D01*
G02X236700Y3910040I8661J-5309D01*
G01Y3876470D01*
X299380Y3813790D01*
X800990D01*
X802160Y3810340D01*
G03X807220Y3801110I28875J9828D01*
G02Y3788410I-7930J-6350D01*
G03X854860I23820J-19050D01*
G02Y3801110I7930J6350D01*
G03X857300Y3804650I-23830J19036D01*
G02X873240Y3806670I8752J-5161D01*
G01X890980Y3788930D01*
X1026620D01*
G02X1036450Y3776240I-8J-10158D01*
G03X1067190Y3738150I29538J-7611D01*
G01X1069410Y3738240D01*
X1083030Y3724620D01*
X1304410D01*
G02X1313060Y3709140I-5J-10159D01*
G03X1313830Y3676000I25980J-15975D01*
G02X1305430Y3660120I-8399J-5719D01*
G01X1019150D01*
X968370Y3609340D01*
X529750D01*
X444530Y3524120D01*
X441170Y3526020D01*
G03X336770Y3393940I-41931J-74157D01*
G02X329320Y3376870I-7448J-6910D01*
G01X247200D01*
G37*
G36*
G01X217880Y4004370D02*
G03X76270Y4009860I-72637J-44510D01*
G02X57880Y4015820I-8229J5959D01*
G01Y4157900D01*
G02X76270Y4163860I10161J1D01*
G03X185940Y4139020I68973J50000D01*
G01X189280Y4140840D01*
X236700Y4093410D01*
Y4009680D01*
G02X217880Y4004370I-10159J-1D01*
G37*
G36*
G01X1139630Y3813560D02*
X1100720Y3852470D01*
X917300D01*
X865770Y3904000D01*
X796310D01*
X769640Y3877330D01*
X461320D01*
G02X454710Y3895200I3J10159D01*
G03X343770I-55470J64660D01*
G02X337160Y3877330I-6613J-7711D01*
G01X325700D01*
X300240Y3902790D01*
Y4119730D01*
X227700Y4192270D01*
X228320Y4195010D01*
G03X76270Y4263860I-83078J18848D01*
G02X57880Y4269820I-8229J5959D01*
G01Y4411900D01*
G02X76270Y4417860I10161J1D01*
G03Y4517860I68970J50000D01*
G02X57880Y4523820I-8229J5959D01*
G01Y4665900D01*
G02X76270Y4671860I10161J1D01*
G03Y4771860I68970J50000D01*
G02X57880Y4777820I-8229J5959D01*
G01Y5716020D01*
X357980Y6016120D01*
X513540D01*
Y6017260D01*
X716740D01*
Y6016120D01*
X838090D01*
Y5666390D01*
X792940D01*
Y5496560D01*
X1049040D01*
G02X1056220Y5479220I-6J-10159D01*
G01X1023710Y5446710D01*
Y5328000D01*
X846000Y5150290D01*
Y4922000D01*
X829760Y4905760D01*
X818080D01*
X783320Y4871000D01*
X781850Y4870680D01*
G03X811950Y4821670I6392J-29823D01*
G02X825190Y4823920I7897J-6389D01*
G03X871470Y4853890I16047J25938D01*
G01X871140Y4856380D01*
X904460Y4889700D01*
Y5126060D01*
X929810Y5151410D01*
G02X946800Y5146890I7186J-7181D01*
G03X987730Y5126610I29439J7971D01*
G01X990850Y5127880D01*
X1012620Y5106110D01*
Y5083940D01*
G02X995910Y5076170I-10160J-4D01*
G03X959710Y5027230I-19673J-23307D01*
G01Y4878910D01*
X1035340Y4803280D01*
Y4588260D01*
G02X1018000Y4581070I-10159J-3D01*
G01X985140Y4613930D01*
X762740D01*
X735810Y4640860D01*
Y4983760D01*
X648440Y5071130D01*
X550040D01*
G03X514580Y5023870I-23801J-19075D01*
G02X517890Y5007300I-3877J-9390D01*
G01X499580Y4989000D01*
G02X482470Y4994020I-7184J7184D01*
G03X449150Y4906820I-83231J-18163D01*
G02X465260Y4898590I5951J-8234D01*
G01Y4545130D01*
G02X449150Y4536900I-10159J4D01*
G03Y4398820I-49910J-69040D01*
G02X465260Y4390590I5951J-8234D01*
G01Y4291130D01*
G02X449150Y4282900I-10159J4D01*
G03X457960Y4152140I-49910J-69039D01*
G02X472140Y4151960I6998J-7364D01*
G01X499950Y4124150D01*
Y4095770D01*
X612760Y3982960D01*
X1105720D01*
X1171370Y4048610D01*
G02X1188710Y4041430I7181J-7186D01*
G01Y4016210D01*
X1287590Y3917330D01*
X1291650D01*
G02X1300790Y3902740I-2J-10159D01*
G03X1305610Y3868990I27449J-13299D01*
G02X1305360Y3855110I-7542J-6806D01*
G03X1297700Y3826250I21878J-21253D01*
G02X1287870Y3813560I-9838J-2532D01*
G01X1139630D01*
G37*
G36*
G01X792240Y3465860D02*
X805180D01*
X828480Y3442560D01*
Y3384600D01*
X809500D01*
X739600Y3314700D01*
Y2720340D01*
X754820Y2705120D01*
Y2703420D01*
X761830Y2696410D01*
X762210Y2695290D01*
G03X781280Y2676220I28880J9810D01*
G01X782400Y2675840D01*
X783640Y2674600D01*
X785340D01*
X818340Y2641600D01*
Y2578100D01*
X774020Y2533780D01*
X773430Y2533440D01*
G03X762140Y2522150I15170J-26460D01*
G01X761800Y2521560D01*
X754840Y2514600D01*
Y2057400D01*
X833580Y1978660D01*
Y1910080D01*
X810720Y1887220D01*
X759920D01*
X627840Y2019300D01*
Y2651760D01*
X599900Y2679700D01*
Y3357880D01*
X704040Y3462020D01*
X788400D01*
X792240Y3465860D01*
G37*
G36*
G01X785320Y2336800D02*
X777700Y2344420D01*
Y2397760D01*
X795730Y2415790D01*
X797300Y2416070D01*
G03X826120Y2444890I-6210J35030D01*
G01X826400Y2446460D01*
X841200Y2461260D01*
Y2649220D01*
X805640Y2684780D01*
X787860D01*
X765000Y2707640D01*
Y3247140D01*
G02X780240Y3255940I10160J2D01*
G03X800630Y3312420I15241J26418D01*
G02X795160Y3329620I1714J10015D01*
G01X838660Y3373120D01*
Y3433580D01*
X1022920D01*
X1074200Y3484870D01*
X1075950Y3485070D01*
G03X1102780Y3517270I-3611J30287D01*
G02X1112920Y3528060I10140J630D01*
G01X1402290D01*
X1445720Y3484630D01*
Y3273690D01*
G02X1436230Y3263550I-10161J-1D01*
G03X1403060Y3230230I2341J-35501D01*
G01X1402940Y3228300D01*
X1355880Y3181250D01*
Y2826920D01*
X1330990Y2802030D01*
X1329450Y2801730D01*
G03X1321760Y2795130I1892J-9984D01*
G01X1321380Y2794040D01*
X1283560Y2756220D01*
G02X1263170Y2767410I4683J32704D01*
G01X1261640Y2769180D01*
X1254230D01*
Y3150320D01*
X1231900Y3172650D01*
X1231700Y3174420D01*
G03X1192380Y3135100I-35360J-3960D01*
G01X1194150Y3134900D01*
X1200850Y3128200D01*
Y2834660D01*
G02X1190070Y2824520I-10161J2D01*
G03X1169150Y2770270I-1853J-30444D01*
G02X1169990Y2755160I-6348J-7931D01*
G01X1169120Y2754290D01*
G02X1151830Y2760440I-7182J7187D01*
G03X1091240Y2753410I-30340J-3130D01*
G02X1081160Y2741950I-10076J-1300D01*
G01X989580D01*
X866550Y2618920D01*
Y2336800D01*
X785320D01*
G37*
G36*
G01X630670Y4026180D02*
X543170Y4113680D01*
Y4318090D01*
G03X492460Y4367870I-26685J23535D01*
G02X475440Y4375360I-6861J7493D01*
G01Y4402410D01*
X476610Y4403820D01*
G03X475440Y4533280I-77369J64036D01*
G01Y4683770D01*
G03Y4759950I-76200J38090D01*
G01Y4910440D01*
G03X481650Y4918450I-76166J65462D01*
G01X481900Y4918820D01*
X488140Y4925060D01*
Y4929120D01*
X488700Y4930210D01*
G03X499620Y4972690I-89462J45641D01*
G01X499680Y4974700D01*
X538940Y5013960D01*
X577040D01*
X615140Y4975860D01*
Y4953290D01*
G03Y4890430I16680J-31430D01*
G01Y4882490D01*
G03X601840Y4835120I18099J-30634D01*
G01X602440Y4834000D01*
Y4569460D01*
X680750Y4491150D01*
G02X680950Y4476980I-7181J-7188D01*
G03X683290Y4431100I23090J-21822D01*
G02Y4415720I-6637J-7690D01*
G03X728100Y4370910I20750J-24060D01*
G02X743480I7690J-6637D01*
G03X789360Y4368570I24058J20750D01*
G02X803530Y4368370I6982J-7381D01*
G01X996140Y4175760D01*
X1110440D01*
X1135840Y4150360D01*
Y4074210D01*
X1087810Y4026180D01*
X863910D01*
G02X853770Y4036900I3J10158D01*
G03X801670Y4070350I-35528J1962D01*
G02X787590Y4075370I-4730J8990D01*
G03X730140Y4087070I-32749J-13910D01*
G02X716040I-7050J7315D01*
G03X661610Y4041920I-24695J-25612D01*
G02X653120Y4026180I-8492J-5579D01*
G01X630670D01*
G37*
G36*
G01X1146670Y4178450D02*
G02X1129330Y4171270I-10159J6D01*
G01X1114660Y4185940D01*
X1000360D01*
X612620Y4573680D01*
Y4812570D01*
G02X625390Y4822390I10160J0D01*
G03X648220Y4878430I7850J29472D01*
G02X647860Y4895920I4987J8851D01*
G03X634570Y4952240I-16039J25943D01*
G02X625320Y4962350I908J10118D01*
G01Y4980080D01*
X589750Y5015650D01*
G02X596930Y5032990I7186J7181D01*
G01X632640D01*
X697670Y4967960D01*
Y4625060D01*
X746940Y4575790D01*
X969340D01*
X1037800Y4507330D01*
Y4501650D01*
X1069770Y4469680D01*
X1069990Y4467960D01*
G03X1074320Y4455780I30251J3895D01*
G02X1069570Y4441040I-8634J-5353D01*
G03X1066490Y4386160I11668J-28181D01*
G02X1066990Y4368670I-4911J-8893D01*
G03X1113520Y4339210I16250J-25810D01*
G02X1123570Y4348160I10088J-1210D01*
G03X1133240Y4349780I-139J30499D01*
G02X1146670Y4340160I3269J-9620D01*
G01Y4309510D01*
G02X1131200Y4300850I-10160J2D01*
G03X1086580Y4285300I-15962J-25990D01*
G02X1074090Y4279050I-9546J3472D01*
G03X1093900Y4239420I-8849J-29190D01*
G02X1106390Y4245670I9546J-3472D01*
G03X1131200Y4248870I8847J29189D01*
G02X1146670Y4240210I5310J-8662D01*
G01Y4178450D01*
G37*
G36*
G01X988940Y1852710D02*
X912310Y1929340D01*
Y2326620D01*
X995280D01*
X997610Y2328950D01*
G02X1006280Y2325360I3591J-3592D01*
G01Y1859900D01*
G02X988940Y1852710I-10159J-3D01*
G37*
G36*
G01X1914460Y1847020D02*
X1904140Y1857340D01*
X1904470Y1859830D01*
G03X1844420Y1870260I-30231J4030D01*
G02X1827300Y1865210I-9933J2131D01*
G01X1820700Y1871810D01*
X1378660D01*
X1346350Y1904120D01*
Y1993010D01*
X1364310Y2010970D01*
Y2022450D01*
G03X1343910Y2078330I-16533J25628D01*
G02X1333070Y2091890I-1294J10078D01*
G03X1287890Y2076720I-28649J10461D01*
G01Y1914110D01*
G02X1270550Y1906930I-10159J6D01*
G01X1168880Y2008600D01*
Y2365440D01*
X1234390Y2430950D01*
X1237960Y2427900D01*
G03X1280660Y2430950I19802J23199D01*
G02X1294090Y2432580I7628J-6708D01*
G03X1343900Y2471330I18889J27109D01*
G02X1353410Y2485070I9509J3580D01*
G01X1419200D01*
X1579140Y2645010D01*
Y3052350D01*
G03X1581580Y3101860I-16531J25630D01*
G02X1579810Y3115950I6325J7951D01*
G03X1553300Y3164780I-24319J18408D01*
G02X1542410Y3174770I-732J10133D01*
G03X1542390Y3175570I-30502J-362D01*
G02X1548530Y3180740I5074J205D01*
G03X1537140Y3235330I6408J29820D01*
G02X1521270Y3241460I-5933J8248D01*
G03X1466100Y3252100I-29834J-6340D01*
G02X1458550Y3251090I-4221J2827D01*
G03X1455900Y3253150I-20015J-23013D01*
G01Y3460700D01*
G02X1473240Y3467890I10159J3D01*
G01X1665820Y3275310D01*
X1920230D01*
X2031500Y3164040D01*
G02X2025720Y3146790I-7180J-7188D01*
G03X2060130Y3112380I4200J-30210D01*
G02X2077380Y3118160I10062J-1400D01*
G01X2110420Y3085120D01*
G02X2108400Y3069190I-7185J-7182D01*
G03X2133450Y3013950I15493J-26274D01*
G02X2146790Y3004300I3181J-9647D01*
G01Y3001580D01*
G02X2134730Y2991600I-10161J1D01*
G03X2098550Y2960460I-5703J-29962D01*
G01X2098640Y2958250D01*
X2074880Y2934490D01*
Y2872750D01*
X2126470Y2821160D01*
Y2662770D01*
G02X2111730Y2653710I-10158J6D01*
G03Y2599270I-13770J-27220D01*
G02X2126470Y2590210I4582J-9066D01*
G01Y2530710D01*
X2122880Y2527120D01*
Y2326770D01*
G02X2106000Y2319140I-10161J-7D01*
G03Y2273380I-20160J-22880D01*
G02X2122880Y2265750I6719J-7623D01*
G01Y2182570D01*
G03X2116570Y2145060I20360J-22711D01*
G02X2107690Y2129970I-8882J-4931D01*
G01X2041470D01*
X1924530Y2013030D01*
Y1957050D01*
X1920990Y1955920D01*
G03X1952380Y1905880I9250J-29063D01*
G02X1966620Y1906380I7374J-6986D01*
G03X1994490Y1958490I20615J22483D01*
G01X1990620Y1959430D01*
Y1985660D01*
X2068840Y2063880D01*
X2242880D01*
X2397520Y2218510D01*
G02X2414860Y2211330I7182J-7184D01*
G01Y2144360D01*
X2202730Y1932230D01*
X2100290D01*
X2099120Y1935680D01*
G03X2092930Y1946240I-28873J-9831D01*
G02X2098180Y1962930I7557J6794D01*
G03X2068570Y1972250I-6923J29702D01*
G02X2063320Y1955560I-7557J-6794D01*
G03X2047400Y1905650I6922J-29702D01*
G02X2046900Y1891650I-7606J-6737D01*
G03X2039260Y1860350I21340J-21791D01*
G02X2029610Y1847020I-9652J-3170D01*
G01X1914460D01*
G37*
G36*
G01X1571300Y3852130D02*
G02X1556950Y3849660I-8376J5745D01*
G03X1554380Y3851340I-17953J-24658D01*
G01X1551860Y3852810D01*
Y3929650D01*
X1545270Y3936240D01*
G02X1551400Y3953520I7189J7177D01*
G03X1518720Y3976190I-3158J30337D01*
G02X1508890Y3963480I-9834J-2550D01*
G01X1390150D01*
X1377060Y3950390D01*
X1301290D01*
X1295540Y3956140D01*
X1300090Y3960690D01*
X1301400Y3961050D01*
G03X1266260Y4004260I-7920J29453D01*
G02X1250010Y4001660I-9067J4587D01*
G01X1221770Y4029910D01*
Y4101230D01*
G03X1230270Y4144280I-16532J25628D01*
G02X1232270Y4158030I8340J5807D01*
G03X1195720Y4206830I-19035J23831D01*
G02X1179730Y4215150I-5831J8318D01*
G01Y4533750D01*
X1133140Y4580340D01*
X1133470Y4582830D01*
G03X1128640Y4603750I-30232J4038D01*
G02X1132130Y4618240I8456J5629D01*
G03X1122400Y4674920I-14889J26619D01*
G02X1115900Y4690910I1716J10014D01*
G03X1081730Y4737840I-24659J17950D01*
G02X1068400Y4747490I-3170J9652D01*
G01Y4816980D01*
X992770Y4892610D01*
Y4941320D01*
G02X1010110Y4948510I10160J2D01*
G01X1012620Y4946000D01*
Y4897450D01*
X1058370Y4851700D01*
X1117610D01*
G02X1127260Y4838370I-2J-10160D01*
G03X1183460Y4815090I28978J-9522D01*
G02X1199710Y4817690I9066J-4583D01*
G01X1234600Y4782800D01*
X1249610D01*
G02X1259260Y4769470I-2J-10160D01*
G03X1317220I28980J-9510D01*
G02X1326870Y4782800I9652J3170D01*
G01X1332170D01*
G02X1341460Y4768520I2J-10161D01*
G03X1397220I27880J-12360D01*
G02X1406510Y4782800I9288J4119D01*
G01X1414710D01*
G02X1424360Y4769470I-2J-10160D01*
G03X1482320I28980J-9510D01*
G02X1491970Y4782800I9652J3170D01*
G01X1529010D01*
G02X1538660Y4769470I-2J-10160D01*
G03X1596620I28980J-9510D01*
G02X1606270Y4782800I9652J3170D01*
G01X1624670D01*
G02X1633960Y4768520I2J-10161D01*
G03X1689720I27880J-12360D01*
G02X1699010Y4782800I9288J4119D01*
G01X1719510D01*
G02X1729160Y4769470I-2J-10160D01*
G03X1785360Y4746190I28978J-9522D01*
G02X1801610Y4748790I9066J-4583D01*
G01X1844530Y4705870D01*
Y4621010D01*
X1787530Y4564010D01*
Y4434010D01*
X1708850Y4355330D01*
Y4150660D01*
X1733140Y4126360D01*
G02X1730530Y4110100I-7181J-7187D01*
G03X1720850Y4102430I13708J-27243D01*
G02X1707690Y4100320I-7794J6519D01*
G03X1667680Y4055470I-16119J-25892D01*
G02X1666540Y4041620I-7957J-6317D01*
G03X1656500Y4019170I20460J-22620D01*
G03X1691500Y3988830I4499J-30168D01*
G03X1710890Y4037960I-4500J30167D01*
G02X1712030Y4051810I7957J6317D01*
G03X1714960Y4054860I-20477J22603D01*
G02X1728120Y4056970I7794J-6519D01*
G03X1753340Y4053750I16121J25890D01*
G02X1766530Y4044050I3030J-9698D01*
G01Y4039020D01*
X1697540Y3970030D01*
Y3901940D01*
G02X1679830Y3895130I-10162J-6D01*
G03X1624490Y3872870I-23589J-21276D01*
G02X1610250Y3863250I-10156J-316D01*
G03X1571300Y3852130I-12755J-29100D01*
G37*
G36*
G01X1835860Y4800820D02*
X1792870Y4843810D01*
X1259870D01*
X1190970Y4912710D01*
X1083640D01*
X1073630Y4922720D01*
Y5041350D01*
X1076110Y5043830D01*
X1097790D01*
X1116470Y5062510D01*
Y5081820D01*
G03X1111440Y5093960I-17165J0D01*
G01X1095850Y5109550D01*
X1073630D01*
Y5131380D01*
X1057330Y5147690D01*
G02X1056700Y5161360I7182J7181D01*
G03X1003790Y5188800I-23461J19494D01*
G02X989550Y5182300I-9810J2643D01*
G03X984210Y5184300I-13320J-27437D01*
G02X979690Y5201290I2661J9804D01*
G01X1070220Y5291820D01*
G02X1087560Y5284640I7181J-7186D01*
G01Y5225640D01*
X1309820Y5003380D01*
G02X1308560Y4987940I-7182J-7185D01*
G03X1307290Y4986980I17750J-24802D01*
G02X1294590I-6350J7930D01*
G03Y4939340I-19050J-23820D01*
G02X1307290I6350J-7930D01*
G03X1351120Y4945380I19049J23820D01*
G02X1366560Y4946640I8255J-5922D01*
G01X1398320Y4914880D01*
X1426860D01*
X1428050Y4911480D01*
G03X1485630I28790J10080D01*
G01X1486820Y4914880D01*
X1587680D01*
X1588020Y4910170D01*
G03X1648860I30420J2190D01*
G01X1649200Y4914880D01*
X1749660D01*
X1768320Y4933540D01*
Y5033080D01*
X1738360Y5063040D01*
X1583460D01*
X1523420Y5123080D01*
Y5275180D01*
X1437560Y5361030D01*
X1440060Y5364540D01*
G03X1397520Y5407080I-24820J17720D01*
G01X1394010Y5404580D01*
X1384010Y5414590D01*
G02X1391190Y5431930I7186J7181D01*
G01X1528860D01*
X1652600Y5308190D01*
Y5247080D01*
X1721960Y5177720D01*
X1820120D01*
X1889480Y5247080D01*
Y5421580D01*
X2001720Y5533820D01*
G02X2019060Y5526640I7181J-7186D01*
G01Y5507760D01*
X1940990Y5429690D01*
Y5305050D01*
X1942830Y5303210D01*
Y5278190D01*
G03X1945340Y5271510I10160J6D01*
G02X1946070Y5259090I-7654J-6681D01*
G03X1998620Y5228410I25171J-17231D01*
G02X2014920Y5231120I9119J-4476D01*
G01X2030450Y5215590D01*
Y5137470D01*
X1962630Y5069650D01*
Y5024610D01*
X1958510Y5023820D01*
G03X1952260Y4965810I5728J-29959D01*
G02X1958010Y4953570I-3988J-9344D01*
G03X1959010Y4933310I29230J-8712D01*
G02X1954510Y4920570I-9403J-3843D01*
G03X1938740Y4893490I14729J-26709D01*
G02X1926090Y4883520I-10158J-122D01*
G03X1916400Y4880850I-2499J-9851D01*
G01X1844530Y4808980D01*
Y4804420D01*
G02X1835860Y4800820I-5080J-5D01*
G37*
G36*
G01X1402540Y4925060D02*
X1361870Y4965730D01*
X1361660Y4967470D01*
G03X1330650Y4998480I-35320J-4310D01*
G01X1328910Y4998690D01*
X1097740Y5229860D01*
Y5405360D01*
X1114150Y5421770D01*
X1284480D01*
G02X1294040Y5408180I-1J-10158D01*
G03X1293650Y5407020I33527J-11918D01*
G02X1279280Y5401110I-9676J3101D01*
G03X1296720Y5358690I-16439J-31554D01*
G02X1311090Y5364600I9676J-3101D01*
G03X1363110Y5396470I16442J31552D01*
G02X1380450Y5403750I10159J94D01*
G01X1384200Y5400000D01*
X1382770Y5396810D01*
G03X1429790Y5349790I32470J-14550D01*
G01X1432980Y5351220D01*
X1513240Y5270960D01*
Y5175840D01*
X1513030Y5175120D01*
G03Y5157600I29210J-8760D01*
G01X1513240Y5156880D01*
Y5118860D01*
X1579240Y5052860D01*
X1734140D01*
X1758140Y5028860D01*
Y4937760D01*
X1745440Y4925060D01*
X1651830D01*
X1650440Y4927920D01*
G03X1586440I-32000J-15560D01*
G01X1585050Y4925060D01*
X1492480D01*
X1491620Y4929070D01*
G03X1422060I-34780J-7510D01*
G01X1421200Y4925060D01*
X1402540D01*
G37*
G36*
G01X2197200Y1641360D02*
X2148550Y1690010D01*
X1934600D01*
X1930360Y1694250D01*
X1465250D01*
X1428760Y1657760D01*
X1426270Y1658090D01*
G03X1422730Y1658360I-4086J-30226D01*
G02X1412740Y1668350I164J10154D01*
G03X1412100Y1674090I-30498J-495D01*
G01X1411540Y1676780D01*
X1497310Y1762550D01*
X1727320D01*
G02X1736970Y1749220I-2J-10160D01*
G03X1793170Y1725950I28979J-9512D01*
G02X1809420Y1728550I9067J-4587D01*
G01X1825600Y1712360D01*
X2133520D01*
X2151490Y1730330D01*
X2204370D01*
G02X2213980Y1716850I6J-10161D01*
G03X2262990Y1684020I28823J-9968D01*
G02X2276430I6720J-7621D01*
G03X2325440Y1716850I20187J22862D01*
G02X2335050Y1730330I9604J3319D01*
G01X2453040D01*
X2467290Y1716080D01*
Y1683120D01*
X2498540Y1651870D01*
X2533840D01*
X2534540Y1651660D01*
G03X2535570Y1651390I4705J15848D01*
G01X2539520Y1650490D01*
Y1641360D01*
X2197200D01*
G37*
G36*
G01X1746190Y5236180D02*
X1711060Y5271310D01*
Y5332420D01*
X1564260Y5479220D01*
G02X1571440Y5496560I7186J7181D01*
G01X1857250D01*
G02X1864430Y5479220I-6J-10159D01*
G01X1831020Y5445810D01*
Y5271310D01*
X1795890Y5236180D01*
X1746190D01*
G37*
G36*
G01X1823010Y1334210D02*
G02X1815820Y1351550I-3J10159D01*
G01X1859060Y1394790D01*
X2110770D01*
G02X2120580Y1381970I3J-10161D01*
G03X2128510Y1351470I30661J-8309D01*
G02X2121240Y1334210I-7270J-7099D01*
G01X1823010D01*
G37*
G36*
G01X1939880Y1629180D02*
G03X1940630Y1644680I-29089J9176D01*
G02X1950560Y1656950I9936J2112D01*
G01X2134850D01*
X2158500Y1633300D01*
G02X2151320Y1615960I-7186J-7181D01*
G01X1949570D01*
G02X1939880Y1629180I-3J10159D01*
G37*
G36*
G01X2242950Y3510460D02*
X2322020D01*
X2417780Y3606220D01*
Y3665310D01*
G02X2433360Y3673900I10160J-3D01*
G01X2513840D01*
G03X2546180Y3687300I-5J45738D01*
G01X2570300Y3711410D01*
X2589690Y3731570D01*
Y3740500D01*
X2593370Y3741560D01*
G03X2603550Y3746600I-8778J30532D01*
G02X2616460Y3745960I6067J-8151D01*
G03X2657400Y3794490I21412J23471D01*
G02X2654870Y3807630I6242J8015D01*
G03X2650200Y3845830I-27430J16032D01*
G02X2650290Y3860100I7275J7089D01*
G01X2684320Y3894130D01*
Y4099170D01*
X2601180Y4182310D01*
G02X2599690Y4185910I3590J3594D01*
G01X2615360D01*
X2662390Y4232940D01*
Y4249660D01*
G02X2668720Y4250950I5089J-8794D01*
G03X2691400Y4256860I3894J31531D01*
G02X2704300Y4256130I6007J-8191D01*
G03X2707080Y4305080I21569J23329D01*
G02X2694180Y4305810I-6007J8191D01*
G03X2668720Y4314010I-21565J-23331D01*
G02X2662390Y4315300I-1241J10084D01*
G01Y4414300D01*
G02X2670270Y4415270I5083J-8796D01*
G03Y4476370I8740J30550D01*
G02X2662390Y4477340I-2797J9766D01*
G01Y4493930D01*
X2662950D01*
X2663480Y4493820D01*
G03X2699840Y4536400I6760J31042D01*
G01X2698630Y4539490D01*
X2700970Y4541830D01*
X2711470Y4531320D01*
X2754870D01*
G03X2770150Y4536420I-1J25442D01*
G01X2808910D01*
G03X2824190Y4531320I15281J20342D01*
G01X2837090D01*
G02X2835470Y4519080I-8807J-5062D01*
G01X2826020Y4509630D01*
Y4481850D01*
X2822310Y4480810D01*
G03Y4419630I8560J-30590D01*
G01X2826020Y4418590D01*
Y4407540D01*
X2825280Y4406800D01*
Y4335220D01*
X2826200Y4334300D01*
Y4234870D01*
G02X2810220Y4226540I-10161J-1D01*
G03X2767900Y4179830I-18183J-26052D01*
G02X2768140Y4166910I-7717J-6606D01*
G03X2766910Y4165250I24898J-19735D01*
G02X2754410Y4161760I-8352J5785D01*
G03X2767550Y4114660I-12970J-29001D01*
G02X2780050Y4118150I8352J-5785D01*
G03X2817160Y4167810I12973J29001D01*
G02X2816920Y4180730I7717J6606D01*
G03X2822180Y4190440I-24881J19758D01*
G02X2839000Y4194410I9637J-3213D01*
G01X2905500Y4127910D01*
Y4078390D01*
X2905360Y4078250D01*
Y4075090D01*
X2901340Y4074240D01*
G03Y4012080I6600J-31080D01*
G01X2905360Y4011230D01*
Y3966170D01*
X2827860Y3888670D01*
Y3576140D01*
X2840200Y3563800D01*
X2838350Y3560450D01*
G03X2881530Y3517270I27790J-15390D01*
G01X2884880Y3519120D01*
X2955500Y3448500D01*
Y3016760D01*
G02X2942530Y3007000I-10161J4D01*
G03Y2945940I-8780J-30530D01*
G02X2955500Y2936180I2809J-9764D01*
G01Y2880900D01*
X3308360Y2528040D01*
Y2070120D01*
X2719070D01*
X2637860Y1988910D01*
X2635640Y1989000D01*
G03X2607220Y1972280I-1198J-30478D01*
G02X2590970Y1969680I-9067J4587D01*
G01X2545870Y2014790D01*
Y2056190D01*
G02X2563380Y2063200I10160J-5D01*
G03X2605240Y2107460I22063J21059D01*
G02X2605140Y2122820I6600J7723D01*
G03X2605210Y2168630I-20102J22936D01*
G02X2604790Y2183480I6723J7621D01*
G03X2562850Y2227760I-21453J21683D01*
G02X2545870Y2235280I-6822J7526D01*
G01Y2413180D01*
G02X2563560Y2420000I10160J0D01*
G03Y2460920I22620J20460D01*
G02X2545870Y2467740I-7530J6820D01*
G01Y2855110D01*
X2565770Y2875010D01*
Y2936170D01*
X2536050Y2965890D01*
X2535410D01*
G02X2531820Y2974560I0J5078D01*
G01X2645950Y3088700D01*
Y3311920D01*
G02X2656770Y3322060I10161J1D01*
G03X2628560Y3363380I2069J31702D01*
G02X2611700Y3359280I-9678J3084D01*
G01X2512400Y3458570D01*
X2271400D01*
X2084400Y3645570D01*
X1954130D01*
X1825610Y3774100D01*
G02X1832790Y3791440I7184J7182D01*
G01X1865010D01*
X1876120Y3802550D01*
X1879560Y3800350D01*
G03X1904240Y3793120I24680J38508D01*
G01X1977190D01*
X1995960Y3811890D01*
G02X2012620Y3808380I7187J-7181D01*
G03X2023240Y3794400I29622J11479D01*
G02X2025340Y3780220I-6072J-8145D01*
G03X2075750Y3741550I25570J-18860D01*
G02X2088670Y3744070I7942J-6337D01*
G03X2115090Y3741900I15573J27690D01*
G01X2116820Y3742210D01*
X2121370Y3739390D01*
G03X2160850Y3715490I38654J19293D01*
G02X2171200Y3705330I190J-10159D01*
G01Y3582210D01*
X2242950Y3510460D01*
G37*
G36*
G01X2010080Y4653280D02*
G02X1993730Y4656060I-7190J7181D01*
G03X1991460Y4660020I-27521J-13146D01*
G02X1994850Y4667890I4200J2856D01*
G03X2009150Y4721740I-4850J30112D01*
G03X1986860Y4769370I-25148J17262D01*
G02X1980630Y4786660I955J10111D01*
G01X2014400Y4820440D01*
G02X2031740Y4813150I7181J-7187D01*
G03X2086590Y4794490I30500J-292D01*
G02X2100080Y4796990I8110J-6117D01*
G03X2091890Y4841230I16159J25870D01*
G02X2078400Y4838730I-8110J6117D01*
G03X2061950Y4843360I-16158J-25870D01*
G02X2054660Y4860700I-103J10159D01*
G01X2091460Y4897500D01*
Y4984360D01*
X2100990Y4993890D01*
Y5251830D01*
G03X2098940Y5257950I-10160J0D01*
G02X2099110Y5270390I8115J6110D01*
G03X2048020Y5303150I-23877J18981D01*
G02X2031770Y5300550I-9066J4583D01*
G01X2002000Y5330320D01*
Y5338310D01*
X2007530Y5343840D01*
Y5354930D01*
G02X2019480Y5364940I10161J7D01*
G03X2039350Y5368130I5371J30022D01*
G02X2052440Y5365110I4831J-8937D01*
G03X2100070Y5403080I24800J17750D01*
G02X2099250Y5415500I7605J6739D01*
G03X2100990Y5421180I-8418J5685D01*
G01Y5519690D01*
X2095200Y5525470D01*
X2098550Y5529060D01*
G03X2104600Y5561090I-22309J20800D01*
G02X2109840Y5574090I9443J3750D01*
G03X2126200Y5592290I-12596J27776D01*
G02X2143030Y5596290I9647J-3184D01*
G01X2160710Y5578610D01*
Y5380390D01*
X2154340Y5374020D01*
Y5221010D01*
X2185650Y5189700D01*
X2331610D01*
G02X2341260Y5176370I-2J-10160D01*
G03X2351560Y5142750I28980J-9509D01*
G02X2354060Y5129510I-6222J-8031D01*
G03X2349870Y5116730I26176J-15659D01*
G01X2349700Y5114910D01*
X2218250Y4983450D01*
Y4856450D01*
X2214500Y4855430D01*
G03X2194600Y4813670I7998J-29433D01*
G02X2187090Y4799560I-9291J-4108D01*
G03X2166280Y4753810I5329J-30032D01*
G03X2161140Y4724530I23661J-19245D01*
G02X2151540Y4711030I-9596J-3339D01*
G01X2067830D01*
X2010080Y4653280D01*
G37*
G36*
G01X2413240Y5563760D02*
G02X2395900Y5556580I-10159J6D01*
G01X2325200Y5627280D01*
Y5644550D01*
G02X2338530Y5654200I10160J-2D01*
G03Y5712160I9510J28980D01*
G02X2325200Y5721810I-3170J9652D01*
G01Y5736900D01*
X2249340Y5812760D01*
X2173950D01*
X2163300Y5802110D01*
X2160810Y5802440D01*
G03X2126280Y5772460I-4032J-30232D01*
G02X2116120Y5762390I-10159J89D01*
G01X2003930D01*
X1950620Y5709080D01*
Y5651590D01*
G02X1938120Y5641700I-10160J-3D01*
G03X1915570Y5638270I-7021J-29680D01*
G02X1900240Y5647020I-5170J8746D01*
G01Y5666860D01*
X1899410Y5668860D01*
X1852240D01*
Y6016860D01*
X1853240Y6017860D01*
X2448240D01*
Y5666860D01*
X2413240D01*
Y5563760D01*
G37*
G36*
G01X4056760Y692080D02*
X4056320Y691640D01*
X4056260Y21010D01*
X2366540D01*
G02X2358470Y37340I3J10161D01*
G03X2350770Y81490I-24231J18520D01*
G01Y185720D01*
X2218780Y317710D01*
Y411490D01*
X2134470Y495790D01*
G02X2141030Y513120I7184J7187D01*
G03X2149720Y514960I-1905J30437D01*
G02X2163410Y505430I3528J-9529D01*
G01Y497300D01*
X2463880Y196830D01*
X2684390D01*
X2763530Y117690D01*
G02X2758250Y100520I-7180J-7189D01*
G03X2789710Y54250I5688J-29963D01*
G02X2805380Y56090I8582J-5439D01*
G03X2822610Y108190I21260J21868D01*
G01X2820120Y107860D01*
X2719300Y208680D01*
G02X2726480Y226020I7186J7181D01*
G01X2928370D01*
X2973170Y181220D01*
X3385190D01*
X3494700Y290730D01*
X3867600D01*
X3874230Y297360D01*
X3875710D01*
X3909950Y331600D01*
X3913310Y329700D01*
G03X3881080Y361930I41930J74160D01*
G01X3882980Y358570D01*
X3859910Y335500D01*
X3858430D01*
X3851800Y328870D01*
X3771160D01*
G02X3763710Y345940I-2J10160D01*
G03X3724870Y485710I-62470J57922D01*
G02X3720510Y502650I2824J9758D01*
G01X3856650Y638790D01*
X3872120D01*
X3873160Y635070D01*
G03Y680650I82080J22790D01*
G01X3872120Y676930D01*
X3840850D01*
X3803070Y639150D01*
G02X3785810Y647570I-7177J7189D01*
G03X3619160Y680650I-84566J10287D01*
G01X3618120Y676930D01*
X3578940D01*
X3457140Y555130D01*
X3443000D01*
G02X3435810Y572470I-3J10159D01*
G01X3482890Y619550D01*
Y699870D01*
X3581750Y798730D01*
X3748110D01*
X3842170Y892790D01*
X3872120D01*
X3873160Y889070D01*
G03Y934650I82080J22790D01*
G01X3872120Y930930D01*
X3826370D01*
X3803710Y908270D01*
G02X3786370Y915070I-7188J7180D01*
G03X3619160Y934650I-85128J-3215D01*
G01X3618120Y930930D01*
X3595740D01*
X3419350Y754540D01*
Y645880D01*
X3382700Y609230D01*
X3289940D01*
G02X3280270Y622510I-1J10160D01*
G03X3274700Y651340I-29030J9344D01*
G02X3275950Y665590I7818J6494D01*
G03X3255520Y719350I-19713J23270D01*
G02X3245780Y733090I-235J10156D01*
G03X3218120Y774350I-28538J10770D01*
G02X3211240Y791690I301J10154D01*
G01X3438840Y1019290D01*
X3811840D01*
X3896610Y1104060D01*
G03X3874220Y1139530I58625J61808D01*
G01X3875180Y1136570D01*
X3796040Y1057430D01*
X3644310D01*
G02X3637120Y1074770I-3J10159D01*
G01X3655950Y1093600D01*
X3659310Y1091700D01*
G03X3627080Y1123930I41930J74160D01*
G01X3628980Y1120570D01*
X3623500Y1115090D01*
G02X3606500Y1119660I-7182J7186D01*
G03X3547490Y1104200I-29473J-7851D01*
G02X3537660Y1091510I-9838J-2532D01*
G01X3434510D01*
Y1282720D01*
X3527180Y1375390D01*
X3585710D01*
X3654370Y1306730D01*
X3748110D01*
X3842170Y1400790D01*
X3872120D01*
X3873160Y1397070D01*
G03Y1442650I82080J22790D01*
G01X3872120Y1438930D01*
X3826370D01*
X3803710Y1416270D01*
G02X3786370Y1423070I-7188J7180D01*
G03X3619160Y1442650I-85128J-3215D01*
G01X3618120Y1438930D01*
X3500840D01*
X3493820Y1431910D01*
G02X3476480Y1439370I-7185J7182D01*
G03X3424260Y1461610I-30488J839D01*
G02X3410660Y1460830I-7232J7134D01*
G03X3383760Y1466550I-19113J-23771D01*
G02X3371010Y1476370I-2590J9824D01*
G01Y1480700D01*
X3532400Y1642090D01*
X3605970D01*
G03X3797350Y1644710I95273J31770D01*
G02X3814250Y1648950I9721J-2948D01*
G01X3821110Y1642090D01*
X3859970D01*
G03X4038210Y1617270I95272J31770D01*
G02X4056760Y1611540I8391J-5728D01*
G01Y692080D01*
G37*
G36*
G01X2999500Y244760D02*
X2949230Y295030D01*
X2490050D01*
X2295960Y489120D01*
G02X2302420Y506440I7183J7186D01*
G03X2283460Y562330I-2180J30422D01*
G02X2267710Y570810I-5591J8483D01*
G01Y1063830D01*
X2181340Y1150200D01*
G02X2188530Y1167540I7187J7181D01*
G01X2327680D01*
X2391470Y1103750D01*
Y762920D01*
X2394070Y760320D01*
Y757910D01*
X2554940Y597040D01*
G02X2551380Y580360I-7181J-7187D01*
G03X2590740Y541000I10860J-28500D01*
G02X2607420Y544560I9493J-3621D01*
G01X2705790Y446190D01*
X2965410D01*
G02X2973040Y429310I7J-10161D01*
G03X2969390Y394100I22880J-20166D01*
G02X2966080Y380550I-8832J-5022D01*
G03X3023510Y378370I27162J-41990D01*
G02X3021230Y392130I6148J8088D01*
G03X3009320Y436550I-25310J17021D01*
G01X3006480Y437940D01*
Y446190D01*
X3022170D01*
X3039120Y429240D01*
X3225440D01*
X3287790Y491590D01*
X3483470D01*
X3483570Y491690D01*
X3645930D01*
G02X3651830Y473250I7J-10162D01*
G03X3619160Y426650I49411J-69392D01*
G01X3618120Y422930D01*
X3537030D01*
X3459040Y344940D01*
G02X3441960Y349840I-7181J7187D01*
G03X3381960Y289840I-48720J-11280D01*
G02X3386860Y272760I-2287J-9899D01*
G01X3358860Y244760D01*
X2999500D01*
G37*
G36*
G01X2487410Y2098920D02*
Y1990560D01*
X2600750Y1877220D01*
X2645040D01*
G02X2648630Y1868550I-2J-5079D01*
G01X2645900Y1865820D01*
X2254310D01*
G02X2247130Y1883160I4J10158D01*
G01X2470070Y2106100D01*
G02X2487410Y2098920I7182J-7184D01*
G37*
G36*
G01X2506890Y3921350D02*
G03X2489950Y3874250I9947J-30174D01*
G01X2492120Y3870820D01*
X2467950Y3846660D01*
X2466230D01*
X2458680Y3854200D01*
G03X2455200Y3857350I-32395J-32291D01*
G02X2455430Y3865410I3203J3942D01*
G03X2409660Y3907610I-18579J25771D01*
G02X2396180Y3903900I-8696J5253D01*
G03X2383820Y3907530I-14947J-28037D01*
G02X2374480Y3917650I818J10125D01*
G01Y3923290D01*
X2377450Y3924640D01*
G03X2404220Y3966260I-18969J41620D01*
G01Y3971760D01*
X2432780Y4000320D01*
X2434690Y4000440D01*
G03X2441240Y4001340I-2935J45648D01*
G01X2443930Y4001910D01*
X2468170Y3977680D01*
G03X2500510Y3964280I32345J32338D01*
G01X2509960D01*
Y3951520D01*
G03X2513150Y3934730I45741J-7D01*
G02X2506890Y3921350I-9448J-3734D01*
G37*
G36*
G01X3344850Y4489800D02*
G02X3338060Y4507520I-1J10161D01*
G03X3311280Y4499880I-21224J23639D01*
G01X3315470Y4499140D01*
Y4489800D01*
X3308540D01*
G03X3278700Y4478730I0J-45753D01*
G02X3264780Y4479360I-6626J7700D01*
G03X3250550Y4489320I-32868J-31813D01*
G02X3248280Y4506490I4132J9281D01*
G03X3210480Y4504840I-20013J24671D01*
G02X3209730Y4487530I-5682J-8425D01*
G03X3186180Y4447540I22178J-39990D01*
G01Y4401250D01*
G02X3173910Y4391310I-10160J-1D01*
G03X3187040Y4335320I-6583J-31078D01*
G02X3193790Y4334930I3156J-3985D01*
G01X3385110Y4143600D01*
X3379740Y4138240D01*
X3283750D01*
X3199970Y4054460D01*
G02X3183140Y4058450I-7185J7184D01*
G03X3169740Y4075470I-30165J-9964D01*
G02X3170340Y4093070I5365J8627D01*
G03X3155550Y4152910I-14880J28070D01*
G01X3150480Y4157990D01*
Y4307690D01*
X3083330Y4374840D01*
X3117280Y4408790D01*
Y4445060D01*
G03X3025930Y4448550I-45742J0D01*
G01X3025790Y4446680D01*
X2961890Y4382770D01*
X2959890Y4382700D01*
G03X2951580Y4381260I1221J-31746D01*
G02X2939600Y4386120I-3042J9697D01*
G03X2921070Y4401350I-27943J-15110D01*
G01X2917500Y4402460D01*
Y4471730D01*
X2943900Y4498140D01*
G03X2950210Y4506030I-32345J32336D01*
G02X2966830Y4506820I8587J-5434D01*
G03X2968990Y4548250I25110J19462D01*
G02X2952550Y4550770I-7335J7030D01*
G03X2913000Y4576200I-40995J-20287D01*
G02X2903500Y4583730I315J10155D01*
G01X2974350Y4654580D01*
Y4756120D01*
X2963680Y4766780D01*
X2965680Y4768780D01*
X2968430Y4768150D01*
G03X2995330Y4774850I6884J29712D01*
G02X3011810Y4769860I6676J-7659D01*
G03X3021220Y4800870I29431J8002D01*
G02X3004740Y4805860I-6676J7659D01*
G03X2945600Y4790980I-29429J-8000D01*
G01X2946230Y4788230D01*
X2944230Y4786230D01*
X2940020Y4790450D01*
X2673380D01*
X2664860Y4781930D01*
G02X2657320Y4791740I2619J9816D01*
G01Y4827680D01*
X2600560Y4884440D01*
X2503220D01*
X2459160Y4840380D01*
Y4564290D01*
G02X2444940Y4554980I-10160J4D01*
G03X2400550Y4523610I-12700J-29121D01*
G01X2400710Y4521300D01*
X2385340Y4505930D01*
X2382900D01*
G02X2377820Y4511010I1J5081D01*
G01X2378540Y4513610D01*
G03X2321230Y4519430I-27300J16250D01*
G02X2311640Y4505930I-9594J-3341D01*
G01X2241800D01*
G02X2234620Y4523270I7J10159D01*
G01X2338310Y4626960D01*
Y4851420D01*
X2480020Y4993130D01*
X2661780D01*
G03X2712800Y4998440I23801J19071D01*
G02X2729050Y5001030I9063J-4590D01*
G01X2764100Y4965980D01*
X2889700D01*
G02X2896830Y4948580I1J-10160D01*
G03X2939650I21410J-21720D01*
G02X2946780Y4965980I7129J7240D01*
G01X2969720D01*
X3055120Y5051380D01*
Y5208690D01*
G03X3056850Y5210840I-22874J20177D01*
G01X3060950Y5212920D01*
X3064560Y5211410D01*
G03X3064310Y5254050I21682J21448D01*
G02X3050810Y5253050I-7310J7060D01*
G03X3016840Y5255180I-18569J-24192D01*
G02X3003340Y5258180I-5134J8771D01*
G03X2992010Y5268080I-25114J-17308D01*
G02X2989410Y5284330I4583J9066D01*
G01X3007210Y5302130D01*
Y5357050D01*
G03X3013830Y5363170I-17168J25211D01*
G02X3029590Y5363270I7921J-6359D01*
G03X3029340Y5401760I23539J19399D01*
G02X3013580Y5401660I-7921J6359D01*
G03X2972870Y5357050I-23534J-19404D01*
G01Y5316350D01*
X2914790Y5258270D01*
G02X2900140Y5258560I-7186J7183D01*
G03X2893550Y5211770I-22399J-20704D01*
G02X2908970Y5203090I5262J-8688D01*
G01Y5193970D01*
G03X2905400Y5146400I17170J-25208D01*
G02X2906670Y5132930I-6913J-7447D01*
G03X2905900Y5131840I24521J-18139D01*
G01X2901680Y5129590D01*
X2897910Y5131270D01*
G03X2849610Y5127390I-22666J-20409D01*
G01X2829010D01*
X2824560Y5122940D01*
X2607540D01*
X2469000Y5261510D01*
Y5483480D01*
X2464590Y5487890D01*
G02X2468180Y5496560I3592J3591D01*
G01X3078940D01*
Y5501290D01*
X3530490D01*
Y5666390D01*
X3479690D01*
Y6016120D01*
X4056800D01*
X4056780Y5716020D01*
X4056760Y5471160D01*
Y4395800D01*
G02X4039000Y4389060I-10159J0D01*
G03X4025780Y4397760I-22803J-20255D01*
G02X4021120Y4413850I3195J9645D01*
G03X3875980Y4499090I-65881J54010D01*
G01X3871250Y4495870D01*
G02X3867660Y4497360I4J5080D01*
G01X3864310Y4500710D01*
Y4554490D01*
G02X3877000Y4564320I10158J-8D01*
G03X3899310Y4620580I7610J29536D01*
G02X3897020Y4636670I4894J8904D01*
G01X3909950Y4649600D01*
X3913310Y4647700D01*
G03X3903960Y4789890I41928J74160D01*
G02X3887730Y4797090I-6113J8112D01*
G03X3878650Y4816180I-30377J-2744D01*
G02X3880980Y4832440I7088J7281D01*
G03X3836480Y4855360I-14270J26953D01*
G01X3836810Y4852870D01*
X3787710Y4803770D01*
Y4779030D01*
G02X3769420Y4772940I-10159J0D01*
G03X3681910Y4638890I-68178J-51081D01*
G02X3688990Y4625090I-2301J-9896D01*
G03X3726650Y4584380I28153J-11731D01*
G02X3739980Y4574730I3170J-9652D01*
G01Y4558820D01*
G02X3726780Y4549130I-10160J5D01*
G03X3745310Y4394950I-25539J-81273D01*
G01X3748710Y4397010D01*
X3782250Y4363470D01*
Y4277670D01*
G02X3764540Y4270870I-10160J0D01*
G03X3641510Y4274600I-63300J-57011D01*
G02X3627200Y4274660I-7125J7246D01*
G01X3503120Y4398740D01*
G03X3502710Y4399160I-32930J-31736D01*
G01X3501180Y4402800D01*
X3502530Y4406250D01*
G03X3508590Y4415690I-23287J21614D01*
G02X3520790Y4421560I9385J-3893D01*
G03X3501490Y4463510I8451J29303D01*
G02X3489090Y4458060I-9248J4211D01*
G03X3450980Y4413340I-9851J-30203D01*
G01X3451540Y4411020D01*
X3448890Y4406560D01*
G03X3445570Y4404560I21920J-40143D01*
G01X3442110Y4402280D01*
X3354590Y4489800D01*
X3344850D01*
G37*
G36*
G01X2205510Y5380990D02*
G02X2193770Y5391030I-1580J10036D01*
G01Y5592310D01*
X2114690Y5671390D01*
X2106870D01*
G03X2071580Y5683790I-25632J-16530D01*
G02X2059260Y5688920I-3216J9636D01*
G03X2059130Y5689180I-27348J-13511D01*
G02X2068190Y5703930I9061J4592D01*
G01X2110070D01*
X2221500Y5592500D01*
X2242270D01*
G02X2249760Y5575470I4J-10160D01*
G03X2281060Y5584060I22485J-20609D01*
G02X2276810Y5600970I2936J9727D01*
G01X2290780Y5614940D01*
X2328860Y5576860D01*
G02X2326840Y5560930I-7184J-7182D01*
G03X2368610Y5519160I15500J-26270D01*
G02X2384540Y5521180I8748J-5164D01*
G01X2435940Y5469780D01*
Y5394480D01*
G02X2418600Y5387300I-10159J6D01*
G01X2401740Y5404160D01*
G02X2405000Y5420720I7180J7187D01*
G03X2365100Y5460620I-11760J28140D01*
G02X2349630Y5456410I-9374J3919D01*
G01X2283430D01*
X2208380Y5381350D01*
X2206630Y5381150D01*
G03X2205510Y5380990I3753J-30270D01*
G37*
G36*
G01X2674170Y1099790D02*
Y805340D01*
X2690640Y788880D01*
G02X2687650Y772440I-7186J-7185D01*
G03X2728020Y732070I12590J-27780D01*
G02X2744460Y735060I9255J-4196D01*
G01X2830430Y649080D01*
X2954230D01*
G02X2961420Y631740I3J-10159D01*
G01X2941010Y611330D01*
X2825990D01*
G02X2816210Y624230I3J10159D01*
G03X2759270Y645500I-29369J8229D01*
G02X2742900Y642670I-9182J4350D01*
G01X2625010Y760560D01*
Y819970D01*
X2624300Y820680D01*
Y972560D01*
X2625010Y973270D01*
Y1124420D01*
G02X2642350Y1131610I10159J3D01*
G01X2674170Y1099790D01*
G37*
G36*
G01X2510830Y766950D02*
X2484600Y793180D01*
Y1127800D01*
G02X2501940Y1134990I10159J3D01*
G01X2528170Y1108760D01*
Y774140D01*
G02X2510830Y766950I-10159J-3D01*
G37*
G36*
G01X2910200Y1003050D02*
G02X2896960Y1003110I-6585J7737D01*
G03X2865260Y1009600I-21628J-24979D01*
G02X2852010Y1019280I-3091J9677D01*
G01Y1127010D01*
G02X2869370Y1134180I10160J0D01*
G03X2861930Y1164990I21610J21522D01*
G01X2860800Y1161450D01*
X2852010D01*
Y1173480D01*
X2851610Y1173880D01*
Y1187240D01*
X2803260Y1235590D01*
X2803250D01*
X2773510Y1265330D01*
X2773500D01*
X2728210Y1310610D01*
G02X2728980Y1325670I7187J7182D01*
G03X2708120Y1384320I-20878J25609D01*
G02X2697960Y1394480I0J10160D01*
G01Y1399640D01*
X2532040Y1565560D01*
G02X2539230Y1582900I7187J7180D01*
G01X2611870D01*
X2957000Y1237770D01*
Y1050840D01*
X2953990Y1049500D01*
G03X2935910Y1020930I12411J-27860D01*
G02X2927130Y1010630I-10159J-233D01*
G03X2910200Y1003050I4492J-32730D01*
G37*
G36*
G01X3008380Y1035490D02*
G02X2992500Y1037420I-7184J7184D01*
G03X2990060Y1040890I-26109J-15767D01*
G01Y1251470D01*
X2712390Y1529140D01*
G02X2717970Y1546360I7180J7187D01*
G03X2738990Y1592730I-4790J30121D01*
G02X2747590Y1608300I8600J5410D01*
G01X2875190D01*
X2922910Y1560580D01*
X3125140D01*
X3170340Y1515380D01*
X3170010Y1512890D01*
G03X3196210Y1539090I30230J-4030D01*
G01X3193720Y1538760D01*
X3138840Y1593640D01*
X2984700D01*
G02X2975050Y1606970I2J10160D01*
G03X2970500Y1634740I-28980J9510D01*
G02X2978640Y1650980I8139J6080D01*
G01X3113750D01*
X3182840Y1720070D01*
X3183600Y1720440D01*
G03X3190200Y1770920I-13360J27418D01*
G02X3189660Y1785790I6647J7686D01*
G01X3221150Y1817270D01*
X3746780D01*
G03X3754820Y1808930I25578J16613D01*
G01X3751900Y1799690D01*
X3528290D01*
X3305030Y1576430D01*
X3305020D01*
X3256670Y1528080D01*
Y1311940D01*
G02X3242350Y1302680I-10158J6D01*
G03X3206240Y1296680I-13546J-30138D01*
G02X3192380Y1296670I-6935J7426D01*
G03X3147750Y1297030I-22512J-24181D01*
G02X3134130Y1297040I-6804J7545D01*
G03X3134080Y1248000I-22170J-24497D01*
G02X3147700Y1247990I6804J-7545D01*
G03X3192430Y1248350I22169J24499D01*
G02X3206290Y1248360I6935J-7426D01*
G03X3206320Y1248330I23360J23330D01*
G02X3206590Y1233700I-6914J-7445D01*
G01X3008380Y1035490D01*
G37*
G36*
G01X2749270Y1757700D02*
G02X2739620Y1771030I2J10160D01*
G03X2718580Y1809990I-28980J9511D01*
G02X2714050Y1826980I2652J9806D01*
G01X2731090Y1844020D01*
X2988660D01*
X2995190Y1837490D01*
G02X2991600Y1828820I-3592J-3591D01*
G01X2982730D01*
X2957390Y1803480D01*
X2939710D01*
X2893930Y1757700D01*
X2749270D01*
G37*
G36*
G01X2541840Y4206620D02*
X2501970Y4206630D01*
X2469340Y4239260D01*
Y4836160D01*
X2507440Y4874260D01*
X2596340D01*
X2647140Y4823460D01*
Y4778590D01*
X2641580Y4773030D01*
Y4586870D01*
X2647140Y4581310D01*
Y4546670D01*
G03Y4503050I23100J-21810D01*
G01Y4301470D01*
G03Y4263490I25470J-18990D01*
G01Y4239260D01*
X2609040Y4201160D01*
X2579590D01*
G03X2557920Y4206620I-21670J-40273D01*
G01X2541840D01*
G37*
G36*
G01X2717800Y4546600D02*
X2667000Y4597400D01*
Y4762500D01*
X2679700Y4775200D01*
X2933700D01*
X2959100Y4749800D01*
Y4660900D01*
X2844800Y4546600D01*
X2824190D01*
G02X2815790Y4562480I0J10162D01*
G03X2763270I-26260J17870D01*
G02X2754870Y4546600I-8400J-5718D01*
G01X2717800D01*
G37*
G36*
G01X3065450Y492780D02*
X3048500Y509730D01*
X3025670D01*
G02X3018480Y527070I-3J10159D01*
G01X3037100Y545690D01*
X3227490D01*
G02X3234680Y528350I3J-10159D01*
G01X3199110Y492780D01*
X3065450D01*
G37*
G36*
G01X2914810Y712630D02*
G02X2905070Y725690I-2J10161D01*
G03X2898690Y754590I-29231J8701D01*
G02X2898570Y767920I7608J6734D01*
G03X2900280Y805340I-23191J19809D01*
G02X2908570Y821370I8293J5870D01*
G01X2955970D01*
X3353630Y1219030D01*
G02X3370970Y1211840I7180J-7187D01*
G01Y1113150D01*
X3086850Y829030D01*
G02X3070600Y831640I-7180J7187D01*
G03X3029620Y790660I-27220J-13760D01*
G02X3032230Y774410I-4577J-9070D01*
G01X2970450Y712630D01*
X2914810D01*
G37*
G36*
G01X3100050Y1684040D02*
X3012290D01*
G02X3005110Y1701380I6J10159D01*
G01X3074090Y1770360D01*
X3131500D01*
G02X3141180Y1757120I-2J-10160D01*
G03X3143660Y1732900I29060J-9261D01*
G01X3145550Y1729540D01*
X3100050Y1684040D01*
G37*
G36*
G01X3036030Y1882950D02*
X3012770Y1906210D01*
G02X3019950Y1923550I7186J7181D01*
G01X3148360D01*
G02X3155540Y1906210I-6J-10159D01*
G01X3132280Y1882950D01*
X3036030D01*
G37*
G36*
G01X3396900Y1956610D02*
G02X3389720Y1973950I6J10159D01*
G01X3518100Y2102330D01*
X3534610D01*
G03X3537920Y2098070I25645J16510D01*
G02X3535080Y2082080I-7430J-6927D01*
G03X3518610Y2050830I13762J-27218D01*
G01X3518940Y2048340D01*
X3514450Y2043850D01*
Y2041250D01*
X3429810Y1956610D01*
X3396900D01*
G37*
G36*
G01X3417180Y2096490D02*
G02X3399840Y2103680I-7181J7187D01*
G01Y2240000D01*
G02X3405230Y2245070I5081J-1D01*
G03X3408050Y2244980I2868J45648D01*
G01X3486050D01*
X3651650Y2410580D01*
Y2603050D01*
G02X3666010Y2612300I10161J-3D01*
G03Y2767420I35230J77560D01*
G02X3651650Y2776670I-4199J9253D01*
G01Y2857050D01*
G02X3666010Y2866300I10161J-3D01*
G03Y3021420I35230J77560D01*
G02X3651650Y3030670I-4199J9253D01*
G01Y3111050D01*
G02X3666010Y3120300I10161J-3D01*
G03X3765600Y3253670I35227J77563D01*
G02X3772010Y3270410I7675J6658D01*
G03X3798430Y3304700I-3811J30260D01*
G01X3798100Y3307190D01*
X3808830Y3317920D01*
G02X3826170Y3310740I7181J-7186D01*
G01Y2458330D01*
X3700570Y2332730D01*
X3653420D01*
X3417180Y2096490D01*
G37*
G36*
G01X3449320Y3692090D02*
G02X3436230Y3682370I-10158J6D01*
G03X3419610Y3682640I-8787J-29209D01*
G02X3406840Y3692460I-2611J9818D01*
G01Y3734440D01*
X3380740Y3760540D01*
Y3773080D01*
X3362050Y3791760D01*
G03X3330720Y3805150I-32347J-32338D01*
G02X3320780Y3815310I219J10157D01*
G01Y3829870D01*
X3271980Y3878670D01*
Y3936320D01*
G02X3289000Y3943820I10161J4D01*
G03X3308720Y3935540I21441J23441D01*
G01X3310660Y3935430D01*
X3328940Y3917160D01*
G02X3329500Y3903400I-7185J-7184D01*
G03X3346980Y3851820I24239J-20537D01*
G03X3424700Y3813720I45376J-5758D01*
G01X3431980Y3820990D01*
G02X3449320Y3813810I7181J-7185D01*
G01Y3692090D01*
G37*
G36*
G01X3847430Y1705630D02*
X3766980Y1786080D01*
G02X3773720Y1803410I7187J7180D01*
G03X3777950Y1863860I-1364J30468D01*
G02X3771450Y1879600I1871J9985D01*
G03X3721400Y2010630I-70207J48257D01*
G02X3716620Y2027680I2407J9870D01*
G01X3748750Y2059810D01*
X3751240Y2059480D01*
G03X3776980Y2068280I4038J30232D01*
G02X3791390Y2068330I7230J-7134D01*
G01X3884460Y1975270D01*
G03X3911170Y2000770I70784J-47405D01*
G01X3907770Y1998710D01*
X3811830Y2094650D01*
Y2227680D01*
X3747060Y2292450D01*
X3738760D01*
G02X3731570Y2309790I-3J10159D01*
G01X3864310Y2442530D01*
Y2639190D01*
G02X3883080Y2644590I10161J1D01*
G03Y2735130I72160J45270D01*
G02X3864310Y2740530I-8609J5399D01*
G01Y2893190D01*
G02X3883080Y2898590I10161J1D01*
G03X4026020Y2991270I72163J45272D01*
G01X4039420Y3004660D01*
G02X4056760Y2997480I7181J-7186D01*
G01Y1736180D01*
G02X4038210Y1730450I-10159J-2D01*
G03X3859970Y1705630I-82968J-56590D01*
G01X3847430D01*
G37*
%LPC*%
G75*
G36*
G01X1744350Y791440D02*
G03X1744090Y777470I7248J-7122D01*
G02X1699790Y778280I-22533J-20552D01*
G03X1700050Y792250I-7248J7122D01*
G02X1744350Y791440I22533J20552D01*
G37*
G36*
G01X775000Y487420D02*
G03X776680Y502130I-6071J8144D01*
G02X818180Y497410I23262J19729D01*
G03X816500Y482700I6071J-8144D01*
G02X775000Y487420I-23262J-19729D01*
G37*
G36*
G01X2232050Y63640D02*
G03X2224810Y63350I-3477J-3705D01*
G02X2179780Y63220I-22574J20510D01*
G03X2172590Y63510I-3740J-3438D01*
G02X2174300Y106500I-20750J22354D01*
G03X2181490Y106210I3740J3438D01*
G02X2223130Y106080I20750J-22351D01*
G03X2230370Y106370I3477J3705D01*
G02X2232050Y63640I22571J-20511D01*
G37*
G36*
G01X793820Y4729060D02*
G03X793960Y4735340I-3924J3229D01*
G02X837390Y4777480I24385J18319D01*
G03X850090I6350J7930D01*
G02X893520Y4735340I19045J-23821D01*
G03X893660Y4729060I4064J-3051D01*
G02X847240Y4685840I-24518J-20206D01*
G03X840240I-3500J-3677D01*
G02X793820Y4729060I-21902J23014D01*
G37*
G36*
G01X789540Y5306560D02*
G02X776610Y5271310I16100J-25902D01*
G03X761570Y5276830I-9674J-3109D01*
G02X774500Y5312080I-16100J25902D01*
G03X789540Y5306560I9674J3109D01*
G37*
G36*
G01X666570Y5231890D02*
G02X630390Y5224660I-13331J-27431D01*
G03X627210Y5240530I-7615J6728D01*
G02X663390Y5247760I13331J27431D01*
G03X666570Y5231890I7615J-6728D01*
G37*
G36*
G01X299030Y5136940D02*
G02X263400Y5137480I-18190J-24481D01*
G03X263650Y5153980I-5804J8340D01*
G02X262190Y5201780I18192J24478D01*
G03X261940Y5217520I-6550J7768D01*
G02X300490Y5218140I18895J23941D01*
G03X300740Y5202400I6550J-7768D01*
G02X299280Y5153440I-18900J-23938D01*
G03X299030Y5136940I5804J-8340D01*
G37*
G36*
G01X1029290Y3112010D02*
G03X1021200Y3122980I-10107J1015D01*
G02X1052240Y3184130I7043J34878D01*
G03X1059340Y3184360I3432J3745D01*
G02X1096380Y3126030I25702J-24604D01*
G03X1089620Y3114540I3229J-9633D01*
G02X1029290Y3112010I-29984J-5583D01*
G37*
G36*
G01X1632070Y4074140D02*
G02X1588890Y4031100I-20831J-22281D01*
G03X1575400Y4032350I-7443J-6911D01*
G02X1527890Y4048550I-18160J24508D01*
G03X1516400Y4055800I-9776J-2763D01*
G02X1499370Y4057760I-5168J30060D01*
G03X1486130Y4052520I-3953J-9358D01*
G02X1428240Y4070340I-27887J12347D01*
G03X1423350Y4076330I-5000J909D01*
G02X1421250Y4076450I689J30491D01*
G03X1415710Y4071170I-464J-5060D01*
G02X1370000Y4043440I-30471J-1310D01*
G03X1356260Y4039940I-5074J-8800D01*
G02X1313830Y4081570I-26016J15921D01*
G03X1317520Y4094540I-5463J8564D01*
G02X1375430Y4109830I27478J13238D01*
G03X1385490Y4100360I10136J689D01*
G02X1388040Y4100230I-277J-30499D01*
G03X1393580Y4105510I464J5060D01*
G02X1454520Y4105460I30471J1316D01*
G03X1463060Y4094980I10149J-450D01*
G02X1470110Y4092960I-4816J-30120D01*
G03X1483350Y4098200I3953J9358D01*
G02X1540590Y4094170I27893J-12339D01*
G03X1552080Y4086920I9776J2763D01*
G02X1579590Y4077620I5165J-30061D01*
G03X1593080Y4076370I7443J6911D01*
G02X1594610Y4077430I18128J-24531D01*
G03X1596010Y4093360I-5542J8514D01*
G02X1633470Y4090070I20831J22279D01*
G03X1632070Y4074140I5542J-8514D01*
G37*
G36*
G01X1154890Y4939340D02*
G03X1142190I-6350J-7930D01*
G02Y4986980I-19050J23820D01*
G03X1154890I6350J7930D01*
G02Y4939340I19050J-23820D01*
G37*
G36*
G01X1855450Y4985180D02*
G02X1855130Y4940840I20788J-22321D01*
G02X1855450Y4985180I-20788J22321D01*
G37*
G36*
G01X1456030Y5195170D02*
G02X1435560Y5167500I10009J-28811D01*
G03X1421370Y5177210I-10153J386D01*
G02X1375790Y5193220I-14133J32652D01*
G03X1369140Y5195440I-4489J-2376D01*
G02X1332470Y5199360I-15100J32219D01*
G03X1325720Y5198840I-3084J-4037D01*
G02X1321610Y5251760I-25681J24625D01*
G03X1328360Y5252280I3084J4037D01*
G02X1385490Y5244300I25683J-24622D01*
G03X1392140Y5242080I4489J2376D01*
G02X1442600Y5205900I15100J-32218D01*
G03X1456030Y5195170I10096J-1133D01*
G37*
G36*
G01X2734270Y2971680D02*
G02X2699560Y2970820I-16696J-27030D01*
G03X2699140Y2987830I-5761J8368D01*
G02X2687160Y3028520I16701J27026D01*
G03X2682970Y3041750I-9172J4374D01*
G02X2725890Y3056120I14969J26571D01*
G03X2730510Y3043040I9311J-4067D01*
G02X2733850Y2988690I-14671J-28179D01*
G03X2734270Y2971680I5761J-8368D01*
G37*
G36*
G01X2411480Y555550D02*
G02X2350740Y552080I-30241J-3990D01*
G03X2341720Y562350I-10156J176D01*
G02X2375640Y592140I3422J30310D01*
G03X2384660Y581870I10156J-176D01*
G02X2392260Y580000I-3427J-30308D01*
G03X2406000Y590800I3668J9474D01*
G02X2425220Y566350I30239J3991D01*
G03X2411480Y555550I-3668J-9474D01*
G37*
G36*
G01X3609790Y4898450D02*
G03X3618590Y4886170I9924J-2181D01*
G02X3585450Y4862410I-3354J-30314D01*
G03X3576650Y4874690I-9924J2181D01*
G02X3609790Y4898450I3354J30314D01*
G37*
G54D28*
X1283160Y717300D03*
X1387070Y754380D03*
X1339040Y853440D03*
X1886640Y620460D03*
X1912420Y753740D03*
X2113740Y302260D03*
X985240Y4754860D03*
X1778240Y2970860D03*
X2020240Y2972860D03*
X1774740Y3154680D03*
X1864740Y3208660D03*
X1367140Y4656460D03*
X1453340Y4658360D03*
X1288240D03*
X1567640D03*
X1661840Y4656160D03*
X1758140Y4658360D03*
X1909240Y5158860D03*
X2663650Y2491410D03*
X2702140Y2683560D03*
X2113740Y5864860D03*
X2649540Y70160D03*
X2748640Y363460D03*
X2644240Y358460D03*
X2705240Y5215360D03*
X2799540Y5217160D03*
X2748740Y5382260D03*
X3042240Y4864860D03*
X2903150Y5380820D03*
X3623240Y4596860D03*
X3536140Y5267960D03*
X3599640Y5179060D03*
X3755000Y4864000D03*
X4002430Y4852460D03*
G54D32*
X1125680Y2921000D03*
X975240Y4097860D03*
G54D33*
X2788240Y3276560D03*
X2783440Y3872960D03*
X2764740Y3977160D03*
X2756840Y4051170D03*
X2760140Y4365260D03*
X2877140Y3362260D03*
X3461240Y4512860D03*
X2516840Y4451170D03*
X2513840Y4363260D03*
X2599740Y4445230D03*
X2512240Y4530860D03*
X2583240Y4613860D03*
G54D29*
X1486360Y721360D03*
X3066240Y1509060D03*
G54D31*
X399240Y2943860D03*
G54D30*
Y1419860D03*
Y1165860D03*
X3955240Y4975860D03*
Y2181860D03*
G54D34*
X3695230Y5295860D03*
%LPD*%
G75*
G54D10*
X145240Y149860D03*
Y657860D03*
Y403860D03*
Y911860D03*
Y1165860D03*
Y1419860D03*
Y1673860D03*
Y2181860D03*
Y1927860D03*
Y2435860D03*
Y2943860D03*
Y2689860D03*
Y3197860D03*
Y3705860D03*
Y3451860D03*
Y4213860D03*
Y3959860D03*
Y4467860D03*
Y4975860D03*
Y4721860D03*
X399240Y149860D03*
Y657860D03*
Y403860D03*
Y911860D03*
Y1419860D03*
Y1165860D03*
Y1673860D03*
Y2181860D03*
Y1927860D03*
Y2435860D03*
Y2943860D03*
Y2689860D03*
Y3197860D03*
Y3705860D03*
Y3451860D03*
Y4213860D03*
Y3959860D03*
Y4467860D03*
Y4975860D03*
Y4721860D03*
X3701240Y149860D03*
Y657860D03*
Y403860D03*
Y911860D03*
Y1165860D03*
Y1419860D03*
Y1673860D03*
Y2181860D03*
Y1927860D03*
Y2435860D03*
Y2943860D03*
Y2689860D03*
Y3197860D03*
Y3705860D03*
Y3451860D03*
Y4213860D03*
Y3959860D03*
Y4467860D03*
Y4975860D03*
Y4721860D03*
X3955240Y149860D03*
Y657860D03*
Y403860D03*
Y911860D03*
Y1419860D03*
Y1165860D03*
Y1673860D03*
Y2181860D03*
Y1927860D03*
Y2435860D03*
Y2943860D03*
Y2689860D03*
Y3197860D03*
Y3705860D03*
Y3451860D03*
Y4213860D03*
Y3959860D03*
Y4467860D03*
Y4975860D03*
Y4721860D03*
G54D20*
X2993240Y338560D03*
X3393240D03*
G54D11*
X94740Y277960D03*
X71580Y523240D03*
Y787400D03*
Y1292860D03*
Y1038860D03*
Y1544320D03*
Y2049780D03*
Y1803400D03*
Y2560320D03*
Y2306320D03*
Y2816860D03*
Y3324860D03*
Y3068320D03*
Y3573780D03*
Y3830320D03*
Y4089400D03*
X75340Y5270960D03*
Y5146160D03*
X74540Y5664560D03*
Y5544860D03*
X75340Y5414560D03*
X274780Y347980D03*
X295100Y482600D03*
X198580Y523240D03*
X479240Y309060D03*
X201120Y787400D03*
X315420Y749300D03*
X203660Y1292860D03*
X201120Y1038860D03*
Y1541780D03*
Y2049780D03*
Y1800860D03*
Y2560320D03*
X198580Y2306320D03*
Y2816860D03*
Y3324860D03*
Y3070860D03*
X201120Y3573780D03*
X198580Y3827780D03*
X280840Y5241460D03*
X281840Y5178460D03*
X280840Y5112460D03*
X476040Y5987960D03*
X373140Y5987260D03*
X508740Y69760D03*
X800560Y71120D03*
X706580D03*
X607520D03*
X511000Y205740D03*
X579580Y160020D03*
X762460Y147320D03*
X593730Y228600D03*
X785320Y391160D03*
X724360Y408940D03*
X676100Y449580D03*
X658320Y548640D03*
X688800Y360680D03*
X611330Y472440D03*
Y360680D03*
X505920Y449580D03*
X762460Y279400D03*
X853140Y400460D03*
X793240Y462970D03*
X799940Y521860D03*
X750740Y984650D03*
X810720Y970430D03*
X750780Y928290D03*
Y848460D03*
X879300Y721360D03*
X823420Y718820D03*
X658320Y624840D03*
X611330Y683260D03*
X856440Y1386840D03*
X752300Y1343660D03*
X772570Y1118870D03*
X560050Y1781560D03*
X787860Y1473960D03*
X795480Y1690620D03*
X560070Y1922530D03*
X798020Y2062480D03*
X560020Y1975870D03*
X523700Y2056130D03*
X556690Y2181860D03*
X561800Y2095500D03*
X556340Y1869310D03*
X789360Y1935480D03*
X556240Y2288860D03*
X815670Y2371740D03*
X562590Y2540790D03*
X791090Y2451100D03*
X788600Y2506980D03*
X788340Y2284660D03*
X553240Y2374860D03*
X791090Y2896490D03*
Y2705100D03*
X562590Y2937030D03*
Y2738910D03*
Y2594130D03*
X796140Y2611460D03*
X791090Y3056480D03*
X562590Y2990370D03*
X795480Y3282360D03*
X772140Y3354460D03*
X595640Y3400160D03*
X818240Y4038860D03*
X831040Y3820160D03*
Y3769360D03*
X754840Y4061460D03*
X691340D03*
X767540Y4391660D03*
X704040D03*
X767540Y4455160D03*
X704040D03*
X577040Y4505960D03*
X516480Y4341620D03*
X869140Y4753660D03*
X818340D03*
Y4708860D03*
X869140D03*
X633240Y4851860D03*
X631820Y4921860D03*
X841240Y4849860D03*
X788240Y4840860D03*
X818340Y5052060D03*
X754840D03*
X640540Y5267960D03*
X653240Y5204460D03*
X555440Y4972060D03*
X526240Y5052060D03*
X745470Y5302730D03*
X805640Y5280660D03*
X662740Y5989560D03*
X569440D03*
X1190940Y135560D03*
X1191720Y210820D03*
Y71120D03*
X1059640D03*
X958040D03*
X973280Y215900D03*
X1036780Y528320D03*
X1105360D03*
X1176480D03*
X1239980D03*
X1133300Y391160D03*
X1057100D03*
X978360D03*
X1181560Y347980D03*
X1179020Y279400D03*
X921940Y395360D03*
X952590Y525610D03*
X1283160Y717300D03*
X1191720Y718820D03*
X963120Y1394990D03*
X1185840Y1093860D03*
X909780Y1384300D03*
X1240840Y1106060D03*
X1275540Y1386360D03*
X1266240Y1622860D03*
X909780Y1635760D03*
X1266740Y1456160D03*
X988520Y2021840D03*
X1257760Y2451100D03*
X984240Y2433860D03*
X1036870Y2569700D03*
X1113410Y2571860D03*
X947750Y2573160D03*
X950240Y2507860D03*
X1188220Y2794080D03*
X1121490Y2757310D03*
X1246140Y2719460D03*
X1188540Y2590960D03*
X1125680Y2921000D03*
X1044480Y3208900D03*
X1059640Y3108960D03*
X1085040Y3159760D03*
X1196340Y3170460D03*
X1028240Y3157860D03*
X1072340Y3515360D03*
X1065990Y3768630D03*
X1205240Y4126860D03*
X1089240D03*
X975240Y4097860D03*
X1123440Y4378660D03*
X1115240Y4274860D03*
X1065240Y4249860D03*
X1213240Y4181860D03*
X1100240Y4471860D03*
X1096240Y4525860D03*
X1081240Y4412860D03*
X1083240Y4342860D03*
X983240Y4808860D03*
X985240Y4754860D03*
X1091240Y4708860D03*
X1117240Y4644860D03*
X1156240Y4828860D03*
X1103240Y4586860D03*
X1275540Y4963160D03*
X1123140D03*
X1173940D03*
X976240Y5052860D03*
X1033240Y5180860D03*
X976240Y5154860D03*
X1262840Y5369560D03*
X1123140Y5382260D03*
X1349140Y205460D03*
X1346940Y268460D03*
X1349200Y335280D03*
X1496520Y480060D03*
X1626060D03*
X1562560D03*
X1433020D03*
X1366980D03*
X1349200Y398780D03*
X1306020Y518160D03*
X1582880Y891540D03*
X1394920Y850900D03*
X1387070Y754380D03*
X1339040Y853440D03*
X1614040Y1068560D03*
X1672540Y1070160D03*
X1558910Y1078610D03*
X1629140Y1355960D03*
X1525240Y1383960D03*
X1359340Y1378460D03*
X1441440Y1383160D03*
X1596850Y1638350D03*
X1382240Y1667860D03*
X1422240Y1627860D03*
X1575010Y1413190D03*
X1354940Y1448260D03*
X1432740Y1446860D03*
X1510440Y1445960D03*
X1543510Y1638270D03*
X1304420Y2102350D03*
X1347780Y2048080D03*
X1420320Y2575560D03*
X1484340Y2739260D03*
X1345740Y2728560D03*
X1438570Y3228050D03*
X1491440Y3235120D03*
X1511910Y3174340D03*
X1555490Y3134360D03*
X1562610Y3077980D03*
X1554940Y3210560D03*
X1364110Y3507210D03*
X1402240Y3508860D03*
X1289240Y3705860D03*
X1339040Y3693160D03*
X1327240Y3833860D03*
X1539000Y3825000D03*
X1661000Y3989000D03*
X1457240Y3883860D03*
X1328240Y3889440D03*
X1293480Y3990500D03*
X1548240Y3983860D03*
X1512240Y3903860D03*
X1330240Y4055860D03*
X1677240Y3820860D03*
X1656240Y3873860D03*
X1570500Y3775860D03*
X1597500Y3834150D03*
X1616840Y4115640D03*
X1385240Y4069860D03*
X1424050Y4106820D03*
X1557240Y4056860D03*
X1611240Y4051860D03*
X1345000Y4107780D03*
X1458240Y4064860D03*
X1511240Y4085860D03*
X1288240Y4417060D03*
X1516840Y4413660D03*
X1389840Y4417060D03*
X1387540Y4285060D03*
X1516840Y4290060D03*
X1643840Y4417060D03*
X1646140Y4290060D03*
X1382540Y4544060D03*
X1516840D03*
X1651140D03*
X1618440Y4912360D03*
X1456840Y4921560D03*
X1369340Y4756160D03*
X1367140Y4656460D03*
X1453340Y4759960D03*
Y4658360D03*
X1288240D03*
Y4759960D03*
X1661840Y4756160D03*
X1567640Y4658360D03*
Y4759960D03*
X1661840Y4656160D03*
X1542240Y5166360D03*
X1466040D03*
X1326340Y4963160D03*
X1407240Y5209860D03*
X1466040Y5217160D03*
X1300040Y5223460D03*
X1354040Y5227660D03*
X1415240Y5382260D03*
X1327530Y5396150D03*
X2001140Y178360D03*
X2042620Y71120D03*
X1999440Y386080D03*
X1821640Y480060D03*
X1882600D03*
X1999440Y454660D03*
X1692100Y480060D03*
X1755600D03*
X1946100D03*
X1999440Y312420D03*
Y238760D03*
X1886640Y620460D03*
X1722580Y812800D03*
X1721560Y756920D03*
X2047600Y795260D03*
X1718440Y911860D03*
X1912420Y753740D03*
X2019840Y752030D03*
X1692100Y1351970D03*
X1913330Y1100200D03*
X1974370Y1369570D03*
X2019990Y1098980D03*
X1724100Y1458460D03*
X1681940Y1636650D03*
X1765950Y1739710D03*
X1910790Y1638350D03*
X1930240Y1926860D03*
X1874240Y1863860D03*
X1987240Y1928860D03*
X2068240Y1869860D03*
X2070240Y1925860D03*
X1775920Y2910840D03*
X1778240Y2970860D03*
X2020240Y2972860D03*
X1915540Y3207920D03*
X1774740Y3154680D03*
X2029920Y3116580D03*
X1864740Y3208660D03*
X1687000Y4019000D03*
X1691570Y4074430D03*
X1744240Y4082860D03*
X1845240Y4145860D03*
X1793830Y3837910D03*
X1829220Y3877820D03*
X1954740Y3899360D03*
X1904240Y3838860D03*
X2040510Y3876340D03*
X2050910Y3761360D03*
X2042240Y3819860D03*
X1900240Y4377860D03*
X1745440Y4417060D03*
X1825240Y4238860D03*
X1948240Y4443860D03*
X1910240Y4194860D03*
X1968240Y4305860D03*
X1981240Y4401860D03*
X1990000Y4698000D03*
X1984000Y4739000D03*
X1966240Y4642860D03*
X1758140Y4658360D03*
Y4759960D03*
X1919240Y4564860D03*
X1918240Y4618860D03*
X2062240Y4812860D03*
X2064240Y4574860D03*
X1969240Y4893860D03*
X1895240Y4738860D03*
X1932000Y4699000D03*
X1971240Y5241860D03*
X1834340Y4963160D03*
X1876240Y4962860D03*
X1964240Y4993860D03*
X1681940Y4963160D03*
X1728240Y4962860D03*
X1909240Y5158860D03*
X1987240Y4944860D03*
X2024840Y5394960D03*
X1931100Y5612020D03*
X2031920Y5675390D03*
X2148510Y218010D03*
X2202240Y83860D03*
X2252940Y85860D03*
X2151840D03*
X2334240Y55860D03*
X2436240Y594790D03*
X2347740Y261360D03*
X2113740Y302260D03*
X2381240Y551560D03*
X2300240Y536860D03*
X2345140Y592660D03*
X2139140Y543560D03*
X2362660Y967740D03*
Y828040D03*
X2115520Y874010D03*
X2114730Y927220D03*
X2179940Y707960D03*
X2129240Y980860D03*
X2094240Y1000860D03*
X2257250Y1354510D03*
X2362660Y1107440D03*
X2083390Y1084710D03*
X2121240Y1046960D03*
X2205180Y1374490D03*
X2151240Y1373660D03*
X2242800Y1706880D03*
X2126440Y1636650D03*
X2349960Y1705860D03*
X2296620Y1706880D03*
X2194040Y2159860D03*
X2243810Y2186980D03*
X2091260Y1992630D03*
X2297890Y2068830D03*
Y1908810D03*
X2143240Y2159860D03*
X2295040Y2280980D03*
X2303240Y2452370D03*
X2222240Y2243860D03*
X2320060Y2332040D03*
X2085840Y2296260D03*
X2128240Y2894860D03*
X2129030Y2961640D03*
X2097960Y2626490D03*
X2458240Y3135860D03*
X2123900Y3042920D03*
X2376240Y3122860D03*
X2329640Y3185160D03*
X2414940Y3757360D03*
X2432620Y3972010D03*
X2192340Y3882560D03*
X2436850Y3891180D03*
X2186140Y3956160D03*
X2358480Y3966260D03*
X2184480Y4050680D03*
X2260940Y3829460D03*
X2274320Y3962960D03*
X2370440Y3794260D03*
X2431770Y4046090D03*
X2426340Y3821860D03*
X2152140Y4007560D03*
X2104240Y3771760D03*
X2348260Y4042590D03*
X2160030Y3758680D03*
X2264780Y4045750D03*
X2213360Y3760050D03*
X2381240Y3875860D03*
X2280240Y3882860D03*
X2281710Y4332890D03*
X2436850Y4451170D03*
X2351240Y4529860D03*
X2432240Y4525860D03*
X2352810Y4446600D03*
X2274090Y4445360D03*
X2177740Y4331260D03*
X2350340Y4333360D03*
X2409140Y4308760D03*
X2192420Y4769530D03*
X2189940Y4734560D03*
X2302100Y4898860D03*
X2188240Y4594860D03*
X2194240Y4626860D03*
X2116240Y4822860D03*
X2120240Y4544860D03*
X2222500Y4826000D03*
X2215340Y5013960D03*
Y5064760D03*
X2341170Y5277480D03*
X2288240Y5270860D03*
X2308240Y4954860D03*
X2370240Y5166860D03*
X2380240Y5113860D03*
X2075240Y5289380D03*
X2325440Y5484060D03*
X2246240Y5645860D03*
X2077240Y5382860D03*
X2272240Y5554860D03*
X2348040Y5683180D03*
X2342340Y5534660D03*
X2081240Y5654860D03*
X2335510Y5373370D03*
X2393240Y5448860D03*
X2265290Y5332230D03*
X2210240Y5350860D03*
X2243240Y5703860D03*
X2097240Y5601860D03*
X2076240Y5549860D03*
X2156780Y5772210D03*
X2113740Y5864860D03*
X2212240Y5756860D03*
X2649540Y70160D03*
X2826640Y77960D03*
X2763940Y70560D03*
X2585040Y345560D03*
X2748640Y363460D03*
X2562240Y551860D03*
X2644240Y358460D03*
X2502360Y967740D03*
X2642060D03*
X2502360Y828040D03*
X2642060D03*
X2786840Y632460D03*
X2700240Y744660D03*
X2504900Y1384300D03*
X2837640Y1264920D03*
X2778740Y1290090D03*
X2502360Y1107440D03*
X2646020Y1102820D03*
X2710640Y1780540D03*
X2713180Y1576480D03*
X2520650Y1705230D03*
X2654760Y1780540D03*
X2634440Y1958520D03*
X2585040Y2145760D03*
X2585440Y2084260D03*
X2583340Y2205160D03*
X2663650Y2491410D03*
X2586180Y2440460D03*
X2702140Y2683560D03*
X2717570Y2944650D03*
X2504940Y2949360D03*
X2502540Y2895760D03*
X2677640Y3213060D03*
X2658840Y3353760D03*
X2788240Y3276560D03*
X2697940Y3068320D03*
X2715840Y3014860D03*
X2710640Y3616960D03*
X2515060Y3969380D03*
X2783440Y3872960D03*
X2741440Y4132760D03*
X2516840Y3891180D03*
X2593540Y4047060D03*
X2497000Y3760280D03*
X2584590Y3772090D03*
X2597940Y3966760D03*
X2764740Y3977160D03*
X2627440Y3823660D03*
X2756840Y4051170D03*
X2637870Y3769430D03*
X2793020Y4147150D03*
X2516840Y4051170D03*
Y4451170D03*
X2830870Y4450220D03*
X2670240Y4524860D03*
X2513840Y4363260D03*
X2599740Y4445230D03*
X2760140Y4365260D03*
X2679010Y4445820D03*
X2792040Y4200490D03*
X2672610Y4282480D03*
X2725870Y4279460D03*
X2584430Y4227350D03*
X2512240Y4530860D03*
X2789530Y4580350D03*
X2786840Y4645660D03*
X2723340D03*
X2583240Y4613860D03*
X2570940Y4848860D03*
X2705240Y5215360D03*
X2685580Y5012200D03*
X2815240Y5036860D03*
X2799540Y5217160D03*
X2748740Y5382260D03*
X2995920Y409150D03*
X3073860Y513080D03*
X3132280D03*
X3190700D03*
X2875380Y787730D03*
X2873200Y892510D03*
X3052870Y874480D03*
X2875840Y734390D03*
X3082240Y630860D03*
X3217240Y743860D03*
X3043380Y817880D03*
X2890980Y1155700D03*
X3053540Y1267460D03*
X2901140Y1264920D03*
X2966400Y1021640D03*
X2946070Y1616480D03*
X3170240Y1747860D03*
X3200240Y1508860D03*
X3066720Y1448280D03*
X3119580Y1732280D03*
X2951150Y1735860D03*
X2951940Y2011680D03*
X3123870Y1903250D03*
X2944320Y1823720D03*
X3065240Y2367960D03*
X2877140Y3362260D03*
X3097240Y3198360D03*
X2933750Y2976470D03*
X3234400Y3723880D03*
X3123840Y3685860D03*
X3182040Y3749760D03*
X2944990Y3671820D03*
X2998260Y3674660D03*
X2866140Y3545060D03*
X3053540Y3451860D03*
X3061240Y3517860D03*
X3149400Y3831170D03*
X2911300Y3970020D03*
X2907940Y4043160D03*
X3157770Y3883850D03*
X2983140Y3855660D03*
X2991740Y4042460D03*
X3150780Y3961960D03*
X3152980Y4048480D03*
X3155460Y4121140D03*
X2996850Y4451170D03*
X3074520Y4528820D03*
X2912400Y4446460D03*
X2946340Y4220760D03*
X2991940Y4526280D03*
X3228270Y4531160D03*
X3167330Y4360230D03*
X3231920Y4447540D03*
X3071540Y4445060D03*
X3049740Y4286260D03*
X2961090Y4350950D03*
X2911560Y4530480D03*
X2911660Y4371010D03*
X3047380Y4346100D03*
X2975310Y4797860D03*
X2918240Y4926860D03*
X3041240Y4777860D03*
X3042240Y4864860D03*
X2912570Y4747260D03*
X2875240Y5110860D03*
X2877740Y5237860D03*
X2931240Y5114860D03*
X2932240Y5069860D03*
X3086240Y5232860D03*
X2978240Y5240860D03*
X2926140Y5168760D03*
X3032240Y5228860D03*
X3053130Y5382670D03*
X2990040Y5382260D03*
X2903150Y5380820D03*
X3251240Y631860D03*
X3256240Y688860D03*
X3567080Y1353760D03*
X3577030Y1111810D03*
X3266900Y1587800D03*
X3384240Y1740860D03*
X3339770Y1740690D03*
X3391540Y1437060D03*
X3445990Y1440210D03*
X3449800Y2005320D03*
X3356090Y2064110D03*
X3560240Y2118860D03*
X3548840Y2054860D03*
X3394740Y2530830D03*
X3408050Y2290720D03*
X3403870Y2397330D03*
X3401070Y2450600D03*
X3405580Y2344010D03*
X3382830Y2929900D03*
X3386130Y2876660D03*
X3394410Y2584170D03*
X3394440Y2637710D03*
X3390980Y2769770D03*
X3387960Y2823350D03*
X3392830Y2691030D03*
X3373240Y3314760D03*
X3393120Y3146220D03*
X3380860Y3239140D03*
X3356940Y3191460D03*
X3367820Y3090580D03*
X3412840Y3061960D03*
X3425240Y3735860D03*
X3320460Y3698650D03*
X3427440Y3653160D03*
X3285840Y3490760D03*
X3299320Y3550590D03*
X3438670Y3874220D03*
X3271200Y3876420D03*
X3353740Y3882860D03*
X3313240Y4045560D03*
X3394640Y4051860D03*
X3392360Y3846060D03*
X3444700Y4138510D03*
X3310440Y3967260D03*
X3394200Y3974060D03*
X3465380Y4048530D03*
X3329710Y3759420D03*
X3529240Y4450860D03*
X3396850Y4531160D03*
X3316840D03*
X3479240Y4427860D03*
X3470780Y4366400D03*
X3300540Y4355360D03*
X3308540Y4444060D03*
X3461240Y4512860D03*
X3410140Y4296770D03*
X3623240Y4596860D03*
X3615240Y4855860D03*
X3580000Y4905000D03*
X3536140Y5267960D03*
X3599640Y5179060D03*
X3837140Y70260D03*
X4023040Y277060D03*
X3882640D03*
X4028900Y530860D03*
X3795840Y479460D03*
X3957040Y529860D03*
X4026870Y792480D03*
X3901900Y784860D03*
X4027250Y1295400D03*
X3904440Y1290320D03*
X4027250Y1041400D03*
X3906980Y1038860D03*
X4027250Y1546860D03*
X3904440Y1544320D03*
X3755270Y2089710D03*
X3772360Y1833880D03*
X4028900Y2057400D03*
X3904440Y2054860D03*
X4028900Y1800860D03*
X3901900D03*
X3650440Y2067560D03*
X4028900Y2573020D03*
X3906980Y2570480D03*
X4028900Y2316480D03*
X3899360Y2313940D03*
X3768200Y3300670D03*
X3646550Y3289860D03*
X4002240Y4075860D03*
X4007080Y4314210D03*
X4016190Y4368810D03*
X3717140Y4613360D03*
X3866710Y4859390D03*
X3804240Y4594860D03*
X3857350Y4794350D03*
X3884610Y4593860D03*
X3755000Y4864000D03*
X4002430Y4852460D03*
X4016440Y5474360D03*
Y5567660D03*
X4014840Y5661060D03*
X4014140Y5979860D03*
X4014840Y5876960D03*
X4014140Y5763960D03*
X3939340Y5976860D03*
X3846040D03*
X3752640Y5975260D03*
X3649740Y5974560D03*
G54D21*
X3995250Y5295860D03*
X3695230D03*
G54D12*
X400050Y5649470D03*
G54D22*
G01X2348260Y4042590D02*
Y4043670D01*
X2359960Y4055370D01*
Y4075850D01*
X2382140Y4098030D01*
Y4218400D01*
X2371980Y4228560D01*
X2271540D01*
X2079760Y4036780D01*
Y3901760D01*
X2080240Y3901280D01*
Y3847890D01*
X2116970Y3811160D01*
X2154180D01*
X2164340Y3801000D01*
Y3762990D01*
X2160030Y3758680D01*
G01X2213360Y3760050D02*
Y3771840D01*
X2187200Y3798000D01*
Y3810470D01*
X2163650Y3834020D01*
X2126440D01*
X2103100Y3857360D01*
Y3910750D01*
X2102620Y3911230D01*
Y4027310D01*
X2180000Y4104690D01*
G02X2201550I10775J-10780D01*
G01X2204980Y4101260D01*
G03X2226540Y4122820I10780J10780D01*
G01X2223110Y4126240D01*
G02Y4147800I10780J10780D01*
G01X2281010Y4205700D01*
X2349120D01*
X2359280Y4195540D01*
Y4110710D01*
X2294320Y4045750D01*
X2264780D01*
G54D13*
X907040Y5351160D03*
X1771040D03*
X2532640D03*
X3396640D03*
G54D23*
G01X963120Y1394990D02*
Y1374140D01*
X546560Y957580D01*
Y414090D01*
X522470Y390000D01*
Y273090D01*
X399240Y149860D01*
G01X145240Y403860D02*
X272240Y530860D01*
X444960D01*
X495760Y581660D01*
Y978660D01*
X856440Y1339340D01*
Y1386840D01*
G01X399240Y403860D02*
X521160Y525780D01*
Y968120D01*
X909780Y1356740D01*
Y1384300D01*
G01X145240Y657860D02*
X295100Y807720D01*
Y962660D01*
X350980Y1018540D01*
X463780D01*
X752300Y1307060D01*
Y1343660D01*
G01X145240Y2181860D02*
X262050Y2065050D01*
Y1869470D01*
X349960Y1781560D01*
X560050D01*
G01X399240Y2435860D02*
X297640Y2334260D01*
Y2137280D01*
X369830Y2065100D01*
X454210D01*
X503940Y2015360D01*
X576230D01*
X599390Y1992200D01*
Y1959530D01*
X562380Y1922530D01*
X560070D01*
G01X145240Y2689860D02*
X272240Y2562860D01*
Y2126740D01*
X359290Y2039700D01*
X443660D01*
X507490Y1975870D01*
X560020D01*
G01X145240Y2435860D02*
X246840Y2334260D01*
Y2116200D01*
X287450Y2075590D01*
Y1880010D01*
X360500Y1806960D01*
X493980D01*
X556340Y1869310D01*
G01X523700Y2056130D02*
X493300Y2086530D01*
Y2595800D01*
X399240Y2689860D01*
G01X561800Y2095500D02*
X561980D01*
X599440Y2132960D01*
Y2384340D01*
X524240Y2459540D01*
Y2717260D01*
X444960Y2796540D01*
X292560D01*
X145240Y2943860D01*
G01X2194040Y2159860D02*
X2180070Y2173830D01*
Y2175120D01*
X2162270Y2192920D01*
Y2510800D01*
X2165860Y2514390D01*
Y3056650D01*
X1928130Y3294380D01*
X1673720D01*
X1403250Y3564850D01*
X1058640D01*
X1007860Y3514070D01*
X653860D01*
X544100Y3404310D01*
Y3209690D01*
X438210Y3103800D01*
X239300D01*
X145240Y3197860D01*
G01X399240D02*
X518700Y3317320D01*
Y3414840D01*
X643330Y3539470D01*
X997330D01*
X1048110Y3590250D01*
X1413780D01*
X1684250Y3319780D01*
X1938660D01*
X2191260Y3067180D01*
Y2503860D01*
X2187670Y2500270D01*
Y2278430D01*
X2222240Y2243860D01*
G01X145240Y3451860D02*
X239300Y3357800D01*
X438210D01*
X493300Y3412890D01*
Y3425370D01*
X632800Y3564870D01*
X986800D01*
X1037580Y3615650D01*
X1424310D01*
X1694780Y3345180D01*
X1949190D01*
X2216660Y3077710D01*
Y2493330D01*
X2213070Y2489740D01*
Y2308710D01*
X2261610Y2260170D01*
Y2199690D01*
X2248900Y2186980D01*
X2243810D01*
G01X2295040Y2280980D02*
X2238470Y2337550D01*
Y2479210D01*
X2242060Y2482800D01*
Y3088240D01*
X1959720Y3370580D01*
X1705310D01*
X1434840Y3641050D01*
X1027050D01*
X976270Y3590270D01*
X537650D01*
X399240Y3451860D01*
G01X788340Y2284660D02*
X859040Y2213960D01*
Y1919700D01*
X1061940Y1716800D01*
Y1334690D01*
X809290Y1082040D01*
X706960D01*
X571960Y947040D01*
Y400180D01*
X547870Y376090D01*
Y274460D01*
X593730Y228600D01*
G01X1438570Y3228050D02*
Y3226190D01*
X1382570Y3170190D01*
Y2815860D01*
X1332100Y2765390D01*
X1330480D01*
X1308910Y2743820D01*
Y2730140D01*
X1253430Y2674660D01*
X1157350D01*
X1076240Y2593550D01*
Y2475840D01*
X1025350Y2424950D01*
Y1825260D01*
X1112740Y1737870D01*
Y1313630D01*
X811610Y1012500D01*
X778590D01*
X750740Y984650D01*
G01X810720Y970430D02*
X1138140Y1297850D01*
Y1748400D01*
X1050750Y1835790D01*
Y2414420D01*
X1151240Y2514910D01*
Y2605760D01*
X1185810Y2640330D01*
X1309600D01*
X1382570Y2713300D01*
Y2744460D01*
X1407970Y2769860D01*
Y3126080D01*
X1491440Y3209550D01*
Y3235120D01*
G01X750780Y928290D02*
X824260D01*
X1163540Y1267570D01*
Y1758930D01*
X1076150Y1846320D01*
Y2403880D01*
X1111710Y2439440D01*
Y2439450D01*
X1287190Y2614930D01*
X1320130D01*
X1433370Y2728170D01*
Y3095800D01*
X1511910Y3174340D01*
G01X750780Y848460D02*
X780360D01*
X1188940Y1257040D01*
Y1769460D01*
X1101550Y1856850D01*
Y2393350D01*
X1235200Y2527000D01*
X1295310D01*
X1470740Y2702430D01*
X1499600D01*
X1521170Y2724000D01*
Y3100040D01*
X1555490Y3134360D01*
G01X952590Y525610D02*
X711370Y766830D01*
Y1000960D01*
X767050Y1056640D01*
X819820D01*
X1087340Y1324160D01*
Y1727340D01*
X893240Y1921440D01*
Y2607860D01*
X1000640Y2715260D01*
X1167830D01*
X1227540Y2774970D01*
Y3139260D01*
X1196340Y3170460D01*
G01X516480Y4341620D02*
Y4102620D01*
X619610Y3999490D01*
X1098870D01*
X1163200Y4063820D01*
Y4526900D01*
X1103240Y4586860D01*
G01X1100240Y4471860D02*
X1094560D01*
X1056870Y4509550D01*
Y4515230D01*
X977240Y4594860D01*
X754840D01*
X716740Y4632960D01*
Y4975860D01*
X640540Y5052060D01*
X526240D01*
G01X2212240Y5756860D02*
X2245920D01*
X2283070Y5719710D01*
Y5630600D01*
X2261500Y5609030D01*
X2228350D01*
X2116920Y5720460D01*
X2021310D01*
X1992550Y5691700D01*
Y5659090D01*
X1998090Y5653540D01*
X2006200Y5645420D01*
X2007640Y5643970D01*
Y5563120D01*
X1872950Y5428430D01*
Y5253930D01*
X1813270Y5194250D01*
X1728810D01*
X1669130Y5253930D01*
Y5315040D01*
X1535710Y5448460D01*
X1084770D01*
X1065640Y5429330D01*
Y5310620D01*
X887930Y5132910D01*
Y4896550D01*
X841240Y4849860D01*
G01X788240Y4840860D02*
Y4852540D01*
X824930Y4889230D01*
X836610D01*
X862530Y4915150D01*
Y5143440D01*
X1040240Y5321150D01*
Y5439860D01*
X1074240Y5473860D01*
X1546240D01*
X1694530Y5325570D01*
Y5264460D01*
X1739340Y5219650D01*
X1802740D01*
X1847550Y5264460D01*
Y5438960D01*
X1982240Y5573650D01*
Y5633450D01*
X1967150Y5648560D01*
Y5702230D01*
X2010780Y5745860D01*
X2127450D01*
X2169450Y5703860D01*
X2243240D01*
G01X1185840Y1093860D02*
X1275910Y1003790D01*
X1734320D01*
X1781690Y1051160D01*
X1920080D01*
X2004730Y1135810D01*
X2132830D01*
X2223240Y1045400D01*
Y497850D01*
X2476000Y245090D01*
X2936270D01*
X2981070Y200290D01*
X3377290D01*
X3486800Y309800D01*
X3859700D01*
X3866330Y316430D01*
X3867810D01*
X3955240Y403860D01*
G01X3701240D02*
X3544930D01*
X3366760Y225690D01*
X2991600D01*
X2941330Y275960D01*
X2482150D01*
X2248640Y509470D01*
Y1055930D01*
X2143360Y1161210D01*
X1855810D01*
X1723790Y1029190D01*
X1317710D01*
X1240840Y1106060D01*
G01X1266740Y1456160D02*
X1236170Y1425590D01*
Y1303300D01*
X1404670Y1134800D01*
X1793470D01*
X1845280Y1186610D01*
X2335580D01*
X2410540Y1111650D01*
Y770820D01*
X2413140Y768220D01*
Y765810D01*
X2713690Y465260D01*
X3030070D01*
X3047020Y448310D01*
X3217540D01*
X3279890Y510660D01*
X3475570D01*
X3475670Y510760D01*
X3701650D01*
X3848750Y657860D01*
X3955240D01*
G01X2966400Y1021640D02*
X2973530Y1028770D01*
Y1244620D01*
X2618720Y1599430D01*
X1700400D01*
X1641830Y1540860D01*
X1454230D01*
X1406600Y1588490D01*
X1405930D01*
X1382870Y1611550D01*
Y1612220D01*
X1366600Y1628490D01*
X1365930D01*
X1342870Y1651550D01*
Y1652220D01*
X1126950Y1868140D01*
Y2382820D01*
X1245730Y2501600D01*
X1412350D01*
X1562610Y2651860D01*
Y3077980D01*
G01X3772360Y1833880D02*
X3772280Y1833800D01*
X3214300D01*
X3167730Y1787230D01*
X3153930D01*
X3153590Y1786890D01*
X3067240D01*
X2973260Y1692910D01*
X2588240D01*
X2508890Y1772260D01*
X2134110D01*
X2116140Y1754290D01*
X1842980D01*
X1792790Y1804480D01*
X1349620D01*
X1152350Y2001750D01*
Y2372290D01*
X1231160Y2451100D01*
X1257760D01*
G01X2320060Y2332040D02*
Y2381040D01*
X2288100Y2413000D01*
X2286930D01*
X2263870Y2436060D01*
Y2468680D01*
X2267460Y2472270D01*
Y3098770D01*
X1970250Y3395980D01*
X1715840D01*
X1368130Y3743690D01*
X1090930D01*
X1065990Y3768630D01*
G01X1512240Y3903860D02*
X1482240Y3933860D01*
X1294440D01*
X1205240Y4023060D01*
Y4126860D01*
G01X976240Y5052860D02*
Y4885760D01*
X1051870Y4810130D01*
Y4570230D01*
X1096240Y4525860D01*
G01X3701240Y1673860D02*
X3519240D01*
X3339240Y1493860D01*
Y1249570D01*
X2942810Y853140D01*
X2856890D01*
X2769440Y940590D01*
Y1139280D01*
X2769040Y1139680D01*
Y1153020D01*
X2739300Y1182760D01*
X2739290D01*
X2615390Y1306660D01*
Y1365430D01*
X2482990Y1497830D01*
X1707780D01*
X1629140Y1419190D01*
Y1355960D01*
G01X1525240Y1383960D02*
Y1331460D01*
X1544100Y1312600D01*
X1713980D01*
X1734740Y1333360D01*
Y1333380D01*
X1842130Y1440770D01*
X2504120D01*
X2579740Y1365150D01*
Y1270460D01*
X2718240Y1131960D01*
Y1118620D01*
X2718640Y1118220D01*
Y823770D01*
X2848850Y693560D01*
X2978350D01*
X3390040Y1105250D01*
Y1301160D01*
X3508740Y1419860D01*
X3701240D01*
G01Y657860D02*
X3586840D01*
X3465040Y536060D01*
X3269360D01*
X3207010Y473710D01*
X3057550D01*
X3040600Y490660D01*
X2724220D01*
X2438540Y776340D01*
Y1119580D01*
X2344580Y1213540D01*
X1836280D01*
X1782940Y1160200D01*
X1415200D01*
X1275540Y1299860D01*
Y1386360D01*
G01X1354940Y1448260D02*
Y1429740D01*
X1319970Y1394770D01*
Y1306330D01*
X1440700Y1185600D01*
X1772410D01*
X1825750Y1238940D01*
X2378760D01*
X2465530Y1152170D01*
Y785280D01*
X2734750Y516060D01*
X2980500D01*
X3029200Y564760D01*
X3401130D01*
X3463820Y627450D01*
Y707770D01*
X3573850Y817800D01*
X3740210D01*
X3834270Y911860D01*
X3955240D01*
G01X1359340Y1378460D02*
Y1310270D01*
X1458610Y1211000D01*
X1761880D01*
X1815220Y1264340D01*
X2399560D01*
X2547240Y1116660D01*
Y739500D01*
X2745280Y541460D01*
X2969970D01*
X3018670Y590160D01*
X3390600D01*
X3438420Y637980D01*
Y746640D01*
X3603640Y911860D01*
X3701240D01*
G01X1432740Y1446860D02*
Y1430140D01*
X1402070Y1399470D01*
Y1303470D01*
X1469140Y1236400D01*
X1745570D01*
X1798910Y1289740D01*
X2420860D01*
X2577940Y1132660D01*
Y747450D01*
X2580540Y744850D01*
Y742130D01*
X2755810Y566860D01*
X2959440D01*
X3430940Y1038360D01*
X3803940D01*
X3931440Y1165860D01*
X3955240D01*
G01X3701240D02*
X3607820Y1072440D01*
X3429090D01*
X2948910Y592260D01*
X2766340D01*
X2605940Y752660D01*
Y812070D01*
X2605230Y812780D01*
Y980460D01*
X2605940Y981170D01*
Y1143070D01*
X2433870Y1315140D01*
X1788380D01*
X1735040Y1261800D01*
X1497990D01*
X1441440Y1318350D01*
Y1383160D01*
G01X1510440Y1445960D02*
Y1424840D01*
X1485870Y1400270D01*
Y1317630D01*
X1516300Y1287200D01*
X1724510D01*
X1760140Y1322830D01*
Y1322840D01*
X1851160Y1413860D01*
X2322960D01*
X2391890Y1344930D01*
X2456000D01*
X2693240Y1107690D01*
Y813240D01*
X2838330Y668150D01*
X2875240D01*
X2975640Y668160D01*
X2988880D01*
X3415440Y1094720D01*
Y1290620D01*
X3519280Y1394460D01*
X3593610D01*
X3662270Y1325800D01*
X3740210D01*
X3834270Y1419860D01*
X3955240D01*
G01X3170240Y1747860D02*
Y1730850D01*
X3106900Y1667510D01*
X2539240D01*
X2537130Y1669620D01*
X2535910Y1668400D01*
X2505390D01*
X2483820Y1689970D01*
Y1722930D01*
X2459890Y1746860D01*
X2144640D01*
X2126670Y1728890D01*
X1832450D01*
X1782260Y1779080D01*
X1490460D01*
X1382240Y1670860D01*
Y1667860D01*
G01X1422240Y1627860D02*
X1472100Y1677720D01*
X1923510D01*
X1927750Y1673480D01*
X2141700D01*
X2190350Y1624830D01*
X2882040D01*
X2929760Y1577110D01*
X3131990D01*
X3200240Y1508860D01*
G01X1575010Y1413190D02*
X1587210D01*
X1722650Y1548630D01*
X2504040D01*
X2666190Y1386480D01*
Y1327710D01*
X2760340Y1233560D01*
X2760350D01*
X2790090Y1203820D01*
X2790100D01*
X2819840Y1174080D01*
Y1160720D01*
X2820240Y1160320D01*
Y967260D01*
X2855620Y931880D01*
X2949700D01*
X3288440Y1270620D01*
Y1514920D01*
X3318180Y1544660D01*
X3318190D01*
X3541450Y1767920D01*
X3740210D01*
X3834270Y1673860D01*
X3955240D01*
G01X3755270Y2089710D02*
X3687480Y2021920D01*
X3662270D01*
X3504230Y1863880D01*
X3229510D01*
X3229500Y1863890D01*
X3208460D01*
X3157200Y1812630D01*
X3143400D01*
X3143060Y1812290D01*
X2989580D01*
X2964240Y1786950D01*
X2946560D01*
X2900780Y1741170D01*
X2638450D01*
X2581130Y1798490D01*
X2124410D01*
X2105610Y1779690D01*
X1853510D01*
X1803320Y1829880D01*
X1361270D01*
X1304420Y1886730D01*
Y2102350D01*
G01X1347780Y2048080D02*
Y2017820D01*
X1329820Y1999860D01*
Y1897270D01*
X1371810Y1855280D01*
X1813850D01*
X1864040Y1805090D01*
X2095080D01*
X2113880Y1823890D01*
X2687580D01*
X2724240Y1860550D01*
X2995510D01*
X3018370Y1837690D01*
X3132530D01*
X3132870Y1838030D01*
X3146670D01*
X3197930Y1889290D01*
X3240030D01*
X3240040Y1889280D01*
X3474880D01*
X3622650Y2037050D01*
Y2039760D01*
X3650440Y2067560D01*
G01X2334240Y55860D02*
Y178870D01*
X2202250Y310860D01*
Y404640D01*
X2019840Y587050D01*
Y752030D01*
G01X1874240Y1863860D02*
X1907610Y1830490D01*
X2084550D01*
X2103350Y1849290D01*
X2652750D01*
X2714810Y1911350D01*
X2984250D01*
X3029180Y1866420D01*
X3139130D01*
X3187400Y1914690D01*
X3250560D01*
X3250570Y1914680D01*
X3464350D01*
X3588210Y2038540D01*
Y2068830D01*
X3701240Y2181860D01*
G01X1845240Y4145860D02*
Y4189540D01*
X1872240Y4216540D01*
Y4264460D01*
X1928870Y4321090D01*
Y4322170D01*
X1951930Y4345230D01*
X2016510D01*
X2158140Y4486860D01*
X2393240D01*
X2432240Y4525860D01*
G01X1825240Y4238860D02*
Y4367860D01*
X1902870Y4445490D01*
Y4466170D01*
X1925930Y4489230D01*
X2124580D01*
X2147610Y4512260D01*
X2196640D01*
X2319240Y4634860D01*
Y4859320D01*
X2472120Y5012200D01*
X2685580D01*
G01X2179940Y707960D02*
Y504150D01*
X2470730Y213360D01*
X2691240D01*
X2826640Y77960D01*
G01X2143240Y2159860D02*
X2139410Y2163690D01*
Y2520270D01*
X2143000Y2523860D01*
Y2828010D01*
X2091410Y2879600D01*
Y2927640D01*
X2125410Y2961640D01*
X2129030D01*
G01X2302100Y4898860D02*
X2319240D01*
X2446290Y5025910D01*
Y5146490D01*
X2386550Y5206230D01*
X2192500D01*
X2170870Y5227860D01*
Y5367170D01*
X2177240Y5373540D01*
Y5585460D01*
X2107840Y5654860D01*
X2081240D01*
G01X2156780Y5772210D02*
X2180800Y5796230D01*
X2242490D01*
X2308670Y5730050D01*
Y5620430D01*
X2452470Y5476630D01*
Y5254660D01*
X2600690Y5106410D01*
X2831410D01*
X2835860Y5110860D01*
X2875240D01*
G01X3955240Y4721860D02*
X3845240Y4611860D01*
Y4492810D01*
X3849580Y4488470D01*
Y3346120D01*
X3845240Y3341780D01*
Y2450430D01*
X3708470Y2313660D01*
X3661320D01*
X3372400Y2024740D01*
X3339780D01*
X3313470Y2051050D01*
X2726970D01*
X2634440Y1958520D01*
G01X3560240Y2118860D02*
X3511250D01*
X3360410Y1968020D01*
X2699620D01*
X2650750Y1919150D01*
X2618130D01*
X2529340Y2007940D01*
Y2861960D01*
X2549240Y2881860D01*
Y2929320D01*
X2529200Y2949360D01*
X2504940D01*
G01X3548840Y2054860D02*
X3530980Y2037000D01*
Y2034400D01*
X3436660Y1940080D01*
X3261100D01*
X3261090Y1940090D01*
X3176870D01*
X3176860Y1940080D01*
X2707610D01*
X2661280Y1893750D01*
X2607600D01*
X2503940Y1997410D01*
Y2881740D01*
X2502540Y2883140D01*
Y2895760D01*
G01X3955240Y1927860D02*
X3795300Y2087800D01*
Y2220830D01*
X3740210Y2275920D01*
X3662270D01*
X3560240Y2173890D01*
Y2118860D01*
G01X4016190Y4368810D02*
X4049300Y4335700D01*
Y3037920D01*
X3955240Y2943860D01*
G01X3701240Y4721860D02*
X3756510Y4666590D01*
Y4545610D01*
X3824180Y4477940D01*
Y3356650D01*
X3768200Y3300670D01*
G01X3646550Y3289860D02*
X3681680D01*
X3798780Y3406960D01*
Y4370320D01*
X3701240Y4467860D01*
G01X3866710Y4859390D02*
X3804240Y4796920D01*
Y4594860D01*
G01X869040Y5523850D02*
G02Y5623850I0J50000D01*
G01Y6049520D01*
X340060D01*
X0Y5709460D01*
Y0D01*
X4100050D01*
X4100580Y530D01*
Y6049520D01*
X3434640D01*
Y5623850D01*
G02Y5523850I0J-50000D01*
G01X846910Y6533720D02*
X872320Y6512560D01*
X900890Y6499860D01*
X926290D01*
X951690Y6512560D01*
X970740Y6533720D01*
X980270Y6563360D01*
X973920Y6592990D01*
X958040Y6618390D01*
X929460Y6635330D01*
X891370Y6643790D01*
X869140Y6660720D01*
X859610Y6690360D01*
X865970Y6719990D01*
X881840Y6741150D01*
X904060Y6753860D01*
X926290D01*
X948520Y6745400D01*
X967570Y6724230D01*
G01X1129490Y6753860D02*
X1205680D01*
G01X1167590D02*
Y6499860D01*
G01X1129490D02*
X1205680D01*
G01X1440640Y6626860D02*
X1504140D01*
Y6550660D01*
X1485090Y6525250D01*
X1462860Y6508320D01*
X1431120Y6499860D01*
X1399370Y6508320D01*
X1377140Y6525250D01*
X1358090Y6550660D01*
X1345390Y6580290D01*
X1339040Y6614160D01*
Y6643790D01*
X1345390Y6669190D01*
X1358090Y6698830D01*
X1377140Y6724230D01*
X1396190Y6741150D01*
X1421590Y6753860D01*
X1443810D01*
X1469210Y6745400D01*
X1488270Y6728460D01*
G01X1634320Y6584520D02*
X1716860D01*
G01X1869260Y6605690D02*
X1891490Y6635330D01*
X1910540Y6652260D01*
X1935940Y6660720D01*
X1958170Y6652260D01*
X1974040Y6635330D01*
X1986740Y6609930D01*
X1989920Y6580290D01*
X1986740Y6554890D01*
X1974040Y6529490D01*
X1954990Y6508320D01*
X1932770Y6499860D01*
X1907370Y6508320D01*
X1885140Y6533720D01*
X1872440Y6571830D01*
X1869260Y6614160D01*
X1875610Y6669190D01*
X1885140Y6698830D01*
X1901010Y6728460D01*
X1923240Y6749630D01*
X1945460Y6753860D01*
X1967690Y6745400D01*
X1983570Y6724230D01*
G01X2374090Y6753860D02*
Y6499860D01*
X2501090D01*
G01X2612210D02*
X2691590Y6753860D01*
X2770970Y6499860D01*
G01X2742390Y6588760D02*
X2640790D01*
G01X2945590Y6499860D02*
Y6614160D01*
X2882090Y6753860D01*
G01X3009090D02*
X2945590Y6614160D01*
G01X3263090Y6499860D02*
X3136090D01*
Y6753860D01*
X3263090D01*
G01X3212290Y6631100D02*
X3136090D01*
G01X3390090Y6499860D02*
Y6753860D01*
X3469460D01*
X3494860Y6741150D01*
X3510740Y6724230D01*
X3517090Y6690360D01*
X3510740Y6656490D01*
X3491690Y6635330D01*
X3469460Y6622620D01*
X3390090D01*
G01X3469460D02*
X3517090Y6499860D01*
G01X1809040Y5523850D02*
X869040D01*
G01X1809040D02*
X869040D01*
G01X1809040D02*
G03Y5623850I0J50000D01*
G01Y6049520D01*
X2494640D01*
Y5623850D01*
G03Y5523850I0J-50000D01*
G01X3434640D02*
X2494640D01*
G01X3434640D02*
X2494640D01*
G54D14*
X937010Y5423880D03*
X1741070Y5423830D03*
X2562610Y5423880D03*
X3366670Y5423830D03*
G54D24*
G01X1072340Y3515360D02*
X1013440Y3456460D01*
X772140D01*
G01D02*
Y3354460D01*
G01X3032240Y5228860D02*
Y5060860D01*
X2960240Y4988860D01*
X2773580D01*
X2687780Y5074660D01*
X2587530D01*
X2481390Y5180800D01*
X2420720Y5241500D01*
Y5352820D01*
X2340010Y5433530D01*
X2292910D01*
X2210240Y5350860D01*
G54D15*
X754050Y5861350D03*
X1924030D03*
X2379650D03*
X3549630D03*
G54D25*
G01X1793830Y3837910D02*
X1803890D01*
X1804620Y3837180D01*
X1846060D01*
X1869860Y3860980D01*
Y3872480D01*
X1897840Y3900460D01*
Y4061850D01*
X1991930Y4155940D01*
Y4206150D01*
X2159310Y4373530D01*
X2279740D01*
X2352810Y4446600D01*
G01X1829220Y3877820D02*
X1862280Y3910880D01*
Y4076580D01*
X1956370Y4170670D01*
Y4220880D01*
X2180850Y4445360D01*
X2274090D01*
G01X1954740Y3899360D02*
Y4068460D01*
X2039860Y4153580D01*
G03Y4177920I-12170J12170D01*
G01X2039850Y4177930D01*
G02Y4202270I12170J12170D01*
G01X2047840Y4210260D01*
G02X2072180I12170J-12170D01*
G01X2072190Y4210250D01*
G03X2096530I12170J12170D01*
G01X2097530D01*
X2106860Y4219580D01*
G03Y4243920I-12170J12170D01*
G01X2106850Y4243930D01*
G02Y4268270I12170J12170D01*
G01X2114840Y4276260D01*
G02X2139180I12170J-12170D01*
G01X2139190Y4276250D01*
G03X2163530I12170J12170D01*
G01X2177740Y4290460D01*
Y4331260D01*
G01X1904240Y3838860D02*
X1958240D01*
X1998240Y3878860D01*
Y4053670D01*
X2236820Y4292250D01*
X2319130D01*
X2350340Y4323460D01*
Y4333360D01*
G01X2409140Y4308760D02*
X2362640Y4262260D01*
X2246350D01*
X2040800Y4056710D01*
Y3876630D01*
X2040510Y3876340D01*
G01X2184480Y4050680D02*
X2192480Y4042680D01*
Y4019620D01*
X2215740Y3996360D01*
X2250240D01*
X2257480Y4003600D01*
X2291160D01*
X2317840Y3976920D01*
Y3949420D01*
X2328740Y3938520D01*
Y3643600D01*
X2303650Y3618510D01*
X2266890D01*
X2256100Y3629300D01*
Y3705790D01*
X2281940Y3731630D01*
Y3788470D01*
X2260940Y3809470D01*
Y3829460D01*
G01X2274320Y3962960D02*
X2231640Y3920280D01*
Y3900740D01*
X2232980Y3899400D01*
Y3865720D01*
X2216940Y3849680D01*
Y3813950D01*
X2254000Y3776890D01*
Y3743210D01*
X2216940Y3706150D01*
Y3601160D01*
X2261900Y3556200D01*
X2303070D01*
X2372040Y3625170D01*
Y3752020D01*
X2370440Y3753620D01*
Y3794260D01*
G01X2414940Y3757360D02*
X2452660Y3719640D01*
X2513840D01*
X2537640Y3743440D01*
X2543950Y3750000D01*
Y3791170D01*
X2586800Y3834020D01*
Y3861300D01*
X2638580Y3913080D01*
Y4080220D01*
X2557920Y4160880D01*
X2541840D01*
X2492740Y4160890D01*
X2431870D01*
X2407540Y4136560D01*
Y4087500D01*
X2389220Y4069180D01*
Y4021450D01*
X2358480Y3990710D01*
Y3966260D01*
G01X2426340Y3821860D02*
X2452340Y3795860D01*
X2475100D01*
X2480160Y3800920D01*
X2486900D01*
X2563640Y3877660D01*
Y3943580D01*
X2555700Y3951520D01*
Y3986220D01*
X2531900Y4010020D01*
X2500510D01*
X2476200Y4034330D01*
Y4068010D01*
X2505240Y4097050D01*
Y4112460D01*
X2484760Y4132940D01*
X2443440D01*
X2435480Y4124980D01*
Y4075920D01*
X2431770Y4072210D01*
Y4046090D01*
G01X3394410Y2584170D02*
X3390630D01*
X3390350Y2584450D01*
X3370250D01*
X3151740Y2802960D01*
Y3348140D01*
X3133440Y3366440D01*
Y3518500D01*
X3073060Y3578880D01*
X2945240D01*
X2901540Y3622580D01*
Y3844860D01*
X3018740Y3962060D01*
Y4011980D01*
X3032380Y4025620D01*
Y4059300D01*
X3018740Y4072940D01*
Y4240160D01*
X3006740Y4252160D01*
Y4362940D01*
X3071540Y4427740D01*
Y4445060D01*
G01X3049740Y4286260D02*
Y4081460D01*
X3060320Y4070880D01*
Y4014040D01*
X3049740Y4003460D01*
Y3641720D01*
X3161380Y3530080D01*
Y3378020D01*
X3187600Y3351800D01*
Y2829900D01*
X3379790Y2637710D01*
X3394440D01*
G01X2911560Y4530480D02*
X2871760Y4490680D01*
Y4388590D01*
X2871020Y4387850D01*
Y4354170D01*
X2871940Y4353250D01*
Y4226160D01*
X2951240Y4146860D01*
Y4059440D01*
X2951100Y4059300D01*
Y3987700D01*
X2951940Y3986860D01*
Y3948060D01*
X2873600Y3869720D01*
Y3595090D01*
X3001240Y3467450D01*
Y2899850D01*
X3354100Y2546990D01*
Y2066100D01*
X3356090Y2064110D01*
G01X3392830Y2691030D02*
X3383070D01*
X3215540Y2858560D01*
Y3373760D01*
X3189320Y3399980D01*
Y3541660D01*
X3082240Y3648740D01*
Y3744560D01*
X3104740Y3767060D01*
Y4288740D01*
X3047380Y4346100D01*
G01X3382830Y2929900D02*
X3382220D01*
X3361960Y2950160D01*
X3319260D01*
X3243780Y3025640D01*
Y3402820D01*
X3217260Y3429340D01*
Y3553240D01*
X3123840Y3646660D01*
Y3685860D01*
G01X3470780Y4366400D02*
X3605910Y4231270D01*
Y2429530D01*
X3467100Y2290720D01*
X3408050D01*
G01X3300540Y4355360D02*
Y4332380D01*
X3425830Y4207090D01*
X3473120D01*
X3534790Y4145420D01*
Y2458990D01*
X3472460Y2396660D01*
X3404540D01*
X3403870Y2397330D01*
G01X3231920Y4447540D02*
Y4361480D01*
X3414250Y4179150D01*
X3461540D01*
X3506850Y4133840D01*
Y3904670D01*
X3495060Y3892880D01*
Y2541720D01*
X3403940Y2450600D01*
X3401070D01*
G01X3405580Y2344010D02*
X3405720Y2343870D01*
X3469960D01*
X3570350Y2444260D01*
Y4209350D01*
X3335640Y4444060D01*
X3308540D01*
G01X3386130Y2876660D02*
X3386340Y2876870D01*
X3402820D01*
X3423940Y2897990D01*
Y2957660D01*
X3395880Y2985720D01*
X3333990D01*
X3273040Y3046670D01*
Y3413080D01*
X3245200Y3440920D01*
Y3578180D01*
X3275040Y3608020D01*
Y3810920D01*
X3226240Y3859720D01*
Y4016040D01*
X3302700Y4092500D01*
X3398690D01*
X3444700Y4138510D01*
G01X3329710Y3759420D02*
X3335000Y3754130D01*
Y3741590D01*
X3361100Y3715490D01*
Y3365380D01*
X3315640Y3319920D01*
Y3062060D01*
X3356420Y3021280D01*
X3410610D01*
X3459500Y2972390D01*
Y2837410D01*
X3391860Y2769770D01*
X3390980D01*
G01X3394640Y4051860D02*
Y4031980D01*
X3353560Y3990900D01*
Y3957220D01*
X3394580Y3916200D01*
Y3848280D01*
X3392360Y3846060D01*
G54D16*
X1288240Y2788920D03*
X1486360Y721360D03*
X1312980Y2459690D03*
X1336500Y2834640D03*
X2128880Y749000D03*
Y805180D03*
X2397240Y1398860D03*
X2455370Y3267710D03*
X2393140Y3268980D03*
X2766520Y1351280D03*
X2708100D03*
X2931620Y977900D03*
X2875330Y978130D03*
X3111960Y1272540D03*
X3169870Y1272490D03*
X3228800Y1272540D03*
X3066240Y1509060D03*
G54D26*
G01X2303240Y2452370D02*
X2305560Y2454690D01*
Y3114560D01*
X1986040Y3434080D01*
X1738010D01*
X1390300Y3781790D01*
X1126470D01*
X1087560Y3820700D01*
X904140D01*
X852610Y3872230D01*
X809470D01*
X782800Y3845560D01*
X312540D01*
X268470Y3889630D01*
Y4106570D01*
X161180Y4213860D01*
X145240D01*
G01X789360Y1935480D02*
X1015190Y1709650D01*
Y1361490D01*
X772570Y1118870D01*
G54D17*
X1679400Y2065020D03*
X1670560Y2398980D03*
X1668020Y2505630D03*
X1510570Y2398980D03*
X1508030Y2505630D03*
X1781000Y2065020D03*
X1830560Y2398980D03*
X1990550D03*
X1988010Y2505630D03*
X1828020D03*
G54D27*
G01X1033240Y5180860D02*
Y5147490D01*
X1056460Y5124270D01*
Y5101380D01*
X1065460Y5092380D01*
X1088740D01*
X1099300Y5081820D01*
Y5069620D01*
X1090680Y5061000D01*
X1069000D01*
X1056460Y5048460D01*
Y4915610D01*
X1076530Y4895540D01*
X1183860D01*
X1252760Y4826640D01*
X1785760D01*
X1873540Y4738860D01*
X1895240D01*
G01X976240Y5154860D02*
X988150D01*
X1029790Y5113220D01*
Y4904560D01*
X1065480Y4868870D01*
X1172810D01*
X1241710Y4799970D01*
X1774710D01*
X1875830Y4698850D01*
X1911810D01*
X1911960Y4699000D01*
X1932000D01*
G01X1327240Y3833860D02*
X1341570Y3848190D01*
X1398610D01*
X1540610Y3706190D01*
X1675190D01*
X1854190Y3527190D01*
X2031560D01*
X2224190Y3334560D01*
X2448690D01*
X2510570Y3272680D01*
Y3129430D01*
X2471590Y3090450D01*
X2431250D01*
X2368650Y3027850D01*
Y2255240D01*
X2223670Y2110260D01*
X2049630D01*
X1944240Y2004870D01*
Y1940860D01*
X1930240Y1926860D01*
G01X1328240Y3889440D02*
X1342820Y3874860D01*
X1409660D01*
X1551660Y3732860D01*
X1686240D01*
X1865240Y3553860D01*
X2042610D01*
X2235240Y3361230D01*
X2459740D01*
X2537240Y3283730D01*
Y3118380D01*
X2482640Y3063780D01*
X2442300D01*
X2395320Y3016800D01*
Y2244190D01*
X2234720Y2083590D01*
X2060680D01*
X1970910Y1993820D01*
Y1945190D01*
X1987240Y1928860D01*
G01X2068240Y1869860D02*
X2084230Y1885850D01*
X2221940D01*
X2461240Y2125150D01*
Y2962250D01*
X2488360Y2989370D01*
X2518750D01*
X2626240Y3096860D01*
Y3316860D01*
X2504240Y3438860D01*
X2263240D01*
X2076240Y3625860D01*
X1945970D01*
X1743920Y3827910D01*
Y3950820D01*
X1812910Y4019810D01*
Y4112190D01*
X1755230Y4169870D01*
Y4336120D01*
X1833910Y4414800D01*
Y4544800D01*
X1868970Y4579860D01*
X1904240D01*
X1919240Y4564860D01*
G01X2070240Y1925860D02*
X2083580Y1912520D01*
X2210890D01*
X2434570Y2136200D01*
Y2973300D01*
X2477310Y3016040D01*
X2507700D01*
X2599570Y3107910D01*
Y3305810D01*
X2493190Y3412190D01*
X2252190D01*
X2065190Y3599190D01*
X1934920D01*
X1717250Y3816860D01*
Y3961870D01*
X1786240Y4030860D01*
Y4101140D01*
X1728560Y4158820D01*
Y4347170D01*
X1807240Y4425850D01*
Y4555850D01*
X1857920Y4606530D01*
X1903590D01*
X1915920Y4618860D01*
X1918240D01*
G01X1919240Y4564860D02*
X1929570Y4575190D01*
X1993990D01*
X2085990Y4667190D01*
X2216870D01*
X2293200Y4743520D01*
Y4851180D01*
X2262090Y4882290D01*
Y4965290D01*
X2370650Y5073850D01*
X2396810D01*
X2420250Y5097290D01*
Y5130430D01*
X2396810Y5153870D01*
X2383230D01*
X2370240Y5166860D01*
G01X1918240Y4618860D02*
X1935240Y4601860D01*
X1982940D01*
X2074940Y4693860D01*
X2205820D01*
X2266530Y4754570D01*
Y4840130D01*
X2235420Y4871240D01*
Y4976340D01*
X2372940Y5113860D01*
X2380240D01*
G01X1895240Y4738860D02*
X1902950D01*
X1917320Y4753230D01*
Y4785360D01*
X2047620Y4915660D01*
Y5222700D01*
X1958160Y5312160D01*
Y5422580D01*
X2036230Y5500650D01*
Y5566430D01*
X2059670Y5589870D01*
X2085250D01*
X2097240Y5601860D01*
G01X1932000Y4699000D02*
Y4721000D01*
X1943990Y4732990D01*
Y4774310D01*
X2074290Y4904610D01*
Y5233750D01*
X1984830Y5323210D01*
Y5411530D01*
X2062900Y5489600D01*
Y5536520D01*
X2076240Y5549860D01*
G01X2926140Y5168760D02*
Y5245340D01*
X2990040Y5309240D01*
Y5382260D01*
G54D18*
X2909750Y123570D03*
X3476730D03*
G54D19*
X3166900Y667610D03*
X3366900D03*
M02*
