G04 ================== begin FILE IDENTIFICATION RECORD ==================*
G04 Layout Name:  D:/projects/Popcorn/Rev2.0/Brd/Popcorn Computer Rev 2p0_Release.brd*
G04 Film Name:    vcc1*
G04 File Format:  Gerber RS274X*
G04 File Origin:  Cadence Allegro 16.6-2015-S105*
G04 Origin Date:  Tue Jul 14 12:45:48 2020*
G04 *
G04 Layer:  VIA CLASS/VCC1*
G04 Layer:  PIN/VCC1*
G04 Layer:  ETCH/VCC1*
G04 Layer:  BOARD GEOMETRY/OUTLINE*
G04 *
G04 Offset:    (0.0000 0.0000)*
G04 Mirror:    No*
G04 Mode:      Positive*
G04 Rotation:  0*
G04 FullContactRelief:  No*
G04 UndefLineWidth:     0.1270*
G04 ================== end FILE IDENTIFICATION RECORD ====================*
%FSLAX25Y25*MOMM*%
%IR0*IPPOS*OFA0.00000B0.00000*MIA0B0*SFA1.00000B1.00000*%
%ADD18O,.95X2.1001*%
%ADD11C,.4064*%
%ADD17C,.6604*%
%ADD16C,.4572*%
%ADD20C,.5999*%
%ADD19C,1.1001*%
%ADD15O,1.3X2.7501*%
%ADD12C,4.*%
%ADD10C,1.5001*%
%ADD14O,1.524X1.1176*%
%ADD21C,1.651*%
%ADD13O,1.1999X2.3*%
%ADD22C,.127*%
%ADD23C,.254*%
%ADD24C,.1397*%
%ADD27C,.61*%
%ADD28C,.7116*%
%ADD33C,.6354*%
%ADD32C,.864*%
%ADD29C,.7624*%
%ADD31C,1.0068*%
%ADD30C,1.3038*%
%ADD26C,2.0086*%
%ADD25C,1.7038*%
G75*
%LPD*%
G75*
G36*
G01X69040Y22860D02*
X30940Y60960D01*
Y496330D01*
G02X48720Y503050I10160J0D01*
G03X68710Y492880I22855J20193D01*
G02X74870Y475510I-958J-10117D01*
G03X84970Y323520I70370J-71654D01*
G02X82840Y306040I-6096J-8127D01*
G03X122750Y290030I11901J-28081D01*
G02X133290Y304140I9328J4024D01*
G03X226800Y345260I11946J99718D01*
G02X244980Y341490I8251J-5929D01*
G03X303550Y337850I29801J6490D01*
G02X321040Y340840I9579J-3382D01*
G03X435730Y310290I78200J63019D01*
G02X449370Y302890I3693J-9463D01*
G03X490350Y337470I29871J6173D01*
G02X485340Y352160I3699J9461D01*
G03X499560Y408620I-86098J51705D01*
G02X508760Y419210I10147J476D01*
G03X485890Y472580I-2840J30368D01*
G02X471870Y473220I-6675J7660D01*
G03X340270Y485150I-72629J-69361D01*
G02X324510Y490690I-5962J8227D01*
G03X295340Y452100I-29409J-8090D01*
G02X304950Y438440I73J-10159D01*
G03X300190Y387290I94291J-34571D01*
G02X286320Y376210I-10023J-1675D01*
G03X259050Y374110I-11542J-28231D01*
G02X243830Y384750I-5245J8704D01*
G03X211070Y479700I-98592J19110D01*
G02X212950Y496340I6662J7674D01*
G03X168950Y515990I-14374J26901D01*
G02X157810Y503500I-9868J-2412D01*
G03X112760Y498890I-12565J-99640D01*
G02X100010Y512190I-3282J9615D01*
G03X48720Y543430I-28428J11050D01*
G02X30940Y550150I-7620J6720D01*
G01Y760490D01*
G02X48720Y767210I10160J0D01*
G03Y807590I22860J20190D01*
G02X30940Y814310I-7620J6720D01*
G01Y1011950D01*
G02X48720Y1018670I10160J0D01*
G03Y1059050I22860J20190D01*
G02X30940Y1065770I-7620J6720D01*
G01Y1265950D01*
G02X48720Y1272670I10160J0D01*
G03Y1313050I22860J20190D01*
G02X30940Y1319770I-7620J6720D01*
G01Y1517410D01*
G02X48720Y1524130I10160J0D01*
G03Y1564510I22860J20190D01*
G02X30940Y1571230I-7620J6720D01*
G01Y1776490D01*
G02X48720Y1783210I10160J0D01*
G03Y1823590I22860J20190D01*
G02X30940Y1830310I-7620J6720D01*
G01Y2022870D01*
G02X48720Y2029590I10160J0D01*
G03Y2069970I22860J20190D01*
G02X30940Y2076690I-7620J6720D01*
G01Y2279410D01*
G02X48720Y2286130I10160J0D01*
G03Y2326510I22860J20190D01*
G02X30940Y2333230I-7620J6720D01*
G01Y2533410D01*
G02X48720Y2540130I10160J0D01*
G03Y2580510I22860J20190D01*
G02X30940Y2587230I-7620J6720D01*
G01Y2789950D01*
G02X48720Y2796670I10160J0D01*
G03Y2837050I22860J20190D01*
G02X30940Y2843770I-7620J6720D01*
G01Y3041410D01*
G02X48720Y3048130I10160J0D01*
G03Y3088510I22860J20190D01*
G02X30940Y3095230I-7620J6720D01*
G01Y3297950D01*
G02X48720Y3304670I10160J0D01*
G03Y3345050I22860J20190D01*
G02X30940Y3351770I-7620J6720D01*
G01Y3546870D01*
G02X48720Y3553590I10160J0D01*
G03Y3593970I22860J20190D01*
G02X30940Y3600690I-7620J6720D01*
G01Y3803410D01*
G02X48720Y3810130I10160J0D01*
G03Y3850510I22860J20190D01*
G02X30940Y3857230I-7620J6720D01*
G01Y4062490D01*
G02X48720Y4069210I10160J0D01*
G03Y4109590I22860J20190D01*
G02X30940Y4116310I-7620J6720D01*
G01Y4277360D01*
X69040Y4315460D01*
X83040D01*
G02X88750Y4296900I-1J-10159D01*
G03X201730I56490J-83040D01*
G02X207440Y4315460I5711J8401D01*
G01X253190D01*
X256360Y4312280D01*
X496350D01*
G03X529790Y4308620I20131J29339D01*
G01X532910Y4309880D01*
X546380Y4296410D01*
X590280Y4252500D01*
Y4048760D01*
X704040Y3935000D01*
Y3065600D01*
X697690Y3059250D01*
Y1522550D01*
X758530Y1461710D01*
X758920Y1460860D01*
G03X774760Y1445020I28940J13100D01*
G01X775610Y1444630D01*
X825550Y1394690D01*
X825110Y1392110D01*
G03X861710Y1355510I31330J-5270D01*
G01X864290Y1355950D01*
X978180Y1242060D01*
X1219480D01*
X1222110Y1239430D01*
X1328970D01*
X1708120Y860280D01*
G02X1705740Y844140I-7183J-7186D01*
G03X1696290Y788820I16839J-31344D01*
G02X1696170Y781840I-3750J-3427D01*
G03X1747850Y780900I25395J-24920D01*
G02X1747970Y787880I3750J3427D01*
G03X1753920Y795960I-25387J24926D01*
G02X1770060Y798340I8954J-4803D01*
G01X1895030Y673370D01*
G02X1887580Y656030I-7182J-7185D01*
G03X1915220Y641650I-944J-35568D01*
G02X1923380Y657860I8163J6050D01*
G01X2189760D01*
X2189850Y657770D01*
X2342430D01*
X2355020Y645180D01*
Y592190D01*
X2329620Y566790D01*
Y533030D01*
X2342340Y520310D01*
Y454660D01*
X2367740Y429260D01*
X2926540D01*
X3040840Y543560D01*
Y734060D01*
X3028140Y746760D01*
Y777540D01*
G02X3039570Y787620I10160J0D01*
G03X3068250Y835540I3811J30261D01*
G02X3070620Y849680I8285J5880D01*
G03X3041940Y902950I-17757J24795D01*
G02X3028140Y912440I-3639J9487D01*
G01Y1229760D01*
G02X3042110Y1239180I10159J3D01*
G03X3073290Y1244220I11426J28279D01*
G02X3086620Y1244060I6573J-7747D01*
G03X3137490Y1244230I25340J28479D01*
G02X3144300Y1244220I3399J-3775D01*
G03X3195890Y1244640I25567J28272D01*
G02X3202820I3465J-3716D01*
G03X3202780Y1300390I25981J27894D01*
G02X3195850I-3465J3716D01*
G03X3144340Y1300800I-25979J-27899D01*
G02X3137530Y1300810I-3399J3775D01*
G03X3082080Y1296220I-25575J-28269D01*
G02X3068980Y1293760I-7965J6305D01*
G03X3042110Y1295740I-15446J-26300D01*
G02X3028140Y1305160I-3811J9417D01*
G01Y1419200D01*
G02X3045400Y1426470I10160J3D01*
G03X3090730Y1467090I21321J21810D01*
G02X3091890Y1480860I8002J6260D01*
G03X3074850Y1546200I-25649J28203D01*
G02X3069960Y1563280I2292J9896D01*
G01X3091640Y1584960D01*
X3236260D01*
X3237170Y1581010D01*
G03X3296630I29730J6790D01*
G01X3297540Y1584960D01*
X3654520D01*
G03X3747960I46720J88900D01*
G01X3877530D01*
G02X3884250Y1567180I0J-10160D01*
G03X3891780Y1516570I20190J-22861D01*
G02X3893780Y1499290I-4214J-9243D01*
G03X3897900Y1337400I61458J-79433D01*
G02X3895190Y1319380I-5797J-8342D01*
G03X3891780Y1262570I9251J-29063D01*
G02X3893780Y1245290I-4214J-9243D01*
G03X3896580Y1084340I61459J-79430D01*
G02X3894730Y1066790I-5933J-8247D01*
G03Y1010930I12250J-27930D01*
G02X3896580Y993380I-4083J-9303D01*
G03X3894990Y831510I58660J-81519D01*
G02X3892140Y813760I-6098J-8125D01*
G03Y755960I9760J-28900D01*
G02X3894990Y738210I-3248J-9625D01*
G03X3925950Y561800I60251J-80348D01*
G02X3931500Y546530I-2962J-9720D01*
G03X3930720Y514450I25540J-16670D01*
G02X3925010Y499630I-8770J-5131D01*
G03X3988200Y498730I30237J-95770D01*
G02X3982910Y513710I3328J9599D01*
G03X3982110Y547240I-25870J16157D01*
G02X3987220Y562660I8347J5791D01*
G03X3940050Y757130I-31992J95196D01*
G02X3929360Y771600I-1540J10046D01*
G03Y798120I-27460J13260D01*
G02X3940050Y812590I9150J4424D01*
G03X3985610Y816130I15204J99271D01*
G02X3998230Y802960I3077J-9683D01*
G03X4031100Y822680I28639J-10482D01*
G02X4025410Y840010I1412J10063D01*
G03X3944960Y1011760I-70170J71848D01*
G02X3934690Y1026110I-1039J10106D01*
G03Y1051610I-27710J12750D01*
G02X3944960Y1065960I9231J4244D01*
G03X3943560Y1265610I10281J99902D01*
G02X3932900Y1279350I-1179J10090D01*
G03X3930980Y1305350I-28460J10969D01*
G02X3941240Y1320410I8844J5000D01*
G03X3943560Y1519610I13997J99450D01*
G02X3932900Y1533350I-1179J10090D01*
G03X3930980Y1559350I-28460J10969D01*
G02X3941240Y1574410I8844J5000D01*
G03X4000890Y1584400I14006J99450D01*
G01X4001980Y1584960D01*
X4019080D01*
Y1576450D01*
X4015890Y1575170D01*
G03X4057750Y1546830I11359J-28308D01*
G02X4075090Y1554010I10160J-8D01*
G01X4082240Y1546860D01*
Y60960D01*
X4044140Y22860D01*
X3535980D01*
G02X3527100Y37970I-5J10161D01*
G03X3534410Y66060I-50369J28104D01*
G01Y181080D01*
G03X3419050I-57680J-5D01*
G01Y66060D01*
G03X3426360Y37970I57679J14D01*
G02X3417480Y22860I-8875J-4949D01*
G01X2969000D01*
G02X2960120Y37970I-5J10161D01*
G03X2967430Y66060I-50369J28104D01*
G01Y181080D01*
G03X2852070I-57680J-5D01*
G01Y121080D01*
G02X2838520Y111500I-10159J-4D01*
G03X2799240Y100650I-11874J-33539D01*
G02X2785310Y99010I-7825J6482D01*
G03X2791340Y47870I-21371J-28445D01*
G02X2805270Y49510I7825J-6482D01*
G03X2843390Y46570I21368J28450D01*
G02X2857390Y41870I4779J-8966D01*
G03X2859380Y37970I52334J24246D01*
G02X2850500Y22860I-8875J-4949D01*
G01X2367880D01*
G02X2359470Y38730I-4J10161D01*
G03X2309010I-25230J17130D01*
G02X2300600Y22860I-8406J-5709D01*
G01X1979140D01*
Y139460D01*
G02X1992260Y149180I10159J2D01*
G03X2020910Y201590I8884J29179D01*
G02X2020480Y216680I6581J7739D01*
G03X1991830Y268300I-21039J22084D01*
G02X1979140Y278130I-2532J9838D01*
G01Y285340D01*
X1985360D01*
X1986390Y284850D01*
G03X1991830Y341960I13047J27571D01*
G02X1979140Y351790I-2532J9838D01*
G01Y359000D01*
X1985360D01*
X1986390Y358510D01*
G03X2015830Y411800I13051J27567D01*
G02Y428940I5460J8570D01*
G03X1988440Y483110I-16390J25723D01*
G02X1975120Y489460I-3656J9477D01*
G03X1922280Y499110I-29018J-9399D01*
G02X1906420I-7930J6350D01*
G03X1859740Y500250I-23819J-19050D01*
G02X1844500I-7620J6721D01*
G03X1796870Y497860I-22862J-20190D01*
G02X1780370I-8250J5925D01*
G03X1731780Y499110I-24769J-17799D01*
G02X1715920I-7930J6350D01*
G03X1667330Y497860I-23821J-19049D01*
G02X1650830I-8250J5925D01*
G03X1602240Y499110I-24769J-17799D01*
G02X1586380I-7930J6350D01*
G03X1537790Y497860I-23821J-19049D01*
G02X1521290I-8250J5925D01*
G03X1472700Y499110I-24769J-17799D01*
G02X1456840I-7930J6350D01*
G03X1408250Y497860I-23821J-19049D01*
G02X1391750I-8250J5925D01*
G03X1364790Y449640I-24769J-17798D01*
G02X1369500Y444570I-370J-5067D01*
G01Y438150D01*
G02X1356810Y428320I-10158J8D01*
G03X1330150Y374960I-7613J-29536D01*
G02Y359100I-6350J-7930D01*
G03X1331000Y310810I19051J-23817D01*
G02X1330440Y294110I-6061J-8156D01*
G03X1328510Y244160I16501J-25650D01*
G02X1329060Y228420I-6140J-8094D01*
G03X1356790Y175940I20080J-22956D01*
G02X1369500Y166100I2549J-9836D01*
G01Y22860D01*
X69040D01*
G37*
G36*
G01X678640Y4010660D02*
X627840Y4061460D01*
Y4290060D01*
X564340Y4353560D01*
X550150D01*
X548790Y4356510D01*
G03X484170I-32310J-14890D01*
G01X482810Y4353560D01*
X107140D01*
X69040Y4391660D01*
Y4399080D01*
G02X86240Y4406410I10160J4D01*
G03Y4529310I59000J61450D01*
G02X69040Y4536640I-7040J7326D01*
G01Y4633150D01*
G02X85270Y4641300I10159J4D01*
G03Y4802420I59970J80560D01*
G02X69040Y4810570I-6071J8146D01*
G01Y4907080D01*
G02X86240Y4914410I10160J4D01*
G03X206690Y5034860I59000J61450D01*
G02X214020Y5052060I7326J7040D01*
G01X310530D01*
G02X318680Y5035830I4J-10159D01*
G03X473430Y5043560I80564J-59968D01*
G01X472100Y5045010D01*
Y5052060D01*
X490380D01*
X490940Y5047610D01*
G03X561540I35300J4450D01*
G01X562100Y5052060D01*
X724020D01*
X724650Y5047710D01*
G03X778660Y5033010I30189J4349D01*
G02X794520I7930J-6350D01*
G03X848530Y5047710I23821J19049D01*
G01X849160Y5052060D01*
X932640D01*
X942170Y5042530D01*
X942550Y5041410D01*
G03X964790Y5019170I33690J11450D01*
G01X965910Y5018790D01*
X1072340Y4912360D01*
X1173940D01*
X1250140Y4988560D01*
X1638810D01*
G02X1648390Y4975020I1J-10158D01*
G03X1647060Y4956130I33549J-11854D01*
G02X1632960Y4944840I-9959J-2012D01*
G03X1653320Y4919390I-14518J-32483D01*
G02X1667420Y4930680I9959J2012D01*
G03X1704910Y4935990I14521J32481D01*
G03X1761700Y4974950I23328J26867D01*
G02X1771260Y4988560I9557J3449D01*
G01X1928840D01*
X1929840Y4984780D01*
G03X1950270Y4961140I34400J9081D01*
G02X1953140Y4955020I-1999J-4670D01*
G03X1954310Y4931390I34100J-10156D01*
G02X1952060Y4925020I-4702J-1921D01*
G03X1963720Y4858710I17178J-31160D01*
G01X1965360Y4858450D01*
X1970120Y4853690D01*
X1966150Y4849720D01*
Y4774780D01*
X2002680Y4738250D01*
Y4680300D01*
G02X1986680Y4671980I-10160J-5D01*
G03X1974040Y4677570I-20436J-29123D01*
G02X1966430Y4690040I2226J9915D01*
G03X1935410Y4734420I-34433J8964D01*
G02X1930820Y4739400I487J5054D01*
G03X1891830Y4703440I-35579J-541D01*
G02X1896420Y4698460I-487J-5054D01*
G03X1910580Y4670590I35577J544D01*
G02X1907530Y4652790I-6114J-8114D01*
G03X1892080Y4594740I10709J-33931D01*
G02X1892210Y4587990I-3731J-3448D01*
G03X1887930Y4547950I27029J-23138D01*
G01X1888540Y4546820D01*
Y4540460D01*
X1881540D01*
X1859740Y4518660D01*
X1688840D01*
G02X1679420Y4532630I-3J10159D01*
G03X1622860I-28280J11430D01*
G02X1613440Y4518660I-9417J-3811D01*
G01X1554540D01*
G02X1545120Y4532630I-3J10159D01*
G03X1488560I-28280J11430D01*
G02X1479140Y4518660I-9417J-3811D01*
G01X1420240D01*
G02X1410820Y4532630I-3J10159D01*
G03X1354260I-28280J11430D01*
G02X1344840Y4518660I-9417J-3811D01*
G01X1250140D01*
X1145680Y4623120D01*
X1147730Y4626520D01*
G03X1126850Y4679120I-30490J18341D01*
G01X1123140Y4680160D01*
Y4693060D01*
X1123600Y4694070D01*
G03Y4723650I-32360J14790D01*
G01X1123140Y4724660D01*
Y4734560D01*
X1059640Y4798060D01*
X1023890D01*
G02X1013740Y4808380I7J10158D01*
G03X958200Y4791440I-30499J476D01*
G01X960630Y4787950D01*
X921980Y4749300D01*
G02X904650Y4755850I-7189J7180D01*
G03X846910Y4781440I-35511J-2191D01*
G02X840570I-3170J3970D01*
G03X790700Y4731260I-22225J-27783D01*
G03X840570Y4681080I27645J-22397D01*
G02X846910I3170J-3970D01*
G03X871120Y4673330I22237J27777D01*
G02X881840Y4663190I562J-10142D01*
G01Y4340860D01*
X843740Y4302760D01*
Y4074160D01*
X838160Y4068580D01*
X834850Y4070330D01*
G03X786770Y4022250I-16610J-31470D01*
G01X788520Y4018940D01*
X780240Y4010660D01*
X678640D01*
G37*
G36*
G01X2380440Y492760D02*
Y518160D01*
X2355040Y543560D01*
Y556260D01*
X2358420Y559640D01*
X2359300Y560020D01*
G03X2377780Y578500I-14160J32640D01*
G01X2378160Y579380D01*
X2380440Y581660D01*
Y588200D01*
X2380470Y588490D01*
G03Y596830I-35330J4170D01*
G01X2380440Y597120D01*
Y657860D01*
X2342340Y695960D01*
X2225640D01*
G02X2215490Y706530I2J10160D01*
G03X2144390I-35550J1430D01*
G02X2134240Y695960I-10152J-410D01*
G01X1913260D01*
X1908300Y700920D01*
G02X1914800Y718240I7185J7183D01*
G03X1876920Y756120I-2380J35500D01*
G02X1859600Y749620I-10137J685D01*
G01X1736450Y872770D01*
G02X1737340Y887920I7188J7179D01*
G03X1694500Y930760I-18900J23940D01*
G02X1679350Y929870I-7971J6298D01*
G01X1573580Y1035640D01*
G02X1575470Y1051500I7182J7187D01*
G03X1575560Y1051550I-15370J27771D01*
G02X1588920Y1049120I5327J-8653D01*
G03X1636820Y1046420I25122J19442D01*
G02X1651000Y1046810I7290J-7079D01*
G03X1649760Y1092300I21541J23349D01*
G02X1635580Y1091910I-7290J7079D01*
G03X1597390Y1095620I-21544J-23350D01*
G02X1584030Y1098050I-5327J8653D01*
G03X1531800Y1095170I-25122J-19443D01*
G02X1515940Y1093280I-8673J5292D01*
G01X1316360Y1292860D01*
X996140D01*
X929830Y1359170D01*
X933130Y1362760D01*
G03X934740Y1364640I-23308J21590D01*
G02X947660Y1367230I7979J-6285D01*
G03X938160Y1414650I15458J27758D01*
G02X925240Y1412060I-7979J6285D01*
G03X888240Y1407650I-15454J-27759D01*
G01X884650Y1404350D01*
X819410Y1469590D01*
X819560Y1471880D01*
G03X785780Y1505660I-31700J2080D01*
G01X783490Y1505510D01*
X742140Y1546860D01*
Y3318970D01*
G02X757260Y3327840I10161J2D01*
G03Y3381080I14880J26620D01*
G02X742140Y3389950I-4959J8868D01*
G01Y3915960D01*
X832380Y4006200D01*
X833200Y4006580D01*
G03X850520Y4023900I-14960J32280D01*
G01X850900Y4024720D01*
X872040Y4045860D01*
Y4280260D01*
X894540Y4302760D01*
Y4331980D01*
X897100Y4334540D01*
Y4686860D01*
G03X904490Y4704850I-27961J21999D01*
G01X904690Y4706610D01*
X970740Y4772660D01*
X1046940D01*
X1068750Y4750850D01*
G02X1068160Y4735940I-7185J-7182D01*
G03X1079740Y4675190I23080J-27079D01*
G02X1085520Y4660970I-3279J-9617D01*
G03X1085580Y4628630I31721J-16111D01*
G02X1082470Y4615750I-9043J-4632D01*
G03X1074310Y4566140I20768J-28892D01*
G02X1072760Y4552590I-8256J-5919D01*
G03X1071520Y4500270I23480J-26731D01*
G02X1072020Y4493530I-3532J-3651D01*
G03X1067940Y4456930I28219J-21673D01*
G02X1063720Y4443830I-9222J-4259D01*
G03X1059130Y4384980I17518J-30970D01*
G02X1059580Y4369430I-6308J-7964D01*
G03X1077330Y4307770I23660J-26574D01*
G02X1084440Y4292670I-1686J-10018D01*
G03X1081810Y4287030I30806J-17799D01*
G02X1075560Y4283910I-4773J1742D01*
G03X1082620Y4218810I-10319J-34052D01*
G02X1097740Y4209950I4961J-8865D01*
G01Y4172570D01*
G02X1087950Y4162420I-10159J2D01*
G03Y4091300I1290J-35560D01*
G02X1097740Y4081150I-369J-10152D01*
G01Y4023340D01*
X1108240Y4012840D01*
Y3961210D01*
X1242920Y3826530D01*
X1292230D01*
X1293360Y3823000D01*
G03X1320950Y3798840I33882J10859D01*
G01X1322520Y3798560D01*
X1374200Y3746880D01*
Y3731460D01*
G02X1358490Y3722950I-10161J1D01*
G03X1320110Y3723290I-19455J-29790D01*
G02X1313390Y3724490I-2699J4302D01*
G03X1301520Y3677940I-24150J-18630D01*
G02X1308000Y3675770I2046J-4649D01*
G03X1365550Y3669430I31040J17390D01*
G02X1380300Y3669830I7564J-6781D01*
G01X1433200Y3616930D01*
Y3549600D01*
G02X1418420Y3540550I-10159J-3D01*
G03X1381880Y3538040I-16179J-31689D01*
G03X1363830Y3471630I-17766J-30829D01*
G02X1370930Y3454290I-84J-10158D01*
G01X1359810Y3443170D01*
Y2881090D01*
G02X1346880Y2871320I-10160J5D01*
G03X1298430Y2836660I-10382J-36680D01*
G02X1288280Y2827040I-10144J538D01*
G03X1326310Y2786900I-38J-38121D01*
G02X1336460Y2796520I10144J-538D01*
G03X1346880Y2797960I41J38120D01*
G02X1359810Y2788190I2770J-9775D01*
G01Y2769030D01*
G02X1348670Y2758920I-10159J2D01*
G03X1352990Y2698930I-2925J-30361D01*
G01X1355760Y2699610D01*
X1364440Y2690930D01*
Y2657020D01*
X1401260Y2620200D01*
G02X1399900Y2604700I-7188J-7179D01*
G03X1449460Y2555140I20420J-29140D01*
G02X1464960Y2556500I8321J-5828D01*
G01X1477790Y2543670D01*
G02X1477760Y2536450I-3589J-3595D01*
G03X1522610Y2464970I30273J-30816D01*
G02X1536200Y2455400I3429J-9565D01*
G01Y2450050D01*
G02X1523090Y2440320I-10162J-6D01*
G03X1548170Y2377700I-12518J-41346D01*
G02X1564190Y2379880I8839J-5004D01*
G01X1581640Y2362430D01*
Y2362140D01*
X1633720Y2310060D01*
X1634010D01*
X1862970Y2081100D01*
X2168270D01*
X2294200Y1955170D01*
G02X2289730Y1938200I-7184J-7181D01*
G03X2320210Y1888030I8157J-29388D01*
G02X2334830Y1888290I7435J-6925D01*
G01X2497750Y1725370D01*
G03X2537530Y1679830I22906J-20135D01*
G01X2540990Y1682130D01*
X2650860Y1572260D01*
X2670670D01*
X2680460Y1562470D01*
X2680840Y1561650D01*
G03X2747820Y1568340I32343J14829D01*
G01X2748740Y1572260D01*
X2913840D01*
X2979880Y1506220D01*
Y1067260D01*
G02X2968980Y1057130I-10158J1D01*
G03Y986150I-2580J-35490D01*
G02X2979880Y976020I742J-10131D01*
G01Y726620D01*
X2975980Y722720D01*
Y580300D01*
X2888440Y492760D01*
X2380440D01*
G37*
G36*
G01X1110420Y4937780D02*
X1059640Y4988560D01*
Y5089150D01*
X1099950Y5129460D01*
X1373570D01*
X1421250Y5177140D01*
X1422070Y5177520D01*
G03X1429240Y5181900I-14833J32339D01*
G02X1437190Y5176260I3145J-3989D01*
G03X1490280Y5184870I28849J-9900D01*
G02X1490790Y5191600I4042J3078D01*
G03X1439830Y5241220I-24742J25568D01*
G02X1426770Y5239600I-7483J6873D01*
G03X1392140Y5242080I-19534J-29739D01*
G02X1385490Y5244300I-2161J4596D01*
G03X1328360Y5252280I-31447J-16642D01*
G02X1321610Y5251760I-3666J3517D01*
G03X1267250Y5209640I-21573J-28297D01*
G02X1257890Y5195540I-9363J-3941D01*
G01X1241240D01*
Y5301230D01*
X1276850Y5336840D01*
X1277670Y5337220D01*
G03X1296720Y5358690I-14828J32343D01*
G02X1311090Y5364600I9676J-3101D01*
G03X1293650Y5407020I16439J31554D01*
G02X1279280Y5401110I-9676J3101D01*
G03X1253940Y5404010I-16447J-31550D01*
G02X1241240Y5413850I-2541J9837D01*
G01Y5458860D01*
X1293240Y5510860D01*
X1874240D01*
X1943240Y5579860D01*
X2035030D01*
G02X2044180Y5565290I-3J-10160D01*
G03X2109320Y5562960I32060J-15430D01*
G02X2111940Y5569460I4722J1875D01*
G03X2125200Y5579860I-14702J32399D01*
G01X2219240D01*
X2237260Y5561840D01*
X2236950Y5559370D01*
G03X2276750Y5519570I35290J-4510D01*
G01X2279220Y5519880D01*
X2288240Y5510860D01*
X2288340D01*
G02X2297610Y5496540I1J-10160D01*
G03X2353610Y5495750I27830J-12480D01*
G02X2357840Y5508390I9386J3887D01*
G03X2361410Y5510860I-15524J26253D01*
G01X2380490D01*
X2390630Y5500720D01*
G02X2385620Y5483620I-7185J-7179D01*
G03X2413500Y5419610I7624J-34756D01*
G02X2429440Y5411260I5781J-8354D01*
G01Y5244140D01*
X2480620Y5192960D01*
X2610780D01*
X2699230Y5281410D01*
Y5396600D01*
X2709000Y5406370D01*
X2860080D01*
G02X2869640Y5392790I-5J-10158D01*
G03X2936660I33510J-11970D01*
G02X2946220Y5406370I9565J3422D01*
G01X2946480D01*
G02X2956160Y5393110I3J-10161D01*
G03X3014750Y5356660I33884J-10849D01*
G02X3028760Y5356750I7052J-7315D01*
G03X3084760Y5398960I24368J25924D01*
G01X3084200Y5400060D01*
Y5406370D01*
X3092930D01*
X3142440Y5356860D01*
Y5140960D01*
X3117060Y5115580D01*
X2967080D01*
X2966460Y5119940D01*
G03X2955440Y5140940I-35215J-5088D01*
G02X2954800Y5147680I3452J3728D01*
G03X2891960Y5158890I-28659J21082D01*
G02X2880650Y5146030I-9761J-2819D01*
G03X2839810Y5107620I-5408J-35167D01*
G01X2840030Y5105250D01*
X2806030Y5071250D01*
X2804820Y5070880D01*
G03X2781220Y5047280I10420J-34020D01*
G01X2780850Y5046070D01*
X2774160Y5039380D01*
X2708540D01*
G03X2662620I-22960J-27180D01*
G01X2547710D01*
X2471510Y4963180D01*
X2343020D01*
X2341830Y4966590D01*
G03X2274640Y4966570I-33592J-11729D01*
G01X2273450Y4963160D01*
X2083570D01*
Y5254600D01*
X2086970Y5255790D01*
G03X2080510Y5324570I-11729J33592D01*
G02X2074830Y5341800I1504J10047D01*
G01X2080410Y5347380D01*
X2082100Y5347610D01*
G03X2060320Y5414160I-4863J35247D01*
G02X2053770Y5415670I-2419J4467D01*
G03X1992770Y5379560I-28924J-20718D01*
G01X1994320Y5376310D01*
X1981230Y5363220D01*
Y5287600D01*
G02X1971110Y5277440I-10160J0D01*
G03X1987450Y5210190I128J-35579D01*
G02X2002240Y5201140I4629J-9045D01*
G01Y5030150D01*
G02X1985900Y5022090I-10159J2D01*
G03X1934900Y5013980I-21656J-28230D01*
G01X1239610D01*
X1163410Y4937780D01*
X1110420D01*
G37*
G36*
G01X2748740Y1635760D02*
X2651600Y1732900D01*
G02X2657780Y1750190I7188J7180D01*
G03X2675720Y1758380I-3017J30351D01*
G02X2689680I6980J-7379D01*
G03Y1802700I20960J22160D01*
G02X2675720I-6980J7379D01*
G03X2624410Y1783560I-20959J-22159D01*
G02X2607120Y1777380I-10110J1008D01*
G01X2326540Y2057960D01*
X2327320Y2060800D01*
G03X2289860Y2098260I-29430J8030D01*
G01X2287020Y2097480D01*
X2244580Y2139920D01*
G02X2249780Y2157070I7182J7186D01*
G03X2254650Y2215490I-5969J29911D01*
G02X2249260Y2229700I3607J9495D01*
G03X2211400Y2215350I-27016J14160D01*
G02X2216790Y2201140I-3607J-9495D01*
G03X2214680Y2196010I27036J-14119D01*
G02X2202240Y2189240I-9702J3014D01*
G03X2174990Y2183680I-8198J-29379D01*
G02X2162290I-6350J7930D01*
G03X2112770Y2161300I-19052J-23819D01*
G01X2112550Y2156460D01*
X1897840D01*
X1700670Y2353630D01*
G02X1700750Y2368080I7182J7185D01*
G03X1639660Y2429170I-30190J30900D01*
G02X1625210Y2429090I-7265J7102D01*
G01X1612090Y2442210D01*
Y2556510D01*
X1477180Y2691420D01*
G02X1484360Y2708760I7188J7180D01*
G03X1453840Y2739280I-20J30500D01*
G02X1436500Y2732100I-10160J8D01*
G01X1418270Y2750330D01*
Y3188680D01*
G02X1430960Y3198510I10158J-8D01*
G03X1461450Y3207880I7607J29538D01*
G02X1474660Y3209650I7623J-6715D01*
G03X1481350Y3206340I16769J25476D01*
G02X1486460Y3191150I-3366J-9587D01*
G03X1514100Y3143920I25450J-16809D01*
G02X1524990Y3133930I732J-10133D01*
G03X1536520Y3110480I30497J435D01*
G02X1538290Y3096390I-6325J-7951D01*
G03X1581580Y3101860I24317J-18410D01*
G02X1579810Y3115950I6325J7951D01*
G03X1548280Y3163990I-24319J18406D01*
G02X1542060Y3169700I-1199J4936D01*
G03X1542230Y3171070I-30175J4440D01*
G02X1552990Y3180120I10102J-1089D01*
G03X1537140Y3235330I1948J30439D01*
G02X1521270Y3241460I-5933J8248D01*
G03X1468560Y3255290I-29833J-6340D01*
G02X1455350Y3253520I-7623J6715D01*
G03X1430960Y3257590I-16785J-25468D01*
G02X1418270Y3267420I-2532J9838D01*
G01Y3418950D01*
X1491660Y3492340D01*
Y3515580D01*
X1516840Y3540760D01*
X2748740D01*
X2755070Y3547090D01*
X2757220D01*
X3130480Y3920350D01*
Y3922500D01*
X3139940Y3931960D01*
X3142750Y3931220D01*
G03X3181520Y3969990I8030J30740D01*
G01X3180780Y3972800D01*
X3269440Y4061460D01*
X3271710D01*
G02X3281770Y4049910I-4J-10160D01*
G03X3344710I31470J-4350D01*
G02X3354770Y4061460I10064J1390D01*
G01X3363150D01*
Y4056070D01*
X3363110Y4055760D01*
G03X3420640Y4033600I31530J-3901D01*
G02X3437780Y4032800I8316J-5836D01*
G03X3497080Y4050630I27600J15732D01*
G02X3507220Y4061460I10138J670D01*
G01X3752040D01*
X3791310Y4022190D01*
Y3757880D01*
G02X3772640Y3752340I-10158J3D01*
G03Y3659380I-71400J-46480D01*
G02X3791310Y3653840I8512J-5543D01*
G01Y3503880D01*
G02X3772640Y3498340I-10158J3D01*
G03Y3405380I-71400J-46480D01*
G02X3791310Y3399840I8512J-5543D01*
G01Y3339210D01*
G02X3777910Y3329580I-10161J0D01*
G03X3738980Y3291920I-9712J-28912D01*
G02X3726270Y3279290I-9731J-2918D01*
G03X3688650Y3282110I-25020J-81432D01*
G02X3677000Y3291590I-1504J10049D01*
G03X3630480Y3263930I-30452J-1734D01*
G02X3633240Y3249180I-5349J-8634D01*
G03X3781300Y3226980I68000J-51319D01*
G01X3780190Y3230020D01*
X3792370Y3242190D01*
G02X3809710Y3235000I7181J-7187D01*
G01Y3116810D01*
X3719920Y3027020D01*
X3717280Y3027530D01*
G03X3759960Y3005580I-16045J-83667D01*
G02X3759780Y3020120I7005J7358D01*
G01X3823600Y3083940D01*
G02X3840940Y3076760I7181J-7186D01*
G01Y1648460D01*
X3828240Y1635760D01*
X3808240D01*
G02X3798410Y1648490I0J10161D01*
G03X3604070I-97170J25370D01*
G02X3594240Y1635760I-9830J-2569D01*
G01X2969700D01*
G03X2922440I-23630J-19280D01*
G01X2748740D01*
G37*
G36*
G01X3570780Y5396250D02*
X3528080Y5353550D01*
G02X3510740Y5360730I-7181J7185D01*
G01Y5708490D01*
G02X3524320Y5718050I10159J-5D01*
G03X3624810Y5788840I25309J70793D01*
G01Y5928360D01*
X3967940D01*
X3980640Y5915660D01*
Y5387530D01*
X3976580Y5386690D01*
G03Y5205030I18670J-90830D01*
G01X3980640Y5204190D01*
Y5085390D01*
G02X3969080Y5075330I-10160J3D01*
G03X3894240Y4896080I-13838J-99471D01*
G01X3896240Y4894550D01*
Y4886960D01*
X3889260D01*
X3887910Y4887960D01*
G03X3844220Y4886960I-21202J-28571D01*
G01X3782180D01*
G03X3765160Y4898100I-27182J-22958D01*
G02X3760940Y4915080I2899J9735D01*
G03X3616050Y4976120I-59698J60776D01*
G01X3616030Y4971060D01*
X3552630D01*
X3544120Y4962550D01*
X3020170D01*
X3017570Y4959950D01*
X2995650D01*
X2969070Y4933360D01*
G02X2952190Y4937510I-7184J7186D01*
G03X2885900Y4941690I-33948J-10650D01*
G01X2885520Y4940870D01*
X2839550Y4894900D01*
X2745550D01*
X2737610Y4886960D01*
X2723340D01*
X2445000Y4608620D01*
X2318610D01*
X2228650Y4518660D01*
X2186300D01*
Y4572230D01*
X2173930Y4584600D01*
Y4689200D01*
G02X2185390Y4699270I10159J-5D01*
G03X2222060Y4749850I4546J35287D01*
G03X2226560Y4779540I-29641J19679D01*
G02X2233240Y4792080I9751J2855D01*
G03X2248250Y4850550I-10741J33919D01*
G02X2248330Y4857650I3674J3509D01*
G01X2262850Y4872170D01*
X2278570D01*
G03X2330290Y4920570I23532J26687D01*
G02X2331060Y4927560I4028J3094D01*
G03X2339440Y4937760I-22825J27294D01*
G01X2482040D01*
X2558240Y5013960D01*
X2649740D01*
X2650120Y5009290D01*
G03X2721040I35460J2910D01*
G01X2721420Y5013960D01*
X2788010D01*
G03X2841120Y5061270I27229J22899D01*
G02X2841230Y5068350I3699J3483D01*
G01X2854690Y5081810D01*
G03X2884090Y5076400I20544J29051D01*
G02X2896750Y5067290I2527J-9840D01*
G03X2966930Y5077750I35487J2567D01*
G02X2976840Y5090160I9909J2249D01*
G01X3218640D01*
X3318900Y5190420D01*
X3440450D01*
X3571340Y5321310D01*
G02X3588560Y5312560I7183J-7184D01*
G03X3645600Y5391750I106672J-16697D01*
G01X3642300Y5390040D01*
X3636100Y5396250D01*
X3570780D01*
G37*
%LPC*%
G75*
G36*
G01X585610Y2970360D02*
G03Y2957040I7671J-6660D01*
G02X539570I-23020J-20010D01*
G03Y2970360I-7671J6660D01*
G02X585610I23020J20010D01*
G37*
G36*
G01Y2574120D02*
G03Y2560800I7671J-6660D01*
G02X539570I-23020J-20010D01*
G03Y2574120I-7671J6660D01*
G02X585610I23020J20010D01*
G37*
G36*
G01X564020Y2059990D02*
G03X559260Y2055070I319J-5071D01*
G02X521480Y2091640I-35563J1061D01*
G03X526240Y2096560I-319J5071D01*
G02X564020Y2059990I35563J-1061D01*
G37*
G36*
G01X585220Y1897370D02*
G03X584760Y1890720I3596J-3590D01*
G02X531190Y1894470I-28415J-21411D01*
G03X531650Y1901120I-3596J3590D01*
G02X533190Y1945840I28420J21408D01*
G03Y1952510I-3835J3335D01*
G02X586900Y1952560I26833J23362D01*
G03Y1945890I3835J-3335D01*
G02X585220Y1897370I-26833J-23360D01*
G37*
G36*
G01X3423690Y1412490D02*
G03X3416890Y1412090I-3179J-3963D01*
G02X3413840Y1464780I-25350J24966D01*
G03X3420640Y1465180I3179J3963D01*
G02X3423690Y1412490I25350J-24966D01*
G37*
G36*
G01X3588020Y1145650D02*
G03X3601270Y1156280I3136J9664D01*
G02X3626090Y1099230I99974J9570D01*
G03X3609280Y1096780I-7601J-6738D01*
G02X3588020Y1145650I-32250J15030D01*
G37*
G36*
G01X1225100Y1078460D02*
G03X1211770Y1075510I-5039J-8822D01*
G02X1201580Y1121460I-25931J18354D01*
G03X1214910Y1124410I5039J8822D01*
G02X1225100Y1078460I25931J-18354D01*
G37*
G36*
G01X1375780Y827150D02*
G03X1362660Y826840I-6377J-7911D01*
G02X1364980Y877790I-23622J26603D01*
G03X1378020Y876290I7406J6955D01*
G02X1375780Y827150I16899J-25391D01*
G37*
G36*
G01X1167250Y688990D02*
Y687940D01*
X900210D01*
Y694580D01*
X893940D01*
X892870Y694050D01*
G02X859350Y698290I-13573J27311D01*
G03X845380Y697660I-6653J-7681D01*
G02X843370Y741890I-21961J21163D01*
G03X857340Y742520I6653J7681D01*
G02X887360Y750770I21959J-21162D01*
G03X900210Y760570I2688J9799D01*
G01Y772930D01*
X834220D01*
Y872990D01*
X900210D01*
Y955970D01*
X1167250D01*
Y756880D01*
G03X1180990Y747370I10160J-2D01*
G02X1175100Y693250I10731J-28548D01*
G03X1167250Y688990I-2769J-4260D01*
G37*
G36*
G01X311090Y705990D02*
G03X305490Y720460I-8915J4868D01*
G02X345010Y756690I9929J28839D01*
G03X358940Y749850I9856J2467D01*
G02X311090Y705990I40296J-91993D01*
G37*
G36*
G01X3110370Y491860D02*
G03X3095770I-7300J-7064D01*
G02Y534300I-21910J21220D01*
G03X3110370I7300J7064D01*
G02X3154190I21910J-21220D01*
G03X3168790I7300J7064D01*
G02Y491860I21910J-21220D01*
G03X3154190I-7300J-7064D01*
G02X3110370I-21910J21220D01*
G37*
G36*
G01X2623540Y329520D02*
G03X2609490Y327330I-5907J-8266D01*
G02X2599690Y372310I-24451J18230D01*
G03X2613380Y376170I4876J8913D01*
G02X2623540Y329520I30860J-17710D01*
G37*
G36*
G01X3803270Y449880D02*
G03X3796150Y436700I2479J-9853D01*
G02X3754200Y489190I-94908J-32842D01*
G03X3768630Y493230I5364J8630D01*
G02X3803270Y449880I27213J-13770D01*
G37*
G36*
G01X3025370Y389180D02*
G03X3026970Y375930I8404J-5707D01*
G02X2962440Y378380I-33730J-37369D01*
G03X2965050Y391470I-6209J8043D01*
G02X3025370Y389180I30875J17681D01*
G37*
G36*
G01X209370Y3783150D02*
G02X158480Y3805410I-64123J-77294D01*
G03X169510Y3818560I1345J10072D01*
G02X211540Y3800170I29072J9220D01*
G03X209370Y3783150I4313J-9198D01*
G37*
G36*
G01X207510Y2260650D02*
G02X159350Y2281290I-62270J-78790D01*
G03X170220Y2295090I1423J10060D01*
G02X172220Y2321670I28359J11231D01*
G03X161770Y2336800I-8780J5110D01*
G02X161810Y2534910I-16534J99058D01*
G03X172890Y2548780I1675J10023D01*
G02X174990Y2576050I28231J11542D01*
G03X164350Y2591270I-8704J5245D01*
G02X160430Y2789130I-19119J98590D01*
G03X171120Y2803600I1540J10046D01*
G02Y2830120I27460J13260D01*
G03X160430Y2844590I-9150J4424D01*
G02Y3043130I-15190J99270D01*
G03X171120Y3057600I1540J10046D01*
G02Y3084120I27460J13260D01*
G03X160430Y3098590I-9150J4424D01*
G02Y3297130I-15190J99270D01*
G03X171120Y3311600I1540J10046D01*
G02Y3338120I27460J13260D01*
G03X160430Y3352590I-9150J4424D01*
G02X160900Y3551060I-15197J99272D01*
G03X172140Y3564270I1589J10035D01*
G02X212830Y3545620I28978J9511D01*
G03X210160Y3528480I3897J-9385D01*
G02X205490Y3371510I-64921J-76623D01*
G03X208340Y3353760I6098J-8125D01*
G02Y3295960I-9760J-28900D01*
G03X205490Y3278210I3248J-9625D01*
G02Y3117510I-60250J-80350D01*
G03X208340Y3099760I6098J-8125D01*
G02Y3041960I-9760J-28900D01*
G03X205490Y3024210I3248J-9625D01*
G02Y2863510I-60250J-80350D01*
G03X208340Y2845760I6098J-8125D01*
G02Y2787960I-9760J-28900D01*
G03X205490Y2770210I3248J-9625D01*
G02X203840Y2608300I-60250J-80349D01*
G03X207610Y2590120I5929J-8251D01*
G02X211250Y2531550I-6490J-29801D01*
G03X208260Y2514060I3382J-9579D01*
G02X203260Y2353880I-63018J-78201D01*
G03X206490Y2335780I5867J-8291D01*
G02X210010Y2278040I-7907J-29459D01*
G03X207510Y2260650I3803J-9421D01*
G37*
G36*
G01X206170Y1753700D02*
G02X162940Y1772720I-60927J-79840D01*
G03X173820Y1787250I1789J9999D01*
G02Y1814470I27300J13610D01*
G03X162940Y1829000I-9091J4531D01*
G02X160900Y2027060I-17700J98858D01*
G03X172140Y2040270I1589J10035D01*
G02X212830Y2021620I28978J9511D01*
G03X210160Y2004480I3897J-9385D01*
G02X206170Y1848020I-64920J-76625D01*
G03X209530Y1830180I6161J-8076D01*
G02Y1771540I-8410J-29320D01*
G03X206170Y1753700I2801J-9764D01*
G37*
G36*
G01X768150Y879510D02*
G02X733410I-17370J-31050D01*
G03Y897240I-4966J8865D01*
G02X725110Y952930I17370J31052D01*
G03Y959970I-3661J3520D01*
G02X780130Y1004700I25627J24681D01*
G03X793460Y1001540I8396J5723D01*
G02X799660Y936610I17260J-31113D01*
G03X786340Y927250I-3164J-9655D01*
G02X768150Y897240I-35563J1038D01*
G03Y879510I4966J-8865D01*
G37*
G36*
G01X203840Y739420D02*
G02X164350Y756450I-58592J-81565D01*
G03X174990Y771670I1936J9975D01*
G02X172890Y798940I26131J15728D01*
G03X161810Y812810I-9405J3847D01*
G02X162940Y1010720I-16572J99053D01*
G03X173820Y1025250I1789J9999D01*
G02Y1052470I27300J13610D01*
G03X162940Y1067000I-9091J4531D01*
G02X165500Y1264230I-17694J98861D01*
G03X176570Y1278840I2045J9949D01*
G02Y1306880I27090J14020D01*
G03X165500Y1321490I-9025J4661D01*
G02X160900Y1519060I-20257J98367D01*
G03X172140Y1532270I1589J10035D01*
G02X212830Y1513620I28978J9511D01*
G03X210160Y1496480I3897J-9385D01*
G02X206750Y1340470I-64921J-76623D01*
G03X210650Y1322550I6223J-8030D01*
G02Y1263170I-6990J-29690D01*
G03X206750Y1245250I2323J-9890D01*
G02X206170Y1086020I-61509J-79392D01*
G03X209530Y1068180I6161J-8076D01*
G02Y1009540I-8410J-29320D01*
G03X206170Y991700I2801J-9764D01*
G02X208260Y833660I-60928J-79840D01*
G03X211250Y816170I6372J-7911D01*
G02X207610Y757600I-10130J-28769D01*
G03X203840Y739420I2159J-9929D01*
G37*
G36*
G01X1283890Y539150D02*
G02X1278610Y504790I22131J-20986D01*
G03X1262110Y507330I-9131J-4455D01*
G02X1216160Y509270I-22130J20990D01*
G03X1200300I-7930J-6350D01*
G02X1149810Y513530I-23817J19051D01*
G03X1132030I-8890J-4925D01*
G02X1079640Y511930I-26671J14792D01*
G03X1062500I-8570J-5460D01*
G02Y544710I-25720J16390D01*
G03X1079640I8570J5460D01*
G02X1132030Y543110I25719J-16392D01*
G03X1149810I8890J4925D01*
G02X1200300Y547370I26673J-14791D01*
G03X1216160I7930J6350D01*
G02X1267390Y541690I23818J-19050D01*
G03X1283890Y539150I9131J4455D01*
G37*
G36*
G01X718730Y366560D02*
G02X685550Y391010I-29930J-5878D01*
G03X694430Y403060I-1089J10099D01*
G02X693860Y409460I29928J5891D01*
G03X681810Y419620I-10157J180D01*
G02X646370Y442760I-5712J29961D01*
G03X630190Y448470I-9901J-2276D01*
G02X641060Y479260I-18859J23972D01*
G03X657240Y473550I9901J2276D01*
G02X706600Y449060I18863J-23969D01*
G03X718650Y438900I10157J-180D01*
G02X752560Y420560I5711J-29960D01*
G03X767790Y416120I9392J3874D01*
G02X770420Y417770I17503J-24977D01*
G03X771630Y434710I-4963J8868D01*
G02X771970Y491490I21612J28262D01*
G03X774400Y505190I-6077J8143D01*
G02X821080Y499880I25538J16671D01*
G03X820380Y485980I7044J-7322D01*
G02X808170Y430680I-27140J-23006D01*
G03X805660Y413880I4266J-9225D01*
G02X808520Y410960I-20309J-22753D01*
G03X825470Y413280I7731J6593D01*
G02X880140Y414650I27673J-12821D01*
G03X897330Y413380I8991J4728D01*
G02X944730Y415630I24609J-18019D01*
G03X958830Y414580I7592J6754D01*
G02X955570Y370890I19531J-23424D01*
G03X941470Y371940I-7592J-6754D01*
G02X894940Y381170I-19534J23422D01*
G03X877750Y382440I-8991J-4728D01*
G02X829940Y380660I-24609J18019D01*
G03X812990Y378340I-7731J-6593D01*
G02X757120Y379540I-27672J12822D01*
G03X741890Y383980I-9392J-3874D01*
G02X727610Y378610I-17535J24957D01*
G03X718730Y366560I1089J-10099D01*
G37*
G36*
G01X1202380Y239400D02*
G02X1171540Y233690I-10657J-28579D01*
G03X1168360Y250820I-6728J7611D01*
G02X1163620Y305730I10658J28580D01*
G03X1164260Y322860I-5129J8769D01*
G02X1151160Y350430I17301J25118D01*
G03X1139100Y361220I-10129J814D01*
G02X1163700Y388710I-5800J29942D01*
G03X1175760Y377920I10129J-814D01*
G02X1196960Y321650I5801J-29943D01*
G03X1196320Y304520I5129J-8769D01*
G02X1199200Y256530I-17300J-25120D01*
G03X1202380Y239400I6728J-7611D01*
G37*
G36*
G01X602950Y179610D02*
G02X565870Y187270I-23378J-19589D01*
G03X568510Y203510I-4565J9077D01*
G02X606960Y195570I25226J25090D01*
G03X602950Y179610I3777J-9433D01*
G37*
G36*
G01X1210030Y95510D02*
G02X1172830Y95060I-18308J-24391D01*
G03X1172630Y111170I-6294J7978D01*
G02X1209830Y111620I18308J24391D01*
G03X1210030Y95510I6294J-7978D01*
G37*
G36*
G01X503960Y99880D02*
G02X478580Y65200I4778J-30123D01*
G03X462170Y71590I-10043J-1526D01*
G02X470020Y221110I-62930J78270D01*
G03X485630Y222670I7163J7204D01*
G02X509330Y175290I25370J-16927D01*
G03X498710Y163740I-558J-10145D01*
G02X492890Y113590I-99468J-13869D01*
G03X503960Y99880I9473J-3675D01*
G37*
G36*
G01X609790Y4878620D02*
G03X609480Y4894170I-6692J7645D01*
G02X655270Y4895100I22342J27690D01*
G03X655580Y4879550I6692J-7645D01*
G02X609790Y4878620I-22342J-27690D01*
G37*
G36*
G01X822520Y4819600D02*
G03X815900Y4818480I-2674J-4318D01*
G02X806960Y4871120I-27660J22382D01*
G03X813580Y4872240I2674J4318D01*
G02X822520Y4819600I27660J-22382D01*
G37*
G36*
G01X743480Y4370910D02*
G03X728100I-7690J-6637D01*
G02X683290Y4415720I-24060J20750D01*
G03Y4431100I-6637J7690D01*
G02X728100Y4475910I20750J24060D01*
G03X743480I7690J6637D01*
G02X788290Y4431100I24060J-20750D01*
G03Y4415720I6637J-7690D01*
G02X743480Y4370910I-20750J-24060D01*
G37*
G36*
G01X1338560Y4774010D02*
G02X1337030Y4741260I30780J-17849D01*
G03X1319020Y4742110I-9226J-4254D01*
G02X1320550Y4774860I-30780J17849D01*
G03X1338560Y4774010I9226J4254D01*
G37*
G36*
G01X1336890Y4675180D02*
G02X1336020Y4639210I30251J-18727D01*
G03X1318490Y4639640I-8891J-4920D01*
G02X1319360Y4675610I-30251J18727D01*
G03X1336890Y4675180I8891J4920D01*
G37*
G36*
G01X1029290Y3112010D02*
G03X1021200Y3122980I-10107J1015D01*
G02X1009830Y3188310I7037J34879D01*
G03X1011860Y3194690I-2624J4348D01*
G02X1079940Y3206040I32617J14212D01*
G03X1088950Y3195120I10130J-819D01*
G02X1096380Y3126030I-3909J-35365D01*
G03X1089620Y3114540I3229J-9633D01*
G02X1029290Y3112010I-29984J-5583D01*
G37*
G36*
G01X973600Y2548710D02*
G03X974150Y2534210I7381J-6980D01*
G02X924390Y2532310I-23910J-26349D01*
G03X923840Y2546810I-7381J6980D01*
G02X973600Y2548710I23910J26349D01*
G37*
G36*
G01X1291190Y2428410D02*
G03X1284470Y2427600I-2907J-4167D01*
G02X1276070Y2481610I-26711J23504D01*
G03X1282720Y2482870I2620J4352D01*
G02X1291190Y2428410I30261J-23182D01*
G37*
G36*
G01X764200Y2474400D02*
G03X763890Y2481380I-3839J3326D01*
G02X815490Y2483680I24710J25600D01*
G03X815800Y2476700I3839J-3326D01*
G02X764200Y2474400I-24710J-25600D01*
G37*
G36*
G01X1339370Y2095690D02*
G03X1349000Y2083640I9981J-1896D01*
G02X1312830Y2054740I-1219J-35559D01*
G03X1303200Y2066790I-9981J1896D01*
G02X1339370Y2095690I1219J35559D01*
G37*
G36*
G01X1963190Y1902640D02*
G03X1956070Y1902390I-3433J-3744D01*
G02X1954290Y1953080I-25830J24469D01*
G03X1961410Y1953330I3433J3744D01*
G02X1963190Y1902640I25830J-24469D01*
G37*
G36*
G01X2043350Y1895280D02*
G03X2043600Y1902280I-3555J3631D01*
G02X2056570Y1958710I26641J23582D01*
G03X2061240Y1973540I-3906J9380D01*
G02X2104930Y1959780I30024J19090D01*
G03X2100260Y1944950I3906J-9380D01*
G02X2095130Y1900440I-30022J-19090D01*
G03X2094880Y1893440I3555J-3631D01*
G02X2043350Y1895280I-26640J-23582D01*
G37*
G36*
G01X2273070Y1680210D02*
G03X2266350I-3360J-3811D01*
G02Y1733550I-23550J26670D01*
G03X2273070I3360J3811D01*
G02X2323590Y1730090I23552J-26670D01*
G03X2330650Y1729470I3848J3314D01*
G02X2329760Y1683000I19308J-23613D01*
G03X2322680Y1682660I-3366J-3804D01*
G02X2273070Y1680210I-26062J24221D01*
G37*
G36*
G01X1573550Y1611460D02*
G03X1566890Y1611450I-3324J-3841D01*
G02X1566810Y1665160I-23380J26820D01*
G03X1573470Y1665170I3324J3841D01*
G02X1573550Y1611460I23380J-26820D01*
G37*
G36*
G01X1417820Y1668430D02*
G03X1422810Y1663440I5075J85D01*
G02X1386660Y1627290I-570J-35580D01*
G03X1381670Y1632280I-5075J-85D01*
G02X1417820Y1668430I570J35580D01*
G37*
G36*
G01X2233410Y1389070D02*
G03X2246020Y1384230I9024J4665D01*
G02X2229020Y1339930I11229J-29721D01*
G03X2216410Y1344770I-9024J-4665D01*
G02X2185120Y1349850I-11232J29720D01*
G03X2172050Y1349650I-6416J-7875D01*
G02X2171300Y1398300I-20808J24010D01*
G03X2184370Y1398500I6416J7875D01*
G02X2233410Y1389070I20810J-24008D01*
G37*
G36*
G01X1654320Y1375340D02*
G03X1669570Y1374370I8050J6196D01*
G02X1666920Y1332590I22529J-22403D01*
G03X1651670Y1333560I-8050J-6196D01*
G02X1654320Y1375340I-22529J22403D01*
G37*
G36*
G01X2087930Y950620D02*
G03X2083380Y966980I-7653J6684D01*
G02X2082910Y1034590I10860J33882D01*
G03X2086280Y1040350I-1620J4814D01*
G02X2085750Y1044490I34965J6580D01*
G03X2081020Y1049210I-5069J-350D01*
G02X2051320Y1069300I2369J35501D01*
G03X2036620Y1073410I-9155J-4402D01*
G02X2045970Y1114950I-16631J25566D01*
G03X2061020Y1112370I8658J5322D01*
G02X2118880Y1087180I22370J-27664D01*
G03X2123610Y1082460I5069J350D01*
G02X2148570Y1024180I-2371J-35500D01*
G03X2150350Y1009500I7808J-6501D01*
G02X2147970Y950610I-21110J-28640D01*
G03X2146150Y943910I2670J-4323D01*
G02X2141980Y904340I-31420J-16694D01*
G03X2142080Y897690I3887J-3267D01*
G02X2088270Y896890I-26559J-23679D01*
G03X2088170Y903540I-3887J3267D01*
G02X2087930Y950620I26560J23676D01*
G37*
G36*
G01X2054310Y760320D02*
G03X2050210Y754860I958J-4989D01*
G02X2009780Y780820I-30368J-2832D01*
G03X2013040Y786820I-1678J4797D01*
G02X2054310Y760320I34562J8440D01*
G37*
G36*
G01X2902440Y764620D02*
G03X2902490Y757960I3860J-3301D01*
G02X2848780Y757500I-26655J-23569D01*
G03X2848730Y764160I-3860J3301D01*
G02X2902440Y764620I26655J23569D01*
G37*
G36*
G01X1289360Y1414970D02*
G02X1255050Y1410640I-13818J-28609D01*
G03X1252920Y1427550I-6551J7764D01*
G02X1287230Y1431880I13818J28609D01*
G03X1289360Y1414970I6551J-7764D01*
G37*
G36*
G01X1555770Y1375160D02*
G02X1499550Y1402660I-30528J8808D01*
G03X1495970Y1417680I-8213J5979D01*
G02X1542150Y1447840I14468J28282D01*
G03X1557800Y1439890I10145J592D01*
G02X1567830Y1382240I17211J-26703D01*
G03X1555770Y1375160I-2300J-9894D01*
G37*
G36*
G01X1458350Y1410050D02*
G02X1417930Y1404530I-16914J-26891D01*
G03X1415830Y1419970I-7513J6841D01*
G02X1456250Y1425490I16914J26891D01*
G03X1458350Y1410050I7513J-6841D01*
G37*
G36*
G01X1375170Y1406010D02*
G02X1340180Y1403800I-15825J-27549D01*
G03X1339110Y1420710I-6130J8101D01*
G02X1374100Y1422920I15825J27549D01*
G03X1375170Y1406010I6130J-8101D01*
G37*
G36*
G01X2861460Y1245870D02*
G02X2808160Y1257080I-23823J19048D01*
G03X2793450Y1263370I-9816J-2611D01*
G02X2753820Y1307670I-14708J26719D01*
G03X2750460Y1322410I-8302J5861D01*
G02X2792440Y1330790I16063J28871D01*
G03X2795000Y1315900I7973J-6294D01*
G02X2808220Y1297930I-16259J-25809D01*
G03X2822930Y1291640I9816J2611D01*
G02X2861460Y1283970I14710J-26719D01*
G03X2877320I7930J6350D01*
G02Y1245870I23820J-19050D01*
G03X2861460I-7930J-6350D01*
G37*
G36*
G01X2256060Y5286030D02*
G03X2250960Y5299660I-9191J4330D01*
G02X2235070Y5313450I14334J32566D01*
G03X2222840Y5317590I-8631J-5362D01*
G02X2240460Y5369640I-12600J33273D01*
G03X2252690Y5365500I8631J5362D01*
G02X2297470Y5317060I12598J-33272D01*
G03X2302570Y5303430I9191J-4330D01*
G02X2308070Y5300400I-14352J-32558D01*
G03X2314680Y5301230I2827J4222D01*
G02X2321340Y5247940I26491J-23750D01*
G03X2314730Y5247110I-2827J-4222D01*
G02X2256060Y5286030I-26486J23755D01*
G37*
G36*
G01X1841220Y5296160D02*
G02X1700860I-70180J-5D01*
G01Y5360740D01*
X1697570Y5361970D01*
G02X1720750Y5489890I23180J61860D01*
G01X1761390D01*
G02X1817410Y5458830I0J-66049D01*
G02X1841220Y5406160I-46365J-52676D01*
G01Y5296160D01*
G37*
G36*
G01X3007520Y5261070D02*
G03X3014270Y5259570I4182J2884D01*
G02X3002960Y5208650I17971J-30708D01*
G03X2996210Y5210150I-4182J-2884D01*
G02X3007520Y5261070I-17971J30708D01*
G37*
G36*
G01X2400780Y5148610D02*
G03X2402030Y5141990I4361J-2604D01*
G02X2349700Y5132110I-21787J-28129D01*
G03X2348450Y5138730I-4361J2604D01*
G02X2400780Y5148610I21787J28129D01*
G37*
G36*
G01X2239160Y5045710D02*
G03Y5033010I7930J-6350D01*
G02X2191520I-23820J-19050D01*
G03Y5045710I-7930J6350D01*
G02X2239160I23820J19050D01*
G37*
G36*
G01X2834210Y5209150D02*
G02X2825700Y5241270I-34668J8002D01*
G03X2843070Y5245870I7471J6886D01*
G02X2851580Y5213750I34668J-8002D01*
G03X2834210Y5209150I-7471J-6886D01*
G37*
G36*
G01X3360820Y3842260D02*
G03X3351460Y3851170I-10086J-1224D01*
G02X3385280Y3886660I2278J31688D01*
G03X3394640Y3877750I10086J1224D01*
G02X3397310Y3877440I-2326J-31685D01*
G03X3408530Y3884270I1579J10036D01*
G02X3433720Y3842840I30139J-10048D01*
G03X3422500Y3836010I-1579J-10036D01*
G02X3360820Y3842260I-30138J10050D01*
G37*
G36*
G01X3178810Y3860050D02*
G03X3176780Y3847280I6727J-7616D01*
G02X3128360Y3854970I-27379J-16112D01*
G03X3130390Y3867740I-6727J7616D01*
G02X3178810Y3860050I27379J16112D01*
G37*
G36*
G01X3211980Y3760390D02*
G03X3224660Y3754120I9573J3403D01*
G02X3204460Y3713250I9739J-30241D01*
G03X3191780Y3719520I-9573J-3403D01*
G02X3211980Y3760390I-9739J30241D01*
G37*
G36*
G01X3347570Y3733150D02*
G03X3345330Y3718420I5711J-8404D01*
G02X3302600Y3724920I-24867J-19771D01*
G03X3304840Y3739650I-5711J8404D01*
G02X3347570Y3733150I24867J19771D01*
G37*
G36*
G01X2979380Y3649110D02*
G03X2966480Y3648420I-6031J-8176D01*
G02X2963870Y3697370I-21490J23399D01*
G03X2976770Y3698060I6031J8176D01*
G02X2979380Y3649110I21490J-23399D01*
G37*
G36*
G01X3315350Y3523160D02*
G03X3312080Y3508660I5125J-8774D01*
G02X3269810Y3518190I-26245J-17900D01*
G03X3273080Y3532690I-5125J8774D01*
G02X3315350Y3523160I26245J17900D01*
G37*
G36*
G01X1884140Y3232190D02*
G03X1896830Y3232010I6458J7844D01*
G02X1896140Y3184390I18710J-24086D01*
G03X1883450Y3184570I-6458J-7844D01*
G02X1884140Y3232190I-18710J24086D01*
G37*
G36*
G01X2480540Y2916890D02*
G03X2481140Y2930280I-7325J7037D01*
G02X2526940Y2928230I23800J19078D01*
G03X2526340Y2914840I7325J-7037D01*
G02X2480540Y2916890I-23800J-19078D01*
G37*
G36*
G01X3411970Y2804540D02*
G03X3412730Y2791160I8002J-6257D01*
G02X3366970Y2788580I-21747J-21388D01*
G03X3366210Y2801960I-8002J6257D01*
G02X3364270Y2842550I21751J21381D01*
G03X3363810Y2855880I-7895J6401D01*
G02X3361920Y2895200I22322J20778D01*
G03X3361090Y2908510I-8069J6178D01*
G02X3407040Y2911360I21737J21392D01*
G03X3407870Y2898050I8069J-6178D01*
G02X3409820Y2857460I-21742J-21386D01*
G03X3410280Y2844130I7895J-6401D01*
G02X3411970Y2804540I-22321J-20784D01*
G37*
G36*
G01X3417560Y2564310D02*
G03X3417640Y2550980I7706J-6619D01*
G02X3371590Y2550690I-22899J-20149D01*
G03X3371510Y2564020I-7706J6619D01*
G02X3371460Y2604260I22899J20148D01*
G03X3371470Y2617640I-7639J6696D01*
G02X3370830Y2657010I22971J20064D01*
G03X3370420Y2670340I-7869J6429D01*
G02X3416440Y2671730I22406J20691D01*
G03X3416850Y2658400I7869J-6429D01*
G02X3417390Y2617620I-22410J-20690D01*
G03X3417380Y2604240I7639J-6696D01*
G02X3417560Y2564310I-22969J-20069D01*
G37*
G36*
G01X3429500Y2325090D02*
G03X3430120Y2311770I7969J-6303D01*
G02X3384130Y2309640I-22069J-21051D01*
G03X3383510Y2322960I-7969J6303D01*
G02X3381930Y2363270I22070J21051D01*
G03X3381500Y2376590I-7878J6413D01*
G02X3379830Y2416100I22369J20736D01*
G03X3379130Y2429410I-8007J6252D01*
G02X3425110Y2431830I21938J21189D01*
G03X3425810Y2418520I8007J-6252D01*
G02X3427520Y2378070I-21940J-21189D01*
G03X3427950Y2364750I7878J-6413D01*
G02X3429500Y2325090I-22370J-20735D01*
G37*
G36*
G01X2330260Y2303290D02*
G03X2324000Y2290540I3390J-9576D01*
G02X2284840Y2309730I-28965J-9557D01*
G03X2291100Y2322480I-3390J9576D01*
G02X2330260Y2303290I28965J9557D01*
G37*
G36*
G01X3365270Y1716980D02*
G03X3358920Y1716950I-3156J-3981D01*
G02X3358740Y1764570I-19150J23738D01*
G03X3365090Y1764600I3156J3981D01*
G02X3365270Y1716980I19150J-23738D01*
G37*
G36*
G01X3158040Y1719910D02*
G03X3145380Y1716010I-4062J-9313D01*
G02X3131780Y1760230I-25799J16267D01*
G03X3144440Y1764130I4062J9313D01*
G02X3158040Y1719910I25799J-16267D01*
G37*
G36*
G01X3075710Y3474620D02*
G02X3037210Y3479110I-22166J-22760D01*
G03X3039070Y3495100I-5227J8711D01*
G02X3077570Y3490610I22166J22760D01*
G03X3075710Y3474620I5227J-8711D01*
G37*
G36*
G01X3408300Y3092120D02*
G02X3383600Y3053270I4538J-30162D01*
G03X3372360Y3060420I-9737J-2897D01*
G02X3359000Y3119780I-4547J30160D01*
G03X3365320Y3133680I-2942J9724D01*
G02X3362830Y3149820I27798J12551D01*
G03X3353790Y3161120I-10087J1196D01*
G02X3345330Y3219670I3144J30340D01*
G03X3351310Y3231580I-3861J9395D01*
G02X3392470Y3210930I29551J7557D01*
G03X3386490Y3199020I3861J-9395D01*
G02X3387230Y3187860I-29549J-7564D01*
G03X3396270Y3176560I10087J-1196D01*
G02X3401940Y3117020I-3145J-30339D01*
G03X3395620Y3103120I2942J-9724D01*
G02X3397060Y3099270I-27783J-12586D01*
G03X3408300Y3092120I9737J2897D01*
G37*
G36*
G01X2734270Y2971680D02*
G02X2699560Y2970820I-16696J-27030D01*
G03X2699140Y2987830I-5761J8368D01*
G02X2687160Y3028520I16701J27026D01*
G03X2682970Y3041750I-9172J4374D01*
G02X2725890Y3056120I14969J26571D01*
G03X2730510Y3043040I9311J-4067D01*
G02X2733850Y2988690I-14671J-28179D01*
G03X2734270Y2971680I5761J-8368D01*
G37*
G36*
G01X2605240Y2107460D02*
G02X2565340Y2107200I-19800J-23200D01*
G03X2565240Y2122560I-6700J7637D01*
G02X2563590Y2167440I19800J23198D01*
G03X2563170Y2182290I-7143J7229D01*
G02X2604790Y2183480I20173J22872D01*
G03X2605210Y2168630I7143J-7229D01*
G02X2605140Y2122820I-20172J-22874D01*
G03X2605240Y2107460I6700J-7637D01*
G37*
G36*
G01X3676900Y2082730D02*
G02X3643970Y2097370I-26463J-15168D01*
G03X3648150Y2115240I-2156J9928D01*
G02X3768980Y2130200I53093J66621D01*
G03X3771610Y2115460I8078J-6163D01*
G02X3724820Y2088020I-16339J-25752D01*
G03X3713240Y2097520I-10146J-559D01*
G02X3687370Y2097810I-11991J84341D01*
G03X3676900Y2082730I-1656J-10025D01*
G37*
G36*
G01X3571160Y2075650D02*
G02X3535080Y2082080I-22318J-20790D01*
G03X3537920Y2098070I-4590J9063D01*
G02X3574000Y2091640I22318J20790D01*
G03X3571160Y2075650I4590J-9063D01*
G37*
G36*
G01X3777950Y1863860D02*
G02X3741990Y1836640I-5588J-29981D01*
G03X3728600Y1847180I-10119J921D01*
G02X3771450Y1879600I-27354J80682D01*
G03X3777950Y1863860I8371J-5755D01*
G37*
G54D27*
X800560Y71120D03*
X706580D03*
X607520D03*
X762460Y147320D03*
X658320Y548640D03*
X611330Y360680D03*
X762460Y279400D03*
X658320Y624840D03*
X611330Y683260D03*
X772570Y1118870D03*
X562590Y2738910D03*
X595640Y3400160D03*
X1059640Y71120D03*
X958040D03*
X973280Y215900D03*
X1057100Y391160D03*
X1582880Y891540D03*
X2042620Y71120D03*
X2148510Y218010D03*
X2347740Y261360D03*
X3567080Y1353760D03*
X3837140Y70260D03*
X4023040Y277060D03*
X3882640D03*
X4028900Y530860D03*
X4027250Y1295400D03*
Y1041400D03*
X795480Y1690620D03*
X789360Y1935480D03*
X796140Y2611460D03*
X795480Y3282360D03*
X909780Y1635760D03*
X988520Y2021840D03*
X984240Y2433860D03*
X1113410Y2571860D03*
X1188220Y2794080D03*
X1121490Y2757310D03*
X1246140Y2719460D03*
X1188540Y2590960D03*
X1072340Y3515360D03*
X1910790Y1638350D03*
X2362660Y967740D03*
Y828040D03*
Y1107440D03*
X2126440Y1636650D03*
X2502360Y967740D03*
X2642060D03*
X2502360Y828040D03*
X2642060D03*
X2502360Y1107440D03*
X2646020Y1102820D03*
X1542240Y5166360D03*
X1775920Y2910840D03*
X2020240Y2972860D03*
X1774740Y3154680D03*
X2303240Y2452370D03*
X2129030Y2961640D03*
X2097960Y2626490D03*
X2458240Y3135860D03*
X2123900Y3042920D03*
X2376240Y3122860D03*
X2329640Y3185160D03*
X2634440Y1958520D03*
X2663650Y2491410D03*
X2702140Y2683560D03*
X2677640Y3213060D03*
X2951150Y1735860D03*
X3123870Y1903250D03*
X2944320Y1823720D03*
X3449800Y2005320D03*
X3356090Y2064110D03*
X3373240Y3314760D03*
X3425240Y3735860D03*
G54D28*
X752300Y1343660D03*
X560050Y1781560D03*
X556690Y2181860D03*
X556240Y2288860D03*
X553240Y2374860D03*
X952590Y525610D03*
X1283160Y717300D03*
X1387070Y754380D03*
X2113740Y302260D03*
X2139140Y543560D03*
X2649540Y70160D03*
X2748640Y363460D03*
X3200240Y1508860D03*
X577040Y4505960D03*
X555440Y4972060D03*
X1156240Y4828860D03*
X1456840Y4921560D03*
X1453340Y4759960D03*
Y4658360D03*
X1661840Y4756160D03*
X1567640Y4658360D03*
Y4759960D03*
X1661840Y4656160D03*
X1758140Y4658360D03*
Y4759960D03*
X798020Y2062480D03*
X815670Y2371740D03*
X788340Y2284660D03*
X791090Y2896490D03*
Y2705100D03*
Y3056480D03*
X1266240Y1622860D03*
X1036870Y2569700D03*
X1125680Y2921000D03*
X1196340Y3170460D03*
X1065990Y3768630D03*
X975240Y4097860D03*
X1913330Y1100200D03*
X1681940Y1636650D03*
X1765950Y1739710D03*
X1874240Y1863860D03*
X2436240Y594790D03*
X2786840Y632460D03*
X2700240Y744660D03*
X2873200Y892510D03*
X2890980Y1155700D03*
X1415240Y5382260D03*
X1909240Y5158860D03*
X2335510Y5373370D03*
X2705240Y5215360D03*
X2570940Y4848860D03*
G54D33*
X1974370Y1369570D03*
X1724100Y1458460D03*
X2504900Y1384300D03*
X2658840Y3353760D03*
X2951940Y2011680D03*
X3065240Y2367960D03*
X2877140Y3362260D03*
X3097240Y3198360D03*
X2933750Y2976470D03*
X3123840Y3685860D03*
X3271200Y3876420D03*
X3310440Y3967260D03*
X3394200Y3974060D03*
G54D32*
X1679400Y2065020D03*
X1781000D03*
X1668020Y2505630D03*
X1830560Y2398980D03*
X1990550D03*
X1988010Y2505630D03*
X1828020D03*
G54D29*
X1486360Y721360D03*
G54D31*
X3393240Y338560D03*
G54D30*
X3366900Y667610D03*
G54D26*
X145240Y3959860D03*
X399240Y911860D03*
Y1419860D03*
Y1165860D03*
Y1673860D03*
Y2181860D03*
Y1927860D03*
Y2435860D03*
Y2943860D03*
Y2689860D03*
Y3197860D03*
Y3451860D03*
Y3959860D03*
X3701240Y657860D03*
Y911860D03*
Y1419860D03*
X399240Y4467860D03*
G54D25*
X145240Y149860D03*
X399240Y3705860D03*
X3701240Y149860D03*
X3955240D03*
X399240Y4721860D03*
X3701240Y2435860D03*
Y2689860D03*
%LPD*%
G75*
G54D10*
X145240Y149860D03*
Y657860D03*
Y403860D03*
Y911860D03*
Y1165860D03*
Y1419860D03*
Y1673860D03*
Y2181860D03*
Y1927860D03*
Y2435860D03*
Y2943860D03*
Y2689860D03*
Y3197860D03*
Y3705860D03*
Y3451860D03*
Y4213860D03*
Y3959860D03*
Y4467860D03*
Y4975860D03*
Y4721860D03*
X399240Y149860D03*
Y657860D03*
Y403860D03*
Y911860D03*
Y1419860D03*
Y1165860D03*
Y1673860D03*
Y2181860D03*
Y1927860D03*
Y2435860D03*
Y2943860D03*
Y2689860D03*
Y3197860D03*
Y3705860D03*
Y3451860D03*
Y4213860D03*
Y3959860D03*
Y4467860D03*
Y4975860D03*
Y4721860D03*
X3701240Y149860D03*
Y657860D03*
Y403860D03*
Y911860D03*
Y1165860D03*
Y1419860D03*
Y1673860D03*
Y2181860D03*
Y1927860D03*
Y2435860D03*
Y2943860D03*
Y2689860D03*
Y3197860D03*
Y3705860D03*
Y3451860D03*
Y4213860D03*
Y3959860D03*
Y4467860D03*
Y4975860D03*
Y4721860D03*
X3955240Y149860D03*
Y657860D03*
Y403860D03*
Y911860D03*
Y1419860D03*
Y1165860D03*
Y1673860D03*
Y2181860D03*
Y1927860D03*
Y2435860D03*
Y2943860D03*
Y2689860D03*
Y3197860D03*
Y3705860D03*
Y3451860D03*
Y4213860D03*
Y3959860D03*
Y4467860D03*
Y4975860D03*
Y4721860D03*
G54D20*
X2993240Y338560D03*
X3393240D03*
G54D11*
X94740Y277960D03*
X71580Y523240D03*
Y787400D03*
Y1292860D03*
Y1038860D03*
Y1544320D03*
Y2049780D03*
Y1803400D03*
Y2560320D03*
Y2306320D03*
Y2816860D03*
Y3324860D03*
Y3068320D03*
Y3573780D03*
Y3830320D03*
Y4089400D03*
X75340Y5270960D03*
Y5146160D03*
X74540Y5664560D03*
Y5544860D03*
X75340Y5414560D03*
X274780Y347980D03*
X295100Y482600D03*
X198580Y523240D03*
X479240Y309060D03*
X201120Y787400D03*
X315420Y749300D03*
X203660Y1292860D03*
X201120Y1038860D03*
Y1541780D03*
Y2049780D03*
Y1800860D03*
Y2560320D03*
X198580Y2306320D03*
Y2816860D03*
Y3324860D03*
Y3070860D03*
X201120Y3573780D03*
X198580Y3827780D03*
X280840Y5241460D03*
X281840Y5178460D03*
X280840Y5112460D03*
X476040Y5987960D03*
X373140Y5987260D03*
X508740Y69760D03*
X800560Y71120D03*
X706580D03*
X607520D03*
X511000Y205740D03*
X579580Y160020D03*
X762460Y147320D03*
X593730Y228600D03*
X785320Y391160D03*
X724360Y408940D03*
X676100Y449580D03*
X658320Y548640D03*
X688800Y360680D03*
X611330Y472440D03*
Y360680D03*
X505920Y449580D03*
X762460Y279400D03*
X853140Y400460D03*
X793240Y462970D03*
X799940Y521860D03*
X750740Y984650D03*
X810720Y970430D03*
X750780Y928290D03*
Y848460D03*
X879300Y721360D03*
X823420Y718820D03*
X658320Y624840D03*
X611330Y683260D03*
X856440Y1386840D03*
X752300Y1343660D03*
X772570Y1118870D03*
X560050Y1781560D03*
X787860Y1473960D03*
X795480Y1690620D03*
X560070Y1922530D03*
X798020Y2062480D03*
X560020Y1975870D03*
X523700Y2056130D03*
X556690Y2181860D03*
X561800Y2095500D03*
X556340Y1869310D03*
X789360Y1935480D03*
X556240Y2288860D03*
X815670Y2371740D03*
X562590Y2540790D03*
X791090Y2451100D03*
X788600Y2506980D03*
X788340Y2284660D03*
X553240Y2374860D03*
X791090Y2896490D03*
Y2705100D03*
X562590Y2937030D03*
Y2738910D03*
Y2594130D03*
X796140Y2611460D03*
X791090Y3056480D03*
X562590Y2990370D03*
X795480Y3282360D03*
X772140Y3354460D03*
X595640Y3400160D03*
X818240Y4038860D03*
X831040Y3820160D03*
Y3769360D03*
X754840Y4061460D03*
X691340D03*
X767540Y4391660D03*
X704040D03*
X767540Y4455160D03*
X704040D03*
X577040Y4505960D03*
X516480Y4341620D03*
X869140Y4753660D03*
X818340D03*
Y4708860D03*
X869140D03*
X633240Y4851860D03*
X631820Y4921860D03*
X841240Y4849860D03*
X788240Y4840860D03*
X818340Y5052060D03*
X754840D03*
X640540Y5267960D03*
X653240Y5204460D03*
X555440Y4972060D03*
X526240Y5052060D03*
X745470Y5302730D03*
X805640Y5280660D03*
X662740Y5989560D03*
X569440D03*
X1190940Y135560D03*
X1191720Y210820D03*
Y71120D03*
X1059640D03*
X958040D03*
X973280Y215900D03*
X1036780Y528320D03*
X1105360D03*
X1176480D03*
X1239980D03*
X1133300Y391160D03*
X1057100D03*
X978360D03*
X1181560Y347980D03*
X1179020Y279400D03*
X921940Y395360D03*
X952590Y525610D03*
X1283160Y717300D03*
X1191720Y718820D03*
X963120Y1394990D03*
X1185840Y1093860D03*
X909780Y1384300D03*
X1240840Y1106060D03*
X1275540Y1386360D03*
X1266240Y1622860D03*
X909780Y1635760D03*
X1266740Y1456160D03*
X988520Y2021840D03*
X1257760Y2451100D03*
X984240Y2433860D03*
X1036870Y2569700D03*
X1113410Y2571860D03*
X947750Y2573160D03*
X950240Y2507860D03*
X1188220Y2794080D03*
X1121490Y2757310D03*
X1246140Y2719460D03*
X1188540Y2590960D03*
X1125680Y2921000D03*
X1044480Y3208900D03*
X1059640Y3108960D03*
X1085040Y3159760D03*
X1196340Y3170460D03*
X1028240Y3157860D03*
X1072340Y3515360D03*
X1065990Y3768630D03*
X1205240Y4126860D03*
X1089240D03*
X975240Y4097860D03*
X1123440Y4378660D03*
X1115240Y4274860D03*
X1065240Y4249860D03*
X1213240Y4181860D03*
X1100240Y4471860D03*
X1096240Y4525860D03*
X1081240Y4412860D03*
X1083240Y4342860D03*
X983240Y4808860D03*
X985240Y4754860D03*
X1091240Y4708860D03*
X1117240Y4644860D03*
X1156240Y4828860D03*
X1103240Y4586860D03*
X1275540Y4963160D03*
X1123140D03*
X1173940D03*
X976240Y5052860D03*
X1033240Y5180860D03*
X976240Y5154860D03*
X1262840Y5369560D03*
X1123140Y5382260D03*
X1349140Y205460D03*
X1346940Y268460D03*
X1349200Y335280D03*
X1496520Y480060D03*
X1626060D03*
X1562560D03*
X1433020D03*
X1366980D03*
X1349200Y398780D03*
X1306020Y518160D03*
X1582880Y891540D03*
X1394920Y850900D03*
X1387070Y754380D03*
X1339040Y853440D03*
X1614040Y1068560D03*
X1672540Y1070160D03*
X1558910Y1078610D03*
X1629140Y1355960D03*
X1525240Y1383960D03*
X1359340Y1378460D03*
X1441440Y1383160D03*
X1596850Y1638350D03*
X1382240Y1667860D03*
X1422240Y1627860D03*
X1575010Y1413190D03*
X1354940Y1448260D03*
X1432740Y1446860D03*
X1510440Y1445960D03*
X1543510Y1638270D03*
X1304420Y2102350D03*
X1347780Y2048080D03*
X1420320Y2575560D03*
X1484340Y2739260D03*
X1345740Y2728560D03*
X1438570Y3228050D03*
X1491440Y3235120D03*
X1511910Y3174340D03*
X1555490Y3134360D03*
X1562610Y3077980D03*
X1554940Y3210560D03*
X1364110Y3507210D03*
X1402240Y3508860D03*
X1289240Y3705860D03*
X1339040Y3693160D03*
X1327240Y3833860D03*
X1539000Y3825000D03*
X1661000Y3989000D03*
X1457240Y3883860D03*
X1328240Y3889440D03*
X1293480Y3990500D03*
X1548240Y3983860D03*
X1512240Y3903860D03*
X1330240Y4055860D03*
X1677240Y3820860D03*
X1656240Y3873860D03*
X1570500Y3775860D03*
X1597500Y3834150D03*
X1616840Y4115640D03*
X1385240Y4069860D03*
X1424050Y4106820D03*
X1557240Y4056860D03*
X1611240Y4051860D03*
X1345000Y4107780D03*
X1458240Y4064860D03*
X1511240Y4085860D03*
X1288240Y4417060D03*
X1516840Y4413660D03*
X1389840Y4417060D03*
X1387540Y4285060D03*
X1516840Y4290060D03*
X1643840Y4417060D03*
X1646140Y4290060D03*
X1382540Y4544060D03*
X1516840D03*
X1651140D03*
X1618440Y4912360D03*
X1456840Y4921560D03*
X1369340Y4756160D03*
X1367140Y4656460D03*
X1453340Y4759960D03*
Y4658360D03*
X1288240D03*
Y4759960D03*
X1661840Y4756160D03*
X1567640Y4658360D03*
Y4759960D03*
X1661840Y4656160D03*
X1542240Y5166360D03*
X1466040D03*
X1326340Y4963160D03*
X1407240Y5209860D03*
X1466040Y5217160D03*
X1300040Y5223460D03*
X1354040Y5227660D03*
X1415240Y5382260D03*
X1327530Y5396150D03*
X2001140Y178360D03*
X2042620Y71120D03*
X1999440Y386080D03*
X1821640Y480060D03*
X1882600D03*
X1999440Y454660D03*
X1692100Y480060D03*
X1755600D03*
X1946100D03*
X1999440Y312420D03*
Y238760D03*
X1886640Y620460D03*
X1722580Y812800D03*
X1721560Y756920D03*
X2047600Y795260D03*
X1718440Y911860D03*
X1912420Y753740D03*
X2019840Y752030D03*
X1692100Y1351970D03*
X1913330Y1100200D03*
X1974370Y1369570D03*
X2019990Y1098980D03*
X1724100Y1458460D03*
X1681940Y1636650D03*
X1765950Y1739710D03*
X1910790Y1638350D03*
X1930240Y1926860D03*
X1874240Y1863860D03*
X1987240Y1928860D03*
X2068240Y1869860D03*
X2070240Y1925860D03*
X1775920Y2910840D03*
X1778240Y2970860D03*
X2020240Y2972860D03*
X1915540Y3207920D03*
X1774740Y3154680D03*
X2029920Y3116580D03*
X1864740Y3208660D03*
X1687000Y4019000D03*
X1691570Y4074430D03*
X1744240Y4082860D03*
X1845240Y4145860D03*
X1793830Y3837910D03*
X1829220Y3877820D03*
X1954740Y3899360D03*
X1904240Y3838860D03*
X2040510Y3876340D03*
X2050910Y3761360D03*
X2042240Y3819860D03*
X1900240Y4377860D03*
X1745440Y4417060D03*
X1825240Y4238860D03*
X1948240Y4443860D03*
X1910240Y4194860D03*
X1968240Y4305860D03*
X1981240Y4401860D03*
X1990000Y4698000D03*
X1984000Y4739000D03*
X1966240Y4642860D03*
X1758140Y4658360D03*
Y4759960D03*
X1919240Y4564860D03*
X1918240Y4618860D03*
X2062240Y4812860D03*
X2064240Y4574860D03*
X1969240Y4893860D03*
X1895240Y4738860D03*
X1932000Y4699000D03*
X1971240Y5241860D03*
X1834340Y4963160D03*
X1876240Y4962860D03*
X1964240Y4993860D03*
X1681940Y4963160D03*
X1728240Y4962860D03*
X1909240Y5158860D03*
X1987240Y4944860D03*
X2024840Y5394960D03*
X1931100Y5612020D03*
X2031920Y5675390D03*
X2148510Y218010D03*
X2202240Y83860D03*
X2252940Y85860D03*
X2151840D03*
X2334240Y55860D03*
X2436240Y594790D03*
X2347740Y261360D03*
X2113740Y302260D03*
X2381240Y551560D03*
X2300240Y536860D03*
X2345140Y592660D03*
X2139140Y543560D03*
X2362660Y967740D03*
Y828040D03*
X2115520Y874010D03*
X2114730Y927220D03*
X2179940Y707960D03*
X2129240Y980860D03*
X2094240Y1000860D03*
X2257250Y1354510D03*
X2362660Y1107440D03*
X2083390Y1084710D03*
X2121240Y1046960D03*
X2205180Y1374490D03*
X2151240Y1373660D03*
X2242800Y1706880D03*
X2126440Y1636650D03*
X2349960Y1705860D03*
X2296620Y1706880D03*
X2194040Y2159860D03*
X2243810Y2186980D03*
X2091260Y1992630D03*
X2297890Y2068830D03*
Y1908810D03*
X2143240Y2159860D03*
X2295040Y2280980D03*
X2303240Y2452370D03*
X2222240Y2243860D03*
X2320060Y2332040D03*
X2085840Y2296260D03*
X2128240Y2894860D03*
X2129030Y2961640D03*
X2097960Y2626490D03*
X2458240Y3135860D03*
X2123900Y3042920D03*
X2376240Y3122860D03*
X2329640Y3185160D03*
X2414940Y3757360D03*
X2432620Y3972010D03*
X2192340Y3882560D03*
X2436850Y3891180D03*
X2186140Y3956160D03*
X2358480Y3966260D03*
X2184480Y4050680D03*
X2260940Y3829460D03*
X2274320Y3962960D03*
X2370440Y3794260D03*
X2431770Y4046090D03*
X2426340Y3821860D03*
X2152140Y4007560D03*
X2104240Y3771760D03*
X2348260Y4042590D03*
X2160030Y3758680D03*
X2264780Y4045750D03*
X2213360Y3760050D03*
X2381240Y3875860D03*
X2280240Y3882860D03*
X2281710Y4332890D03*
X2436850Y4451170D03*
X2351240Y4529860D03*
X2432240Y4525860D03*
X2352810Y4446600D03*
X2274090Y4445360D03*
X2177740Y4331260D03*
X2350340Y4333360D03*
X2409140Y4308760D03*
X2192420Y4769530D03*
X2189940Y4734560D03*
X2302100Y4898860D03*
X2188240Y4594860D03*
X2194240Y4626860D03*
X2116240Y4822860D03*
X2120240Y4544860D03*
X2222500Y4826000D03*
X2215340Y5013960D03*
Y5064760D03*
X2341170Y5277480D03*
X2288240Y5270860D03*
X2308240Y4954860D03*
X2370240Y5166860D03*
X2380240Y5113860D03*
X2075240Y5289380D03*
X2325440Y5484060D03*
X2246240Y5645860D03*
X2077240Y5382860D03*
X2272240Y5554860D03*
X2348040Y5683180D03*
X2342340Y5534660D03*
X2081240Y5654860D03*
X2335510Y5373370D03*
X2393240Y5448860D03*
X2265290Y5332230D03*
X2210240Y5350860D03*
X2243240Y5703860D03*
X2097240Y5601860D03*
X2076240Y5549860D03*
X2156780Y5772210D03*
X2113740Y5864860D03*
X2212240Y5756860D03*
X2649540Y70160D03*
X2826640Y77960D03*
X2763940Y70560D03*
X2585040Y345560D03*
X2748640Y363460D03*
X2562240Y551860D03*
X2644240Y358460D03*
X2502360Y967740D03*
X2642060D03*
X2502360Y828040D03*
X2642060D03*
X2786840Y632460D03*
X2700240Y744660D03*
X2504900Y1384300D03*
X2837640Y1264920D03*
X2778740Y1290090D03*
X2502360Y1107440D03*
X2646020Y1102820D03*
X2710640Y1780540D03*
X2713180Y1576480D03*
X2520650Y1705230D03*
X2654760Y1780540D03*
X2634440Y1958520D03*
X2585040Y2145760D03*
X2585440Y2084260D03*
X2583340Y2205160D03*
X2663650Y2491410D03*
X2586180Y2440460D03*
X2702140Y2683560D03*
X2717570Y2944650D03*
X2504940Y2949360D03*
X2502540Y2895760D03*
X2677640Y3213060D03*
X2658840Y3353760D03*
X2788240Y3276560D03*
X2697940Y3068320D03*
X2715840Y3014860D03*
X2710640Y3616960D03*
X2515060Y3969380D03*
X2783440Y3872960D03*
X2741440Y4132760D03*
X2516840Y3891180D03*
X2593540Y4047060D03*
X2497000Y3760280D03*
X2584590Y3772090D03*
X2597940Y3966760D03*
X2764740Y3977160D03*
X2627440Y3823660D03*
X2756840Y4051170D03*
X2637870Y3769430D03*
X2793020Y4147150D03*
X2516840Y4051170D03*
Y4451170D03*
X2830870Y4450220D03*
X2670240Y4524860D03*
X2513840Y4363260D03*
X2599740Y4445230D03*
X2760140Y4365260D03*
X2679010Y4445820D03*
X2792040Y4200490D03*
X2672610Y4282480D03*
X2725870Y4279460D03*
X2584430Y4227350D03*
X2512240Y4530860D03*
X2789530Y4580350D03*
X2786840Y4645660D03*
X2723340D03*
X2583240Y4613860D03*
X2570940Y4848860D03*
X2705240Y5215360D03*
X2685580Y5012200D03*
X2815240Y5036860D03*
X2799540Y5217160D03*
X2748740Y5382260D03*
X2995920Y409150D03*
X3073860Y513080D03*
X3132280D03*
X3190700D03*
X2875380Y787730D03*
X2873200Y892510D03*
X3052870Y874480D03*
X2875840Y734390D03*
X3082240Y630860D03*
X3217240Y743860D03*
X3043380Y817880D03*
X2890980Y1155700D03*
X3053540Y1267460D03*
X2901140Y1264920D03*
X2966400Y1021640D03*
X2946070Y1616480D03*
X3170240Y1747860D03*
X3200240Y1508860D03*
X3066720Y1448280D03*
X3119580Y1732280D03*
X2951150Y1735860D03*
X2951940Y2011680D03*
X3123870Y1903250D03*
X2944320Y1823720D03*
X3065240Y2367960D03*
X2877140Y3362260D03*
X3097240Y3198360D03*
X2933750Y2976470D03*
X3234400Y3723880D03*
X3123840Y3685860D03*
X3182040Y3749760D03*
X2944990Y3671820D03*
X2998260Y3674660D03*
X2866140Y3545060D03*
X3053540Y3451860D03*
X3061240Y3517860D03*
X3149400Y3831170D03*
X2911300Y3970020D03*
X2907940Y4043160D03*
X3157770Y3883850D03*
X2983140Y3855660D03*
X2991740Y4042460D03*
X3150780Y3961960D03*
X3152980Y4048480D03*
X3155460Y4121140D03*
X2996850Y4451170D03*
X3074520Y4528820D03*
X2912400Y4446460D03*
X2946340Y4220760D03*
X2991940Y4526280D03*
X3228270Y4531160D03*
X3167330Y4360230D03*
X3231920Y4447540D03*
X3071540Y4445060D03*
X3049740Y4286260D03*
X2961090Y4350950D03*
X2911560Y4530480D03*
X2911660Y4371010D03*
X3047380Y4346100D03*
X2975310Y4797860D03*
X2918240Y4926860D03*
X3041240Y4777860D03*
X3042240Y4864860D03*
X2912570Y4747260D03*
X2875240Y5110860D03*
X2877740Y5237860D03*
X2931240Y5114860D03*
X2932240Y5069860D03*
X3086240Y5232860D03*
X2978240Y5240860D03*
X2926140Y5168760D03*
X3032240Y5228860D03*
X3053130Y5382670D03*
X2990040Y5382260D03*
X2903150Y5380820D03*
X3251240Y631860D03*
X3256240Y688860D03*
X3567080Y1353760D03*
X3577030Y1111810D03*
X3266900Y1587800D03*
X3384240Y1740860D03*
X3339770Y1740690D03*
X3391540Y1437060D03*
X3445990Y1440210D03*
X3449800Y2005320D03*
X3356090Y2064110D03*
X3560240Y2118860D03*
X3548840Y2054860D03*
X3394740Y2530830D03*
X3408050Y2290720D03*
X3403870Y2397330D03*
X3401070Y2450600D03*
X3405580Y2344010D03*
X3382830Y2929900D03*
X3386130Y2876660D03*
X3394410Y2584170D03*
X3394440Y2637710D03*
X3390980Y2769770D03*
X3387960Y2823350D03*
X3392830Y2691030D03*
X3373240Y3314760D03*
X3393120Y3146220D03*
X3380860Y3239140D03*
X3356940Y3191460D03*
X3367820Y3090580D03*
X3412840Y3061960D03*
X3425240Y3735860D03*
X3320460Y3698650D03*
X3427440Y3653160D03*
X3285840Y3490760D03*
X3299320Y3550590D03*
X3438670Y3874220D03*
X3271200Y3876420D03*
X3353740Y3882860D03*
X3313240Y4045560D03*
X3394640Y4051860D03*
X3392360Y3846060D03*
X3444700Y4138510D03*
X3310440Y3967260D03*
X3394200Y3974060D03*
X3465380Y4048530D03*
X3329710Y3759420D03*
X3529240Y4450860D03*
X3396850Y4531160D03*
X3316840D03*
X3479240Y4427860D03*
X3470780Y4366400D03*
X3300540Y4355360D03*
X3308540Y4444060D03*
X3461240Y4512860D03*
X3410140Y4296770D03*
X3623240Y4596860D03*
X3615240Y4855860D03*
X3580000Y4905000D03*
X3536140Y5267960D03*
X3599640Y5179060D03*
X3837140Y70260D03*
X4023040Y277060D03*
X3882640D03*
X4028900Y530860D03*
X3795840Y479460D03*
X3957040Y529860D03*
X4026870Y792480D03*
X3901900Y784860D03*
X4027250Y1295400D03*
X3904440Y1290320D03*
X4027250Y1041400D03*
X3906980Y1038860D03*
X4027250Y1546860D03*
X3904440Y1544320D03*
X3755270Y2089710D03*
X3772360Y1833880D03*
X4028900Y2057400D03*
X3904440Y2054860D03*
X4028900Y1800860D03*
X3901900D03*
X3650440Y2067560D03*
X4028900Y2573020D03*
X3906980Y2570480D03*
X4028900Y2316480D03*
X3899360Y2313940D03*
X3768200Y3300670D03*
X3646550Y3289860D03*
X4002240Y4075860D03*
X4007080Y4314210D03*
X4016190Y4368810D03*
X3717140Y4613360D03*
X3866710Y4859390D03*
X3804240Y4594860D03*
X3857350Y4794350D03*
X3884610Y4593860D03*
X3755000Y4864000D03*
X4002430Y4852460D03*
X4016440Y5474360D03*
Y5567660D03*
X4014840Y5661060D03*
X4014140Y5979860D03*
X4014840Y5876960D03*
X4014140Y5763960D03*
X3939340Y5976860D03*
X3846040D03*
X3752640Y5975260D03*
X3649740Y5974560D03*
G54D21*
X3995250Y5295860D03*
X3695230D03*
G54D12*
X400050Y5649470D03*
G54D22*
G01X3701240Y3197860D02*
X3721070D01*
X3810380Y3287170D01*
Y4037720D01*
X3748960Y4099140D01*
X3259320D01*
X3169290Y4009110D01*
X3142250D01*
X3111410Y3978270D01*
Y3928250D01*
X2749320Y3566160D01*
X1608940D01*
X1503000Y3672100D01*
Y3805320D01*
X1499630Y3808690D01*
Y3841310D01*
X1503000Y3844680D01*
Y3894620D01*
X1512240Y3903860D01*
G01X3042240Y4864860D02*
X3070090Y4837010D01*
Y4836010D01*
X3113890Y4792210D01*
Y4065070D01*
X3113610Y4064790D01*
Y4045230D01*
X2735570Y3667190D01*
X1842180D01*
X1726040Y3783330D01*
Y3859740D01*
X1641290Y3944490D01*
X1441610D01*
X1330240Y4055860D01*
G01X1616840Y4115640D02*
X1656210Y4155010D01*
X1763700D01*
X1821850Y4096860D01*
X2269350D01*
X2308890Y4057320D01*
Y4026280D01*
X2313690Y4021480D01*
Y3943410D01*
X2381240Y3875860D01*
G01X1557240Y4056860D02*
Y4050180D01*
X1594930Y4012490D01*
X1627550D01*
X1650610Y4035550D01*
Y4093730D01*
X1679110Y4122230D01*
X1760550D01*
X1943920Y3938860D01*
X2080360D01*
X2176030Y3843190D01*
X2208650D01*
X2248320Y3882860D01*
X2280240D01*
G01X2583240Y4613860D02*
X2556210Y4586830D01*
Y4320830D01*
X2387920Y4152540D01*
X1894560D01*
X1866240Y4180860D01*
X1865920D01*
X1856550Y4190230D01*
X1806870D01*
X1773810Y4223290D01*
X1668810D01*
X1577470Y4131950D01*
Y4099330D01*
X1611240Y4065560D01*
Y4051860D01*
G01X1511240Y4085860D02*
X1552070Y4126690D01*
Y4142480D01*
X1687820Y4278230D01*
X1885550D01*
X1962240Y4201540D01*
X2357600D01*
X2474470Y4318410D01*
Y4379570D01*
X2476220Y4381320D01*
Y4500140D01*
X2506940Y4530860D01*
X2512240D01*
G01X1691570Y4074430D02*
X1695570D01*
X1751440Y4018560D01*
Y3793860D01*
X1852710Y3692590D01*
X2725040D01*
X2848980Y3816530D01*
Y4376430D01*
X2791500Y4433910D01*
Y4514120D01*
X2840240Y4562860D01*
Y4730860D01*
X3017240Y4907860D01*
X3457240D01*
X3509240Y4855860D01*
X3615240D01*
G01X1744240Y4082860D02*
Y4075760D01*
X1875240Y3944760D01*
Y3866540D01*
X1848080Y3839380D01*
Y3792020D01*
X1922110Y3717990D01*
X2642110D01*
X2693210Y3769090D01*
Y4023190D01*
X2633240Y4083160D01*
Y4387750D01*
X2639640Y4394150D01*
Y4475450D01*
X2622610Y4492480D01*
Y4630220D01*
X2816920Y4824530D01*
X2897980D01*
X3006710Y4933260D01*
X3028630D01*
X3031230Y4935860D01*
X3555180D01*
X3563690Y4944370D01*
X3603300D01*
X3683670Y4864000D01*
X3755000D01*
G01X2302100Y4898860D02*
X2239680D01*
X2183130Y4842310D01*
Y4830130D01*
X2147240Y4794240D01*
Y4573540D01*
X2159610Y4561170D01*
Y4528550D01*
X2074920Y4443860D01*
X1948240D01*
G01X3695230Y5295860D02*
Y5299370D01*
X3625040Y5369560D01*
X3581840D01*
X3429390Y5217110D01*
X3331000D01*
X3255740Y5292370D01*
Y5370560D01*
X3193240Y5433060D01*
X2697940D01*
X2672540Y5407660D01*
Y5292470D01*
X2599720Y5219650D01*
X2491680D01*
X2456130Y5255200D01*
Y5472970D01*
X2357610Y5571490D01*
X2288870D01*
X2272240Y5554860D01*
G01X3884610Y4593860D02*
X3835780Y4545030D01*
Y3276640D01*
X3826240Y3267100D01*
Y3109960D01*
X3701240Y2984960D01*
Y2943860D01*
G01X4002430Y4852460D02*
X4056840Y4798050D01*
Y2791460D01*
X3955240Y2689860D01*
G01X3857350Y4794350D02*
Y4686720D01*
X3916270Y4627800D01*
X3916540D01*
X3929240Y4615100D01*
Y4574890D01*
X3861180Y4506830D01*
Y3545920D01*
X3955240Y3451860D01*
G01X869040Y5523850D02*
G02Y5623850I0J50000D01*
G01Y6049520D01*
X340060D01*
X0Y5709460D01*
Y0D01*
X4100050D01*
X4100580Y530D01*
Y6049520D01*
X3434640D01*
Y5623850D01*
G02Y5523850I0J-50000D01*
G01X859610Y6740160D02*
X938990Y6486160D01*
X1018370Y6740160D01*
G01X1262840Y6718990D02*
X1243790Y6731700D01*
X1221570Y6740160D01*
X1196170D01*
X1167590Y6727450D01*
X1145370Y6706290D01*
X1129490Y6680890D01*
X1116790Y6638560D01*
X1113610Y6600460D01*
X1119970Y6562360D01*
X1129490Y6536960D01*
X1148540Y6511550D01*
X1170770Y6494620D01*
X1192990Y6486160D01*
X1215210D01*
X1237440Y6494620D01*
X1256490Y6507320D01*
X1272370Y6524250D01*
G01X1516840Y6718990D02*
X1497790Y6731700D01*
X1475570Y6740160D01*
X1450170D01*
X1421590Y6727450D01*
X1399370Y6706290D01*
X1383490Y6680890D01*
X1370790Y6638560D01*
X1367610Y6600460D01*
X1373970Y6562360D01*
X1383490Y6536960D01*
X1402540Y6511550D01*
X1424770Y6494620D01*
X1446990Y6486160D01*
X1469210D01*
X1491440Y6494620D01*
X1510490Y6507320D01*
X1526370Y6524250D01*
G01X1659720Y6570820D02*
X1742260D01*
G01X1993090Y6486160D02*
Y6740160D01*
X1875610Y6558130D01*
X2034370D01*
G01X2399490Y6740160D02*
Y6486160D01*
X2526490D01*
G01X2637610D02*
X2716990Y6740160D01*
X2796370Y6486160D01*
G01X2767790Y6575060D02*
X2666190D01*
G01X2970990Y6486160D02*
Y6600460D01*
X2907490Y6740160D01*
G01X3034490D02*
X2970990Y6600460D01*
G01X3288490Y6486160D02*
X3161490D01*
Y6740160D01*
X3288490D01*
G01X3237690Y6617400D02*
X3161490D01*
G01X3415490Y6486160D02*
Y6740160D01*
X3494860D01*
X3520260Y6727450D01*
X3536140Y6710530D01*
X3542490Y6676660D01*
X3536140Y6642790D01*
X3517090Y6621630D01*
X3494860Y6608920D01*
X3415490D01*
G01X3494860D02*
X3542490Y6486160D01*
G01X1809040Y5523850D02*
X869040D01*
G01X1809040D02*
X869040D01*
G01X1809040D02*
G03Y5623850I0J50000D01*
G01Y6049520D01*
X2494640D01*
Y5623850D01*
G03Y5523850I0J-50000D01*
G01X3434640D02*
X2494640D01*
G01X3434640D02*
X2494640D01*
G54D13*
X907040Y5351160D03*
X1771040D03*
X2532640D03*
X3396640D03*
G54D23*
G01X1407240Y5209860D02*
X1359880Y5162500D01*
X1086260D01*
X1026620Y5102860D01*
X665950D01*
X607520Y5161290D01*
Y5234940D01*
X640540Y5267960D01*
G01X1262840Y5369560D02*
X1122860Y5229580D01*
X1011300D01*
X986180Y5204460D01*
X653240D01*
G01X2713180Y1576480D02*
X2373240Y1916420D01*
Y1922860D01*
X2181960Y2114140D01*
X1876660D01*
X1647700Y2343100D01*
X1647410D01*
X1614680Y2375830D01*
Y2376120D01*
X1569240Y2421560D01*
Y2532860D01*
X1392850Y2709250D01*
Y3429480D01*
X1466240Y3502870D01*
Y3630620D01*
X1407240Y3689620D01*
Y3903860D01*
X1375940Y3935160D01*
X1284160D01*
X1247760Y3971560D01*
Y4075200D01*
X1288000Y4115440D01*
Y4280000D01*
X1341240Y4333240D01*
X1880200D01*
X1881300Y4332140D01*
X1929860D01*
X1949300Y4351580D01*
X2108300D01*
X2332300Y4575580D01*
X2472960D01*
X2759240Y4861860D01*
X2853240D01*
X2918240Y4926860D01*
G54D14*
X937010Y5423880D03*
X1741070Y5423830D03*
X2562610Y5423880D03*
X3366670Y5423830D03*
G54D24*
G01X2024840Y5394960D02*
Y5368180D01*
X2008560Y5351900D01*
Y5261760D01*
X2029570Y5240750D01*
Y4874490D01*
X1993480Y4838400D01*
Y4786100D01*
X2030010Y4749570D01*
Y4650050D01*
X1972160Y4592200D01*
Y4561200D01*
X1935810Y4524850D01*
X1928140D01*
X1920340Y4517050D01*
Y4517040D01*
X1888830Y4485530D01*
X1261810D01*
X1195000Y4418720D01*
Y4298040D01*
X1135570Y4238610D01*
Y3972530D01*
X1254240Y3853860D01*
X1307230D01*
X1307760Y3853330D01*
X1307770D01*
X1327240Y3833860D01*
G01X2077240Y5382860D02*
X2035230Y5340850D01*
Y5272810D01*
X2056240Y5251800D01*
Y4863440D01*
X2020150Y4827350D01*
Y4797150D01*
X2056680Y4760620D01*
Y4639000D01*
X1998830Y4581150D01*
Y4550150D01*
X1946860Y4498180D01*
X1939200D01*
X1899880Y4458860D01*
X1272860D01*
X1221670Y4407670D01*
Y4286990D01*
X1162240Y4227560D01*
Y3983580D01*
X1265290Y3880530D01*
X1319330D01*
X1328240Y3889440D01*
G54D15*
X754050Y5861350D03*
X1924030D03*
X2379650D03*
X3549630D03*
G54D16*
X1288240Y2788920D03*
X1486360Y721360D03*
X1312980Y2459690D03*
X1336500Y2834640D03*
X2128880Y749000D03*
Y805180D03*
X2397240Y1398860D03*
X2455370Y3267710D03*
X2393140Y3268980D03*
X2766520Y1351280D03*
X2708100D03*
X2931620Y977900D03*
X2875330Y978130D03*
X3111960Y1272540D03*
X3169870Y1272490D03*
X3228800Y1272540D03*
X3066240Y1509060D03*
G54D17*
X1679400Y2065020D03*
X1670560Y2398980D03*
X1668020Y2505630D03*
X1510570Y2398980D03*
X1508030Y2505630D03*
X1781000Y2065020D03*
X1830560Y2398980D03*
X1990550D03*
X1988010Y2505630D03*
X1828020D03*
G54D18*
X2909750Y123570D03*
X3476730D03*
G54D19*
X3166900Y667610D03*
X3366900D03*
M02*
