G04 ================== begin FILE IDENTIFICATION RECORD ==================*
G04 Layout Name:  D:/projects/Popcorn/Rev2.0/Brd/Popcorn Computer Rev 2p0_Release.brd*
G04 Film Name:    paste_top*
G04 File Format:  Gerber RS274X*
G04 File Origin:  Cadence Allegro 16.6-2015-S105*
G04 Origin Date:  Tue Jul 14 12:45:48 2020*
G04 *
G04 Layer:  PIN/PASTEMASK_TOP*
G04 Layer:  PACKAGE GEOMETRY/PASTEMASK_TOP*
G04 Layer:  BOARD GEOMETRY/OUTLINE*
G04 *
G04 Offset:    (0.0000 0.0000)*
G04 Mirror:    No*
G04 Mode:      Positive*
G04 Rotation:  0*
G04 FullContactRelief:  No*
G04 UndefLineWidth:     0.1270*
G04 ================== end FILE IDENTIFICATION RECORD ====================*
%FSLAX25Y25*MOMM*%
%IR0*IPPOS*OFA0.00000B0.00000*MIA0B0*SFA1.00000B1.00000*%
%ADD48R,1.3995X1.1989*%
%ADD49R,.6X1.55*%
%ADD43C,.23*%
%ADD38C,.25*%
%AMMACRO11*
4,1,5,-.1501,-.1001,
-.1501,.1001,
.1001,.1001,
.1501,.05,
.1501,-.1001,
-.1501,-.1001,
0.0*
%
%ADD11MACRO11*%
%ADD30O,.6604X1.27*%
%AMMACRO45*
4,1,5,2.0498,-1.5011,
2.0498,2.0498,
-2.0498,2.0498,
-2.0498,-2.0498,
1.5011,-2.0498,
2.0498,-1.5011,
0.0*
%
%ADD45MACRO45*%
%ADD36R,1.X.5999*%
%ADD14R,1.1989X.5004*%
%ADD13R,.5004X1.1989*%
%ADD15C,.5994*%
%ADD10R,.8999X1.7*%
%ADD26R,.8999X1.8001*%
%ADD18R,.5994X.5994*%
%ADD31R,1.5X1.4*%
%ADD21R,3.7X1.1*%
%ADD17R,.22X.3*%
%ADD16R,.3X.22*%
%ADD33R,.7X.2*%
%ADD44O,1.016X1.27*%
%ADD32R,.2X.7*%
%ADD25R,.8X.2*%
%ADD42O,2.4003X1.6002*%
%ADD24R,.2X.8*%
%ADD50R,.2X.9*%
%ADD52R,.81X.22*%
%ADD53R,.22X.81*%
%ADD51R,5.7X1.7*%
%ADD23R,.3X.84*%
%ADD35R,.27X.8001*%
%ADD39O,1.016X1.6256*%
%ADD28R,.41X.87*%
%ADD41O,.1905X.254*%
%ADD37O,.254X.1905*%
%ADD29R,.26X.87*%
%ADD12R,.3X.1999*%
%ADD27R,.1999X.3*%
%ADD22R,1.4732X1.1684*%
%ADD47O,.1999X.8001*%
%ADD46O,.8001X.1999*%
%ADD40R,.8992X.8001*%
%ADD19R,.8001X.8992*%
%ADD20R,1.1684X2.7178*%
%ADD34R,.27X.8999*%
%ADD54C,.127*%
G75*
%LPD*%
G75*
G36*
G01X842840Y5140060D02*
X769840D01*
Y5067060D01*
X842840D01*
Y5140060D01*
G37*
G36*
G01X739840D02*
X666840D01*
Y5067060D01*
X739840D01*
Y5140060D01*
G37*
G36*
G01Y5037060D02*
X666840D01*
Y4964060D01*
X739840D01*
Y5037060D01*
G37*
G36*
G01X842840D02*
X769840D01*
Y4964060D01*
X842840D01*
Y5037060D01*
G37*
G36*
G01X1359340Y4779660D02*
X1244340D01*
Y4632660D01*
X1359340D01*
Y4779660D01*
G37*
G36*
G01X1638840Y4575660D02*
X1526840D01*
Y4428660D01*
X1638840D01*
Y4575660D01*
G37*
G36*
G01X1506840D02*
X1394840D01*
Y4428660D01*
X1506840D01*
Y4575660D01*
G37*
G36*
G01X1374840D02*
X1262840D01*
Y4428660D01*
X1374840D01*
Y4575660D01*
G37*
G36*
G01Y4403660D02*
X1262840D01*
Y4256660D01*
X1374840D01*
Y4403660D01*
G37*
G36*
G01X1506840D02*
X1394840D01*
Y4256660D01*
X1506840D01*
Y4403660D01*
G37*
G36*
G01X1638840D02*
X1526840D01*
Y4256660D01*
X1638840D01*
Y4403660D01*
G37*
G36*
G01X1494340Y4779660D02*
X1379340D01*
Y4632660D01*
X1494340D01*
Y4779660D01*
G37*
G36*
G01X1651840D02*
X1536840D01*
Y4632660D01*
X1651840D01*
Y4779660D01*
G37*
G36*
G01X1366840Y4838660D02*
X1346840D01*
Y4818660D01*
X1366840D01*
Y4838660D01*
G37*
G36*
G01X1286840D02*
X1266840D01*
Y4818660D01*
X1286840D01*
Y4838660D01*
G37*
G36*
G01X1770840Y4575660D02*
X1658840D01*
Y4428660D01*
X1770840D01*
Y4575660D01*
G37*
G36*
G01Y4403660D02*
X1658840D01*
Y4256660D01*
X1770840D01*
Y4403660D01*
G37*
G36*
G01X1786840Y4779660D02*
X1671840D01*
Y4632660D01*
X1786840D01*
Y4779660D01*
G37*
G36*
G01X1686840Y4838660D02*
X1666840D01*
Y4818660D01*
X1686840D01*
Y4838660D01*
G37*
G36*
G01X1766840D02*
X1746840D01*
Y4818660D01*
X1766840D01*
Y4838660D01*
G37*
G36*
G01X2252540Y5165460D02*
X2179540D01*
Y5092460D01*
X2252540D01*
Y5165460D01*
G37*
G36*
G01X2149540D02*
X2076540D01*
Y5092460D01*
X2149540D01*
Y5165460D01*
G37*
G36*
G01Y5062460D02*
X2076540D01*
Y4989460D01*
X2149540D01*
Y5062460D01*
G37*
G36*
G01X2252540D02*
X2179540D01*
Y4989460D01*
X2252540D01*
Y5062460D01*
G37*
G54D10*
X671760Y236220D03*
X3461740Y1838960D03*
G54D20*
X630130Y3578860D03*
X930350D03*
G54D11*
X833530Y502950D03*
G54D12*
Y462970D03*
X923550Y502950D03*
Y462970D03*
G54D21*
X754840Y3911460D03*
Y4211460D03*
G54D30*
X1256490Y3616960D03*
X1161240D03*
X1065990D03*
Y3870960D03*
X1256490D03*
X1599390Y3680460D03*
X1504140D03*
X1408890D03*
Y3934460D03*
X1599390D03*
G54D40*
X1968960Y821940D03*
Y681740D03*
X1966420Y1029720D03*
Y1169920D03*
X1974040Y1565760D03*
Y1705760D03*
X1976580Y2099160D03*
Y2239160D03*
X2075640Y4105760D03*
X2041240Y4499960D03*
Y4359760D03*
X2075640Y4245760D03*
X2347740Y322160D03*
Y462160D03*
X2363930Y1619400D03*
Y1479400D03*
X2240740Y5832960D03*
Y5972960D03*
X2520140Y321160D03*
Y461160D03*
X2496010Y1619400D03*
Y1479400D03*
X2769060Y2104240D03*
Y2244240D03*
X2812240Y3521560D03*
Y3661560D03*
X3442240Y1050360D03*
Y1190360D03*
G54D22*
X691340Y4555740D03*
Y4735580D03*
X2494740Y5167380D03*
Y4987540D03*
X2812240Y4913380D03*
Y4733540D03*
G54D31*
X958040Y4480560D03*
G54D13*
X787350Y624080D03*
X877520D03*
Y1783840D03*
X787350D03*
X967440Y624080D03*
X1057350D03*
X1147520D03*
X1237440D03*
Y1783840D03*
X1147520D03*
X1057350D03*
X967440D03*
X1327360Y624080D03*
X1417530D03*
X1507440D03*
X1597360D03*
Y1783840D03*
X1507440D03*
X1417530D03*
X1327360D03*
X1687530Y624080D03*
Y1783840D03*
G54D41*
X1681260Y2712840D03*
X1731260D03*
X1781260D03*
G54D23*
X883040Y4336060D03*
Y4625060D03*
X1033040Y4336060D03*
X983040D03*
X933040D03*
Y4625060D03*
X983040D03*
X1033040D03*
G54D50*
X2128740Y5404260D03*
G54D32*
X1256840Y4183660D03*
Y4853660D03*
X1296840Y4183660D03*
X1336840D03*
X1376840D03*
X1416840D03*
X1456840D03*
X1496840D03*
X1536840D03*
X1576840D03*
X1616840D03*
X1656840D03*
Y4853660D03*
X1616840D03*
X1576840D03*
X1536840D03*
X1496840D03*
X1456840D03*
X1416840D03*
X1376840D03*
X1336840D03*
X1296840D03*
X1696840Y4183660D03*
X1736840D03*
X1776840D03*
X1696840Y4853660D03*
X1776840D03*
X1736840D03*
G54D14*
X657560Y933960D03*
Y844040D03*
Y753870D03*
Y1384050D03*
Y1293880D03*
Y1203960D03*
Y1114040D03*
Y1023870D03*
Y1654050D03*
Y1563880D03*
Y1473960D03*
X1817320Y753870D03*
Y844040D03*
Y933960D03*
Y1023870D03*
Y1114040D03*
Y1203960D03*
Y1293880D03*
Y1384050D03*
Y1473960D03*
Y1563880D03*
Y1654050D03*
G54D51*
X3244040Y4661960D03*
Y5111960D03*
G54D24*
X674840Y4902060D03*
X714840D03*
X754840D03*
X794840D03*
X834840D03*
Y5202060D03*
X794840D03*
X754840D03*
X714840D03*
X674840D03*
X2084540Y4927460D03*
X2124540D03*
X2164540D03*
X2204540D03*
X2244540D03*
Y5227460D03*
X2204540D03*
X2164540D03*
X2124540D03*
X2084540D03*
X2168740Y5399260D03*
X2128740Y5539260D03*
X2168740D03*
G54D42*
X1847040Y3728210D03*
Y3988310D03*
X2748740Y261110D03*
Y521210D03*
X2807160Y1675890D03*
Y1935990D03*
X3213560Y896110D03*
Y1156210D03*
G54D33*
X1181840Y4498660D03*
Y4458660D03*
Y4418660D03*
Y4378660D03*
Y4338660D03*
Y4298660D03*
Y4258660D03*
Y4778660D03*
Y4738660D03*
Y4698660D03*
Y4658660D03*
Y4618660D03*
Y4578660D03*
Y4538660D03*
X1851840Y4258660D03*
Y4298660D03*
Y4338660D03*
Y4378660D03*
Y4418660D03*
Y4458660D03*
Y4498660D03*
Y4538660D03*
Y4578660D03*
Y4618660D03*
Y4658660D03*
Y4698660D03*
Y4738660D03*
Y4778660D03*
G54D15*
X877520Y933960D03*
Y1114040D03*
Y1293880D03*
G54D34*
X1052530Y5293860D03*
X1102540D03*
X1152530D03*
X1202540D03*
X1252530D03*
X1302540D03*
X1352530D03*
X1402540D03*
X1452550D03*
X1502540D03*
X1552550D03*
X1602540D03*
X2678130D03*
X2728140D03*
X2778130D03*
X2828140D03*
X2878130D03*
X2928140D03*
X2978130D03*
X3028140D03*
X3078150D03*
X3128140D03*
X3178150D03*
X3228140D03*
G54D52*
X3356340Y3511760D03*
Y3471760D03*
X3485340D03*
Y3511760D03*
G54D25*
X604840Y5132060D03*
Y5092060D03*
Y5052060D03*
Y5012060D03*
Y4972060D03*
X904840D03*
Y5012060D03*
Y5052060D03*
Y5092060D03*
Y5132060D03*
X2014540Y5157460D03*
Y5117460D03*
Y5077460D03*
Y5037460D03*
Y4997460D03*
X2058740Y5429260D03*
Y5469260D03*
Y5509260D03*
X2314540Y4997460D03*
Y5037460D03*
Y5077460D03*
Y5117460D03*
Y5157460D03*
X2238740Y5429260D03*
Y5469260D03*
Y5509260D03*
G54D16*
X851840Y2047240D03*
X859460Y2440940D03*
X1255700Y449580D03*
X911840Y2047240D03*
X919460Y2440940D03*
X1105840Y3108960D03*
X1165840D03*
Y3274060D03*
X1105840D03*
X1165840Y3058160D03*
X1105840D03*
Y3223260D03*
X1165840D03*
X1315700Y449580D03*
X1933880Y101600D03*
X1993880D03*
X2004040Y581660D03*
X1944040D03*
Y518160D03*
X2004040D03*
X2032940Y5801360D03*
X2185340Y1635760D03*
X2245340D03*
X2385040Y1755140D03*
X2325040D03*
X2185340D03*
X2245340D03*
X2092940Y5801360D03*
X2650640Y114360D03*
X2710640D03*
X2763940Y114660D03*
X2823940D03*
X2829540Y3426460D03*
X2769540D03*
Y3375660D03*
X2829540D03*
X2515540Y3845560D03*
X2575540D03*
X2782240Y3921760D03*
X2780740Y3767860D03*
X2550140Y4010660D03*
X2490140D03*
X2794940Y4531360D03*
X2934640Y873760D03*
X2994640D03*
X2934640Y810260D03*
X2994640D03*
X2993060Y3970020D03*
X3053060D03*
X2858440Y4099560D03*
X2918440D03*
X2842240Y3921760D03*
X3196260Y3967480D03*
X3093240Y3909860D03*
X3033240D03*
X2840740Y3767860D03*
X2854940Y4531360D03*
X3442640Y2118360D03*
X3502640D03*
X3442640Y2054860D03*
X3502640D03*
X3442640Y2207260D03*
X3502640D03*
X3256260Y3967480D03*
X3353060Y3925680D03*
X3413060D03*
G54D43*
X2028340Y4616460D03*
Y4656460D03*
Y4696460D03*
Y4736460D03*
Y4776460D03*
X2148340Y4616460D03*
X2108340D03*
X2068340D03*
X2148340Y4656460D03*
X2108340D03*
X2068340D03*
X2148340Y4696460D03*
X2108340D03*
X2068340D03*
X2148340Y4736460D03*
X2108340D03*
X2068340D03*
X2148340Y4776460D03*
X2108340D03*
X2068340D03*
X2116780Y5685770D03*
X2156780D03*
X2196780D03*
X2116780Y5645770D03*
X2156780D03*
X2196780D03*
X2116780Y5725770D03*
X2156780D03*
X2196780D03*
G54D35*
X1077550Y5453850D03*
X1127530D03*
X1177550D03*
X1227530D03*
X1277550D03*
X1327530D03*
X1377550D03*
X1427530D03*
X1477550D03*
X1527530D03*
X1577550D03*
X1627530D03*
X2703150D03*
X2753130D03*
X2803150D03*
X2853130D03*
X2903150D03*
X2953130D03*
X3003150D03*
X3053130D03*
X3103150D03*
X3153130D03*
X3203150D03*
X3253130D03*
G54D53*
X3380840Y3407260D03*
X3420840D03*
X3460840D03*
Y3576260D03*
X3420840D03*
X3380840D03*
G54D44*
X2360120Y162560D03*
X2537920D03*
X3099390Y2505860D03*
X3194640Y2734460D03*
X2964090Y3576060D03*
X3154590D03*
X3059340Y3804660D03*
X3289890Y2505860D03*
G54D17*
X665940Y1877060D03*
Y1937060D03*
X1255700Y328140D03*
Y388140D03*
X1237440Y3053560D03*
Y3113560D03*
X945340Y4729960D03*
Y4789960D03*
X1466040Y5072860D03*
Y5132860D03*
Y4958560D03*
Y5018560D03*
X1542240Y5072860D03*
Y5132860D03*
Y4958560D03*
Y5018560D03*
X2050240Y3955260D03*
Y4015260D03*
X1970240Y5530860D03*
Y5470860D03*
X2070560Y640560D03*
Y700560D03*
X2068020Y1138400D03*
Y1198400D03*
X2065480Y1511780D03*
Y1571780D03*
X2367740Y4891560D03*
Y4831560D03*
X2677620Y2174720D03*
Y2234720D03*
X2723340Y2824960D03*
Y2884960D03*
X2799540Y4091460D03*
Y4031460D03*
X2443940Y4891560D03*
Y4831560D03*
X2520140Y4891560D03*
Y4831560D03*
X3015440Y2367760D03*
Y2427760D03*
X2964640Y2367760D03*
Y2427760D03*
X2913840Y2367760D03*
Y2427760D03*
X2863040Y4035580D03*
Y3975580D03*
X3078040Y4167280D03*
Y4227280D03*
X3027640Y4166960D03*
Y4226960D03*
X3385240Y3685860D03*
X3475240D03*
X3493240Y3976860D03*
Y3916860D03*
X3385240Y3745860D03*
X3475240D03*
X3245240Y4215860D03*
Y4155860D03*
X3382840Y4157280D03*
Y4217280D03*
X3321880D03*
Y4157280D03*
G54D26*
X1081760Y236220D03*
X3051740Y1838960D03*
G54D54*
G01X869040Y5523850D02*
G02Y5623850I0J50000D01*
G01Y6049520D01*
X340060D01*
X0Y5709460D01*
Y0D01*
X4100050D01*
X4100580Y530D01*
Y6049520D01*
X3434640D01*
Y5623850D01*
G02Y5523850I0J-50000D01*
G01X783030Y6383990D02*
Y6637990D01*
X859230D01*
X884630Y6625280D01*
X903680Y6595660D01*
X910030Y6561790D01*
X903680Y6527920D01*
X887800Y6502520D01*
X859230Y6489820D01*
X783030D01*
G01X1017980Y6383990D02*
Y6637990D01*
X1100530Y6426320D01*
X1183080Y6637990D01*
Y6383990D01*
G01X1354530Y6637990D02*
Y6383990D01*
G01X1281510Y6637990D02*
X1427550D01*
G01X1799030D02*
Y6383990D01*
X1926030D01*
G01X2037150D02*
X2116530Y6637990D01*
X2195910Y6383990D01*
G01X2167330Y6472890D02*
X2065730D01*
G01X2370530Y6383990D02*
Y6498290D01*
X2307030Y6637990D01*
G01X2434030D02*
X2370530Y6498290D01*
G01X2688030Y6383990D02*
X2561030D01*
Y6637990D01*
X2688030D01*
G01X2637230Y6515230D02*
X2561030D01*
G01X2815030Y6383990D02*
Y6637990D01*
X2894400D01*
X2919800Y6625280D01*
X2935680Y6608360D01*
X2942030Y6574490D01*
X2935680Y6540620D01*
X2916630Y6519460D01*
X2894400Y6506750D01*
X2815030D01*
G01X2894400D02*
X2942030Y6383990D01*
G01X1809040Y5523850D02*
X869040D01*
G01X1809040D02*
X869040D01*
G01X1809040D02*
G03Y5623850I0J50000D01*
G01Y6049520D01*
X2494640D01*
Y5623850D01*
G03Y5523850I0J-50000D01*
G01X3434640D02*
X2494640D01*
G01X3434640D02*
X2494640D01*
G54D27*
X878540Y527970D03*
Y437950D03*
G54D18*
X869930Y2131060D03*
X875790Y2540750D03*
X704790Y2541950D03*
X726900Y2258850D03*
Y2358870D03*
X869930Y2359660D03*
X877550Y2877820D03*
X875790Y2640770D03*
X704790Y2641970D03*
X708490Y2725150D03*
Y2825170D03*
X710690Y2911050D03*
X877550Y3103880D03*
Y2994660D03*
X878360Y3219480D03*
X878030Y3303410D03*
X796690Y3119350D03*
Y3219370D03*
X710690Y3011070D03*
X969950Y2131060D03*
Y2359660D03*
X977570Y2877820D03*
Y3103880D03*
Y2994660D03*
X978380Y3219480D03*
X978050Y3303410D03*
X958800Y4861560D03*
X1058880D03*
X1046940Y4951220D03*
Y5051300D03*
X1523700Y1998980D03*
X1423620D03*
X1669240Y2144550D03*
X1572720D03*
X1669240Y2244570D03*
X1572720D03*
X2052020Y924560D03*
X1951940D03*
X1954480Y1280160D03*
X2054560D03*
Y1432560D03*
X1954480D03*
X1862280Y2144550D03*
X1765760D03*
X1862280Y2244570D03*
X1765760D03*
X2101800Y162560D03*
X2201880D03*
X2154380Y1551180D03*
Y1451100D03*
X2250900Y1551180D03*
Y1451100D03*
X2126440Y3933670D03*
Y3833650D03*
X2666240Y3909850D03*
Y4009870D03*
X3146760Y1353820D03*
X3046680D03*
X2979880Y2124230D03*
X2883360D03*
X2979880Y2224250D03*
X2883360D03*
X2940500Y2729360D03*
X3040580D03*
X2940530Y2811460D03*
X3040550D03*
X3002940Y3026920D03*
Y3127000D03*
X2940540Y3366370D03*
Y3266350D03*
X3026840Y3365070D03*
Y3265050D03*
G54D36*
X1496520Y101600D03*
Y203200D03*
G54D45*
X2502360Y967740D03*
G54D19*
X865180Y1945640D03*
Y2245360D03*
X871170Y2766660D03*
X1005180Y1945640D03*
Y2245360D03*
X1011170Y2766660D03*
X1078540Y4048760D03*
X1218540D03*
X2760020Y1432560D03*
X2703040Y3276560D03*
X2843040D03*
X2767940Y5090160D03*
X2627940D03*
X2900020Y1432560D03*
X3192120Y1587500D03*
X3052120D03*
X3123240Y3337560D03*
X3400400Y1353820D03*
X3260400D03*
X3263240Y3337560D03*
G54D46*
X2202360Y987730D03*
Y947750D03*
Y907750D03*
Y867740D03*
Y827740D03*
Y787730D03*
Y747750D03*
Y1187730D03*
Y1147750D03*
Y1107740D03*
Y1067740D03*
Y1027730D03*
X2802360Y747750D03*
Y787730D03*
Y827740D03*
Y867740D03*
Y907750D03*
Y947750D03*
Y987730D03*
Y1027730D03*
Y1067740D03*
Y1107740D03*
Y1147750D03*
Y1187730D03*
G54D37*
X1631260Y2712840D03*
Y2762840D03*
Y2812840D03*
Y2862840D03*
Y2912840D03*
Y2962840D03*
Y3012840D03*
X2281260Y2712840D03*
Y2762840D03*
G54D28*
X1261240Y2180340D03*
X1096240D03*
X1261240Y2296340D03*
X1096240D03*
X1493240Y2180160D03*
X1328240D03*
X1493240Y2296160D03*
X1328240D03*
G54D47*
X2282370Y667740D03*
X2322350D03*
X2362360D03*
X2402360D03*
Y1267740D03*
X2362360D03*
X2322350D03*
X2282370D03*
X2442370Y667740D03*
X2482370D03*
X2522350D03*
X2562350D03*
X2602360D03*
X2642360D03*
X2682370D03*
X2722350D03*
Y1267740D03*
X2682370D03*
X2642360D03*
X2602360D03*
X2562350D03*
X2522350D03*
X2482370D03*
X2442370D03*
G54D29*
X1203740Y2180340D03*
X1153740D03*
Y2296340D03*
X1203740D03*
X1435740Y2180160D03*
X1385740D03*
Y2296160D03*
X1435740D03*
G54D38*
X1631260Y3062840D03*
Y3112840D03*
Y3162840D03*
Y3212840D03*
Y3262840D03*
Y3312840D03*
Y3362840D03*
X1681260Y2762840D03*
Y2812840D03*
Y2862840D03*
Y2912840D03*
X1731260Y2762840D03*
Y2812840D03*
Y2862840D03*
Y2912840D03*
X1781260Y2762840D03*
Y2812840D03*
X1831260Y2712840D03*
X1881260D03*
X1831260Y2762840D03*
Y2812840D03*
Y2912840D03*
X1881260Y2762840D03*
Y2812840D03*
Y2912840D03*
X1931260Y2712840D03*
Y2762840D03*
Y2812840D03*
Y2912840D03*
X1981260Y2712840D03*
Y2762840D03*
Y2812840D03*
Y2912840D03*
X2031260Y2712840D03*
Y2762840D03*
Y2812840D03*
Y2912840D03*
X1781260Y2862840D03*
X1681260Y2962840D03*
Y3012840D03*
Y3062840D03*
Y3112840D03*
Y3162840D03*
Y3212840D03*
Y3262840D03*
Y3312840D03*
X1731260Y2962840D03*
Y3012840D03*
Y3062840D03*
Y3112840D03*
Y3162840D03*
Y3212840D03*
Y3262840D03*
Y3312840D03*
X1781260Y3262840D03*
Y3312840D03*
X1831260Y2962840D03*
Y3012840D03*
Y3062840D03*
Y3112840D03*
Y3162840D03*
Y3262840D03*
Y3312840D03*
X1881260Y3162840D03*
Y3262840D03*
Y3312840D03*
X1931260Y3162840D03*
Y3262840D03*
Y3312840D03*
X1981260Y3162840D03*
Y3262840D03*
Y3312840D03*
X2031260Y3162840D03*
Y3262840D03*
Y3312840D03*
X1681260Y3362840D03*
X1731260D03*
X1781260D03*
X1831260D03*
X1881260D03*
X1931260D03*
X1981260D03*
X2031260D03*
X2081260Y2712840D03*
Y2762840D03*
Y2812840D03*
Y2912840D03*
X2131260Y2712840D03*
Y2762840D03*
Y2812840D03*
X2181260Y2712840D03*
Y2762840D03*
Y2812840D03*
Y2862840D03*
Y2912840D03*
X2231260Y2712840D03*
Y2762840D03*
Y2812840D03*
Y2862840D03*
Y2912840D03*
X2281260Y2812840D03*
Y2862840D03*
Y2912840D03*
X2081260Y2962840D03*
Y3012840D03*
Y3062840D03*
Y3112840D03*
Y3162840D03*
Y3262840D03*
Y3312840D03*
X2131260Y3262840D03*
Y3312840D03*
X2181260Y2962840D03*
Y3012840D03*
Y3062840D03*
Y3112840D03*
Y3162840D03*
Y3212840D03*
Y3262840D03*
Y3312840D03*
X2231260Y2962840D03*
Y3012840D03*
Y3062840D03*
Y3112840D03*
Y3162840D03*
Y3212840D03*
Y3262840D03*
Y3312840D03*
X2281260Y2962840D03*
Y3012840D03*
Y3062840D03*
Y3112840D03*
Y3162840D03*
Y3212840D03*
Y3262840D03*
Y3312840D03*
X2081260Y3362840D03*
X2131260D03*
X2181260D03*
X2231260D03*
X2281260D03*
G54D39*
X1801320Y152400D03*
G54D48*
X2189180Y1908810D03*
X2409140D03*
Y2068830D03*
X2189180D03*
G54D49*
X2382440Y4163860D03*
X2255440D03*
Y4703860D03*
X2382440D03*
X2636440Y4163860D03*
X2509440D03*
Y4703860D03*
X2636440D03*
M02*
