G04 ================== begin FILE IDENTIFICATION RECORD ==================*
G04 Layout Name:  D:/projects/Popcorn/Rev2.0/Brd/Popcorn Computer Rev 2p0_Release.brd*
G04 Film Name:    bottom*
G04 File Format:  Gerber RS274X*
G04 File Origin:  Cadence Allegro 16.6-2015-S105*
G04 Origin Date:  Tue Jul 21 11:26:30 2020*
G04 *
G04 Layer:  VIA CLASS/BOTTOM*
G04 Layer:  PIN/BOTTOM*
G04 Layer:  ETCH/BOTTOM*
G04 Layer:  BOARD GEOMETRY/OUTLINE*
G04 *
G04 Offset:    (0.0000 0.0000)*
G04 Mirror:    No*
G04 Mode:      Positive*
G04 Rotation:  0*
G04 FullContactRelief:  No*
G04 UndefLineWidth:     0.1270*
G04 ================== end FILE IDENTIFICATION RECORD ====================*
%FSLAX25Y25*MOMM*%
%IR0*IPPOS*OFA0.00000B0.00000*MIA0B0*SFA1.00000B1.00000*%
%ADD47R,1.8999X1.8999*%
%ADD54R,.3X1.6*%
%ADD50R,.4X1.4*%
%ADD22R,.45X1.4*%
%ADD45O,.95X2.1001*%
%ADD43C,.4*%
%ADD53R,.59X1.25*%
%ADD11C,.4064*%
%ADD42C,.762*%
%ADD36C,.6604*%
%ADD29R,.8001X.8001*%
%ADD32C,.4572*%
%ADD31O,.1999X1.65*%
%ADD19O,1.65X.1999*%
%ADD49C,.5999*%
%ADD21R,.5994X.5994*%
%ADD24R,3.X2.*%
%ADD46R,1.4X1.*%
%ADD16R,.22X.3*%
%ADD17R,.3X.22*%
%ADD41O,1.016X1.27*%
%ADD44O,1.27X1.016*%
%ADD33O,2.4003X1.6002*%
%ADD48C,1.1001*%
%ADD39R,1.6002X1.016*%
%ADD28O,1.3X2.7501*%
%ADD13R,1.016X1.6002*%
%ADD10C,1.5001*%
%ADD18R,1.X1.*%
%ADD52R,.87X.41*%
%ADD26O,1.524X1.1176*%
%ADD15C,5.5001*%
%ADD37R,.41X.87*%
%ADD56C,1.651*%
%ADD35R,6.X6.*%
%ADD51R,.87X.26*%
%ADD12R,1.5001X1.5001*%
%ADD38R,.26X.87*%
%ADD55R,1.88X1.57*%
%ADD40R,.3048X.7112*%
%ADD25O,1.1999X2.3*%
%ADD14R,.7112X.3048*%
%ADD57R,1.651X1.651*%
%ADD30R,2.1999X1.05*%
%ADD34R,1.4732X1.1684*%
%ADD23R,1.1684X1.4732*%
%ADD27R,.8992X.8001*%
%ADD20R,.8001X.8992*%
%ADD58C,.2032*%
%ADD59C,.1016*%
%ADD60C,.1143*%
%ADD61C,.127*%
%ADD62C,.1154*%
%ADD63C,.254*%
%ADD64C,.1524*%
%ADD65C,.381*%
%ADD66C,.508*%
%ADD67C,.3048*%
%ADD68C,.1397*%
%ADD69C,.4826*%
%ADD70C,.3498*%
%ADD72C,.61*%
%ADD74C,.7116*%
%ADD75C,.6354*%
%ADD77C,.6608*%
%ADD73C,2.0086*%
%ADD71C,1.7038*%
%ADD76R,1.0544X1.8544*%
G75*
%LPD*%
G75*
G36*
G01X-87360Y125150D02*
Y452040D01*
G02X-68970Y458000I10161J1D01*
G03Y558000I68970J50000D01*
G02X-87360Y563960I-8229J5959D01*
G01Y682820D01*
G02X-70110Y690090I10159J-5D01*
G03Y833910I70110J71910D01*
G02X-87360Y841180I-7091J7275D01*
G01Y960040D01*
G02X-68970Y966000I10161J1D01*
G03X41930Y941840I68974J49999D01*
G01X45290Y943740D01*
X111480Y877550D01*
X350800D01*
X382690Y909440D01*
G02X400030Y902250I7181J-7187D01*
G01Y820700D01*
X360400Y781070D01*
X337120D01*
X336080Y784790D01*
G03Y739210I-82080J-22790D01*
G01X337120Y742930D01*
X376200D01*
X438170Y804900D01*
Y1153620D01*
X441610Y1157060D01*
G02X450280Y1153470I3590J-3593D01*
G01Y1131980D01*
X457660D01*
Y1118460D01*
X450280D01*
Y1071020D01*
X457660D01*
Y1057500D01*
X450280D01*
Y1010060D01*
X457660D01*
Y996540D01*
X450280D01*
Y949100D01*
X565720D01*
Y956290D01*
X585740D01*
G03X596370Y949840I20806J22305D01*
G02X599740Y932680I-3386J-9576D01*
G03X533200Y785430I132159J-148380D01*
G03X532870Y747060I684964J-25077D01*
G03X548710Y709140I55890J1078D01*
G02X548730Y702070I-3637J-3545D01*
G03X533100Y663300I40269J-38770D01*
G01Y601630D01*
X533080Y601420D01*
G03X549290Y557350I55719J-4521D01*
G01X558280Y548370D01*
G03X647590Y511210I89724J89738D01*
G01X648000D01*
G03X703860Y564900I0J55904D01*
G01X704050Y569780D01*
X705720D01*
Y582080D01*
X719420D01*
Y637520D01*
X707250D01*
G02X703660Y646190I1J5079D01*
G01X710230Y652760D01*
X781700D01*
Y646310D01*
X781010Y645120D01*
G03X778910Y640770I26330J-15393D01*
G01X777650Y637520D01*
X751180D01*
Y582080D01*
X764880D01*
Y569780D01*
X784920D01*
Y582080D01*
X798620D01*
Y589120D01*
G02X808420Y599270I10160J-4D01*
G03X836290Y639390I-1068J30482D01*
G02X845930Y652760I9638J3211D01*
G01X1119030D01*
X1214140Y747870D01*
Y821830D01*
G02X1228680Y831000I10160J3D01*
G03X1252790Y830060I13146J27521D01*
G02X1266600Y820580I3649J-9483D01*
G01Y818580D01*
X1308610D01*
X1309760Y815100D01*
G03X1310280Y813640I31377J10353D01*
G01X1310620Y812760D01*
Y770480D01*
X1349600Y731500D01*
X1367260D01*
Y728180D01*
X1482620D01*
Y731500D01*
X1700870D01*
G02X1711000Y722150I2J-10160D01*
G03X1771800I30400J2450D01*
G02X1781930Y731500I10128J-810D01*
G01X1811880D01*
X1882120Y661260D01*
Y581680D01*
X1881930Y581000D01*
G03X1879580Y563880I61170J-17118D01*
G01Y538480D01*
G03X1881930Y521360I63520J-2D01*
G01X1882120Y520680D01*
Y512680D01*
X1888100Y506700D01*
G03X1910780Y483800I54995J31785D01*
G01X1911330Y483470D01*
X1912180Y482620D01*
X1912830D01*
X1913930Y482050D01*
G03X1923690Y478000I29141J56442D01*
G01X1927220Y476870D01*
Y227680D01*
X1980210Y174690D01*
X1980530Y174170D01*
G03X1990770Y163930I26070J15830D01*
G01X1991290Y163610D01*
X1991680Y163220D01*
X1991950D01*
X1993020Y162690D01*
G03X2020180I13580J27310D01*
G01X2021250Y163220D01*
X2039220D01*
G03X2074780I17780J24780D01*
G01X2093050D01*
X2094120Y162690D01*
G03X2121280I13580J27310D01*
G01X2122350Y163220D01*
X2158290D01*
X2158540Y158410D01*
G03X2164770Y141480I30458J1597D01*
G02X2156700Y125150I-8073J-6169D01*
G01X1833900D01*
Y563900D01*
X1224260D01*
Y125150D01*
X-87360D01*
G37*
G36*
G01X127280Y915690D02*
X72260Y970710D01*
X74160Y974070D01*
G03X-68970Y1066000I-74157J41929D01*
G02X-87360Y1071960I-8229J5959D01*
G01Y1184820D01*
X61810D01*
X94750Y1151870D01*
X325010D01*
X331890Y1158750D01*
G02X349230Y1151570I7181J-7186D01*
G01Y1062000D01*
X343750Y1056510D01*
G02X327760Y1058620I-7186J7186D01*
G03X336360Y994210I-73759J-42627D01*
G01X336710Y995540D01*
X357290Y1016120D01*
G02X374630Y1008930I7181J-7187D01*
G01Y955320D01*
X335000Y915690D01*
X127280D01*
G37*
G36*
G01X108450Y1184930D02*
X85180Y1208190D01*
Y1355180D01*
X-87360D01*
Y1468040D01*
G02X-68970Y1474000I10161J1D01*
G03X44070Y1451090I68975J49999D01*
G01X47470Y1453150D01*
X117610Y1383010D01*
X316730D01*
X345230Y1411510D01*
G02X362570Y1404330I7181J-7186D01*
G01Y1313050D01*
X349140Y1299620D01*
G02X332590Y1302880I-7181J7186D01*
G03X201290Y1203070I-78589J-32883D01*
G02X195010Y1184930I-6284J-7982D01*
G01X108450D01*
G37*
G36*
G01X131310Y1416070D02*
X70850Y1476530D01*
X72910Y1479930D01*
G03X-68970Y1574000I-72904J44072D01*
G02X-87360Y1579960I-8229J5959D01*
G01Y1722040D01*
G02X-68970Y1728000I10161J1D01*
G03X44070Y1705090I68975J49999D01*
G01X47470Y1707150D01*
X120150Y1634470D01*
X316570D01*
G02X323750Y1617130I-6J-10159D01*
G01X301470Y1594850D01*
X298070Y1596910D01*
G03X319230Y1469210I-44070J-72906D01*
G02X337170Y1462670I7779J-6536D01*
G01Y1450210D01*
X303030Y1416070D01*
X131310D01*
G37*
G36*
G01X133850Y1667530D02*
X70850Y1730530D01*
X72910Y1733930D01*
G03X-68970Y1828000I-72904J44072D01*
G02X-87360Y1833960I-8229J5959D01*
G01Y1976040D01*
G02X-68970Y1982000I10161J1D01*
G03X44070Y1959090I68975J49999D01*
G01X47470Y1961150D01*
X117610Y1891010D01*
X252910D01*
X263420Y1880510D01*
G02X255990Y1863170I-7186J-7183D01*
G03X332150Y1744100I-1993J-85166D01*
G01X367780D01*
G02X374960Y1726760I-6J-10159D01*
G01X315730Y1667530D01*
X133850D01*
G37*
G36*
G01X85180Y2454820D02*
Y2625180D01*
X-87360D01*
Y2738040D01*
G02X-68970Y2744000I10161J1D01*
G03Y2844000I68970J50000D01*
G02X-87360Y2849960I-8229J5959D01*
G01Y2992040D01*
G02X-68970Y2998000I10161J1D01*
G03Y3098000I68970J50000D01*
G02X-87360Y3103960I-8229J5959D01*
G01Y3246040D01*
G02X-68970Y3252000I10161J1D01*
G03Y3352000I68970J50000D01*
G02X-87360Y3357960I-8229J5959D01*
G01Y3500040D01*
G02X-68970Y3506000I10161J1D01*
G03Y3606000I68970J50000D01*
G02X-87360Y3611960I-8229J5959D01*
G01Y3724820D01*
X85180D01*
Y3895180D01*
X-87360D01*
Y4008040D01*
G02X-68970Y4014000I10161J1D01*
G03Y4114000I68970J50000D01*
G02X-87360Y4119960I-8229J5959D01*
G01Y4262040D01*
G02X-68970Y4268000I10161J1D01*
G03Y4368000I68970J50000D01*
G02X-87360Y4373960I-8229J5959D01*
G01Y4516040D01*
G02X-68970Y4522000I10161J1D01*
G03X38620Y4496070I68970J50001D01*
G01X41910Y4497740D01*
X130750Y4408890D01*
Y4270480D01*
X203980Y4197250D01*
X237290D01*
X268270Y4166270D01*
G02X260330Y4148950I-7181J-7188D01*
G03X338950Y4070330I-6330J-84950D01*
G02X356270Y4078270I10132J759D01*
G01X410720Y4023820D01*
X526780D01*
Y4007020D01*
X477980D01*
Y3866980D01*
X526780D01*
Y3850620D01*
X528580D01*
Y3840960D01*
X746940D01*
Y3863240D01*
X747130Y3863910D01*
G03Y3880370I-29370J8230D01*
G01X746940Y3881040D01*
Y3904770D01*
G03X745920Y3924570I-30180J8372D01*
G01X747580Y3928580D01*
X764520D01*
Y3905820D01*
X763680D01*
Y3850380D01*
X777380D01*
Y3838080D01*
X797420D01*
Y3850380D01*
X811120D01*
Y3905820D01*
X810280D01*
Y3928580D01*
X832380D01*
Y3967970D01*
X873350D01*
X874430Y3964340D01*
G03X882310Y3945670I88864J26509D01*
G01X884180Y3942320D01*
X837540Y3895680D01*
Y3718580D01*
X779870D01*
X779380Y3718680D01*
G03X772410Y3719370I-6973J-34891D01*
G01X741190D01*
Y3726480D01*
X728520D01*
Y3753820D01*
X668480D01*
Y3726480D01*
X655810D01*
Y3719370D01*
X639590D01*
Y3726480D01*
X626920D01*
Y3753820D01*
X566880D01*
Y3726480D01*
X531580D01*
Y3753820D01*
X471540D01*
Y3726480D01*
X450670D01*
Y3726920D01*
X438000D01*
Y3754260D01*
X377960D01*
Y3726920D01*
X365290D01*
Y3641540D01*
X458870D01*
Y3641100D01*
X599420D01*
Y3626320D01*
X564180D01*
Y3536760D01*
X599420D01*
Y3526380D01*
X601480Y3524330D01*
Y3523720D01*
X602080D01*
X618080Y3507720D01*
X690020D01*
X706020Y3523720D01*
X706920D01*
Y3524630D01*
X716440Y3534150D01*
G02X725120Y3530570I3597J-3592D01*
G01Y3425600D01*
G03X731300Y3410030I22712J3D01*
G01Y3297140D01*
X618410D01*
G03X602840Y3303320I-15573J-16532D01*
G01X457820D01*
G03X439800Y3266790I6J-22713D01*
G02Y3254430I-8066J-6180D01*
G03X439790Y3226800I18025J-13822D01*
G02Y3214440I-8064J-6180D01*
G03X439800Y3186810I18035J-13808D01*
G02Y3174440I-8062J-6185D01*
G03Y3146800I18025J-13820D01*
G02Y3134440I-8066J-6180D01*
G03Y3106800I18025J-13820D01*
G02Y3094430I-8062J-6185D01*
G03Y3066790I18025J-13820D01*
G02Y3054430I-8066J-6180D01*
G03X439790Y3026800I18025J-13822D01*
G02Y3014440I-8064J-6180D01*
G03X439800Y2986810I18035J-13808D01*
G02Y2974440I-8062J-6185D01*
G03Y2946800I18025J-13820D01*
G02Y2934440I-8066J-6180D01*
G03Y2906800I18025J-13820D01*
G02Y2894430I-8062J-6185D01*
G03Y2866790I18025J-13820D01*
G02Y2854430I-8066J-6180D01*
G03X439790Y2826800I18025J-13822D01*
G02Y2814440I-8064J-6180D01*
G03X439800Y2786810I18035J-13808D01*
G02Y2774440I-8062J-6185D01*
G03Y2746800I18025J-13820D01*
G02Y2734440I-8066J-6180D01*
G03Y2706800I18025J-13820D01*
G02Y2694430I-8062J-6185D01*
G03Y2666790I18025J-13820D01*
G02Y2654430I-8066J-6180D01*
G03X439790Y2626800I18025J-13822D01*
G02Y2614440I-8064J-6180D01*
G03X439800Y2586810I18035J-13808D01*
G02Y2574440I-8062J-6185D01*
G03Y2546800I18025J-13820D01*
G02Y2534440I-8066J-6180D01*
G03X442060Y2504270I18026J-13819D01*
G02Y2496960I-3531J-3655D01*
G03X441000Y2495870I15745J-16372D01*
G02X433060Y2496380I-3767J3409D01*
G03X412030Y2448770I-25062J-17380D01*
G01X414520Y2449100D01*
X437790Y2425830D01*
G02X434200Y2417160I-3592J-3591D01*
G01X429680D01*
X428380Y2418070D01*
G03X421830Y2364490I-17378J-25066D01*
G02X435450Y2356730I3609J-9499D01*
G03X439800Y2346810I22376J3899D01*
G02Y2334440I-8062J-6185D01*
G03X435250Y2323150I18023J-13825D01*
G02X421730Y2314720I-10094J1133D01*
G03X415420Y2255760I-10277J-28718D01*
G01X417900Y2256080D01*
X435120Y2238870D01*
X435370Y2237220D01*
G03X436230Y2233550I22469J3330D01*
G01X436480Y2231980D01*
G02X431400Y2226900I-5077J-3D01*
G01X429290Y2227360D01*
G03X386070Y2200550I-12731J-27718D01*
G02X376550Y2190710I-10154J299D01*
G03X382490Y2130040I1897J-30440D01*
G01X384980Y2130370D01*
X396480Y2118870D01*
G02X395660Y2103770I-7186J-7182D01*
G03X391780Y2059980I19121J-23761D01*
G02X391790Y2046650I-7665J-6671D01*
G03X390470Y2008320I23041J-19981D01*
G02X389540Y1995020I-8115J-6115D01*
G03X380610Y1972570I21558J-21576D01*
G01X380680Y1970380D01*
X375530Y1965240D01*
X364590Y1976190D01*
Y2077810D01*
X270530Y2171870D01*
Y2202330D01*
X274390Y2203290D01*
G03X233610I-20390J82710D01*
G01X237470Y2202330D01*
Y2158170D01*
X261110Y2134530D01*
G02X253930Y2117190I-7186J-7181D01*
G03X234840Y1948990I66J-85191D01*
G01X236260Y1948670D01*
X243510Y1941410D01*
G02X236330Y1924070I-7186J-7181D01*
G01X131310D01*
X70850Y1984530D01*
X72910Y1987930D01*
G03X-68970Y2082000I-72904J44072D01*
G02X-87360Y2087960I-8229J5959D01*
G01Y2230040D01*
G02X-68970Y2236000I10161J1D01*
G03Y2336000I68970J50000D01*
G02X-87360Y2341960I-8229J5959D01*
G01Y2454820D01*
X85180D01*
G37*
G36*
G01X212740Y6120260D02*
X381000D01*
Y6121400D01*
X584200D01*
Y6120260D01*
X692850D01*
Y5770530D01*
X642050D01*
Y5604320D01*
X1762780D01*
G03X1809750Y5563860I59671J21778D01*
G02X1814900Y5546720I-2034J-9955D01*
G01X1809470Y5541300D01*
Y5371630D01*
G03X1840740Y5319300I16530J-25630D01*
G01X1841880Y5319930D01*
X1848270D01*
Y5312690D01*
X1815110Y5279530D01*
X1778630D01*
G03Y5246470I-25630J-16530D01*
G01X1819280D01*
Y5145320D01*
X1821700D01*
G02X1825290Y5136650I-2J-5079D01*
G01X1817140Y5128490D01*
X1815390Y5128290D01*
G03X1792250Y5112660I3610J-30288D01*
G01X1790810Y5110020D01*
X1644480D01*
Y5098320D01*
X1635540D01*
X1627400Y5090180D01*
X1607020D01*
Y5110020D01*
X1517460D01*
Y5090970D01*
G03X1516530Y5090180I19278J-23637D01*
G01X1492780D01*
Y5126220D01*
X1479740D01*
Y5163520D01*
X1390180D01*
Y5126220D01*
X1377420D01*
Y5020780D01*
X1442600D01*
X1442710Y5015810D01*
G03X1486520Y4989060I30492J689D01*
G02X1501120Y4979930I4441J-9137D01*
G01Y4955520D01*
X1623580D01*
Y4920920D01*
X1774120Y4770390D01*
G02X1768450Y4753160I-7187J-7183D01*
G03X1750580Y4702320I4549J-30160D01*
G02X1750830Y4688830I-7471J-6886D01*
G03X1746780Y4682760I23163J-19841D01*
G02X1730530Y4680170I-9063J4590D01*
G01X1688820Y4721880D01*
X1639830D01*
G02X1633100Y4739650I2J10160D01*
G03X1592700I-20200J22850D01*
G02X1585970Y4721880I-6732J-7610D01*
G01X1545830D01*
G02X1538530Y4739100I4J10159D01*
G03X1494670I-21930J21200D01*
G02X1487370Y4721880I-7304J-7061D01*
G01X1449330D01*
G02X1442600Y4739650I2J10160D01*
G03X1402200I-20200J22850D01*
G02X1395470Y4721880I-6732J-7610D01*
G01X1335030D01*
G02X1328300Y4739650I2J10160D01*
G03X1287900I-20200J22850D01*
G02X1281170Y4721880I-6732J-7610D01*
G01X1250840D01*
G02X1243610Y4739180I-1J10160D01*
G03X1200190I-21710J21420D01*
G02X1192960Y4721880I-7229J-7140D01*
G01X1151320D01*
X1145060Y4728140D01*
X1149610Y4732690D01*
X1150920Y4733050D01*
G03X1126980Y4788450I-7913J29453D01*
G01X1123560Y4786340D01*
X1020960Y4888950D01*
G02X1023860Y4905340I7185J7180D01*
G03X1039600Y4943590I-12861J27656D01*
G02X1049130Y4957280I9530J3528D01*
G01X1069320D01*
Y4917420D01*
X1240180D01*
Y4918940D01*
X1242080D01*
Y5020780D01*
X1281260D01*
X1282330Y5017120D01*
G03X1340870I29270J8580D01*
G01X1341940Y5020780D01*
X1365780D01*
Y5126220D01*
X1352740D01*
Y5163520D01*
X1263180D01*
Y5126220D01*
X1250420D01*
Y5061220D01*
X1240180D01*
Y5090180D01*
X1225720D01*
Y5110020D01*
X1085680D01*
Y5090180D01*
X1048870D01*
G03X1048220Y5090740I-20232J-22826D01*
G01Y5109020D01*
X958660D01*
Y5090970D01*
G03X957730Y5090180I19278J-23637D01*
G01X942320D01*
Y4990360D01*
G02X924980Y4983180I-10159J6D01*
G01X914880Y4993280D01*
Y5040980D01*
X842270Y5113590D01*
G02X844840Y5129820I7186J7181D01*
G03X801620Y5148790I-13843J27180D01*
G02X791840Y5135900I-9784J-2732D01*
G01X564120D01*
X484720Y5056490D01*
X482970Y5056290D01*
G03X463760Y5005760I3608J-30288D01*
G02X463560Y4992050I-7597J-6746D01*
G03X457740Y4983200I22187J-20930D01*
G02X441230Y4980030I-9330J4015D01*
G01X433080Y4988180D01*
Y5056030D01*
G03X440490Y5072590I-22877J20174D01*
G01X440690Y5074340D01*
X474900Y5108540D01*
Y5130390D01*
X506530Y5162020D01*
X579620D01*
Y5179120D01*
X616920D01*
Y5264620D01*
X579620D01*
Y5277380D01*
X542780D01*
G02X534090Y5292800I1J10159D01*
G03X521330Y5336030I-26090J15797D01*
G02X518150Y5351900I4435J9142D01*
G03X481970Y5344670I-22849J20201D01*
G02X485150Y5328800I-4435J-9142D01*
G03X481910Y5292800I22850J-20202D01*
G02X474180Y5277430I-8691J-5258D01*
G01Y5194380D01*
X429140Y5149350D01*
Y5127500D01*
X408340Y5106690D01*
X406590Y5106490D01*
G03X398790Y5104490I3610J-30289D01*
G02X384830Y5113910I-3802J9420D01*
G01Y5125690D01*
X388640Y5126670D01*
G03X351590Y5148120I-7639J29529D01*
G01X351770Y5147460D01*
Y4945140D01*
X356050Y4940860D01*
G02X352460Y4932190I-3592J-3591D01*
G01X339070D01*
Y4846810D01*
X424450D01*
Y4859480D01*
X439150D01*
Y4846810D01*
X524530D01*
Y4932190D01*
X491580D01*
Y4940970D01*
X495100Y4942110D01*
G03X504620Y4947170I-9329J29037D01*
G01X506000Y4948260D01*
X512620D01*
X616400Y5052040D01*
X702880D01*
Y4994520D01*
G02X693540Y4984400I-10160J7D01*
G03X672290Y4973190I2456J-30402D01*
G02X659050Y4970940I-7897J6389D01*
G03X666710Y4925810I-16048J-25939D01*
G02X679950Y4928060I7897J-6389D01*
G03X725970Y4959660I16049J25937D01*
G02X735950Y4971710I9982J1890D01*
G01X743870D01*
Y4924160D01*
X768330Y4899700D01*
Y4894810D01*
G02X759660Y4891220I-5080J4D01*
G01X746620Y4904260D01*
X628180D01*
X581640Y4857720D01*
Y4783260D01*
X575740D01*
Y4612740D01*
X581640D01*
Y4607540D01*
X713760D01*
Y4612740D01*
X781260D01*
Y4754790D01*
X806470Y4780000D01*
Y4825730D01*
G02X822470Y4834040I10159J-3D01*
G03Y4883960I17530J24960D01*
G02X806470Y4892270I-5841J8313D01*
G01Y4915500D01*
X782010Y4939960D01*
Y4971710D01*
X805630D01*
Y5007100D01*
G02X822970Y5014280I10159J-6D01*
G01X831020Y5006230D01*
Y4958530D01*
X913550Y4876000D01*
X915300D01*
X925800Y4865500D01*
G02X918620Y4848160I-7186J-7181D01*
G01X885140D01*
Y4792720D01*
X898840D01*
Y4780420D01*
X919870D01*
G02X933280Y4785280I9171J-4373D01*
G03X940840Y4782940I12722J27720D01*
G02X947340Y4766950I-1716J-10014D01*
G03X946600Y4732110I24659J-17952D01*
G02X943110Y4717620I-8456J-5629D01*
G03X935510Y4670400I14890J-26618D01*
G02X933760Y4655160I-7495J-6860D01*
G03X920830Y4634460I17242J-25158D01*
G01X920190Y4630120D01*
X831660D01*
Y4595360D01*
X816080D01*
Y4476720D01*
X807320D01*
Y4371280D01*
X820360D01*
Y4333980D01*
X896990D01*
G03X948660Y4343560I23011J20019D01*
G02X961150Y4349810I9546J-3472D01*
G03X969140Y4348510I8850J29189D01*
G02X976040Y4331170I-286J-10157D01*
G01X921120Y4276260D01*
Y4251170D01*
G03X967970Y4249860I22879J-20170D01*
G01X966880Y4251240D01*
Y4257300D01*
X994800Y4285220D01*
G02X1012140Y4278040I7181J-7186D01*
G01Y4250120D01*
X1020340D01*
G02X1030250Y4237720I0J-10160D01*
G03X1085030Y4248420I29748J-6723D01*
G02X1087030Y4262170I8340J5807D01*
G03X1095950Y4298200I-19031J23831D01*
G02X1105260Y4312420I9315J4059D01*
G01X1131980D01*
Y4247580D01*
X1140720D01*
X1169860Y4218440D01*
X1169530Y4215950D01*
G03X1172280Y4198680I30231J-4040D01*
G02X1168590Y4185710I-9153J-4406D01*
G03X1211020Y4144080I16414J-25709D01*
G02X1224760Y4147580I8666J-5300D01*
G03X1270470Y4175310I15239J26420D01*
G02X1276010Y4180590I5076J220D01*
G03X1278110Y4180470I2789J30371D01*
G02X1283000Y4174480I-110J-5081D01*
G03X1292600Y4146330I30001J-5481D01*
G02X1285800Y4128620I-6800J-7549D01*
G01X1276380D01*
Y4039060D01*
X1313680D01*
Y4023420D01*
G02X1309080Y4018360I-5081J-1D01*
G03X1281530Y3989410I2918J-30361D01*
G02X1271380Y3979720I-10148J469D01*
G01X1223490D01*
G02X1213370Y3990800I-1J10161D01*
G03X1160370Y3973130I-30372J2780D01*
G02X1160120Y3959250I-7542J-6806D01*
G03X1209240Y3924280I21880J-21249D01*
G01X1215880D01*
Y3911980D01*
X1235920D01*
Y3924280D01*
X1252980D01*
Y3864280D01*
X1343660D01*
Y3788000D01*
G03X1354280Y3759390I43847J0D01*
G01Y3700610D01*
G03X1343660Y3672000I33227J-28610D01*
G01Y3665370D01*
G02X1334990Y3661780I-5080J3D01*
G01X1331820Y3664950D01*
Y3693420D01*
X1318120D01*
Y3705720D01*
X1298080D01*
Y3693420D01*
X1284380D01*
Y3684680D01*
G02X1267040Y3677500I-10159J6D01*
G01X1225960Y3718580D01*
X1171960D01*
G02X1164780Y3735920I6J10159D01*
G01X1195660Y3766810D01*
X1197410Y3767010D01*
G03X1163510Y3800910I-3610J30290D01*
G01X1163310Y3799160D01*
X1139430Y3775290D01*
G02X1123470Y3777370I-7179J7185D01*
G03X1111370Y3793720I-80139J-46655D01*
G02X1118830Y3810780I7460J6899D01*
G01X1123320D01*
Y3910820D01*
X1118830D01*
G02X1111370Y3927880I0J10161D01*
G03X1043300Y4083580I-68068J62971D01*
G01X963280D01*
G03X874430Y4017360I11J-92732D01*
G01X873350Y4013730D01*
X832380D01*
Y4034020D01*
X819620D01*
Y4071320D01*
X730060D01*
Y4034020D01*
X718130D01*
X696820Y4055340D01*
Y4123950D01*
G03X698590Y4159590I-23821J19047D01*
G02X707110Y4175280I8524J5529D01*
G01X778720D01*
Y4340720D01*
X760030D01*
Y4348810D01*
X737640Y4371200D01*
X458180D01*
X448330Y4381050D01*
Y4403070D01*
X474490D01*
Y4488450D01*
X461820D01*
Y4503150D01*
X474490D01*
Y4588530D01*
X470820D01*
G02X461070Y4601540I3J10161D01*
G03X402530I-29270J8560D01*
G02X392780Y4588530I-9753J-2849D01*
G01X389110D01*
Y4503150D01*
X401780D01*
Y4488450D01*
X389110D01*
Y4485680D01*
G02X377020Y4475710I-10159J4D01*
G03Y4415810I-5780J-29950D01*
G02X389110Y4405840I1931J-9974D01*
G01Y4403070D01*
X415270D01*
Y4367350D01*
X444480Y4338140D01*
X497820D01*
Y4134820D01*
X561080D01*
Y4112120D01*
X548780D01*
Y4092080D01*
X561080D01*
Y4069580D01*
X429680D01*
X278410Y4220850D01*
G02X282220Y4237620I7181J7186D01*
G03X193840Y4378320I-28222J80380D01*
G02X176510Y4385510I-7171J7196D01*
G01Y4427850D01*
X74260Y4530090D01*
X75930Y4533380D01*
G03X-68970Y4622000I-75936J38610D01*
G02X-87360Y4627960I-8229J5959D01*
G01Y4770040D01*
G02X-68970Y4776000I10161J1D01*
G03Y4876000I68970J50000D01*
G02X-87360Y4881960I-8229J5959D01*
G01Y5820160D01*
X212740Y6120260D01*
G37*
G36*
G01X644900Y656190D02*
Y663300D01*
G03X629050Y702300I-55906J0D01*
G02X629030Y709370I3637J3545D01*
G03X644650Y749220I-40270J38771D01*
G02X644960Y782170I573514J11081D01*
G03X645000Y784300I-55860J2114D01*
G02X698150Y864380I86902J0D01*
G01X754970D01*
Y792080D01*
X1022010D01*
Y874380D01*
X1091740D01*
Y979820D01*
X1022010D01*
Y1060110D01*
X754970D01*
Y989820D01*
X676270D01*
Y975050D01*
G03X651180Y965870I55575J-190770D01*
G02X636930Y976010I-4128J9282D01*
G03X629020Y999210I-30389J2587D01*
G02X628770Y1012660I7487J6866D01*
G03X624140Y1056600I-23229J19766D01*
G02Y1064650I3101J4025D01*
G03X626830Y1066990I-18638J24142D01*
G02X635220Y1064900I3550J-3635D01*
G03X684550Y1099980I30262J9670D01*
G01Y1127820D01*
G02X692870Y1143820I8315J5839D01*
G01X988110D01*
X1034410Y1097520D01*
X1087410D01*
X1130280Y1054650D01*
Y881050D01*
X1142160Y869180D01*
G02X1135710Y851860I-7184J-7186D01*
G03X1156960Y797610I2212J-30421D01*
G02X1173460Y789670I6341J-7937D01*
G01Y764730D01*
X1102170Y693440D01*
X693370D01*
X656450Y656520D01*
X654380Y656500D01*
G03X650650Y656230I333J-30499D01*
G01X650320Y656190D01*
X644900D01*
G37*
G36*
G01X438370Y1279640D02*
G02X421030Y1286830I-7181J7187D01*
G01Y1529240D01*
X435890Y1544100D01*
X442140D01*
X443540Y1542970D01*
G03X457820Y1537920I14279J17663D01*
G01X602840D01*
G03X620860Y1574450I-6J22713D01*
G02Y1586810I8066J6180D01*
G03X620870Y1614440I-18025J13822D01*
G02Y1626800I8064J6180D01*
G03X620860Y1654430I-18035J13808D01*
G02Y1666800I8062J6185D01*
G03Y1694440I-18025J13820D01*
G02Y1706800I8066J6180D01*
G03Y1734440I-18025J13820D01*
G02Y1746810I8062J6185D01*
G03Y1774450I-18025J13820D01*
G02Y1786810I8066J6180D01*
G03X620870Y1814440I-18025J13822D01*
G02Y1826800I8064J6180D01*
G03X620860Y1854430I-18035J13808D01*
G02Y1866800I8062J6185D01*
G03X620110Y1895370I-18025J13822D01*
G01X617060Y1898940D01*
X664460Y1946330D01*
Y2016890D01*
G03X670390Y2024120I-20340J22729D01*
G02X686320Y2026130I8744J-5170D01*
G01X884980Y1827470D01*
X1187450D01*
X1190470Y1824450D01*
Y1795150D01*
X1207100Y1778520D01*
X1206770Y1776030D01*
G03X1236510Y1741500I30233J-4034D01*
G02X1246500Y1731510I-164J-10154D01*
G03X1292780Y1705900I30497J490D01*
G01X1296180Y1707960D01*
X1437700Y1566440D01*
G02X1430340Y1549090I-7180J-7190D01*
G03X1412560Y1544030I-571J-31762D01*
G02X1396910Y1551980I-5505J8542D01*
G03X1333510Y1547850I-31712J-1880D01*
G01X1333670Y1545540D01*
X1323330Y1535200D01*
X1317720Y1540800D01*
X1318390Y1543570D01*
G03X1255810Y1548750I-30889J7429D01*
G01X1255970Y1546440D01*
X1245320Y1535790D01*
X1239670Y1541450D01*
X1240410Y1544280D01*
G03X1178010Y1550150I-30712J8125D01*
G01X1178170Y1547840D01*
X1155660Y1525330D01*
Y1521270D01*
G02X1147780Y1517030I-5080J-2D01*
G03X1144120Y1519110I-17493J-26522D01*
G02X1141990Y1536020I4421J9146D01*
G03X1089810Y1558050I-20490J24280D01*
G01X1089970Y1555740D01*
X1071860Y1537630D01*
Y1466290D01*
X1088750Y1449400D01*
Y1436420D01*
X1082240D01*
X1081020Y1437170D01*
G03X1051170Y1434620I-13194J-21534D01*
G02X1044460I-3355J3819D01*
G03X1020140Y1439700I-16656J-18984D01*
G02X1006900Y1449380I-3081J9680D01*
G01Y1474370D01*
X992300Y1488970D01*
Y1490190D01*
X899520Y1582970D01*
X776220D01*
X715760Y1522510D01*
X713450Y1522670D01*
G03X679430Y1490710I-2251J-31690D01*
G02X669270Y1480470I-10159J-81D01*
G01X621190D01*
X620280Y1480830D01*
G03X623680Y1416340I-13221J-33032D01*
G01X624800Y1416930D01*
X722580D01*
Y1306180D01*
G02X705230Y1299000I-10161J1D01*
G01X671980Y1332250D01*
X490980D01*
X438370Y1279640D01*
G37*
G36*
G01X871490Y1938020D02*
X655570Y2153940D01*
X647530D01*
X627380Y2174090D01*
Y2186940D01*
X650240Y2209800D01*
X695960D01*
X820420Y2085340D01*
X1308100D01*
Y2107900D01*
X1920540D01*
Y2360960D01*
G02X1933170Y2370820I10160J5D01*
G03Y2429980I7430J29580D01*
G02X1920540Y2439840I-2470J9855D01*
G01Y2690540D01*
G02X1935590Y2699440I10158J-3D01*
G03X1988250Y2732590I17131J31187D01*
G02X1996950Y2743210I10144J564D01*
G01X2023080Y2769340D01*
G02X2037450I7185J-7186D01*
G03X2044630Y2766360I7188J7178D01*
G01X2146950D01*
X2329950Y2949360D01*
G03X2332930Y2956480I-7179J7188D01*
G02X2346240Y2966080I10157J-56D01*
G03X2385060Y3022160I11063J33818D01*
G02X2385360Y3028850I3964J3174D01*
G03X2336170Y3080190I-25652J24658D01*
G01X2306800D01*
X2306380Y3079770D01*
X2288900D01*
X2281820Y3072690D01*
X2247340D01*
G02X2240160Y3090030I5J10159D01*
G01X2339690Y3189560D01*
Y3216470D01*
G03X2285200Y3217800I-26687J23531D01*
G01X2286310Y3216400D01*
Y3211680D01*
X2113340Y3038710D01*
G02X2096000Y3045890I-7181J7185D01*
G01Y3159740D01*
X2201490D01*
X2233190Y3191440D01*
X2234960Y3191640D01*
G03X2227860Y3262440I-3962J35359D01*
G02X2217510Y3276280I-894J10121D01*
G03X2149040Y3293260I-33111J13022D01*
G01X2148840Y3291490D01*
X2141590Y3284240D01*
X2096000D01*
Y3393940D01*
X2103120Y3401060D01*
X2203010D01*
G02X2212460Y3387160I4J-10160D01*
G03X2247900Y3335000I35440J-14040D01*
G01X2300350D01*
X2300950Y3334850D01*
G03X2310130Y3333730I9173J37001D01*
G01X2353360D01*
X2425700Y3261390D01*
Y2717800D01*
X2395220Y2687320D01*
Y2392680D01*
X2473960Y2313940D01*
Y2192020D01*
X2448560Y2166620D01*
X2298700D01*
X2274570Y2190750D01*
Y2246630D01*
X2244390Y2276810D01*
Y2328280D01*
X2185360Y2387310D01*
X2185160Y2389080D01*
G03X2183590Y2396270I-35361J-3955D01*
G02X2186710Y2402650I4824J1594D01*
G03X2141030Y2425030I-11894J33532D01*
G02X2137910Y2418650I-4824J-1594D01*
G03X2114220Y2384910I11888J-33534D01*
G02X2104060Y2374690I-10159J-61D01*
G01X2100600D01*
X2099200Y2375800D01*
G03X2060540Y2316450I-22200J-27806D01*
G02X2065330Y2303820I-4698J-9005D01*
G03X2064590Y2301660I33272J-12606D01*
G02X2058370Y2298270I-4853J1503D01*
G03X2023240Y2288750I-9568J-34269D01*
G02X2016510Y2288240I-3652J3532D01*
G03X2008460Y2235350I-18510J-24240D01*
G02X2022110Y2225810I3490J-9541D01*
G01Y2033010D01*
G02X2013440Y2029420I-5079J1D01*
G01X2006790Y2036060D01*
X1960270D01*
X1959220Y2039750D01*
G03X1898360Y2006420I-34218J-9748D01*
G02X1898110Y1999420I-3805J-3369D01*
G03X1891940Y1991360I24878J-25436D01*
G01X1858190D01*
Y2001320D01*
G03X1816170Y2057470I-16189J31683D01*
G02X1809050Y2057220I-3687J3494D01*
G03X1777880Y1996140I-24051J-26220D01*
G01X1781940Y1995310D01*
Y1938020D01*
X1770220D01*
G02X1761070Y1952580I5J10158D01*
G03X1696930I-32070J15420D01*
G02X1687780Y1938020I-9155J-4402D01*
G01X871490D01*
G37*
G36*
G01X824640Y2095520D02*
X700180Y2219980D01*
X646020D01*
X637100Y2211060D01*
X627200Y2220970D01*
X621430D01*
Y2227490D01*
X622180Y2228710D01*
G03X623600Y2249810I-19346J11900D01*
G02X632890Y2264090I9288J4119D01*
G01X1017230D01*
X1145630Y2135690D01*
X1176910D01*
G03X1198670Y2182470I25631J16528D01*
G02X1187830Y2196030I-1294J10078D01*
G03X1155150Y2236720I-28650J10458D01*
G01X1152660Y2236390D01*
X1051900Y2337150D01*
X632890D01*
G02X623600Y2351430I-2J10161D01*
G03X624140Y2352770I-20785J9155D01*
G02X636030Y2359130I9531J-3524D01*
G03X669210Y2404570I7072J29670D01*
G02X677900Y2419980I8696J5251D01*
G01X693590D01*
X697690Y2424080D01*
X718660D01*
X729760Y2412980D01*
X1140960D01*
X1248430Y2520450D01*
Y2642530D01*
G02X1262710Y2651820I10159J4D01*
G03X1284590Y2650720I12369J27880D01*
G02X1297920Y2641070I3170J-9652D01*
G01Y2095520D01*
X824640D01*
G37*
G36*
G01X762160Y2517160D02*
X755160Y2524160D01*
X701210D01*
X693590Y2531780D01*
X674590D01*
X670070Y2536290D01*
X672090Y2539690D01*
G03X667030Y2577180I-26240J15545D01*
G02X666410Y2591150I7057J7312D01*
G03X672340Y2620630I-23050J19973D01*
G02X681990Y2633960I9652J3170D01*
G01X698660D01*
X737150Y2595470D01*
X779370D01*
G03X829230Y2593480I25630J16531D01*
G01X830750Y2595470D01*
X837530D01*
X853380Y2579620D01*
X1074430D01*
G02X1083950Y2565910I0J-10161D01*
G03X1082290Y2551210I28570J-10670D01*
G01X1082620Y2548720D01*
X1051060Y2517160D01*
X762160D01*
G37*
G36*
G01X622300Y3517900D02*
X609600Y3530600D01*
Y3695700D01*
X622300Y3708400D01*
X837540D01*
Y3678650D01*
X879350Y3636840D01*
G02X872170Y3619500I-7186J-7181D01*
G01X711200D01*
Y3543300D01*
X685800Y3517900D01*
X622300D01*
G37*
G36*
G01X736760Y3916140D02*
Y3851140D01*
X538760D01*
Y4011140D01*
X661760D01*
Y3997140D01*
Y3991140D01*
X736760Y3916140D01*
G37*
G36*
G01X698500Y4328000D02*
Y4191000D01*
X635000D01*
Y4145000D01*
X508000D01*
Y4328000D01*
X698500D01*
G37*
G36*
G01X596900Y4622800D02*
Y4851400D01*
X634500Y4889000D01*
X740300D01*
X749300Y4880000D01*
Y4800600D01*
X736600Y4787900D01*
X711200D01*
X698500Y4775200D01*
Y4622800D01*
X596900D01*
G37*
G36*
G01X1365080Y2827410D02*
G03X1335070Y2873630I-25976J15987D01*
G01X1332580Y2873300D01*
X1319820Y2886060D01*
X1186080D01*
G02X1175950Y2895480I3J10160D01*
G03X1175040Y2901130I-32952J-2409D01*
G02X1181470Y2907220I4925J1240D01*
G03X1158290Y2936620I9791J31557D01*
G02X1146940Y2925860I-10139J-672D01*
G03X1119290Y2916070I-3944J-32802D01*
G02X1104820Y2915960I-7289J7076D01*
G01X1015940Y3004840D01*
X1007520D01*
Y3011060D01*
X1008010Y3012090D01*
G03X1007210Y3039750I-27570J13044D01*
G02X1016130Y3054780I8918J4869D01*
G01X1024940D01*
X1050020Y3029700D01*
X1480530D01*
X1549610Y3098780D01*
X1594690D01*
G02X1604260Y3085220I-2J-10159D01*
G03X1661740I28740J-10220D01*
G02X1671310Y3098780I9572J3401D01*
G01X1691130D01*
X1847340Y2942570D01*
X2078330D01*
X2079560Y2943800D01*
X2085820Y2941200D01*
Y2931980D01*
X1966420Y2812580D01*
X1939430D01*
X1938780Y2811930D01*
X1373730D01*
G02X1365080Y2827410I1J10158D01*
G37*
G36*
G01X939830Y3158960D02*
X894100Y3204690D01*
Y3204700D01*
X883840Y3214960D01*
G02X889020Y3232100I7186J7181D01*
G03X905030Y3240910I-6024J29898D01*
G02X919230Y3241380I7340J-7025D01*
G03X943830Y3233670I20567J22521D01*
G01X946320Y3234000D01*
X1004020Y3176300D01*
G02X996840Y3158960I-7186J-7181D01*
G01X939830D01*
G37*
G36*
G01X959070Y3640660D02*
G03X963300Y3640560I4246J90090D01*
G01X1043300D01*
G03X1127230Y3697710I9J90191D01*
G01X1140940D01*
X1151630Y3708400D01*
X1221740D01*
X1286920Y3643220D01*
Y3640520D01*
X1289620D01*
X1305560Y3624580D01*
Y3604260D01*
X1297940Y3596640D01*
X965730D01*
G02X956070Y3609970I-6J10161D01*
G03X954310Y3633290I-28970J9540D01*
G02X959070Y3640660I4530J2297D01*
G37*
G36*
G01X1351220Y3931220D02*
Y3967730D01*
G02X1362780Y3977790I10159J-1D01*
G03X1396920Y4013900I4217J30207D01*
G02X1406890Y4026020I9970J1959D01*
G01X1419120D01*
Y4062110D01*
G03Y4113890I-16120J25890D01*
G01Y4131130D01*
X1422460Y4132350D01*
G03X1430160Y4136490I-10445J28658D01*
G02X1443650Y4135240I6047J-8161D01*
G03X1486830Y4178280I22349J20759D01*
G02X1488230Y4194210I6942J7416D01*
G03X1450770Y4197500I-16629J25569D01*
G02X1449370Y4181570I-6942J-7416D01*
G03X1447840Y4180510I16598J-25591D01*
G02X1434350Y4181760I-6047J8161D01*
G03X1406840Y4191060I-22345J-20761D01*
G02X1395350Y4198310I-1714J10013D01*
G03X1392330Y4205390I-29341J-8331D01*
G02X1401100Y4220680I8773J5128D01*
G01X1416580D01*
Y4326120D01*
X1403820D01*
Y4363420D01*
X1314260D01*
Y4326120D01*
X1301220D01*
Y4249730D01*
G02X1288000Y4240040I-10160J-1D01*
G03X1278560Y4241460I-9201J-29079D01*
G02X1268320Y4251620I-81J10159D01*
G01Y4363020D01*
X1220880D01*
Y4358180D01*
X1179420D01*
Y4363020D01*
X1131980D01*
Y4358180D01*
X1059580D01*
Y4365560D01*
X1012140D01*
Y4360720D01*
X1005580D01*
X1002730Y4357870D01*
X996710Y4363890D01*
X998060Y4367050D01*
G03X999970Y4384670I-28059J11955D01*
G02X1009950Y4396720I9982J1891D01*
G01X1111520D01*
Y4413080D01*
X1160320D01*
Y4499160D01*
X1119780D01*
Y4553120D01*
X1111520D01*
Y4569480D01*
X995500D01*
G02X985380Y4578730I-2J10159D01*
G03X976190Y4597930I-30376J-2740D01*
G02X975190Y4611430I7060J7310D01*
G03X973490Y4650600I-24191J18572D01*
G02X975240Y4665840I7495J6860D01*
G03X983400Y4707890I-17239J25162D01*
G02X986890Y4722380I8456J5629D01*
G03X977160Y4779060I-14889J26619D01*
G02X970660Y4795050I1716J10014D01*
G03X973220Y4799240I-24663J17945D01*
G02X989470Y4801830I9063J-4590D01*
G01X1036300Y4755000D01*
Y4696340D01*
X1173520Y4559120D01*
X1358990D01*
X1414120Y4503990D01*
Y4372520D01*
X1512240Y4274400D01*
X1661920D01*
G02X1671430Y4260680I-5J-10159D01*
G03X1723990Y4231160I28569J-10685D01*
G01X1801280D01*
Y4240280D01*
X1856720D01*
Y4253980D01*
X1869020D01*
Y4274020D01*
X1856720D01*
Y4288720D01*
X1865310Y4297310D01*
X1888680D01*
Y4309980D01*
X1916020D01*
Y4370020D01*
X1888680D01*
Y4382690D01*
X1864800D01*
G02X1855110Y4395890I3J10159D01*
G03X1853130Y4418940I-29109J9110D01*
G02X1856380Y4431930I9035J4641D01*
G03X1861880Y4477170I-17379J25067D01*
G01Y4534180D01*
X1932020D01*
Y4551380D01*
X1951180D01*
Y4533880D01*
X2011220D01*
Y4551380D01*
X2026430D01*
Y4641840D01*
X2039130D01*
Y4630230D01*
G03X2043440Y4621930I10160J7D01*
G02X2046840Y4609420I-5851J-8307D01*
G03X2055870Y4559570I40481J-18410D01*
G01X2057720Y4557730D01*
G02X2057460Y4543110I-7183J-7185D01*
G03X2048570Y4490510I29860J-32098D01*
G01X2049160Y4489390D01*
Y4479240D01*
X2032500D01*
G03Y4391560I0J-43840D01*
G01X2094050D01*
X2136840Y4434350D01*
Y4505580D01*
X2140580Y4506600D01*
G03X2156020Y4514300I-11750J42890D01*
G02X2169480Y4513370I6206J-8045D01*
G03X2187170Y4501440I38076J37379D01*
G02X2190460Y4484860I-3889J-9388D01*
G01X2174100Y4468500D01*
G03X2218610Y4395790I30998J-31003D01*
G02X2224720Y4393240I1571J-4831D01*
G03X2294900Y4381900I39183J19661D01*
G01X2335140Y4422140D01*
Y4426780D01*
G02X2343130Y4430950I5081J5D01*
G03X2400050Y4435950I25478J36450D01*
G01X2418470Y4454380D01*
Y4459280D01*
X2438760Y4479560D01*
G03X2440570Y4481490I-31521J31375D01*
G02X2455630Y4481650I7602J-6739D01*
G03X2456770Y4480460I31761J29285D01*
G01X2484170Y4453070D01*
Y4386620D01*
G03X2552080Y4351180I43202J0D01*
G03X2623830Y4383600I28551J32420D01*
G01Y4408660D01*
X2622790Y4409710D01*
G02X2627170Y4426660I7183J7185D01*
G03X2646350Y4437950I-12252J42751D01*
G01X2688770Y4480380D01*
G02X2695990Y4480340I3590J-3592D01*
G03X2696320Y4480010I31165J30835D01*
G01X2745030Y4431310D01*
X2766420D01*
G03X2776130Y4432400I-5J43839D01*
G03X2779840Y4426880I39719J22689D01*
G02X2775840Y4418670I-3998J-3132D01*
G01X2718090D01*
X2668640Y4369220D01*
Y4351640D01*
X2652900Y4335910D01*
X2650460Y4336190D01*
G03X2622660Y4283970I-3663J-31560D01*
G02X2622900Y4271050I-7717J-6606D01*
G03X2621670Y4269390I24898J-19735D01*
G02X2609170Y4265900I-8352J5785D01*
G03X2564890Y4231530I-12969J-29001D01*
G02X2560820Y4225680I-5010J-856D01*
G03X2540740Y4214190I6502J-34655D01*
G02X2524570Y4215320I-7658J6675D01*
G03X2455870Y4222470I-37250J-24290D01*
G01X2454480Y4221080D01*
G02X2439860Y4221330I-7189J7178D01*
G03X2407310Y4235500I-32550J-30300D01*
G01X2368420D01*
X2357190Y4224270D01*
X2353680Y4226860D01*
G03X2295880Y4222480I-26351J-35827D01*
G01X2294480Y4221070D01*
G02X2279870Y4221340I-7175J7190D01*
G03X2215870Y4222480I-32550J-30307D01*
G01X2213590Y4220190D01*
G02X2198960Y4220450I-7190J7180D01*
G03X2136780Y4221580I-31635J-29420D01*
G01X2134890Y4219690D01*
G02X2120110Y4220130I-7183J7183D01*
G03X2087320Y4234870I-32790J-29102D01*
G01X2057290D01*
X2008240Y4185820D01*
G03X1995410Y4154010I31002J-30996D01*
G03X1975900Y4142700I11493J-42308D01*
G01X1899260Y4066060D01*
Y4026220D01*
X1853250D01*
G03X1847910Y4025910I-24J-45741D01*
G03X1815150Y4047610I-38411J-22409D01*
G01X1810720Y4048180D01*
Y4146740D01*
X1775960D01*
Y4162320D01*
X1665440D01*
Y4131330D01*
X1571340D01*
X1570060Y4134520D01*
G03X1565650Y4142100I-28295J-11389D01*
G02X1566790Y4155950I7957J6317D01*
G03X1569720Y4159000I-20477J22603D01*
G02X1582880Y4161110I7794J-6519D01*
G03X1575610Y4206570I16121J25889D01*
G02X1562450Y4204460I-7794J6519D01*
G03X1522440Y4159610I-16119J-25892D01*
G02X1521300Y4145760I-7957J-6317D01*
G03X1512630Y4132170I20463J-22616D01*
G01X1512260Y4130970D01*
X1501270Y4119990D01*
X1500670Y4119650D01*
G03X1528480Y4065420I15079J-26513D01*
G02X1542880Y4056190I4240J-9233D01*
G01Y4042180D01*
X1531960Y4031270D01*
G03X1529630Y4027650I7186J-7185D01*
G02X1518400Y4021210I-9511J3574D01*
G03X1480000Y4009000I-7402J-43211D01*
G01X1453170Y3982170D01*
X1451140Y3982120D01*
G03X1413550Y3958870I1123J-43827D01*
G02X1406880Y3956670I-4485J2387D01*
G03X1363470Y3932750I-13124J-27532D01*
G01X1363270Y3931000D01*
X1359890Y3927630D01*
G02X1351220Y3931220I-3591J3592D01*
G37*
G36*
G01X1230000Y4927600D02*
X1079500D01*
Y5080000D01*
X1230000D01*
Y4927600D01*
G37*
G36*
G01X1054100Y5080000D02*
Y4970000D01*
X952500D01*
Y5080000D01*
X1054100D01*
G37*
G36*
G01X1469580Y835680D02*
Y870920D01*
X1380020D01*
Y843740D01*
G02X1371350Y840150I-5079J2D01*
G01X1370070Y841430D01*
G03X1357050Y854450I-28950J-15930D01*
G01X1355500Y856000D01*
X1353860D01*
X1352980Y856340D01*
G03X1329260I-11860J-30840D01*
G01X1328380Y856000D01*
X1326740D01*
X1325190Y854450D01*
G03X1322050Y852480I15962J-28930D01*
G02X1314040Y856630I-2930J4150D01*
G01Y934020D01*
X1266600D01*
Y922830D01*
X1251930D01*
X1223700Y951060D01*
X1224030Y953550D01*
G03X1184290Y986560I-30232J4031D01*
G02X1170960Y996210I-3170J9652D01*
G01Y1054650D01*
X1210260Y1093960D01*
X1232390D01*
Y1071610D01*
X1247600D01*
Y1056780D01*
X1307640D01*
Y1071610D01*
X1317130D01*
X1345340Y1043400D01*
Y1037020D01*
X1392780D01*
Y1044400D01*
X1406300D01*
Y1037020D01*
X1453740D01*
Y1044400D01*
X1467260D01*
Y1037020D01*
X1509680D01*
Y989660D01*
X1546960Y952390D01*
G02X1553510Y935980I-1386J-10066D01*
G03X1554810Y896390I23831J-19034D01*
G02X1554550Y882420I-7508J-6848D01*
G03X1548040Y849640I21770J-21360D01*
G02X1538620Y835680I-9423J-3800D01*
G01X1469580D01*
G37*
G36*
G01X2021740Y526120D02*
X1951330D01*
X1924680Y499470D01*
Y492800D01*
X1916400D01*
X1892300Y516900D01*
Y665480D01*
X1816100Y741680D01*
X1772610D01*
G03X1710190I-31210J-17080D01*
G01X1353820D01*
X1320800Y774700D01*
Y835660D01*
X1330960Y845820D01*
X1351280D01*
X1371600Y825500D01*
X1575200D01*
G03X1577440I1120J35560D01*
G01X1752400D01*
X1753340Y825100D01*
G03X1781020I13840J32780D01*
G01X1781960Y825500D01*
X1940560D01*
X2026920Y739140D01*
Y687320D01*
G02X2011680Y678520I-10159J-2D01*
G03Y616880I-17780J-30820D01*
G02X2026920Y608080I5081J-8798D01*
G01Y531300D01*
X2021740Y526120D01*
G37*
G36*
G01X1531200Y4320160D02*
X1459880Y4391480D01*
Y4522950D01*
X1377950Y4604880D01*
X1192480D01*
X1138580Y4658780D01*
G02X1145760Y4676120I7186J7181D01*
G01X1669860D01*
X1707520Y4638460D01*
G02X1700340Y4621120I-7186J-7181D01*
G01X1665980D01*
Y4607420D01*
X1653680D01*
Y4587380D01*
X1653740D01*
Y4556780D01*
X1631680D01*
Y4540420D01*
X1621740D01*
Y4498160D01*
X1582880D01*
Y4400380D01*
X1631680D01*
Y4384020D01*
X1745790D01*
Y4376810D01*
X1719980Y4351000D01*
X1709630D01*
X1708360Y4354210D01*
G03X1651020Y4333490I-28363J-11211D01*
G02X1641370Y4320160I-9652J-3170D01*
G01X1531200D01*
G37*
G36*
G01X1563720Y993160D02*
X1550360Y1006520D01*
Y1026290D01*
X1561090Y1037020D01*
X1575660D01*
Y1094480D01*
X1578200D01*
Y1109680D01*
X1595580D01*
Y1084880D01*
X1665380D01*
Y1034480D01*
X1668760D01*
Y993160D01*
X1563720D01*
G37*
G36*
G01X1966320Y1054100D02*
X1967430Y1053520D01*
G03X1983800Y1049420I16582J31478D01*
G01X1985890Y1049410D01*
X2013760Y1021540D01*
Y985060D01*
X1955800Y927100D01*
X1924690D01*
G03X1880030I-22330J-27700D01*
G01X1841500D01*
Y1016000D01*
X1905000D01*
X1910380Y1021380D01*
X1936940D01*
Y1047940D01*
X1943100Y1054100D01*
X1966320D01*
G37*
G36*
G01X1979570Y1115700D02*
G03X2004010Y1107490I27036J39999D01*
G01X2006600Y1104900D01*
Y1079500D01*
X1998750Y1071650D01*
X1845330D01*
Y1152220D01*
X1848810Y1155700D01*
X1925200D01*
X1926030Y1155400D01*
G03X1935780Y1153350I12124J33450D01*
G02X1940510Y1148630I-339J-5070D01*
G03X1979570Y1115700I35493J2469D01*
G37*
G36*
G01X1849390Y1165880D02*
Y1236190D01*
G02X1861920Y1246070I10161J-1D01*
G03X1884460Y1251640I5890J24556D01*
G02X1891170I3355J-3819D01*
G03X1921200Y1249210I16650J18986D01*
G01X1924630Y1251350D01*
X1939670Y1236300D01*
G02X1933900Y1219050I-7181J-7188D01*
G03X1909200Y1179240I4248J-30203D01*
G02X1899560Y1165880I-9641J-3201D01*
G01X1849390D01*
G37*
G36*
G01X1989560Y1799110D02*
X2238910Y1549760D01*
G02X2236360Y1533540I-7186J-7181D01*
G03X2226010Y1525400I15642J-30538D01*
G02X2211130Y1524850I-7695J6632D01*
G01X2106340Y1629640D01*
X2043440D01*
X1850570Y1822510D01*
Y1973330D01*
X1858420Y1981180D01*
X1882450D01*
G02X1892580Y1971760I-2J-10159D01*
G03X1951820Y1964010I30419J2236D01*
G01X1953000Y1967430D01*
X1978360D01*
X1989560Y1956230D01*
Y1799110D01*
G37*
G36*
G01X1821190Y4794180D02*
G03X1790170Y4838560I-34433J8964D01*
G02X1785580Y4843540I487J5054D01*
G03X1718370Y4859290I-35577J-539D01*
G02X1702150Y4856750I-9036J4645D01*
G01X1633760Y4925140D01*
Y5082140D01*
X1639760Y5088140D01*
X1649560D01*
Y5088120D01*
X1775780D01*
X1793760Y5070140D01*
Y5016750D01*
G03Y4979250I30240J-18750D01*
G01Y4928140D01*
X1859150Y4862750D01*
Y4835860D01*
X1869280D01*
Y4813280D01*
X1908620D01*
X1911760Y4810140D01*
X1928760D01*
X1930760Y4808140D01*
Y4745140D01*
X1856840D01*
X1856470Y4749820D01*
G03X1828800Y4781710I-35467J-2824D01*
G02X1821190Y4794180I2226J9915D01*
G37*
G36*
G01X1612900Y5080000D02*
Y4965700D01*
X1511300D01*
Y5080000D01*
X1612900D01*
G37*
G36*
G01X3911560Y6120260D02*
X3911540Y5820160D01*
X3911510Y5511800D01*
Y4499950D01*
G02X3893750Y4493200I-10162J-3D01*
G03X3880540Y4501900I-22805J-20248D01*
G02X3875880Y4517990I3195J9645D01*
G03X3749810Y4632280I-65878J54009D01*
G02X3732470Y4639470I-7179J7192D01*
G01Y4648910D01*
X3731210Y4650170D01*
G02X3738640Y4667510I7184J7184D01*
G03X3708880Y4697270I730J30490D01*
G02X3691540Y4689840I-10156J-246D01*
G01X3688900Y4692480D01*
X3689230Y4694970D01*
G03X3663030Y4668770I-30230J4030D01*
G01X3665520Y4669100D01*
X3699410Y4635210D01*
Y3710090D01*
X3610740Y3621420D01*
X3607220Y3624070D01*
G03X3633090Y3592260I-51215J-68076D01*
G01X3631570Y3595490D01*
X3732470Y3696390D01*
Y3742530D01*
G02X3749810Y3749720I10161J-2D01*
G03X3870190I60190J60280D01*
G02X3887530Y3742530I7179J-7192D01*
G01Y3623470D01*
G02X3870190Y3616280I-10161J2D01*
G03Y3495720I-60190J-60280D01*
G02X3887530Y3488530I7179J-7192D01*
G01Y3369470D01*
G02X3870190Y3362280I-10161J2D01*
G03Y3241720I-60190J-60280D01*
G02X3887530Y3234530I7179J-7192D01*
G01Y3115470D01*
G02X3870190Y3108280I-10161J2D01*
G03X3827220Y2964570I-60193J-60281D01*
G02X3836460Y2947430I2058J-9951D01*
G01X3826550Y2937530D01*
X3676150D01*
X3603470Y2864850D01*
X3600070Y2866910D01*
G03X3628910Y2838070I-44070J-72910D01*
G01X3626850Y2841470D01*
X3689850Y2904470D01*
X3840250D01*
X3894170Y2958390D01*
G02X3911510Y2951210I7181J-7186D01*
G01Y1840330D01*
G02X3892960Y1834610I-10158J4D01*
G03Y1721390I-82960J-56610D01*
G02X3911510Y1715670I8392J-5724D01*
G01Y288210D01*
X3911030Y287730D01*
X3911020Y125150D01*
X2221300D01*
G02X2213230Y141480I3J10161D01*
G03X2219460Y158410I-24228J18527D01*
G01X2219710Y163220D01*
X2231180D01*
Y345780D01*
X2235780Y350380D01*
X2322820D01*
Y385820D01*
X2339180D01*
Y523680D01*
X2347050D01*
Y613240D01*
X2339180D01*
Y627320D01*
X2272350D01*
G02X2263270Y642030I1J10158D01*
G03X2266240Y659690I-27270J13666D01*
G02X2279980Y670490I10072J1326D01*
G03X2319630Y709440I11019J28440D01*
G02X2329170Y723100I9541J3498D01*
G01X2343680D01*
Y828540D01*
X2330640D01*
Y865840D01*
X2241080D01*
Y828540D01*
X2228320D01*
Y804950D01*
X2155530D01*
X2149220Y798640D01*
X2146060Y800010D01*
G03X2057380Y741680I-25156J-58330D01*
G01Y716280D01*
G03X2115280Y653010I63519J0D01*
G02X2124530Y642420I-898J-10119D01*
G03X2124630Y638210I30469J-1382D01*
G02X2115390Y627160I-10118J-927D01*
G03X2057380Y563880I5509J-63280D01*
G01Y537980D01*
X2054440Y535040D01*
G02X2037100Y542230I-7181J7186D01*
G01Y743360D01*
X1981410Y799040D01*
G02X1987430Y816320I7186J7185D01*
G03X1993560Y817630I-3808J32817D01*
G01X1994310Y817860D01*
X2004210D01*
Y812680D01*
G03X2065020Y808800I30492J-580D01*
G02X2075120Y817860I10100J-1100D01*
G01X2109880D01*
X2136160Y844140D01*
Y949100D01*
X2132860Y952400D01*
Y965700D01*
X2119820D01*
Y1003000D01*
X2023940D01*
Y1025760D01*
X2002990Y1046700D01*
G02X2003640Y1061660I7187J7182D01*
G03X2008710Y1067130I-19666J23312D01*
G01X2008950Y1067460D01*
X2016780Y1075280D01*
Y1105760D01*
X2020470Y1106810D01*
G03X2057200Y1160460I-13868J48892D01*
G02X2074490Y1168600I10113J952D01*
G01X2149650Y1093450D01*
X2372080D01*
X2415520Y1050010D01*
Y828710D01*
X2480800Y763430D01*
X2604510D01*
G02X2613780Y749100I5J-10160D01*
G03X2669420I27820J-12500D01*
G02X2678690Y763430I9265J4170D01*
G01X2682470D01*
X2727180Y808140D01*
X2729400Y808050D01*
G03X2761040Y840400I1197J30477D01*
G01X2760900Y842690D01*
X2795770Y877550D01*
Y883060D01*
X2866960D01*
Y883900D01*
X2892380D01*
X2900000Y891530D01*
X2901750Y891730D01*
G03X2916990Y898040I-3614J30287D01*
G01X2918370Y899130D01*
X2918390D01*
X2974400Y955140D01*
Y1062380D01*
X2871230Y1165550D01*
G02X2874820Y1174220I3592J3591D01*
G01X2875780D01*
Y1187260D01*
X2913080D01*
Y1276820D01*
X2875780D01*
Y1289580D01*
X2770340D01*
Y1289070D01*
X2754480D01*
X2753820Y1289250D01*
G03Y1230430I-8080J-29410D01*
G01X2754480Y1230610D01*
X2770340D01*
Y1189500D01*
X2508440D01*
X2508140Y1189200D01*
X2493420D01*
X2492610Y1190010D01*
X2190070D01*
X2170700Y1209380D01*
Y1235900D01*
G02X2182860Y1245860I10158J1D01*
G03X2204470Y1251630I4963J24763D01*
G02X2211170I3350J-3822D01*
G03X2244460Y1251640I16639J18996D01*
G02X2251160I3350J-3823D01*
G03X2284460I16650J18985D01*
G02X2291170I3355J-3819D01*
G03X2324470I16650J18985D01*
G02X2331170I3350J-3823D01*
G03X2364470I16650J18985D01*
G02X2371180I3355J-3819D01*
G03X2403700Y1250980I16652J18986D01*
G02X2410490Y1250620I3195J-3949D01*
G01X2438600Y1222510D01*
X2487750D01*
X2528880Y1263630D01*
X2545780D01*
Y1258980D01*
X2601220D01*
Y1272680D01*
X2613520D01*
Y1292720D01*
X2601220D01*
Y1306420D01*
X2545780D01*
Y1301770D01*
X2513080D01*
X2510410Y1299100D01*
G02X2493060Y1306280I-7189J7181D01*
G01Y1326600D01*
X2545780D01*
Y1322480D01*
X2601220D01*
Y1336180D01*
X2613520D01*
Y1356220D01*
X2601220D01*
Y1369920D01*
X2545780D01*
Y1359660D01*
X2493060D01*
Y1415640D01*
G03X2491670Y1423910I-25253J7D01*
G01X2490630Y1426920D01*
X2491960Y1428250D01*
Y1554240D01*
G02X2509300Y1561420I10159J-6D01*
G01X2526620Y1544100D01*
X2597230D01*
G03X2612800Y1537920I15573J16532D01*
G01X2675870D01*
Y1505520D01*
X2668680D01*
Y1450080D01*
X2682380D01*
Y1437780D01*
X2702420D01*
Y1450080D01*
X2716120D01*
Y1505520D01*
X2708930D01*
Y1537920D01*
X2739690D01*
G02X2746870Y1520570I0J-10161D01*
G01X2739370Y1513070D01*
Y1505520D01*
X2732180D01*
Y1450080D01*
X2745880D01*
Y1437780D01*
X2765920D01*
Y1450080D01*
X2779620D01*
Y1506560D01*
X2804990Y1531930D01*
G02X2813660Y1528340I3591J-3592D01*
G01Y1521700D01*
X2835670Y1499690D01*
X3011380D01*
X3033390Y1521700D01*
Y1573990D01*
G02X3046410Y1583730I10158J-7D01*
G03X3055650Y1582510I8566J29273D01*
G02X3066020Y1572350I209J-10159D01*
G01Y1490180D01*
X3100960D01*
Y1476850D01*
X3149030Y1428780D01*
X3153480D01*
Y1256080D01*
X3214230D01*
X3222950Y1247360D01*
G02X3215770Y1230020I-7186J-7181D01*
G01X3174480D01*
Y1047580D01*
X3324430D01*
G02X3331610Y1030240I-5J-10159D01*
G01X3330960Y1029590D01*
Y1021520D01*
X3303480D01*
Y836080D01*
X3408920D01*
Y992190D01*
G02X3417590Y995780I5079J-2D01*
G01X3422550Y990820D01*
Y823170D01*
X3315410Y716030D01*
X3184410D01*
X3051960Y583580D01*
Y570430D01*
X2950280D01*
Y404990D01*
X3215150D01*
G03X3225460Y487340I32850J37708D01*
G02X3210720Y496410I-4580J9070D01*
G01Y554080D01*
X3228210Y571570D01*
X3344490D01*
X3390890Y617970D01*
X3604300D01*
X3691990Y705660D01*
Y1072340D01*
X3612340Y1151990D01*
X3520430D01*
X3504950Y1167470D01*
G02X3512130Y1184820I7180J7189D01*
G01X3641180D01*
Y1355180D01*
X3470820D01*
Y1230530D01*
G02X3462140Y1226930I-5083J-8D01*
G01X3458640Y1230440D01*
X3458300Y1231040D01*
G03X3435400Y1246240I-26510J-15088D01*
G01X3433650Y1246440D01*
X3411280Y1268820D01*
X3408920D01*
Y1441520D01*
X3401540D01*
Y1490980D01*
X3438080D01*
Y1596420D01*
X3425320D01*
Y1633720D01*
X3335760D01*
Y1596420D01*
X3322720D01*
Y1583260D01*
G02X3309610Y1573530I-10161J-6D01*
G03X3279020Y1565750I-8862J-29182D01*
G02X3265420Y1564970I-7232J7134D01*
G03X3225960Y1518470I-19119J-23769D01*
G01Y1478130D01*
X3253900Y1450190D01*
G02X3250310Y1441520I-3591J-3591D01*
G01X3248170D01*
X3215150Y1474540D01*
X3167990D01*
X3161020Y1481500D01*
G02X3164620Y1490180I3592J3597D01*
G01X3181380D01*
Y1595620D01*
X3168620D01*
Y1632920D01*
X3078100D01*
G03X3046410Y1642270I-23101J-19918D01*
G02X3033390Y1652010I-2862J9747D01*
G01Y1678520D01*
X3078490Y1723620D01*
X3207110D01*
X3335800Y1852310D01*
Y2066120D01*
X3357290Y2087610D01*
Y2268300D01*
X3434200Y2345210D01*
Y3225430D01*
X3411750Y3247880D01*
Y3483600D01*
X3434200Y3506050D01*
Y3711580D01*
X3453470Y3730860D01*
G02X3470750Y3724820I7184J-7186D01*
G01X3641180D01*
Y3895180D01*
X3494840D01*
Y3983440D01*
G02X3510430Y3992020I10159J-5D01*
G03Y4135980I45570J71980D01*
G02X3494840Y4144560I-5431J8585D01*
G01Y4170610D01*
X3494850Y4196920D01*
Y4237430D01*
G02X3510440Y4246010I10158J-3D01*
G03X3475360Y4345460I45562J71983D01*
G02X3458560Y4341550I-9618J3277D01*
G01X3358490Y4441620D01*
G03X3368990Y4476410I-32948J28924D01*
G01X3368940Y4476750D01*
Y4491390D01*
X3357210Y4503120D01*
G02X3357110Y4510200I3592J3591D01*
G03X3363350Y4519830I-23104J21808D01*
G02X3375550Y4525700I9385J-3893D01*
G03X3356250Y4567650I8451J29303D01*
G02X3343850Y4562200I-9248J4211D01*
G03X3335040Y4563750I-9855J-30200D01*
G01X3333030Y4563820D01*
X3328020Y4568830D01*
X3336980Y4577790D01*
G03X3316000Y4661470I-20980J39210D01*
G01X3294880D01*
X3255870Y4622470D01*
G03X3254430Y4620950I31556J-31338D01*
G02X3239730Y4620600I-7517J6835D01*
G01X3238310Y4622020D01*
G03X3231140Y4627820I-31004J-30996D01*
G02X3230090Y4644100I5520J8530D01*
G03X3242480Y4668480I-22778J26914D01*
G01X3242610Y4670370D01*
X3283400Y4711150D01*
X3364100D01*
X3379390Y4695870D01*
G03X3379880Y4694460I24244J7635D01*
G01Y4675880D01*
X3393580D01*
Y4663580D01*
X3413620D01*
Y4675880D01*
X3427320D01*
Y4694420D01*
X3427610Y4695250D01*
G02X3436000Y4697170I4797J-1669D01*
G01X3447700Y4685470D01*
X3451750D01*
G03X3508180Y4696620I26248J15532D01*
G01X3508820Y4700970D01*
X3546270D01*
G03X3595510Y4736810I25633J16529D01*
G02X3598320Y4752070I7858J6442D01*
G03X3479690Y4863860I-42317J73933D01*
G01X3470780D01*
G02X3462280Y4879580I4J10160D01*
G01Y4919410D01*
G02X3471830Y4929550I10158J0D01*
G03X3473350Y4990310I-1831J30445D01*
G02X3464550Y5002590I1124J10099D01*
G03X3421530Y5036620I-29789J6549D01*
G01X3420490Y5036120D01*
X3379880D01*
Y4979260D01*
X3324880D01*
Y4996320D01*
X3331880D01*
Y5016360D01*
X3324880D01*
Y5041920D01*
X3148620D01*
Y5006250D01*
X2976520D01*
X2969430Y5013340D01*
X2961050D01*
Y5022330D01*
X2938290D01*
Y5072680D01*
X2925620D01*
Y5087320D01*
X2938290D01*
Y5088960D01*
X2943880D01*
Y5240000D01*
X3037820D01*
Y5095220D01*
X3134380D01*
Y5104880D01*
X3223320D01*
Y5158040D01*
X3229820D01*
X3284860Y5213080D01*
X3295480D01*
Y5164280D01*
X3435520D01*
Y5213080D01*
X3451880D01*
Y5217140D01*
X3460720D01*
X3495060Y5251480D01*
Y5289520D01*
X3494650Y5289930D01*
G02X3501840Y5307270I7188J7180D01*
G01X3642720D01*
Y5492730D01*
X3457260D01*
Y5355360D01*
X3443960D01*
Y5391180D01*
X3444260Y5391480D01*
Y5476260D01*
X3420920D01*
Y5493720D01*
X3360880D01*
Y5476260D01*
X3295680D01*
X3261340Y5441920D01*
Y5416260D01*
X3238180D01*
X3164280Y5342360D01*
X3159740Y5346890D01*
X3159380Y5348180D01*
G03X3157500Y5353190I-29385J-8169D01*
G01X3157000Y5354230D01*
Y5394980D01*
X3128260D01*
Y5400060D01*
X2942340D01*
Y5394980D01*
X2913680D01*
Y5376150D01*
G02X2899390Y5366870I-10160J2D01*
G03X2869250Y5363800I-12388J-27870D01*
G02X2855760Y5365300I-5909J8266D01*
G03X2850750Y5320200I-22761J-20300D01*
G02X2864240Y5318700I5909J-8266D01*
G03X2864530Y5318380I22743J20320D01*
G02X2864230Y5304320I-7485J-6873D01*
G01X2828630Y5268730D01*
G02X2811320Y5275160I-7180J7185D01*
G03X2759400Y5251260I-30419J-2264D01*
G01X2760900Y5249770D01*
Y5242580D01*
X2758420D01*
Y5241850D01*
G02X2750010Y5238020I-5079J5D01*
G03X2730510Y5245500I-20014J-23017D01*
G02X2725520Y5250570I88J5078D01*
G01Y5301460D01*
G02X2734890Y5311590I10158J2D01*
G03X2704400Y5330130I-2391J30409D01*
G02X2695040Y5316020I-9358J-3952D01*
G01X2684800D01*
Y5321130D01*
G03X2623800Y5321210I-30500J170D01*
G01Y5316120D01*
X2590700D01*
X2590470Y5320960D01*
G03X2529550Y5321210I-30466J-1451D01*
G01X2529280Y5316420D01*
X2474980D01*
Y5288360D01*
X2454440Y5267820D01*
X2428380D01*
Y5255520D01*
X2397620D01*
Y5267820D01*
X2377580D01*
Y5255520D01*
X2363880D01*
Y5254970D01*
G02X2355210Y5251380I-5079J2D01*
G01X2322300Y5284290D01*
Y5502080D01*
X2277900Y5546480D01*
X2278230Y5548970D01*
G03X2252030Y5522770I-30230J4030D01*
G01X2254520Y5523100D01*
X2289240Y5488380D01*
Y5426440D01*
G02X2271900Y5419260I-10159J6D01*
G01X2220170Y5470990D01*
X2220500Y5473480D01*
G03X2194300Y5447280I-30230J4030D01*
G01X2196790Y5447610D01*
X2261470Y5382930D01*
Y5302000D01*
G02X2244740Y5294250I-10160J-1D01*
G03X2217380Y5300530I-19738J-23251D01*
G02X2204680Y5310370I-2539J9838D01*
G01Y5352210D01*
X2207790Y5353520D01*
G03X2173220Y5401980I-11860J28100D01*
G02X2160000Y5400330I-7560J6784D01*
G03X2151310Y5404350I-16993J-25331D01*
G02X2145580Y5419680I2773J9772D01*
G03X2106240Y5463570I-25528J16694D01*
G02X2092490Y5468220I-4599J9056D01*
G03X2073960Y5425840I-27488J-13222D01*
G02X2087100Y5416130I2982J-9710D01*
G01Y5332570D01*
X2089320Y5330350D01*
Y5248280D01*
X2102080D01*
Y5210980D01*
X2205110D01*
X2206320Y5207630D01*
G03X2227110Y5188540I28681J10370D01*
G02X2234010Y5175200I-2628J-9814D01*
G03X2245950Y5111200I59590J-21997D01*
G02X2238330Y5094320I-7621J-6720D01*
G01X2236280D01*
Y5034280D01*
X2238330D01*
G02X2245950Y5017400I-1J-10160D01*
G03X2293600Y4911880I47650J-42001D01*
G01X2319000D01*
G03X2339170Y4915170I-7J63519D01*
G01X2342160Y4916170D01*
X2364880Y4893440D01*
Y4866780D01*
X2377180D01*
Y4853080D01*
X2523540D01*
X2531150Y4845470D01*
Y4812740D01*
X2571250Y4772640D01*
X2708470D01*
X2727920Y4753190D01*
X3189720D01*
G03X3190220Y4753200I-80J16528D01*
G01X3229020D01*
G02X3236210Y4735860I3J-10160D01*
G01X3206670Y4706310D01*
X3204780Y4706180D01*
G03X3172580Y4677130I2527J-35171D01*
G01X3172310Y4675550D01*
X3162530Y4665770D01*
X3161410Y4665390D01*
G03X3140680Y4642580I10193J-30088D01*
G02X3130130Y4634770I-9890J2330D01*
G03X3124500I-2815J-43750D01*
G02X3113950Y4642580I-660J10139D01*
G03X3093220Y4665390I-30923J-7278D01*
G01X3092100Y4665770D01*
X3082310Y4675550D01*
X3082030Y4677130D01*
G03X3024140Y4644430I-34724J-6120D01*
G02X3023010Y4628270I-6680J-7652D01*
G03X3014760Y4621320I24316J-37236D01*
G02X2999880I-7440J6918D01*
G03X2931310Y4617100I-32550J-30300D01*
G01X2894850Y4580650D01*
G03X2882150Y4554540I31452J-31442D01*
G03X2856320Y4542010I5164J-43534D01*
G01X2848660Y4534350D01*
X2839650Y4543350D01*
G03X2832520Y4549170I-32340J-32342D01*
G02X2831230Y4565110I5603J8476D01*
G03X2842040Y4584910I-23919J25910D01*
G01X2842310Y4586490D01*
X2855770Y4599950D01*
X2856900Y4600330D01*
G03X2878260Y4626770I-10201J30089D01*
G02X2888120Y4635760I10093J-1167D01*
G03X2860400Y4693780I-799J35250D01*
G02X2844120Y4694830I-7750J6567D01*
G03X2807310Y4714850I-36810J-23831D01*
G01X2784550D01*
X2766130Y4696430D01*
G02X2751870Y4696320I-7186J7182D01*
G03X2696270Y4687710I-24547J-25311D01*
G02X2678370I-8950J4816D01*
G03X2674910Y4692970I-31070J-16670D01*
G03X2612990Y4679050I-30620J-8474D01*
G03X2630610Y4639960I34331J-8041D01*
G02Y4622070I-4816J-8945D01*
G03X2621080Y4614580I16700J-31056D01*
G02X2605030Y4615790I-7559J6786D01*
G03X2567330Y4636130I-37700J-24768D01*
G01X2556170D01*
X2554980Y4639530D01*
G03X2530130Y4660350I-29973J-10535D01*
G01X2528510Y4660620D01*
X2522390Y4666740D01*
X2522520Y4669010D01*
G03X2481540Y4705790I-35201J1999D01*
G02X2469730Y4716340I-1664J10022D01*
G03X2441190Y4686390I-31728J1661D01*
G02X2452300Y4675100I1019J-10109D01*
G03X2468910Y4640940I35021J-4090D01*
G01X2469430Y4640620D01*
X2473460Y4636590D01*
X2469230Y4632350D01*
X2468410Y4631970D01*
G03X2449460Y4615540I18909J-40953D01*
G01X2449160Y4615090D01*
X2421490Y4587420D01*
Y4580170D01*
X2420270Y4578750D01*
G03X2409800Y4555410I34233J-29375D01*
G03X2375860Y4542460I-2499J-44402D01*
G01X2374030Y4540620D01*
G02X2359410Y4540880I-7185J7187D01*
G03X2351150Y4547820I-32117J-29840D01*
G02X2350100Y4564100I5517J8530D01*
G03X2362540Y4592910I-22769J26922D01*
G02X2371310Y4603520I10144J545D01*
G03X2335250Y4636050I-4307J31477D01*
G02X2325590Y4626240I-10154J338D01*
G03X2324270Y4626150I1738J-35219D01*
G02X2318750Y4631040I-443J5060D01*
G03X2291350Y4661470I-31752J-1039D01*
G02X2282580Y4671420I1389J10064D01*
G03X2212060Y4671370I-35260J-410D01*
G01X2212040Y4669300D01*
X2208490Y4665740D01*
X2206350Y4665770D01*
G03X2174360Y4636880I-350J-31769D01*
G01X2174190Y4635050D01*
X2168520Y4629370D01*
X2132820Y4665070D01*
X2132800D01*
X2122320Y4675550D01*
X2122050Y4677130D01*
G03X2088090Y4706260I-34726J-6123D01*
G02X2078790Y4719950I225J10157D01*
G03X2060870Y4760470I-29788J11049D01*
G02X2057480Y4777080I3791J9425D01*
G01X2082180Y4801780D01*
Y4899800D01*
X2085830Y4900870D01*
G03X2103900Y4915290I-8570J29271D01*
G01X2104250Y4915910D01*
X2118720Y4930380D01*
X2131520D01*
Y4965280D01*
G02X2145470Y4974710I10161J2D01*
G03X2181030Y5021610I11393J28293D01*
G02X2182560Y5035600I8049J6198D01*
G03X2138830Y5040390I-19564J23400D01*
G02X2137300Y5026400I-8049J-6198D01*
G03X2126360Y5003170I19559J-23402D01*
G01X2126330Y4998120D01*
X2097780D01*
Y4985820D01*
X2084080D01*
Y4970660D01*
G02X2074750Y4960540I-10159J5D01*
G03X2048810Y4919140I2509J-30399D01*
G02X2039340Y4905320I-9476J-3661D01*
G01X2035420D01*
X2032560Y4902460D01*
G02X2023890Y4906050I-3591J3592D01*
G01Y4923800D01*
X2036590D01*
Y5009180D01*
X2023920D01*
Y5029220D01*
X1947740D01*
Y5029160D01*
X1935020D01*
Y5029220D01*
X1881510D01*
G02X1871630Y5041780I-7J10161D01*
G03X1853980Y5077050I-29632J7223D01*
G02X1848230Y5089290I3988J9344D01*
G03X1849290Y5094390I-29224J8734D01*
G01X1849490Y5096140D01*
X1894880Y5141520D01*
Y5145320D01*
X1924720D01*
Y5158360D01*
X1962020D01*
Y5256290D01*
X1968280D01*
X2001300Y5289310D01*
X2033730D01*
Y5374690D01*
X1969720D01*
G02X1959800Y5387020I5J10159D01*
G03X1900200I-29800J6500D01*
G02X1890280Y5374690I-9925J-2171D01*
G01X1842530D01*
Y5468620D01*
G02X1859410Y5476240I10160J0D01*
G03X1894110Y5472270I20192J22859D01*
G02X1907200Y5469250I4831J-8937D01*
G03X1917490Y5513830I24801J17753D01*
G02X1904400Y5516850I-4831J8937D01*
G03X1852180Y5512450I-24800J-17752D01*
G01X1850790Y5509590D01*
X1842530D01*
Y5527600D01*
X1906290Y5591360D01*
Y5616030D01*
G02X1920090Y5625520I10160J4D01*
G03X1959360Y5665230I10912J28481D01*
G02X1964600Y5678230I9443J3750D01*
G03X1967390Y5732330I-12603J27772D01*
G02X1963390Y5745580I5121J8775D01*
G03X1952600Y5784580I-27390J13415D01*
G02X1952560Y5801600I5533J8523D01*
G03X1980230Y5843510I-34857J53103D01*
G02X1995550Y5850380I10001J-1786D01*
G03X2026590Y5849820I15994J25970D01*
G02X2040450Y5845990I5018J-8834D01*
G03X2061370Y5831030I26546J15014D01*
G02X2069110Y5817780I-1883J-9985D01*
G03X2125220Y5794240I28889J-9782D01*
G02X2141470Y5796840I9066J-4583D01*
G01X2145770Y5792540D01*
Y5767320D01*
X2134580D01*
Y5719880D01*
X2145930D01*
X2146010Y5707920D01*
X2134980D01*
Y5699600D01*
G02X2125360Y5689460I-10158J4D01*
G03X2157340Y5655910I1637J-30456D01*
G01X2157810Y5660480D01*
X2170710D01*
Y5654140D01*
X2170120Y5653030D01*
G03X2206270Y5667890I26979J-14230D01*
G01X2202720Y5669010D01*
Y5694220D01*
X2190420D01*
Y5707920D01*
X2179070D01*
X2178990Y5719880D01*
X2247900D01*
Y5605430D01*
X3385250D01*
Y5770530D01*
X3334450D01*
Y6120260D01*
X3911560D01*
G37*
G36*
G01X1866210Y5802140D02*
G03X1873230Y5752160I20471J-22608D01*
G01Y5712970D01*
G02X1857470Y5704490I-10161J-1D01*
G03X1821540Y5715010I-35020J-52991D01*
G01X1819390Y5714980D01*
X1816350Y5718020D01*
X1816150Y5719770D01*
G03X1773830Y5744190I-30288J-3609D01*
G02X1759660Y5753520I-4011J9333D01*
G01Y5769960D01*
X1706710D01*
Y6120900D01*
X2305770D01*
Y5772720D01*
X2249580D01*
Y5767320D01*
X2238830D01*
Y5774670D01*
X2232700Y5780800D01*
X2233030Y5783290D01*
G03X2219330Y5812950I-30231J4030D01*
G01Y5816170D01*
X2158140Y5877360D01*
Y5924260D01*
X2144440D01*
Y5936560D01*
X2124400D01*
Y5934740D01*
X2118140Y5932140D01*
X2105830Y5944450D01*
Y5987520D01*
X2142020D01*
Y6102880D01*
X2036580D01*
Y6095220D01*
X2002020D01*
Y6102880D01*
X1896580D01*
Y6015850D01*
X1887820Y6007100D01*
Y5936150D01*
G03X1854180Y5880100I29874J-56050D01*
G01Y5854700D01*
G03X1867430Y5815880I63517J8D01*
G02X1866210Y5802140I-8043J-6210D01*
G37*
G36*
G01X1995900Y173400D02*
X1937400Y231900D01*
Y354570D01*
G02X1951370Y363990I10160J1D01*
G03X1968500Y360660I17133J42409D01*
G01X1985210D01*
Y352920D01*
X1983020Y351400D01*
G03X1978110Y296990I20250J-29254D01*
G01X1991070Y284030D01*
X1991860D01*
X2010270Y265620D01*
X2023570D01*
Y258510D01*
X2108950D01*
Y271180D01*
X2126320D01*
Y331220D01*
X2108950D01*
Y343890D01*
X2032640D01*
X2021340Y355190D01*
X2016500D01*
X2015650Y355510D01*
G03X2012480Y356520I-12375J-33361D01*
G02X2007920Y373520I2624J9816D01*
G01X2094150Y459740D01*
X2195760D01*
Y617140D01*
X2307010D01*
Y523680D01*
X2329000D01*
Y396000D01*
X2267000D01*
X2261420Y390420D01*
X2233260D01*
Y385050D01*
X2226010D01*
X2224510Y386610D01*
G03X2208170Y335530I-22011J-21112D01*
G02X2220220Y325550I1891J-9982D01*
G01Y247680D01*
X2221000D01*
Y194300D01*
G02X2205380Y185730I-10159J-3D01*
G03X2161600Y173400I-16380J-25729D01*
G01X1995900D01*
G37*
G36*
G01X1976120Y828040D02*
X1958340Y845820D01*
Y911650D01*
X2001730Y955040D01*
X2115820D01*
X2125980Y944880D01*
Y848360D01*
X2105660Y828040D01*
X2066510D01*
G03X2002890I-31810J-15940D01*
G01X1976120D01*
G37*
G36*
G01X2208950Y1777880D02*
X2181450Y1805380D01*
X2181710Y1807790D01*
G03X2131190Y1833880I-30329J3230D01*
G02X2117750I-6720J7621D01*
G03X2070020Y1824120I-20188J-22861D01*
G02X2053660Y1821300I-9175J4364D01*
G01X2050570Y1824390D01*
Y1873610D01*
X2055860D01*
G03Y1944780I0J35585D01*
G01X2050570D01*
Y1981180D01*
X2058670D01*
X2226290Y1813560D01*
Y1785070D01*
G02X2208950Y1777880I-10159J-3D01*
G37*
G36*
G01X2339560Y1813860D02*
Y1858470D01*
X2234230Y1963780D01*
Y2248050D01*
G02X2251570Y2255230I10159J-6D01*
G01X2264390Y2242410D01*
Y2186530D01*
X2294480Y2156440D01*
X2425510D01*
G02X2432700Y2139100I2J-10160D01*
G01X2395200Y2101600D01*
Y2023710D01*
X2450250Y1968660D01*
X2509730D01*
G02X2516910Y1951320I-5J-10159D01*
G01X2489180Y1923590D01*
Y1907410D01*
G03X2530480Y1862520I20340J-22730D01*
G02X2544440I6980J-7379D01*
G03X2588640Y1864920I20962J22158D01*
G02X2596220Y1865100I3870J-3288D01*
G03X2597040Y1864270I16563J15543D01*
G02Y1856960I-3531J-3655D01*
G03X2594770Y1826800I15765J-16352D01*
G02Y1814440I-8064J-6180D01*
G03X2594780Y1786810I18035J-13808D01*
G02Y1774450I-8066J-6180D01*
G03Y1746810I18025J-13820D01*
G02Y1734440I-8062J-6185D01*
G03X2590100Y1719820I18022J-13828D01*
G02X2576950Y1709760I-10152J-355D01*
G03Y1651480I-9010J-29140D01*
G02X2590100Y1641410I2999J-9705D01*
G03X2592030Y1631430I22702J-786D01*
G02X2582740Y1617160I-9292J-4110D01*
G01X2536260D01*
X2339560Y1813860D01*
G37*
G36*
G01X2123460Y2045560D02*
Y2251300D01*
X2147070Y2274920D01*
X2175770Y2246220D01*
Y1974890D01*
G02X2158430Y1967710I-10159J6D01*
G01X2106950Y2019190D01*
Y2029050D01*
X2123460Y2045560D01*
G37*
G36*
G01X2404230Y4066150D02*
G03X2372580Y4037150I3074J-35126D01*
G01X2372310Y4035570D01*
X2367130Y4030400D01*
X2362390Y4035140D01*
X2362120Y4036760D01*
G03X2293310Y4040310I-34792J-5729D01*
G01X2292960Y4039010D01*
X2288410Y4034470D01*
X2280830Y4042050D01*
X2280450Y4043100D01*
G03X2272990Y4055200I-33128J-12074D01*
G02X2273210Y4069350I7401J6962D01*
G01X2291790Y4087930D01*
Y4105880D01*
X2295810Y4106740D01*
G03X2317980Y4118780I-9267J43496D01*
G01X2324450Y4125260D01*
G02X2339060Y4125000I7179J-7189D01*
G03X2401130Y4122060I32540J30310D01*
G02X2415390Y4121290I6740J-7601D01*
G03X2418030Y4118620I32915J29905D01*
G02X2418300Y4104000I-6917J-7440D01*
G01X2409800Y4095500D01*
Y4079940D01*
X2409700Y4079450D01*
G03X2408860Y4071180I43000J-8545D01*
G02X2404230Y4066150I-5081J31D01*
G37*
G36*
G01X2040560Y3898290D02*
G03X1994470Y3901670I-25770J-35469D01*
G03X1985980Y3910450I-35453J-25787D01*
G03X1975500Y3952700I-42879J11789D01*
G03X1986940Y3982240I-32402J29534D01*
G01Y4029740D01*
X1999900Y4042700D01*
G02X2015280Y4041520I7184J-7186D01*
G03X2070550Y4048890I25622J18782D01*
G01X2070940Y4049900D01*
X2072340Y4051300D01*
G02X2088740Y4048390I7183J-7186D01*
G03X2110470Y4026710I40344J18707D01*
G02X2113190Y4010100I-4257J-9225D01*
G03X2103890Y3980580I21812J-23097D01*
G02X2100650Y3974780I-4975J-1026D01*
G03X2084700Y3964600I15056J-41175D01*
G01X2066960Y3946860D01*
Y3908240D01*
X2062530Y3907670D01*
G03X2040560Y3898290I5578J-43485D01*
G37*
G36*
G01X1950000Y4808000D02*
X1993000D01*
X2003000D01*
X2011620D01*
X2025760Y4822140D01*
X2027200Y4823580D01*
X2029700Y4826080D01*
X2031700Y4828080D01*
Y4887200D01*
X2034000Y4889500D01*
X2039640Y4895140D01*
X2066360D01*
X2072000Y4889500D01*
Y4806000D01*
X2011000Y4745000D01*
X1950000D01*
Y4808000D01*
G37*
G36*
G01X2508390Y826970D02*
X2479060Y856300D01*
Y1076350D01*
X2428500Y1126910D01*
G02X2435690Y1144250I7187J7181D01*
G01X2473650D01*
X2474460Y1143440D01*
X2527100D01*
X2527400Y1143740D01*
X2557700D01*
G02X2564880Y1126400I-6J-10159D01*
G01X2552680Y1114200D01*
Y1024480D01*
X2568680Y1008480D01*
Y1000260D01*
X2576910D01*
X2581440Y995720D01*
Y962960D01*
X2671000D01*
Y998200D01*
X2683920D01*
X2692500Y1006790D01*
X2697760Y1001530D01*
X2697570Y999180D01*
G03X2714200Y969430I30393J-2534D01*
G02X2716800Y953180I-4587J-9067D01*
G01X2713610Y950000D01*
Y917500D01*
G03X2700690Y899820I16525J-25637D01*
G01X2700340Y898510D01*
X2628800Y826970D01*
X2593950D01*
G02X2584220Y840050I0J10159D01*
G03X2525780I-29220J8750D01*
G02X2516050Y826970I-9730J-2921D01*
G01X2508390D01*
G37*
G36*
G01X2583180Y1008380D02*
X2562860Y1028700D01*
Y1109980D01*
X2585720Y1132840D01*
X2775530D01*
G02X2785660Y1123370I-6J-10159D01*
G03X2801620Y1096050I35497J2415D01*
G01Y1049880D01*
X2793020D01*
X2791720Y1050760D01*
G03X2776700Y1055390I-15020J-22048D01*
G01X2748950D01*
X2729880Y1036320D01*
X2707640D01*
X2679700Y1008380D01*
X2583180D01*
G37*
G36*
G01X2785120Y2029000D02*
Y2022220D01*
X2831240Y1976100D01*
X2837880D01*
Y1972720D01*
X2848510D01*
X2881530Y1939700D01*
X2885580D01*
Y1903520D01*
X2774530D01*
X2771960Y1900960D01*
X2767980D01*
X2767000Y1901390D01*
G03X2757820Y1903340I-9208J-20765D01*
G01X2612800D01*
G03X2602200Y1900710I10J-22717D01*
G02X2589450Y1903440I-4744J8983D01*
G03X2587190Y1906020I-24036J-18775D01*
G01X2585740Y1907500D01*
Y1914350D01*
X2609440Y1938050D01*
X2611690Y1937940D01*
G03X2612800Y1937920I964J22693D01*
G01X2757820D01*
G03X2775840Y1974450I-6J22713D01*
G02Y1986810I8066J6180D01*
G03X2775850Y2014440I-18025J13822D01*
G02Y2026800I8064J6180D01*
G03X2775980Y2026970I-17979J13883D01*
G01X2777500Y2029000D01*
X2785120D01*
G37*
G36*
G01X2583180Y3173490D02*
G03X2544880Y3201940I-30482J-1030D01*
G02X2532120Y3211760I-2600J9821D01*
G01Y3262790D01*
X2393790Y3401120D01*
X2397910Y3405240D01*
X2398570Y3405590D01*
G03X2400350Y3406650I-10720J20027D01*
G01X2403810Y3408940D01*
X2437230Y3375520D01*
X2439070D01*
X2444720Y3369870D01*
X2502360D01*
X2536000Y3403510D01*
X2536280Y3435570D01*
X2537520Y3436990D01*
G03X2544250Y3449550I-23924J20902D01*
G01X2544610Y3450850D01*
X2548580Y3454820D01*
X2678880D01*
G02X2686300Y3437720I1J-10159D01*
G03X2703630Y3345170I42699J-39902D01*
G02X2706300Y3339160I-2203J-4577D01*
G03X2705120Y3333040I30455J-9046D01*
G02X2695010Y3323810I-10116J929D01*
G01X2685310D01*
G03X2648560Y3303320I0J-43202D01*
G01X2612800D01*
G03X2594780Y3266790I6J-22713D01*
G02Y3254430I-8066J-6180D01*
G03X2594770Y3226800I18025J-13822D01*
G02Y3214440I-8064J-6180D01*
G03X2594780Y3186810I18035J-13808D01*
G02Y3174440I-8062J-6185D01*
G03X2592750Y3171280I18030J-13814D01*
G02X2583180Y3173490I-4491J2378D01*
G37*
G36*
G01X2756800Y3554320D02*
G03X2757530Y3546410I43200J-2D01*
G01X2758020Y3543780D01*
X2753050Y3538800D01*
Y3526840D01*
X2752940Y3526730D01*
Y3506890D01*
G02X2740140Y3497080I-10161J2D01*
G03X2734310Y3498080I-8263J-30676D01*
G01X2732440Y3498220D01*
X2697980Y3532680D01*
Y3567840D01*
X2705360D01*
Y3584080D01*
X2715120D01*
Y3604120D01*
X2705360D01*
Y3618950D01*
X2711180D01*
X2711880Y3618740D01*
G03X2692460Y3635050I9023J30459D01*
G02X2683370Y3620360I-9096J-4529D01*
G01X2644840D01*
Y3567840D01*
X2652220D01*
Y3513720D01*
X2656690Y3509250D01*
G02X2653100Y3500580I-3592J-3591D01*
G01X2529620D01*
X2520040Y3491000D01*
G03X2512580Y3491600I-6417J-33103D01*
G01X2511390Y3492800D01*
X2511550Y3495100D01*
G03X2511650Y3498110I-43742J2960D01*
G01Y3555250D01*
X2547540Y3591140D01*
Y3671900D01*
G03X2536920Y3700510I-43847J0D01*
G01Y3759290D01*
G03X2547540Y3787900I-33227J28610D01*
G01Y3811690D01*
X2575210Y3839360D01*
Y3911990D01*
X2515560Y3971640D01*
X2482200D01*
G03X2438440Y3925100I0J-43843D01*
G01X2438450Y3924780D01*
X2433990Y3919740D01*
G03X2408350Y3907230I5358J-43511D01*
G01X2396830Y3895710D01*
G02X2382520Y3895660I-7180J7187D01*
G03X2337950Y3906030I-30760J-31239D01*
G02X2324770Y3917590I-3205J9639D01*
G03X2312550Y3957450I-43670J8415D01*
G01X2305140Y3964850D01*
X2309080Y3968780D01*
X2309470Y3969050D01*
G03X2321700Y3985120I-17855J26277D01*
G01X2322080Y3986240D01*
X2331860Y3996030D01*
X2333440Y3996300D01*
G03X2334000Y3996410I-6516J34650D01*
G02X2340010Y3991960I957J-4991D01*
G03X2401690Y3985130I31590J3362D01*
G01X2402070Y3986250D01*
X2411850Y3996030D01*
X2413430Y3996300D01*
G03X2441740Y4023440I-6125J34725D01*
G02X2447330Y4027390I4962J-1092D01*
G03X2483700Y4039900I5371J43510D01*
G01X2497480Y4053680D01*
Y4059180D01*
X2518320Y4080020D01*
G03X2517180Y4143120I-31000J31000D01*
G02X2516920Y4157740I6923J7435D01*
G01X2518770Y4159590D01*
G03X2524570Y4166740I-31450J31440D01*
G02X2540740Y4167870I8512J-5545D01*
G03X2567130Y4155770I26588J23160D01*
G03X2580550Y4123480I44467J-453D01*
G02X2580640Y4109020I-7096J-7274D01*
G01X2573760Y4102150D01*
Y4081300D01*
G03X2606610Y4037410I45745J0D01*
G01X2610260Y4036340D01*
X2610240Y3998450D01*
Y3992230D01*
X2609710Y3991170D01*
G03X2666690I28490J-14070D01*
G01X2666160Y3992230D01*
Y4001120D01*
X2668230Y4002640D01*
G03X2678370Y4014330I-20915J28385D01*
G02X2696270I8950J-4816D01*
G03X2733330Y3996290I31051J16701D01*
G02X2745220Y3986280I1729J-10013D01*
G01Y3917700D01*
X2824260Y3838660D01*
X2930930D01*
X2953220Y3816370D01*
G02X2954710Y3812780I-3589J-3594D01*
G01X2953620Y3809640D01*
G03X2998240Y3765020I24980J-19640D01*
G01X3001380Y3766110D01*
G02X3004970Y3764620I-4J-5079D01*
G01X3042430Y3727160D01*
X3079020D01*
X3130140Y3676040D01*
X3127790Y3672560D01*
G03X3127840Y3636830I26292J-17828D01*
G02X3124570Y3622330I-8395J-5726D01*
G03X3110820Y3583820I16028J-27433D01*
G02X3101300Y3570120I-9521J-3542D01*
G01X3056710D01*
G03X3028100Y3580740I-28610J-33227D01*
G01X2988420D01*
G02X2978320Y3591980I2J10159D01*
G03X2915010Y3597200I-31591J3390D01*
G02X2905700Y3587660I-10143J586D01*
G03X2895250Y3584970I2580J-31665D01*
G03X2886260Y3594300I-35251J-24970D01*
G01Y3647240D01*
X2889860D01*
Y3699760D01*
X2862470D01*
Y3705130D01*
X2860660Y3706930D01*
Y3747760D01*
X2863990Y3748980D01*
G03X2831530Y3802200I-10973J29817D01*
G02X2818630Y3801510I-6869J7486D01*
G03X2786530Y3747070I-18881J-25551D01*
G01X2789500Y3745710D01*
Y3699760D01*
X2769340D01*
Y3647240D01*
X2773740D01*
Y3594300D01*
G03X2756800Y3560000I26255J-34300D01*
G01Y3554320D01*
G37*
G36*
G01X2678370Y4047730D02*
G03X2671890Y4056320I-31058J-16690D01*
G02X2671780Y4070800I7074J7294D01*
G01X2679660Y4078680D01*
G03X2678520Y4144470I-32341J32344D01*
G02X2678260Y4159080I6928J7431D01*
G01X2678770Y4159580D01*
G03X2684570Y4166740I-31472J31423D01*
G02X2700740Y4167860I8508J-5552D01*
G03X2722250Y4156140I26574J23174D01*
G02X2730940Y4146380I-1466J-10054D01*
G03X2755640Y4116320I31759J918D01*
G01X2756800Y4116060D01*
X2772960Y4102920D01*
X2773390Y4101380D01*
G03X2784530Y4084110I33914J9649D01*
G02X2783480Y4067830I-6570J-7750D01*
G03X2776310Y4062030I23834J-36796D01*
G01X2768380Y4054100D01*
G02X2753620Y4054520I-7182J7185D01*
G03X2696270Y4047730I-26296J-23490D01*
G02X2678370I-8950J4816D01*
G37*
G36*
G01X2773520Y4541840D02*
G02X2758830Y4541500I-7507J6845D01*
G01X2758320Y4542010D01*
G03X2722640Y4554600I-31000J-31000D01*
G02X2717070Y4558920I-543J5051D01*
G03X2695820Y4584450I-31440J-4561D01*
G01X2694700Y4584830D01*
X2689470Y4590060D01*
X2687810D01*
X2682320Y4595550D01*
X2682050Y4597130D01*
G03X2664030Y4622070I-34728J-6112D01*
G02Y4639960I4816J8945D01*
G03X2678370Y4654310I-16716J31045D01*
G02X2696270I8950J-4816D01*
G03X2722500Y4636080I31055J16697D01*
G03X2767220Y4590790I43817J-1458D01*
G02X2772360Y4586380I103J-5080D01*
G03X2783390Y4565110I34954J4631D01*
G02X2782100Y4549170I-6893J-7464D01*
G03X2773520Y4541840I25193J-38176D01*
G37*
G36*
G01X2866960Y956820D02*
Y991460D01*
X2859580D01*
Y1004980D01*
X2864420D01*
Y1052420D01*
X2811800D01*
Y1060870D01*
X2812820Y1062220D01*
G03X2819280Y1085040I-26443J19810D01*
G02X2827340Y1095910I10118J921D01*
G03X2846380Y1108630I-6184J29867D01*
G02X2861960Y1110100I8399J-5716D01*
G01X2928640Y1043420D01*
Y974100D01*
X2906120Y951580D01*
X2903510Y952040D01*
G03X2882370Y948130I-5379J-30022D01*
G02X2866960Y956820I-5251J8696D01*
G37*
G36*
G01X3304000Y2079300D02*
Y1865490D01*
X3193930Y1755420D01*
X3131520D01*
Y1820720D01*
X3104180D01*
Y1833390D01*
X3064770D01*
G02X3054830Y1845660I0J10161D01*
G03X3054450Y1859920I-29831J6340D01*
G02X3064260Y1872720I9812J2639D01*
G01X3145020D01*
Y1885760D01*
X3182320D01*
Y2122510D01*
X3210850D01*
G03X3256300Y2173410I0J45742D01*
G01X3256270Y2173690D01*
Y2179060D01*
X3262650D01*
X3308150Y2224560D01*
G02X3325490Y2217370I7181J-7187D01*
G01Y2100790D01*
X3304000Y2079300D01*
G37*
G36*
G01X2893320Y1862840D02*
X2913230D01*
X2946000Y1895610D01*
X3022920D01*
G02X3039580Y1887800I6499J-7810D01*
G01Y1881210D01*
X3033800D01*
X3033140Y1881390D01*
G03X3015330Y1823070I-8140J-29394D01*
G01X3018800Y1821910D01*
Y1811040D01*
X3000230D01*
X2956010Y1766820D01*
X2905620D01*
Y1788020D01*
X2893320D01*
Y1801720D01*
X2885940D01*
Y1817780D01*
X2893320D01*
Y1831480D01*
X2905620D01*
Y1851520D01*
X2893320D01*
Y1862840D01*
G37*
G36*
G01X2848850Y1531490D02*
X2845460Y1534880D01*
Y1569860D01*
X2870060D01*
Y1582160D01*
X2884100D01*
G02X2900290Y1587460I9819J-2616D01*
G03X2944060Y1589540I20711J25741D01*
G01X2948080D01*
Y1582160D01*
X2961780D01*
Y1569860D01*
X2981820D01*
Y1582160D01*
X3001590D01*
Y1534880D01*
X2998200Y1531490D01*
X2848850D01*
G37*
G36*
G01X2905620Y1985460D02*
Y2006460D01*
X2893320D01*
Y2027410D01*
X2906060D01*
Y2040080D01*
X2933400D01*
Y2100120D01*
X2906060D01*
Y2121560D01*
X3028100D01*
G03X3029170Y2121570I125J43841D01*
G02X3039580Y2111420I250J-10157D01*
G01Y2030940D01*
X2994090Y1985460D01*
X2905620D01*
G37*
G36*
G01X3006800Y3886790D02*
X2967250Y3926340D01*
X2860580D01*
X2854910Y3932010D01*
X2858630Y3935720D01*
X2858760Y3935840D01*
G03X2841340Y3991380I-20862J23959D01*
G01X2839570Y3991580D01*
X2834710Y3996430D01*
X2838310Y4000030D01*
G03X2844120Y4007210I-30987J31016D01*
G02X2860400Y4008260I8530J-5517D01*
G03X2904030Y4062080I26921J22771D01*
G02Y4079970I4816J8945D01*
G03X2918380Y4094320I-16704J31054D01*
G02X2936270I8945J-4807D01*
G03X2953650Y4078520I31056J16702D01*
G03X2981210Y4018610I51892J-12422D01*
G02X2985290Y4004340I-4632J-9043D01*
G03X3027080Y3959750I27240J-16348D01*
G02X3041890Y3950710I4650J-9034D01*
G01Y3921880D01*
X3006800Y3886790D01*
G37*
G36*
G01X3060700Y5105400D02*
X3124200D01*
Y5283200D01*
Y5295000D01*
Y5303000D01*
X2877300D01*
X2869300Y5295000D01*
X2857500Y5283200D01*
X2806700Y5232400D01*
X2768600D01*
Y5168900D01*
X2838360Y5099140D01*
X2933700D01*
Y5245100D01*
X2944300Y5255700D01*
X3037400D01*
X3048000Y5245100D01*
Y5105400D01*
X3060700D01*
G37*
G36*
G01X2923860Y5316000D02*
Y5384800D01*
X2933700D01*
X3124200D01*
X3146820D01*
Y5316000D01*
X2923860D01*
G37*
G36*
G01X3343660Y4072150D02*
Y3840260D01*
X3290240Y3786840D01*
X3287630Y3787310D01*
G03X3267000Y3783750I-5443J-30012D01*
G01X3263630Y3781810D01*
X3205840Y3839600D01*
X3208830Y3843160D01*
G03X3156580Y3848350I-24357J20399D01*
G02X3154520Y3841430I-4458J-2439D01*
G03X3149910Y3838590I20645J-38674D01*
G01X3146410Y3836110D01*
X3114160Y3868370D01*
X3130830Y3885040D01*
Y4021020D01*
G02X3145390Y4030170I10159J-6D01*
G03X3168010Y4025750I19799J41232D01*
G02X3173230Y4021980I309J-5071D01*
G03X3178430Y4010800I34079J9051D01*
G01X3179350Y4009490D01*
Y3999670D01*
X3178990Y3998770D01*
G03X3206220Y3955310I29510J-11771D01*
G02X3215580Y3946400I-726J-10134D01*
G03X3249400Y3981890I31542J3802D01*
G02X3240040Y3990800I726J10134D01*
G03X3235960Y4002980I-31543J-3793D01*
G01X3235270Y4004160D01*
Y4009490D01*
X3236190Y4010800D01*
G03X3242540Y4029500I-28878J20234D01*
G01X3242750Y4034360D01*
X3248960D01*
G03X3289720Y4062070I0J43833D01*
G01X3291000Y4065280D01*
X3312270D01*
X3326320Y4079330D01*
G02X3343660Y4072150I7181J-7185D01*
G37*
G36*
G01X3164200Y4870700D02*
X3158800Y4876100D01*
Y5031740D01*
X3314700D01*
Y5016360D01*
X3311840D01*
Y4996320D01*
X3314700D01*
Y4965560D01*
X3311840D01*
Y4945520D01*
X3314700D01*
Y4927600D01*
X3325730D01*
Y4923980D01*
X3332780Y4916930D01*
Y4870700D01*
X3164200D01*
G37*
G36*
G01X3374100Y4875000D02*
X3372820Y4876280D01*
Y4920770D01*
X3361400D01*
Y4927600D01*
X3342940D01*
Y4930900D01*
X3338450D01*
Y4964050D01*
X3434310D01*
X3434430Y4959100D01*
G03X3452100Y4929250I35569J901D01*
G01Y4884100D01*
X3443000Y4875000D01*
X3374100D01*
G37*
G36*
G01X3159540Y5316040D02*
X3187200Y5343700D01*
X3190800Y5340100D01*
G03X3336820Y5400300I60603J60194D01*
G01Y5461000D01*
X3360880D01*
Y5453680D01*
X3429000D01*
Y5397800D01*
X3428700Y5397500D01*
Y5323700D01*
X3427650Y5322650D01*
Y5309950D01*
X3441700Y5295900D01*
X3442020D01*
Y5292030D01*
X3470970D01*
X3479800Y5283200D01*
Y5257800D01*
X3454400Y5232400D01*
X3344900D01*
X3344300Y5233000D01*
X3283200D01*
X3223500Y5173300D01*
X3171400D01*
X3151700Y5193000D01*
Y5303280D01*
X3159540D01*
Y5316040D01*
G37*
%LPC*%
G75*
G36*
G01X1235040Y5299740D02*
G03X1221750Y5304180I-8976J-4757D01*
G02X1190310Y5307540I-12948J27618D01*
G03X1176820Y5306490I-6157J-8078D01*
G02X1124470Y5330860I-22022J21106D01*
G03X1114370Y5342100I-10100J1082D01*
G01X872310D01*
X851850Y5321630D01*
Y5318630D01*
X864960Y5305520D01*
X868530Y5308470D01*
G02X874690Y5257560I19473J-23472D01*
G03X860450Y5251060I-4430J-9143D01*
G02X807090Y5277930I-29448J7937D01*
G01X809900Y5281480D01*
X795910Y5295460D01*
Y5344790D01*
X849130Y5398030D01*
X1165060D01*
X1201550Y5361540D01*
X1204100Y5361940D01*
G02X1213500I4700J-30140D01*
G01X1216050Y5361540D01*
X1233100Y5378590D01*
Y5389440D01*
X1232950Y5390040D01*
G02X1232470Y5393990I16051J3955D01*
G01Y5426730D01*
X1188810Y5470390D01*
X1186320Y5470060D01*
G02X1163940Y5475930I-4031J30231D01*
G03X1147780Y5469280I-6107J-8119D01*
G02X1100080Y5448730I-30180J4418D01*
G03X1084090Y5440410I-5831J-8318D01*
G01Y5419100D01*
X998710D01*
Y5425420D01*
X957090D01*
Y5419100D01*
X871710D01*
Y5504480D01*
X884380D01*
Y5531820D01*
X944420D01*
Y5516120D01*
X950030D01*
X950560Y5516230D01*
G02X954110Y5516770I6353J-29829D01*
G01X955940Y5516940D01*
X960980Y5521980D01*
X994820D01*
X999530Y5517260D01*
X1001250Y5517050D01*
G02X1005030Y5516320I-3882J-30253D01*
G01X1005650Y5516160D01*
X1011380D01*
Y5531820D01*
X1071420D01*
Y5504480D01*
X1084400D01*
G03X1100080Y5498670I9846J2508D01*
G02X1135950Y5498060I17516J-24970D01*
G03X1152110Y5504710I6107J8119D01*
G02X1212520Y5496260I30178J-4420D01*
G01X1212190Y5493770D01*
X1222390Y5483570D01*
G03X1239680Y5489660I7188J7181D01*
G02X1262470Y5456840I30324J-3266D01*
G01X1259670Y5457560D01*
X1254040Y5451920D01*
X1265530Y5440430D01*
Y5393990D01*
G02X1265050Y5390040I-16531J5D01*
G01X1264900Y5389440D01*
Y5365410D01*
X1260880Y5361390D01*
G03X1266550Y5344160I7181J-7185D01*
G02X1281480Y5337470I-4550J-30159D01*
G03X1295230Y5338180I6490J7816D01*
G02X1297920Y5341680I25576J-16873D01*
G01Y5382280D01*
X1316740D01*
Y5387360D01*
X1502660D01*
Y5382280D01*
X1530570D01*
Y5298420D01*
X1520110D01*
G02X1496870Y5290780I-20345J22722D01*
G01X1496630Y5290800D01*
X1323730D01*
G02X1317870I-2930J30500D01*
G01X1316740D01*
Y5290820D01*
X1315790Y5291070D01*
G02X1300420Y5298420I5013J30228D01*
G01X1297920D01*
Y5300920D01*
G02X1297550Y5301340I22806J20464D01*
G01X1289900D01*
X1288440Y5298790D01*
G02X1235040Y5299740I-26438J15209D01*
G37*
G36*
G01X309020Y5179080D02*
X340380Y5147720D01*
Y5024980D01*
X296320Y4980920D01*
X186280D01*
X154920Y5012280D01*
Y5139280D01*
X104120Y5190080D01*
Y5363620D01*
X145680Y5405180D01*
X238780D01*
Y5376160D01*
X243860D01*
Y5190240D01*
X243220D01*
X240620Y5183980D01*
X245520Y5179080D01*
X309020D01*
G37*
G36*
G01X639170Y5406700D02*
G02X631370Y5375450I21231J-21898D01*
G03X616330Y5380970I-9674J-3109D01*
G02X570000Y5410900I-16099J25902D01*
G01X570330Y5413390D01*
X567670Y5416050D01*
Y5427180D01*
X526520D01*
Y5532620D01*
X539560D01*
Y5569920D01*
X629120D01*
Y5532620D01*
X641880D01*
Y5427180D01*
X639600D01*
G03X629770Y5414480I7J-10160D01*
G02X630580Y5409850I-29550J-7555D01*
G03X639170Y5406700I5056J500D01*
G37*
G36*
G01X2636980Y5514160D02*
Y5531820D01*
X2697020D01*
Y5504480D01*
X2709690D01*
Y5419100D01*
X2624310D01*
Y5425420D01*
X2582690D01*
Y5419100D01*
X2497310D01*
Y5504480D01*
X2509980D01*
Y5531820D01*
X2570020D01*
Y5514120D01*
X2575630D01*
X2576160Y5514230D01*
G02X2577760Y5514530I6418J-29815D01*
G01X2579390Y5514790D01*
X2586580Y5521980D01*
X2620420D01*
X2627380Y5515010D01*
X2628900Y5514710D01*
G02X2630630Y5514320I-5839J-29934D01*
G01X2631250Y5514160D01*
X2636980D01*
G37*
G36*
G01X3061050Y1352500D02*
G03X3047190Y1352490I-6925J-7436D01*
G02X3002460Y1352130I-22561J24139D01*
G03X2988840Y1352140I-6816J-7535D01*
G02X2988890Y1401180I-22120J24543D01*
G03X3002510Y1401170I6816J7535D01*
G02X3047140Y1400810I22118J-24541D01*
G03X3061000Y1400820I6925J7436D01*
G02X3061050Y1352500I22561J-24137D01*
G37*
G36*
G01X3138180Y779120D02*
Y701020D01*
X2906820D01*
Y730580D01*
X2906770Y730920D01*
G02Y739080I30230J4080D01*
G01X2906820Y739420D01*
Y882180D01*
X3138180D01*
Y806880D01*
X3138650Y805860D01*
G02Y780140I-27650J-12860D01*
G01X3138180Y779120D01*
G37*
G36*
G01X2875990Y496270D02*
G03X2878270Y482510I8428J-5672D01*
G02X2820840Y484690I-30268J-39810D01*
G03X2824150Y498240I-5522J8528D01*
G02X2875990Y496270I26529J15049D01*
G37*
G36*
G01X2868590Y5467310D02*
G02X2868340Y5505800I-23789J19091D01*
G03X2884100Y5505900I7839J6459D01*
G02X2884350Y5467410I23789J-19091D01*
G03X2868590Y5467310I-7839J-6459D01*
G37*
G36*
G01X3758720Y4894030D02*
G02X3729970Y4855210I51277J-68032D01*
G03X3718350Y4868640I-9544J3484D01*
G02X3697840Y4925440I-6229J29854D01*
G03X3700170Y4941700I-4758J8979D01*
G02X3735740Y4936580I21296J21832D01*
G03X3733410Y4920320I4758J-8979D01*
G02X3742490Y4901230I-21297J-21834D01*
G03X3758720Y4894030I10117J912D01*
G37*
G36*
G01X3620360Y3357810D02*
G02X3488000Y3353320I-64363J-55810D01*
G03X3485240Y3368070I-8109J6116D01*
G02X3531760Y3395730I16068J25926D01*
G03X3543410Y3386250I10146J569D01*
G02X3581030Y3383430I12600J-84252D01*
G03X3593740Y3396060I2979J9712D01*
G02X3626770Y3374550I29218J8751D01*
G03X3620360Y3357810I1265J-10082D01*
G37*
G36*
G01X3531660Y2186870D02*
G02X3498730Y2201510I-26463J-15168D01*
G03X3502910Y2219380I-2156J9928D01*
G02X3623740Y2234340I53093J66621D01*
G03X3626370Y2219600I8078J-6163D01*
G02X3579580Y2192160I-16339J-25752D01*
G03X3568000Y2201660I-10146J-559D01*
G02X3542130Y2201950I-11991J84341D01*
G03X3531660Y2186870I-1656J-10025D01*
G37*
G36*
G01X3425920Y2179790D02*
G02X3389840Y2186220I-22318J-20790D01*
G03X3392680Y2202210I-4590J9063D01*
G02X3428760Y2195780I22318J20790D01*
G03X3425920Y2179790I4590J-9063D01*
G37*
G36*
G01X3632710Y1968000D02*
G02X3596750Y1940780I-5588J-29981D01*
G03X3583360Y1951320I-10119J921D01*
G02X3626210Y1983740I-27354J80682D01*
G03X3632710Y1968000I8371J-5755D01*
G37*
G36*
G01X2533570Y182890D02*
G02X2480070Y155780I-29266J-8590D01*
G01X2478550Y157770D01*
X2476680D01*
X2438550Y195900D01*
X2351520D01*
Y301360D01*
X2359180D01*
Y338650D01*
X2478520D01*
Y440000D01*
G02X2526490Y475810I20479J22601D01*
G01X2526860Y475030D01*
X2560540Y441360D01*
X2574800D01*
G03X2578880Y449460I-1J5078D01*
G02X2576890Y452510I24505J18162D01*
G01X2576550Y453110D01*
X2485870Y543790D01*
Y571820D01*
X2463280D01*
Y687180D01*
X2568720D01*
Y674140D01*
X2606020D01*
Y584580D01*
X2568720D01*
Y571820D01*
X2565050D01*
G03X2557860Y554480I-4J-10159D01*
G01X2617890Y494450D01*
X2618490Y494110D01*
G02X2603880Y437100I-15085J-26511D01*
G03X2593880Y426950I158J-10157D01*
G01Y335900D01*
X2586220D01*
Y301360D01*
X2593880D01*
Y266130D01*
X2597550D01*
X2635230Y228450D01*
Y200330D01*
G02X2639960Y196570I-16521J-25638D01*
G03X2655630Y198410I7088J7279D01*
G02X2660140Y160230I25771J-16312D01*
G03X2644470Y158390I-7088J-7279D01*
G02X2589350Y182990I-25768J16314D01*
G03X2579570Y195900I-9779J2751D01*
G01X2543320D01*
G03X2533570Y182890I-3J-10157D01*
G37*
G54D72*
X448490Y332740D03*
X626900Y3458600D03*
X830000Y4202000D03*
X1148240Y4094640D03*
X1224100Y4860300D03*
X1308100Y4864100D03*
X1143000D03*
X1516600Y4860300D03*
X1422400Y4864100D03*
X1612900D03*
X1121000Y1727000D03*
X2417000Y656000D03*
X2757910Y5484960D03*
X3656000Y1633000D03*
X3609760Y4968140D03*
X3857190Y4956600D03*
G54D74*
X2158000Y2556510D03*
G54D75*
X2439190Y4331490D03*
G54D77*
X2562860Y1455420D03*
G54D73*
X254000Y3048000D03*
X3556000Y1778000D03*
G54D71*
X254000Y254000D03*
Y508000D03*
Y2540000D03*
Y2794000D03*
Y3302000D03*
Y3556000D03*
Y4572000D03*
X3556000Y508000D03*
Y1524000D03*
Y3048000D03*
Y4572000D03*
X3810000Y762000D03*
Y508000D03*
Y1016000D03*
Y1524000D03*
Y1270000D03*
Y2286000D03*
Y2032000D03*
Y2794000D03*
Y5080000D03*
G54D76*
X3206200Y928800D03*
%LPD*%
G75*
G36*
G01X330200Y5143500D02*
Y5029200D01*
X292100Y4991100D01*
X190500D01*
X165100Y5016500D01*
Y5143500D01*
X114300Y5194300D01*
Y5359400D01*
X149900Y5395000D01*
X190000D01*
X228600D01*
Y5194300D01*
Y5181600D01*
X241300Y5168900D01*
X254000D01*
X304800D01*
X330200Y5143500D01*
G37*
G36*
G01X1066800Y5486400D02*
Y5435600D01*
X889000D01*
Y5486400D01*
X939800D01*
X965200Y5511800D01*
X990600D01*
X1016000Y5486400D01*
X1066800D01*
G37*
G36*
G01X1498600Y5308600D02*
X1308100D01*
Y5372100D01*
X1498600D01*
X1520390D01*
Y5308600D01*
X1498600D01*
G37*
G36*
G01X1638300Y5080000D02*
Y4927600D01*
X1782000D01*
Y5080000D01*
X1638300D01*
G37*
G36*
G01X2692400Y5486400D02*
Y5435600D01*
X2514600D01*
Y5486400D01*
X2565400D01*
X2590800Y5511800D01*
X2616200D01*
X2641600Y5486400D01*
X2692400D01*
G37*
G36*
G01X3128000Y872000D02*
Y711200D01*
X2917000D01*
Y872000D01*
X3128000D01*
G37*
G54D10*
X0Y254000D03*
Y762000D03*
Y508000D03*
Y1016000D03*
Y1524000D03*
Y1778000D03*
Y2286000D03*
Y2032000D03*
Y3048000D03*
Y2794000D03*
Y3302000D03*
Y3556000D03*
Y4318000D03*
Y4064000D03*
Y4572000D03*
Y4826000D03*
X254000Y254000D03*
Y762000D03*
Y508000D03*
Y1016000D03*
Y1524000D03*
Y1270000D03*
Y1778000D03*
Y2286000D03*
Y2032000D03*
Y2540000D03*
Y3048000D03*
Y2794000D03*
Y3302000D03*
Y3810000D03*
Y3556000D03*
Y4318000D03*
Y4064000D03*
Y4572000D03*
Y5080000D03*
Y4826000D03*
X3556000Y254000D03*
Y762000D03*
Y508000D03*
Y1016000D03*
Y1524000D03*
Y1778000D03*
Y2286000D03*
Y2032000D03*
Y3048000D03*
Y2794000D03*
Y3302000D03*
Y3556000D03*
Y4318000D03*
Y4064000D03*
Y4572000D03*
Y4826000D03*
X3810000Y254000D03*
Y762000D03*
Y508000D03*
Y1016000D03*
Y1524000D03*
Y1270000D03*
Y1778000D03*
Y2286000D03*
Y2032000D03*
Y2540000D03*
Y3048000D03*
Y2794000D03*
Y3302000D03*
Y3810000D03*
Y3556000D03*
Y4318000D03*
Y4064000D03*
Y4572000D03*
Y5080000D03*
Y4826000D03*
G54D20*
X654200Y3581400D03*
X514200D03*
X666900Y5219700D03*
X526900D03*
X1366400Y4083700D03*
X1226400D03*
X1720700Y4102100D03*
X1860700D03*
X1872000Y5203000D03*
X2257030Y568600D03*
X2012000Y5203000D03*
X1949300Y6045200D03*
X2089300D03*
X2516000Y629500D03*
X2656000D03*
X2397030Y568600D03*
X2963060Y1231900D03*
X2823060D03*
X3092300Y1930400D03*
Y2057400D03*
X3232300Y1930400D03*
Y2057400D03*
G54D11*
X-50500Y382100D03*
X-73660Y627380D03*
Y891540D03*
Y1397000D03*
Y1143000D03*
Y1648460D03*
Y2153920D03*
Y1907540D03*
Y2664460D03*
Y2410460D03*
Y2921000D03*
Y3429000D03*
Y3172460D03*
Y3677920D03*
Y3934460D03*
Y4193540D03*
X-69900Y5375100D03*
Y5250300D03*
X-70700Y5768700D03*
Y5649000D03*
X-69900Y5518700D03*
X129540Y452120D03*
X149860Y586740D03*
X53340Y627380D03*
X334000Y413200D03*
X55880Y891540D03*
X170180Y853440D03*
X58420Y1397000D03*
X55880Y1143000D03*
Y1645920D03*
Y2153920D03*
Y1905000D03*
Y2664460D03*
X53340Y2410460D03*
Y2921000D03*
Y3429000D03*
Y3175000D03*
X55880Y3677920D03*
X53340Y3931920D03*
X135600Y5345600D03*
X136600Y5282600D03*
X135600Y5216600D03*
X330800Y6092100D03*
X227900Y6091400D03*
X363500Y173900D03*
X655320Y175260D03*
X561340D03*
X462280D03*
X365760Y309880D03*
X434340Y264160D03*
X617220Y251460D03*
X448490Y332740D03*
X639080Y489300D03*
X570120Y511080D03*
X526860Y550720D03*
X512080Y652780D03*
X543560Y464820D03*
X466090D03*
X360680Y553720D03*
X617220Y383540D03*
X707900Y504600D03*
X648000Y567110D03*
X654700Y626000D03*
X605500Y1088790D03*
X665480Y1074570D03*
X605540Y1032430D03*
X606540Y978600D03*
X734060Y825500D03*
X678180Y822960D03*
X513080Y728980D03*
X711200Y1490980D03*
X607060Y1447800D03*
X627330Y1223010D03*
X414810Y1885700D03*
X642620Y1578100D03*
X650240Y1794760D03*
X414830Y2026670D03*
X652780Y2166620D03*
X414780Y2080010D03*
X378460Y2160270D03*
X411450Y2286000D03*
X416560Y2199640D03*
X411100Y1973450D03*
X644120Y2039620D03*
X411000Y2393000D03*
X670430Y2475880D03*
X417350Y2644930D03*
X645850Y2555240D03*
X643360Y2611120D03*
X643100Y2388800D03*
X408000Y2479000D03*
X645850Y3000630D03*
Y2809240D03*
X417350Y3041170D03*
Y2843050D03*
Y2698270D03*
X650900Y2715600D03*
X645850Y3160620D03*
X417350Y3094510D03*
X650240Y3386500D03*
X626900Y3458600D03*
X450400Y3504300D03*
X673000Y4143000D03*
X716760Y3913140D03*
X717760Y3872140D03*
X676760Y3913140D03*
X677760Y3872140D03*
X609600Y4165600D03*
X546100D03*
X622300Y4495800D03*
X558800D03*
X622300Y4559300D03*
X558800D03*
X431800Y4610100D03*
X371240Y4445760D03*
X723900Y4857800D03*
X673100D03*
Y4813000D03*
X723900D03*
X485760Y4971140D03*
X486580Y5026000D03*
X696000Y4954000D03*
X643000Y4945000D03*
X673100Y5156200D03*
X609600D03*
X495300Y5372100D03*
X508000Y5308600D03*
X410200Y5076200D03*
X381000Y5156200D03*
X600230Y5406870D03*
X660400Y5384800D03*
X517500Y6093700D03*
X424200D03*
X1040700Y236700D03*
X1033480Y315960D03*
X1084760Y168140D03*
X914400Y175260D03*
X812800D03*
X828040Y320040D03*
X891540Y632460D03*
X960120D03*
X1031240D03*
X1094740D03*
X989060Y490300D03*
X912860D03*
X834120D03*
X1036320Y452120D03*
X1033780Y383540D03*
X775700Y498500D03*
X807350Y629750D03*
X1137920Y821440D03*
X1046480Y822960D03*
X817880Y1499130D03*
X1040600Y1198000D03*
X764540Y1488440D03*
X1095600Y1210200D03*
X1130300Y1490500D03*
X1121000Y1727000D03*
X764540Y1739900D03*
X1121500Y1560300D03*
X843280Y2125980D03*
X1112520Y2555240D03*
X839000Y2538000D03*
X891630Y2673840D03*
X968170Y2676000D03*
X802510Y2677300D03*
X805000Y2612000D03*
X1042980Y2898220D03*
X976250Y2861450D03*
X1100900Y2823600D03*
X1043300Y2695100D03*
X980440Y3025140D03*
X899240Y3313040D03*
X914400Y3213100D03*
X939800Y3263900D03*
X1051100Y3274600D03*
X883000Y3262000D03*
X927100Y3619500D03*
X920750Y3872770D03*
X1060000Y4231000D03*
X944000D03*
X830000Y4202000D03*
X978200Y4482800D03*
X970000Y4379000D03*
X920000Y4354000D03*
X1068000Y4286000D03*
X955000Y4576000D03*
X951000Y4630000D03*
X936000Y4517000D03*
X938000Y4447000D03*
X838000Y4913000D03*
X840000Y4859000D03*
X946000Y4813000D03*
X972000Y4749000D03*
X1011000Y4933000D03*
X958000Y4691000D03*
X1130300Y5067300D03*
X977900D03*
X1028700D03*
X831000Y5157000D03*
X888000Y5285000D03*
X831000Y5259000D03*
X1117600Y5473700D03*
X997400Y5486790D03*
X956900Y5486400D03*
X1203900Y309600D03*
X1201700Y372600D03*
X1203960Y439420D03*
X1351280Y584200D03*
X1480820D03*
X1417320D03*
X1287780D03*
X1221740D03*
X1203960Y502920D03*
X1160780Y622300D03*
X1437640Y995680D03*
X1249680Y955040D03*
X1241830Y858520D03*
X1193800Y957580D03*
X1468800Y1172700D03*
X1527300Y1174300D03*
X1413670Y1182750D03*
X1483900Y1460100D03*
X1380000Y1488100D03*
X1214100Y1482600D03*
X1296200Y1487300D03*
X1451610Y1742490D03*
X1237000Y1772000D03*
X1277000Y1732000D03*
X1429770Y1517330D03*
X1209700Y1552400D03*
X1287500Y1551000D03*
X1365200Y1550100D03*
X1398270Y1742410D03*
X1159180Y2206490D03*
X1202540Y2152220D03*
X1275080Y2679700D03*
X1339100Y2843400D03*
X1200500Y2832700D03*
X1293330Y3332190D03*
X1346200Y3339260D03*
X1366670Y3278480D03*
X1410250Y3238500D03*
X1417370Y3182120D03*
X1409700Y3314700D03*
X1218870Y3611350D03*
X1257000Y3613000D03*
X1144000Y3810000D03*
X1193800Y3797300D03*
X1182000Y3938000D03*
X1393760Y3929140D03*
X1515760Y4093140D03*
X1312000Y3988000D03*
X1183000Y3993580D03*
X1148240Y4094640D03*
X1403000Y4088000D03*
X1367000Y4008000D03*
X1185000Y4160000D03*
X1532000Y3925000D03*
X1511000Y3978000D03*
X1425260Y3880000D03*
X1452260Y3938290D03*
X1471600Y4219780D03*
X1240000Y4174000D03*
X1278810Y4210960D03*
X1412000Y4161000D03*
X1466000Y4156000D03*
X1199760Y4211920D03*
X1313000Y4169000D03*
X1366000Y4190000D03*
X1143000Y4521200D03*
X1371600Y4517800D03*
X1244600Y4521200D03*
X1242300Y4389200D03*
X1371600Y4394200D03*
X1498600Y4521200D03*
X1500900Y4394200D03*
X1237300Y4648200D03*
X1371600D03*
X1505900D03*
X1473200Y5016500D03*
X1311600Y5025700D03*
X1224100Y4860300D03*
X1221900Y4760600D03*
X1308100Y4864100D03*
Y4762500D03*
X1143000D03*
Y4864100D03*
X1516600Y4860300D03*
X1422400Y4762500D03*
Y4864100D03*
X1516600Y4760300D03*
X1397000Y5270500D03*
X1320800D03*
X1181100Y5067300D03*
X1262000Y5314000D03*
X1499760Y5321140D03*
X1320800Y5321300D03*
X1154800Y5327600D03*
X1208800Y5331800D03*
X1381760Y5479140D03*
X1423760Y5478140D03*
X1270000Y5486400D03*
X1182290Y5500290D03*
X1855900Y282500D03*
X1897380Y175260D03*
X1854200Y490220D03*
X1676400Y584200D03*
X1737360D03*
X1854200Y558800D03*
X1546860Y584200D03*
X1610360D03*
X1800860D03*
X1854200Y416560D03*
Y342900D03*
X1741400Y724600D03*
X1577340Y916940D03*
X1576320Y861060D03*
X1902360Y899400D03*
X1573200Y1016000D03*
X1767180Y857880D03*
X1874600Y856170D03*
X1546860Y1456110D03*
X1768090Y1204340D03*
X1829130Y1473710D03*
X1874750Y1203120D03*
X1578860Y1562600D03*
X1536700Y1740790D03*
X1620710Y1843850D03*
X1766760Y1782140D03*
X1785000Y2031000D03*
X1729000Y1968000D03*
X1842000Y2033000D03*
X1923000Y1974000D03*
X1925000Y2030000D03*
X1630680Y3014980D03*
X1633000Y3075000D03*
X1875000Y3077000D03*
X1770300Y3312060D03*
X1629500Y3258820D03*
X1884680Y3220720D03*
X1719500Y3312800D03*
X1541760Y4123140D03*
X1546330Y4178570D03*
X1599000Y4187000D03*
X1700000Y4250000D03*
X1648590Y3942050D03*
X1683980Y3981960D03*
X1809500Y4003500D03*
X1759000Y3943000D03*
X1895270Y3980480D03*
X1905670Y3865500D03*
X1897000Y3924000D03*
X1786000Y4466000D03*
X1600200Y4521200D03*
X1680000Y4343000D03*
X1787000Y4561000D03*
X1765000Y4299000D03*
X1826000Y4405000D03*
X1839000Y4457000D03*
X1844760Y4802140D03*
X1838760Y4843140D03*
X1821000Y4747000D03*
X1612900Y4762500D03*
Y4864100D03*
X1774000Y4669000D03*
X1773000Y4723000D03*
X1917000Y4917000D03*
X1919000Y4679000D03*
X1824000Y4998000D03*
X1750000Y4843000D03*
X1786760Y4803140D03*
X1826000Y5346000D03*
X1689100Y5067300D03*
X1731000Y5067000D03*
X1819000Y5098000D03*
X1536700Y5067300D03*
X1583000Y5067000D03*
X1753000Y5263000D03*
X1842000Y5049000D03*
X1879600Y5499100D03*
X1785860Y5716160D03*
X1886680Y5779530D03*
X2003270Y322150D03*
X2057000Y188000D03*
X2107700Y190000D03*
X2006600D03*
X2189000Y160000D03*
X2291000Y698930D03*
X2202500Y365500D03*
X1968500Y406400D03*
X2236000Y655700D03*
X2155000Y641000D03*
X2199900Y696800D03*
X1993900Y647700D03*
X2217420Y1071880D03*
Y932180D03*
X1987760Y1009140D03*
X1957760Y988140D03*
X1958760Y1029140D03*
X2034700Y812100D03*
X1984000Y1085000D03*
X1949000Y1105000D03*
X2112010Y1458650D03*
X2217420Y1211580D03*
X1938150Y1188850D03*
X1976000Y1151100D03*
X2059940Y1478630D03*
X2006000Y1477800D03*
X2097560Y1811020D03*
X1981200Y1740790D03*
X2204720Y1810000D03*
X2151380Y1811020D03*
X2048800Y2264000D03*
X2098570Y2291120D03*
X1946020Y2096770D03*
X2152650Y2172970D03*
Y2012950D03*
X1998000Y2264000D03*
X2149800Y2385120D03*
X2158000Y2556510D03*
X2077000Y2348000D03*
X2174820Y2436180D03*
X1940600Y2400400D03*
X1983000Y2999000D03*
X1983790Y3065780D03*
X1952720Y2730630D03*
X2313000Y3240000D03*
X1978660Y3147060D03*
X2231000Y3227000D03*
X2184400Y3289300D03*
X2269700Y3861500D03*
X2287380Y4076150D03*
X2047100Y3986700D03*
X2291610Y3995320D03*
X2040900Y4060300D03*
X2213240Y4070400D03*
X2039240Y4154820D03*
X2115700Y3933600D03*
X2129080Y4067100D03*
X2225200Y3898400D03*
X2286530Y4150230D03*
X2281100Y3926000D03*
X2006900Y4111700D03*
X1959000Y3875900D03*
X2014790Y3862820D03*
X2203020Y4146730D03*
X2119540Y4149890D03*
X2068120Y3864190D03*
X2236000Y3980000D03*
X2135000Y3987000D03*
X2136470Y4437030D03*
X2291610Y4555310D03*
X2206000Y4634000D03*
X2287000Y4630000D03*
X2207570Y4550740D03*
X2128850Y4549500D03*
X2032500Y4435400D03*
X2205100Y4437500D03*
X2263900Y4412900D03*
X2047180Y4873670D03*
X2044700Y4838700D03*
X2156860Y5003000D03*
X2043000Y4699000D03*
X2049000Y4731000D03*
X1970000Y4924000D03*
X1975000Y4649000D03*
X2077260Y4930140D03*
X2070100Y5118100D03*
Y5168900D03*
X2195930Y5381620D03*
X2143000Y5375000D03*
X2163000Y5059000D03*
X2225000Y5271000D03*
X2235000Y5218000D03*
X1930000Y5393520D03*
X2180200Y5588200D03*
X2101000Y5750000D03*
X1932000Y5487000D03*
X2127000Y5659000D03*
X2202800Y5787320D03*
X2197100Y5638800D03*
X1936000Y5759000D03*
X2190270Y5477510D03*
X2248000Y5553000D03*
X2120050Y5436370D03*
X2065000Y5455000D03*
X2098000Y5808000D03*
X1952000Y5706000D03*
X1931000Y5654000D03*
X2011540Y5876350D03*
X1968500Y5969000D03*
X2067000Y5861000D03*
X2504300Y174300D03*
X2681400Y182100D03*
X2618700Y174700D03*
X2439800Y449700D03*
X2603400Y467600D03*
X2417000Y656000D03*
X2499000Y462600D03*
X2357120Y1071880D03*
X2496820D03*
X2357120Y932180D03*
X2496820D03*
X2641600Y736600D03*
X2555000Y848800D03*
X2359660Y1488440D03*
X2692400Y1369060D03*
X2633500Y1394230D03*
X2357120Y1211580D03*
X2500780Y1206960D03*
X2565400Y1884680D03*
X2567940Y1680620D03*
X2375410Y1809370D03*
X2509520Y1884680D03*
X2489200Y2062660D03*
X2439800Y2249900D03*
X2440200Y2188400D03*
X2438100Y2309300D03*
X2518410Y2595550D03*
X2440940Y2544600D03*
X2556900Y2787700D03*
X2572330Y3048790D03*
X2359700Y3053500D03*
X2357300Y2999900D03*
X2532400Y3317200D03*
X2513600Y3457900D03*
X2552700Y3172460D03*
X2570600Y3119000D03*
X2565400Y3721100D03*
X2369820Y4073520D03*
X2638200Y3977100D03*
X2596200Y4236900D03*
X2371600Y3995320D03*
X2448300Y4151200D03*
X2351760Y3864420D03*
X2439350Y3876230D03*
X2452700Y4070900D03*
X2619500Y4081300D03*
X2482200Y3927800D03*
X2611600Y4155310D03*
X2492630Y3873570D03*
X2647780Y4251290D03*
X2371600Y4155310D03*
Y4555310D03*
X2685630Y4554360D03*
X2525000Y4629000D03*
X2368600Y4467400D03*
X2454500Y4549370D03*
X2614900Y4469400D03*
X2533770Y4549960D03*
X2646800Y4304630D03*
X2527370Y4386620D03*
X2580630Y4383600D03*
X2439190Y4331490D03*
X2367000Y4635000D03*
X2644290Y4684490D03*
X2585260Y4904740D03*
X2559860Y4930140D03*
X2438000Y4718000D03*
X2425700Y4953000D03*
X2560000Y5319500D03*
X2540340Y5116340D03*
X2670000Y5141000D03*
X2654300Y5321300D03*
X2623000Y5484790D03*
X2582500Y5484400D03*
X2850680Y513290D03*
X2928620Y617220D03*
X2987040D03*
X3045460D03*
X2730140Y891870D03*
X2727960Y996650D03*
X2907630Y978620D03*
X2730600Y838530D03*
X2937000Y735000D03*
X3072000Y848000D03*
X2898140Y922020D03*
X2745740Y1259840D03*
X2908300Y1371600D03*
X2755900Y1369060D03*
X2821160Y1125780D03*
X2800830Y1720620D03*
X3025000Y1852000D03*
X3055000Y1613000D03*
X2921480Y1552420D03*
X2974340Y1836420D03*
X2805910Y1840000D03*
X2806700Y2115820D03*
X2978630Y2007390D03*
X2799080Y1927860D03*
X2920000Y2472100D03*
X2731900Y3466400D03*
X2736760Y3330140D03*
X2952000Y3302500D03*
X2788510Y3080610D03*
X3089160Y3828020D03*
X2978600Y3790000D03*
X3036800Y3853900D03*
X2799750Y3775960D03*
X2853020Y3778800D03*
X2720900Y3649200D03*
X2908300Y3556000D03*
X2946730Y3595370D03*
X3004160Y3935310D03*
X2766060Y4074160D03*
X2762700Y4147300D03*
X3012530Y3987990D03*
X2837900Y3959800D03*
X2846500Y4146600D03*
X3005540Y4066100D03*
X3007740Y4152620D03*
X3010220Y4225280D03*
X2851610Y4555310D03*
X2929280Y4632960D03*
X2767160Y4550600D03*
X2801100Y4324900D03*
X2846700Y4630420D03*
X3083030Y4635300D03*
X3022090Y4464370D03*
X3086680Y4551680D03*
X2926300Y4549200D03*
X2904500Y4390400D03*
X2815850Y4455090D03*
X2766320Y4634620D03*
X2766420Y4475150D03*
X2902140Y4450240D03*
X2830070Y4902000D03*
X2773000Y5031000D03*
X2896000Y4882000D03*
X2897000Y4969000D03*
X2765760Y4892140D03*
X2767330Y4851400D03*
X3007000Y5066000D03*
X2966000D03*
X2730000Y5215000D03*
X2732500Y5342000D03*
X2786000Y5219000D03*
X2787000Y5174000D03*
X2941000Y5339000D03*
X2833000Y5345000D03*
X2780900Y5272900D03*
X2887000Y5339000D03*
X3015760Y5477140D03*
X3057760Y5476140D03*
X2907890Y5486810D03*
X2844800Y5486400D03*
X2757910Y5484960D03*
X3106000Y736000D03*
X3111000Y793000D03*
X3421840Y1457900D03*
X3431790Y1215950D03*
X3239000Y1845000D03*
X3194530Y1844830D03*
X3246300Y1541200D03*
X3300750Y1544350D03*
X3304560Y2109460D03*
X3210850Y2168250D03*
X3415000Y2223000D03*
X3403600Y2159000D03*
X3249500Y2634970D03*
X3262810Y2394860D03*
X3258630Y2501470D03*
X3255830Y2554740D03*
X3260340Y2448150D03*
X3237590Y3034040D03*
X3240890Y2980800D03*
X3249170Y2688310D03*
X3249200Y2741850D03*
X3245740Y2873910D03*
X3242720Y2927490D03*
X3247590Y2795170D03*
X3228000Y3418900D03*
X3247880Y3250360D03*
X3235620Y3343280D03*
X3211700Y3295600D03*
X3222580Y3194720D03*
X3267600Y3166100D03*
X3280000Y3840000D03*
X3175220Y3802790D03*
X3282200Y3757300D03*
X3140600Y3594900D03*
X3154080Y3654730D03*
X3293430Y3978360D03*
X3125960Y3980560D03*
X3208500Y3987000D03*
X3168000Y4149700D03*
X3249400Y4156000D03*
X3247120Y3950200D03*
X3299460Y4242650D03*
X3165200Y4071400D03*
X3248960Y4078200D03*
X3320140Y4152670D03*
X3184470Y3863560D03*
X3384000Y4555000D03*
X3251610Y4635300D03*
X3171600D03*
X3334000Y4532000D03*
X3325540Y4470540D03*
X3155300Y4459500D03*
X3163300Y4548200D03*
X3316000Y4617000D03*
X3264900Y4400910D03*
X3478000Y4701000D03*
X3470000Y4960000D03*
X3434760Y5009140D03*
X3130000Y5340000D03*
X3390900Y5372100D03*
X3454400Y5283200D03*
X3691900Y174400D03*
X3877800Y381200D03*
X3737400D03*
X3883660Y635000D03*
X3650600Y583600D03*
X3811800Y634000D03*
X3881630Y896620D03*
X3756660Y889000D03*
X3882010Y1399540D03*
X3759200Y1394460D03*
X3882010Y1145540D03*
X3761740Y1143000D03*
X3656000Y1633000D03*
X3882010Y1651000D03*
X3759200Y1648460D03*
X3610030Y2193850D03*
X3627120Y1938020D03*
X3883660Y2161540D03*
X3759200Y2159000D03*
X3883660Y1905000D03*
X3756660D03*
X3505200Y2171700D03*
X3883660Y2677160D03*
X3761740Y2674620D03*
X3883660Y2420620D03*
X3754120Y2418080D03*
X3622960Y3404810D03*
X3501310Y3394000D03*
X3857000Y4180000D03*
X3861840Y4418350D03*
X3870950Y4472950D03*
X3571900Y4717500D03*
X3721470Y4963530D03*
X3659000Y4699000D03*
X3712110Y4898490D03*
X3739370Y4698000D03*
X3609760Y4968140D03*
X3857190Y4956600D03*
X3871200Y5578500D03*
Y5671800D03*
X3869600Y5765200D03*
X3868900Y6084000D03*
X3869600Y5981100D03*
X3868900Y5868100D03*
X3794100Y6081000D03*
X3700800D03*
X3607400Y6079400D03*
X3504500Y6078700D03*
G54D30*
X889000Y779600D03*
Y1074600D03*
G54D12*
X0Y1270000D03*
Y2540000D03*
Y3810000D03*
Y5080000D03*
X3556000Y1270000D03*
Y2540000D03*
Y3810000D03*
Y5080000D03*
G54D21*
X407980Y3684230D03*
Y3784250D03*
X698500Y3683790D03*
Y3783810D03*
X596900Y3683790D03*
Y3783810D03*
X501560Y3683790D03*
Y3783810D03*
X431800Y4445760D03*
Y4545840D03*
X381760Y4889500D03*
X481840D03*
X662860Y5014400D03*
X762940D03*
X1041400Y5561810D03*
Y5461790D03*
X914400Y5561810D03*
Y5461790D03*
X1277620Y1116840D03*
Y1016760D03*
X1625600Y1054890D03*
Y1154910D03*
X1902000Y4496890D03*
Y4596910D03*
X1845990Y4340000D03*
X1899300Y4876010D03*
Y4775990D03*
X1905000Y4966490D03*
Y5066510D03*
X1890960Y5332000D03*
X2166340Y301200D03*
X2066260D03*
X1981200Y4496590D03*
Y4596610D03*
X1946010Y4340000D03*
X1993900Y4966490D03*
X1981200Y4876010D03*
Y4775990D03*
X1993900Y5066510D03*
X1991040Y5332000D03*
X2540000Y5561810D03*
Y5461790D03*
X2667000Y5561810D03*
Y5461790D03*
X2971010Y1686230D03*
X2870990D03*
X3061490Y1790700D03*
X2863370Y2070100D03*
X2963390D03*
X2895600Y5029990D03*
Y5130010D03*
X3161510Y1790700D03*
X3402810Y4890750D03*
X3302790D03*
X3390900Y5423690D03*
Y5523710D03*
G54D40*
X1344700Y5339080D03*
X1409700D03*
X1474700D03*
Y5557520D03*
X1409700D03*
X1344700D03*
X2970300Y5351780D03*
X3035300D03*
X3100300D03*
Y5570220D03*
X3035300D03*
X2970300D03*
G54D13*
X304800Y5283200D03*
G54D31*
X747830Y1343130D03*
X787830D03*
X827810D03*
X867820D03*
X907820D03*
X947830D03*
X987830D03*
X1027810D03*
X1067820D03*
X1107820D03*
Y3498110D03*
X1067820D03*
X1027810D03*
X987830D03*
X947830D03*
X907820D03*
X867820D03*
X827810D03*
X787830D03*
X747830D03*
X1147830Y1343130D03*
X1187830D03*
X1227810D03*
X1267820D03*
X1307820D03*
X1347830D03*
X1387830D03*
X1427810D03*
X1467820D03*
X1507820D03*
Y3498110D03*
X1467820D03*
X1427810D03*
X1387830D03*
X1347830D03*
X1307820D03*
X1267820D03*
X1227810D03*
X1187830D03*
X1147830D03*
X1547830Y1343130D03*
X1587830D03*
X1627810D03*
X1667810D03*
X1707820D03*
X1747820D03*
X1787830D03*
X1827810D03*
X1867810D03*
Y3498110D03*
X1827810D03*
X1787830D03*
X1747820D03*
X1707820D03*
X1667810D03*
X1627810D03*
X1587830D03*
X1547830D03*
X1907820Y1343130D03*
X1947820D03*
X1987830D03*
X2027810D03*
X2067810D03*
X2107820D03*
X2147820D03*
X2187830D03*
X2227810D03*
X2267810D03*
Y3498110D03*
X2227810D03*
X2187830D03*
X2147820D03*
X2107820D03*
X2067810D03*
X2027810D03*
X1987830D03*
X1947820D03*
X1907820D03*
X2307820Y1343130D03*
X2347820D03*
X2387830D03*
X2427810D03*
X2467810D03*
Y3498110D03*
X2427810D03*
X2387830D03*
X2347820D03*
X2307820D03*
G54D22*
X743500Y4258000D03*
X678500D03*
X613500D03*
X548500D03*
Y4698000D03*
X613500D03*
X678500D03*
X743500D03*
G54D23*
X597920Y3937000D03*
X418080D03*
X1040380Y4483100D03*
X1220220D03*
X1522980Y4470400D03*
X1702820D03*
G54D14*
X195580Y5348200D03*
Y5283200D03*
Y5218200D03*
X414020D03*
Y5283200D03*
Y5348200D03*
G54D41*
X1943100Y551180D03*
Y728980D03*
X1822450Y5638800D03*
X1917700Y5867400D03*
X2120900Y551180D03*
Y728980D03*
X2012950Y5638800D03*
X2451100Y5054600D03*
X2628900D03*
G54D32*
X1143000Y2893060D03*
X1341120Y825500D03*
X1167740Y2563830D03*
X1191260Y2938780D03*
X1983640Y849140D03*
X1983760Y894140D03*
X2252000Y1503000D03*
X2310130Y3371850D03*
X2247900Y3373120D03*
X2621280Y1455420D03*
X2562860D03*
X2786380Y1082040D03*
X2730090Y1082270D03*
X2966720Y1376680D03*
X3024630Y1376630D03*
X3083560Y1376680D03*
X2921000Y1613200D03*
G54D50*
X3048000Y487710D03*
X2983000D03*
X2918000D03*
X3178000D03*
X3113000D03*
G54D60*
G01X888000Y5285000D02*
X882000D01*
X880580Y5283580D01*
X864420D01*
X835940Y5312050D01*
Y5328210D01*
X865720Y5358000D01*
X1148470D01*
X1161730Y5344740D01*
Y5334530D01*
X1154800Y5327600D01*
G01X831000Y5259000D02*
Y5282860D01*
X811810Y5302050D01*
Y5338210D01*
X830790Y5357200D01*
X855720Y5382130D01*
X1158470D01*
X1208800Y5331800D01*
G01X1495000Y3788000D02*
X1494360Y3788640D01*
Y3884640D01*
X1491000Y3888000D01*
Y3958000D01*
X1511000Y3978000D01*
G01X1425260Y3880000D02*
X1387500Y3842240D01*
Y3788000D01*
G01X1445000D02*
Y3817000D01*
X1464000Y3836000D01*
Y3916520D01*
X1452260Y3928260D01*
Y3938290D01*
G01X1495000Y3672000D02*
Y3634360D01*
X1547830Y3581530D01*
Y3498110D01*
G01X1387500Y3672000D02*
Y3632110D01*
X1420580Y3599030D01*
X1439580D01*
X1467820Y3570790D01*
Y3498110D01*
G01X1445000Y3672000D02*
Y3639450D01*
X1507820Y3576630D01*
Y3498110D01*
G01X1249000Y5394000D02*
Y5372000D01*
X1208800Y5331800D01*
G01X1785000Y2031000D02*
X1808000Y2008000D01*
Y1804870D01*
X2025800Y1587070D01*
X2088700D01*
X2186550Y1489220D01*
Y1432800D01*
X2191400Y1427950D01*
Y1346700D01*
X2187830Y1343130D01*
G01X1842000Y2033000D02*
X1832130Y2023130D01*
Y1814870D01*
X2035800Y1611200D01*
X2098700D01*
X2210680Y1499220D01*
Y1442800D01*
X2227810Y1425670D01*
Y1343130D01*
G01X1532000Y3925000D02*
Y3886260D01*
X1552500Y3865760D01*
Y3788000D01*
G01X1648590Y3942050D02*
X1651000Y3939640D01*
Y3911600D01*
X1617500Y3878100D01*
Y3788000D01*
G01X1725000D02*
Y3848010D01*
X1798430Y3921440D01*
Y3959780D01*
X1776470Y3981740D01*
X1753000D01*
X1752780Y3981960D01*
X1683980D01*
G01X1782500Y3837490D02*
Y3788000D01*
G01X1759000Y3943000D02*
X1718260D01*
X1675000Y3899740D01*
Y3858700D01*
G01X1905670Y3865500D02*
X1879190Y3839020D01*
Y3788390D01*
X1878700Y3787900D01*
G01X1552500Y3672000D02*
X1548900Y3668400D01*
Y3625370D01*
X1587830Y3586440D01*
Y3498110D01*
G01X1667810D02*
Y3579890D01*
X1617500Y3630200D01*
Y3672000D01*
G01X1725000D02*
Y3613000D01*
X1747820Y3590180D01*
Y3498110D01*
G01X1782500Y3672000D02*
Y3604360D01*
X1787830Y3599030D01*
Y3498110D01*
G01X1675000Y3672000D02*
Y3618690D01*
X1707820Y3585870D01*
Y3498110D01*
G01X1878700Y3671900D02*
Y3646850D01*
X1947820Y3577730D01*
Y3498110D01*
G01X2006600Y1155700D02*
X1980600D01*
X1976000Y1151100D01*
G01X1923000Y1974000D02*
X1934870Y1985870D01*
X1986000D01*
X2008000Y1963870D01*
Y1806750D01*
X2296790Y1517960D01*
Y1483990D01*
X2267810Y1455010D01*
Y1343130D01*
G01X2307820D02*
Y1460890D01*
X2320920Y1473990D01*
Y1527960D01*
X2032130Y1816750D01*
Y1874910D01*
G02X2049270Y1892050I17140J0D01*
G01X2055860D01*
G03Y1926340I0J17145D01*
G01X2049270D01*
G02X2032130Y1943480I0J17140D01*
G01Y1973870D01*
X1996000Y2010000D01*
X1945000D01*
X1925000Y2030000D01*
G01X2273700Y3787900D02*
Y3847500D01*
X2269700Y3851500D01*
Y3861500D01*
G01X2115700Y3933600D02*
X2110800Y3928700D01*
Y3831160D01*
X2108700Y3829060D01*
Y3787900D01*
G01X2216200D02*
Y3850660D01*
X2225200Y3859660D01*
Y3898400D01*
G01X2177640Y3914760D02*
X2166200Y3903320D01*
G01Y3856300D02*
Y3787900D01*
G01X1936200D02*
Y3825980D01*
X1955220Y3845000D01*
Y3860260D01*
X1959000Y3864040D01*
Y3875900D01*
G01X1986200Y3787900D02*
Y3834070D01*
X2014790Y3862660D01*
Y3862820D01*
G01X2043700Y3787900D02*
Y3834110D01*
X2068120Y3858530D01*
Y3864190D01*
G01X2273700Y3671900D02*
Y3504000D01*
X2267810Y3498110D01*
G01X2108700Y3671900D02*
X2108200Y3671400D01*
Y3620000D01*
X2147820Y3580380D01*
Y3498110D01*
G01X2216200Y3671900D02*
Y3603310D01*
X2227810Y3591700D01*
Y3498110D01*
G01X2166200Y3671900D02*
Y3606910D01*
X2187830Y3585280D01*
Y3498110D01*
G01X1936200Y3671900D02*
Y3639350D01*
X1987830Y3587720D01*
Y3498110D01*
G01X1986200Y3671900D02*
Y3666810D01*
X1986530Y3666480D01*
Y3633930D01*
X2019580Y3600880D01*
Y3506340D01*
X2027810Y3498110D01*
G01X2043700Y3671900D02*
Y3626100D01*
X2067810Y3601990D01*
Y3498110D01*
G01X2087320Y4191030D02*
X2075450D01*
X2039240Y4154820D01*
G01X1943100Y3982240D02*
Y4047900D01*
X2006900Y4111700D01*
G01X2087320Y4511010D02*
X2093000Y4505330D01*
Y4452510D01*
X2075890Y4435400D01*
X2032500D01*
G01X2247320Y4511010D02*
Y4479720D01*
X2205100Y4437500D01*
G01X2327330Y4511010D02*
X2302730D01*
X2291300Y4499580D01*
Y4440300D01*
X2263900Y4412900D01*
G01X2338700Y3787900D02*
Y3829300D01*
X2351760Y3842360D01*
Y3864420D01*
G01X2396200Y3787900D02*
Y3833080D01*
X2439350Y3876230D01*
G01X2503700Y3787900D02*
Y3829850D01*
X2531370Y3857520D01*
Y3893830D01*
X2497400Y3927800D01*
X2482200D01*
G01X2446200Y3787900D02*
Y3827810D01*
X2490470Y3872080D01*
X2491140D01*
X2492630Y3873570D01*
G01X2338700Y3671900D02*
Y3611510D01*
X2307820Y3580630D01*
Y3498110D01*
G01X2396200Y3671900D02*
Y3624100D01*
X2347820Y3575720D01*
Y3498110D01*
G01X2503700Y3671900D02*
Y3609300D01*
X2467810Y3573410D01*
Y3498110D01*
G01X2446200Y3671900D02*
Y3629190D01*
X2387830Y3570820D01*
Y3498110D01*
G01X2452700Y4070900D02*
X2453640Y4071840D01*
Y4077340D01*
X2487320Y4111020D01*
G01X2830070Y4902000D02*
Y4922660D01*
X2821990Y4930740D01*
Y5044560D01*
X2718430Y5148120D01*
Y5150450D01*
X2709870Y5159010D01*
Y5163130D01*
X2708740Y5164260D01*
Y5170160D01*
X2650800Y5228100D01*
G01X2628900Y5054600D02*
Y5100340D01*
X2500540Y5228700D01*
X2498700D01*
G01X2600100Y5228400D02*
X2642150Y5186350D01*
G01X3048000Y487710D02*
X3067860Y507570D01*
Y576990D01*
X3191000Y700130D01*
X3322000D01*
X3438450Y816580D01*
Y997410D01*
X3415570Y1020290D01*
X3378280D01*
X3370990Y1013000D01*
Y1004010D01*
X3381200Y993800D01*
Y928800D01*
G01X2860040Y1609880D02*
X2829560Y1579400D01*
Y1528290D01*
X2842260Y1515590D01*
X3004790D01*
X3017490Y1528290D01*
Y1595720D01*
X3016260Y1596950D01*
Y1629050D01*
X3017490Y1630280D01*
Y1685110D01*
X3071900Y1739520D01*
X3200520D01*
X3319900Y1858900D01*
Y2072710D01*
X3341390Y2094200D01*
Y2274890D01*
X3418300Y2351800D01*
Y3218840D01*
X3395850Y3241290D01*
Y3490190D01*
X3418300Y3512640D01*
Y3718170D01*
X3510130Y3810000D01*
X3556000D01*
G01X3028100Y2222900D02*
X2808870D01*
X2791160Y2240610D01*
X2685310D01*
G01X3028100Y2165400D02*
X2821460D01*
X2786230Y2200630D01*
X2685310D01*
G01X3028100Y2648000D02*
X2921820D01*
X2802690Y2528870D01*
X2790070D01*
X2781820Y2520620D01*
X2685310D01*
G01X3028100Y2406700D02*
X2979700D01*
X2933630Y2360630D01*
X2685310D01*
G01X3028100Y2514200D02*
X2966180D01*
X2965590Y2513610D01*
X2877550D01*
X2804550Y2440610D01*
X2685310D01*
G01X3028100Y2571700D02*
X2890720D01*
X2799630Y2480610D01*
X2685310D01*
G01X3028100Y2464200D02*
X2967240D01*
X2903670Y2400630D01*
X2685310D01*
G01X3028100Y2330400D02*
X2965540D01*
X2955760Y2320620D01*
X2685310D01*
G01X3028100Y2705500D02*
X2934410D01*
X2789530Y2560620D01*
X2685310D01*
G01X3028100Y2755500D02*
X3015280D01*
X3014640Y2754860D01*
X2938860D01*
X2824610Y2640610D01*
X2685310D01*
G01X3028100Y2272900D02*
X2804680D01*
X2804580Y2273000D01*
X2794490D01*
X2786870Y2280620D01*
X2685310D01*
G01Y3000630D02*
X2808230D01*
X2859000Y3051400D01*
Y3098660D01*
X2909880Y3149540D01*
X2922340Y3164770D01*
X2962940Y3205370D01*
Y3205450D01*
X2966180Y3208690D01*
Y3208730D01*
X2995560Y3238100D01*
X3028100D01*
G01Y3054300D02*
X2965680D01*
X2954250Y3042870D01*
Y3005050D01*
X2789810Y2840610D01*
X2685310D01*
G01X3028100Y2996800D02*
X2990910D01*
X2806180Y2812070D01*
Y2812060D01*
X2794750Y2800630D01*
X2685310D01*
G01Y3040610D02*
X2803300D01*
X2827250Y3064560D01*
Y3122960D01*
X2999890Y3295600D01*
X3028100D01*
G01Y3188100D02*
X2990580D01*
X2890750Y3088270D01*
Y3038240D01*
X2773130Y2920620D01*
X2685310D01*
G01X3028100Y3130600D02*
X2977990D01*
X2922500Y3075110D01*
Y3018210D01*
X2784900Y2880610D01*
X2685310D01*
G01X3028100Y2889300D02*
X2975300D01*
X2806620Y2720620D01*
X2685310D01*
G01X3028100Y2946800D02*
X2985820D01*
X2837930Y2798910D01*
Y2798900D01*
X2799650Y2760620D01*
X2685310D01*
G01X3028100Y2813000D02*
X2946910D01*
X2814520Y2680610D01*
X2685310D01*
G01X3028100Y3479400D02*
X2920600D01*
X2878100Y3436900D01*
Y3266100D01*
X2868850Y3256850D01*
G01X3028100Y3371900D02*
X2972500D01*
G01X3028100Y3429400D02*
X2930100D01*
X2913260Y3412560D01*
Y3264280D01*
X2788370Y3120620D01*
X2685310D01*
G01X3028100Y3536900D02*
X2943990D01*
X2924350Y3517260D01*
X2924330D01*
X2853970Y3446900D01*
Y3290770D01*
X2763830Y3200630D01*
X2685310D01*
G01X3144100Y3536900D02*
X3196120Y3588920D01*
Y3672060D01*
X3097180Y3771000D01*
X3060590D01*
X2949090Y3882500D01*
X2842420D01*
X2789060Y3935860D01*
Y4012780D01*
X2807310Y4031030D01*
G01X3022090Y4464370D02*
Y4485790D01*
X3047310Y4511010D01*
G01X2766420Y4475150D02*
X2763190D01*
X2727320Y4511010D01*
G01X2902140Y4450240D02*
X2875300Y4477080D01*
Y4498990D01*
X2887320Y4511010D01*
G01X2730000Y5215000D02*
Y5200100D01*
X2734000Y5196100D01*
Y5169010D01*
X2742560Y5160450D01*
Y5158120D01*
X2827580Y5073100D01*
X2829910D01*
X2846120Y5056890D01*
Y4940740D01*
X2868600Y4918260D01*
Y4909400D01*
X2896000Y4882000D01*
G01X2807310Y4671010D02*
X2802710D01*
X2766320Y4634620D01*
G01X2701800Y5228300D02*
X2716700D01*
X2730000Y5215000D01*
G01X3092000Y508710D02*
Y541000D01*
X3091990D01*
G01X3092000Y508710D02*
X3113000Y487710D01*
G01X3091990Y541000D02*
Y508720D01*
X3092000Y508710D01*
G01X3091990Y541000D02*
Y566990D01*
X3201000Y676000D01*
X3332000D01*
X3462580Y806580D01*
Y1007410D01*
X3425570Y1044420D01*
X3368280D01*
X3346860Y1023000D01*
Y1004010D01*
X3331200Y988350D01*
Y928800D01*
G01X3144100Y2222900D02*
X3244490D01*
X3386550Y2364960D01*
Y3205680D01*
X3364100Y3228130D01*
Y3503350D01*
X3386550Y3525800D01*
Y3731330D01*
X3451000Y3795780D01*
Y4170620D01*
X3451010Y4196930D01*
Y4287100D01*
X3248900Y4489210D01*
Y4549430D01*
X3207310Y4591020D01*
G01X3144100Y2648000D02*
X3199300D01*
X3212030Y2635270D01*
X3236530D01*
X3236830Y2634970D01*
X3249500D01*
G01X3144100Y2406700D02*
X3197500D01*
X3209340Y2394860D01*
X3262810D01*
G01X3144100Y2571700D02*
X3190200D01*
X3207320Y2554580D01*
X3255670D01*
X3255830Y2554740D01*
G01X3144100Y2464200D02*
X3194300D01*
X3210350Y2448150D01*
X3260340D01*
G01X3144100Y2330400D02*
X3253140D01*
X3323050Y2400310D01*
Y3179360D01*
X3300600Y3201810D01*
Y3529670D01*
X3323050Y3552120D01*
Y3757650D01*
X3387500Y3822100D01*
Y4170640D01*
X3387510Y4196950D01*
Y4245320D01*
X3322790Y4310040D01*
X3300980D01*
X3207310Y4403710D01*
Y4511010D01*
G01X3144100Y2272900D02*
X3249580D01*
X3354800Y2378120D01*
Y3192520D01*
X3332350Y3214970D01*
Y3516510D01*
X3354800Y3538960D01*
Y3744490D01*
X3419250Y3808940D01*
Y4170630D01*
X3419260Y4196940D01*
Y4247700D01*
X3336040Y4330920D01*
X3334890D01*
X3264900Y4400910D01*
G01X3144100Y3054300D02*
X3217330D01*
X3237590Y3034040D01*
G01X3144100Y2996800D02*
X3194300D01*
X3210300Y2980800D01*
X3240890D01*
G01X3144100Y2705500D02*
X3148800Y2700800D01*
X3202100D01*
X3214310Y2688590D01*
X3245110D01*
X3245390Y2688310D01*
X3249170D01*
G01X3144100Y2755500D02*
X3144300Y2755300D01*
X3191300D01*
X3204750Y2741850D01*
X3249200D01*
G01X3144100Y2889300D02*
X3190800D01*
X3206200Y2873900D01*
X3245730D01*
X3245740Y2873910D01*
G01X3144100Y2946800D02*
X3192700D01*
X3212010Y2927490D01*
X3242720D01*
G01X3144100Y2813000D02*
X3195300D01*
X3213140Y2795160D01*
X3247580D01*
X3247590Y2795170D01*
G01X3144100Y3238100D02*
X3173800D01*
X3177300Y3241600D01*
X3239120D01*
X3247880Y3250360D01*
G01X3144100Y3371900D02*
X3195800D01*
X3224420Y3343280D01*
X3235620D01*
G01X3144100Y3295600D02*
X3211700D01*
G01X3144100Y3188100D02*
X3215960D01*
X3222580Y3194720D01*
G01X3144100Y3130600D02*
X3232100D01*
X3267600Y3166100D01*
G01X3144100Y3429400D02*
X3180850D01*
X3195290Y3443840D01*
X3195530D01*
X3266940Y3515250D01*
Y3543620D01*
X3289390Y3566070D01*
Y3694050D01*
X3180670Y3802770D01*
X3175240D01*
X3175220Y3802790D01*
G01X3089160Y3828020D02*
X3092510D01*
X3231680Y3688850D01*
Y3558650D01*
X3231380Y3558350D01*
Y3529980D01*
X3180800Y3479400D01*
X3144100D01*
G01X3248960Y4078200D02*
X3248200D01*
X3247600Y4078800D01*
X3239100D01*
X3207310Y4110590D01*
Y4111020D01*
G01X3325540Y4470540D02*
X3325100Y4470980D01*
Y4473230D01*
X3287320Y4511010D01*
G01X3163300Y4548200D02*
Y4555040D01*
X3127320Y4591020D01*
G54D51*
X3028100Y2272900D03*
Y2222900D03*
Y2514200D03*
Y2464200D03*
Y2996800D03*
Y2946800D03*
Y2755500D03*
Y2705500D03*
Y3429400D03*
Y3238100D03*
Y3188100D03*
Y3479400D03*
X3144100Y2222900D03*
Y2272900D03*
Y2464200D03*
Y2514200D03*
Y2946800D03*
Y2996800D03*
Y2705500D03*
Y2755500D03*
Y3429400D03*
Y3188100D03*
Y3238100D03*
Y3479400D03*
G54D15*
X254810Y5753610D03*
G54D33*
X1003300Y3730750D03*
Y3990850D03*
G54D24*
X646000Y4478000D03*
G54D42*
X2006600Y1155700D03*
X2737660Y4968240D03*
G54D70*
G01X738990Y927100D02*
X731900D01*
G54D61*
G01X254000Y762000D02*
X368300D01*
X419100Y812800D01*
Y1161520D01*
X519960Y1262380D01*
X642400D01*
X701480Y1203300D01*
X798790D01*
X827810Y1232320D01*
Y1343130D01*
G01X747830D02*
Y1275750D01*
X735130Y1263050D01*
X714210D01*
X664080Y1313180D01*
X498880D01*
X368300Y1182600D01*
Y1054100D01*
X330200Y1016000D01*
X254000D01*
G01X787830Y1343130D02*
Y1241400D01*
X775130Y1228700D01*
X712020D01*
X652940Y1287780D01*
X509420D01*
X393700Y1172060D01*
Y947420D01*
X342900Y896620D01*
X119380D01*
X0Y1016000D01*
G01X530330Y1640610D02*
X406550D01*
X353700Y1587760D01*
Y1443360D01*
X309880Y1399540D01*
X124460D01*
X0Y1524000D01*
G01Y1270000D02*
X101600Y1168400D01*
X318160D01*
X404500Y1254740D01*
Y1536090D01*
X429040Y1560630D01*
X530330D01*
G01X254000Y1270000D02*
X342900D01*
X379100Y1306200D01*
Y1568300D01*
X411430Y1600630D01*
X530330D01*
G01Y1800630D02*
X366670D01*
X259760Y1907540D01*
X124460D01*
X0Y2032000D01*
G01X530330Y1680620D02*
X410620D01*
X254000Y1524000D01*
G01X530330Y1720620D02*
X392200D01*
X322580Y1651000D01*
X127000D01*
X0Y1778000D01*
G01X530330Y1760630D02*
X271370D01*
X254000Y1778000D01*
G01X530330Y1960630D02*
X456740D01*
X430200Y1934080D01*
X383320D01*
X348060Y1969340D01*
Y2070960D01*
X254000Y2165020D01*
Y2286000D01*
G01X530330Y1840610D02*
X367690D01*
X254000Y1954300D01*
Y2032000D01*
G01X695700Y609800D02*
X679500Y626000D01*
X654700D01*
G01X538000Y1094740D02*
X599550D01*
X605500Y1088790D01*
G01X538000Y1155700D02*
X629490D01*
X665480Y1119710D01*
Y1074570D01*
G01X538000Y1033780D02*
X604190D01*
X605540Y1032430D01*
G01X538000Y972820D02*
X600760D01*
X606540Y978600D01*
G01X607060Y1447800D02*
X607960Y1448700D01*
X851720D01*
X867820Y1432600D01*
Y1343130D01*
G01X987830D02*
Y1466470D01*
X973230Y1481070D01*
Y1482290D01*
X891620Y1563900D01*
X784120D01*
X711200Y1490980D01*
G01X530330Y1880620D02*
X419890D01*
X414810Y1885700D01*
G01X530330Y2040610D02*
X428780D01*
X414830Y2026670D01*
G01X530330Y2080620D02*
X415390D01*
X414780Y2080010D01*
G01X1237000Y1772000D02*
X1207000Y1802000D01*
Y1831300D01*
X1194300Y1844000D01*
X891830D01*
X633980Y2101850D01*
X625940D01*
X607170Y2120620D01*
X530330D01*
G01D02*
X418110D01*
X378460Y2160270D01*
G01X530330Y2240610D02*
X456840D01*
X445900Y2251560D01*
X445800D01*
X428780Y2268580D01*
Y2268680D01*
X411450Y2286000D01*
G01X1277000Y1732000D02*
Y1797230D01*
X1194850Y1879380D01*
X892380D01*
X644510Y2127250D01*
X636470D01*
X603090Y2160630D01*
X530330D01*
G01D02*
X455570D01*
X416560Y2199640D01*
G01X530330Y2000630D02*
X455300D01*
X428120Y1973450D01*
X411100D01*
G01X530330Y2320620D02*
X1045050D01*
X1159180Y2206490D01*
G01X530330Y2400630D02*
X418630D01*
X411000Y2393000D01*
G01X1112520Y2555240D02*
X1057910Y2500630D01*
X755310D01*
X748310Y2507630D01*
X694360D01*
X686740Y2515250D01*
X667740D01*
X667120Y2515870D01*
X630620D01*
X625870Y2520620D01*
X530330D01*
G01Y2560620D02*
X640460D01*
X645850Y2555240D01*
G01X530330Y2600630D02*
X632870D01*
X643360Y2611120D01*
G01X530330Y2280620D02*
X1024080D01*
X1152480Y2152220D01*
X1202540D01*
G01X805000Y2612000D02*
X744000D01*
X705510Y2650490D01*
X627050D01*
X617170Y2640610D01*
X530330D01*
G01Y2440610D02*
X446390D01*
X408000Y2479000D01*
G01X530330Y2440610D02*
X650020D01*
X654120Y2436510D01*
X686740D01*
X690840Y2440610D01*
X725510D01*
X736610Y2429510D01*
X1134110D01*
X1231900Y2527300D01*
Y2699460D01*
X1277040Y2744600D01*
X1938750D01*
X1952720Y2730630D01*
G01X530330Y3040610D02*
X657960D01*
X916990Y2781580D01*
X1115770D01*
X1163670Y2829480D01*
Y2849560D01*
X1183640Y2869530D01*
X1312970D01*
X1339100Y2843400D01*
G01X976250Y2861450D02*
X869450D01*
X650290Y3080610D01*
X530330D01*
G01X891630Y2673840D02*
X889800Y2675670D01*
X852330D01*
X841880Y2686120D01*
Y2693610D01*
X818820Y2716670D01*
X811330D01*
X679390Y2848610D01*
X629540D01*
X621540Y2840610D01*
X530330D01*
G01X1200500Y2832700D02*
Y2807980D01*
X1151240Y2758720D01*
X873760D01*
X847230Y2785250D01*
X841090D01*
X665720Y2960620D01*
X530330D01*
G01X968170Y2676000D02*
X931170Y2713000D01*
X854820D01*
X828290Y2739530D01*
X822150D01*
X681070Y2880610D01*
X530330D01*
G01Y2920620D02*
X673390D01*
X831620Y2762390D01*
X837760D01*
X864290Y2735860D01*
X1002540D01*
X1043300Y2695100D01*
G01X530330Y2680610D02*
X533640Y2677300D01*
X802510D01*
G01X530330Y3240610D02*
X734210D01*
X903510Y3071310D01*
X1031790D01*
X1056870Y3046230D01*
X1473680D01*
X1542760Y3115310D01*
X1697980D01*
X1854190Y2959100D01*
X2071480D01*
X2313000Y3200620D01*
Y3240000D01*
G01X530330Y3280610D02*
X726550D01*
X829310Y3177850D01*
Y3177840D01*
X912980Y3094170D01*
X1041270D01*
X1066350Y3069090D01*
X1464210D01*
X1534560Y3139440D01*
X1571580D01*
X1571840Y3139700D01*
X1739300D01*
X1858940Y3020060D01*
X1927870D01*
X1973590Y3065780D01*
X1983790D01*
G01X530330Y3120620D02*
X778660D01*
X1001000Y2898280D01*
X1026620D01*
X1026680Y2898220D01*
X1042980D01*
G01X1100900Y2823600D02*
Y2896500D01*
X1009090Y2988310D01*
X943300D01*
X730980Y3200630D01*
X530330D01*
G01X635000Y4106700D02*
X673100D01*
G01X588800Y4102100D02*
X593400Y4106700D01*
X635000D01*
G01X673100D02*
Y4142900D01*
X673000Y4143000D01*
G01X371240Y4445760D02*
X431800D01*
G01D02*
Y4374200D01*
X451330Y4354670D01*
X730790D01*
X743500Y4341960D01*
Y4258000D01*
G01X381760Y4889500D02*
Y4938530D01*
X368300Y4951990D01*
Y5143500D01*
X381000Y5156200D01*
G01X584200Y5479900D02*
Y5422900D01*
X600230Y5406870D01*
G01X774900Y609800D02*
X787400D01*
X807350Y629750D01*
G01X907820Y1343130D02*
Y1454880D01*
X863570Y1499130D01*
X817880D01*
G01X1027810Y1343130D02*
Y1210790D01*
X1040600Y1198000D01*
G01X947830Y1343130D02*
Y1464360D01*
X873690Y1538500D01*
X794650D01*
X764540Y1508390D01*
Y1488440D01*
G01X1067820Y1343130D02*
Y1237980D01*
X1095600Y1210200D01*
G01X1107820Y1343130D02*
Y1457300D01*
X1090930Y1474190D01*
Y1529730D01*
X1121500Y1560300D01*
G01X802510Y2677300D02*
X842410Y2637400D01*
X854910D01*
X857840Y2634470D01*
X1074910D01*
X1235840Y2795400D01*
X1945630D01*
X1946280Y2796050D01*
X1973270D01*
X2223220Y3046000D01*
X2292880D01*
X2299960Y3053080D01*
X2317440D01*
X2317860Y3053500D01*
X2359700D01*
G01X2357300Y2999900D02*
X2342400D01*
X2342260Y2999760D01*
X2298370D01*
X2285130Y3013000D01*
X2229000D01*
X1986000Y2770000D01*
X1258700D01*
X1114300Y2625600D01*
Y2624200D01*
X1086250Y2596150D01*
X860230D01*
X844380Y2612000D01*
X805000D01*
G01X1629500Y3258820D02*
X1549750D01*
X1433680Y3142750D01*
X1096880D01*
X1071790Y3167840D01*
X1035860D01*
X939800Y3263900D01*
G01X1417370Y3182120D02*
X1300980D01*
X1107820Y3375280D01*
Y3498110D01*
G01X2231000Y3227000D02*
X2190430Y3186430D01*
X1902480D01*
X1878610Y3162560D01*
X1525350D01*
X1454740Y3091950D01*
X1075820D01*
X1050740Y3117030D01*
X922450D01*
X852170Y3187310D01*
Y3187320D01*
X747830Y3291660D01*
Y3498110D01*
G01X827810D02*
Y3314190D01*
X852150Y3289850D01*
X855150D01*
X883000Y3262000D01*
G01X2184400Y3289300D02*
X2152650Y3257550D01*
X1860570D01*
X1822470Y3219450D01*
X1546310D01*
X1444210Y3117350D01*
X1086350D01*
X1061270Y3142430D01*
X932980D01*
X877570Y3197840D01*
Y3197850D01*
X787830Y3287590D01*
Y3498110D01*
G01X1035860Y4277840D02*
X1044020Y4286000D01*
X1068000D01*
G01X908860Y4820440D02*
X938560D01*
X946000Y4813000D01*
G01X762940Y5014400D02*
Y4932060D01*
X787400Y4907600D01*
Y4787900D01*
X743500Y4744000D01*
Y4698000D01*
G01X1290320Y846300D02*
X1278100Y858520D01*
X1241830D01*
G01X1290320Y906300D02*
X1245080D01*
X1193800Y957580D01*
G01X1468800Y1172700D02*
Y1181110D01*
X1547830Y1260140D01*
Y1343130D01*
G01X1430020Y1124740D02*
Y1135560D01*
X1467160Y1172700D01*
X1468800D01*
G01X1490980Y1124740D02*
X1501120Y1134880D01*
Y1149340D01*
X1526080Y1174300D01*
X1527300D01*
G01X1413670Y1182750D02*
Y1219600D01*
X1426370Y1232300D01*
X1484060D01*
X1507820Y1256060D01*
Y1343130D01*
G01X1369060Y1124740D02*
Y1135960D01*
X1413670Y1180570D01*
Y1182750D01*
G01X1429770Y1517330D02*
Y1471170D01*
X1427810Y1469210D01*
Y1343130D01*
G01X1467820D02*
Y1444020D01*
X1483900Y1460100D01*
G01X1387830Y1343130D02*
Y1480270D01*
X1380000Y1488100D01*
G01X1147830Y1343130D02*
Y1472970D01*
X1130300Y1490500D01*
G01X1187830Y1343130D02*
Y1453190D01*
X1174730Y1466290D01*
Y1517430D01*
X1209700Y1552400D01*
G01X1227810Y1343130D02*
Y1468890D01*
X1214100Y1482600D01*
G01X1267820Y1343130D02*
Y1460000D01*
X1256830Y1470990D01*
Y1520330D01*
X1287500Y1551000D01*
G01X1307820Y1343130D02*
Y1475680D01*
X1296200Y1487300D01*
G01X1347830Y1343130D02*
Y1464590D01*
X1340630Y1471790D01*
Y1525530D01*
X1365200Y1550100D01*
G01X1451610Y1742490D02*
Y1731390D01*
X1518410Y1664590D01*
X1645820D01*
X1781500Y1528910D01*
Y1463100D01*
X1827810Y1416790D01*
Y1343130D01*
G01X1620710Y1843850D02*
X1600580Y1823720D01*
X1547770D01*
X1490980Y1766930D01*
Y1727960D01*
X1528950Y1689990D01*
X1656380D01*
X1834880Y1511490D01*
X1866710D01*
X1881680Y1496520D01*
Y1456290D01*
X1867810Y1442420D01*
Y1343130D01*
G01X1398270Y1742410D02*
Y1740130D01*
X1499210Y1639190D01*
X1635290D01*
X1756100Y1518380D01*
Y1452570D01*
X1787830Y1420840D01*
Y1343130D01*
G01X1293330Y3332190D02*
Y3385350D01*
X1267820Y3410860D01*
Y3498110D01*
G01X1346200Y3339260D02*
Y3387230D01*
X1307820Y3425610D01*
Y3498110D01*
G01X1366670Y3278480D02*
X1291360D01*
X1227810Y3342030D01*
Y3498110D01*
G01X1410250Y3238500D02*
X1370870D01*
X1370430Y3238940D01*
X1294960D01*
X1187830Y3346070D01*
Y3498110D01*
G01X1427810D02*
Y3332810D01*
X1409700Y3314700D01*
G01X1308100Y3665700D02*
Y3661700D01*
X1347950Y3621850D01*
Y3620600D01*
X1387830Y3580720D01*
Y3498110D01*
G01X1225900Y3952000D02*
X1276700D01*
G01X1312000Y3988000D02*
X1327500Y3972500D01*
Y3952000D01*
G01D02*
X1276700D01*
G01X1244600Y4275300D02*
Y4232430D01*
X1239440Y4227270D01*
Y4174560D01*
X1240000Y4174000D01*
G01X1155700Y4275300D02*
Y4255980D01*
X1199760Y4211920D01*
G01X1358900Y4273400D02*
X1326630Y4241130D01*
Y4182630D01*
X1313000Y4169000D01*
G01X1182290Y5500290D02*
X1249000Y5433580D01*
Y5394000D01*
G01X1790700Y1007900D02*
X1818640Y1035840D01*
Y1163280D01*
X1832860Y1177500D01*
Y1238370D01*
X1818640Y1252590D01*
Y1333960D01*
X1827810Y1343130D01*
G01X1641800Y927100D02*
X1587500D01*
X1577340Y916940D01*
G01X1641800Y866140D02*
X1581400D01*
X1576320Y861060D01*
G01X1701800Y866140D02*
X1758920D01*
X1767180Y857880D01*
G01X1790700Y947900D02*
Y901140D01*
X1818480Y873360D01*
X1818640D01*
X1834000Y858000D01*
X1872770D01*
X1874600Y856170D01*
G01X1527300Y1174300D02*
X1528320Y1176630D01*
Y1190630D01*
X1587830Y1250140D01*
Y1343130D01*
G01X1707820D02*
Y1462380D01*
X1609340Y1560860D01*
X1580600D01*
X1578860Y1562600D01*
G01X1689100Y1122200D02*
Y1156260D01*
X1700300Y1167460D01*
X1701800D01*
X1707820Y1173480D01*
Y1343130D01*
G01X1627810D02*
Y1244010D01*
X1576580Y1192780D01*
Y1149380D01*
X1551940Y1124740D01*
G01X1546860Y1456110D02*
X1591890D01*
X1627810Y1420190D01*
Y1343130D01*
G01X1747820D02*
Y1234440D01*
X1768090Y1214170D01*
Y1204340D01*
G01X1739900Y1122200D02*
Y1176150D01*
X1768090Y1204340D01*
G01X1790700Y1122200D02*
Y1171270D01*
X1807460Y1188030D01*
Y1227840D01*
X1787830Y1247470D01*
Y1343130D01*
G01X1536700Y1740790D02*
X1677440D01*
X1907820Y1510410D01*
Y1343130D01*
G01X1867810Y3498110D02*
Y3396550D01*
X1821760Y3350500D01*
X1756650D01*
X1733470Y3327320D01*
Y3326770D01*
X1719500Y3312800D01*
G01X1809500Y4003500D02*
Y3996500D01*
X1823200Y3982800D01*
Y3878190D01*
X1782500Y3837490D01*
G01X1675000Y3858700D02*
Y3788000D01*
G01X1853250Y3920480D02*
Y3886420D01*
X1852250Y3885420D01*
Y3865250D01*
X1827990Y3840990D01*
Y3498290D01*
X1827810Y3498110D01*
G01X1943100Y3922240D02*
X1931920Y3911060D01*
X1913940D01*
X1901000Y3924000D01*
X1897000D01*
G01X1693700Y4597400D02*
X1697700D01*
X1733100Y4562000D01*
X1746620D01*
X1747620Y4561000D01*
X1787000D01*
G01X1845990Y4340000D02*
X1806000D01*
X1765000Y4299000D01*
G01X1829000Y4264000D02*
Y4284380D01*
X1845990Y4301370D01*
Y4340000D01*
G01X1826000Y5346000D02*
Y5534450D01*
X1889760Y5598210D01*
Y5760450D01*
X1886680Y5763530D01*
Y5779530D01*
G01X1890960Y5332000D02*
X1821960Y5263000D01*
X1753000D01*
G01X1987830Y1343130D02*
Y1254280D01*
X2000530Y1241580D01*
X2064420D01*
X2168080Y1137920D01*
X2390520D01*
X2459990Y1068450D01*
Y848400D01*
X2500490Y807900D01*
X2636700D01*
X2720670Y891870D01*
X2730140D01*
G01X1947820Y1343130D02*
Y1255120D01*
X1986760Y1216180D01*
X2053890D01*
X2061030Y1209030D01*
X2157550Y1112520D01*
X2379980D01*
X2434590Y1057910D01*
Y836610D01*
X2488700Y782500D01*
X2674570D01*
X2730600Y838530D01*
G01X2027810Y1343130D02*
Y1455080D01*
X2020570Y1462320D01*
Y1463230D01*
X2006000Y1477800D01*
G01X2048800Y2264000D02*
Y2018020D01*
X2245360Y1821460D01*
Y1776860D01*
X2449830Y1572390D01*
Y1446530D01*
X2427810Y1424510D01*
Y1343130D01*
G01X2098570Y2291120D02*
X2090420Y2282970D01*
Y2012340D01*
X2272230Y1830530D01*
Y1785930D01*
X2475430Y1582720D01*
Y1435100D01*
X2467810Y1427480D01*
Y1343130D01*
G01X2347820D02*
Y1420720D01*
X2399030Y1471930D01*
Y1524890D01*
X2153540Y1770380D01*
X2134670D01*
X2097560Y1807490D01*
Y1811020D01*
G01X2387830Y1343130D02*
Y1422630D01*
X2424430Y1459230D01*
Y1535430D01*
X2151380Y1808480D01*
Y1811020D01*
G01X2077000Y2348000D02*
X2097370D01*
X2192300Y2253070D01*
Y1946400D01*
X2297630Y1841070D01*
Y1796470D01*
X2533470Y1560630D01*
X2685310D01*
G01X2149800Y2385120D02*
X2217700Y2317220D01*
Y1956930D01*
X2323030Y1851620D01*
Y1807010D01*
X2529410Y1600630D01*
X2685310D01*
G01X2281100Y3926000D02*
X2264800Y3942300D01*
X2253980D01*
X2252310Y3940630D01*
X2219690D01*
X2218020Y3942300D01*
X2205180D01*
X2177640Y3914760D01*
G01X2166200Y3903320D02*
Y3856300D01*
G01X2167330Y4031030D02*
X2164030Y4027730D01*
X2112770D01*
X2109470Y4031030D01*
X2087320D01*
G01X2213240Y4070400D02*
X2215700Y4072860D01*
Y4074730D01*
X2247320Y4106350D01*
Y4111020D01*
G01X2167330D02*
Y4105350D01*
X2129080Y4067100D01*
G01X2327330Y4191030D02*
X2286530Y4150230D01*
G01X2203020Y4146730D02*
X2247320Y4191030D01*
G01X2087320Y4591020D02*
X2128840Y4549500D01*
X2128850D01*
G01X2107800Y4958100D02*
Y4942840D01*
X2095100Y4930140D01*
X2077260D01*
G01X2306300Y5153200D02*
Y5240980D01*
X2278000Y5269280D01*
Y5389780D01*
X2190270Y5477510D01*
G01X2147000Y5301000D02*
X2142050D01*
X2103630Y5339420D01*
Y5419950D01*
X2120050Y5436370D01*
G01X2273300Y5685000D02*
X2272500Y5684200D01*
X2222700D01*
G01X2162300Y5743600D02*
X2162700Y5684200D01*
G01X2162300Y5743600D02*
Y5799390D01*
X2106910Y5854780D01*
Y5876780D01*
X2067970Y5915720D01*
X1991420D01*
X1943140Y5867440D01*
X1917720D01*
G01X2162700Y5684200D02*
X2152200D01*
X2127000Y5659000D01*
G01X2202800Y5787320D02*
X2222300Y5767820D01*
Y5743600D01*
G01X2202800Y5787320D02*
Y5809320D01*
X2134420Y5877700D01*
Y5896540D01*
G01X2273300Y5745000D02*
X2223700D01*
X2222300Y5743600D01*
G01X2387600Y5227800D02*
X2355410D01*
X2305770Y5277440D01*
Y5495230D01*
X2248000Y5553000D01*
G01X1917720Y5867440D02*
X1917700Y5867420D01*
Y5867400D01*
G01X1949300Y6045200D02*
X1904350Y6000250D01*
Y5944250D01*
X1917720Y5930880D01*
Y5867440D01*
G01X2089300Y6045200D02*
Y5937600D01*
X2130360Y5896540D01*
X2134420D01*
G01X2409200Y248630D02*
X2483530Y174300D01*
X2504300D01*
G01X2536200Y248630D02*
X2537170Y249600D01*
X2590700D01*
X2618700Y221600D01*
Y174700D01*
G01X2573500Y1282700D02*
X2520980D01*
X2479850Y1241580D01*
X2446500D01*
X2427810Y1260270D01*
Y1343130D01*
G01X2573500Y1346200D02*
X2570430Y1343130D01*
X2467810D01*
G01X2487320Y4191030D02*
X2448300Y4152000D01*
Y4151200D01*
G01X2647320Y4191030D02*
X2611600Y4155310D01*
G01X2371600D02*
Y4175790D01*
X2386840Y4191030D01*
X2407310D01*
G01X2368600Y4467400D02*
X2374000Y4472800D01*
Y4477700D01*
X2407310Y4511010D01*
G01X2647320D02*
Y4501820D01*
X2614900Y4469400D01*
G01X3478000Y4701000D02*
X3477000Y4702000D01*
X3454550D01*
X3386820Y4769730D01*
X3189730D01*
X3189720Y4769720D01*
X2734770D01*
X2715320Y4789170D01*
X2578100D01*
X2547680Y4819590D01*
Y4852320D01*
X2523200Y4876800D01*
X2519200D01*
G01X2306300Y4975400D02*
X2377390Y4904310D01*
X2494590D01*
X2519200Y4879700D01*
Y4876800D01*
G01X3571900Y4717500D02*
X3517180D01*
X3439550Y4795130D01*
X3175130D01*
X3175120Y4795120D01*
X2745300D01*
X2628900Y4911520D01*
Y5054600D01*
G01X2404900Y4876800D02*
X2459200D01*
G01X2549300Y5288400D02*
Y5308800D01*
X2560000Y5319500D01*
G01X2498700Y5288700D02*
X2438400Y5228400D01*
Y5227800D01*
G01X2549300Y5228400D02*
X2600100D01*
G01X2642150Y5186350D02*
Y5168850D01*
X2670000Y5141000D01*
G01X2654300Y5321300D02*
X2650800Y5317800D01*
Y5288100D01*
G01D02*
X2701600D01*
X2701800Y5288300D01*
G01X2600100Y5288400D02*
X2600400Y5288100D01*
X2650800D01*
G01X2451100Y5054600D02*
Y5067300D01*
X2387600Y5130800D01*
Y5227800D01*
G01X2779240Y967740D02*
X2754730D01*
X2730140Y943150D01*
Y891870D01*
G01X2776700Y1028700D02*
X2760010D01*
X2727960Y996650D01*
G01X2779240Y906780D02*
Y884400D01*
X2733370Y838530D01*
X2730600D01*
G01X2755900Y1477800D02*
Y1506220D01*
X2788920Y1539240D01*
Y1575230D01*
X2763520Y1600630D01*
X2685310D01*
G01X2692400Y1477800D02*
Y1553540D01*
X2685310Y1560630D01*
G01Y1720620D02*
X2800830D01*
G01X2685310Y1640610D02*
X2829310D01*
X2860040Y1609880D01*
G01X2685310Y3080610D02*
X2788510D01*
G01X2972500Y3371900D02*
X2952000Y3351400D01*
Y3302500D01*
G01X2688270Y4047210D02*
X2711140Y4070080D01*
X2726690D01*
Y4110390D01*
X2727320Y4111020D01*
G01X2688270Y4005730D02*
Y4047210D01*
G01X3036800Y3853900D02*
X3086360Y3903460D01*
Y4151980D01*
X3047310Y4191030D01*
G01X3010220Y4225280D02*
X3003860Y4231640D01*
X2952700D01*
X2928260Y4207210D01*
Y4152540D01*
X2887320Y4111600D01*
Y4111020D01*
G01X3047310Y4591020D02*
X3047340D01*
X3086680Y4551680D01*
G01X2967330Y4591020D02*
Y4590230D01*
X2926300Y4549200D01*
G01X3316000Y4617000D02*
X3313300D01*
X3287320Y4591020D01*
G01X3403600Y5008400D02*
X3433600D01*
X3434340Y5009140D01*
X3434760D01*
G01X3857000Y4180000D02*
X3904060Y4132940D01*
Y2991660D01*
X3833400Y2921000D01*
X3683000D01*
X3556000Y2794000D01*
G01X3659000Y4699000D02*
X3715940Y4642060D01*
Y3703240D01*
X3568700Y3556000D01*
X3556000D01*
G01X723800Y5627990D02*
G02Y5727990I0J50000D01*
G01Y6153660D01*
X194820D01*
X-145240Y5813600D01*
Y104140D01*
X3954810D01*
X3955340Y104670D01*
Y6153660D01*
X3289400D01*
Y5727990D01*
G02Y5627990I0J-50000D01*
G01X637030Y6737130D02*
X649730Y6749830D01*
X659250Y6770990D01*
X665610Y6800630D01*
X659250Y6826030D01*
X646560Y6842950D01*
X624330Y6855660D01*
X538610D01*
Y6601660D01*
X643380D01*
X665610Y6618590D01*
X678310Y6643990D01*
X684650Y6673630D01*
X678310Y6703250D01*
X659250Y6728660D01*
X637030Y6737130D01*
X538610D01*
G01X865630Y6601660D02*
X840230Y6605890D01*
X818010Y6622820D01*
X798950Y6648220D01*
X786250Y6677860D01*
X779900Y6711730D01*
Y6745590D01*
X786250Y6779460D01*
X798950Y6809100D01*
X818010Y6834490D01*
X840230Y6851430D01*
X865630Y6855660D01*
X891030Y6851430D01*
X913250Y6834490D01*
X932310Y6809100D01*
X945010Y6779460D01*
X951360Y6745590D01*
Y6711730D01*
X945010Y6677860D01*
X932310Y6648220D01*
X913250Y6622820D01*
X891030Y6605890D01*
X865630Y6601660D01*
G01X1119630Y6855660D02*
Y6601660D01*
G01X1046610Y6855660D02*
X1192650D01*
G01X1373630D02*
Y6601660D01*
G01X1300610Y6855660D02*
X1446650D01*
G01X1627630Y6601660D02*
X1602230Y6605890D01*
X1580010Y6622820D01*
X1560950Y6648220D01*
X1548250Y6677860D01*
X1541900Y6711730D01*
Y6745590D01*
X1548250Y6779460D01*
X1560950Y6809100D01*
X1580010Y6834490D01*
X1602230Y6851430D01*
X1627630Y6855660D01*
X1653030Y6851430D01*
X1675250Y6834490D01*
X1694310Y6809100D01*
X1707010Y6779460D01*
X1713360Y6745590D01*
Y6711730D01*
X1707010Y6677860D01*
X1694310Y6648220D01*
X1675250Y6622820D01*
X1653030Y6605890D01*
X1627630Y6601660D01*
G01X1799080D02*
Y6855660D01*
X1881630Y6643990D01*
X1964180Y6855660D01*
Y6601660D01*
G01X2326130Y6855660D02*
Y6601660D01*
X2453130D01*
G01X2564250D02*
X2643630Y6855660D01*
X2723010Y6601660D01*
G01X2694430Y6690560D02*
X2592830D01*
G01X2897630Y6601660D02*
Y6715960D01*
X2834130Y6855660D01*
G01X2961130D02*
X2897630Y6715960D01*
G01X3215130Y6601660D02*
X3088130D01*
Y6855660D01*
X3215130D01*
G01X3164330Y6732900D02*
X3088130D01*
G01X3342130Y6601660D02*
Y6855660D01*
X3421500D01*
X3446900Y6842950D01*
X3462780Y6826030D01*
X3469130Y6792160D01*
X3462780Y6758290D01*
X3443730Y6737130D01*
X3421500Y6724420D01*
X3342130D01*
G01X3421500D02*
X3469130Y6601660D01*
G01X1663800Y5627990D02*
X723800D01*
G01X1663800D02*
X723800D01*
G01X1663800D02*
G03Y5727990I0J50000D01*
G01Y6153660D01*
X2349400D01*
Y5727990D01*
G03Y5627990I0J-50000D01*
G01X3289400D02*
X2349400D01*
G01X3289400D02*
X2349400D01*
G54D34*
X1155700Y4990080D03*
Y5169920D03*
X1714500Y4990080D03*
Y5169920D03*
X3365500Y5284220D03*
Y5104380D03*
G54D25*
X761800Y5455300D03*
X1625800D03*
X2387400D03*
X3251400D03*
G54D52*
X3028100Y2165400D03*
Y2648000D03*
Y2571700D03*
Y2406700D03*
Y2330400D03*
Y3054300D03*
Y2889300D03*
Y2813000D03*
Y3371900D03*
Y3295600D03*
Y3130600D03*
Y3536900D03*
X3144100Y2165400D03*
Y2648000D03*
Y2571700D03*
Y2406700D03*
Y2330400D03*
Y3054300D03*
Y2889300D03*
Y2813000D03*
Y3371900D03*
Y3295600D03*
Y3130600D03*
Y3536900D03*
G54D16*
X695700Y549800D03*
Y609800D03*
X589000Y663300D03*
Y723300D03*
X635000Y4106700D03*
Y4046700D03*
X673100D03*
Y4106700D03*
X774900Y549800D03*
Y609800D03*
X787400Y3818100D03*
Y3878100D03*
X1035860Y4277840D03*
Y4337840D03*
X908860Y4760440D03*
Y4820440D03*
X1490980Y1064740D03*
X1430020D03*
X1369060D03*
X1290320Y906300D03*
Y846300D03*
X1490980Y1124740D03*
X1430020D03*
X1369060D03*
X1308100Y3665700D03*
Y3725700D03*
X1276700Y3952000D03*
Y3892000D03*
X1225900Y3952000D03*
Y3892000D03*
X1327500D03*
Y3952000D03*
X1244600Y4275300D03*
Y4335300D03*
X1155700Y4275300D03*
Y4335300D03*
X1790700Y1062200D03*
Y1007900D03*
Y947900D03*
X1739900Y1062200D03*
X1689100D03*
X1551940Y1064740D03*
X1790700Y1122200D03*
X1739900D03*
X1689100D03*
X1551940Y1124740D03*
X1853250Y3980480D03*
Y3920480D03*
X1943100Y3982240D03*
Y3922240D03*
X2107800Y5018100D03*
Y4958100D03*
X2273300Y5685000D03*
Y5745000D03*
X2134420Y5896540D03*
Y5956540D03*
X2438400Y5287800D03*
Y5227800D03*
X2650800Y5288100D03*
Y5228100D03*
X2498700Y5288700D03*
Y5228700D03*
X2387600Y5287800D03*
Y5227800D03*
X2549300Y5288400D03*
Y5228400D03*
X2600100Y5288400D03*
Y5228400D03*
X2755900Y1477800D03*
Y1417800D03*
X2692400Y1477800D03*
Y1417800D03*
X2860040Y1609880D03*
Y1549880D03*
X2971800Y1609880D03*
Y1549880D03*
X2800000Y3560000D03*
Y3620000D03*
X2860000Y3560000D03*
Y3620000D03*
X2701800Y5228300D03*
Y5288300D03*
X3403600Y4948400D03*
Y5008400D03*
Y4643600D03*
Y4703600D03*
G54D43*
X2087320Y4191030D03*
Y4111020D03*
Y4031030D03*
X2167330Y4191030D03*
Y4111020D03*
Y4031030D03*
X2247320Y4191030D03*
Y4111020D03*
Y4031030D03*
X2087320Y4591020D03*
Y4511010D03*
X2167330Y4591020D03*
Y4511010D03*
X2247320Y4591020D03*
Y4511010D03*
X2087320Y4671010D03*
X2167330D03*
X2247320D03*
X2327330Y4191030D03*
Y4111020D03*
Y4031030D03*
X2407310Y4191030D03*
Y4111020D03*
Y4031030D03*
X2487320Y4191030D03*
Y4111020D03*
Y4031030D03*
X2567330Y4191030D03*
Y4111020D03*
Y4031030D03*
X2647320Y4191030D03*
Y4111020D03*
Y4031030D03*
X2327330Y4591020D03*
Y4511010D03*
X2407310Y4591020D03*
Y4511010D03*
X2487320Y4591020D03*
Y4511010D03*
X2567330Y4591020D03*
Y4511010D03*
X2647320Y4591020D03*
Y4511010D03*
X2327330Y4671010D03*
X2407310D03*
X2487320D03*
X2567330D03*
X2647320D03*
X2727320Y4191030D03*
Y4111020D03*
Y4031030D03*
X2807310Y4191030D03*
Y4111020D03*
Y4031030D03*
X2887320Y4191030D03*
Y4111020D03*
Y4031030D03*
X2967330Y4191030D03*
Y4111020D03*
Y4031030D03*
X3047310Y4191030D03*
Y4111020D03*
Y4031030D03*
X2727320Y4591020D03*
Y4511010D03*
X2807310Y4591020D03*
Y4511010D03*
X2887320Y4591020D03*
Y4511010D03*
X2967330Y4591020D03*
Y4511010D03*
X3047310Y4591020D03*
Y4511010D03*
X2727320Y4671010D03*
X2807310D03*
X2887320D03*
X2967330D03*
X3047310D03*
X3127320Y4191030D03*
Y4111020D03*
Y4031030D03*
X3207310Y4191030D03*
Y4111020D03*
Y4031030D03*
X3287320Y4191030D03*
Y4111020D03*
Y4031030D03*
X3127320Y4591020D03*
Y4511010D03*
X3207310Y4591020D03*
Y4511010D03*
X3287320Y4591020D03*
Y4511010D03*
X3127320Y4671010D03*
X3207310D03*
X3287320D03*
G54D62*
G01X2868850Y3256850D02*
X2772620Y3160620D01*
X2685310D01*
G54D35*
X1607820Y2420620D03*
G54D26*
X791770Y5528020D03*
X1595830Y5527970D03*
X2417370Y5528020D03*
X3221430Y5527970D03*
G54D44*
X2306300Y4975400D03*
Y5153200D03*
G54D17*
X528800Y596900D03*
X588800D03*
X538000Y1033780D03*
X478000D03*
X538000Y972820D03*
X478000D03*
X538000Y1094740D03*
X478000D03*
X529100Y784300D03*
X589100D03*
X538000Y1155700D03*
X478000D03*
X588800Y4102100D03*
X528800D03*
X1701800Y927100D03*
X1641800D03*
Y866140D03*
X1701800D03*
X1633700Y4597400D03*
X1693700D03*
X1889000Y4264000D03*
X1829000D03*
X2162300Y5743600D03*
X2222300D03*
X2162700Y5684200D03*
X2222700D03*
X2573500Y1346200D03*
X2633500D03*
X2573500Y1282700D03*
X2633500D03*
X2675100Y3594100D03*
X2344900Y4876800D03*
X2404900D03*
X2459200D03*
X2519200D03*
X2779240Y906780D03*
X2839240D03*
X2836700Y1028700D03*
X2776700D03*
X2779240Y967740D03*
X2839240D03*
X2865600Y1778000D03*
X2925600D03*
X2865600Y1841500D03*
X2925600D03*
Y1921100D03*
X2865600D03*
Y1996440D03*
X2925600D03*
X2799600Y3673500D03*
X2859600D03*
X2735100Y3594100D03*
X3291860Y4955540D03*
X3351860D03*
Y5006340D03*
X3291860D03*
G54D53*
X3086100Y4929100D03*
X2991100D03*
Y5180100D03*
X3086100D03*
X3181100Y4929100D03*
Y5180100D03*
G54D63*
G01X635000Y4046700D02*
X420200D01*
X246770Y4220130D01*
X213460D01*
X153630Y4279960D01*
Y4418370D01*
X0Y4572000D01*
G01X1167740Y2563830D02*
Y2539350D01*
X1097270Y2468880D01*
X742150D01*
X735150Y2475880D01*
X670430D01*
G01X650900Y2715600D02*
X635690Y2730810D01*
Y2735210D01*
X610280Y2760620D01*
X530330D01*
G01X635000Y4046700D02*
X673100D01*
G01D02*
X738500Y3981300D01*
X774700D01*
G01X431800Y4545840D02*
Y4610100D01*
G01X481840Y4889500D02*
Y4907060D01*
X410200Y4978700D01*
Y5076200D01*
G01X1826000Y4405000D02*
X1824000Y4403000D01*
X1804000D01*
X1768670Y4367670D01*
Y4367330D01*
X1719280Y4317940D01*
Y4317620D01*
X1698940Y4297280D01*
X1521720D01*
X1437000Y4382000D01*
Y4513470D01*
X1368470Y4582000D01*
X1183000D01*
X1059180Y4705820D01*
Y4764480D01*
X924780Y4898880D01*
X923030D01*
X853900Y4968010D01*
Y5015710D01*
X794690Y5074920D01*
X606920D01*
X503140Y4971140D01*
X485760D01*
G01X526900Y5219700D02*
Y5214750D01*
X452020Y5139870D01*
Y5118020D01*
X410200Y5076200D01*
G01X486580Y5026000D02*
X573600Y5113020D01*
X810480D01*
X892000Y5031500D01*
Y4983800D01*
X938820Y4936980D01*
X940570D01*
X1097280Y4780270D01*
Y4743560D01*
X1141840Y4699000D01*
X1679340D01*
X1755060Y4623280D01*
X1813600D01*
X1839000Y4597880D01*
Y4457000D01*
G01X1003300Y3730750D02*
X1127250D01*
X1193800Y3797300D01*
G01X965070Y3990850D02*
X860420Y3886200D01*
Y3688130D01*
X927100Y3621450D01*
Y3619500D01*
G01X965070Y3990850D02*
X1003300D01*
G01X965070D02*
X784250D01*
X774700Y3981300D01*
G01X787400Y3878100D02*
Y3968600D01*
X774700Y3981300D01*
G01X944000Y4231000D02*
Y4266780D01*
X1015060Y4337840D01*
X1035860D01*
G01D02*
X1038400Y4335300D01*
X1155700D01*
G01X876300Y4540100D02*
X895490D01*
X918590Y4517000D01*
X936000D01*
G01X865000Y4424000D02*
X888000Y4447000D01*
X938000D01*
G01X1276700Y3892000D02*
X1327500D01*
G01D02*
X1356620D01*
X1393760Y3929140D01*
G01X1366400Y4083700D02*
X1398700D01*
X1403000Y4088000D01*
G01X1155700Y4335300D02*
X1244600D01*
G01X1435100Y5073500D02*
X1473200Y5035400D01*
Y5016500D01*
G01X1308100Y5073500D02*
Y5029200D01*
X1311600Y5025700D01*
G01X1902000Y4596910D02*
Y4662000D01*
X1919000Y4679000D01*
G01X1899300Y4876010D02*
Y4897300D01*
X1917000Y4915000D01*
Y4917000D01*
G01X1905000Y4966490D02*
X1923000Y4948490D01*
Y4923000D01*
X1917000Y4917000D01*
G01X1991040Y5332000D02*
Y5311410D01*
X1958800Y5279170D01*
X1908790D01*
X1872000Y5242380D01*
Y5203000D01*
G01D02*
Y5151000D01*
X1819000Y5098000D01*
G01X1822450Y5638800D02*
Y5679570D01*
X1785860Y5716160D01*
G01X2247320Y4031030D02*
X2255900D01*
X2291610Y3995320D01*
G01X1981200Y4596610D02*
Y4642800D01*
X1975000Y4649000D01*
G01X2206000Y4634000D02*
X2212690D01*
X2247320Y4668630D01*
Y4671010D01*
G01X1993900Y4966490D02*
Y4949910D01*
X1984000Y4940010D01*
Y4940000D01*
X1970000Y4926000D01*
Y4924000D01*
G01D02*
X1971000Y4925000D01*
X1973000Y4923000D01*
X1972000Y4922000D01*
Y4918000D01*
X1981200Y4908800D01*
Y4876010D01*
G01X2644290Y4684490D02*
X2647320Y4681460D01*
Y4671010D01*
G01X2898140Y922020D02*
X2882900Y906780D01*
X2839240D01*
G01D02*
Y967740D01*
G01D02*
X2836700Y970280D01*
Y1028700D01*
G01X2865600Y1996440D02*
Y1987990D01*
X2891010Y1962580D01*
X3003570D01*
X3092300Y2051310D01*
Y2057400D01*
G01Y1930400D02*
X3025290D01*
X3013380Y1918490D01*
X2936270D01*
X2933650Y1921100D01*
X2925600D01*
G01X2967330Y4031030D02*
X2964300Y4028000D01*
G01D02*
Y3970650D01*
X2989590Y3945360D01*
X2991160D01*
X3001210Y3935310D01*
X3004160D01*
G01X3012530Y3987990D02*
Y3996250D01*
X3047310Y4031030D01*
G01X2737660Y4968240D02*
X2773000Y5003580D01*
Y5031000D01*
G01X3231200Y1348800D02*
Y1271470D01*
X3256730Y1245940D01*
X3401800D01*
X3431790Y1215950D01*
G01X3123700Y1542900D02*
X3123840Y1542760D01*
Y1486330D01*
X3158510Y1451660D01*
X3205670D01*
X3231200Y1426130D01*
Y1348800D01*
G01X3287320Y4671010D02*
X3339790D01*
X3367200Y4643600D01*
X3403600D01*
G01Y4703600D02*
Y4707600D01*
X3374630Y4736570D01*
X3272870D01*
X3207310Y4671010D01*
G54D27*
X584200Y5479900D03*
Y5619900D03*
X774700Y3981300D03*
Y4121300D03*
X876300Y4540100D03*
X865000Y4284000D03*
Y4424000D03*
X876300Y4680100D03*
X1003300Y5010000D03*
Y5150000D03*
X1424940Y920900D03*
Y780900D03*
X1358900Y4273400D03*
Y4413400D03*
X1435100Y5213500D03*
Y5073500D03*
X1308100Y5213500D03*
Y5073500D03*
X1892300Y1111400D03*
Y971400D03*
X1562100Y5010000D03*
Y5150000D03*
X2277900Y300400D03*
Y440400D03*
X2286000Y915820D03*
Y775820D03*
X2075180Y1052980D03*
Y912980D03*
X2147000Y5301000D03*
Y5161000D03*
X2536200Y248630D03*
X2409200D03*
X2536200Y388630D03*
X2409200D03*
X2626360Y1052980D03*
Y912980D03*
X3380400Y1543700D03*
Y1683700D03*
X3123700Y1542900D03*
Y1682900D03*
G54D18*
X738990Y927100D03*
G54D36*
X1534160Y2169160D03*
X1525320Y2503120D03*
X1522780Y2609770D03*
X1365330Y2503120D03*
X1362790Y2609770D03*
X1635760Y2169160D03*
X1685320Y2503120D03*
X1845310D03*
X1842770Y2609770D03*
X1682780D03*
G54D45*
X2764510Y227710D03*
X3331490D03*
G54D54*
X3381200Y928800D03*
X3331200D03*
X3281200D03*
X3231200D03*
X3181200D03*
Y1348800D03*
X3231200D03*
X3281200D03*
X3331200D03*
X3381200D03*
G54D64*
G01X1629500Y3258820D02*
X1627810Y3260510D01*
Y3498110D01*
G01X1629500Y3258820D02*
X1824120D01*
X1908300Y3343000D01*
Y3386940D01*
X1907820Y3387420D01*
Y3498110D01*
G01X1895270Y3980480D02*
X1853250D01*
G01X2619500Y4081300D02*
Y4083200D01*
X2647320Y4111020D01*
G01X2846500Y4146600D02*
X2858800Y4158900D01*
X2860900D01*
X2887320Y4185320D01*
Y4191030D01*
G01X2904500Y4390400D02*
X2964180Y4450080D01*
Y4507860D01*
X2967330Y4511010D01*
G01X2815850Y4455090D02*
X2816100Y4455340D01*
Y4502220D01*
X2807310Y4511010D01*
G01X3144100Y2165400D02*
X3146950Y2168250D01*
X3210850D01*
G01X3144100Y2514200D02*
X3186000D01*
X3198730Y2501470D01*
X3258630D01*
G01X3127320Y4191030D02*
Y4190380D01*
X3168000Y4149700D01*
G01X3207310Y4191030D02*
X3214370D01*
X3249400Y4156000D01*
G01X3299460Y4242650D02*
X3297400Y4240590D01*
Y4233900D01*
X3287320Y4223820D01*
Y4191030D01*
G01X3165200Y4071400D02*
X3127320Y4109280D01*
Y4111020D01*
G01X3320140Y4152670D02*
X3313600Y4146130D01*
Y4131300D01*
X3293320Y4111020D01*
X3287320D01*
G01X3155300Y4459500D02*
Y4483030D01*
X3127320Y4511010D01*
G54D55*
X3281200Y1138800D03*
G54D37*
X1387500Y3788000D03*
Y3672000D03*
X1552500Y3788000D03*
Y3672000D03*
X1617500Y3788000D03*
X1782500D03*
X1617500Y3672000D03*
X1782500D03*
X1878700Y3671900D03*
Y3787900D03*
X2108700D03*
X2273700D03*
X2108700Y3671900D03*
X2273700D03*
X2043700D03*
Y3787900D03*
X2338700D03*
X2503700D03*
X2338700Y3671900D03*
X2503700D03*
G54D28*
X608810Y5965490D03*
X1778790D03*
X2234410D03*
X3404390D03*
G54D46*
X2728010Y452700D03*
X3367990D03*
G54D19*
X530330Y1880620D03*
Y1840610D03*
Y1800630D03*
Y1760630D03*
Y1720620D03*
Y1680620D03*
Y1640610D03*
Y1600630D03*
Y1560630D03*
Y2240610D03*
Y2200630D03*
Y2160630D03*
Y2120620D03*
Y2080620D03*
Y2040610D03*
Y2000630D03*
Y1960630D03*
Y1920620D03*
Y2640610D03*
Y2600630D03*
Y2560620D03*
Y2520620D03*
Y2480610D03*
Y2440610D03*
Y2400630D03*
Y2360630D03*
Y2320620D03*
Y2280620D03*
Y3040610D03*
Y3000630D03*
Y2960620D03*
Y2920620D03*
Y2880610D03*
Y2840610D03*
Y2800630D03*
Y2760620D03*
Y2720620D03*
Y2680610D03*
Y3280610D03*
Y3240610D03*
Y3200630D03*
Y3160620D03*
Y3120620D03*
Y3080610D03*
X2685310Y1560630D03*
Y1600630D03*
Y1640610D03*
Y1680620D03*
Y1720620D03*
Y1760630D03*
Y1800630D03*
Y1840610D03*
Y1880620D03*
Y1920620D03*
Y1960630D03*
Y2000630D03*
Y2040610D03*
Y2080620D03*
Y2120620D03*
Y2160630D03*
Y2200630D03*
Y2240610D03*
Y2280620D03*
Y2320620D03*
Y2360630D03*
Y2400630D03*
Y2440610D03*
Y2480610D03*
Y2520620D03*
Y2560620D03*
Y2600630D03*
Y2640610D03*
Y2680610D03*
Y2720620D03*
Y2760620D03*
Y2800630D03*
Y2840610D03*
Y2880610D03*
Y2920620D03*
Y2960620D03*
Y3000630D03*
Y3040610D03*
Y3080610D03*
Y3120620D03*
Y3160620D03*
Y3200630D03*
Y3240610D03*
Y3280610D03*
G54D65*
G01X1040380Y4483100D02*
X978500D01*
X978200Y4482800D01*
G01X1277620Y1016760D02*
X1416560D01*
X1437640Y995680D01*
G01X1277620Y1016760D02*
X1249680Y988820D01*
Y955040D01*
G01X1499180Y1558980D02*
X1549980Y1508180D01*
X1595700D01*
X1645920Y1457960D01*
G01X1720700Y4102100D02*
X1524720D01*
X1515760Y4093140D01*
G01X1625600Y1054890D02*
X1628140Y1052350D01*
Y1049810D01*
X1594330Y1016000D01*
X1573200D01*
G01X1625600Y1154910D02*
Y1165080D01*
X1667810Y1207290D01*
Y1231900D01*
G01X1702820Y4470400D02*
X1750400D01*
X1757000Y4477000D01*
X1763000D01*
X1769000Y4471000D01*
X1779000D01*
X1780000Y4470000D01*
X1783000D01*
X1786000Y4467000D01*
Y4466000D01*
G01X2286000Y775820D02*
Y703940D01*
X2291000Y698930D01*
G01X2120900Y728980D02*
X2167640Y775720D01*
X2285900D01*
X2286000Y775820D01*
G01X2075180Y1053080D02*
X2198620D01*
X2217420Y1071880D01*
G01X2286000Y915920D02*
X2345940D01*
X2362200Y932180D01*
G01X2516000Y629500D02*
X2515100Y628600D01*
Y555900D01*
X2603400Y467600D01*
G01X2536200Y388630D02*
Y424360D01*
X2498480Y462080D01*
X2499000Y462600D01*
G01X2626360Y912880D02*
X2531620D01*
X2512320Y932180D01*
X2496820D01*
G01X2823060Y1231900D02*
X2795120Y1259840D01*
X2745740D01*
G01X2863370Y2070100D02*
X2852420D01*
X2806700Y2115820D01*
G01X2963390Y2070100D02*
X2978630Y2054860D01*
Y2007390D01*
G01X2967330Y4111020D02*
Y4112210D01*
X3007740Y4152620D01*
G01X3178000Y487710D02*
Y562700D01*
X3216100Y600800D01*
X3332380D01*
X3378780Y647200D01*
X3592190D01*
X3662760Y717770D01*
Y1060230D01*
X3600230Y1122760D01*
X3508320D01*
X3449240Y1181840D01*
Y1198500D01*
X3431790Y1215950D01*
G01X3232300Y2057400D02*
X3284360Y2109460D01*
X3304560D01*
G54D38*
X1495000Y3788000D03*
X1445000D03*
Y3672000D03*
X1495000D03*
X1725000Y3788000D03*
X1675000D03*
Y3672000D03*
X1725000D03*
X2216200Y3787900D03*
X2166200D03*
Y3671900D03*
X2216200D03*
X1936200D03*
X1986200D03*
Y3787900D03*
X1936200D03*
X2446200D03*
X2396200D03*
Y3671900D03*
X2446200D03*
G54D56*
X3850010Y5400000D03*
G54D29*
X1039010Y927100D03*
G54D47*
X2928010Y227710D03*
X3167990D03*
G54D66*
G01X596900Y3683790D02*
X501560D01*
G01X596900D02*
X698500D01*
G01X501560D02*
X501120Y3684230D01*
X407980D01*
G01X772400Y3683790D02*
X698500D01*
G01X1333500Y1971040D02*
Y1758130D01*
X1335420Y1756210D01*
Y1722630D01*
X1499070Y1558980D01*
X1499180D01*
G01X2066260Y301200D02*
X2025010D01*
X2006600Y319610D01*
X2005810D01*
X2003270Y322150D01*
G01X1968500Y406400D02*
X1976120D01*
X2120900Y551180D01*
G01X2247900Y3373120D02*
X2308860D01*
X2310130Y3371850D01*
G01X2409200Y388630D02*
Y419100D01*
X2439800Y449700D01*
G01X2440940Y2544600D02*
Y2411650D01*
X2520870Y2331720D01*
X2523410D01*
Y2179500D01*
X2430780Y2086860D01*
Y2038450D01*
X2464990Y2004240D01*
X2526490D01*
X2544090Y2021840D01*
G01X2310130Y3371850D02*
X2369150D01*
X2494000Y3247000D01*
Y2677170D01*
X2440940Y2624110D01*
Y2544600D01*
G01X3167990Y227710D02*
X2928010D01*
G01X2764510D02*
X2928010D01*
G54D57*
X3549990Y5400000D03*
G54D39*
X1409700Y5448300D03*
X3035300Y5461000D03*
G54D48*
X3021660Y771750D03*
X3221660D03*
G54D67*
G01X2327330Y4111020D02*
X2292460Y4076150D01*
X2287380D01*
G01X2087320Y4031030D02*
X2047100Y3986700D01*
G01X2327330Y4031030D02*
X2291610Y3995320D01*
G01X2040900Y4060300D02*
X2041800D01*
X2072700Y4091200D01*
Y4096400D01*
X2087320Y4111020D01*
G01X2136470Y4437030D02*
Y4480150D01*
X2167330Y4511010D01*
G01X2327330Y4591020D02*
X2291610Y4555310D01*
G01X2087320Y4671010D02*
X2121220Y4637110D01*
X2121240D01*
X2167330Y4591020D01*
G01D02*
X2169710D01*
X2206000Y4627310D01*
Y4634000D01*
G01X2207570Y4550740D02*
Y4551270D01*
X2247320Y4591020D01*
G01X2567330Y4111020D02*
X2524000Y4067680D01*
X2487350Y4031030D01*
X2487320D01*
G01X2369820Y4073520D02*
X2407310Y4111020D01*
G01X2638200Y3977100D02*
Y3998440D01*
X2638210Y4021920D01*
X2647320Y4031030D01*
G01X2567330Y4191030D02*
X2596200Y4219900D01*
Y4236900D01*
G01X2407310Y4031030D02*
X2371600Y3995320D01*
G01X2407310Y4591020D02*
X2371600Y4555310D01*
G01X2647320Y4591020D02*
X2676230Y4562100D01*
X2677890D01*
X2685630Y4554360D01*
G01X2525000Y4629000D02*
X2520590D01*
X2487320Y4662270D01*
Y4671010D01*
G01X2528900Y4702100D02*
X2536240D01*
X2567330Y4671010D01*
G01X2766060Y4074160D02*
X2764180D01*
X2727320Y4111020D01*
G01X2807310D02*
X2762700Y4147300D01*
G01X3005540Y4066100D02*
X3010300Y4070860D01*
Y4074020D01*
X3047310Y4111020D01*
G01X2929280Y4632960D02*
X2887340Y4591020D01*
X2887320D01*
G01X2967330Y4671010D02*
X2929280Y4632960D01*
G01X2887320Y4591020D02*
X2851610Y4555310D01*
G01X2767160Y4550600D02*
X2765160D01*
X2763520Y4552240D01*
Y4554820D01*
X2727320Y4591020D01*
G01X2807310D02*
X2846700Y4630420D01*
G01X3047310Y4671010D02*
X3083030Y4635300D01*
G01X3293430Y3978360D02*
X3292400Y3979390D01*
Y3991500D01*
X3287320Y3996580D01*
Y4031030D01*
G01X3127320D02*
Y3981920D01*
X3125960Y3980560D01*
G01X3208500Y3987000D02*
X3207310Y3988190D01*
Y4031030D01*
G01X3251610Y4635300D02*
X3287320Y4671010D01*
G01X3207310D02*
X3171600Y4635300D01*
G54D58*
G01X707900Y504600D02*
X695700Y516800D01*
G01D02*
Y549800D01*
G01X654700Y626000D02*
X701800Y673100D01*
X1110600D01*
X1193800Y756300D01*
Y846300D01*
X1150620Y889480D01*
Y1066670D01*
G01X589000Y723300D02*
G03X588760Y748140I-1285590J0D01*
G01X478000Y1155700D02*
Y1094740D01*
G01D02*
Y1033780D01*
G01D02*
Y972820D01*
G01X627330Y1224280D02*
X546580D01*
X546440Y1224140D01*
X524760D01*
X478000Y1177380D01*
Y1155700D01*
G01X627330Y1224280D02*
Y1223010D01*
G01Y1224280D02*
X684910Y1166700D01*
X997590D01*
X1043890Y1120400D01*
X1096890D01*
X1150620Y1066670D01*
G01X530330Y2200630D02*
X618770D01*
X652780Y2166620D01*
G01X530330Y1920620D02*
X609980D01*
X644120Y1954760D01*
Y2039620D01*
G01X670430Y2475880D02*
X667430Y2478880D01*
X636430D01*
X634700Y2480610D01*
X530330D01*
G01Y3000630D02*
X645850D01*
G01X530330Y2800630D02*
X637240D01*
X645850Y2809240D01*
G01X530330Y3160620D02*
X645850D01*
G01X867820Y3632230D02*
X816260Y3683790D01*
X772400D01*
G01X774900Y549800D02*
Y501300D01*
X775700Y500500D01*
Y498500D01*
G01X899240Y3361330D02*
Y3313040D01*
G01Y3361330D02*
X1036400D01*
X1067820Y3392750D01*
Y3498110D01*
G01X867820D02*
Y3392750D01*
X899240Y3361330D01*
G01X1067820Y3498110D02*
Y3614420D01*
G01X867820Y3498110D02*
Y3632230D01*
G01X927100Y3619500D02*
X907820Y3600220D01*
Y3498110D01*
G01X774700Y4121300D02*
X789360Y4135960D01*
Y4218840D01*
X813160Y4242640D01*
X823640D01*
X865000Y4284000D01*
G01X1490980Y1064740D02*
X1551940D01*
G01X1430020D02*
X1490980D01*
G01X1369060D02*
X1430020D01*
G01X1150620Y1066670D02*
X1200780Y1116840D01*
X1277620D01*
G01D02*
X1304260D01*
X1356360Y1064740D01*
X1369060D01*
G01X1645920Y1457960D02*
X1667810Y1436070D01*
Y1343130D01*
G01X1147830Y3498110D02*
Y3614420D01*
G01X1347830Y3498110D02*
Y3578280D01*
X1313230Y3612870D01*
X1257130D01*
G01D02*
X1257000Y3613000D01*
G01X1681480Y972820D02*
X1555290D01*
X1530020Y998090D01*
Y1034720D01*
X1551940Y1056640D01*
Y1064740D01*
G01X1739900Y1062200D02*
X1790700D01*
G01X1739900D02*
X1689100D01*
G01D02*
Y980440D01*
X1681480Y972820D01*
G01X1790700Y947900D02*
X1760460D01*
X1739660Y927100D01*
X1701800D01*
G01D02*
Y952500D01*
X1681480Y972820D01*
G01X1667810Y1231900D02*
Y1343130D01*
G01X2107820D02*
Y1452550D01*
X2112010Y1456740D01*
Y1458650D01*
G01X2067810Y1343130D02*
Y1470760D01*
X2059940Y1478630D01*
G01X2898140Y922020D02*
X2899770Y922010D01*
X2908910D01*
X2951520Y964620D01*
Y1052900D01*
X2837800Y1166620D01*
X2517920D01*
X2517620Y1166320D01*
X2483940D01*
X2483130Y1167130D01*
X2180590D01*
X2147820Y1199900D01*
Y1343130D01*
G01D02*
Y1420110D01*
X2155190Y1427480D01*
Y1476550D01*
X2100120Y1531620D01*
X2037080D01*
X2003820Y1498360D01*
Y1474120D01*
X2006000Y1477800D01*
G01X2107820Y3380050D02*
Y3498110D01*
G01X2633500Y1346200D02*
Y1394230D01*
G01Y1282700D02*
Y1346200D01*
G01X2567940Y1680620D02*
X2685310D01*
G01Y1840610D02*
X2685920Y1840000D01*
X2805910D01*
G01X2870990Y1686230D02*
X2844010Y1713200D01*
Y1738530D01*
X2818740Y1763800D01*
X2782930D01*
X2779750Y1760630D01*
X2685310D01*
G01Y1800630D02*
X2765420D01*
X2769230Y1796820D01*
X2832430D01*
X2851250Y1778000D01*
X2865600D01*
G01X2685310Y1880620D02*
X2780360D01*
X2782930Y1883180D01*
X2904800D01*
X2925600Y1903980D01*
Y1921100D01*
G01X2685310Y1960630D02*
X2603250D01*
X2565400Y1922780D01*
Y1884680D01*
G01X2685310Y2120620D02*
X2547160D01*
X2489200Y2062660D01*
G01X2685310Y2160630D02*
X2764430D01*
X2806700Y2118360D01*
Y2115820D01*
G01X2685310Y1920620D02*
X2791840D01*
X2799080Y1927860D01*
G01X2685310Y2000630D02*
X2594990D01*
X2509520Y1915160D01*
Y1884680D01*
G01X2685310Y2080620D02*
X2770660D01*
X2805460Y2045820D01*
Y2030650D01*
X2839670Y1996440D01*
X2865600D01*
G01X2544090Y2021840D02*
X2545080D01*
X2563850Y2040610D01*
X2685310D01*
G01Y2600630D02*
X2523490D01*
X2518410Y2595550D01*
G01X2572330Y3048790D02*
Y2990280D01*
X2601990Y2960620D01*
X2685310D01*
G01X2720600Y3477700D02*
X2539100D01*
X2513200Y3451800D01*
X2513600Y3457900D01*
G01D02*
X2513200Y3413070D01*
X2492880Y3392750D01*
X2454200D01*
X2448550Y3398400D01*
X2446710D01*
X2427810Y3417300D01*
Y3498110D01*
G01X2675100Y3594100D02*
Y3523200D01*
X2720600Y3477700D01*
G01X2692400Y1417800D02*
X2755900D01*
G01X2692400D02*
Y1369060D01*
G01X2755900Y1417800D02*
Y1369060D01*
G01X2971800Y1549880D02*
X2924020D01*
X2921480Y1552420D01*
G01X2872740Y1549880D02*
X2918940D01*
X2921480Y1552420D01*
G01X2925600Y1778000D02*
Y1841500D01*
G01D02*
X2969260D01*
X2974340Y1836420D01*
G01X2971800Y1609880D02*
X2924320D01*
X2921000Y1613200D01*
G01X2971010Y1686230D02*
Y1610670D01*
X2971800Y1609880D01*
G01X3061490Y1790700D02*
X3008660D01*
X2964440Y1746480D01*
X2882760D01*
X2865600Y1763640D01*
Y1778000D01*
G01Y1841500D02*
Y1778000D01*
G01X2925600Y1996440D02*
X2967690D01*
X2978630Y2007390D01*
G01X2865600Y1921100D02*
X2805840D01*
X2799080Y1927860D01*
G01X2720600Y3477700D02*
X2731900Y3466400D01*
G01X2895600Y5029990D02*
X2897080D01*
X2934330Y4992740D01*
X2934590Y4993000D01*
X2961000D01*
X2991100Y4962900D01*
Y4929100D01*
G01X3281200Y1348800D02*
Y1451660D01*
X3246300Y1486560D01*
Y1541200D01*
G01X3331200Y1348800D02*
Y1458690D01*
X3300750Y1489140D01*
Y1544350D01*
G01X3380400Y1543700D02*
Y1480730D01*
X3381200Y1479930D01*
Y1348800D01*
G54D49*
X2848000Y442700D03*
X3248000D03*
G54D68*
G01X2454500Y4549370D02*
X2466600Y4561470D01*
Y4568730D01*
X2487320Y4589450D01*
Y4591020D01*
G01X2533770Y4549960D02*
X2533800Y4549990D01*
Y4560940D01*
X2563880Y4591020D01*
X2567330D01*
G54D59*
G01X2167330Y4191030D02*
X2126530Y4150230D01*
X2121460D01*
X2121120Y4149890D01*
X2119540D01*
G01X2727320Y4191030D02*
X2750030D01*
X2787810Y4228810D01*
X2801980D01*
X2847420Y4274250D01*
Y4335270D01*
X2812300Y4370390D01*
X2738090D01*
X2716920Y4349220D01*
Y4331640D01*
X2684900Y4299620D01*
Y4288840D01*
X2647780Y4251720D01*
Y4251290D01*
G01X2807310Y4191030D02*
X2877900Y4261620D01*
Y4347900D01*
X2824930Y4400870D01*
X2725460D01*
X2686440Y4361850D01*
Y4344270D01*
X2646800Y4304630D01*
G01X2527370Y4386620D02*
Y4470960D01*
X2487320Y4511010D01*
G01X2567330D02*
Y4502540D01*
X2561580Y4496790D01*
Y4409820D01*
X2580630Y4390770D01*
Y4383600D01*
G01X2800000Y3560000D02*
Y3554320D01*
X2805130Y3549190D01*
Y3529790D01*
X2796250Y3520910D01*
Y3508950D01*
X2796140Y3508840D01*
Y3428300D01*
G02X2780900Y3413060I-15240J0D01*
G01X2729000D01*
G03Y3382580I0J-15240D01*
G01X2780900D01*
G02X2796140Y3367340I0J-15240D01*
G01Y3312590D01*
X2764160Y3280610D01*
X2685310D01*
G01X2860000Y3560000D02*
X2852410D01*
X2836880Y3544470D01*
Y3516630D01*
X2828000Y3507750D01*
Y3299390D01*
X2769220Y3240610D01*
X2685310D01*
G01X2799750Y3775960D02*
X2806100Y3769610D01*
Y3754830D01*
X2807300Y3753630D01*
Y3681200D01*
X2799600Y3673500D01*
G01X2800000Y3620000D02*
Y3673100D01*
X2799600Y3673500D01*
G01X2853020Y3778800D02*
Y3775920D01*
X2842860Y3765760D01*
Y3699530D01*
X2844670Y3697730D01*
Y3684430D01*
X2855600Y3673500D01*
X2859600D01*
G01X2860000Y3620000D02*
Y3673100D01*
X2859600Y3673500D01*
G54D69*
G01X589000Y663300D02*
Y597100D01*
X588800Y596900D01*
G01D02*
X597800Y587910D01*
G03X648000Y567110I50208J50197D01*
G01X731900Y927100D02*
G03X589100Y784300I0J-142800D01*
G01X588760Y748140D02*
G02X589100Y784300I629404J12164D01*
M02*
