G04 ================== begin FILE IDENTIFICATION RECORD ==================*
G04 Layout Name:  D:/projects/Popcorn/Rev2.0/Brd/Popcorn Computer Rev 2p0_Release.brd*
G04 Film Name:    in1*
G04 File Format:  Gerber RS274X*
G04 File Origin:  Cadence Allegro 16.6-2015-S105*
G04 Origin Date:  Tue Jul 21 11:26:30 2020*
G04 *
G04 Layer:  VIA CLASS/IN1*
G04 Layer:  PIN/IN1*
G04 Layer:  ETCH/IN1*
G04 Layer:  BOARD GEOMETRY/OUTLINE*
G04 *
G04 Offset:    (0.0000 0.0000)*
G04 Mirror:    No*
G04 Mode:      Positive*
G04 Rotation:  0*
G04 FullContactRelief:  No*
G04 UndefLineWidth:     0.1270*
G04 ================== end FILE IDENTIFICATION RECORD ====================*
%FSLAX25Y25*MOMM*%
%IR0*IPPOS*OFA0.00000B0.00000*MIA0B0*SFA1.00000B1.00000*%
%ADD18O,.95X2.1001*%
%ADD11C,.4064*%
%ADD17C,.6604*%
%ADD16C,.4572*%
%ADD20C,.5999*%
%ADD19C,1.1001*%
%ADD15O,1.3X2.7501*%
%ADD12C,4.*%
%ADD10C,1.5001*%
%ADD14O,1.524X1.1176*%
%ADD21C,1.651*%
%ADD13O,1.1999X2.3*%
%ADD22C,.2032*%
%ADD23C,.1016*%
%ADD24C,.1143*%
%ADD25C,.127*%
%ADD26C,.254*%
%ADD27C,.1524*%
%ADD28C,.381*%
%ADD29C,.508*%
%ADD30C,.1397*%
%ADD33C,.61*%
%ADD34C,.7116*%
%ADD36C,.6354*%
%ADD31C,1.0002*%
%ADD37C,2.0086*%
%ADD32C,1.7038*%
%ADD35C,1.8546*%
G75*
%LPD*%
G75*
G36*
G01X3911090Y901700D02*
X3911020Y125150D01*
X3614400D01*
Y127000D01*
X3013700D01*
X3011850Y125150D01*
X2221300D01*
G02X2213230Y141480I3J10161D01*
G03X2164770I-24230J18520D01*
G02X2156700Y125150I-8073J-6169D01*
G01X1833900D01*
Y563900D01*
X1224260D01*
Y125150D01*
X-87360D01*
Y452040D01*
G02X-68970Y458000I10161J1D01*
G03Y558000I68970J50000D01*
G02X-87360Y563960I-8229J5959D01*
G01Y682820D01*
G02X-70110Y690090I10159J-5D01*
G03Y833910I70110J71910D01*
G02X-87360Y841180I-7091J7275D01*
G01Y960040D01*
G02X-68970Y966000I10161J1D01*
G03Y1066000I68970J50000D01*
G02X-87360Y1071960I-8229J5959D01*
G01Y1214040D01*
G02X-68970Y1220000I10161J1D01*
G03Y1320000I68970J50000D01*
G02X-87360Y1325960I-8229J5959D01*
G01Y1468040D01*
G02X-68970Y1474000I10161J1D01*
G03Y1574000I68970J50000D01*
G02X-87360Y1579960I-8229J5959D01*
G01Y1722040D01*
G02X-68970Y1728000I10161J1D01*
G03Y1828000I68970J50000D01*
G02X-87360Y1833960I-8229J5959D01*
G01Y1976040D01*
G02X-68970Y1982000I10161J1D01*
G03Y2082000I68970J50000D01*
G02X-87360Y2087960I-8229J5959D01*
G01Y2230040D01*
G02X-68970Y2236000I10161J1D01*
G03Y2336000I68970J50000D01*
G02X-87360Y2341960I-8229J5959D01*
G01Y2484040D01*
G02X-68970Y2490000I10161J1D01*
G03Y2590000I68970J50000D01*
G02X-87360Y2595960I-8229J5959D01*
G01Y2738040D01*
G02X-68970Y2744000I10161J1D01*
G03Y2844000I68970J50000D01*
G02X-87360Y2849960I-8229J5959D01*
G01Y2992040D01*
G02X-68970Y2998000I10161J1D01*
G03Y3098000I68970J50000D01*
G02X-87360Y3103960I-8229J5959D01*
G01Y3246040D01*
G02X-68970Y3252000I10161J1D01*
G03X66930Y3249290I68974J50000D01*
G02X85070Y3243010I7982J-6284D01*
G01Y3229110D01*
X181110Y3133070D01*
X190280D01*
Y3125660D01*
X188510Y3124140D01*
G03X290140Y2954300I65491J-76138D01*
G01X293220Y2955490D01*
X346210Y2902500D01*
Y2842570D01*
G02X327310Y2837400I-10159J5D01*
G03X339170Y2795870I-73311J-43394D01*
G02X356510Y2803280I10157J226D01*
G01X443210Y2716580D01*
Y2511030D01*
G02X426790Y2503020I-10161J-6D01*
G03X377520Y2477800I-18794J-24022D01*
G01X377610Y2475580D01*
X348930Y2446900D01*
Y2329650D01*
G02X329740Y2325000I-10159J4D01*
G03X338790Y2277790I-75742J-38992D01*
G01X339240Y2282390D01*
X348930D01*
Y2265870D01*
X387240Y2227560D01*
X389280D01*
G02X393170Y2219220I-3J-5079D01*
G03X386070Y2200550I23389J-19580D01*
G02X376550Y2190710I-10154J299D01*
G03X408950Y2159360I1912J-30441D01*
G02X418470Y2169200I10154J-299D01*
G03X444000Y2212960I-1909J30441D01*
G02X453140Y2227560I9137J4441D01*
G01X468290D01*
X620940Y2074910D01*
X630400D01*
Y2067010D01*
X628010Y2065520D01*
G03X669340Y2022470I16109J-25899D01*
G02X684930Y2023940I8403J-5711D01*
G01X1037660Y1671210D01*
Y1417760D01*
X1174730Y1280690D01*
Y981380D01*
G03X1212870I19070J-23800D01*
G01Y1039930D01*
G02X1230210Y1047120I10159J3D01*
G01X1435340Y841990D01*
X1552520D01*
G03X1559790Y835430I23802J19069D01*
G01Y827150D01*
X1570750Y816190D01*
G02X1563570Y798850I-7186J-7181D01*
G01X1381050D01*
G02X1371660Y812890I-1J10159D01*
G03X1310580I-30540J12610D01*
G02X1301190Y798850I-9389J-3881D01*
G01X1183890D01*
X1167820Y814920D01*
X1168150Y817410D01*
G03X1141950Y791210I-30230J4030D01*
G01X1144440Y791540D01*
X1170190Y765790D01*
X1573230D01*
X1724150Y614870D01*
X1829350D01*
X1946380Y497840D01*
X2467000D01*
G02X2474990Y481410I-3J-10159D01*
G03X2505020Y432700I24009J-18810D01*
G01X2507680Y433240D01*
X2513200Y427720D01*
X2503060Y417580D01*
X2366740D01*
X2327360Y456960D01*
X1968740D01*
X1943340Y431560D01*
G03X1993660Y381240I25160J-25160D01*
G01X1998220Y385800D01*
X2297880D01*
X2337260Y346420D01*
X2532540D01*
X2628560Y442440D01*
G03X2635370Y483220I-25159J25160D01*
G02X2644500Y497840I9127J4461D01*
G01X2824380D01*
G03X2826540Y494650I26285J15472D01*
G02X2824870Y487040I-4020J-3106D01*
G03X2878270Y482510I23131J-44340D01*
G02X2875990Y496270I6148J8088D01*
G03X2879660Y522800I-25310J17020D01*
G02X2889310Y536130I9652J3170D01*
G01X3460190D01*
X3468220Y544160D01*
X3476550Y538740D01*
G03X3591280Y585540I79450J-30741D01*
G02X3588300Y601970I4206J9248D01*
G01X3716030Y729700D01*
G02X3732460Y726720I7182J-7186D01*
G03X3745340Y817470I77540J35284D01*
G02X3727470Y824080I-7711J6613D01*
G01Y953920D01*
G02X3745340Y960530I10159J-3D01*
G03Y1071470I64660J55470D01*
G02X3727470Y1078080I-7711J6613D01*
G01Y1207920D01*
G02X3745340Y1214530I10159J-3D01*
G03Y1325470I64660J55470D01*
G02X3727470Y1332080I-7711J6613D01*
G01Y1461920D01*
G02X3745340Y1468530I10159J-3D01*
G03Y1579470I64660J55470D01*
G02X3727470Y1586080I-7711J6613D01*
G01Y1694380D01*
G02X3744280Y1702060I10160J-1D01*
G03X3892720Y1721050I65720J75941D01*
G02X3911250Y1715290I8370J-5760D01*
G01Y901700D01*
X3911090D01*
G37*
G36*
G01X-87360Y3357960D02*
Y3500040D01*
G02X-68970Y3506000I10161J1D01*
G03X66930Y3503290I68974J50000D01*
G02X85070Y3497010I7982J-6284D01*
G01Y3360990D01*
G02X66930Y3354710I-10158J4D01*
G03X-68970Y3352000I-66926J-52710D01*
G02X-87360Y3357960I-8229J5959D01*
G37*
G36*
G01Y3611960D02*
Y3754040D01*
G02X-68970Y3760000I10161J1D01*
G03X44070Y3737090I68975J49999D01*
G01X47470Y3739150D01*
X85070Y3701550D01*
Y3614990D01*
G02X66930Y3608710I-10158J4D01*
G03X-68970Y3606000I-66926J-52710D01*
G02X-87360Y3611960I-8229J5959D01*
G37*
G36*
G01X112970Y3744930D02*
G02X95630Y3737750I-10159J6D01*
G01X70850Y3762530D01*
X72910Y3765930D01*
G03X-68970Y3860000I-72904J44072D01*
G02X-87360Y3865960I-8229J5959D01*
G01Y4008040D01*
G02X-68970Y4014000I10161J1D01*
G03X44070Y3991090I68975J49999D01*
G01X47470Y3993150D01*
X112970Y3927650D01*
Y3744930D01*
G37*
G36*
G01X3911540Y5820160D02*
X3911510Y5543000D01*
Y5060010D01*
X3911500Y5060000D01*
Y4894610D01*
G02X3894160Y4887420I-10160J-2D01*
G01X3868420Y4913160D01*
G02X3871000Y4929410I7180J7190D01*
G03X3875110Y4981280I-13811J27192D01*
G02X3873900Y4996690I5969J8221D01*
G01X3887530Y5010320D01*
Y5012530D01*
G03X3883750Y5020430I-10160J-7D01*
G02X3881600Y5033840I6389J7902D01*
G03X3749810Y5140280I-71603J46152D01*
G02X3732470Y5147470I-7179J7192D01*
G01Y5164130D01*
X3657750Y5238850D01*
X2894620D01*
X2833380Y5177610D01*
G02X2816410Y5182100I-7177J7187D01*
G03X2810190Y5193810I-29403J-8111D01*
G02X2810050Y5200240I3861J3301D01*
G03X2806740Y5241360I-24050J18757D01*
G02X2805470Y5254830I6913J7447D01*
G03X2806810Y5288980I-24571J18065D01*
G01X2804690Y5292410D01*
X2827230Y5314950D01*
X2829660Y5314680D01*
G03X2850750Y5320200I3332J30318D01*
G02X2864240Y5318700I5909J-8266D01*
G03X2907250Y5316200I22758J20302D01*
G02X2920750I6750J-7601D01*
G03Y5361800I20250J22800D01*
G02X2907250I-6750J7601D01*
G03X2869250Y5363800I-20253J-22802D01*
G02X2855760Y5365300I-5909J8266D01*
G03X2840640Y5374530I-22767J-20296D01*
G02X2836000Y5391550I2546J9836D01*
G01X2901370Y5456910D01*
X2903860Y5456580D01*
G03X2884100Y5505900I4029J30233D01*
G02X2868340Y5505800I-7921J6359D01*
G03X2834720Y5457610I-23536J-19403D01*
G02X2838540Y5440840I-3361J-9586D01*
G01X2811940Y5414240D01*
X2744070D01*
G02X2736890Y5431580I6J10159D01*
G01X2759770Y5454470D01*
X2761520Y5454670D01*
G03X2727620Y5488570I-3610J30290D01*
G01X2727420Y5486820D01*
X2699280Y5458690D01*
X2660400D01*
G02X2651060Y5472830I6J10159D01*
G03X2602530Y5507400I-28058J11961D01*
G03X2554320Y5472740I-20027J-23002D01*
G02X2544930Y5458690I-9387J-3889D01*
G01X2530310D01*
X2447390Y5375770D01*
Y5375460D01*
X2412250Y5340320D01*
X2362550D01*
X2327420Y5375450D01*
Y5437380D01*
X2256500Y5508300D01*
G02X2259760Y5524860I7180J7187D01*
G03X2217500Y5552540I-11763J28141D01*
G01Y5547380D01*
X2024680D01*
X1975470Y5498170D01*
G02X1959220Y5500760I-7187J7180D01*
G03X1917490Y5513830I-27221J-13759D01*
G02X1904400Y5516850I-4831J8937D01*
G03X1902350Y5519410I-24797J-17756D01*
G02X1909930Y5536340I7577J6769D01*
G01X1936500D01*
X2079460Y5679300D01*
X2087630D01*
G02X2097460Y5666610I-8J-10158D01*
G03X2146280Y5682630I29536J-7611D01*
G02X2145520Y5697690I6425J7873D01*
G01X2204660Y5756830D01*
X2206410Y5757030D01*
G03X2172510Y5790930I-3610J30290D01*
G01X2172310Y5789180D01*
X2108180Y5725060D01*
X2060500D01*
X1917540Y5582100D01*
X1854040D01*
X1762740Y5490800D01*
Y5456000D01*
X1649600Y5342860D01*
X1602000D01*
X1545840Y5399020D01*
X1044650D01*
X939010Y5293380D01*
X917520D01*
X916230Y5296540D01*
G03X859770I-28230J-11540D01*
G01X858480Y5293380D01*
X669880D01*
X602990Y5360260D01*
G02X607690Y5377300I7186J7186D01*
G03X616330Y5380970I-7461J29571D01*
G02X631370Y5375450I5366J-8629D01*
G03X664430Y5354570I29030J9351D01*
G01X666920Y5354900D01*
X714560Y5307260D01*
X800350D01*
X854840Y5361750D01*
Y5440840D01*
X909080Y5495090D01*
G02X926420Y5487530I7186J-7184D01*
G03X977370Y5463790I30479J-1130D01*
G03X1019030Y5508290I20029J22999D01*
G02X1026240Y5525610I7209J7160D01*
G01X1144560D01*
G02X1153990Y5511660I3J-10160D01*
G03X1152110Y5504710I28296J-11384D01*
G02X1135950Y5498060I-10053J1469D01*
G03X1147780Y5469280I-18349J-24364D01*
G02X1163940Y5475930I10053J-1469D01*
G03X1212610Y5497030I18347J24361D01*
G02X1229900Y5503120I10102J-1091D01*
G01X1240100Y5492920D01*
X1239770Y5490430D01*
G03X1265970Y5516630I30230J-4030D01*
G01X1263480Y5516300D01*
X1221110Y5558670D01*
X925910D01*
X821780Y5454540D01*
Y5375450D01*
X786650Y5340320D01*
X728260D01*
X690300Y5378280D01*
X690630Y5380770D01*
G03X644300Y5410700I-30231J4028D01*
G02X629260Y5416220I-5366J8629D01*
G03X570660Y5414330I-29029J-9353D01*
G02X553620Y5409630I-9854J2486D01*
G01X504780Y5458480D01*
X79420D01*
X40620Y5419680D01*
Y5172120D01*
X91420Y5121320D01*
Y4994330D01*
X181030Y4904720D01*
X277740D01*
X459720Y4722740D01*
Y4646680D01*
G02X445120Y4637540I-10159J-3D01*
G03Y4582660I-13320J-27440D01*
G02X459720Y4573520I4441J-9137D01*
G01Y3942830D01*
X693300Y3709250D01*
Y2574310D01*
X669650D01*
G03X667030Y2577180I-23787J-19084D01*
G02X666410Y2591150I7057J7312D01*
G03X634250Y2640230I-23051J19972D01*
G02X621050Y2649920I-3041J9693D01*
G01Y2680030D01*
G02X636130Y2688920I10161J-1D01*
G03Y2742280I14770J26680D01*
G02X621050Y2751170I-4919J8891D01*
G01Y2771310D01*
G02X634870Y2780790I10161J0D01*
G03Y2837690I10980J28450D01*
G02X621050Y2847170I-3659J9480D01*
G01Y2962700D01*
G02X634870Y2972180I10161J0D01*
G03X622400Y3020140I10979J28456D01*
G02X607410Y3019450I-7810J6495D01*
G01X382070Y3244790D01*
Y4349930D01*
X273070Y4458930D01*
Y4488880D01*
X276790Y4489920D01*
G03X231210I-22790J82080D01*
G01X234930Y4488880D01*
Y4443130D01*
X257590Y4420470D01*
G02X250790Y4403130I-7180J-7188D01*
G03X325270Y4271330I3211J-85130D01*
G02X343930Y4265770I8501J-5563D01*
G01Y4116230D01*
G02X325270Y4110670I-10159J3D01*
G03X181090Y4019930I-71271J-46671D01*
G01X183150Y4016530D01*
X143410Y3976790D01*
Y3968490D01*
G02X126070Y3961310I-10159J6D01*
G01X70850Y4016530D01*
X72910Y4019930D01*
G03X-68970Y4114000I-72904J44072D01*
G02X-87360Y4119960I-8229J5959D01*
G01Y4262040D01*
G02X-68970Y4268000I10161J1D01*
G03Y4368000I68970J50000D01*
G02X-87360Y4373960I-8229J5959D01*
G01Y4516040D01*
G02X-68970Y4522000I10161J1D01*
G03Y4622000I68970J50000D01*
G02X-87360Y4627960I-8229J5959D01*
G01Y4770040D01*
G02X-68970Y4776000I10161J1D01*
G03Y4876000I68970J50000D01*
G02X-87360Y4881960I-8229J5959D01*
G01Y5332460D01*
X-88130Y5333230D01*
Y5472930D01*
X-87360Y5473700D01*
Y5820160D01*
X212740Y6120260D01*
X692850D01*
Y5770530D01*
X642050D01*
Y5618130D01*
X1684000D01*
Y5600700D01*
X1755000D01*
Y5681160D01*
G02X1770330Y5689910I10160J4D01*
G03Y5742410I15530J26250D01*
G02X1755000Y5751160I-5170J8746D01*
G01Y5771000D01*
X1754170Y5773000D01*
X1707000D01*
Y6121000D01*
X1708000Y6122000D01*
X2303000D01*
Y5771000D01*
X2268000D01*
Y5602700D01*
X2270000Y5600700D01*
X3296900D01*
Y5605430D01*
X3385250D01*
Y5770530D01*
X3334450D01*
Y6120260D01*
X3911560D01*
X3911540Y5820160D01*
G37*
G36*
G01X325270Y3602670D02*
G03X193810Y3616280I-71266J-46671D01*
G02X176470Y3623470I-7179J7192D01*
G01Y3963090D01*
X206530Y3993150D01*
X209930Y3991090D01*
G03X325270Y4017330I44068J72908D01*
G02X343930Y4011770I8501J-5563D01*
G01Y3608230D01*
G02X325270Y3602670I-10159J3D01*
G37*
G36*
G01X731360Y3735910D02*
X505480Y3961790D01*
Y4138670D01*
G02X523250Y4145400I10160J-2D01*
G03X569920Y4146550I22851J20200D01*
G02X585780I7930J-6350D01*
G03X627630Y4141000I23819J19050D01*
G02X643470Y4135350I6005J-8193D01*
G03X654970Y4167600I29528J7646D01*
G02X639130Y4173250I-6005J8193D01*
G03X585780Y4184650I-29527J-7648D01*
G02X569920I-7930J6350D01*
G03X523250Y4185800I-23819J-19050D01*
G02X505480Y4192530I-7610J6732D01*
G01Y4741700D01*
X296700Y4950480D01*
X199990D01*
X137180Y5013290D01*
Y5140280D01*
X136080Y5141380D01*
G02X143260Y5158720I7186J7181D01*
G01X187740D01*
G02X194800Y5141260I-5J-10160D01*
G03X313200I59200J-61260D01*
G02X320260Y5158720I7065J7300D01*
G01X325980D01*
X387590Y5097110D01*
X385170Y5093620D01*
G03X411150Y5045710I25033J-17425D01*
G02X421620Y5035560I312J-10153D01*
G01Y4948780D01*
X503780Y4866620D01*
X632460D01*
G02X642620Y4856800I5J-10161D01*
G03X648720Y4839480I30481J1001D01*
G02X648580Y4833200I-4064J-3051D01*
G03X695000Y4789980I24518J-20206D01*
G02X702000I3500J-3677D01*
G03X745060Y4789300I21899J23019D01*
G02X761980Y4781720I6761J-7583D01*
G01Y4587070D01*
X908070Y4440980D01*
X908410Y4439620D01*
G03X915160Y4426790I29592J7378D01*
G02X907550Y4409900I-7612J-6730D01*
G01X819220D01*
X748700Y4339380D01*
Y3947470D01*
G02X733100Y3938890I-10161J2D01*
G03X696760Y3936170I-16344J-25751D01*
G03X654690Y3892090I-20002J-23026D01*
G03X697760Y3849110I23068J-19954D01*
G03X733350Y3845920I20002J23028D01*
G02X748700Y3837190I5192J-8731D01*
G01Y3743090D01*
G02X731360Y3735910I-10159J6D01*
G37*
G36*
G01X1985260Y4826000D02*
X1943100Y4868160D01*
Y4881430D01*
G02X1956980Y4890890I10160J5D01*
G03X1988090Y4954640I13020J33112D01*
G02X1986070Y4970570I5165J8748D01*
G01X1993900Y4978400D01*
X2131150D01*
G03X2191980Y4997330I25705J24599D01*
G01X2192250Y4998950D01*
X2209800Y5016500D01*
Y5067300D01*
X2108200Y5168900D01*
X2100920D01*
X2100290Y5173250D01*
G03X2039910I-30190J-4350D01*
G01X2039280Y5168900D01*
X1244600D01*
X1178530Y5102830D01*
X1176790Y5102620D01*
G03X1158870Y5095080I4314J-35318D01*
G02X1152530I-3170J3970D01*
G03X1104500Y5042800I-22228J-27782D01*
G02X1104320Y5028620I-7366J-6998D01*
G01X1088740Y5013040D01*
X826110D01*
X754360Y4941290D01*
Y4932660D01*
X713570Y4891870D01*
X712450Y4891490D01*
G03X701670Y4885580I11458J-33685D01*
G02X695330I-3170J3970D01*
G03X643020Y4876800I-22229J-27780D01*
G01X508000D01*
X431800Y4953000D01*
Y5047930D01*
G03X395290Y5108510I-21600J28274D01*
G01X392080Y5107020D01*
X382600Y5116500D01*
X387240Y5121140D01*
X388690Y5121460D01*
G03X348370Y5170370I-7686J34738D01*
G02X331860Y5167240I-9320J4050D01*
G01X330200Y5168900D01*
X119330D01*
X101600Y5186630D01*
Y5372100D01*
X127000Y5397500D01*
X452170D01*
G02X461750Y5383960I1J-10158D01*
G03X475600Y5342470I33548J-11858D01*
G02X478420Y5328370I-5629J-8458D01*
G03X523550Y5340600I29580J-19771D01*
G02X521960Y5348540I2215J4573D01*
G03X522680Y5349380I-26650J23572D01*
G02X537690Y5350080I7824J-6483D01*
G01X703450Y5184320D01*
X788600D01*
G02X798020Y5170350I2J-10160D01*
G03X863980I32980J-13350D01*
G02X873400Y5184320I9418J3810D01*
G01X905440D01*
X1029720Y5308600D01*
X1124720D01*
G03X1180480Y5302980I30078J19002D01*
G02X1187230Y5303500I3666J-3517D01*
G03X1223900Y5299580I21570J28299D01*
G02X1230550Y5297360I2161J-4596D01*
G03X1276130Y5281350I31447J16642D01*
G02X1290320Y5271640I4037J-9324D01*
G03X1345040Y5289010I30479J-1140D01*
G02X1345550Y5295740I4042J3078D01*
G03X1352800Y5305740I-24744J25568D01*
G01X1354190Y5308600D01*
X1367460D01*
G02X1374840Y5291460I0J-10159D01*
G03X1419160I22160J-20960D01*
G02X1426540Y5308600I7380J6981D01*
G01X1466310D01*
X1467690Y5305720D01*
G03X1531830I32070J15420D01*
G01X1533210Y5308600D01*
X1560770D01*
X1579890Y5289480D01*
X1671710D01*
X1690830Y5308600D01*
X1724080D01*
G02X1730510Y5290570I5J-10160D01*
G03X1775490I22490J-27570D01*
G02X1781920Y5308600I6425J7870D01*
G01X1865030D01*
X1867590Y5306040D01*
X2186620D01*
G02X2195140Y5290350I-2J-10159D01*
G03X2203210Y5242870I29859J-19351D01*
G02X2204460Y5236250I-3111J-4016D01*
G03X2245420Y5183980I30542J-18250D01*
G01X2248340Y5184880D01*
X2280860Y5152360D01*
X2400700D01*
Y5021430D01*
X2359640Y4980370D01*
Y4937390D01*
X2294570Y4872320D01*
X2150570D01*
X2104250Y4826000D01*
X1985260D01*
G37*
G36*
G01X1189380Y1769120D02*
X774720Y2183780D01*
Y2217140D01*
X718140Y2273720D01*
G02X725330Y2291060I7187J7180D01*
G01X770560D01*
X1241850Y1819780D01*
G02X1235250Y1802450I-7185J-7186D01*
G03X1206670Y1775230I1749J-30450D01*
G02X1189380Y1769120I-10103J1070D01*
G37*
G36*
G01X349730Y3183870D02*
X356700D01*
X560050Y2980520D01*
Y2889290D01*
G02X542710Y2882110I-10159J6D01*
G01X392450Y3032370D01*
Y3128890D01*
X346140Y3175200D01*
G02X349730Y3183870I3592J3591D01*
G37*
G36*
G01X491910Y2757740D02*
X409750Y2839900D01*
Y2907850D01*
G02X427090Y2915030I10159J-6D01*
G01X509250Y2832870D01*
Y2764930D01*
G02X491910Y2757740I-10160J-3D01*
G37*
G36*
G01X1451140Y880130D02*
X1242070Y1089200D01*
Y1307390D01*
X1101200Y1448260D01*
Y1453090D01*
G02X1115950Y1462160I10161J4D01*
G03X1144120Y1519110I14352J28343D01*
G02X1141990Y1536020I4421J9146D01*
G03X1113820Y1591130I-20489J24282D01*
G02X1101200Y1600990I-2461J9856D01*
G01Y1687500D01*
G02X1113770Y1697370I10160J0D01*
G03X1144790Y1707910I7233J29631D01*
G02X1159900Y1708740I7927J-6354D01*
G01X1248170Y1620470D01*
X1448810D01*
X1449500Y1621160D01*
X1462010D01*
X1547810Y1706970D01*
X1548870Y1707360D01*
G03X1567360Y1722730I-12162J33437D01*
G02X1583290Y1724760I8752J-5157D01*
G01X1609070Y1698980D01*
Y1599430D01*
G02X1594050Y1590500I-10161J-7D01*
G03Y1534700I-15190J-27900D01*
G02X1609070Y1525770I4859J-8923D01*
G01Y951410D01*
G02X1593520Y942790I-10161J-6D01*
G03X1554810Y896390I-16170J-25857D01*
G02X1554550Y882420I-7508J-6848D01*
G03X1552520Y880130I21779J-21351D01*
G01X1451140D01*
G37*
G36*
G01X2004150Y1202010D02*
X1999160Y1207000D01*
X1962660D01*
G03X1957220Y1212650I-24508J-18153D01*
G01Y1241300D01*
X1698010Y1500510D01*
Y1735840D01*
X1632920Y1800930D01*
G02X1635260Y1817040I7184J7181D01*
G03X1593900Y1858400I-14550J26810D01*
G02X1577790Y1856060I-8929J4844D01*
G01X1521070Y1912780D01*
G02X1528260Y1930120I7187J7181D01*
G01X1648320D01*
X1753800Y1824640D01*
G02X1751650Y1808630I-7184J-7185D01*
G03X1759380Y1752550I15113J-26490D01*
G01X1760740Y1752210D01*
X1790880Y1722070D01*
X1795740D01*
X1952170Y1565640D01*
Y1495680D01*
X1974510Y1473350D01*
X1974800Y1471810D01*
G03X2026810Y1453790I31202J5988D01*
G02X2039880Y1453990I6654J-7675D01*
G03X2071170Y1448910I20058J24640D01*
G02X2083780Y1444070I3586J-9505D01*
G03X2143780Y1458650I28229J14580D01*
G01Y1626540D01*
X2062500Y1707820D01*
Y1778880D01*
G02X2078880Y1786910I10160J-3D01*
G03X2117750Y1788160I18680J24110D01*
G02X2131190I6720J-7621D01*
G03Y1833880I20190J22860D01*
G02X2117750I-6720J7621D01*
G03X2103680Y1840900I-20192J-22859D01*
G02X2098540Y1858040I2040J9953D01*
G01X2103040Y1862540D01*
Y1984680D01*
X1968480Y2119230D01*
G03X1923560Y2074310I-22460J-22460D01*
G01X1932280Y2065580D01*
X1927200Y2060490D01*
X1925080Y2060500D01*
G03X1902160Y2009790I-79J-30499D01*
G02X1901660Y1995790I-7606J-6737D01*
G03X1945840Y1994210I21339J-21791D01*
G02X1946340Y2008210I7606J6737D01*
G03X1954420Y2021950I-21338J21794D01*
G02X1971400Y2026460I9800J-2677D01*
G01X2039500Y1958360D01*
Y1888860D01*
X1998960Y1848320D01*
Y1681500D01*
X2080240Y1600220D01*
Y1587440D01*
G02X2062900Y1580260I-10159J6D01*
G01X1722980Y1920170D01*
G02X1729880Y1937510I7186J7184D01*
G03X1698510Y1968880I-880J30490D01*
G02X1681170Y1961980I-10156J286D01*
G01X1667280Y1975880D01*
X1350170D01*
X1216030Y2110020D01*
G02X1218040Y2125950I7180J7186D01*
G03X1198670Y2182470I-15500J26267D01*
G02X1187830Y2196030I-1294J10078D01*
G03X1130330Y2216390I-28651J10460D01*
G02X1113540Y2212510I-9607J3303D01*
G01X739060Y2586990D01*
Y2692850D01*
G02X756400Y2700030I10159J-6D01*
G01X772610Y2683820D01*
X772280Y2681330D01*
G03X785300Y2652120I30231J-4032D01*
G02X785930Y2635800I-5727J-8393D01*
G03X835230Y2616030I19069J-23802D01*
G01X834900Y2618520D01*
X858580Y2642200D01*
G02X874330Y2648720I9990J-1848D01*
G03X867510Y2692500I17301J25116D01*
G01X865980Y2690530D01*
X858410D01*
Y2700460D01*
X825670Y2733200D01*
X824180D01*
X807160Y2750220D01*
Y3289940D01*
G02X824500Y3297120I10159J-6D01*
G01X853100Y3268520D01*
X852770Y3266030D01*
G03X905030Y3240910I30231J-4028D01*
G02X919230Y3241380I7340J-7025D01*
G03X939200Y3294390I20571J22517D01*
G02X929070Y3306670I-194J10158D01*
G03X869660Y3320470I-29825J6383D01*
G02X852620Y3315760I-9854J2472D01*
G01X846530Y3321850D01*
Y3431270D01*
G02X863870Y3438450I10159J-6D01*
G01X1021200Y3281120D01*
X1020870Y3278630D01*
G03X1081020Y3268670I30233J-4027D01*
G02X1098170Y3273880I9965J-1971D01*
G01X1616040Y2756010D01*
X1827630D01*
X1919070Y2664570D01*
X2483070D01*
X2508170Y2639470D01*
G02X2505340Y2623110I-7184J-7182D01*
G03X2545970Y2582480I13070J-27560D01*
G02X2562330Y2585310I9178J-4354D01*
G01X2565380Y2582260D01*
Y1983660D01*
X2488550Y1906830D01*
G03X2487410Y1905690I20990J-22130D01*
G01X2487370Y1905640D01*
X2486610Y1904890D01*
X2485550Y1903540D01*
G03X2530480Y1862520I23967J-18865D01*
G02X2544440I6980J-7379D01*
G03X2595690Y1881070I20962J22158D01*
G01X2595890Y1882820D01*
X2618590Y1905510D01*
G02X2635930Y1898330I7181J-7186D01*
G01Y1603810D01*
X2680730Y1559150D01*
G02X2673560Y1541800I-7176J-7191D01*
G01X2454500D01*
X2406770Y1494070D01*
G02X2389910Y1498150I-7186J7181D01*
G03X2382120Y1510900I-30242J-9723D01*
G01X2294910Y1598120D01*
Y2464530D01*
X2180460Y2578970D01*
G03X2135540Y2534050I-22460J-22460D01*
G01X2231370Y2438210D01*
Y1571800D01*
X2249570Y1553600D01*
G02X2244580Y1536500I-7186J-7181D01*
G03X2238600Y1534580I7454J-33490D01*
G01X2237650Y1534180D01*
X2192880D01*
X2158980Y1500280D01*
Y1407680D01*
X2012820Y1261520D01*
Y1205600D01*
G02X2004150Y1202010I-5079J2D01*
G37*
G36*
G01X2577320Y567360D02*
G02X2570140Y584700I6J10159D01*
G01X2608600Y623160D01*
Y680220D01*
X2635080Y706700D01*
X2637570Y706370D01*
G03X2651880Y765320I4034J30233D01*
G02X2648120Y782060I3427J9562D01*
G01X2689440Y823380D01*
G02X2705110Y821780I7183J-7183D01*
G03X2753450Y858730I25490J16748D01*
G02X2753330Y872060I7608J6734D01*
G03X2723760Y921690I-23191J19806D01*
G02X2711470Y931630I-2129J9936D01*
G01Y947010D01*
X2730680Y966220D01*
X2732350Y966470D01*
G03X2751760Y977580I-4390J30181D01*
G01X2795240D01*
X2879600Y1061940D01*
Y1149990D01*
X2863870Y1165720D01*
Y1430440D01*
X2674070Y1619650D01*
Y1925070D01*
X2674640Y1925640D01*
Y2624630D01*
X2674070Y2625200D01*
Y2697500D01*
X2587290Y2784280D01*
X2587380Y2786500D01*
G03X2558100Y2757220I-30480J1200D01*
G01X2560320Y2757310D01*
X2635930Y2681700D01*
Y2651940D01*
G02X2618590Y2644760I-10159J6D01*
G01X2403160Y2860190D01*
X1659200D01*
X1079520Y3439870D01*
Y4157090D01*
X1126060Y4203630D01*
Y4232010D01*
X1219730Y4325680D01*
X1278620D01*
X1320820Y4367880D01*
Y4368540D01*
X1384400Y4432120D01*
X1602080D01*
X1659080Y4489120D01*
X1747460D01*
G02X1757090Y4475720I1J-10160D01*
G03X1805370Y4442440I28910J-9720D01*
G02X1812940Y4441160I3230J-3922D01*
G03X1813970Y4439580I26051J15857D01*
G02X1812110Y4432150I-4171J-2904D01*
G03X1811030Y4378430I13892J-27150D01*
G02X1813220Y4362390I-4990J-8851D01*
G01X1808270Y4357440D01*
X1740790D01*
X1727070Y4343720D01*
G02X1709920Y4348930I-7184J7182D01*
G03X1652510Y4356210I-29918J-5930D01*
G02X1640050Y4351010I-9154J4406D01*
G03X1636740Y4351560I-3298J-9611D01*
G01X1629470D01*
X1530040Y4252130D01*
Y4239690D01*
X1527360Y4237010D01*
X1522120D01*
X1515390Y4230280D01*
G02X1499060Y4233050I-7181J7188D01*
G03X1450770Y4197500I-27462J-13270D01*
G02X1449370Y4181570I-6942J-7416D01*
G03X1447840Y4180510I16598J-25591D01*
G02X1434350Y4181760I-6047J8161D01*
G03X1406840Y4191060I-22345J-20761D01*
G02X1395350Y4198310I-1714J10013D01*
G03X1338110Y4202340I-29347J-8309D01*
G02X1324870Y4197100I-9287J4118D01*
G03X1317820Y4199120I-11866J-28100D01*
G02X1309280Y4209600I1609J10030D01*
G03X1248430Y4213710I-30472J1360D01*
G02X1238740Y4204470I-10119J911D01*
G03X1235920Y4204230I1174J-30477D01*
G02X1230170Y4209640I-684J5034D01*
G03X1172280Y4198680I-30414J2280D01*
G02X1168590Y4185710I-9153J-4406D01*
G03X1211020Y4144080I16414J-25709D01*
G02X1224760Y4147580I8666J-5300D01*
G03X1270470Y4175310I15239J26420D01*
G02X1276010Y4180590I5076J220D01*
G03X1278110Y4180470I2789J30371D01*
G02X1283000Y4174480I-110J-5081D01*
G03X1340890Y4156660I30003J-5473D01*
G02X1354130Y4161900I9287J-4118D01*
G03X1371160Y4159940I11862J28100D01*
G02X1382650Y4152690I1714J-10013D01*
G03X1430160Y4136490I29350J8308D01*
G02X1443650Y4135240I6047J-8161D01*
G03X1456140Y4127140I22339J20767D01*
G01X1457260Y4126760D01*
X1461680Y4122330D01*
X1454690Y4115340D01*
Y4067030D01*
X1409180Y4021520D01*
G02X1393250Y4023530I-7186J7182D01*
G03X1339130Y4020400I-26252J-15529D01*
G02X1325390Y4015400I-9282J4129D01*
G03X1316540Y3957840I-13392J-27401D01*
G01X1319070Y3958220D01*
X1324480Y3952820D01*
X1317930Y3946270D01*
Y3460100D01*
X1415510Y3362520D01*
G02X1408670Y3345180I-7183J-7185D01*
G03X1391900Y3339470I1022J-30483D01*
G02X1376030Y3345600I-5933J8248D01*
G03X1323320Y3359430I-29833J-6340D01*
G02X1310110Y3357660I-7623J6715D01*
G03X1316210Y3312020I-16779J-25470D01*
G02X1329420Y3313790I7623J-6715D01*
G03X1336110Y3310480I16769J25476D01*
G02X1341220Y3295290I-3366J-9587D01*
G03X1368860Y3248060I25450J-16809D01*
G02X1379750Y3238070I732J-10133D01*
G03X1391280Y3214620I30497J435D01*
G02X1393050Y3200530I-6325J-7951D01*
G03X1436340Y3206000I24317J-18410D01*
G02X1434570Y3220090I6325J7951D01*
G03X1403040Y3268130I-24319J18406D01*
G02X1396820Y3273840I-1199J4936D01*
G03X1396990Y3275210I-30175J4440D01*
G02X1407750Y3284260I10102J-1089D01*
G03X1440180Y3313670I1947J30438D01*
G02X1457520Y3320510I10155J-343D01*
G01X1844830Y2933200D01*
X2632560D01*
X2732930Y2832830D01*
Y1809100D01*
X2782540Y1759490D01*
G02X2781720Y1744390I-7186J-7182D01*
G03X2784300Y1694990I19111J-23769D01*
G01Y1614130D01*
X2936960Y1461470D01*
X3383820D01*
X3453470Y1531120D01*
G02X3470810Y1523940I7181J-7186D01*
G03X3599000Y1597540I85190J59D01*
G02X3604130Y1616470I5130J8770D01*
G01X3630370D01*
G03X3677190Y1611060I25633J16530D01*
G02X3694410Y1603760I7061J-7304D01*
G01Y754840D01*
X3568240Y628670D01*
X3505970D01*
X3446490Y569190D01*
X2827520D01*
X2825690Y567360D01*
X2577320D01*
G37*
G36*
G01X978330Y4452300D02*
G03X976660Y4513260I-124J30499D01*
G02X966120Y4521810I-507J10147D01*
G03X961920Y4533080I-30120J-4807D01*
G02X966670Y4547820I8634J5353D01*
G03X976190Y4597930I-11672J28177D01*
G02X975190Y4611430I7060J7310D01*
G03X973490Y4650600I-24191J18572D01*
G02X975240Y4665840I7495J6860D01*
G03X983400Y4707890I-17239J25162D01*
G02X986890Y4722380I8456J5629D01*
G03X997630Y4732470I-14895J26615D01*
G01X1093970D01*
X1145240Y4681200D01*
X1408790D01*
G02X1415970Y4663860I-6J-10159D01*
G01X1380010Y4627900D01*
X1265720D01*
X1191240Y4553420D01*
Y4516620D01*
X1104760Y4430140D01*
X1053440D01*
X1013470Y4390160D01*
G02X997220Y4392760I-7183J7187D01*
G03X963760Y4408850I-27217J-13763D01*
G01X962240Y4408530D01*
G03X958400Y4409680I-6630J-15154D01*
G01X958350Y4409900D01*
X956210D01*
G03X955640Y4409910I-575J-16530D01*
G01X948430D01*
Y4418160D01*
X951300Y4419550D01*
G03X968280Y4443350I-13302J27447D01*
G02X978330Y4452300I10088J-1210D01*
G37*
G36*
G01X867470Y4872250D02*
G03X827230Y4886700I-27472J-13249D01*
G02X812820Y4895930I-4251J9227D01*
G01Y4917070D01*
X850330Y4954580D01*
X971980D01*
G02X981730Y4941570I-2J-10160D01*
G03X982860Y4921240I29270J-8569D01*
G02X973490Y4907160I-9374J-3920D01*
G01X921480D01*
X883810Y4869480D01*
G02X867470Y4872250I-7187J7184D01*
G37*
G36*
G01X1356070Y3899220D02*
G02X1373110Y3906700I10161J1D01*
G03X1379850Y3901990I20682J22418D01*
G01X1382620Y3897470D01*
X1382310Y3895730D01*
G03X1392920Y3847660I42950J-15726D01*
G01X1438050Y3802520D01*
X1579210D01*
X1651740Y3875050D01*
Y3877630D01*
X1653690Y3879580D01*
Y3910460D01*
X1657370Y3911520D01*
G03X1680340Y3940910I-8779J30532D01*
G02X1688910Y3950580I10155J-367D01*
G03X1701750Y4008290I-4934J31381D01*
G01X1701350Y4008570D01*
X1697410Y4012500D01*
X1703170Y4018260D01*
X1761360D01*
X1774450Y4031350D01*
X1783560Y4022240D01*
X1781710Y4018890D01*
G03X1829970Y3979200I27792J-15392D01*
G01X1863240D01*
X1863980Y3975000D01*
G03X1868320Y3963660I31293J5476D01*
G02X1867390Y3957180I-4311J-2688D01*
G03X1865550Y3955450I29531J-33252D01*
G01X1784330Y3874220D01*
Y3440520D01*
X1737170Y3393360D01*
X1736620D01*
X1689000Y3345740D01*
Y3345230D01*
X1687570Y3343750D01*
G03X1750950Y3281350I31933J-30953D01*
G01X1873270Y3403680D01*
Y3817000D01*
G02X1887660Y3826230I10159J-6D01*
G03X1936220Y3834950I18011J39269D01*
G01X1938820Y3837550D01*
X1941980Y3836200D01*
G03X1985060Y3841440I17030J39701D01*
G02X1991800Y3840900I3067J-4050D01*
G03X2035620Y3838830I22994J21921D01*
G02X2048550Y3839170I6671J-7665D01*
G03X2047290Y3888180I19571J25024D01*
G02X2034360Y3887840I-6671J7665D01*
G03X2008320Y3893920I-19572J-25021D01*
G01X2007800Y3893820D01*
X2002200D01*
Y3904010D01*
X2052200Y3954010D01*
Y4030440D01*
X2055020Y4031840D01*
G03X2052800Y4089760I-14119J28461D01*
G01X2049630Y4094470D01*
X2049930Y4096190D01*
G03X2050620Y4125160I-43029J15518D01*
G03X2069180Y4144180I-11374J29665D01*
G01X2070380Y4147560D01*
X2087590D01*
X2088420Y4143500D01*
G03X2150660I31120J6390D01*
G01X2151490Y4147560D01*
X2170940D01*
X2171460Y4143070D01*
G03X2234580I31560J3660D01*
G01X2235100Y4147560D01*
X2254610D01*
X2255470Y4143550D01*
G03X2312800Y4132360I31061J6679D01*
G02X2328380Y4133830I8399J-5715D01*
G01X2339270Y4122950D01*
G03X2362280Y4110530I32325J32362D01*
G01X2366320Y4109690D01*
Y4035110D01*
X2369650Y4031780D01*
Y4030560D01*
X2365650Y4026560D01*
X2364250Y4026230D01*
G03X2342330Y3982980I7353J-30906D01*
G01X2343650Y3979830D01*
X2314980Y3951150D01*
G02X2301320Y3950500I-7187J7184D01*
G03X2295310Y3954410I-20218J-24503D01*
G02X2296760Y3963970I2271J4546D01*
G03X2264420Y4011750I-5149J31350D01*
G02X2250940Y4008040I-8696J5253D01*
G03X2239820Y3948460I-14939J-28040D01*
G02X2250740Y3935380I1214J-10085D01*
G03X2250520Y3934600I30465J-9014D01*
G02X2236970Y3927910I-9783J2746D01*
G03X2227370Y3866700I-11767J-29512D01*
G02X2238150Y3857760I692J-10134D01*
G03X2256230Y3832730I31548J3743D01*
G01X2259160Y3831360D01*
Y3751650D01*
X2240050Y3732540D01*
X2054850D01*
X2000670Y3678360D01*
Y3618900D01*
X2045920Y3573660D01*
G03X2066690Y3561750I32344J32339D01*
G03X2065260Y3550410I44309J-11348D01*
G01Y3490040D01*
X2115040Y3440260D01*
X2139390D01*
G02X2146580Y3422920I2J-10160D01*
G01X2048540Y3324880D01*
X1860580D01*
X1836400Y3300700D01*
Y3199160D01*
X1852960Y3182600D01*
X1931640D01*
X1957040Y3208000D01*
X2073940D01*
X2099340Y3182600D01*
X2248430D01*
X2249470Y3181560D01*
X2337210D01*
X2348410Y3192760D01*
X2513330D01*
G02X2523160Y3180070I-8J-10158D01*
G03X2522220Y3173430I29546J-7569D01*
G02X2512070Y3163590I-10156J321D01*
G01X2004290D01*
G03X1949120Y3139450I-25634J-16529D01*
G02X1939290Y3126760I-9838J-2532D01*
G01X1901380D01*
X1881520Y3106900D01*
X1879030Y3107230D01*
G03X1905230Y3081030I-4030J-30230D01*
G01X1904900Y3083520D01*
X1915080Y3093700D01*
X1947220D01*
G02X1956350Y3079100I-7J-10159D01*
G03X1966090Y3040940I27439J-13319D01*
G02X1965900Y3024250I-5891J-8279D01*
G03X1955470Y2985870I17100J-25254D01*
G02X1946300Y2971340I-9171J-4371D01*
G01X1860630D01*
X1620970Y3211000D01*
G02X1628490Y3228340I7184J7185D01*
G03X1599020Y3257810I1010J30480D01*
G02X1581680Y3250290I-10155J-336D01*
G01X1356070Y3475900D01*
Y3899220D01*
G37*
G36*
G01X1224300Y4502920D02*
Y4539720D01*
X1279420Y4594840D01*
X1322430D01*
G02X1329610Y4577500I-6J-10159D01*
G01X1159390Y4407280D01*
X1153180D01*
G02X1146000Y4424620I6J10159D01*
G01X1224300Y4502920D01*
G37*
G36*
G01X1421250Y4622380D02*
X1472090Y4673220D01*
X1672430D01*
X1725360Y4726150D01*
G02X1742650Y4719970I7181J-7185D01*
G03X1750580Y4702320I30350J3029D01*
G02X1750830Y4688830I-7471J-6886D01*
G03X1744850Y4660030I23170J-19832D01*
G02X1735140Y4646880I-9710J-2990D01*
G01X1654100D01*
X1612260Y4605040D01*
X1428430D01*
G02X1421250Y4622380I6J10159D01*
G37*
G36*
G01X1205610Y4388780D02*
X1376110Y4559280D01*
X1631220D01*
X1673060Y4601120D01*
X1759510D01*
G02X1766380Y4583470I4J-10161D01*
G03X1758950Y4549030I20621J-22470D01*
G02X1749600Y4534880I-9345J-3989D01*
G01X1640120D01*
X1583120Y4477880D01*
X1365440D01*
X1275060Y4387500D01*
Y4386840D01*
X1259660Y4371440D01*
X1212790D01*
G02X1205610Y4388780I6J10159D01*
G37*
G36*
G01X1250170Y4985530D02*
X1206500Y5029200D01*
Y5042380D01*
G03X1208360Y5090160I-25400J24915D01*
G01X1205370Y5093730D01*
X1255130Y5143480D01*
X2032400D01*
G02X2041820Y5129520I-3J-10160D01*
G03X2100450Y5115080I28280J-11422D01*
G02X2117740Y5121260I10110J-1008D01*
G01X2184380Y5054620D01*
Y5045320D01*
G02X2170360Y5035920I-10160J-3D01*
G03X2121660Y5008160I-13497J-32919D01*
G01X2121020Y5003820D01*
X1983370D01*
X1970650Y4991100D01*
X1879600D01*
X1866900Y5003800D01*
X1859320D01*
X1858280Y5007520D01*
G03X1856930Y5011470I-34284J-9511D01*
G02X1859180Y5017840I4702J1921D01*
G03X1829620Y5082360I-17169J31165D01*
G01X1828770Y5082040D01*
X1782590D01*
X1779660Y5079100D01*
G02X1763260Y5082000I-7186J7186D01*
G03X1710260Y5095910I-32262J-15000D01*
G03X1653660Y5064110I-21161J-28607D01*
G02X1643540Y5053040I-10118J-911D01*
G01X1628580D01*
G02X1618460Y5064040I4J10159D01*
G03X1560030Y5094170I-35457J2960D01*
G03X1501820Y5060270I-23330J-26866D01*
G02X1487720Y5048980I-9959J-2012D01*
G03X1441520Y5000310I-14518J-32481D01*
G02X1432470Y4985530I-9050J-4619D01*
G01X1250170D01*
G37*
G36*
G01X1926100Y919140D02*
X1922520Y922290D01*
G03X1901160Y929880I-20162J-22888D01*
G01X1898940Y929790D01*
X1672610Y1156120D01*
Y1447440D01*
G02X1689950Y1454630I10159J3D01*
G01X1919080Y1225500D01*
Y1212650D01*
G03X1936120Y1158420I19072J-23799D01*
G02X1945570Y1148990I-685J-10136D01*
G03X1946030Y1145430I30428J2122D01*
G02X1939290Y1133910I-9983J-1891D01*
G03X1955140Y1075130I9710J-28909D01*
G03X1959060Y1067440I28861J9868D01*
G02X1955460Y1059460I-4149J-2930D01*
G03X1935690Y1009190I3300J-30320D01*
G03X1946610Y959750I22070J-21051D01*
G02X1950080Y943110I-3717J-9457D01*
G01X1926100Y919140D01*
G37*
G36*
G01X1859280Y3197860D02*
X1851660Y3205480D01*
Y3294380D01*
X1866900Y3309620D01*
X2054860D01*
X2185500Y3440260D01*
X2329150D01*
X2335670Y3446780D01*
X2456180D01*
X2478660Y3424300D01*
X2494500D01*
X2495080Y3424880D01*
X2849860D01*
Y3322230D01*
X2797700Y3270070D01*
X2608240D01*
X2574600Y3303710D01*
G03X2570230Y3306290I-7186J-7182D01*
G02X2562890Y3316340I2815J9761D01*
G03X2501920Y3318200I-30487J860D01*
G02X2491760Y3308370I-10155J331D01*
G01X2208200D01*
G03Y3270230I-23800J-19070D01*
G01X2277640D01*
G02X2286470Y3255060I-5J-10158D01*
G03X2283460Y3232390I26528J-15057D01*
G02X2273630Y3219700I-9838J-2532D01*
G01X2265270D01*
X2261390Y3223580D01*
X2261480Y3225800D01*
G03X2204030Y3212760I-30477J1199D01*
G02X2195040Y3197860I-8987J-4740D01*
G01X2105660D01*
X2080260Y3223260D01*
X1950720D01*
X1925320Y3197860D01*
X1859280D01*
G37*
G36*
G01X2051030Y628320D02*
X2029460Y649890D01*
X2029260Y651660D01*
G03X1982040Y681250I-35361J-3958D01*
G02X1968500Y690830I-3382J9579D01*
G01Y895450D01*
X1968540Y895490D01*
Y900450D01*
X1977450Y909360D01*
X1982410D01*
X2053450Y980400D01*
Y981400D01*
X2053820Y981770D01*
Y1036510D01*
X2053450Y1036880D01*
Y1167080D01*
X2023000Y1197530D01*
Y1257300D01*
X2169160Y1403460D01*
Y1496060D01*
X2197100Y1524000D01*
X2260600D01*
X2331720Y1452880D01*
X2342680D01*
X2343670Y1452440D01*
G03X2375650I15990J36000D01*
G01X2376640Y1452880D01*
X2379980D01*
X2458720Y1531620D01*
X2692400D01*
X2816860Y1407160D01*
Y1161330D01*
X2812950Y1160400D01*
G03Y1091160I8210J-34620D01*
G01X2816860Y1090230D01*
Y1066800D01*
X2773400Y1023340D01*
X2751490D01*
G03X2704560Y969840I-23531J-26692D01*
G02X2705070Y955010I-6679J-7653D01*
G01X2701290Y951230D01*
Y912690D01*
G03X2700450Y872260I28850J-20823D01*
G01X2701290Y870990D01*
Y858750D01*
X2700510Y857510D01*
G03X2695660Y845240I30088J-18987D01*
G01X2695360Y843700D01*
X2598420Y746760D01*
Y731170D01*
X2590360Y723110D01*
G02X2581690Y726700I-3591J3591D01*
G01Y825270D01*
G03X2528310I-26690J23530D01*
G01Y711860D01*
X2444770Y628320D01*
X2200670D01*
G02X2190530Y639040I3J10158D01*
G03X2189710Y648830I-35528J1954D01*
G02X2199680Y661220I9911J2231D01*
G03X2165190Y688970I219J35580D01*
G02X2155220Y676580I-9911J-2231D01*
G03X2119470Y639040I-222J-35581D01*
G02X2109330Y628320I-10143J-562D01*
G01X2051030D01*
G37*
G36*
G01X2401160Y4608400D02*
X2393090Y4616470D01*
X2394900Y4619810D01*
G03X2338450Y4621060I-27902J15191D01*
G01X2338970Y4620000D01*
Y4613750D01*
X2330220D01*
X2318530Y4625440D01*
X2318690Y4627750D01*
G03X2303360Y4657230I-31689J2247D01*
G02X2301410Y4673120I5236J8707D01*
G01X2312220Y4683930D01*
X2389420D01*
X2413790Y4659560D01*
X2467070D01*
X2499250Y4691740D01*
Y4710790D01*
X2558560Y4770100D01*
X2650010D01*
X2703550Y4716560D01*
X2796910D01*
X2915070Y4834720D01*
Y4858200D01*
G03X2920960Y4864470I-19062J23809D01*
G01X3106210D01*
X3303390Y4667290D01*
G02X3297480Y4657430I-10141J-623D01*
G03X3284550Y4648450I18504J-40441D01*
G01X3243680Y4607570D01*
Y4597870D01*
X3220430Y4574620D01*
Y4400890D01*
G03X3221200Y4392660I44471J10D01*
G02X3211220Y4380610I-9982J-1891D01*
G01X3192360D01*
X3160660Y4412310D01*
G02X3164810Y4429190I7186J7184D01*
G03X3124990Y4469010I-9510J30310D01*
G02X3108110Y4464860I-9696J3036D01*
G01X3042570Y4530400D01*
Y4602320D01*
X2953490Y4691400D01*
X2825030D01*
X2793210Y4659580D01*
G02X2786410Y4659230I-3594J3590D01*
G03X2735540Y4626750I-20090J-24611D01*
G02X2725700Y4614070I-9842J-2520D01*
G01X2662690D01*
X2657020Y4608400D01*
X2565610D01*
G02X2555770Y4621090I-1J10160D01*
G03X2494230I-30770J7910D01*
G02X2484390Y4608400I-9839J-2530D01*
G01X2401160D01*
G37*
G36*
G01X2678290Y4299840D02*
X2678470Y4302170D01*
G03X2626580Y4329140I-31674J2462D01*
G02X2609960Y4336980I-6462J7838D01*
G01Y4351830D01*
X2611180Y4353050D01*
G03X2610040Y4415250I-30551J30551D01*
G01X2608830Y4416400D01*
Y4423660D01*
X2614900D01*
G03Y4515140I0J45740D01*
G01X2583930D01*
G02X2574820Y4529780I7J10159D01*
G03X2578750Y4558260I-41050J20176D01*
G02X2588740Y4570260I9992J1840D01*
G01X2644100D01*
G02X2654160Y4558710I-4J-10160D01*
G03X2716200Y4563010I31471J-4350D01*
G02X2725970Y4575930I9777J2760D01*
G01X2790280D01*
X2819810Y4605460D01*
G02X2826610Y4605810I3594J-3590D01*
G03X2876980Y4640030I20089J24611D01*
G02X2886660Y4653260I9685J3070D01*
G01X2937690D01*
X3004430Y4586520D01*
Y4514600D01*
X3008350Y4510680D01*
X3004100Y4506430D01*
X3003260Y4506050D01*
G03X2990770Y4497700I18830J-41682D01*
G02X2976630Y4497920I-6957J7405D01*
G01X2951690Y4522850D01*
G02X2951290Y4529580I3595J3591D01*
G03X2894580Y4547370I-24991J19618D01*
G02X2884440Y4536620I-10142J-591D01*
G01X2832690D01*
X2801260Y4505190D01*
X2797670Y4508550D01*
G03X2734080Y4507490I-31247J-33401D01*
G01X2700560Y4473980D01*
Y4302100D01*
G02X2683220Y4294920I-10158J4D01*
G01X2678290Y4299840D01*
G37*
G36*
G01X2950660Y1494530D02*
X2817360Y1627830D01*
Y1694990D01*
G03X2829290Y1709650I-16527J25634D01*
G02X2845960Y1713190I9485J-3646D01*
G01X2901930Y1657210D01*
Y1640180D01*
G03X2940070I19070J-26980D01*
G01Y1673010D01*
X2827670Y1785410D01*
X2810560D01*
X2804660Y1791310D01*
G02X2810410Y1808550I7185J7182D01*
G03X2828370Y1817540I-4511J31446D01*
G01X2897870Y1887030D01*
Y3058040D01*
X3040570Y3200740D01*
Y3300690D01*
X3042950Y3303070D01*
G02X3051620Y3299480I3590J-3594D01*
G01Y1889180D01*
G02X3037350Y1879890I-10159J0D01*
G03Y1824110I-12350J-27890D01*
G02X3051620Y1814820I4111J-9290D01*
G01Y1809020D01*
X3223420Y1637220D01*
Y1561370D01*
G03X3268030Y1519800I22881J-20167D01*
G02X3281630Y1520580I7232J-7134D01*
G03X3319190Y1568640I19117J23766D01*
G01Y1645400D01*
X3121520Y1843070D01*
Y2924370D01*
G02X3138860Y2931550I10159J-5D01*
G01X3188660Y2881750D01*
X3205150D01*
G02X3215290Y2872170I-3J-10160D01*
G03X3270760Y2891350I30450J1739D01*
G03X3267520Y2965930I-28038J36142D01*
G03X3262630Y3002190I-26630J14868D01*
G02X3261800Y3015500I7239J7132D01*
G03X3229620Y3063480I-24215J18541D01*
G02X3216800Y3073290I-2660J9805D01*
G01Y3149060D01*
X3225080Y3148940D01*
X3226450Y3146120D01*
G03X3267600Y3120360I41150J19987D01*
G01X3290350D01*
X3381240Y3211250D01*
G02X3398580Y3204070I7181J-7185D01*
G01Y2817340D01*
X3287950Y2706710D01*
G02X3272870Y2707500I-7184J7185D01*
G03X3272140Y2708380I-23834J-19029D01*
G02X3272150Y2721760I7649J6684D01*
G03X3271610Y2762540I-22950J20090D01*
G02X3271200Y2775870I7459J6901D01*
G03X3225180Y2774480I-23614J19301D01*
G02X3225590Y2761150I-7459J-6901D01*
G03X3226230Y2721780I23611J-19306D01*
G02X3226220Y2708400I-7649J-6684D01*
G03X3223170Y2672370I22951J-20087D01*
G03X3231310Y2593000I26330J-37402D01*
G02X3234410Y2576450I-4039J-9322D01*
G03X3233890Y2533550I21420J-21713D01*
G02X3234590Y2520240I-7307J-7058D01*
G03X3236260Y2480730I24039J-18774D01*
G02X3236690Y2467410I-7448J-6907D01*
G03X3238270Y2427100I23650J-19259D01*
G02X3238890Y2413780I-7349J-7017D01*
G03X3284880Y2415910I23921J-18921D01*
G02X3284260Y2429230I7349J7017D01*
G03X3282710Y2468890I-23920J18925D01*
G02X3282280Y2482210I7448J6907D01*
G03X3280570Y2522660I-23650J19261D01*
G02X3279870Y2535970I7307J7058D01*
G03X3280270Y2572990I-24040J18772D01*
G02X3288410Y2589230I8138J6081D01*
G01X3299850D01*
X3465480Y2754860D01*
G02X3481540Y2752610I7181J-7186D01*
G03X3618390Y2735990I74461J41389D01*
G02X3635990Y2729070I7441J-6916D01*
G01Y2350930D01*
G02X3618390Y2344010I-10159J-4D01*
G03X3502910Y2219380I-62390J-58006D01*
G02X3498730Y2201510I-6336J-7942D01*
G03X3531660Y2186870I6467J-29808D01*
G02X3542130Y2201950I8814J5055D01*
G03X3568000Y2201660I13879J84051D01*
G02X3579580Y2192160I1434J-10059D01*
G03X3627600Y2168920I30452J1691D01*
G02X3643610Y2160610I5850J-8307D01*
G01Y2087610D01*
G02X3625200Y2081690I-10159J6D01*
G03X3583360Y1951320I-69199J-49691D01*
G02X3596750Y1940780I3271J-9619D01*
G03X3657350Y1942050I30371J-2771D01*
G01X3657020Y1944540D01*
X3676670Y1964190D01*
Y2201170D01*
X3694450Y2218950D01*
Y3110860D01*
X3694670Y3111080D01*
Y3178460D01*
X3694450Y3178680D01*
Y4202930D01*
X3626850Y4270530D01*
X3628910Y4273930D01*
G03X3630310Y4276330I-72878J44121D01*
G02X3638330Y4277440I4430J-2481D01*
G01X3754840Y4160930D01*
X3833200D01*
G03X3841000Y4154030I23812J19059D01*
G02X3836750Y4144880I-2663J-4325D01*
G03X3860790Y4132390I-26756J-80878D01*
G02X3864390Y4150410I6055J8160D01*
G03X3833200Y4199070I-7388J29590D01*
G01X3770640D01*
X3669130Y4300580D01*
Y4364870D01*
X3602870Y4431130D01*
X3355580D01*
G02X3348300Y4448380I0J10161D01*
G03X3349920Y4490910I-22761J22163D01*
G02X3351970Y4505800I7798J6513D01*
G03X3363350Y4519830I-17967J26203D01*
G02X3375550Y4525700I9385J-3893D01*
G03X3414230Y4559030I8450J29303D01*
G01X3413900Y4561520D01*
X3414610Y4562230D01*
Y4655760D01*
X3163570Y4906800D01*
G02X3167160Y4915470I3592J3591D01*
G01X3175600D01*
X3445410Y4645660D01*
Y4526180D01*
X3510180Y4461410D01*
X3629660D01*
X3689250Y4401820D01*
X3749450D01*
G02X3755910Y4383810I7J-10161D01*
G03X3872970Y4375370I54089J-65812D01*
G02X3875820Y4391240I7512J6842D01*
G03X3887300Y4435150I-13978J27110D01*
G02X3889570Y4448790I8476J5598D01*
G03X3893750Y4452690I-18626J24153D01*
G02X3911500Y4445940I7591J-6752D01*
G01Y3708440D01*
X3911460Y3708400D01*
Y1840400D01*
G02X3892910Y1834670I-10161J2D01*
G03X3744280Y1853940I-82912J-56671D01*
G02X3727470Y1861620I-6650J7681D01*
G01Y1969920D01*
G02X3745340Y1976530I10159J-3D01*
G03Y2087470I64660J55470D01*
G02X3727470Y2094080I-7711J6613D01*
G01Y2180090D01*
X3762530Y2215150D01*
X3765930Y2213090D01*
G03X3737090Y2241930I44070J72910D01*
G01X3739150Y2238530D01*
X3694410Y2193790D01*
Y1662240D01*
G02X3677190Y1654940I-10159J4D01*
G03X3630370Y1649530I-21187J-21940D01*
G01X3525120D01*
X3370120Y1494530D01*
X2950660D01*
G37*
G36*
G01X2771070Y1861730D02*
Y2082510D01*
G02X2787400Y2090580I10159J1D01*
G03X2819940Y2086940I19297J25240D01*
G02X2834330Y2077700I4230J-9237D01*
G01Y1913350D01*
X2783450Y1862460D01*
G03X2780250Y1858740I22412J-22516D01*
G01X2771070Y1861730D01*
G37*
G36*
G01X2797460Y3952680D02*
X2780740Y3969400D01*
X2741110D01*
X2717090Y3993420D01*
Y4198040D01*
X2715190Y4199940D01*
Y4241380D01*
X2703680Y4252890D01*
Y4263610D01*
G02X2721020Y4270790I10159J-5D01*
G01X2760120Y4231690D01*
Y4179230D01*
X2756100Y4178380D01*
G03Y4116220I6600J-31080D01*
G01X2760120Y4115370D01*
Y4110810D01*
X2874160Y3996770D01*
Y3992620D01*
G02X2857680Y3984660I-10160J-5D01*
G03X2806130Y3959800I-19781J-24860D01*
G01Y3956280D01*
G02X2797460Y3952680I-5081J-4D01*
G37*
G36*
G01X3467760Y4767060D02*
X3217710Y5017110D01*
X3194120D01*
X3166920Y5044310D01*
X3156070D01*
G03X3152480Y5035640I2J-5079D01*
G01X3153670Y5034450D01*
G02X3146480Y5017110I-7188J-7180D01*
G01X2989020D01*
X2938050Y5068080D01*
X2866990D01*
G02X2859810Y5085420I6J10159D01*
G01X2929380Y5154990D01*
X3622990D01*
X3648610Y5129370D01*
Y4996950D01*
G02X3631280Y4989750I-10160J0D01*
G03X3583820Y4952090I-21524J-21610D01*
G02X3575180Y4936590I-8641J-5342D01*
G01X3516790D01*
X3499900Y4953480D01*
X3500230Y4955970D01*
G03X3473350Y4990310I-30230J4027D01*
G02X3464550Y5002590I1124J10099D01*
G03X3431410Y4978830I-29786J6554D01*
G02X3440210Y4966550I-1124J-10099D01*
G03X3474030Y4929770I29788J-6548D01*
G01X3476520Y4930100D01*
X3501080Y4905540D01*
G02X3500520Y4890650I-7181J-7185D01*
G03X3482800Y4782420I55480J-64649D01*
G02X3474070Y4767060I-8727J-5201D01*
G01X3467760D01*
G37*
%LPC*%
G75*
G36*
G01X754970Y977130D02*
Y1060110D01*
X1022010D01*
Y792080D01*
X754970D01*
Y877070D01*
X688980D01*
Y977130D01*
X754970D01*
G37*
G36*
G01X389540Y1995020D02*
G03X390470Y2008320I-7185J7185D01*
G02X391790Y2046650I24361J18349D01*
G03X391780Y2059980I-7675J6659D01*
G02X437820Y2060030I22998J20031D01*
G03X437830Y2046700I7675J-6659D01*
G02X436390Y2005100I-23001J-20029D01*
G03X435460Y1991800I7185J-7185D01*
G02X389540Y1995020I-24360J-18351D01*
G37*
G36*
G01X802420Y1471370D02*
G03X789500Y1468780I-4941J-8875D01*
G02X743170Y1464930I-24959J19659D01*
G03X730240Y1465550I-6840J-7513D01*
G02X732570Y1514490I-19040J25432D01*
G03X745500Y1513870I6840J7513D01*
G02X780000Y1516200I19046J-25429D01*
G03X792920Y1518790I4941J8875D01*
G02X802420Y1471370I24958J-19662D01*
G37*
G36*
G01X1079860Y1182600D02*
G03X1066530Y1179650I-5039J-8822D01*
G02X1056340Y1225600I-25931J18354D01*
G03X1069670Y1228550I5039J8822D01*
G02X1079860Y1182600I25931J-18354D01*
G37*
G36*
G01X583540Y1053550D02*
G03X583530Y1067640I-7329J7040D01*
G02X632130Y1103660I21969J21155D01*
G03X646930Y1100360I8872J4951D01*
G02X635220Y1064900I18551J-25790D01*
G03X626830Y1066990I-4840J-1545D01*
G02X624140Y1064650I-21328J21802D01*
G03Y1056600I3101J-4025D01*
G02X628770Y1012660I-18599J-24174D01*
G03X629020Y999210I7737J-6584D01*
G02X583310Y998370I-22484J-20610D01*
G03X583060Y1011820I-7737J6584D01*
G02X583540Y1053550I22481J20609D01*
G37*
G36*
G01X629760Y591560D02*
G03X631440Y606270I-6071J8144D01*
G02X672940Y601550I23262J19729D01*
G03X671260Y586840I6071J-8144D01*
G02X629760Y591560I-23262J-19729D01*
G37*
G36*
G01X2086810Y167780D02*
G03X2079570Y167490I-3477J-3705D01*
G02X2034540Y167360I-22574J20510D01*
G03X2027350Y167650I-3740J-3438D01*
G02X2029060Y210640I-20750J22354D01*
G03X2036250Y210350I3740J3438D01*
G02X2077890Y210220I20750J-22351D01*
G03X2085130Y210510I3477J3705D01*
G02X2086810Y167780I22571J-20511D01*
G37*
G36*
G01X2644470Y158390D02*
G02X2639960Y196570I-25771J16312D01*
G03X2655630Y198410I7088J7279D01*
G02X2660140Y160230I25771J-16312D01*
G03X2644470Y158390I-7088J-7279D01*
G37*
G36*
G01X1918400Y5681770D02*
G03X1923640Y5694770I-4203J9250D01*
G02X1924610Y5719420I28359J11228D01*
G03X1920610Y5732670I-9121J4475D01*
G02X1908660Y5745470I15382J26338D01*
G03X1896340Y5750600I-9104J-4506D01*
G02X1914020Y5793060I-9658J28932D01*
G03X1926340Y5787930I9104J4506D01*
G02X1963390Y5745580I9661J-28930D01*
G03X1967390Y5732330I9121J-4475D01*
G02X1964600Y5678230I-15393J-26328D01*
G03X1959360Y5665230I4203J-9250D01*
G02X1918400Y5681770I-28355J-11233D01*
G37*
G36*
G01X2066980Y5830500D02*
G02X2040450Y5845990I21J30500D01*
G03X2026590Y5849820I-8842J-5004D01*
G02X2038090Y5891360I-15050J26528D01*
G03X2051950Y5887530I8842J5004D01*
G02X2095890Y5851220I15050J-26529D01*
G03X2103630Y5837970I9623J-3265D01*
G02X2071410Y5822930I-5629J-29972D01*
G03X2066980Y5830500I-4431J2488D01*
G37*
G36*
G01X1000130Y5095080D02*
G03X1006470I3170J3970D01*
G02Y5039520I22230J-27780D01*
G03X1000130I-3170J-3970D01*
G02Y5095080I-22230J27780D01*
G37*
G36*
G01X459860Y4995540D02*
G03X459960Y5002390I-3699J3480D01*
G02X512480Y5001600I26621J23609D01*
G03X512380Y4994750I3699J-3480D01*
G02X459860Y4995540I-26621J-23609D01*
G37*
G36*
G01X677280Y4923740D02*
G03X670660Y4922620I-2674J-4318D01*
G02X661720Y4975260I-27660J22382D01*
G03X668340Y4976380I2674J4318D01*
G02X677280Y4923740I27660J-22382D01*
G37*
G36*
G01X633420Y5137150D02*
G02Y5175250I-23820J19050D01*
G03X649280I7930J6350D01*
G02Y5137150I23820J-19050D01*
G03X633420I-7930J-6350D01*
G37*
G36*
G01X1509080Y1479480D02*
G03X1524330Y1478510I8050J6196D01*
G02X1521680Y1436730I22529J-22403D01*
G03X1506430Y1437700I-8050J-6196D01*
G02X1509080Y1479480I-22529J22403D01*
G37*
G36*
G01X1505760Y1150950D02*
G03X1491580Y1150560I-6890J-7469D01*
G02X1443680Y1153260I-22778J22142D01*
G03X1430320Y1155690I-8033J-6223D01*
G02X1438790Y1202190I-16652J27055D01*
G03X1452150Y1199760I8033J6223D01*
G02X1490340Y1196050I16646J-27060D01*
G03X1504520Y1196440I6890J7469D01*
G02X1505760Y1150950I22781J-22141D01*
G37*
G36*
G01X1410530Y1479300D02*
G02X1354310Y1506800I-30528J8808D01*
G03X1350730Y1521820I-8213J5979D01*
G02X1396910Y1551980I14468J28282D01*
G03X1412560Y1544030I10145J592D01*
G02X1422590Y1486380I17211J-26703D01*
G03X1410530Y1479300I-2300J-9894D01*
G37*
G36*
G01X1313110Y1514190D02*
G02X1272690Y1508670I-16914J-26891D01*
G03X1270590Y1524110I-7513J6841D01*
G02X1311010Y1529630I16914J26891D01*
G03X1313110Y1514190I7513J-6841D01*
G37*
G36*
G01X1229930Y1510150D02*
G02X1194940Y1507940I-15825J-27549D01*
G03X1193870Y1524850I-6130J8101D01*
G02X1228860Y1527060I15825J27549D01*
G03X1229930Y1510150I6130J-8101D01*
G37*
G36*
G01X1119250Y2799240D02*
G03X1118180Y2783940I6117J-8115D01*
G01X1193200Y2708930D01*
X1266340D01*
X1267000Y2709110D01*
G02Y2650290I8080J-29410D01*
G01X1266340Y2650470D01*
X1168980D01*
X1080350Y2739100D01*
X943620D01*
X876920Y2805800D01*
Y2962960D01*
X953590Y3039630D01*
X953930Y3040230D01*
G02X995530Y2998630I26510J-15090D01*
G01X994930Y2998290D01*
X935380Y2938740D01*
Y2830020D01*
X967840Y2797560D01*
X1063470D01*
G03X1072820Y2811690I-1J10159D01*
G02X1119250Y2799240I28078J11911D01*
G37*
G36*
G01X1148850Y2536720D02*
G03X1135420Y2535090I-5802J-8338D01*
G02X1128220Y2581390I-22899J20149D01*
G03X1141510Y2583920I5227J8711D01*
G02X1148850Y2536720I26230J-20092D01*
G37*
G36*
G01X2185020Y2407430D02*
G03X2178760Y2394680I3390J-9576D01*
G02X2139600Y2413870I-28965J-9557D01*
G03X2145860Y2426620I-3390J9576D01*
G02X2185020Y2407430I28965J9557D01*
G37*
G36*
G01X2029750Y2240180D02*
G03X2017050I-6350J-7930D01*
G02Y2287820I-19050J23820D01*
G03X2029750I6350J7930D01*
G02X2057000Y2293380I19052J-23819D01*
G03X2069440Y2300150I2738J9784D01*
G02X2071550Y2305280I29146J-8989D01*
G03X2066160Y2319490I-8997J4715D01*
G02X2104020Y2333840I10844J28510D01*
G03X2109410Y2319630I8997J-4715D01*
G02X2090370Y2261740I-10840J-28511D01*
G03X2077930Y2254970I-2738J-9784D01*
G02X2029750Y2240180I-29132J9030D01*
G37*
G36*
G01X1821380Y2010520D02*
G03X1807140Y2010020I-6866J-7486D01*
G02X1805620Y2053480I-22139J20982D01*
G03X1819860Y2053980I6866J7486D01*
G02X1821380Y2010520I22139J-20982D01*
G37*
G36*
G01X1175970Y2895220D02*
G02X1146940Y2925860I-32968J-2163D01*
G03X1158290Y2936620I1211J10088D01*
G02X1187320Y2905980I32968J2163D01*
G03X1175970Y2895220I-1211J-10088D01*
G37*
G36*
G01X2460000Y2211600D02*
G02X2420100Y2211340I-19800J-23200D01*
G03X2420000Y2226700I-6700J7637D01*
G02X2418350Y2271580I19800J23198D01*
G03X2417930Y2286430I-7143J7229D01*
G02X2459550Y2287620I20173J22872D01*
G03X2459970Y2272770I7143J-7229D01*
G02X2459900Y2226960I-20172J-22874D01*
G03X2460000Y2211600I6700J-7637D01*
G37*
G36*
G01X1160120Y3959250D02*
G03X1160370Y3973130I-7292J7074D01*
G02X1204880Y3972330I22630J20450D01*
G03X1204630Y3958450I7292J-7074D01*
G02X1160120Y3959250I-22630J-20450D01*
G37*
G36*
G01X1236910Y3635950D02*
G02X1238960Y3588400I20088J-22953D01*
G02X1236910Y3635950I-20088J22953D01*
G37*
G36*
G01X3061050Y1352500D02*
G03X3047190Y1352490I-6925J-7436D01*
G02X3002460Y1352130I-22561J24139D01*
G03X2988840Y1352140I-6816J-7535D01*
G02X2988890Y1401180I-22120J24543D01*
G03X3002510Y1401170I6816J7535D01*
G02X3047140Y1400810I22118J-24541D01*
G03X3061000Y1400820I6925J7436D01*
G02X3061050Y1352500I22561J-24137D01*
G37*
G36*
G01X2963480Y719860D02*
G02X2944020Y764680I-26479J15138D01*
G03X2956520Y774190I2346J9887D01*
G02X3030060Y836400I65144J-2437D01*
G03X3041520Y846850I1309J10073D01*
G02X3100540Y837230I30481J1145D01*
G03X3110280Y823490I9505J-3584D01*
G02X3130710Y769730I717J-30490D01*
G03X3129460Y755480I6568J-7756D01*
G02X3079890Y720230I-23459J-19490D01*
G03X3064520Y722630I-8693J-5256D01*
G02X2978950Y722500I-42860J49120D01*
G03X2963480Y719860I-6650J-7680D01*
G37*
G36*
G01X2101020Y3961780D02*
G03X2105700Y3974720I-4688J9012D01*
G02X2149680Y3958820I29303J12278D01*
G03X2145000Y3945880I4688J-9012D01*
G02X2101020Y3961780I-29303J-12278D01*
G37*
G36*
G01X2716220Y1350010D02*
G02X2662920Y1361220I-23823J19048D01*
G03X2648210Y1367510I-9816J-2611D01*
G02X2608580Y1411810I-14708J26719D01*
G03X2605220Y1426550I-8302J5861D01*
G02X2647200Y1434930I16063J28871D01*
G03X2649760Y1420040I7973J-6294D01*
G02X2662980Y1402070I-16259J-25809D01*
G03X2677690Y1395780I9816J2611D01*
G02X2716220Y1388110I14710J-26719D01*
G03X2732080I7930J6350D01*
G02Y1350010I23820J-19050D01*
G03X2716220I-7930J-6350D01*
G37*
G36*
G01X2330390Y698930D02*
G02X2251610I-39390J0D01*
G01Y899380D01*
G03X2235450Y907580I-10160J1D01*
G02Y956780I-18030J24600D01*
G03X2251610Y964980I6000J8199D01*
G01Y1039080D01*
G03X2235450Y1047280I-10160J1D01*
G02Y1096480I-18030J24600D01*
G03X2251610Y1104680I6000J8199D01*
G01Y1178780D01*
G03X2235450Y1186980I-10160J1D01*
G02X2242370Y1229120I-18031J24599D01*
G01X2243890Y1226960D01*
X2251610D01*
Y1235420D01*
X2319230Y1303040D01*
X2758250D01*
X2773590Y1287690D01*
G02X2729790Y1223820I-27853J-27853D01*
G01X2728810Y1224260D01*
X2540810D01*
G03X2530810Y1212320I1J-10158D01*
G02X2470750I-30030J-5360D01*
G03X2460750Y1224260I-10001J1782D01*
G01X2397700D01*
G03X2387560Y1213470I1J-10160D01*
G02X2344690Y1183730I-30440J-1889D01*
G03X2330390Y1174450I-4140J-9279D01*
G01Y1109010D01*
G03X2344690Y1099730I10160J-1D01*
G02Y1044030I12430J-27850D01*
G03X2330390Y1034750I-4140J-9279D01*
G01Y969310D01*
G03X2344690Y960030I10160J-1D01*
G02Y904330I12430J-27850D01*
G03X2330390Y895050I-4140J-9279D01*
G01Y698930D01*
G37*
G36*
G01X3425920Y2179790D02*
G02X3389840Y2186220I-22318J-20790D01*
G03X3392680Y2202210I-4590J9063D01*
G02X3428760Y2195780I22318J20790D01*
G03X3425920Y2179790I4590J-9063D01*
G37*
G54D33*
X448490Y332740D03*
X627330Y1223010D03*
X414810Y1885700D03*
X807350Y629750D03*
X1241830Y858520D03*
X2504300Y174300D03*
X645850Y3160620D03*
X626900Y3458600D03*
X371240Y4445760D03*
X2197100Y5638800D03*
X1968500Y5969000D03*
X3130000Y5340000D03*
X3390900Y5372100D03*
X3454400Y5283200D03*
X968170Y2676000D03*
X1042980Y2898220D03*
X976250Y2861450D03*
X1043300Y2695100D03*
X1339100Y2843400D03*
X1200500Y2832700D03*
X1940600Y2400400D03*
X2567940Y1680620D03*
X2489200Y2062660D03*
X2440940Y2544600D03*
X1193800Y3797300D03*
X1148240Y4094640D03*
X1403000Y4088000D03*
X1633000Y3075000D03*
X2898140Y922020D03*
X3431790Y1215950D03*
X1768090Y1204340D03*
X2496820Y1071880D03*
Y932180D03*
X3055000Y1613000D03*
X3210850Y2168250D03*
G54D34*
X607060Y1447800D03*
X2077260Y4930140D03*
X2034700Y812100D03*
G54D36*
X1759000Y3943000D03*
X2213240Y4070400D03*
X2129080Y4067100D03*
X2644290Y4684490D03*
X3083030Y4635300D03*
X3086680Y4551680D03*
X3171600Y4635300D03*
X3163300Y4548200D03*
G54D31*
X3248000Y442700D03*
G54D37*
X3556000Y1778000D03*
G54D32*
X254000Y254000D03*
Y762000D03*
Y508000D03*
Y1016000D03*
Y1524000D03*
Y1270000D03*
Y1778000D03*
Y2032000D03*
Y2540000D03*
X3810000Y508000D03*
X3556000Y762000D03*
Y1016000D03*
Y1270000D03*
X3810000Y3048000D03*
Y2794000D03*
Y3302000D03*
Y3810000D03*
Y3556000D03*
G54D35*
X3549990Y5400000D03*
%LPD*%
G75*
G54D10*
X0Y254000D03*
Y762000D03*
Y508000D03*
Y1016000D03*
Y1270000D03*
Y1524000D03*
Y1778000D03*
Y2286000D03*
Y2032000D03*
Y2540000D03*
Y3048000D03*
Y2794000D03*
Y3302000D03*
Y3810000D03*
Y3556000D03*
Y4318000D03*
Y4064000D03*
Y4572000D03*
Y5080000D03*
Y4826000D03*
X254000Y254000D03*
Y762000D03*
Y508000D03*
Y1016000D03*
Y1524000D03*
Y1270000D03*
Y1778000D03*
Y2286000D03*
Y2032000D03*
Y2540000D03*
Y3048000D03*
Y2794000D03*
Y3302000D03*
Y3810000D03*
Y3556000D03*
Y4318000D03*
Y4064000D03*
Y4572000D03*
Y5080000D03*
Y4826000D03*
X3556000Y254000D03*
Y762000D03*
Y508000D03*
Y1016000D03*
Y1270000D03*
Y1524000D03*
Y1778000D03*
Y2286000D03*
Y2032000D03*
Y2540000D03*
Y3048000D03*
Y2794000D03*
Y3302000D03*
Y3810000D03*
Y3556000D03*
Y4318000D03*
Y4064000D03*
Y4572000D03*
Y5080000D03*
Y4826000D03*
X3810000Y254000D03*
Y762000D03*
Y508000D03*
Y1016000D03*
Y1524000D03*
Y1270000D03*
Y1778000D03*
Y2286000D03*
Y2032000D03*
Y2540000D03*
Y3048000D03*
Y2794000D03*
Y3302000D03*
Y3810000D03*
Y3556000D03*
Y4318000D03*
Y4064000D03*
Y4572000D03*
Y5080000D03*
Y4826000D03*
G54D20*
X2848000Y442700D03*
X3248000D03*
G54D11*
X-50500Y382100D03*
X-73660Y627380D03*
Y891540D03*
Y1397000D03*
Y1143000D03*
Y1648460D03*
Y2153920D03*
Y1907540D03*
Y2664460D03*
Y2410460D03*
Y2921000D03*
Y3429000D03*
Y3172460D03*
Y3677920D03*
Y3934460D03*
Y4193540D03*
X-69900Y5375100D03*
Y5250300D03*
X-70700Y5768700D03*
Y5649000D03*
X-69900Y5518700D03*
X129540Y452120D03*
X149860Y586740D03*
X53340Y627380D03*
X334000Y413200D03*
X55880Y891540D03*
X170180Y853440D03*
X58420Y1397000D03*
X55880Y1143000D03*
Y1645920D03*
Y2153920D03*
Y1905000D03*
Y2664460D03*
X53340Y2410460D03*
Y2921000D03*
Y3429000D03*
Y3175000D03*
X55880Y3677920D03*
X53340Y3931920D03*
X135600Y5345600D03*
X136600Y5282600D03*
X135600Y5216600D03*
X330800Y6092100D03*
X227900Y6091400D03*
X363500Y173900D03*
X655320Y175260D03*
X561340D03*
X462280D03*
X365760Y309880D03*
X434340Y264160D03*
X617220Y251460D03*
X448490Y332740D03*
X639080Y489300D03*
X570120Y511080D03*
X526860Y550720D03*
X512080Y652780D03*
X543560Y464820D03*
X466090D03*
X360680Y553720D03*
X617220Y383540D03*
X707900Y504600D03*
X648000Y567110D03*
X654700Y626000D03*
X605500Y1088790D03*
X665480Y1074570D03*
X605540Y1032430D03*
X606540Y978600D03*
X734060Y825500D03*
X678180Y822960D03*
X513080Y728980D03*
X711200Y1490980D03*
X607060Y1447800D03*
X627330Y1223010D03*
X414810Y1885700D03*
X642620Y1578100D03*
X650240Y1794760D03*
X414830Y2026670D03*
X652780Y2166620D03*
X414780Y2080010D03*
X378460Y2160270D03*
X411450Y2286000D03*
X416560Y2199640D03*
X411100Y1973450D03*
X644120Y2039620D03*
X411000Y2393000D03*
X670430Y2475880D03*
X417350Y2644930D03*
X645850Y2555240D03*
X643360Y2611120D03*
X643100Y2388800D03*
X408000Y2479000D03*
X645850Y3000630D03*
Y2809240D03*
X417350Y3041170D03*
Y2843050D03*
Y2698270D03*
X650900Y2715600D03*
X645850Y3160620D03*
X417350Y3094510D03*
X650240Y3386500D03*
X626900Y3458600D03*
X450400Y3504300D03*
X673000Y4143000D03*
X716760Y3913140D03*
X717760Y3872140D03*
X676760Y3913140D03*
X677760Y3872140D03*
X609600Y4165600D03*
X546100D03*
X622300Y4495800D03*
X558800D03*
X622300Y4559300D03*
X558800D03*
X431800Y4610100D03*
X371240Y4445760D03*
X723900Y4857800D03*
X673100D03*
Y4813000D03*
X723900D03*
X485760Y4971140D03*
X486580Y5026000D03*
X696000Y4954000D03*
X643000Y4945000D03*
X673100Y5156200D03*
X609600D03*
X495300Y5372100D03*
X508000Y5308600D03*
X410200Y5076200D03*
X381000Y5156200D03*
X600230Y5406870D03*
X660400Y5384800D03*
X517500Y6093700D03*
X424200D03*
X1040700Y236700D03*
X1033480Y315960D03*
X1084760Y168140D03*
X914400Y175260D03*
X812800D03*
X828040Y320040D03*
X891540Y632460D03*
X960120D03*
X1031240D03*
X1094740D03*
X989060Y490300D03*
X912860D03*
X834120D03*
X1036320Y452120D03*
X1033780Y383540D03*
X775700Y498500D03*
X807350Y629750D03*
X1137920Y821440D03*
X1046480Y822960D03*
X817880Y1499130D03*
X1040600Y1198000D03*
X764540Y1488440D03*
X1095600Y1210200D03*
X1130300Y1490500D03*
X1121000Y1727000D03*
X764540Y1739900D03*
X1121500Y1560300D03*
X843280Y2125980D03*
X1112520Y2555240D03*
X839000Y2538000D03*
X891630Y2673840D03*
X968170Y2676000D03*
X802510Y2677300D03*
X805000Y2612000D03*
X1042980Y2898220D03*
X976250Y2861450D03*
X1100900Y2823600D03*
X1043300Y2695100D03*
X980440Y3025140D03*
X899240Y3313040D03*
X914400Y3213100D03*
X939800Y3263900D03*
X1051100Y3274600D03*
X883000Y3262000D03*
X927100Y3619500D03*
X920750Y3872770D03*
X1060000Y4231000D03*
X944000D03*
X830000Y4202000D03*
X978200Y4482800D03*
X970000Y4379000D03*
X920000Y4354000D03*
X1068000Y4286000D03*
X955000Y4576000D03*
X951000Y4630000D03*
X936000Y4517000D03*
X938000Y4447000D03*
X838000Y4913000D03*
X840000Y4859000D03*
X946000Y4813000D03*
X972000Y4749000D03*
X1011000Y4933000D03*
X958000Y4691000D03*
X1130300Y5067300D03*
X977900D03*
X1028700D03*
X831000Y5157000D03*
X888000Y5285000D03*
X831000Y5259000D03*
X1117600Y5473700D03*
X997400Y5486790D03*
X956900Y5486400D03*
X1203900Y309600D03*
X1201700Y372600D03*
X1203960Y439420D03*
X1351280Y584200D03*
X1480820D03*
X1417320D03*
X1287780D03*
X1221740D03*
X1203960Y502920D03*
X1160780Y622300D03*
X1437640Y995680D03*
X1249680Y955040D03*
X1241830Y858520D03*
X1193800Y957580D03*
X1468800Y1172700D03*
X1527300Y1174300D03*
X1413670Y1182750D03*
X1483900Y1460100D03*
X1380000Y1488100D03*
X1214100Y1482600D03*
X1296200Y1487300D03*
X1451610Y1742490D03*
X1237000Y1772000D03*
X1277000Y1732000D03*
X1429770Y1517330D03*
X1209700Y1552400D03*
X1287500Y1551000D03*
X1365200Y1550100D03*
X1398270Y1742410D03*
X1159180Y2206490D03*
X1202540Y2152220D03*
X1275080Y2679700D03*
X1339100Y2843400D03*
X1200500Y2832700D03*
X1293330Y3332190D03*
X1346200Y3339260D03*
X1366670Y3278480D03*
X1410250Y3238500D03*
X1417370Y3182120D03*
X1409700Y3314700D03*
X1218870Y3611350D03*
X1257000Y3613000D03*
X1144000Y3810000D03*
X1193800Y3797300D03*
X1182000Y3938000D03*
X1393760Y3929140D03*
X1515760Y4093140D03*
X1312000Y3988000D03*
X1183000Y3993580D03*
X1148240Y4094640D03*
X1403000Y4088000D03*
X1367000Y4008000D03*
X1185000Y4160000D03*
X1532000Y3925000D03*
X1511000Y3978000D03*
X1425260Y3880000D03*
X1452260Y3938290D03*
X1471600Y4219780D03*
X1240000Y4174000D03*
X1278810Y4210960D03*
X1412000Y4161000D03*
X1466000Y4156000D03*
X1199760Y4211920D03*
X1313000Y4169000D03*
X1366000Y4190000D03*
X1143000Y4521200D03*
X1371600Y4517800D03*
X1244600Y4521200D03*
X1242300Y4389200D03*
X1371600Y4394200D03*
X1498600Y4521200D03*
X1500900Y4394200D03*
X1237300Y4648200D03*
X1371600D03*
X1505900D03*
X1473200Y5016500D03*
X1311600Y5025700D03*
X1224100Y4860300D03*
X1221900Y4760600D03*
X1308100Y4864100D03*
Y4762500D03*
X1143000D03*
Y4864100D03*
X1516600Y4860300D03*
X1422400Y4762500D03*
Y4864100D03*
X1516600Y4760300D03*
X1397000Y5270500D03*
X1320800D03*
X1181100Y5067300D03*
X1262000Y5314000D03*
X1499760Y5321140D03*
X1320800Y5321300D03*
X1154800Y5327600D03*
X1208800Y5331800D03*
X1381760Y5479140D03*
X1423760Y5478140D03*
X1270000Y5486400D03*
X1182290Y5500290D03*
X1855900Y282500D03*
X1897380Y175260D03*
X1854200Y490220D03*
X1676400Y584200D03*
X1737360D03*
X1854200Y558800D03*
X1546860Y584200D03*
X1610360D03*
X1800860D03*
X1854200Y416560D03*
Y342900D03*
X1741400Y724600D03*
X1577340Y916940D03*
X1576320Y861060D03*
X1902360Y899400D03*
X1573200Y1016000D03*
X1767180Y857880D03*
X1874600Y856170D03*
X1546860Y1456110D03*
X1768090Y1204340D03*
X1829130Y1473710D03*
X1874750Y1203120D03*
X1578860Y1562600D03*
X1536700Y1740790D03*
X1620710Y1843850D03*
X1766760Y1782140D03*
X1785000Y2031000D03*
X1729000Y1968000D03*
X1842000Y2033000D03*
X1923000Y1974000D03*
X1925000Y2030000D03*
X1630680Y3014980D03*
X1633000Y3075000D03*
X1875000Y3077000D03*
X1770300Y3312060D03*
X1629500Y3258820D03*
X1884680Y3220720D03*
X1719500Y3312800D03*
X1541760Y4123140D03*
X1546330Y4178570D03*
X1599000Y4187000D03*
X1700000Y4250000D03*
X1648590Y3942050D03*
X1683980Y3981960D03*
X1809500Y4003500D03*
X1759000Y3943000D03*
X1895270Y3980480D03*
X1905670Y3865500D03*
X1897000Y3924000D03*
X1786000Y4466000D03*
X1600200Y4521200D03*
X1680000Y4343000D03*
X1787000Y4561000D03*
X1765000Y4299000D03*
X1826000Y4405000D03*
X1839000Y4457000D03*
X1844760Y4802140D03*
X1838760Y4843140D03*
X1821000Y4747000D03*
X1612900Y4762500D03*
Y4864100D03*
X1774000Y4669000D03*
X1773000Y4723000D03*
X1917000Y4917000D03*
X1919000Y4679000D03*
X1824000Y4998000D03*
X1750000Y4843000D03*
X1786760Y4803140D03*
X1826000Y5346000D03*
X1689100Y5067300D03*
X1731000Y5067000D03*
X1819000Y5098000D03*
X1536700Y5067300D03*
X1583000Y5067000D03*
X1753000Y5263000D03*
X1842000Y5049000D03*
X1879600Y5499100D03*
X1785860Y5716160D03*
X1886680Y5779530D03*
X2003270Y322150D03*
X2057000Y188000D03*
X2107700Y190000D03*
X2006600D03*
X2189000Y160000D03*
X2291000Y698930D03*
X2202500Y365500D03*
X1968500Y406400D03*
X2236000Y655700D03*
X2155000Y641000D03*
X2199900Y696800D03*
X1993900Y647700D03*
X2217420Y1071880D03*
Y932180D03*
X1987760Y1009140D03*
X1957760Y988140D03*
X1958760Y1029140D03*
X2034700Y812100D03*
X1984000Y1085000D03*
X1949000Y1105000D03*
X2112010Y1458650D03*
X2217420Y1211580D03*
X1938150Y1188850D03*
X1976000Y1151100D03*
X2059940Y1478630D03*
X2006000Y1477800D03*
X2097560Y1811020D03*
X1981200Y1740790D03*
X2204720Y1810000D03*
X2151380Y1811020D03*
X2048800Y2264000D03*
X2098570Y2291120D03*
X1946020Y2096770D03*
X2152650Y2172970D03*
Y2012950D03*
X1998000Y2264000D03*
X2149800Y2385120D03*
X2158000Y2556510D03*
X2077000Y2348000D03*
X2174820Y2436180D03*
X1940600Y2400400D03*
X1983000Y2999000D03*
X1983790Y3065780D03*
X1952720Y2730630D03*
X2313000Y3240000D03*
X1978660Y3147060D03*
X2231000Y3227000D03*
X2184400Y3289300D03*
X2269700Y3861500D03*
X2287380Y4076150D03*
X2047100Y3986700D03*
X2291610Y3995320D03*
X2040900Y4060300D03*
X2213240Y4070400D03*
X2039240Y4154820D03*
X2115700Y3933600D03*
X2129080Y4067100D03*
X2225200Y3898400D03*
X2286530Y4150230D03*
X2281100Y3926000D03*
X2006900Y4111700D03*
X1959000Y3875900D03*
X2014790Y3862820D03*
X2203020Y4146730D03*
X2119540Y4149890D03*
X2068120Y3864190D03*
X2236000Y3980000D03*
X2135000Y3987000D03*
X2136470Y4437030D03*
X2291610Y4555310D03*
X2206000Y4634000D03*
X2287000Y4630000D03*
X2207570Y4550740D03*
X2128850Y4549500D03*
X2032500Y4435400D03*
X2205100Y4437500D03*
X2263900Y4412900D03*
X2047180Y4873670D03*
X2044700Y4838700D03*
X2156860Y5003000D03*
X2043000Y4699000D03*
X2049000Y4731000D03*
X1970000Y4924000D03*
X1975000Y4649000D03*
X2077260Y4930140D03*
X2070100Y5118100D03*
Y5168900D03*
X2195930Y5381620D03*
X2143000Y5375000D03*
X2163000Y5059000D03*
X2225000Y5271000D03*
X2235000Y5218000D03*
X1930000Y5393520D03*
X2180200Y5588200D03*
X2101000Y5750000D03*
X1932000Y5487000D03*
X2127000Y5659000D03*
X2202800Y5787320D03*
X2197100Y5638800D03*
X1936000Y5759000D03*
X2190270Y5477510D03*
X2248000Y5553000D03*
X2120050Y5436370D03*
X2065000Y5455000D03*
X2098000Y5808000D03*
X1952000Y5706000D03*
X1931000Y5654000D03*
X2011540Y5876350D03*
X1968500Y5969000D03*
X2067000Y5861000D03*
X2504300Y174300D03*
X2681400Y182100D03*
X2618700Y174700D03*
X2439800Y449700D03*
X2603400Y467600D03*
X2417000Y656000D03*
X2499000Y462600D03*
X2357120Y1071880D03*
X2496820D03*
X2357120Y932180D03*
X2496820D03*
X2641600Y736600D03*
X2555000Y848800D03*
X2359660Y1488440D03*
X2692400Y1369060D03*
X2633500Y1394230D03*
X2357120Y1211580D03*
X2500780Y1206960D03*
X2565400Y1884680D03*
X2567940Y1680620D03*
X2375410Y1809370D03*
X2509520Y1884680D03*
X2489200Y2062660D03*
X2439800Y2249900D03*
X2440200Y2188400D03*
X2438100Y2309300D03*
X2518410Y2595550D03*
X2440940Y2544600D03*
X2556900Y2787700D03*
X2572330Y3048790D03*
X2359700Y3053500D03*
X2357300Y2999900D03*
X2532400Y3317200D03*
X2513600Y3457900D03*
X2552700Y3172460D03*
X2570600Y3119000D03*
X2565400Y3721100D03*
X2369820Y4073520D03*
X2638200Y3977100D03*
X2596200Y4236900D03*
X2371600Y3995320D03*
X2448300Y4151200D03*
X2351760Y3864420D03*
X2439350Y3876230D03*
X2452700Y4070900D03*
X2619500Y4081300D03*
X2482200Y3927800D03*
X2611600Y4155310D03*
X2492630Y3873570D03*
X2647780Y4251290D03*
X2371600Y4155310D03*
Y4555310D03*
X2685630Y4554360D03*
X2525000Y4629000D03*
X2368600Y4467400D03*
X2454500Y4549370D03*
X2614900Y4469400D03*
X2533770Y4549960D03*
X2646800Y4304630D03*
X2527370Y4386620D03*
X2580630Y4383600D03*
X2439190Y4331490D03*
X2367000Y4635000D03*
X2644290Y4684490D03*
X2585260Y4904740D03*
X2559860Y4930140D03*
X2438000Y4718000D03*
X2425700Y4953000D03*
X2560000Y5319500D03*
X2540340Y5116340D03*
X2670000Y5141000D03*
X2654300Y5321300D03*
X2623000Y5484790D03*
X2582500Y5484400D03*
X2850680Y513290D03*
X2928620Y617220D03*
X2987040D03*
X3045460D03*
X2730140Y891870D03*
X2727960Y996650D03*
X2907630Y978620D03*
X2730600Y838530D03*
X2937000Y735000D03*
X3072000Y848000D03*
X2898140Y922020D03*
X2745740Y1259840D03*
X2908300Y1371600D03*
X2755900Y1369060D03*
X2821160Y1125780D03*
X2800830Y1720620D03*
X3025000Y1852000D03*
X3055000Y1613000D03*
X2921480Y1552420D03*
X2974340Y1836420D03*
X2805910Y1840000D03*
X2806700Y2115820D03*
X2978630Y2007390D03*
X2799080Y1927860D03*
X2920000Y2472100D03*
X2731900Y3466400D03*
X2736760Y3330140D03*
X2952000Y3302500D03*
X2788510Y3080610D03*
X3089160Y3828020D03*
X2978600Y3790000D03*
X3036800Y3853900D03*
X2799750Y3775960D03*
X2853020Y3778800D03*
X2720900Y3649200D03*
X2908300Y3556000D03*
X2946730Y3595370D03*
X3004160Y3935310D03*
X2766060Y4074160D03*
X2762700Y4147300D03*
X3012530Y3987990D03*
X2837900Y3959800D03*
X2846500Y4146600D03*
X3005540Y4066100D03*
X3007740Y4152620D03*
X3010220Y4225280D03*
X2851610Y4555310D03*
X2929280Y4632960D03*
X2767160Y4550600D03*
X2801100Y4324900D03*
X2846700Y4630420D03*
X3083030Y4635300D03*
X3022090Y4464370D03*
X3086680Y4551680D03*
X2926300Y4549200D03*
X2904500Y4390400D03*
X2815850Y4455090D03*
X2766320Y4634620D03*
X2766420Y4475150D03*
X2902140Y4450240D03*
X2830070Y4902000D03*
X2773000Y5031000D03*
X2896000Y4882000D03*
X2897000Y4969000D03*
X2765760Y4892140D03*
X2767330Y4851400D03*
X3007000Y5066000D03*
X2966000D03*
X2730000Y5215000D03*
X2732500Y5342000D03*
X2786000Y5219000D03*
X2787000Y5174000D03*
X2941000Y5339000D03*
X2833000Y5345000D03*
X2780900Y5272900D03*
X2887000Y5339000D03*
X3015760Y5477140D03*
X3057760Y5476140D03*
X2907890Y5486810D03*
X2844800Y5486400D03*
X2757910Y5484960D03*
X3106000Y736000D03*
X3111000Y793000D03*
X3421840Y1457900D03*
X3431790Y1215950D03*
X3239000Y1845000D03*
X3194530Y1844830D03*
X3246300Y1541200D03*
X3300750Y1544350D03*
X3304560Y2109460D03*
X3210850Y2168250D03*
X3415000Y2223000D03*
X3403600Y2159000D03*
X3249500Y2634970D03*
X3262810Y2394860D03*
X3258630Y2501470D03*
X3255830Y2554740D03*
X3260340Y2448150D03*
X3237590Y3034040D03*
X3240890Y2980800D03*
X3249170Y2688310D03*
X3249200Y2741850D03*
X3245740Y2873910D03*
X3242720Y2927490D03*
X3247590Y2795170D03*
X3228000Y3418900D03*
X3247880Y3250360D03*
X3235620Y3343280D03*
X3211700Y3295600D03*
X3222580Y3194720D03*
X3267600Y3166100D03*
X3280000Y3840000D03*
X3175220Y3802790D03*
X3282200Y3757300D03*
X3140600Y3594900D03*
X3154080Y3654730D03*
X3293430Y3978360D03*
X3125960Y3980560D03*
X3208500Y3987000D03*
X3168000Y4149700D03*
X3249400Y4156000D03*
X3247120Y3950200D03*
X3299460Y4242650D03*
X3165200Y4071400D03*
X3248960Y4078200D03*
X3320140Y4152670D03*
X3184470Y3863560D03*
X3384000Y4555000D03*
X3251610Y4635300D03*
X3171600D03*
X3334000Y4532000D03*
X3325540Y4470540D03*
X3155300Y4459500D03*
X3163300Y4548200D03*
X3316000Y4617000D03*
X3264900Y4400910D03*
X3478000Y4701000D03*
X3470000Y4960000D03*
X3434760Y5009140D03*
X3130000Y5340000D03*
X3390900Y5372100D03*
X3454400Y5283200D03*
X3691900Y174400D03*
X3877800Y381200D03*
X3737400D03*
X3883660Y635000D03*
X3650600Y583600D03*
X3811800Y634000D03*
X3881630Y896620D03*
X3756660Y889000D03*
X3882010Y1399540D03*
X3759200Y1394460D03*
X3882010Y1145540D03*
X3761740Y1143000D03*
X3656000Y1633000D03*
X3882010Y1651000D03*
X3759200Y1648460D03*
X3610030Y2193850D03*
X3627120Y1938020D03*
X3883660Y2161540D03*
X3759200Y2159000D03*
X3883660Y1905000D03*
X3756660D03*
X3505200Y2171700D03*
X3883660Y2677160D03*
X3761740Y2674620D03*
X3883660Y2420620D03*
X3754120Y2418080D03*
X3622960Y3404810D03*
X3501310Y3394000D03*
X3857000Y4180000D03*
X3861840Y4418350D03*
X3870950Y4472950D03*
X3571900Y4717500D03*
X3721470Y4963530D03*
X3659000Y4699000D03*
X3712110Y4898490D03*
X3739370Y4698000D03*
X3609760Y4968140D03*
X3857190Y4956600D03*
X3871200Y5578500D03*
Y5671800D03*
X3869600Y5765200D03*
X3868900Y6084000D03*
X3869600Y5981100D03*
X3868900Y5868100D03*
X3794100Y6081000D03*
X3700800D03*
X3607400Y6079400D03*
X3504500Y6078700D03*
G54D30*
G01X2833000Y5345000D02*
X2801000Y5313000D01*
X2760080D01*
X2728760Y5281680D01*
X2702380D01*
X2667650Y5246950D01*
X2613380D01*
X2572790Y5206360D01*
X2303230D01*
X2251580Y5258010D01*
X2237990D01*
X2225000Y5271000D01*
G01X2235000Y5218000D02*
Y5225810D01*
X2240530Y5231340D01*
X2292180Y5179690D01*
X2583840D01*
X2624430Y5220280D01*
X2678700D01*
X2713430Y5255010D01*
X2739810D01*
X2757700Y5272900D01*
X2780900D01*
G54D21*
X3850010Y5400000D03*
X3549990D03*
G54D12*
X254810Y5753610D03*
G54D22*
G01X2059940Y1478630D02*
Y1550860D01*
X1657800Y1953000D01*
X1340690D01*
X716180Y2577510D01*
Y3718730D01*
X482600Y3952310D01*
Y4732220D01*
X287220Y4927600D01*
X190510D01*
X114300Y5003810D01*
Y5130800D01*
X63500Y5181600D01*
Y5410200D01*
X88900Y5435600D01*
X495300D01*
X716080Y5214820D01*
X892810D01*
X1054130Y5376140D01*
X1536360D01*
X1592520Y5319980D01*
X1659080D01*
X1785620Y5446520D01*
Y5481320D01*
X1863520Y5559220D01*
X1927020D01*
X2069980Y5702180D01*
X2117660D01*
X2202800Y5787320D01*
G01X2565400Y1884680D02*
X2626360Y1945640D01*
Y2604630D01*
X2393680Y2837310D01*
X1649720D01*
X1056640Y3430390D01*
Y4166570D01*
X1103180Y4213110D01*
Y4241490D01*
X1210250Y4348560D01*
X1269140D01*
X1297940Y4377360D01*
Y4378020D01*
X1374920Y4455000D01*
X1592600D01*
X1649600Y4512000D01*
X1948490D01*
X1969370Y4532880D01*
X2007890D01*
X2233010Y4758000D01*
X2375080D01*
X2460860Y4843780D01*
X2655060D01*
X2748420Y4937140D01*
X2804070D01*
X2879110Y5012180D01*
X2914890D01*
X2965860Y4961210D01*
X3194550D01*
X3454760Y4701000D01*
X3478000D01*
G01X2509520Y1884680D02*
Y1895440D01*
X2588260Y1974180D01*
Y2591740D01*
X2492550Y2687450D01*
X1928550D01*
X1837110Y2778890D01*
X1625520D01*
X990000Y3414410D01*
Y4301010D01*
X1073390Y4384400D01*
X1168870D01*
X1366630Y4582160D01*
X1621740D01*
X1663580Y4624000D01*
X1938930D01*
X1957110Y4605820D01*
X2034130D01*
X2219330Y4791020D01*
X2361400D01*
X2494970Y4924590D01*
Y4945180D01*
X2523110Y4973320D01*
X2793550D01*
X2865430Y5045200D01*
X2928570D01*
X2979540Y4994230D01*
X3208230D01*
X3458280Y4744180D01*
X3495890D01*
X3521180Y4718890D01*
Y4681280D01*
X3528140Y4674320D01*
X3593380D01*
X3632200Y4635500D01*
X3746500D01*
X3810000Y4572000D01*
G01X3140600Y3594900D02*
Y3473440D01*
X3074500Y3407340D01*
Y1818500D01*
X3246300Y1646700D01*
Y1541200D01*
G54D13*
X761800Y5455300D03*
X1625800D03*
X2387400D03*
X3251400D03*
G54D23*
G01X2527370Y4386620D02*
X2543900Y4370090D01*
Y4270820D01*
X2522480Y4249400D01*
X1969500D01*
X1817000Y4096900D01*
Y4049890D01*
X1844490Y4022400D01*
X1927470D01*
X1940110Y4035040D01*
X1979940D01*
X1986140Y4028840D01*
Y3981370D01*
X1936140Y3931370D01*
Y3907530D01*
X1920900Y3892290D01*
Y3880730D01*
X1905670Y3865500D01*
G01X2580630Y4383600D02*
X2566760Y4369730D01*
Y4261350D01*
X2531950Y4226540D01*
X2444460D01*
G03X2432840Y4214920I0J-11620D01*
G02X2421220Y4203300I-11620J0D01*
G01X2413980D01*
G02X2402360Y4214920I0J11620D01*
G03X2390740Y4226540I-11620J0D01*
G01X1978970D01*
X1839860Y4087430D01*
Y4059360D01*
X1853960Y4045260D01*
X1918000D01*
X1930640Y4057900D01*
X1989410D01*
X2009000Y4038310D01*
Y3971900D01*
X1959000Y3921900D01*
Y3875900D01*
G01X2799750Y3775960D02*
X2800300Y3776510D01*
Y3812340D01*
X2775870Y3836770D01*
Y3913530D01*
X2762000Y3927400D01*
X2725610D01*
X2676430Y3976580D01*
Y4181200D01*
X2674530Y4183100D01*
Y4224540D01*
X2663020Y4236050D01*
Y4241130D01*
X2652860Y4251290D01*
X2647780D01*
G01X2646800Y4304630D02*
X2662040Y4289390D01*
X2663570D01*
X2685880Y4267080D01*
Y4245520D01*
X2697390Y4234010D01*
Y4192570D01*
X2699290Y4190670D01*
Y3986050D01*
X2733740Y3951600D01*
X2773370D01*
X2798730Y3926240D01*
Y3846240D01*
X2835310Y3809660D01*
Y3796510D01*
X2853020Y3778800D01*
G54D14*
X791770Y5528020D03*
X1595830Y5527970D03*
X2417370Y5528020D03*
X3221430Y5527970D03*
G54D24*
G01X3154080Y3654730D02*
X3185310Y3623500D01*
Y3477720D01*
X3103080Y3395490D01*
Y1835430D01*
X3300750Y1637760D01*
Y1544350D01*
G54D15*
X608810Y5965490D03*
X1778790D03*
X2234410D03*
X3404390D03*
G54D25*
G01X254000Y3048000D02*
Y3039640D01*
X377980Y2915660D01*
Y2826740D01*
X474980Y2729740D01*
Y2391540D01*
X504720Y2361800D01*
X504730D01*
X609740Y2256790D01*
X690140D01*
X742950Y2203980D01*
Y2170620D01*
X1261330Y1652240D01*
X1435650D01*
X1436340Y1652930D01*
X1448850D01*
X1536700Y1740790D01*
G01X1451610Y1742490D02*
Y1740050D01*
X1414600Y1703040D01*
X1381960D01*
X777410Y2307590D01*
X630790D01*
X525780Y2412600D01*
Y2839720D01*
X350520Y3014980D01*
Y3111500D01*
X312420Y3149600D01*
X187960D01*
X101600Y3235960D01*
Y3708400D01*
X0Y3810000D01*
G01X254000Y4064000D02*
X159940Y3969940D01*
Y3249490D01*
X209030Y3200400D01*
X363550D01*
X576580Y2987370D01*
Y2433660D01*
X618940Y2391300D01*
X640600D01*
X643100Y2388800D01*
G01X1398270Y1742410D02*
Y1746280D01*
X811560Y2332990D01*
X641320D01*
X551180Y2423130D01*
Y2850260D01*
X375920Y3025520D01*
Y3122040D01*
X322960Y3175000D01*
X198500D01*
X129500Y3244000D01*
Y3934500D01*
X0Y4064000D01*
G01X254000Y4572000D02*
Y4451030D01*
X363000Y4342030D01*
Y3236890D01*
X601980Y2997910D01*
Y2457650D01*
X631460Y2428170D01*
X788260D01*
X1318040Y1898390D01*
X1472560D01*
X1653540Y1717410D01*
Y1148220D01*
X1902360Y899400D01*
G01X1121000Y1727000D02*
X1114720D01*
X692150Y2149570D01*
Y2182930D01*
X669090Y2205990D01*
X588690D01*
X483280Y2311400D01*
X483270D01*
X411000Y2383670D01*
Y2393000D01*
G01X411450Y2286000D02*
X472750D01*
X639370Y2119380D01*
X652390D01*
X1082130Y1689640D01*
Y1440360D01*
X1223000Y1299490D01*
Y1081300D01*
X1443240Y861060D01*
X1576320D01*
G01X408000Y2479000D02*
X368000Y2439000D01*
Y2273770D01*
X395140Y2246630D01*
X476190D01*
X628840Y2093980D01*
X641860D01*
X1056730Y1679110D01*
Y1425660D01*
X1193800Y1288590D01*
Y957580D01*
G01X1938150Y1188850D02*
Y1233400D01*
X1678940Y1492610D01*
Y1727940D01*
X1483090Y1923790D01*
X1328580D01*
X697130Y2555240D01*
X645850D01*
G01X1741400Y724600D02*
X1628140Y837860D01*
Y1706880D01*
X1462030Y1872990D01*
X1307510D01*
X791700Y2388800D01*
X643100D01*
G01X1270000Y5486400D02*
X1214260Y5542140D01*
X932760D01*
X838310Y5447690D01*
Y5368600D01*
X793500Y5323790D01*
X721410D01*
X660400Y5384800D01*
G01X920000Y4354000D02*
X822630D01*
X790630Y4322000D01*
Y2743370D01*
X817330Y2716670D01*
X818820D01*
X841880Y2693610D01*
Y2648880D01*
X805000Y2612000D01*
G01X970000Y4379000D02*
X955630Y4393370D01*
X826070D01*
X765230Y4332530D01*
Y2714580D01*
X802510Y2677300D01*
G01X1051100Y3274600D02*
X871000Y3454700D01*
Y4224320D01*
X1060290Y4413610D01*
X1111610D01*
X1207770Y4509770D01*
Y4546570D01*
X1272570Y4611370D01*
X1386860D01*
X1465240Y4689750D01*
X1665580D01*
X1739600Y4763770D01*
X1804230D01*
X1821000Y4747000D01*
G01X830000Y4202000D02*
Y3315000D01*
X883000Y3262000D01*
G01X1952720Y2730630D02*
X1875250Y2808100D01*
X1637620D01*
X1020630Y3425090D01*
Y4247310D01*
X1059320Y4286000D01*
X1068000D01*
G01X3721470Y4963530D02*
X3720340D01*
X3690540Y4993330D01*
Y5146750D01*
X3640370Y5196920D01*
X2912000D01*
X2822680Y5107600D01*
X2757990D01*
X2721300Y5070910D01*
X2487930D01*
X2386330Y4969310D01*
Y4926330D01*
X2305630Y4845630D01*
X2161630D01*
X2112400Y4796400D01*
X1977110D01*
X1865600Y4907910D01*
X1723300D01*
X1636320Y4820930D01*
X953930D01*
X946000Y4813000D01*
G01X3712110Y4898490D02*
Y4899910D01*
X3672920Y4939100D01*
Y4940910D01*
X3665140Y4948690D01*
Y5136220D01*
X3629840Y5171520D01*
X2922530D01*
X2833210Y5082200D01*
X2768520D01*
X2731830Y5045510D01*
X2526130D01*
X2465760Y4985140D01*
Y4936690D01*
X2349300Y4820230D01*
X2172160D01*
X2122930Y4771000D01*
X1966580D01*
X1855070Y4882510D01*
X1733830D01*
X1710630Y4859310D01*
Y4770730D01*
X1655050Y4715150D01*
X1454710D01*
X1437290Y4697730D01*
X1152090D01*
X1100820Y4749000D01*
X972000D01*
G01X2850680Y513290D02*
X2849600Y514370D01*
X1953230D01*
X1836200Y631400D01*
X1731000D01*
X1580080Y782320D01*
X1177040D01*
X1137920Y821440D01*
G01X2896000Y4882000D02*
Y4842620D01*
X2789010Y4735630D01*
X2711450D01*
X2657910Y4789170D01*
X2550660D01*
X2480180Y4718690D01*
Y4699640D01*
X2459170Y4678630D01*
X2421690D01*
X2397320Y4703000D01*
X2304320D01*
X2247630Y4646310D01*
Y4535120D01*
X2222640Y4510130D01*
X2112540D01*
X2106080Y4503670D01*
X1981470D01*
X1940250Y4462450D01*
X1940240D01*
X1858950Y4381160D01*
Y4381150D01*
X1816170Y4338370D01*
X1748690D01*
X1699690Y4289370D01*
X1606690D01*
X1535260Y4217940D01*
X1530020D01*
X1506960Y4194880D01*
Y4189640D01*
X1505370Y4188050D01*
Y4139050D01*
X1473760Y4107440D01*
Y4059130D01*
X1406370Y3991740D01*
Y3991690D01*
X1383310Y3968630D01*
X1367260D01*
X1337000Y3938370D01*
Y3468000D01*
X1852730Y2952270D01*
X2640460D01*
X2752000Y2840730D01*
Y1817000D01*
X2802660Y1766340D01*
X2819770D01*
X2921000Y1665110D01*
Y1613200D01*
G01X3810000Y2286000D02*
X3710940Y2186940D01*
Y747990D01*
X3575090Y612140D01*
X3512820D01*
X3453340Y552660D01*
X2834370D01*
X2832540Y550830D01*
X1956160D01*
X1847860Y659130D01*
X1751190D01*
X1576320Y834000D01*
Y861060D01*
G01X1897000Y3924000D02*
X1828800Y3855800D01*
Y3422100D01*
X1755590Y3348890D01*
X1755040D01*
X1733470Y3327320D01*
Y3326770D01*
X1719500Y3312800D01*
G01X1875000Y3077000D02*
X1908230Y3110230D01*
X2522450D01*
X2531220Y3119000D01*
X2570600D01*
G01X1826000Y5346000D02*
X1865380D01*
X1878650Y5332730D01*
X2221010D01*
X2321340Y5232400D01*
X2552470D01*
X2602040Y5281970D01*
X2614970D01*
X2654300Y5321300D01*
G01X1938150Y1188850D02*
X1939770Y1190470D01*
X1992310D01*
X2026760Y1156020D01*
Y1025820D01*
X2027130Y1025450D01*
Y992830D01*
X2026760Y992460D01*
Y991460D01*
X1971350Y936050D01*
X1966390D01*
X1941850Y911510D01*
Y906550D01*
X1941730Y906430D01*
Y620300D01*
X1985800Y576230D01*
X2481230D01*
X2641600Y736600D01*
G01X1993900Y647700D02*
X2039970Y601630D01*
X2455830D01*
X2555000Y700800D01*
Y848800D01*
G01X1978660Y3147060D02*
X2526940D01*
X2552340Y3172460D01*
X2552700D01*
G01X2231000Y3227000D02*
X2257370Y3200630D01*
X2329310D01*
X2340510Y3211830D01*
X2817830D01*
X2908300Y3302300D01*
Y3556000D01*
G01X2946730Y3595370D02*
X2891990D01*
X2886760Y3590140D01*
X2884140D01*
X2868930Y3574930D01*
Y3314330D01*
X2805600Y3251000D01*
X2546510D01*
X2508210Y3289300D01*
X2184400D01*
G01X3857000Y4180000D02*
X3762740D01*
X3650060Y4292680D01*
Y4356970D01*
X3594970Y4412060D01*
X3331730D01*
X3281210Y4361540D01*
X3184460D01*
X3023500Y4522500D01*
Y4594420D01*
X2945590Y4672330D01*
X2832930D01*
X2807330Y4646730D01*
Y4619950D01*
X2782380Y4595000D01*
X2670590D01*
X2664920Y4589330D01*
X2393260D01*
X2387910Y4594680D01*
X2322320D01*
X2287000Y4630000D01*
G01X2195930Y5381620D02*
X2208050D01*
X2329380Y5260290D01*
X2445420D01*
X2527420Y5342290D01*
Y5342600D01*
X2554670Y5369850D01*
X2704650D01*
X2732500Y5342000D01*
G01X2907890Y5486810D02*
X2818790Y5397710D01*
X2546910D01*
X2541600Y5392400D01*
X2541290D01*
X2502020Y5353130D01*
Y5352820D01*
X2434890Y5285690D01*
X2339910D01*
X2272790Y5352810D01*
Y5370740D01*
X2222540Y5420990D01*
X2165220D01*
X2143000Y5398770D01*
Y5375000D01*
G01X2727960Y996650D02*
X2787340D01*
X2860530Y1069840D01*
Y1142090D01*
X2844800Y1157820D01*
Y1422520D01*
X2655000Y1611730D01*
Y1932970D01*
X2655570Y1933540D01*
Y2616730D01*
X2655000Y2617300D01*
Y2689600D01*
X2556900Y2787700D01*
G01X2567200Y3887950D02*
Y4038400D01*
X2552190Y4053410D01*
Y4151580D01*
X2595290Y4194680D01*
X2627910D01*
X2650970Y4171620D01*
Y4139000D01*
X2642800Y4130830D01*
Y4104600D01*
X2619500Y4081300D01*
G01X2540340Y5116340D02*
X2638980D01*
X2659010Y5096310D01*
X2710770D01*
X2747460Y5133000D01*
X2812150D01*
X2901470Y5222320D01*
X3650900D01*
X3715940Y5157280D01*
Y5041030D01*
X3800370Y4956600D01*
X3857190D01*
G01X2800830Y1720620D02*
Y1620980D01*
X2943810Y1478000D01*
X3376970D01*
X3531970Y1633000D01*
X3656000D01*
G01X2830070Y4902000D02*
X2840520D01*
X2859890Y4921370D01*
X2912310D01*
X2927280Y4906400D01*
X3140590D01*
X3398080Y4648910D01*
Y4569080D01*
X3384000Y4555000D01*
G01X3334000Y4532000D02*
Y4570340D01*
X3361720Y4598060D01*
Y4635940D01*
X3116660Y4881000D01*
X2904100D01*
X2903100Y4882000D01*
X2896000D01*
G01X2897000Y4969000D02*
X2919230Y4946770D01*
X2922840D01*
X2937610Y4932000D01*
X3182450D01*
X3461940Y4652510D01*
Y4533030D01*
X3517030Y4477940D01*
X3636510D01*
X3696100Y4418350D01*
X3861840D01*
G01X3264900Y4400910D02*
Y4556200D01*
X3288150Y4579450D01*
Y4589150D01*
X3316000Y4617000D01*
G01X3622960Y3404810D02*
X3652520Y3375250D01*
Y2236340D01*
X3610030Y2193850D01*
G01X3627120Y1938020D02*
X3660140Y1971040D01*
Y2208020D01*
X3677920Y2225800D01*
Y3117710D01*
X3678140Y3117930D01*
Y3171610D01*
X3677920Y3171830D01*
Y4196080D01*
X3556000Y4318000D01*
G01X3739370Y4698000D02*
X3731000Y4706370D01*
Y4721600D01*
X3670300Y4782300D01*
Y4844730D01*
X3594970Y4920060D01*
X3509940D01*
X3470000Y4960000D01*
G01X3870950Y4472950D02*
X3876050D01*
X3904060Y4500960D01*
Y4676850D01*
X3848970Y4731940D01*
X3771030D01*
X3695700Y4807270D01*
Y4855260D01*
X3647520Y4903440D01*
Y4930380D01*
X3609760Y4968140D01*
G01X723800Y5627990D02*
G02Y5727990I0J50000D01*
G01Y6153660D01*
X194820D01*
X-145240Y5813600D01*
Y104140D01*
X3954810D01*
X3955340Y104670D01*
Y6153660D01*
X3289400D01*
Y5727990D01*
G02Y5627990I0J-50000D01*
G01X727070Y6625160D02*
X752480Y6604000D01*
X781050Y6591300D01*
X806450D01*
X831850Y6604000D01*
X850900Y6625160D01*
X860430Y6654800D01*
X854080Y6684430D01*
X838200Y6709830D01*
X809620Y6726770D01*
X771530Y6735230D01*
X749300Y6752160D01*
X739770Y6781800D01*
X746130Y6811430D01*
X762000Y6832590D01*
X784220Y6845300D01*
X806450D01*
X828680Y6836840D01*
X847730Y6815670D01*
G01X1009650Y6845300D02*
X1085840D01*
G01X1047750D02*
Y6591300D01*
G01X1009650D02*
X1085840D01*
G01X1320800Y6718300D02*
X1384300D01*
Y6642100D01*
X1365250Y6616690D01*
X1343020Y6599760D01*
X1311280Y6591300D01*
X1279530Y6599760D01*
X1257300Y6616690D01*
X1238250Y6642100D01*
X1225550Y6671730D01*
X1219200Y6705600D01*
Y6735230D01*
X1225550Y6760630D01*
X1238250Y6790270D01*
X1257300Y6815670D01*
X1276350Y6832590D01*
X1301750Y6845300D01*
X1323970D01*
X1349370Y6836840D01*
X1368430Y6819900D01*
G01X1514480Y6675960D02*
X1597020D01*
G01X1739900Y6642100D02*
X1758950Y6612460D01*
X1784350Y6595530D01*
X1812930Y6591300D01*
X1838330Y6595530D01*
X1863730Y6616690D01*
X1879600Y6642100D01*
X1882770Y6667500D01*
X1876430Y6697130D01*
X1854200Y6718300D01*
X1831970Y6726770D01*
X1803400D01*
G01X1831970D02*
X1851020Y6739470D01*
X1866900Y6760630D01*
X1873250Y6786030D01*
X1866900Y6811430D01*
X1851020Y6832590D01*
X1822450Y6845300D01*
X1793880Y6841070D01*
X1765300Y6824130D01*
G01X2254250Y6845300D02*
Y6591300D01*
X2381250D01*
G01X2492370D02*
X2571750Y6845300D01*
X2651130Y6591300D01*
G01X2622550Y6680200D02*
X2520950D01*
G01X2825750Y6591300D02*
Y6705600D01*
X2762250Y6845300D01*
G01X2889250D02*
X2825750Y6705600D01*
G01X3143250Y6591300D02*
X3016250D01*
Y6845300D01*
X3143250D01*
G01X3092450Y6722540D02*
X3016250D01*
G01X3270250Y6591300D02*
Y6845300D01*
X3349620D01*
X3375020Y6832590D01*
X3390900Y6815670D01*
X3397250Y6781800D01*
X3390900Y6747930D01*
X3371850Y6726770D01*
X3349620Y6714060D01*
X3270250D01*
G01X3349620D02*
X3397250Y6591300D01*
G01X1663800Y5627990D02*
X723800D01*
G01X1663800D02*
X723800D01*
G01X1663800D02*
G03Y5727990I0J50000D01*
G01Y6153660D01*
X2349400D01*
Y5727990D01*
G03Y5627990I0J-50000D01*
G01X3289400D02*
X2349400D01*
G01X3289400D02*
X2349400D01*
G54D16*
X1143000Y2893060D03*
X1341120Y825500D03*
X1167740Y2563830D03*
X1191260Y2938780D03*
X1983640Y849140D03*
X1983760Y894140D03*
X2252000Y1503000D03*
X2310130Y3371850D03*
X2247900Y3373120D03*
X2621280Y1455420D03*
X2562860D03*
X2786380Y1082040D03*
X2730090Y1082270D03*
X2966720Y1376680D03*
X3024630Y1376630D03*
X3083560Y1376680D03*
X2921000Y1613200D03*
G54D26*
G01X936000Y4517000D02*
X896000Y4557000D01*
Y4849320D01*
X930960Y4884280D01*
X1098520D01*
X1128630Y4914390D01*
X1562600D01*
X1630110Y4981900D01*
X1785790D01*
X1801890Y4998000D01*
X1824000D01*
G01X938000Y4447000D02*
X787400Y4597600D01*
Y4927600D01*
X839800Y4980000D01*
X1092000D01*
X1119510Y4952490D01*
X1546810D01*
X1614320Y5020000D01*
X1770000D01*
X1777000Y5027000D01*
Y5029720D01*
X1796280Y5049000D01*
X1842000D01*
G01X2006000Y1477800D02*
X1977590Y1506210D01*
Y1576170D01*
X1806270Y1747490D01*
X1801410D01*
X1766760Y1782140D01*
G01X2757910Y5484960D02*
X2708760Y5435810D01*
X2539790D01*
X2470270Y5366290D01*
Y5365980D01*
X2421730Y5317440D01*
X2353070D01*
X2304540Y5365970D01*
Y5427900D01*
X2207940Y5524500D01*
X2034160D01*
X1962330Y5452670D01*
Y5425850D01*
X1930000Y5393520D01*
G54D17*
X1534160Y2169160D03*
X1525320Y2503120D03*
X1522780Y2609770D03*
X1365330Y2503120D03*
X1362790Y2609770D03*
X1635760Y2169160D03*
X1685320Y2503120D03*
X1845310D03*
X1842770Y2609770D03*
X1682780D03*
G54D27*
G01X1511000Y3978000D02*
X1475000D01*
X1468000Y3985000D01*
Y4004000D01*
X1513000Y4049000D01*
X1529100D01*
X1658000Y4177900D01*
X1704210D01*
X1893260Y4366960D01*
X1954450Y4428160D01*
X1954460D01*
X2003300Y4477000D01*
X2118960D01*
X2120100Y4478140D01*
X2302100D01*
X2332820Y4508860D01*
X2436640D01*
X2451880Y4524100D01*
Y4546750D01*
X2454500Y4549370D01*
G01X1425260Y3880000D02*
X1457000Y3848260D01*
X1560260D01*
X1606000Y3894000D01*
Y3896580D01*
X1607950Y3898530D01*
Y3987730D01*
X1684220Y4064000D01*
X1742410D01*
X1953210Y4274800D01*
X2287180D01*
X2481780Y4469400D01*
X2614900D01*
G01X1452260Y3938290D02*
X1506410Y3884140D01*
X1554040D01*
X1580010Y3910110D01*
Y3999310D01*
X1582000Y4001300D01*
Y4001310D01*
X1677530Y4096840D01*
X1689440Y4096850D01*
X1723770D01*
X1952060Y4325140D01*
X1995940D01*
X1996700Y4325900D01*
X2298760D01*
X2522820Y4549960D01*
X2533770D01*
G01X1532000Y3925000D02*
X1552000Y3945000D01*
Y4021570D01*
X1605160Y4074730D01*
Y4074760D01*
X1662790Y4132390D01*
X1689420Y4132410D01*
X1709030D01*
X1900560Y4323960D01*
X1969190Y4392600D01*
X1985510D01*
G02X2000410Y4377700I0J-14900D01*
G03X2015310Y4362800I14900J0D01*
G01X2031230D01*
G03X2046130Y4377700I0J14900D01*
G02X2068980Y4400550I22850J0D01*
G01X2069000D01*
G02X2091850Y4377700I0J-22850D01*
G03X2106750Y4362800I14900J0D01*
G01X2122670D01*
G03X2137570Y4377700I0J14900D01*
G02X2152470Y4392600I14900J0D01*
G01X2168390D01*
G02X2183290Y4377700I0J-14900D01*
G03X2198190Y4362800I14900J0D01*
G01X2296140D01*
X2331000Y4397660D01*
Y4414000D01*
X2325000Y4420000D01*
X2314540D01*
X2304540Y4430000D01*
Y4441060D01*
X2319780Y4456300D01*
X2357500D01*
X2368600Y4467400D01*
G01X2351760Y3864420D02*
Y3667460D01*
X2290300Y3606000D01*
X2078260D01*
X2046410Y3637850D01*
Y3659410D01*
X2073800Y3686800D01*
X2259000D01*
X2304900Y3732700D01*
Y3839220D01*
X2310340Y3844660D01*
Y3881830D01*
X2383190Y3954680D01*
X2389380D01*
X2415400Y3980700D01*
Y4050720D01*
X2412060Y4054060D01*
Y4135960D01*
X2427300Y4151200D01*
X2448300D01*
G01X2439350Y3876230D02*
Y3875750D01*
X2423700Y3860100D01*
Y3599500D01*
X2310200Y3486000D01*
X2133990D01*
X2111000Y3508990D01*
Y3550410D01*
X2126240Y3565650D01*
X2304550D01*
X2392400Y3653500D01*
Y3918180D01*
X2454060Y3979840D01*
Y4028900D01*
X2452700Y4030260D01*
Y4070900D01*
G01X2006900Y4111700D02*
X1995000Y4123600D01*
Y4178060D01*
X2018080Y4201140D01*
X2050400D01*
X2058240Y4193300D01*
X2333570D01*
X2371600Y4155310D01*
G01X2482200Y3927800D02*
X2485100Y3924900D01*
X2501400D01*
X2535400Y3890900D01*
Y3787200D01*
X2503500Y3755300D01*
Y3549320D01*
X2518740Y3534080D01*
X2590080D01*
X2606520Y3550520D01*
Y3848630D01*
X2567200Y3887950D01*
G01X2611600Y4155310D02*
X2578860Y4122570D01*
Y4064460D01*
X2593870Y4049450D01*
Y3900800D01*
X2634460Y3860210D01*
Y3658540D01*
X2703630Y3589370D01*
Y3523630D01*
X2682400Y3502400D01*
X2475940D01*
X2460700Y3517640D01*
Y3840100D01*
X2479990Y3859390D01*
Y3860930D01*
X2492630Y3873570D01*
G01X2788510Y3080610D02*
X2951000Y3243100D01*
Y3301180D01*
X2952000Y3302500D01*
G01X3235620Y3343280D02*
X3266100Y3373760D01*
Y3654420D01*
X3133140Y3787380D01*
X3065120D01*
X3047180Y3805320D01*
Y3843520D01*
X3036800Y3853900D01*
G01X2766420Y4475150D02*
X2746300Y4455030D01*
Y4310200D01*
X2805860Y4250640D01*
Y4129760D01*
X2919900Y4015720D01*
Y3906180D01*
X3019240Y3806840D01*
Y3793740D01*
X3053540Y3759440D01*
X3110780D01*
X3218970Y3651250D01*
Y3463770D01*
X3171060Y3415860D01*
Y2964040D01*
X3207610Y2927490D01*
X3242720D01*
G01X2846500Y4146600D02*
X2949200Y4043900D01*
Y3927420D01*
X2981950Y3894670D01*
X3069710D01*
X3090880Y3873500D01*
Y3829740D01*
X3089160Y3828020D01*
G01X3005540Y4066100D02*
X3054400Y4017240D01*
Y3949500D01*
X3138810Y3865090D01*
Y3839200D01*
X3175220Y3802790D01*
G01X3022090Y4464370D02*
Y4453130D01*
X3191930Y4283290D01*
X3339700D01*
X3444320Y4178670D01*
Y2798390D01*
X3280900Y2634970D01*
X3249500D01*
G01X2815850Y4455090D02*
X2851640Y4490880D01*
X2918980D01*
X3082340Y4327520D01*
Y3965690D01*
X3184470Y3863560D01*
G01X3168000Y4149700D02*
X3205840Y4111860D01*
Y4063840D01*
X3232120Y4037560D01*
X3298440D01*
X3337640Y3998360D01*
Y3332920D01*
X3256300Y3251580D01*
X3249100D01*
X3247880Y3250360D01*
G01X3165200Y4071400D02*
X3166600Y4070000D01*
Y3938910D01*
X3232900Y3872610D01*
Y3752700D01*
X3301660Y3683940D01*
Y3351840D01*
X3245420Y3295600D01*
X3211700D01*
G01X3248960Y4078200D02*
X3318810D01*
X3373200Y4023810D01*
Y3318190D01*
X3263510Y3208500D01*
X3236360D01*
X3222580Y3194720D01*
G01X3320140Y4152670D02*
X3408760Y4064050D01*
Y3303460D01*
X3271400Y3166100D01*
X3267600D01*
G54D18*
X2764510Y227710D03*
X3331490D03*
G54D28*
G01X1275080Y2679700D02*
X1181090D01*
X1092460Y2768330D01*
X955730D01*
X906150Y2817910D01*
Y2950850D01*
X980440Y3025140D01*
G01X2291000Y698930D02*
Y1219100D01*
X2335550Y1263650D01*
X2741930D01*
X2745740Y1259840D01*
G01X1946020Y2096770D02*
X2071270Y1971520D01*
Y1875700D01*
X2030730Y1835160D01*
Y1694660D01*
X2112010Y1613380D01*
Y1458650D01*
G01X2359660Y1488440D02*
X2263140Y1584960D01*
Y2451370D01*
X2158000Y2556510D01*
G01X2805910Y1840000D02*
X2866100Y1900190D01*
Y3071200D01*
X3008800Y3213900D01*
Y3684100D01*
X2915770Y3777130D01*
Y3829850D01*
X2837900Y3907720D01*
Y3959800D01*
G54D19*
X3021660Y771750D03*
X3221660D03*
G54D29*
G01X2603400Y467600D02*
X2517800Y382000D01*
X2352000D01*
X2312620Y421380D01*
X1983480D01*
X1968500Y406400D01*
M02*
