G04 ================== begin FILE IDENTIFICATION RECORD ==================*
G04 Layout Name:  D:/projects/Popcorn/Rev2.0/Brd/Popcorn Computer Rev 2p0_Release.brd*
G04 Film Name:    mask_bot*
G04 File Format:  Gerber RS274X*
G04 File Origin:  Cadence Allegro 16.6-2015-S105*
G04 Origin Date:  Tue Jul 21 11:26:29 2020*
G04 *
G04 Layer:  PIN/SOLDERMASK_BOTTOM*
G04 Layer:  PACKAGE GEOMETRY/SOLDERMASK_BOTTOM*
G04 Layer:  BOARD GEOMETRY/OUTLINE*
G04 Layer:  BOARD GEOMETRY/SOLDERMASK_BOTTOM*
G04 *
G04 Offset:    (0.0000 0.0000)*
G04 Mirror:    No*
G04 Mode:      Positive*
G04 Rotation:  0*
G04 FullContactRelief:  No*
G04 UndefLineWidth:     0.1270*
G04 ================== end FILE IDENTIFICATION RECORD ====================*
%FSLAX25Y25*MOMM*%
%IR0*IPPOS*OFA0.00000B0.00000*MIA0B0*SFA1.00000B1.00000*%
%ADD47R,1.0224X.4124*%
%ADD34R,.4124X1.0224*%
%ADD48R,1.0224X.5624*%
%ADD39C,.5016*%
%ADD33R,.5624X1.0224*%
%ADD49R,.7424X1.4024*%
%ADD46R,.527X1.527*%
%ADD25R,1.0262X.9271*%
%ADD21R,.6024X1.5524*%
%ADD19R,.9271X1.0262*%
%ADD50R,.4524X1.7524*%
%ADD38C,.8636*%
%ADD45C,.9555*%
%ADD27R,.9271X.9271*%
%ADD20R,.7264X.7264*%
%ADD29O,.2499X1.777*%
%ADD18O,1.777X.2499*%
%ADD15R,.27X.35*%
%ADD16R,.35X.27*%
%ADD42R,1.527X1.127*%
%ADD44C,1.2271*%
%ADD32R,6.X6.*%
%ADD51R,2.0324X1.7224*%
%ADD37O,1.1684X1.4224*%
%ADD40O,1.4224X1.1684*%
%ADD10C,1.6271*%
%ADD24O,1.6256X1.2192*%
%ADD17R,1.127X1.127*%
%ADD35R,1.7018X1.1176*%
%ADD12R,1.1176X1.7018*%
%ADD52C,1.7526*%
%ADD41O,1.077X2.3269*%
%ADD31R,1.5748X1.27*%
%ADD23O,1.2761X2.3762*%
%ADD14C,5.6271*%
%ADD30O,2.5273X1.7272*%
%ADD22R,1.27X1.5748*%
%ADD36R,.4064X.8128*%
%ADD28R,2.3269X1.177*%
%ADD26O,1.3762X2.8263*%
%ADD11R,1.6271X1.6271*%
%ADD13R,.8128X.4064*%
%ADD43R,2.0269X2.0269*%
%ADD53R,1.7526X1.7526*%
%ADD54C,.127*%
G75*
%LPD*%
G75*
G36*
G01X550000Y4398000D02*
Y4558000D01*
X742000D01*
Y4398000D01*
X550000D01*
G37*
G54D10*
X0Y254000D03*
Y762000D03*
Y508000D03*
Y1016000D03*
Y1524000D03*
Y1778000D03*
Y2286000D03*
Y2032000D03*
Y3048000D03*
Y2794000D03*
Y3302000D03*
Y3556000D03*
Y4318000D03*
Y4064000D03*
Y4572000D03*
Y4826000D03*
X254000Y254000D03*
Y762000D03*
Y508000D03*
Y1016000D03*
Y1524000D03*
Y1270000D03*
Y1778000D03*
Y2286000D03*
Y2032000D03*
Y2540000D03*
Y3048000D03*
Y2794000D03*
Y3302000D03*
Y3810000D03*
Y3556000D03*
Y4318000D03*
Y4064000D03*
Y4572000D03*
Y5080000D03*
Y4826000D03*
X3556000Y254000D03*
Y762000D03*
Y508000D03*
Y1016000D03*
Y1524000D03*
Y1778000D03*
Y2286000D03*
Y2032000D03*
Y3048000D03*
Y2794000D03*
Y3302000D03*
Y3556000D03*
Y4318000D03*
Y4064000D03*
Y4572000D03*
Y4826000D03*
X3810000Y254000D03*
Y762000D03*
Y508000D03*
Y1016000D03*
Y1524000D03*
Y1270000D03*
Y1778000D03*
Y2286000D03*
Y2032000D03*
Y2540000D03*
Y3048000D03*
Y2794000D03*
Y3302000D03*
Y3810000D03*
Y3556000D03*
Y4318000D03*
Y4064000D03*
Y4572000D03*
Y5080000D03*
Y4826000D03*
G54D11*
X0Y1270000D03*
Y2540000D03*
Y3810000D03*
Y5080000D03*
X3556000Y1270000D03*
Y2540000D03*
Y3810000D03*
Y5080000D03*
G54D20*
X407980Y3684230D03*
Y3784250D03*
X698500Y3683790D03*
Y3783810D03*
X596900Y3683790D03*
Y3783810D03*
X501560Y3683790D03*
Y3783810D03*
X431800Y4445760D03*
Y4545840D03*
X381760Y4889500D03*
X481840D03*
X662860Y5014400D03*
X762940D03*
X1041400Y5561810D03*
Y5461790D03*
X914400Y5561810D03*
Y5461790D03*
X1277620Y1116840D03*
Y1016760D03*
X1625600Y1054890D03*
Y1154910D03*
X1902000Y4496890D03*
Y4596910D03*
X1845990Y4340000D03*
X1899300Y4876010D03*
Y4775990D03*
X1905000Y4966490D03*
Y5066510D03*
X1890960Y5332000D03*
X2166340Y301200D03*
X2066260D03*
X1981200Y4496590D03*
Y4596610D03*
X1946010Y4340000D03*
X1993900Y4966490D03*
X1981200Y4876010D03*
Y4775990D03*
X1993900Y5066510D03*
X1991040Y5332000D03*
X2540000Y5561810D03*
Y5461790D03*
X2667000Y5561810D03*
Y5461790D03*
X2971010Y1686230D03*
X2870990D03*
X3061490Y1790700D03*
X2863370Y2070100D03*
X2963390D03*
X2895600Y5029990D03*
Y5130010D03*
X3161510Y1790700D03*
X3402810Y4890750D03*
X3302790D03*
X3390900Y5423690D03*
Y5523710D03*
G54D30*
X1003300Y3730750D03*
Y3990850D03*
G54D12*
X304800Y5283200D03*
G54D21*
X743500Y4258000D03*
X678500D03*
X613500D03*
X548500D03*
Y4698000D03*
X613500D03*
X678500D03*
X743500D03*
G54D13*
X195580Y5348200D03*
Y5283200D03*
Y5218200D03*
X414020D03*
Y5283200D03*
Y5348200D03*
G54D22*
X597920Y3937000D03*
X418080D03*
X1040380Y4483100D03*
X1220220D03*
X1522980Y4470400D03*
X1702820D03*
G54D31*
X1155700Y4990080D03*
Y5169920D03*
X1714500Y4990080D03*
Y5169920D03*
X3365500Y5284220D03*
Y5104380D03*
G54D40*
X2306300Y4975400D03*
Y5153200D03*
G54D14*
X254810Y5753610D03*
G54D23*
X761800Y5455300D03*
X1625800D03*
X2387400D03*
X3251400D03*
G54D41*
X2764510Y227710D03*
X3331490D03*
G54D32*
X1607820Y2420620D03*
G54D50*
X3381200Y928800D03*
X3331200D03*
X3281200D03*
X3231200D03*
X3181200D03*
Y1348800D03*
X3231200D03*
X3281200D03*
X3331200D03*
X3381200D03*
G54D24*
X791770Y5528020D03*
X1595830Y5527970D03*
X2417370Y5528020D03*
X3221430Y5527970D03*
G54D51*
X3281200Y1138800D03*
G54D42*
X2728010Y452700D03*
X3367990D03*
G54D15*
X695700Y549800D03*
Y609800D03*
X589000Y663300D03*
Y723300D03*
X635000Y4106700D03*
Y4046700D03*
X673100D03*
Y4106700D03*
X774900Y549800D03*
Y609800D03*
X787400Y3818100D03*
Y3878100D03*
X1035860Y4277840D03*
Y4337840D03*
X908860Y4760440D03*
Y4820440D03*
X1490980Y1064740D03*
X1430020D03*
X1369060D03*
X1290320Y906300D03*
Y846300D03*
X1490980Y1124740D03*
X1430020D03*
X1369060D03*
X1308100Y3665700D03*
Y3725700D03*
X1276700Y3952000D03*
Y3892000D03*
X1225900Y3952000D03*
Y3892000D03*
X1327500D03*
Y3952000D03*
X1244600Y4275300D03*
Y4335300D03*
X1155700Y4275300D03*
Y4335300D03*
X1790700Y1062200D03*
Y1007900D03*
Y947900D03*
X1739900Y1062200D03*
X1689100D03*
X1551940Y1064740D03*
X1790700Y1122200D03*
X1739900D03*
X1689100D03*
X1551940Y1124740D03*
X1853250Y3980480D03*
Y3920480D03*
X1943100Y3982240D03*
Y3922240D03*
X2107800Y5018100D03*
Y4958100D03*
X2273300Y5685000D03*
Y5745000D03*
X2134420Y5896540D03*
Y5956540D03*
X2438400Y5287800D03*
Y5227800D03*
X2650800Y5288100D03*
Y5228100D03*
X2498700Y5288700D03*
Y5228700D03*
X2387600Y5287800D03*
Y5227800D03*
X2549300Y5288400D03*
Y5228400D03*
X2600100Y5288400D03*
Y5228400D03*
X2755900Y1477800D03*
Y1417800D03*
X2692400Y1477800D03*
Y1417800D03*
X2860040Y1609880D03*
Y1549880D03*
X2971800Y1609880D03*
Y1549880D03*
X2800000Y3560000D03*
Y3620000D03*
X2860000Y3560000D03*
Y3620000D03*
X2701800Y5228300D03*
Y5288300D03*
X3403600Y4948400D03*
Y5008400D03*
Y4643600D03*
Y4703600D03*
G54D33*
X1387500Y3788000D03*
Y3672000D03*
X1552500Y3788000D03*
Y3672000D03*
X1617500Y3788000D03*
X1782500D03*
X1617500Y3672000D03*
X1782500D03*
X1878700Y3671900D03*
Y3787900D03*
X2108700D03*
X2273700D03*
X2108700Y3671900D03*
X2273700D03*
X2043700D03*
Y3787900D03*
X2338700D03*
X2503700D03*
X2338700Y3671900D03*
X2503700D03*
G54D43*
X2928010Y227710D03*
X3167990D03*
G54D52*
X3850010Y5400000D03*
G54D16*
X528800Y596900D03*
X588800D03*
X538000Y1033780D03*
X478000D03*
X538000Y972820D03*
X478000D03*
X538000Y1094740D03*
X478000D03*
X529100Y784300D03*
X589100D03*
X538000Y1155700D03*
X478000D03*
X588800Y4102100D03*
X528800D03*
X1701800Y927100D03*
X1641800D03*
Y866140D03*
X1701800D03*
X1633700Y4597400D03*
X1693700D03*
X1889000Y4264000D03*
X1829000D03*
X2162300Y5743600D03*
X2222300D03*
X2162700Y5684200D03*
X2222700D03*
X2573500Y1346200D03*
X2633500D03*
X2573500Y1282700D03*
X2633500D03*
X2675100Y3594100D03*
X2344900Y4876800D03*
X2404900D03*
X2459200D03*
X2519200D03*
X2779240Y906780D03*
X2839240D03*
X2836700Y1028700D03*
X2776700D03*
X2779240Y967740D03*
X2839240D03*
X2865600Y1778000D03*
X2925600D03*
X2865600Y1841500D03*
X2925600D03*
Y1921100D03*
X2865600D03*
Y1996440D03*
X2925600D03*
X2799600Y3673500D03*
X2859600D03*
X2735100Y3594100D03*
X3291860Y4955540D03*
X3351860D03*
Y5006340D03*
X3291860D03*
G54D25*
X584200Y5479900D03*
Y5619900D03*
X774700Y3981300D03*
Y4121300D03*
X876300Y4540100D03*
X865000Y4284000D03*
Y4424000D03*
X876300Y4680100D03*
X1003300Y5010000D03*
Y5150000D03*
X1424940Y920900D03*
Y780900D03*
X1358900Y4273400D03*
Y4413400D03*
X1435100Y5213500D03*
Y5073500D03*
X1308100Y5213500D03*
Y5073500D03*
X1892300Y1111400D03*
Y971400D03*
X1562100Y5010000D03*
Y5150000D03*
X2277900Y300400D03*
Y440400D03*
X2286000Y915820D03*
Y775820D03*
X2075180Y1052980D03*
Y912980D03*
X2147000Y5301000D03*
Y5161000D03*
X2536200Y248630D03*
X2409200D03*
X2536200Y388630D03*
X2409200D03*
X2626360Y1052980D03*
Y912980D03*
X3380400Y1543700D03*
Y1683700D03*
X3123700Y1542900D03*
Y1682900D03*
G54D34*
X1495000Y3788000D03*
X1445000D03*
Y3672000D03*
X1495000D03*
X1725000Y3788000D03*
X1675000D03*
Y3672000D03*
X1725000D03*
X2216200Y3787900D03*
X2166200D03*
Y3671900D03*
X2216200D03*
X1936200D03*
X1986200D03*
Y3787900D03*
X1936200D03*
X2446200D03*
X2396200D03*
Y3671900D03*
X2446200D03*
G54D53*
X3549990Y5400000D03*
G54D26*
X608810Y5965490D03*
X1778790D03*
X2234410D03*
X3404390D03*
G54D35*
X1409700Y5448300D03*
X3035300Y5461000D03*
G54D17*
X738990Y927100D03*
G54D44*
X3021660Y771750D03*
X3221660D03*
G54D54*
G01X723800Y5627990D02*
G02Y5727990I0J50000D01*
G01Y6153660D01*
X194820D01*
X-145240Y5813600D01*
Y104140D01*
X3954810D01*
X3955340Y104670D01*
Y6153660D01*
X3289400D01*
Y5727990D01*
G02Y5627990I0J-50000D01*
G01X1663800D02*
X723800D01*
G01X1663800D02*
X723800D01*
G01X757800Y6522240D02*
X783210Y6501080D01*
X811780Y6488380D01*
X837180D01*
X862580Y6501080D01*
X881630Y6522240D01*
X891160Y6551880D01*
X884810Y6581510D01*
X868930Y6606910D01*
X840350Y6623850D01*
X802260Y6632310D01*
X780030Y6649240D01*
X770500Y6678880D01*
X776860Y6708510D01*
X792730Y6729670D01*
X814950Y6742380D01*
X837180D01*
X859410Y6733920D01*
X878460Y6712750D01*
G01X995930Y6488380D02*
Y6742380D01*
X1078480Y6530710D01*
X1161030Y6742380D01*
Y6488380D01*
G01X1357880Y6623850D02*
X1370580Y6636550D01*
X1380100Y6657710D01*
X1386460Y6687350D01*
X1380100Y6712750D01*
X1367410Y6729670D01*
X1345180Y6742380D01*
X1259460D01*
Y6488380D01*
X1364230D01*
X1386460Y6505310D01*
X1399160Y6530710D01*
X1405500Y6560350D01*
X1399160Y6589970D01*
X1380100Y6615380D01*
X1357880Y6623850D01*
X1259460D01*
G01X1776980Y6742380D02*
Y6488380D01*
X1903980D01*
G01X2015100D02*
X2094480Y6742380D01*
X2173860Y6488380D01*
G01X2145280Y6577280D02*
X2043680D01*
G01X2348480Y6488380D02*
Y6602680D01*
X2284980Y6742380D01*
G01X2411980D02*
X2348480Y6602680D01*
G01X2665980Y6488380D02*
X2538980D01*
Y6742380D01*
X2665980D01*
G01X2615180Y6619620D02*
X2538980D01*
G01X2792980Y6488380D02*
Y6742380D01*
X2872350D01*
X2897750Y6729670D01*
X2913630Y6712750D01*
X2919980Y6678880D01*
X2913630Y6645010D01*
X2894580Y6623850D01*
X2872350Y6611140D01*
X2792980D01*
G01X2872350D02*
X2919980Y6488380D01*
G01X1663800Y5627990D02*
G03Y5727990I0J50000D01*
G01Y6153660D01*
X2349400D01*
Y5727990D01*
G03Y5627990I0J-50000D01*
G01X3289400D02*
X2349400D01*
G01X3289400D02*
X2349400D01*
G54D36*
X1344700Y5339080D03*
X1409700D03*
X1474700D03*
Y5557520D03*
X1409700D03*
X1344700D03*
X2970300Y5351780D03*
X3035300D03*
X3100300D03*
Y5570220D03*
X3035300D03*
X2970300D03*
G54D18*
X530330Y1880620D03*
Y1840610D03*
Y1800630D03*
Y1760630D03*
Y1720620D03*
Y1680620D03*
Y1640610D03*
Y1600630D03*
Y1560630D03*
Y2240610D03*
Y2200630D03*
Y2160630D03*
Y2120620D03*
Y2080620D03*
Y2040610D03*
Y2000630D03*
Y1960630D03*
Y1920620D03*
Y2640610D03*
Y2600630D03*
Y2560620D03*
Y2520620D03*
Y2480610D03*
Y2440610D03*
Y2400630D03*
Y2360630D03*
Y2320620D03*
Y2280620D03*
Y3040610D03*
Y3000630D03*
Y2960620D03*
Y2920620D03*
Y2880610D03*
Y2840610D03*
Y2800630D03*
Y2760620D03*
Y2720620D03*
Y2680610D03*
Y3280610D03*
Y3240610D03*
Y3200630D03*
Y3160620D03*
Y3120620D03*
Y3080610D03*
X2685310Y1560630D03*
Y1600630D03*
Y1640610D03*
Y1680620D03*
Y1720620D03*
Y1760630D03*
Y1800630D03*
Y1840610D03*
Y1880620D03*
Y1920620D03*
Y1960630D03*
Y2000630D03*
Y2040610D03*
Y2080620D03*
Y2120620D03*
Y2160630D03*
Y2200630D03*
Y2240610D03*
Y2280620D03*
Y2320620D03*
Y2360630D03*
Y2400630D03*
Y2440610D03*
Y2480610D03*
Y2520620D03*
Y2560620D03*
Y2600630D03*
Y2640610D03*
Y2680610D03*
Y2720620D03*
Y2760620D03*
Y2800630D03*
Y2840610D03*
Y2880610D03*
Y2920620D03*
Y2960620D03*
Y3000630D03*
Y3040610D03*
Y3080610D03*
Y3120620D03*
Y3160620D03*
Y3200630D03*
Y3240610D03*
Y3280610D03*
G54D27*
X1039010Y927100D03*
G54D45*
X2848000Y442700D03*
X3248000D03*
G54D28*
X889000Y779600D03*
Y1074600D03*
G54D37*
X1943100Y551180D03*
Y728980D03*
X1822450Y5638800D03*
X1917700Y5867400D03*
X2120900Y551180D03*
Y728980D03*
X2012950Y5638800D03*
X2451100Y5054600D03*
X2628900D03*
G54D19*
X654200Y3581400D03*
X514200D03*
X666900Y5219700D03*
X526900D03*
X1366400Y4083700D03*
X1226400D03*
X1720700Y4102100D03*
X1860700D03*
X1872000Y5203000D03*
X2257030Y568600D03*
X2012000Y5203000D03*
X1949300Y6045200D03*
X2089300D03*
X2516000Y629500D03*
X2656000D03*
X2397030Y568600D03*
X2963060Y1231900D03*
X2823060D03*
X3092300Y1930400D03*
Y2057400D03*
X3232300Y1930400D03*
Y2057400D03*
G54D46*
X3048000Y487710D03*
X2983000D03*
X2918000D03*
X3178000D03*
X3113000D03*
G54D29*
X747830Y1343130D03*
X787830D03*
X827810D03*
X867820D03*
X907820D03*
X947830D03*
X987830D03*
X1027810D03*
X1067820D03*
X1107820D03*
Y3498110D03*
X1067820D03*
X1027810D03*
X987830D03*
X947830D03*
X907820D03*
X867820D03*
X827810D03*
X787830D03*
X747830D03*
X1147830Y1343130D03*
X1187830D03*
X1227810D03*
X1267820D03*
X1307820D03*
X1347830D03*
X1387830D03*
X1427810D03*
X1467820D03*
X1507820D03*
Y3498110D03*
X1467820D03*
X1427810D03*
X1387830D03*
X1347830D03*
X1307820D03*
X1267820D03*
X1227810D03*
X1187830D03*
X1147830D03*
X1547830Y1343130D03*
X1587830D03*
X1627810D03*
X1667810D03*
X1707820D03*
X1747820D03*
X1787830D03*
X1827810D03*
X1867810D03*
Y3498110D03*
X1827810D03*
X1787830D03*
X1747820D03*
X1707820D03*
X1667810D03*
X1627810D03*
X1587830D03*
X1547830D03*
X1907820Y1343130D03*
X1947820D03*
X1987830D03*
X2027810D03*
X2067810D03*
X2107820D03*
X2147820D03*
X2187830D03*
X2227810D03*
X2267810D03*
Y3498110D03*
X2227810D03*
X2187830D03*
X2147820D03*
X2107820D03*
X2067810D03*
X2027810D03*
X1987830D03*
X1947820D03*
X1907820D03*
X2307820Y1343130D03*
X2347820D03*
X2387830D03*
X2427810D03*
X2467810D03*
Y3498110D03*
X2427810D03*
X2387830D03*
X2347820D03*
X2307820D03*
G54D38*
X2006600Y1155700D03*
X2737660Y4968240D03*
G54D47*
X3028100Y2272900D03*
Y2222900D03*
Y2514200D03*
Y2464200D03*
Y2996800D03*
Y2946800D03*
Y2755500D03*
Y2705500D03*
Y3429400D03*
Y3238100D03*
Y3188100D03*
Y3479400D03*
X3144100Y2222900D03*
Y2272900D03*
Y2464200D03*
Y2514200D03*
Y2946800D03*
Y2996800D03*
Y2705500D03*
Y2755500D03*
Y3429400D03*
Y3188100D03*
Y3238100D03*
Y3479400D03*
G54D39*
X2087320Y4191030D03*
Y4111020D03*
Y4031030D03*
X2167330Y4191030D03*
Y4111020D03*
Y4031030D03*
X2247320Y4191030D03*
Y4111020D03*
Y4031030D03*
X2087320Y4591020D03*
Y4511010D03*
X2167330Y4591020D03*
Y4511010D03*
X2247320Y4591020D03*
Y4511010D03*
X2087320Y4671010D03*
X2167330D03*
X2247320D03*
X2327330Y4191030D03*
Y4111020D03*
Y4031030D03*
X2407310Y4191030D03*
Y4111020D03*
Y4031030D03*
X2487320Y4191030D03*
Y4111020D03*
Y4031030D03*
X2567330Y4191030D03*
Y4111020D03*
Y4031030D03*
X2647320Y4191030D03*
Y4111020D03*
Y4031030D03*
X2327330Y4591020D03*
Y4511010D03*
X2407310Y4591020D03*
Y4511010D03*
X2487320Y4591020D03*
Y4511010D03*
X2567330Y4591020D03*
Y4511010D03*
X2647320Y4591020D03*
Y4511010D03*
X2327330Y4671010D03*
X2407310D03*
X2487320D03*
X2567330D03*
X2647320D03*
X2727320Y4191030D03*
Y4111020D03*
Y4031030D03*
X2807310Y4191030D03*
Y4111020D03*
Y4031030D03*
X2887320Y4191030D03*
Y4111020D03*
Y4031030D03*
X2967330Y4191030D03*
Y4111020D03*
Y4031030D03*
X3047310Y4191030D03*
Y4111020D03*
Y4031030D03*
X2727320Y4591020D03*
Y4511010D03*
X2807310Y4591020D03*
Y4511010D03*
X2887320Y4591020D03*
Y4511010D03*
X2967330Y4591020D03*
Y4511010D03*
X3047310Y4591020D03*
Y4511010D03*
X2727320Y4671010D03*
X2807310D03*
X2887320D03*
X2967330D03*
X3047310D03*
X3127320Y4191030D03*
Y4111020D03*
Y4031030D03*
X3207310Y4191030D03*
Y4111020D03*
Y4031030D03*
X3287320Y4191030D03*
Y4111020D03*
Y4031030D03*
X3127320Y4591020D03*
Y4511010D03*
X3207310Y4591020D03*
Y4511010D03*
X3287320Y4591020D03*
Y4511010D03*
X3127320Y4671010D03*
X3207310D03*
X3287320D03*
G54D48*
X3028100Y2165400D03*
Y2648000D03*
Y2571700D03*
Y2406700D03*
Y2330400D03*
Y3054300D03*
Y2889300D03*
Y2813000D03*
Y3371900D03*
Y3295600D03*
Y3130600D03*
Y3536900D03*
X3144100Y2165400D03*
Y2648000D03*
Y2571700D03*
Y2406700D03*
Y2330400D03*
Y3054300D03*
Y2889300D03*
Y2813000D03*
Y3371900D03*
Y3295600D03*
Y3130600D03*
Y3536900D03*
G54D49*
X3086100Y4929100D03*
X2991100D03*
Y5180100D03*
X3086100D03*
X3181100Y4929100D03*
Y5180100D03*
M02*
