G04 ================== begin FILE IDENTIFICATION RECORD ==================*
G04 Layout Name:  D:/projects/Popcorn/Rev2.0/Brd/Popcorn Computer Rev 2p0_Release.brd*
G04 Film Name:    top*
G04 File Format:  Gerber RS274X*
G04 File Origin:  Cadence Allegro 16.6-2015-S105*
G04 Origin Date:  Tue Jul 21 11:54:36 2020*
G04 *
G04 Layer:  VIA CLASS/TOP*
G04 Layer:  PIN/TOP*
G04 Layer:  ETCH/TOP*
G04 Layer:  BOARD GEOMETRY/OUTLINE*
G04 *
G04 Offset:    (0.0000 0.0000)*
G04 Mirror:    No*
G04 Mode:      Positive*
G04 Rotation:  0*
G04 FullContactRelief:  No*
G04 UndefLineWidth:     0.1270*
G04 ================== end FILE IDENTIFICATION RECORD ====================*
%FSLAX25Y25*MOMM*%
%IR0*IPPOS*OFA0.00000B0.00000*MIA0B0*SFA1.00000B1.00000*%
%ADD61R,1.3995X1.1989*%
%ADD64O,.95X2.1001*%
%ADD62R,.6X1.55*%
%ADD56C,.23*%
%ADD50C,.25*%
%AMMACRO15*
4,1,5,-.1501,-.1001,
-.1501,.1001,
.1001,.1001,
.1501,.05,
.1501,-.1001,
-.1501,-.1001,
0.0*
%
%ADD15MACRO15*%
%ADD39O,.6604X1.27*%
%AMMACRO58*
4,1,5,2.0498,-1.5011,
2.0498,2.0498,
-2.0498,2.0498,
-2.0498,-2.0498,
1.5011,-2.0498,
2.0498,-1.5011,
0.0*
%
%ADD58MACRO58*%
%ADD11C,.4064*%
%ADD67C,.762*%
%ADD48C,.6604*%
%ADD38C,.4572*%
%ADD47R,1.X.5999*%
%ADD18R,1.1989X.5004*%
%ADD17R,.5004X1.1989*%
%ADD19C,.5994*%
%ADD14R,.8999X1.7*%
%ADD66C,.5999*%
%ADD34R,.8999X1.8001*%
%ADD23R,.5994X.5994*%
%ADD40R,1.5X1.4*%
%ADD25R,3.7X1.1*%
%ADD21R,.22X.3*%
%ADD22R,.3X.22*%
%ADD42R,.7X.2*%
%ADD57O,1.016X1.27*%
%ADD41R,.2X.7*%
%ADD30R,.8X.2*%
%ADD55O,2.4003X1.6002*%
%ADD28R,.2X.8*%
%ADD65C,1.1001*%
%ADD63R,.2X.9*%
%ADD43R,5.5X3.4*%
%ADD33O,1.3X2.7501*%
%ADD69R,.81X.22*%
%ADD70R,.22X.81*%
%ADD68R,5.7X1.7*%
%ADD51R,2.6X1.75*%
%ADD26R,.3X.84*%
%ADD10C,1.5001*%
%ADD46R,.27X.8001*%
%ADD52O,1.016X1.6256*%
%ADD44R,2.55X1.75*%
%ADD32O,1.524X1.1176*%
%ADD13C,5.5001*%
%ADD36R,.41X.87*%
%ADD71C,1.651*%
%ADD54O,.1905X.254*%
%ADD12R,1.5001X1.5001*%
%ADD49O,.254X.1905*%
%ADD37R,.26X.87*%
%ADD31R,1.8X1.8*%
%ADD29O,1.1999X2.3*%
%ADD72R,1.651X1.651*%
%ADD16R,.3X.1999*%
%ADD35R,.1999X.3*%
%ADD27R,1.4732X1.1684*%
%ADD60O,.1999X.8001*%
%ADD59O,.8001X.1999*%
%ADD53R,.8992X.8001*%
%ADD20R,.8001X.8992*%
%ADD24R,1.1684X2.7178*%
%ADD45R,.27X.8999*%
%ADD73C,.2032*%
%ADD74C,.7*%
%ADD75C,.1016*%
%ADD76C,.1143*%
%ADD77C,.127*%
%ADD78C,.254*%
%ADD79C,.1524*%
%ADD80C,.381*%
%ADD81C,.508*%
%ADD82C,.3048*%
%ADD83C,.4826*%
%ADD84C,.3498*%
%ADD87C,.61*%
%ADD91C,.7116*%
%ADD88C,.6354*%
%ADD89C,.9046*%
%ADD90C,1.0002*%
%ADD86C,2.0086*%
%ADD85C,1.7038*%
G75*
%LPD*%
G75*
G36*
G01X1912600Y1877350D02*
Y1793590D01*
G02X1895260Y1786410I-10159J5D01*
G01X1886480Y1795190D01*
Y1862620D01*
X1771120D01*
Y1828180D01*
X1751480Y1808540D01*
G03X1740360Y1797420I15280J-26400D01*
G01X1738870Y1795930D01*
X1676370D01*
G02X1669190Y1813270I6J10159D01*
G01X1745530Y1889610D01*
Y1942370D01*
G03X1712470I-16530J25630D01*
G01Y1903310D01*
X1664180Y1855010D01*
G02X1647930Y1857610I-7183J7187D01*
G03X1637240Y1869480I-27218J-13763D01*
G01Y1948640D01*
X1588150Y1997730D01*
X809960D01*
Y2094700D01*
X772660D01*
Y2107460D01*
X740280D01*
Y2123570D01*
X734320Y2129530D01*
Y2141360D01*
X746620D01*
Y2161400D01*
X734320D01*
Y2175100D01*
X718190D01*
G02X714600Y2183770I2J5079D01*
G01X723340Y2192510D01*
X767380D01*
Y2205180D01*
X794720D01*
Y2265220D01*
X767380D01*
Y2277890D01*
X753920D01*
Y2291820D01*
X772660D01*
Y2304860D01*
X809960D01*
Y2394420D01*
X772660D01*
Y2407180D01*
X667440D01*
G03X636660Y2418610I-24338J-18381D01*
G02X624350Y2428540I-2150J9930D01*
G01Y2439650D01*
X682000D01*
Y2421110D01*
X767380D01*
Y2433780D01*
X794720D01*
Y2493820D01*
X767380D01*
Y2506490D01*
X682000D01*
Y2505780D01*
X676450D01*
X675990Y2505870D01*
G03X662350Y2505290I-5557J-29990D01*
G01X661690Y2505110D01*
X657320D01*
X653390Y2501170D01*
G03X649550Y2498110I17024J-25303D01*
G01X624350D01*
Y2505700D01*
X538970D01*
Y2420320D01*
X551640D01*
Y2392980D01*
X612480D01*
X612610Y2388030D01*
G03X653570Y2360150I30491J768D01*
G02X667220Y2350610I3490J-9542D01*
G01Y2291820D01*
X695460D01*
Y2277890D01*
X682000D01*
Y2233850D01*
X679200Y2231050D01*
X674020D01*
X623550Y2180580D01*
Y2175360D01*
X623370Y2174700D01*
G03X664740Y2138560I29411J-8082D01*
G02X678880Y2129220I3981J-9346D01*
G01Y2127660D01*
X686260D01*
Y2120050D01*
X690180Y2116130D01*
G02X686590Y2107460I-3591J-3591D01*
G01X667220D01*
Y2068850D01*
X652860D01*
X652200Y2069030D01*
G03X622900Y2061530I-8082J-29410D01*
G01X544420D01*
Y2068920D01*
X496980D01*
Y1980860D01*
X495790Y1979670D01*
Y1795930D01*
X439660D01*
Y1793240D01*
X438960D01*
Y815340D01*
X591360D01*
Y841480D01*
X598180D01*
X671640Y914940D01*
G02X688980Y907760I7181J-7186D01*
G01Y877070D01*
X754970D01*
Y800880D01*
X694540D01*
Y769460D01*
G03X677320Y718040I37743J-41233D01*
G01X677400Y717580D01*
Y664670D01*
G02X664110Y655010I-10160J6D01*
G03X625220Y618160I-9413J-29012D01*
G03X648000Y511210I22780J-51049D01*
G01X654750D01*
G03X680120Y517300I0J55889D01*
G01X681200Y517850D01*
X688290D01*
G03X729370Y539920I0J49267D01*
G02X745730Y540710I8470J-5607D01*
G03X778310Y525180I32580J26409D01*
G01X782720D01*
X784120Y524020D01*
G03X819730Y511210I35610J43090D01*
G01X1054680D01*
X1055130Y506630D01*
G03X1068370Y475700I55628J5514D01*
G02X1068350Y469040I-3847J-3318D01*
G03X1054560Y432280I42101J-36760D01*
G01Y284960D01*
G03X1189680Y149840I135120J0D01*
G01X1224260D01*
Y123170D01*
X-87550D01*
Y452310D01*
G02X-69140Y458240I10162J-5D01*
G03Y557760I69140J49760D01*
G02X-87550Y563690I-8248J5935D01*
G01Y683000D01*
G02X-70280Y690260I10160J2D01*
G03Y833740I70280J71740D01*
G02X-87550Y841000I-7110J7258D01*
G01Y960310D01*
G02X-69140Y966240I10162J-5D01*
G03Y1065760I69140J49760D01*
G02X-87550Y1071690I-8248J5935D01*
G01Y1184820D01*
X85180D01*
Y1355180D01*
X-87550D01*
Y1468310D01*
G02X-69140Y1474240I10162J-5D01*
G03Y1573760I69140J49760D01*
G02X-87550Y1579690I-8248J5935D01*
G01Y1722310D01*
G02X-69140Y1728240I10162J-5D01*
G03Y1827760I69140J49760D01*
G02X-87550Y1833690I-8248J5935D01*
G01Y1976310D01*
G02X-69140Y1982240I10162J-5D01*
G03Y2081760I69140J49760D01*
G02X-87550Y2087690I-8248J5935D01*
G01Y2230310D01*
G02X-69140Y2236240I10162J-5D01*
G03Y2335760I69140J49760D01*
G02X-87550Y2341690I-8248J5935D01*
G01Y2454820D01*
X85180D01*
Y2625180D01*
X-87550D01*
Y2738310D01*
G02X-69140Y2744240I10162J-5D01*
G03Y2843760I69140J49760D01*
G02X-87550Y2849690I-8248J5935D01*
G01Y2992310D01*
G02X-69140Y2998240I10162J-5D01*
G03Y3097760I69140J49760D01*
G02X-87550Y3103690I-8248J5935D01*
G01Y3246310D01*
G02X-69140Y3252240I10162J-5D01*
G03Y3351760I69140J49760D01*
G02X-87550Y3357690I-8248J5935D01*
G01Y3500310D01*
G02X-69140Y3506240I10162J-5D01*
G03Y3605760I69140J49760D01*
G02X-87550Y3611690I-8248J5935D01*
G01Y3724820D01*
X85180D01*
Y3895180D01*
X-87550D01*
Y4008310D01*
G02X-69140Y4014240I10162J-5D01*
G03Y4113760I69140J49760D01*
G02X-87550Y4119690I-8248J5935D01*
G01Y4262310D01*
G02X-69140Y4268240I10162J-5D01*
G03Y4367760I69140J49760D01*
G02X-87550Y4373690I-8248J5935D01*
G01Y4516310D01*
G02X-69140Y4522240I10162J-5D01*
G03Y4621760I69140J49760D01*
G02X-87550Y4627690I-8248J5935D01*
G01Y4770310D01*
G02X-69140Y4776240I10162J-5D01*
G03X83580Y4842500I69143J49763D01*
G01X83050Y4845160D01*
X146850Y4908960D01*
X374950D01*
X434320Y4849590D01*
Y4765020D01*
X476080D01*
Y4719780D01*
X616120D01*
Y4765020D01*
X643480D01*
X707540Y4700960D01*
Y4671940D01*
X868060D01*
Y4674480D01*
X915520D01*
Y4785280D01*
X917070Y4786770D01*
G03X918600Y4788660I-7075J7291D01*
G02X926190Y4789810I4294J-2716D01*
G03X940840Y4782940I19811J23190D01*
G02X947340Y4766950I-1716J-10014D01*
G03X946600Y4732110I24659J-17952D01*
G02X943110Y4717620I-8456J-5629D01*
G03X935510Y4670400I14890J-26618D01*
G02X933760Y4655160I-7495J-6860D01*
G03X929810Y4608070I17242J-25157D01*
G02X930810Y4594570I-7060J-7310D01*
G03X929080Y4559920I24190J-18576D01*
G02X924330Y4545180I-8634J-5353D01*
G03X921250Y4490300I11668J-28181D01*
G02X921750Y4472810I-4911J-8893D01*
G03X934390Y4416710I16249J-25813D01*
G01X936140Y4416510D01*
X938450Y4414190D01*
G02X945970Y4397780I-483J-10149D01*
G03X941340Y4389440I24023J-18792D01*
G02X928850Y4383190I-9546J3472D01*
G03X936200Y4328160I-8850J-29188D01*
G01X939630Y4330310D01*
X946840Y4323100D01*
X993160D01*
X1010140Y4340080D01*
X1084320D01*
Y4665520D01*
X1008900D01*
X988210Y4686200D01*
X988400Y4688550D01*
G03X988490Y4690190I-30398J2491D01*
G02X998640Y4700080I10156J-269D01*
G01X1084320D01*
Y4702460D01*
X1103300D01*
G03X1108840Y4703230I-3J20340D01*
G01X1109520Y4703420D01*
X1643210D01*
X1644170Y4702460D01*
X1658880D01*
Y4700080D01*
X1739140D01*
G02X1747850Y4684690I-2J-10161D01*
G03X1743530Y4670370I26148J-15700D01*
G01X1743310Y4665520D01*
X1658880D01*
Y4365000D01*
G03X1649570Y4345010I21121J-22000D01*
G02X1639430Y4335520I-10139J671D01*
G01X1088880D01*
Y4325220D01*
G02X1076040Y4315420I-10160J0D01*
G03X1042970Y4268580I-8037J-29420D01*
G02X1040970Y4254830I-8340J-5807D01*
G03X1030490Y4223300I19031J-23832D01*
G02X1020660Y4210580I-9833J-2560D01*
G01X1020580D01*
Y4197540D01*
X983280D01*
Y4107980D01*
X1020580D01*
Y4095220D01*
X1030880D01*
X1051080Y4075020D01*
Y3903960D01*
X1090300D01*
G03X1131180Y3903450I20950J40660D01*
G01X1132230Y3903960D01*
X1147640D01*
Y3916860D01*
X1148570Y3918180D01*
G03X1149380Y3919350I-37197J26617D01*
G01X1153620Y3921630D01*
X1157670Y3919610D01*
G03X1204630Y3958450I24333J18389D01*
G02X1204880Y3972330I7542J6806D01*
G03X1209960Y3979320I-21884J21245D01*
G02X1227070Y3980670I8983J-4751D01*
G03X1279180Y3965100I36583J27451D01*
G01X1282220Y3966190D01*
X1289640Y3958770D01*
X1303260D01*
X1303920Y3958590D01*
G03X1339870Y3975600I8083J29411D01*
G02X1353610Y3980600I9282J-4129D01*
G03X1339130Y4020400I13388J27405D01*
G02X1325390Y4015400I-9282J4129D01*
G03X1314400Y4018410I-13410J-27394D01*
G01X1312530Y4018550D01*
X1309390Y4021700D01*
Y4069080D01*
G03X1217910I-45740J0D01*
G01Y4025840D01*
G02X1201570Y4017780I-10158J1D01*
G03X1167410Y4019800I-18571J-24198D01*
G02X1152960Y4024360I-5189J8732D01*
G03X1147640Y4033290I-41702J-18794D01*
G01Y4036920D01*
X1185740Y4075020D01*
Y4096160D01*
X1176970Y4104920D01*
X1176590Y4105900D01*
G03X1159500Y4122990I-28350J-11260D01*
G01X1158520Y4123370D01*
X1147640Y4134260D01*
Y4150120D01*
X1155960D01*
X1157330Y4147170D01*
G03X1211020Y4144080I27672J12829D01*
G02X1224760Y4147580I8666J-5300D01*
G03X1270470Y4175310I15239J26420D01*
G02X1276010Y4180590I5076J220D01*
G03X1278110Y4180470I2789J30371D01*
G02X1283000Y4174480I-110J-5081D01*
G03X1340890Y4156660I30003J-5473D01*
G02X1354130Y4161900I9287J-4118D01*
G03X1371160Y4159940I11862J28100D01*
G02X1382650Y4152690I1714J-10013D01*
G03X1430160Y4136490I29350J8308D01*
G02X1443650Y4135240I6047J-8161D01*
G03X1471040Y4125920I22345J20761D01*
G02X1482880Y4115900I1680J-10020D01*
G01Y4114060D01*
G02X1477800Y4108990I-5077J7D01*
G01X1475440Y4109570D01*
G03X1427460Y4106220I-21280J-40489D01*
G03X1399390Y4057710I-24459J-18223D01*
G01X1401140Y4057510D01*
X1408410Y4050230D01*
Y4008120D01*
G03X1425720Y3972290I45737J0D01*
G02X1427360Y3958020I-6320J-7956D01*
G03X1426060Y3956270I24840J-19810D01*
G02X1411710Y3953800I-8376J5745D01*
G03X1386770Y3899450I-17948J-24661D01*
G02X1394330Y3887250I-2333J-9888D01*
G03X1405940Y3854780I30931J-7251D01*
G02X1406950Y3839530I-6176J-8067D01*
G01X1404740Y3837320D01*
Y3733680D01*
X1434680Y3703740D01*
X1851940D01*
X1888020Y3739820D01*
Y3824250D01*
G02X1899990Y3834240I10159J-6D01*
G03X1930510Y3845690I5680J31259D01*
G02X1943430Y3848210I7942J-6337D01*
G03X1974840Y3848360I15573J27690D01*
G02X1988360Y3845190I5067J-8806D01*
G03X2035620Y3838830I26430J17630D01*
G02X2048550Y3839170I6671J-7665D01*
G03X2047290Y3888180I19571J25024D01*
G02X2034360Y3887840I-6671J7665D01*
G03X1998950Y3890360I-19575J-25021D01*
G02X1985430Y3893530I-5067J8806D01*
G03X1934160Y3895710I-26431J-17629D01*
G02X1921240Y3893190I-7942J6337D01*
G03X1920690Y3893500I-15873J-27519D01*
G01X1918010Y3897980D01*
X1919490Y3901560D01*
G03X1919810Y3946120I-22489J22443D01*
G02X1919390Y3959800I7293J7070D01*
G03X1926410Y3986770I-24121J20677D01*
G01X1926310Y3987270D01*
Y3992860D01*
X1941050D01*
Y3992580D01*
X1951180D01*
Y3967780D01*
X2011220D01*
Y3992580D01*
X2026430D01*
Y4001310D01*
X2030680Y4005560D01*
X2056080D01*
X2072770Y4022260D01*
X2103470Y3991560D01*
X2103310Y3989250D01*
G03X2105700Y3974720I31690J-2249D01*
G02X2101020Y3961780I-9368J-3928D01*
G03X2145000Y3945880I14677J-28178D01*
G02X2149680Y3958820I9368J3928D01*
G03X2132750Y4018690I-14676J28179D01*
G01X2130440Y4018530D01*
X2118570Y4030400D01*
X2123840Y4035670D01*
X2126210Y4035460D01*
G03X2146870Y4040780I2868J31640D01*
G02X2154800Y4036580I2850J-4206D01*
G01Y4034230D01*
X2204470Y3984560D01*
X2204310Y3982250D01*
G03X2239820Y3948460I31690J-2250D01*
G02X2250740Y3935380I1214J-10085D01*
G03X2250520Y3934600I30465J-9014D01*
G02X2236970Y3927910I-9783J2746D01*
G03X2227370Y3866700I-11767J-29512D01*
G02X2238150Y3857760I692J-10134D01*
G03X2293550Y3882480I31548J3736D01*
G02X2296320Y3898110I7632J6708D01*
G03X2302310Y3949650I-15220J27887D01*
G02X2304860Y3966450I6787J7563D01*
G03X2264420Y4011750I-13249J28874D01*
G02X2250940Y4008040I-8696J5253D01*
G03X2233750Y4011690I-14936J-28040D01*
G01X2231440Y4011530D01*
X2219480Y4023490D01*
G02X2223410Y4040300I7181J7185D01*
G03X2200120Y4099330I-10162J30100D01*
G01X2199120Y4098880D01*
X2192940D01*
Y4104800D01*
G02X2203080Y4114960I10160J0D01*
G03X2231590Y4160630I-59J31771D01*
G02X2240720Y4175240I9132J4451D01*
G01X2247320D01*
G02X2256820Y4161480I-1J-10160D01*
G03X2305110Y4124460I29711J-11250D01*
G01X2308080Y4125420D01*
G02X2313160Y4120340I0J-5080D01*
G01Y4119570D01*
X2314640Y4118090D01*
Y4088540D01*
X2411450D01*
G02X2421440Y4076570I-7J-10160D01*
G03X2474010Y4047330I31261J-5674D01*
G02X2490080Y4043980I6814J-7534D01*
G01X2551020D01*
Y4068780D01*
X2566230D01*
Y4159240D01*
X2519440D01*
Y4175240D01*
X2536460D01*
Y4355990D01*
X2539590Y4357290D01*
G03X2546160Y4361000I-12227J29325D01*
G02X2559060Y4360270I6007J-8191D01*
G03X2561840Y4409220I21569J23329D01*
G02X2548940Y4409950I-6007J8191D01*
G03X2497910Y4374720I-21572J-23326D01*
G02X2488490Y4360760I-9421J-3801D01*
G01X2451580D01*
X2450690Y4361100D01*
G03X2423790Y4359280I-11508J-29611D01*
G01X2422640Y4358640D01*
X2409460D01*
Y4360760D01*
X2318940D01*
Y4358640D01*
X2282460D01*
Y4360760D01*
X2191940D01*
Y4358640D01*
X2155460D01*
Y4360760D01*
X2064940D01*
Y4193760D01*
G02X2051010Y4184330I-10159J4D01*
G03X2007520Y4153090I-11768J-29509D01*
G02X1999680Y4142640I-10145J-555D01*
G03X1976490Y4102520I7223J-30937D01*
G02X1966770Y4089420I-9727J-2939D01*
G01X1931260D01*
Y4089660D01*
X1915020D01*
Y4099420D01*
X1894980D01*
Y4089660D01*
X1878040D01*
X1817830Y4149870D01*
X1817620Y4150140D01*
G03X1799220Y4168470I-75809J-57698D01*
G01X1776680Y4191020D01*
X1629490D01*
X1628490Y4194800D01*
G03X1612530Y4214330I-29484J-7808D01*
G01Y4240080D01*
X1654320D01*
Y4260040D01*
G02X1662990Y4263630I5079J-2D01*
G01X1670100Y4256520D01*
X1669770Y4254030D01*
G03X1695970Y4280230I30230J-4030D01*
G01X1693480Y4279900D01*
X1677900Y4295480D01*
G02X1683810Y4312740I7186J7181D01*
G03X1709720Y4336140I-3808J30261D01*
G01X1710630Y4340080D01*
X1748470D01*
Y4324630D01*
G03X1783520Y4323230I16529J-25631D01*
G01X1781530Y4324750D01*
Y4331530D01*
X1782530Y4332530D01*
Y4382120D01*
X1805830D01*
G03X1822390Y4374710I20174J22877D01*
G01X1824140Y4374510D01*
X1870180Y4328460D01*
Y4294640D01*
X1885760D01*
Y4259880D01*
X1975320D01*
Y4294640D01*
X1990620D01*
Y4405160D01*
X1953680D01*
Y4516620D01*
X1946020D01*
Y4554020D01*
X1833740D01*
Y4539800D01*
G02X1816400Y4532620I-10159J6D01*
G01X1809280Y4539730D01*
X1811790Y4543240D01*
G03X1793990Y4590690I-24792J17763D01*
G02X1789140Y4607760I2333J9887D01*
G01X1794480Y4613100D01*
X1820060D01*
X1861530Y4654570D01*
Y4729850D01*
X1850900Y4740480D01*
X1851230Y4742970D01*
G03X1851480Y4748020I-30231J4028D01*
G02X1860470Y4751430I5078J168D01*
G01Y4750640D01*
X1861540Y4749570D01*
G03X1872070Y4739030I21570J11019D01*
G01X1873640Y4737470D01*
X1875910D01*
G03X1890290I7190J23130D01*
G01X1901510D01*
Y4731640D01*
X1901060Y4730640D01*
G03X1901620Y4709410I22040J-10041D01*
G01X1902750Y4707240D01*
Y4705520D01*
X1900440Y4703200D01*
X1900200Y4703010D01*
G03X1930110Y4650600I18810J-24005D01*
G02X1943790Y4643040I3700J-9462D01*
G03X1991340Y4676250I31208J5962D01*
G01Y4693430D01*
X1983440Y4701330D01*
Y4707380D01*
X1984110Y4708560D01*
G03X1985140Y4730640I-21011J12044D01*
G01X1984690Y4731640D01*
Y4737470D01*
X1995910D01*
G03X2006220Y4736580I7190J23129D01*
G01X2008260Y4736840D01*
X2017380Y4727730D01*
X2017530Y4726620D01*
G03X2018470Y4722200I31468J4382D01*
G01Y4719200D01*
G03X2013920Y4711820I24520J-20210D01*
G01X2013470Y4711360D01*
Y4710730D01*
G03X2013460Y4687300I29529J-11728D01*
G01X2013470Y4687280D01*
Y4685640D01*
X2014870Y4684240D01*
G03X2028240Y4670870I28130J14760D01*
G01X2031640Y4667470D01*
X2039120D01*
G03X2046880I3880J31530D01*
G01X2055360D01*
X2060140Y4672250D01*
G03X2069760Y4681860I-17125J26763D01*
G01X2077030Y4689140D01*
Y4716040D01*
X2077240Y4716450D01*
G03X2060350Y4760670I-28241J14549D01*
G01X2060140Y4760750D01*
X2038360Y4782530D01*
X2037870D01*
X2034400Y4786000D01*
X2061920Y4813520D01*
X2062270Y4813770D01*
G03X2069870Y4821470I-17564J24936D01*
G01X2076180Y4827780D01*
Y4862940D01*
G03Y4884400I-29000J10730D01*
G01Y4887220D01*
X2073500Y4889900D01*
G03X2069400Y4895170I-26312J-16240D01*
G01X2073970Y4899740D01*
X2076180Y4899660D01*
G03X2054530Y4950480I1079J30481D01*
G01X2034150D01*
X2015120Y4931450D01*
G02X1998460Y4934970I-7185J7181D01*
G03X1987820Y4948750I-28457J-10975D01*
G02X1986570Y4964180I5934J8246D01*
G01X1999880Y4977490D01*
Y4981940D01*
G03X2000750Y4983960I-20565J10054D01*
G01X2002180D01*
Y4991280D01*
G03X2002190Y4991950I-22880J677D01*
G01Y5031600D01*
G03X2002020Y5034380I-22890J-5D01*
G01Y5084320D01*
X1922020D01*
Y5164320D01*
X1816580D01*
Y5162560D01*
X1810320Y5159960D01*
X1769530Y5200750D01*
Y5237370D01*
G03X1774840Y5241710I-16524J25635D01*
G01X1783560Y5238170D01*
Y5232650D01*
X1816580Y5199630D01*
Y5198880D01*
X1817330D01*
X1820690Y5195520D01*
X1875580D01*
X1878940Y5198880D01*
X1922020D01*
Y5278880D01*
X2116580D01*
Y5198880D01*
X2211240D01*
G03X2253680Y5242110I23763J19118D01*
G02X2251180Y5255350I6222J8031D01*
G03X2197560Y5284320I-26186J15640D01*
G01X2122020D01*
Y5315070D01*
X2164490D01*
X2200910Y5351490D01*
X2202370Y5351810D01*
G03X2173220Y5401980I-6440J29812D01*
G02X2160000Y5400330I-7560J6784D01*
G03X2151310Y5404350I-16993J-25331D01*
G02X2145580Y5419680I2773J9772D01*
G03X2106240Y5463570I-25528J16694D01*
G02X2092490Y5468220I-4599J9056D01*
G03X2090250Y5472110I-27481J-13234D01*
G01X2089370Y5474960D01*
G02X2094450Y5480040I5081J-1D01*
G01X2158960D01*
X2159550Y5479440D01*
X2159850Y5475320D01*
G03X2215500Y5494650I30421J2190D01*
G02X2223900Y5510520I8402J5711D01*
G01X2237880D01*
X2249860Y5522510D01*
X2251610Y5522710D01*
G03X2268340Y5575730I-3608J30288D01*
G01Y5587750D01*
X2270040Y5589450D01*
Y5605460D01*
X2579130D01*
Y5514970D01*
X2575260Y5514030D01*
G03X2556010Y5469280I7239J-29629D01*
G01X2556680Y5468110D01*
Y5350080D01*
X2552800Y5349140D01*
G03X2559680Y5289000I7195J-29640D01*
G01X2561750Y5288980D01*
X2581410Y5269320D01*
G02X2574230Y5251980I-7185J-7181D01*
G01X2569980D01*
Y5239220D01*
X2532680D01*
Y5146070D01*
X2529420Y5144820D01*
G03X2569880Y5123930I10919J-28479D01*
G02X2579720Y5136620I9840J2530D01*
G01X2639570D01*
X2640600Y5132890D01*
G03X2697220Y5127240I29401J8111D01*
G02X2713470Y5129840I9067J-4586D01*
G01X2752660Y5090640D01*
Y5053730D01*
G03X2793340I20340J-22730D01*
G01Y5089000D01*
X3393000D01*
Y5110720D01*
X3401080D01*
Y5306080D01*
X3396520D01*
Y5313820D01*
X3167370D01*
G02X3158030Y5327980I0J10160D01*
G03X3101970I-28030J12020D01*
G02X3092630Y5313820I-9340J-4000D01*
G01X3055160D01*
Y5337740D01*
X3061670D01*
Y5458260D01*
X2988420D01*
G02X2983340Y5463420I-2J5079D01*
G01Y5502720D01*
X3086670D01*
Y5605460D01*
X3380620D01*
X3381210Y5606050D01*
X3385400D01*
Y5627580D01*
X3385080Y5627900D01*
Y5770560D01*
X3334280D01*
Y6120310D01*
X3911410D01*
X3911390Y5843380D01*
Y5567280D01*
X3911370Y5567260D01*
X3911340Y5250000D01*
Y4813000D01*
X3911300D01*
X3911290Y4721500D01*
X3912400D01*
Y4677400D01*
X3911290D01*
Y4657190D01*
X3911280Y4500210D01*
G02X3893580Y4493400I-10161J1D01*
G03X3880540Y4501900I-22623J-20455D01*
G02X3875880Y4517990I3195J9645D01*
G03X3828520Y4488850I-65878J54012D01*
G02X3840780Y4477440I2211J-9916D01*
G03X3845490Y4456150I30169J-4492D01*
G02X3843220Y4442510I-8476J-5598D01*
G03X3831640Y4414070I18620J-24159D01*
G02X3820350Y4402560I-10058J-1426D01*
G03X3771020Y4393750I-10350J-84560D01*
G01X3703930Y4460840D01*
Y4597450D01*
X3650190Y4651190D01*
G02X3657780Y4668520I7184J7181D01*
G03X3666710Y4728510I1227J30477D01*
G02X3662090Y4745520I2566J9829D01*
G01X3714300Y4797730D01*
G02X3730920Y4794330I7189J-7180D01*
G03X3758720Y4894030I79082J31675D01*
G02X3742490Y4901230I-6113J8112D01*
G03X3733410Y4920320I-30377J-2744D01*
G02X3735740Y4936580I7088J7281D01*
G03X3700170Y4941700I-14274J26952D01*
G02X3697840Y4925440I-7088J-7281D01*
G03X3718350Y4868640I14281J-26946D01*
G02X3729970Y4855210I2076J-9946D01*
G03X3727290Y4846390I80051J-29141D01*
G01X3726330Y4842530D01*
X3712340D01*
X3603840Y4734030D01*
X3597650D01*
X3596130Y4736020D01*
G03X3595510Y4736810I-24299J-18432D01*
G02X3598320Y4752070I7858J6442D01*
G03X3506090Y4895040I-42313J73937D01*
G02X3489980Y4903270I-5951J8234D01*
G01Y4936960D01*
G03Y4983040I-19980J23040D01*
G01Y5020720D01*
X3458620Y5052080D01*
X3424780D01*
X3372860Y5000160D01*
Y4953000D01*
X2937230D01*
G02X2927180Y4964620I6J10161D01*
G03X2866820I-30180J4380D01*
G02X2856770Y4953000I-10056J-1459D01*
G01X2737020D01*
Y4957620D01*
X2597580D01*
X2468440Y5086760D01*
Y5112160D01*
X2435880Y5144720D01*
Y5162820D01*
X2419520D01*
Y5211620D01*
X2313950D01*
X2279480Y5177150D01*
Y5162820D01*
X2263120D01*
Y5143100D01*
X2257580Y5137560D01*
Y5020360D01*
X2246220D01*
Y5023420D01*
X2230940D01*
X2225460Y5028900D01*
Y5031420D01*
X2193170Y5063700D01*
X2192870Y5065190D01*
G03X2138830Y5040390I-29867J-6196D01*
G02X2137300Y5026400I-8049J-6198D01*
G03X2131350Y5019720I19554J-23407D01*
G01X2122020Y5022500D01*
Y5084320D01*
X2036580D01*
Y4978880D01*
X2122020D01*
Y4988580D01*
X2129840D01*
X2131350Y4986280D01*
G03X2185820Y4993420I25511J16718D01*
G01X2186190Y4994560D01*
X2190640Y4999000D01*
X2198780Y4990860D01*
Y4900760D01*
X2191940D01*
Y4879340D01*
X2153460D01*
Y4714240D01*
X2345130D01*
Y4669280D01*
X2347930Y4666480D01*
Y4660520D01*
X2346180Y4659000D01*
G03X2386070Y4660410I20818J-24000D01*
G01Y4682280D01*
X2383270Y4685080D01*
Y4714220D01*
X2406210D01*
X2407160Y4710360D01*
G03X2468840I30840J7640D01*
G01X2469790Y4714220D01*
X2607210D01*
G02X2616190Y4699320I-4J-10159D01*
G03X2619440Y4664700I28099J-14825D01*
G01Y4623380D01*
X2609410Y4613350D01*
Y4522780D01*
X2614390Y4517800D01*
G02X2609070Y4500630I-7186J-7183D01*
G03X2646130Y4463570I5830J-31230D01*
G02X2663300Y4468890I9987J-1866D01*
G01X2702540Y4429650D01*
Y4313540D01*
X2772940Y4243140D01*
X2856140D01*
Y4240840D01*
X2908660D01*
Y4241160D01*
X2948860D01*
G02X2956040Y4223820I-7J-10159D01*
G01X2917860Y4185640D01*
Y4106280D01*
X2912000Y4100420D01*
X2877560D01*
Y4084180D01*
X2867800D01*
Y4064140D01*
X2877560D01*
Y4047900D01*
X2917740D01*
Y4024020D01*
X2907980D01*
Y4003980D01*
X2917740D01*
Y3992630D01*
X2912760Y3987550D01*
G03X2877260Y3976330I1351J-66046D01*
G02X2863430Y3978710I-5669J8432D01*
G03X2806700Y3965790I-25530J-18910D01*
G01X2806410Y3964250D01*
X2798950Y3956800D01*
X2678880D01*
G02X2669030Y3969420I6J10159D01*
G03X2667630Y3989060I-30830J7672D01*
G01X2667260Y3989980D01*
Y4015880D01*
X2677020D01*
Y4035920D01*
X2667260D01*
Y4052160D01*
X2656890D01*
G02X2647830Y4066920I-2J10159D01*
G03X2604120Y4053500I-28330J14380D01*
G01X2606740Y4052050D01*
Y3999640D01*
X2610830D01*
Y3993280D01*
X2610220Y3992150D01*
G03X2609270Y3963980I27981J-15045D01*
G01X2609720Y3962980D01*
Y3956800D01*
X2604570D01*
X2535750Y3887980D01*
G02X2519860Y3889930I-7183J7187D01*
G03X2512160Y3898630I-27239J-16350D01*
G02X2509630Y3911770I6242J8015D01*
G03X2451290Y3920460I-27429J16030D01*
G02X2440910Y3907960I-9884J-2352D01*
G03X2458310Y3850740I-1562J-31730D01*
G02X2471220Y3850100I6067J-8151D01*
G03X2476270Y3846340I21404J23476D01*
G02X2478220Y3830450I-5237J-8707D01*
G01X2425190Y3777420D01*
X2269470D01*
X2162370Y3670320D01*
X1396020D01*
X1309390Y3756950D01*
Y3815080D01*
G03X1220640Y3830640I-45739J0D01*
G02X1206770Y3824910I-9550J3464D01*
G03X1163510Y3800910I-12971J-27608D01*
G01X1163310Y3799160D01*
X1145940Y3781790D01*
X1142350Y3785120D01*
G03X1065510Y3751580I-31100J-33540D01*
G01Y3690620D01*
G03X1156990I45740J0D01*
G01Y3728130D01*
X1195660Y3766810D01*
X1197410Y3767010D01*
G03X1204260Y3768650I-3629J30285D01*
G02X1217910Y3759110I3490J-9541D01*
G01Y3754120D01*
G03X1279200Y3711100I45743J0D01*
G01X1282240Y3712200D01*
X1374960Y3619480D01*
X2183430D01*
X2290530Y3726580D01*
X2446250D01*
X2587900Y3868230D01*
G02X2605240Y3861050I7180J-7187D01*
G01Y3845740D01*
X2616430D01*
Y3820960D01*
X2606780D01*
Y3710440D01*
X2616980D01*
Y3680960D01*
X2606780D01*
Y3663820D01*
X2395410D01*
X2311770Y3580180D01*
X1290760D01*
G02X1282320Y3596000I-2J10160D01*
G03X1236910Y3635950I-25323J17000D01*
G03X1192760Y3595590I-18039J-24595D01*
G02X1184060Y3580180I-8699J-5250D01*
G01X998120D01*
X985280Y3593020D01*
Y3650420D01*
X962970Y3672730D01*
X964000Y3675730D01*
G03X966490Y3690610I-43251J14886D01*
G01Y3751580D01*
G03X938550Y3793710I-45733J0D01*
G01Y3848000D01*
G03X951130Y3875420I-17803J24764D01*
G01X950930Y3877780D01*
X989350Y3916200D01*
Y4039620D01*
X954790Y4074180D01*
X906890D01*
X891800Y4089270D01*
Y4226070D01*
X855600Y4262270D01*
Y4385480D01*
X865520D01*
Y4494920D01*
X710080D01*
Y4493280D01*
X701020D01*
Y4423820D01*
X668880Y4391680D01*
X408920D01*
Y4231640D01*
X400860D01*
Y4079240D01*
X408920D01*
Y3926820D01*
X612120D01*
Y3813020D01*
X564980D01*
Y3546780D01*
X531540D01*
X508580Y3523820D01*
Y3388580D01*
X520540Y3376620D01*
X525770D01*
Y3257170D01*
X588680Y3194260D01*
X590900D01*
G02X594490Y3185590I-2J-5079D01*
G01X566800Y3157900D01*
X522760D01*
Y3072520D01*
X535430D01*
Y3045180D01*
X595470D01*
Y3072520D01*
X616620D01*
Y3012740D01*
X614670Y3010790D01*
Y2972000D01*
X520560D01*
Y2886620D01*
X533230D01*
Y2859280D01*
X593270D01*
Y2886620D01*
X605940D01*
Y2893920D01*
G02X614610Y2897510I5079J-2D01*
G01X616620Y2895500D01*
Y2817980D01*
X616440Y2817320D01*
G03X675260I29410J-8080D01*
G01X675080Y2817980D01*
Y2919720D01*
X663120Y2931680D01*
X673130Y2941690D01*
Y2986950D01*
X673590Y2987950D01*
G03X675260Y3008710I-27740J12679D01*
G01X675080Y3009370D01*
Y3151880D01*
X675260Y3152540D01*
G03X675410Y3168140I-29410J8084D01*
G02X685250Y3180800I9847J2501D01*
G01X694140D01*
Y3266180D01*
X681470D01*
Y3293520D01*
X621430D01*
Y3266180D01*
X608760D01*
Y3265720D01*
X602500Y3263120D01*
X584230Y3281390D01*
Y3376620D01*
X594520D01*
X647270Y3429370D01*
X694700D01*
X706450Y3441120D01*
X762780D01*
Y3377530D01*
X790120D01*
Y3364860D01*
X790450D01*
Y3353640D01*
X763110D01*
Y3293600D01*
X790450D01*
Y3280930D01*
X803100D01*
Y3250710D01*
X789640D01*
Y3238040D01*
X762300D01*
Y3178000D01*
X789640D01*
Y3165330D01*
X803100D01*
Y3141490D01*
X789640D01*
Y3128820D01*
X762300D01*
Y3068780D01*
X789640D01*
Y3056110D01*
X803100D01*
Y3024650D01*
X789640D01*
Y3011980D01*
X762300D01*
Y2951940D01*
X789640D01*
Y2939270D01*
X840970D01*
G02X844560Y2930600I-2J-5079D01*
G01X842440Y2928480D01*
X813200D01*
Y2915720D01*
X775910D01*
Y2826160D01*
X813200D01*
Y2813120D01*
X898820D01*
G02X906000Y2795780I-6J-10159D01*
G01X875100Y2764880D01*
Y2699470D01*
G03Y2648210I16530J-25630D01*
G01Y2591360D01*
X844280D01*
G02X834470Y2604140I6J10160D01*
G03X822210Y2637180I-29470J7859D01*
G02X821580Y2653500I5727J8393D01*
G03X788170Y2704220I-19073J23800D01*
G02X773240Y2713190I-4771J8969D01*
G01Y2787600D01*
X687860D01*
Y2767790D01*
X680130D01*
X657770Y2745430D01*
X655250Y2745790D01*
G03X654510Y2745890I-4455J-30176D01*
G01X652760Y2746090D01*
X629870Y2768990D01*
X602240D01*
Y2788800D01*
X516860D01*
Y2703420D01*
X529530D01*
Y2676080D01*
X589570D01*
Y2703420D01*
X602240D01*
Y2723230D01*
X610910D01*
X620410Y2713740D01*
X620610Y2711990D01*
G03X676890Y2699630I30289J3606D01*
G01X677200Y2700140D01*
X681790Y2704730D01*
X687860Y2702220D01*
X700530D01*
Y2674880D01*
X760570D01*
Y2702220D01*
X772980D01*
G02X778050Y2697140I-8J-5078D01*
G01X777190Y2694310D01*
G03X785300Y2652120I25319J-17008D01*
G02X785930Y2635800I-5727J-8393D01*
G03X776030Y2602460I19070J-23802D01*
G02X766380Y2589120I-9649J-3180D01*
G01X734880D01*
X714560Y2568800D01*
X711360D01*
X673610Y2606550D01*
X673780Y2608870D01*
G03X622180Y2589180I-30416J2252D01*
G02X622800Y2575210I-7057J-7312D01*
G03X675310Y2547330I23053J-19971D01*
G01X675660Y2548640D01*
X680210Y2553190D01*
X686500Y2546900D01*
Y2521360D01*
X741940D01*
Y2535060D01*
X754240D01*
Y2556060D01*
X828350D01*
X830590Y2558300D01*
X860920D01*
X882810Y2536410D01*
G03X887450Y2533150I11682J11695D01*
G01X888250Y2532770D01*
X899930Y2521090D01*
Y2218310D01*
X899630Y2217470D01*
G03X903500Y2200200I15560J-5582D01*
G01X1063590Y2040110D01*
X1422130D01*
X1445490Y2063470D01*
X1751010D01*
G02X1759500Y2047740I-4J-10158D01*
G03X1807140Y2010020I25493J-16747D01*
G02X1821380Y2010520I7374J-6986D01*
G03X1851980Y2004180I20614J22480D01*
G02X1865470Y1994580I3330J-9599D01*
G01Y1924480D01*
X1912600Y1877350D01*
G37*
G36*
G01X-87550Y4881700D02*
Y5820190D01*
X212570Y6120310D01*
X692680D01*
Y5770560D01*
X641880D01*
Y5618160D01*
X956070D01*
Y5517190D01*
X951830Y5516480D01*
G03X935720Y5464450I5068J-30078D01*
G01X932200Y5455720D01*
X931080D01*
Y5353020D01*
X893800D01*
X881290Y5365530D01*
X811860D01*
X786650Y5340320D01*
X712320D01*
Y5358920D01*
X697900D01*
G02X688530Y5373010I-2J10159D01*
G03X644300Y5410700I-28129J11787D01*
G02X629260Y5416220I-5366J8629D01*
G03X571750Y5395950I-29031J-9352D01*
G01X572930Y5392870D01*
X567010Y5386950D01*
X558980Y5394980D01*
X515470D01*
G03X465010Y5375710I-20172J-22879D01*
G01X464810Y5373960D01*
X373120Y5282280D01*
Y5216970D01*
X373860Y5216230D01*
Y5207250D01*
X378290Y5202820D01*
G02X373580Y5185780I-7183J-7185D01*
G03X364470Y5130570I7422J-29581D01*
G01Y5122050D01*
X388470Y5098050D01*
X385820Y5094530D01*
G03X430370Y5053320I24376J-18334D01*
G01X449720D01*
G02X458930Y5038870I0J-10160D01*
G03X463760Y5005760I27650J-12874D01*
G02X463560Y4992050I-7597J-6746D01*
G03X455990Y4977780I22196J-20918D01*
G02X438890Y4972800I-9918J2206D01*
G01X412370Y4999320D01*
X318180D01*
G02X311340Y5016990I-2J10158D01*
G03X196660I-57340J63010D01*
G02X189820Y4999320I-6838J-7512D01*
G01X109430D01*
X19160Y4909050D01*
X16500Y4909580D01*
G03X-69140Y4875760I-16492J-83578D01*
G02X-87550Y4881700I-8248J5935D01*
G37*
G36*
G01X1833900Y123170D02*
Y563900D01*
X1224260D01*
Y261640D01*
X1189680D01*
G02X1166360Y284960I0J23320D01*
G01Y432280D01*
G03X1152850Y468720I-55899J0D01*
G02X1152870Y475380I3847J3318D01*
G03X1166630Y510450I-42112J36758D01*
G03X1166300Y556210I-611290J18473D01*
G03X1137540Y602630I-55846J-2480D01*
G03X1058630Y623010I-78898J-142530D01*
G01X847870D01*
G02X837740Y632320I-5J10160D01*
G03X801360Y659660I-30393J-2567D01*
G02X789200Y669620I-2002J9959D01*
G01Y750350D01*
X771810Y767750D01*
G03X770020Y769460I-39501J-39557D01*
G01Y792080D01*
X874370D01*
Y655560D01*
X949850D01*
X964540D01*
X1040020D01*
X1054460D01*
X1129940D01*
X1144380D01*
X1219860D01*
X1234550D01*
X1310030D01*
X1324460D01*
X1399940D01*
X1414380D01*
X1489860D01*
X1504550D01*
X1580030D01*
X1581960D01*
Y802640D01*
X1397780D01*
Y819160D01*
X1366280Y850660D01*
G03X1306940Y815620I-25159J-25159D01*
G02X1297180Y802640I-9761J-2820D01*
G01X1233860D01*
G02X1226670Y819980I-2J10160D01*
G01X1235310Y828620D01*
X1237800Y828290D01*
G03X1211600Y854480I4030J30231D01*
G01X1211930Y851990D01*
X1184450Y824510D01*
G02X1167430Y829130I-7187J7182D01*
G03X1112290Y837970I-29512J-7692D01*
G01X1098050D01*
X1075670Y815590D01*
Y802640D01*
X1022010D01*
Y1060110D01*
X768860D01*
G03X711300Y1075280I-36580J-22010D01*
G02X696410Y1081810I-4997J8847D01*
G03X646930Y1100360I-30932J-7241D01*
G02X632130Y1103660I-5928J8251D01*
G03X622030Y1114420I-26627J-14874D01*
G01Y1121640D01*
X599130Y1144540D01*
X591360D01*
Y1189970D01*
G02X607770Y1197970I10158J-7D01*
G03X659100Y1223010I19557J25040D01*
G01Y1381250D01*
X671030Y1393180D01*
G02X688130Y1388200I7182J-7186D01*
G03X706790Y1435380I44150J9818D01*
G02X690900Y1443770I-5729J8391D01*
G01Y1450290D01*
G02X703520Y1460150I10159J4D01*
G03X730240Y1465550I7675J30829D01*
G02X743170Y1464930I6090J-8133D01*
G03X789500Y1468780I21371J23509D01*
G02X802420Y1471370I7979J-6285D01*
G03X792920Y1518790I15458J27758D01*
G02X780000Y1516200I-7979J6285D01*
G03X745500Y1513870I-15454J-27759D01*
G02X732570Y1514490I-6090J8133D01*
G03X727560Y1518210I-21353J-23523D01*
G02X725610Y1534100I5237J8707D01*
G01X836740Y1645230D01*
X1559710D01*
X1582070Y1667590D01*
G02X1599420Y1660410I7189J-7181D01*
G01Y1630280D01*
X1744740D01*
Y1705760D01*
X1632500D01*
G02X1628910Y1714430I4J5080D01*
G01X1634930Y1720450D01*
X1744740D01*
Y1728960D01*
X1754920D01*
X1766820Y1740860D01*
G02X1784160Y1733670I7181J-7186D01*
G01Y1719880D01*
X1873720D01*
Y1721130D01*
X1879980Y1723730D01*
X1896520Y1707190D01*
Y1581930D01*
X1864090D01*
Y1566720D01*
X1849260D01*
Y1506680D01*
X1864090D01*
Y1491470D01*
X1886440D01*
Y1467090D01*
X1906660Y1446870D01*
G02X1899480Y1429530I-7186J-7181D01*
G01X1864090D01*
Y1414320D01*
X1849260D01*
Y1354280D01*
X1864090D01*
Y1339070D01*
X1886440D01*
Y1306520D01*
X1896520Y1296440D01*
Y1212280D01*
X1906250D01*
Y1197360D01*
X1908250Y1195360D01*
X1907920Y1192870D01*
G03X1907650Y1188770I30229J-4050D01*
G02X1897490Y1178580I-10160J-30D01*
G01X1878860D01*
Y1186580D01*
X1863110D01*
X1858420Y1191280D01*
X1853780D01*
Y1223980D01*
X1791420D01*
G03X1776700Y1233600I-23337J-19636D01*
G01X1776240Y1234060D01*
Y1471700D01*
X1747280Y1500660D01*
Y1528470D01*
X1606570D01*
Y1547010D01*
X1607130Y1548100D01*
G03X1565490Y1533780I-28269J14500D01*
G01X1568430Y1532420D01*
Y1496460D01*
G02X1555510Y1486680I-10160J-3D01*
G03X1524330Y1478510I-8650J-30570D01*
G02X1509080Y1479480I-7200J7166D01*
G03X1506430Y1437700I-25179J-19377D01*
G02X1521680Y1436730I7200J-7166D01*
G03X1527790Y1430700I25168J19392D01*
G01Y1336640D01*
X1575400Y1289030D01*
X1596880D01*
Y1237250D01*
X1540480D01*
X1508230Y1205000D01*
Y1199710D01*
G03X1504520Y1196440I19087J-25395D01*
G02X1490340Y1196050I-7290J7079D01*
G03X1452150Y1199760I-21544J-23350D01*
G02X1438790Y1202190I-5327J8653D01*
G03X1394600Y1157340I-25128J-19437D01*
G01Y1140430D01*
X1497900Y1037130D01*
X1577700D01*
X1594660Y1020170D01*
Y956960D01*
G02X1582710Y946960I-10161J2D01*
G03X1554810Y896390I-5365J-30021D01*
G02X1554550Y882420I-7508J-6848D01*
G03X1586020Y832140I21770J-21363D01*
G02X1599420Y822510I3240J-9630D01*
G01Y820270D01*
X1744810D01*
G02X1757970Y828800I10093J-1155D01*
G03X1788390Y835960I9208J29079D01*
G01X1851760D01*
G03X1887230Y828410I22841J20211D01*
G02X1901600Y819160I4210J-9247D01*
G01Y776980D01*
X1915300D01*
Y764680D01*
X1935340D01*
Y776980D01*
X1949040D01*
Y778800D01*
X1955300Y781400D01*
X1981350Y755350D01*
X2114420D01*
Y741870D01*
G03X2114870Y737360I22711J-11D01*
G02X2104910Y725190I-9960J-2009D01*
G01X1998570D01*
X1976100Y702720D01*
Y672470D01*
G03X1968270Y664230I17808J-24762D01*
G01X1943950D01*
X1905850Y702330D01*
X1886520D01*
Y709520D01*
X1781760D01*
G02X1771680Y720910I3J10158D01*
G03X1725820Y698380I-30277J3690D01*
G01X1726370Y698050D01*
X1755150Y669270D01*
X1771080D01*
Y662080D01*
X1842270D01*
Y646020D01*
X1831080D01*
Y632320D01*
X1818780D01*
Y612280D01*
X1831080D01*
Y598580D01*
X1886520D01*
Y646020D01*
X1875330D01*
Y662080D01*
X1886520D01*
Y662640D01*
G02X1895190Y666230I5079J-2D01*
G01X1930250Y631170D01*
X1968270D01*
G03X1976100Y622930I25638J16522D01*
G01Y446980D01*
G02X1966580Y436840I-10160J-1D01*
G03X1941990Y421490I1917J-30441D01*
G01X1941650Y420890D01*
X1924510Y403750D01*
Y309390D01*
X1913870D01*
Y224010D01*
X1979010D01*
X1984610Y218420D01*
X1981110Y214820D01*
G03X2006600Y154420I25490J-24821D01*
G01X2107700D01*
G03X2132860Y164840I0J35586D01*
G01X2157230Y189210D01*
X2167930D01*
Y182140D01*
X2166590Y180690D01*
G03X2165980Y139990I22410J-20690D01*
G02X2158310Y123170I-7671J-6661D01*
G01X1833900D01*
G37*
G36*
G01X627360Y1492400D02*
G02X614950Y1482490I-10161J-1D01*
G03X602750Y1483120I-7908J-34689D01*
G02X591360Y1493200I-1231J10084D01*
G01Y1793240D01*
X584980D01*
Y1795930D01*
X528850D01*
Y1953480D01*
X544420D01*
Y1964670D01*
X694540D01*
Y1815320D01*
X770020D01*
Y1964670D01*
X874370D01*
Y1815320D01*
X949850D01*
Y1818640D01*
X964540D01*
Y1815320D01*
X1040020D01*
Y1818640D01*
X1054460D01*
Y1815320D01*
X1129940D01*
Y1818640D01*
X1144380D01*
Y1815320D01*
X1161410D01*
G02X1168590Y1797970I0J-10161D01*
G01X1127520Y1756900D01*
X1125030Y1757230D01*
G03X1091110Y1720950I-4028J-30231D01*
G02X1081150Y1708770I-9958J-2019D01*
G01X840120D01*
X825270Y1723620D01*
X627360Y1525710D01*
Y1492400D01*
G37*
G36*
G01X2163360Y3362180D02*
G03X2156890Y3385280I-27340J4798D01*
G02Y3398680I7641J6700D01*
G03Y3435280I-20870J18300D01*
G02Y3448680I7641J6700D01*
G03X2117720Y3487850I-20870J18300D01*
G02X2104320I-6700J7641D01*
G03X2067720I-18300J-20870D01*
G02X2054320I-6700J7641D01*
G03X2017720I-18300J-20870D01*
G02X2004320I-6700J7641D01*
G03X1967720I-18300J-20870D01*
G02X1954320I-6700J7641D01*
G03X1917720I-18300J-20870D01*
G02X1904320I-6700J7641D01*
G03X1867720I-18300J-20870D01*
G02X1854320I-6700J7641D01*
G03X1817720I-18300J-20870D01*
G02X1804320I-6700J7641D01*
G03X1767720I-18300J-20870D01*
G02X1754320I-6700J7641D01*
G03X1717720I-18300J-20870D01*
G02X1704320I-6700J7641D01*
G03X1667720I-18300J-20870D01*
G02X1654320I-6700J7641D01*
G03X1617720I-18300J-20870D01*
G02X1604320I-6700J7641D01*
G03X1567720I-18300J-20870D01*
G02X1554320I-6700J7641D01*
G03X1517720I-18300J-20870D01*
G02X1504320I-6700J7641D01*
G03X1458560Y3462940I-18298J-20873D01*
G02X1448500Y3451300I-10053J-1479D01*
G01X654800D01*
X590300Y3386800D01*
X524760D01*
X518760Y3392800D01*
Y3519600D01*
X533550Y3534390D01*
X556030D01*
Y3536600D01*
X700580D01*
Y3533120D01*
X854940D01*
Y3536600D01*
X901200D01*
Y3645200D01*
X905930Y3649930D01*
X908810Y3649100D01*
G03X948390Y3657420I11937J41519D01*
G01X949810Y3658600D01*
X962700D01*
X975100Y3646200D01*
Y3588500D01*
X975400D01*
X993900Y3570000D01*
X2321900D01*
X2341880Y3550020D01*
Y3365500D01*
X2326640Y3350260D01*
X2173370D01*
G02X2163360Y3362180I-3J10160D01*
G37*
G36*
G01X419100Y3937000D02*
Y4038600D01*
Y4076700D01*
X800100D01*
X844760Y4032040D01*
Y3543300D01*
X825500D01*
X710760D01*
Y3824140D01*
X622300D01*
Y3886200D01*
Y3937000D01*
X419100D01*
G37*
G36*
G01X800100Y4241800D02*
X419100D01*
Y4330700D01*
Y4381500D01*
X673100D01*
X711200Y4419600D01*
Y4483100D01*
X736600D01*
X800100D01*
Y4381500D01*
Y4241800D01*
G37*
G36*
G01Y4800600D02*
X762000D01*
Y4902200D01*
X444500D01*
Y4775200D01*
X647700D01*
X736600Y4686300D01*
X800100D01*
Y4800600D01*
G37*
G36*
G01X576010Y4913400D02*
G02X568830Y4930740I6J10159D01*
G01X591570Y4953480D01*
X592320D01*
Y4954230D01*
X592480Y4954390D01*
Y5006200D01*
G03X592350Y5008640I-22880J4D01*
G01X592320Y5008910D01*
Y5058920D01*
X512320D01*
Y5138920D01*
X421030D01*
G02X411030Y5150860I2J10159D01*
G03X411050Y5161420I-30030J5337D01*
G02X421060Y5173320I10010J1740D01*
G01X459600D01*
G03X462040Y5173450I4J22880D01*
G01X462310Y5173480D01*
X512320D01*
Y5253480D01*
X706880D01*
Y5173480D01*
X790830D01*
G02X800870Y5161740I4J-10159D01*
G03X821250Y5128100I30130J-4740D01*
G02X825990Y5112190I-3244J-9627D01*
G01Y5087450D01*
X804760Y5066220D01*
X779360D01*
X737850Y5024710D01*
Y4942050D01*
X728780Y4932970D01*
X722770Y4938980D01*
X724100Y4942130D01*
G03X712320Y4979770I-28098J11870D01*
G01Y5058920D01*
X626880D01*
Y4970890D01*
G03X617080Y4928920I16119J-25893D01*
G02X608450Y4913400I-8629J-5361D01*
G01X576010D01*
G37*
G36*
G01X1087040Y3245420D02*
G02X1078060Y3260330I-1J10158D01*
G03X1053070Y3305040I-26960J14270D01*
G01X1048320Y3310110D01*
Y3401920D01*
X932880D01*
Y3346230D01*
G02X916850Y3337940I-10160J3D01*
G03X889300Y3341880I-17618J-24898D01*
G02X875830Y3351480I-3312J9603D01*
G01Y3366310D01*
X875500D01*
Y3436050D01*
X1448520D01*
G03X1458150Y3437950I-11J25411D01*
G02X1460220Y3427210I-7375J-6991D01*
G03X1465150Y3398680I25802J-10232D01*
G02Y3385280I-7641J-6700D01*
G03X1466430Y3347320I20872J-18298D01*
G02X1466940Y3333470I-7173J-7199D01*
G03X1468170Y3299160I19080J-16493D01*
G02Y3284800I-7184J-7180D01*
G03Y3249160I17850J-17820D01*
G02Y3234800I-7184J-7180D01*
G03Y3199160I17850J-17820D01*
G02Y3184800I-7184J-7180D01*
G03X1468590Y3148760I17851J-17814D01*
G02X1468230Y3133750I-7026J-7341D01*
G03X1460600Y3117430I14612J-16775D01*
G02X1450450Y3107480I-10156J208D01*
G01X1436440D01*
X1435600Y3107780D01*
G03X1430020Y3108750I-5580J-15565D01*
G01X1096350D01*
X1023910Y3036300D01*
G02X1007660Y3038900I-7183J7187D01*
G03X953930Y3040230I-27222J-13758D01*
G01X953590Y3039630D01*
X892360Y2978400D01*
G02X875020Y2985580I-7181J7186D01*
G01Y3024650D01*
X861560D01*
Y3056110D01*
X875020D01*
Y3141490D01*
X861560D01*
Y3165330D01*
X875020D01*
Y3221400D01*
G02X884640Y3231540I10158J-4D01*
G03X905030Y3240910I-1648J30456D01*
G02X919230Y3241380I7340J-7025D01*
G03X970030Y3267930I20568J22520D01*
G01X969700Y3270420D01*
X977130Y3277850D01*
Y3303680D01*
X995200D01*
Y3251720D01*
X1001430Y3245490D01*
G02X997840Y3236820I-3592J-3591D01*
G01X992880D01*
Y3223120D01*
X980580D01*
Y3203080D01*
X992880D01*
Y3172320D01*
X980580D01*
Y3152280D01*
X992880D01*
Y3138580D01*
X1048320D01*
Y3196570D01*
X1068480D01*
Y3189980D01*
X1082180D01*
Y3177680D01*
X1102220D01*
Y3189980D01*
X1115920D01*
Y3201170D01*
X1217950D01*
X1261130Y3244350D01*
Y3298030D01*
G02X1276800Y3306560I10160J-7D01*
G03X1316210Y3312020I16532J25630D01*
G02X1329420Y3313790I7623J-6715D01*
G03X1336110Y3310480I16769J25476D01*
G02X1341220Y3295290I-3366J-9587D01*
G03X1368860Y3248060I25450J-16809D01*
G02X1379750Y3238070I732J-10133D01*
G03X1391280Y3214620I30497J435D01*
G02X1393050Y3200530I-6325J-7951D01*
G03X1436340Y3206000I24317J-18410D01*
G02X1434570Y3220090I6325J7951D01*
G03X1408060Y3268920I-24319J18408D01*
G02X1397170Y3278910I-732J10133D01*
G03X1397150Y3279710I-30502J-362D01*
G01Y3279920D01*
G02X1402220Y3284990I5075J-5D01*
G01X1403290Y3284880D01*
G03X1417340Y3344230I6410J29821D01*
G01X1413530Y3345210D01*
Y3385050D01*
X1391150Y3407430D01*
X1250450D01*
X1228070Y3385050D01*
Y3258050D01*
X1204250Y3234230D01*
X1115920D01*
Y3245420D01*
X1087040D01*
G37*
G36*
G01X1035860Y4193540D02*
X1112060D01*
X1137460Y4168140D01*
Y4130040D01*
X1175560Y4091940D01*
Y4079240D01*
X1137460Y4041140D01*
Y3914140D01*
X1061260D01*
Y4079240D01*
X1035860Y4104640D01*
Y4193540D01*
G37*
G36*
G01X859010Y5031230D02*
Y5013160D01*
X853580D01*
Y4935680D01*
X864680D01*
Y4896980D01*
G02X850890Y4887490I-10160J-1D01*
G03X813510Y4874120I-10891J-28490D01*
G01X790080D01*
Y4864360D01*
X772180D01*
Y4911660D01*
X783610Y4923090D01*
Y5005750D01*
X798320Y5020460D01*
X823720D01*
X841670Y5038410D01*
G02X859010Y5031230I7181J-7186D01*
G37*
G36*
G01X1155700Y4927600D02*
Y5003800D01*
X1130300D01*
X1079500D01*
Y5092700D01*
X952500D01*
Y5080000D01*
Y5067300D01*
Y5041900D01*
X1066800Y4927600D01*
X1092200D01*
X1104900D01*
X1155700D01*
G37*
G36*
G01X1357000Y4713600D02*
X1097000D01*
Y4876800D01*
Y4880000D01*
X1066000D01*
X1031000D01*
X1016000D01*
Y4896000D01*
X1087000D01*
X1091000D01*
X1106000D01*
X1344000D01*
X1345000D01*
X1346000D01*
Y4991100D01*
X1346200D01*
X1355000D01*
X1357000D01*
Y4901000D01*
Y4713600D01*
G37*
G36*
G01X1420720Y5122360D02*
Y5204720D01*
X1407020D01*
Y5217020D01*
X1386980D01*
Y5204720D01*
X1373280D01*
Y5083040D01*
X1344520D01*
Y5204720D01*
X1330820D01*
Y5217020D01*
X1310780D01*
Y5204720D01*
X1297080D01*
Y5122360D01*
X1262520Y5087800D01*
G02X1245180Y5094980I-7181J7186D01*
G01Y5102880D01*
X944390D01*
Y5198130D01*
X873710D01*
G02X866530Y5215470I6J10159D01*
G01X886900Y5235840D01*
Y5254180D01*
X891410Y5254690D01*
G03X912170Y5303600I-3411J30309D01*
G02X920220Y5319960I8049J6200D01*
G01X1084490D01*
X1104810Y5340280D01*
X1114220D01*
G02X1124360Y5329490I1J-10158D01*
G03X1176820Y5306490I30442J-1893D01*
G02X1190310Y5307540I7333J-7028D01*
G03X1221750Y5304180I18492J24258D01*
G02X1235040Y5299740I4314J-9197D01*
G03X1286630Y5296010I26961J14260D01*
G02X1301320Y5297830I8201J-5997D01*
G03X1350570Y5327920I19478J23470D01*
G02X1360490Y5340280I9918J2201D01*
G01X1433530D01*
Y5455720D01*
X1360860D01*
G02X1353680Y5473060I2J10157D01*
G01X1355190Y5474570D01*
Y5505260D01*
X1458530D01*
Y5618160D01*
X1759480D01*
Y5678880D01*
G02X1773690Y5688190I10159J-6D01*
G03X1785540Y5685660I12167J27970D01*
G01X1787610Y5685640D01*
X1804660Y5668590D01*
Y5663370D01*
X1800630D01*
Y5606630D01*
X1801280D01*
Y5547280D01*
X1848720D01*
Y5556870D01*
X1860780D01*
Y5523100D01*
G03X1855580Y5480300I18819J-24002D01*
G02X1847580Y5463880I-8000J-6261D01*
G01X1846860D01*
X1757400Y5374420D01*
Y5371760D01*
X1756120Y5370480D01*
Y5302420D01*
X1759960Y5298580D01*
X1754900Y5293510D01*
X1752810Y5293500D01*
G03X1736470Y5237370I191J-30499D01*
G01Y5187050D01*
X1800650Y5122870D01*
X1797150Y5119280D01*
G03X1807020Y5069950I21850J-21281D01*
G02X1812770Y5057710I-3988J-9344D01*
G03X1813770Y5037450I29230J-8712D01*
G02X1809270Y5024710I-9403J-3843D01*
G03X1820390Y4967710I14727J-26712D01*
G01X1822140Y4967510D01*
X1843780Y4945860D01*
X1880900D01*
G02X1889920Y4931030I-3J-10160D01*
G03X1901190Y4890920I27081J-14029D01*
G03X1901130Y4870400I21910J-10324D01*
G01X1901610Y4869380D01*
Y4863180D01*
X1891900D01*
X1891090Y4863460D01*
G03X1878970Y4864470I-8007J-22859D01*
G01X1876380Y4864020D01*
X1867080Y4873320D01*
X1866980D01*
X1757240Y4983060D01*
Y5051400D01*
X1757850Y5052530D01*
G03Y5081470I-26850J14470D01*
G01X1757240Y5082600D01*
Y5102880D01*
X1653520D01*
Y5013980D01*
X1623080D01*
Y5102880D01*
X1501120D01*
Y5053070D01*
G02X1486520Y5043940I-10159J7D01*
G03X1462020Y5044880I-13321J-27439D01*
G02X1448130Y5054330I-3731J9449D01*
G01Y5094950D01*
X1420720Y5122360D01*
G37*
G36*
G01X1231900Y5092700D02*
X1104900D01*
Y5029200D01*
X1155700D01*
X1181100D01*
X1185000D01*
X1187000D01*
Y4927600D01*
X1231900D01*
X1235000D01*
Y5092700D01*
X1231900D01*
G37*
G36*
G01X2418650Y2768630D02*
X2533100D01*
G03Y2806770I23800J19070D01*
G01X2434450D01*
X2292700Y2948520D01*
Y3200630D01*
G02X2305390Y3210460I10158J-8D01*
G03X2335400Y3219300I7606J29538D01*
G01X2336910Y3220930D01*
X2344480D01*
X2356450Y3208960D01*
X2521730D01*
G02X2529470Y3192220I-3J-10161D01*
G03X2537730Y3145890I23231J-19759D01*
G02X2541920Y3132660I-4982J-8856D01*
G03X2553900Y3091970I28681J-13664D01*
G02X2554320Y3074960I-5341J-8642D01*
G03X2551840Y3024510I18010J-26171D01*
G01Y2958840D01*
X2568080D01*
Y2949080D01*
X2588120D01*
Y2958840D01*
X2604360D01*
Y3019360D01*
X2599990D01*
G02X2597180Y3020210I3J5079D01*
G01Y3028990D01*
G03X2589030Y3075820I-24848J19800D01*
G02X2588610Y3092830I5341J8642D01*
G03X2596010Y3099930I-18007J26174D01*
G01X2641600D01*
X2755420Y2986110D01*
G02X2748240Y2968770I-7187J-7181D01*
G01X2744020D01*
Y2878310D01*
X2750030D01*
Y2788270D01*
X2886660D01*
X2916030Y2758900D01*
Y2676650D01*
G03X2888090Y2622700I38117J-53950D01*
G01Y2597300D01*
G03X2891740Y2575650I66059J4D01*
G02X2882140Y2562160I-9599J-3330D01*
G01X2836220D01*
X2777410Y2620970D01*
X2535260D01*
G03X2490170Y2584020I-16852J-25422D01*
G02X2480770Y2570020I-9404J-3841D01*
G01X2457790D01*
G03Y2519180I-16850J-25420D01*
G01X2616780D01*
Y2466910D01*
X2725350Y2358340D01*
X2864610D01*
X2866470Y2356480D01*
X3163460D01*
X3221710Y2298240D01*
G03X3239730Y2288130I26962J26943D01*
G01X3241130Y2287790D01*
X3249290Y2279630D01*
X3274520D01*
Y2268420D01*
X3279120Y2263820D01*
Y2246220D01*
X3269680D01*
Y2198780D01*
X3274520D01*
Y2182720D01*
X3269680D01*
Y2135280D01*
X3384430D01*
G03X3387070Y2133370I19172J23720D01*
G01Y2104850D01*
X3471600Y2020330D01*
X3471860Y2018690D01*
G03X3495720Y1971810I84141J13312D01*
G02X3488530Y1954470I-7192J-7179D01*
G01X3374220D01*
Y2040820D01*
X3258780D01*
Y1845380D01*
X3374220D01*
Y1921410D01*
X3601540D01*
G03X3636630Y1909040I25581J16610D01*
G02X3649960Y1899390I3170J-9652D01*
G01Y1891850D01*
X3646700Y1888590D01*
X3510180D01*
X3436120Y1814530D01*
X3085850D01*
X3054900Y1845480D01*
X3055230Y1847970D01*
G03X3029030Y1821770I-30230J4030D01*
G01X3031520Y1822100D01*
X3072150Y1781470D01*
X3455510D01*
X3455580Y1776470D01*
G03X3576940Y1679780I100418J1532D01*
G02X3586240Y1662660I2114J-9937D01*
G01X3570280Y1646700D01*
X3065320D01*
X3061520Y1642900D01*
X3059030Y1643230D01*
G03X3085260Y1609190I-4030J-30231D01*
G01X3085820Y1613640D01*
X3503330D01*
G02X3508940Y1595010I-2J-10160D01*
G03X3591280Y1601540I47060J-71011D01*
G02X3588310Y1617970I4212J9245D01*
G01X3608220Y1637880D01*
G02X3625550Y1631280I7187J-7180D01*
G03X3686230Y1637030I30449J1720D01*
G01X3685900Y1639520D01*
X3732470Y1686090D01*
Y1690300D01*
G02X3748820Y1698360I10161J2D01*
G03X3892740Y1721080I61181J79641D01*
G02X3911270Y1715320I8370J-5760D01*
G01Y1380170D01*
X3910990Y1379890D01*
X3910950Y891530D01*
Y891520D01*
X3910880Y123170D01*
X2566070D01*
G02X2558890Y140510I6J10159D01*
G01X2577690Y159320D01*
G02X2593330Y157770I7185J-7186D01*
G03X2644470Y158390I25368J16931D01*
G02X2660140Y160230I8582J-5439D01*
G03X2711900Y181660I21262J21869D01*
G01X2711970Y186670D01*
X2753770D01*
X2788940Y221840D01*
Y400460D01*
X2752500Y436900D01*
X2723520D01*
Y527960D01*
X2735980D01*
X2755920Y547900D01*
Y651920D01*
X2683920Y723920D01*
X2682180D01*
G02X2672040Y734710I1J10160D01*
G03X2658130Y762230I-30440J1889D01*
G01Y802680D01*
X2648980Y811830D01*
G02X2656160Y829180I7180J7189D01*
G01X2687140D01*
G03X2695430Y830750I-7J22710D01*
G02X2702050Y827810I1863J-4729D01*
G03X2753450Y858730I28553J10717D01*
G02X2753330Y872060I7608J6734D01*
G03X2760160Y886500I-23193J19805D01*
G01X2760910Y890680D01*
X2772870D01*
Y780750D01*
X2834150Y719470D01*
Y538920D01*
G03X2824150Y498240I16529J-25632D01*
G02X2820840Y484690I-8832J-5022D01*
G03X2878270Y482510I27162J-41990D01*
G02X2875990Y496270I6148J8088D01*
G03X2867210Y538920I-25310J17018D01*
G01Y733170D01*
X2805930Y794450D01*
Y890680D01*
X2877120D01*
Y891520D01*
X2900000D01*
Y891530D01*
X2901750Y891730D01*
G03X2872240Y938120I-3608J30286D01*
G01X2789060D01*
X2781680Y945510D01*
G02X2785270Y954180I3593J3591D01*
G01X2817120D01*
Y967880D01*
X2829420D01*
Y987920D01*
X2817120D01*
Y1001620D01*
X2758290D01*
X2757220Y1005260D01*
G03X2756610Y1007110I-29256J-8621D01*
G02X2766150Y1020760I9541J3490D01*
G01X2821190D01*
X2847930Y1047500D01*
Y1054790D01*
G02X2856600Y1058380I5079J-2D01*
G01X2938740Y976250D01*
X2939100Y974980D01*
G03X3003040Y911030I89220J25266D01*
G01X3004310Y910670D01*
X3008220Y906760D01*
X3169060D01*
X3208040Y945740D01*
Y1114200D01*
X3188340Y1133900D01*
Y1174960D01*
X3200420Y1187040D01*
Y1249510D01*
X3200450Y1249800D01*
G03Y1270900I-92125J10550D01*
G01X3200420Y1271190D01*
Y1413320D01*
X3205180D01*
Y1502880D01*
X3185120D01*
X3174140Y1513860D01*
X3167880D01*
Y1515640D01*
X3062440D01*
Y1513860D01*
X2967580D01*
X2947950Y1494230D01*
Y1487980D01*
X2941460D01*
Y1427940D01*
X2947950D01*
Y1418030D01*
X2947650Y1417730D01*
Y1410110D01*
X2936860Y1399320D01*
Y1390860D01*
X2936440Y1389890D01*
G03Y1363470I30280J-13210D01*
G01X2936860Y1362500D01*
Y1352730D01*
X2925270Y1341140D01*
X2863870D01*
Y1607390D01*
X2871010Y1614540D01*
G02X2888260Y1608730I7183J-7185D01*
G03X2953030Y1621310I32736J4483D01*
G02X2959600Y1633420I9850J2493D01*
G01Y1647000D01*
X2996900D01*
Y1736560D01*
X2959600D01*
Y1749320D01*
X2935380D01*
X2834770Y1849930D01*
X2834380Y1850940D01*
G03X2787930Y1864640I-28472J-10939D01*
G02X2771780Y1872840I-5991J8204D01*
G01Y1940540D01*
X2778080D01*
X2880380Y2042840D01*
Y2264380D01*
X2879870Y2264890D01*
Y2273600D01*
X2871160D01*
X2864660Y2280100D01*
Y2298400D01*
X2804620D01*
Y2291100D01*
X2768140D01*
Y2298400D01*
X2708100D01*
Y2291100D01*
X2668460D01*
Y2298400D01*
X2578900D01*
Y2295320D01*
X2572640Y2292730D01*
X2551400Y2313960D01*
X2542400D01*
Y2318880D01*
X2522360D01*
Y2313960D01*
X2508220D01*
X2475200Y2346980D01*
X2411760D01*
X2403320Y2338540D01*
X2286630Y2455250D01*
X2198620D01*
G03X2145860Y2426620I-23797J-19074D01*
G02X2139600Y2413870I-9650J-3174D01*
G03X2178760Y2394680I10195J-28747D01*
G02X2185020Y2407430I9650J3174D01*
G03X2198620Y2417110I-10212J28741D01*
G01X2270830D01*
X2370310Y2317620D01*
Y2182180D01*
G02X2352970Y2175000I-10159J6D01*
G01X2346600Y2181370D01*
Y2245640D01*
X2181200D01*
Y2100300D01*
X2347450D01*
Y1925060D01*
X2336300Y1913910D01*
X2187630D01*
X2163270Y1889550D01*
Y1883000D01*
X2152080D01*
Y1854940D01*
X2145160Y1848020D01*
G02X2127820Y1855200I-7181J7186D01*
G01Y1883000D01*
X2116630D01*
Y1940280D01*
X2126640D01*
Y2085620D01*
X1986660D01*
G02X1976510Y2096020I5J10158D01*
G03X1951840Y2126710I-30491J751D01*
G01X1947730Y2127510D01*
Y2208460D01*
X1979060Y2239770D01*
X1982450Y2237760D01*
G03X2017050Y2240180I15549J26240D01*
G02X2029750I6350J-7930D01*
G03X2077930Y2254970I19048J23820D01*
G02X2090370Y2261740I9702J-3014D01*
G03X2109410Y2319630I8200J29379D01*
G02X2104020Y2333840I3607J9495D01*
G03X2066160Y2319490I-27016J14160D01*
G02X2071550Y2305280I-3607J-9495D01*
G03X2069440Y2300150I27036J-14119D01*
G02X2057000Y2293380I-9702J3014D01*
G03X2029750Y2287820I-8198J-29379D01*
G02X2017050I-6350J7930D01*
G03X1971640Y2279350I-19052J-23819D01*
G01X1971310Y2278780D01*
X1914670Y2222160D01*
Y2144500D01*
X1889820Y2119650D01*
X1421150D01*
Y2145810D01*
X1335770D01*
Y2133140D01*
X1321070D01*
Y2145810D01*
X1243020D01*
G02X1232910Y2155030I6J10160D01*
G03X1198670Y2182470I-30369J-2812D01*
G02X1187830Y2196030I-1294J10078D01*
G03X1188450Y2215060I-28650J10459D01*
G02X1198200Y2228080I9749J2860D01*
G01X1381220D01*
Y2289480D01*
X1388790Y2297050D01*
G02X1397460Y2293460I3590J-3595D01*
G01Y2278680D01*
X1457500D01*
Y2306020D01*
X1470170D01*
Y2308840D01*
X1481310D01*
Y2306020D01*
X1493980D01*
Y2278680D01*
X1554020D01*
Y2306020D01*
X1566690D01*
Y2308840D01*
X1577830D01*
Y2306020D01*
X1590500D01*
Y2278680D01*
X1650540D01*
Y2306020D01*
X1663210D01*
Y2308840D01*
X1674350D01*
Y2306020D01*
X1687020D01*
Y2278680D01*
X1747060D01*
Y2306020D01*
X1759730D01*
Y2308840D01*
X1766960D01*
X1773660Y2302140D01*
Y2290580D01*
X1786700D01*
Y2253280D01*
X1876260D01*
Y2290580D01*
X1889020D01*
Y2293620D01*
X1921940D01*
X1932960Y2304640D01*
Y2325780D01*
X1930420Y2328320D01*
Y2350360D01*
X1934620Y2354560D01*
X1977800D01*
X1988840Y2365600D01*
Y2432460D01*
X1980340Y2440960D01*
X1908400D01*
X1905860Y2438420D01*
X1381220D01*
Y2456520D01*
X1339860D01*
X1329890Y2466490D01*
Y2581530D01*
X1325630Y2585790D01*
Y2585800D01*
X1278230Y2633190D01*
G02X1282840Y2650200I7187J7182D01*
G03X1283160Y2650290I-8098J29405D01*
G01X1283820Y2650470D01*
X1508910D01*
X1614570Y2756130D01*
Y2768620D01*
G03X1614240Y2772990I-29231J-10D01*
G01X1613850Y2775530D01*
X1630440Y2792120D01*
X1632950Y2791770D01*
G03X1652790Y2799190I3067J22033D01*
G02X1667800Y2799550I7669J-6666D01*
G03X1703840Y2799130I18226J17431D01*
G02X1718200I7180J-7184D01*
G03X1753840I17820J17850D01*
G02X1768200I7180J-7184D01*
G03X1803840I17820J17850D01*
G02X1818200I7180J-7184D01*
G03X1853840I17820J17850D01*
G02X1868200I7180J-7184D01*
G03X1903840I17820J17850D01*
G02X1918200I7180J-7184D01*
G03X1953840I17820J17850D01*
G02X1968200I7180J-7184D01*
G03X2003840I17820J17850D01*
G02X2018200I7180J-7184D01*
G03X2053840I17820J17850D01*
G02X2068200I7180J-7184D01*
G03X2104240Y2799550I17814J17851D01*
G02X2118250Y2800190I7341J-7026D01*
G03X2132830Y2794740I14586J16794D01*
G01X2139200D01*
G03X2153350Y2834140I-7J22243D01*
G02Y2849820I6462J7840D01*
G03X2153810Y2883750I-14155J17160D01*
G02X2153450Y2898760I6666J7669D01*
G03X2136240Y2942200I-17433J18222D01*
G01X2134160Y2942220D01*
X2111180Y2965200D01*
G03Y2968760I-25160J1780D01*
G01X2134160Y2991740D01*
X2136240Y2991760D01*
G03X2110800Y3017200I-220J25220D01*
G01X2110780Y3015120D01*
X2087880Y2992220D01*
X2085800Y2992200D01*
G03X2066970Y2983510I219J-25220D01*
G01X2055070D01*
G03X2050270Y2987790I-19048J-16531D01*
G01X2048060Y2991980D01*
X2050270Y2996170D01*
G03X2053870Y3034800I-14249J20811D01*
G02Y3049160I7184J7180D01*
G03X2056830Y3052730I-17853J17815D01*
G01X2061020Y3054940D01*
X2065210Y3052730D01*
G03X2103870Y3084800I20806J14256D01*
G02Y3099160I7184J7180D01*
G03X2106830Y3102730I-17853J17815D01*
G01X2111020Y3104940D01*
X2115210Y3102730D01*
G03X2153870Y3134800I20806J14256D01*
G02Y3149160I7184J7180D01*
G03Y3184800I-17850J17820D01*
G02Y3199160I7184J7180D01*
G03Y3234800I-17850J17820D01*
G02Y3249160I7184J7180D01*
G03X2158890Y3256340I-17847J17823D01*
G02X2172170Y3261360I9209J-4287D01*
G03X2173500Y3317790I12229J27942D01*
G02X2160150Y3324320I-3632J9486D01*
G03X2159490Y3326200I-24107J-7407D01*
G02X2162230Y3337550I9456J3723D01*
G03X2173360Y3334980I11142J22869D01*
G01X2300440D01*
G03X2319830I9695J36869D01*
G01X2332970D01*
X2357160Y3359170D01*
Y3517750D01*
X2426990Y3587580D01*
X2606780D01*
Y3570440D01*
X2727220D01*
Y3601610D01*
X2747850Y3622250D01*
G03X2751220Y3626090I-26900J27007D01*
G02X2767230Y3626270I8075J-6161D01*
G03X2782340Y3612440I51620J41228D01*
G02X2783910Y3596790I-5612J-8467D01*
G01X2736790Y3549670D01*
X2714560D01*
Y3556860D01*
X2594040D01*
Y3549670D01*
X2519900D01*
X2446330Y3476100D01*
Y3384300D01*
X2365100Y3303070D01*
X2293420D01*
X2254480Y3264130D01*
G02X2241050Y3255800I-10080J1260D01*
G03Y3198200I-10050J-28800D01*
G02X2254560Y3188610I3351J-9590D01*
G01Y2932720D01*
X2418650Y2768630D01*
G37*
G36*
G01X1397000Y2319020D02*
X1678940D01*
X1771180D01*
X1786400Y2303800D01*
X1917720D01*
X1922780Y2308860D01*
Y2321560D01*
X1920240Y2324100D01*
Y2354580D01*
X1930400Y2364740D01*
X1973580D01*
X1978660Y2369820D01*
Y2428240D01*
X1976120Y2430780D01*
X1912620D01*
X1910080Y2428240D01*
X1892300D01*
X1841500D01*
X1397000D01*
Y2319020D01*
G37*
G36*
G01X1765000Y3719000D02*
X1441000D01*
X1420000Y3740000D01*
Y3831000D01*
X1438000Y3849000D01*
X1565000D01*
X1623000Y3907000D01*
X1796000D01*
X1829900D01*
X1872760Y3864140D01*
Y3746140D01*
X1845620Y3719000D01*
X1765000D01*
G37*
G36*
G01X2064560Y4028440D02*
X2053950Y4017830D01*
X2051440Y4018170D01*
G03X2035100Y4016120I-4350J-31471D01*
G01X2034180Y4015740D01*
X2026460D01*
X2016400Y4005680D01*
X2011220Y4007820D01*
X1951180D01*
Y4003040D01*
X1917640D01*
G03X1872900I-22370J-22560D01*
G01X1841580D01*
X1841020Y4007480D01*
G03X1777980I-31520J-3980D01*
G01X1777420Y4003040D01*
X1707750D01*
G03X1660210I-23770J-21080D01*
G01X1543860D01*
X1499890Y4047010D01*
Y4069080D01*
G03X1493060Y4093120I-45739J-5D01*
G01Y4130040D01*
X1518680Y4155660D01*
X1522260Y4152360D01*
G03X1573620Y4155740I24066J26208D01*
G02X1580200Y4156790I3894J-3261D01*
G03X1633190Y4177160I18798J30209D01*
G01X1634250Y4180840D01*
X1772460D01*
X1874060Y4079240D01*
X2051860D01*
X2064560Y4066540D01*
Y4028440D01*
G37*
G36*
G01X1221600Y4942800D02*
X1201600D01*
Y4922800D01*
X1221600D01*
Y4942800D01*
G37*
G36*
G01X1141600D02*
X1121600D01*
Y4922800D01*
X1141600D01*
Y4942800D01*
G37*
G36*
G01X1386000Y4713600D02*
X1651000D01*
Y4732600D01*
Y4737100D01*
Y4876800D01*
X1727200D01*
Y4889500D01*
Y4896000D01*
X1652000D01*
X1399000D01*
Y4902200D01*
Y4991100D01*
X1397000D01*
X1388000D01*
X1386000D01*
Y4901000D01*
Y4713600D01*
G37*
G36*
G01X1974580Y1050690D02*
G03X1975520Y1050440I9614J34258D01*
G01X1998980Y1026990D01*
Y977900D01*
X1958340Y937260D01*
X1899920D01*
X1887220Y949960D01*
Y985520D01*
X1877060Y995680D01*
Y1043940D01*
X1866760Y1054240D01*
Y1058720D01*
X1862280D01*
X1841500Y1079500D01*
X1778000D01*
X1765300Y1092200D01*
Y1163740D01*
G02X1770090Y1168820I5081J7D01*
G03X1795030Y1181100I-1997J35522D01*
G01X1853650D01*
G03X1856940Y1178360I21115J22008D01*
G01X1866900Y1168400D01*
X1905000D01*
X1930400Y1143000D01*
Y1135330D01*
G03X1931400Y1074080I18601J-30329D01*
G01X1954790Y1050690D01*
X1974580D01*
G37*
G36*
G01X1606830Y2931230D02*
G03X1568200Y2934830I-20811J-14249D01*
G02X1553840I-7180J7184D01*
G03X1550270Y2937790I-17815J-17853D01*
G02Y2946170I2870J4190D01*
G03X1553870Y2984800I-14249J20811D01*
G02Y2999160I7184J7180D01*
G03X1556830Y3002730I-17853J17815D01*
G02X1565210I4190J-2870D01*
G03X1600270Y3037790I20810J14250D01*
G02Y3046170I2870J4190D01*
G03X1605070Y3050450I-14248J20811D01*
G01X1614840D01*
X1616110Y3049600D01*
G03X1651100Y3050450I16888J25399D01*
G01X1666970D01*
G03X1671770Y3046170I19048J16531D01*
G02Y3037790I-2870J-4190D01*
G03X1703840Y2999130I14256J-20806D01*
G02X1718200I7180J-7184D01*
G03X1750630Y3037540I17813J17856D01*
G02X1749320Y3053010I5877J8288D01*
G01X1886540Y3190230D01*
X1888290Y3190430D01*
G03X1898550Y3193550I-3606J30289D01*
G01X1899630Y3194110D01*
X1925340D01*
X1926280Y3193720D01*
G03X1953870Y3234800I9741J23263D01*
G02Y3249160I7184J7180D01*
G03X1918200Y3284830I-17850J17820D01*
G02X1903840I-7180J7184D01*
G03X1862760Y3257240I-17817J-17849D01*
G01X1863150Y3256300D01*
Y3242320D01*
G03X1854390Y3224330I21525J-21609D01*
G01X1854190Y3222580D01*
X1721450Y3089850D01*
X1696700D01*
X1695760Y3090240D01*
G03X1672620Y3088350I-9747J-23260D01*
G02X1658670Y3091470I-5399J8605D01*
G03X1624200Y3104200I-25669J-16471D01*
G02X1611150Y3114810I-2929J9728D01*
G03X1603870Y3134800I-25129J2169D01*
G02Y3149160I7184J7180D01*
G03Y3184800I-17850J17820D01*
G02Y3199160I7184J7180D01*
G03X1611200Y3218410I-17850J17818D01*
G02X1623380Y3228940I10143J577D01*
G03X1658310Y3248820I6117J29879D01*
G02X1666950Y3250470I4797J-1672D01*
G03X1668170Y3249160I19056J16524D01*
G02Y3234800I-7184J-7180D01*
G03Y3199160I17850J-17820D01*
G02Y3184800I-7184J-7180D01*
G03X1703870I17850J-17820D01*
G02Y3199160I7184J7180D01*
G03Y3234800I-17850J17820D01*
G02Y3249160I7184J7180D01*
G03X1706830Y3252730I-17853J17815D01*
G02X1715210I4190J-2870D01*
G03X1753840Y3249130I20811J14249D01*
G02X1768200I7180J-7184D01*
G03Y3284830I17820J17850D01*
G02X1753840I-7180J7184D01*
G03X1750590Y3287560I-17788J-17877D01*
G02X1747230Y3300090I5873J8290D01*
G03X1745630Y3328530I-27729J12705D01*
G02X1749430Y3342670I8702J5242D01*
G03X1754320Y3346110I-13434J24293D01*
G02X1767720I6700J-7641D01*
G03X1804320I18300J20870D01*
G02X1817720I6700J-7641D01*
G03X1854320I18300J20870D01*
G02X1867720I6700J-7641D01*
G03X1904320I18300J20870D01*
G02X1917720I6700J-7641D01*
G03X1954320I18300J20870D01*
G02X1967720I6700J-7641D01*
G03X2004320I18300J20870D01*
G02X2017720I6700J-7641D01*
G03X2019740Y3344490I18359J20823D01*
G02X2019990Y3336450I-2974J-4116D01*
G03X2018170Y3299160I16029J-19472D01*
G02Y3284800I-7184J-7180D01*
G03Y3249160I17850J-17820D01*
G02Y3234800I-7184J-7180D01*
G03Y3199160I17850J-17820D01*
G02Y3184800I-7184J-7180D01*
G03X2012470Y3176010I17850J-17818D01*
G02X1996910Y3171500I-9487J3633D01*
G03X1948410Y3150980I-18251J-24439D01*
G02X1937670Y3142150I-10073J1305D01*
G03X1960830Y3112460I-1652J-25167D01*
G01X1961120Y3114020D01*
X1965830Y3118730D01*
X1974450Y3110110D01*
G02X1971390Y3093650I-7187J-7178D01*
G03X1972920Y3037280I12397J-27869D01*
G02X1972810Y3027750I-1810J-4745D01*
G03X1970190Y3026680I10210J-28742D01*
G02X1957330Y3030460I-4276J9217D01*
G03X1935410Y3042190I-21312J-13480D01*
G01X1933240Y3042140D01*
X1904900Y3070480D01*
X1905230Y3072970D01*
G03X1862910Y3049000I-30231J4031D01*
G02X1866670Y3033160I-4034J-9324D01*
G03X1865210Y3031230I19362J-16164D01*
G02X1856830I-4190J2870D01*
G03X1853840Y2999130I-20809J-14251D01*
G02X1868200I7180J-7184D01*
G03X1903840I17820J17850D01*
G02X1918200I7180J-7184D01*
G03X1942880Y2992710I17818J17850D01*
G02X1954980Y2986950I2768J-9775D01*
G03X1988180Y2968940I28021J12048D01*
G01X1990660Y2969370D01*
X2011080Y2950450D01*
X2016970D01*
G03X2021770Y2946170I19048J16531D01*
G02Y2937790I-2870J-4190D01*
G03X2018200Y2934830I14245J-20813D01*
G02X2003840I-7180J7184D01*
G03X1968200I-17820J-17850D01*
G02X1953840I-7180J7184D01*
G03X1918200I-17820J-17850D01*
G02X1903840I-7180J7184D01*
G03X1868200I-17820J-17850D01*
G02X1853840I-7180J7184D01*
G03X1818200I-17820J-17850D01*
G02X1803840I-7180J7184D01*
G03X1768200I-17820J-17850D01*
G02X1753840I-7180J7184D01*
G03X1718200I-17820J-17850D01*
G02X1703840I-7180J7184D01*
G03X1668200I-17820J-17850D01*
G02X1653840I-7180J7184D01*
G03X1650270Y2937790I-17815J-17853D01*
G02Y2946170I2870J4190D01*
G03X1618170Y2949160I-14251J20809D01*
G02Y2934800I-7184J-7180D01*
G03X1615210Y2931230I17853J-17815D01*
G02X1606830I-4190J2870D01*
G37*
G36*
G01X1830760Y4863140D02*
X1817760Y4850140D01*
Y4834140D01*
X1824760Y4827140D01*
Y4790140D01*
X1834760Y4780140D01*
X1858760D01*
X1867620Y4789000D01*
X1876000D01*
X1890000D01*
X1895000Y4794000D01*
Y4816000D01*
X1896000Y4817000D01*
X1906000Y4827000D01*
X1908000Y4829000D01*
X1935000D01*
Y4853000D01*
X1873000D01*
X1872000Y4854000D01*
X1862860Y4863140D01*
X1830760D01*
G37*
G36*
G01X1621600Y4942800D02*
X1601600D01*
Y4922800D01*
X1621600D01*
Y4942800D01*
G37*
G36*
G01X1587500Y4927600D02*
Y5003800D01*
X1612900D01*
X1663700D01*
Y5092700D01*
X1747060D01*
Y4998260D01*
Y4978840D01*
X1862760Y4863140D01*
Y4829140D01*
X1830760D01*
X1825220D01*
X1726760Y4927600D01*
X1676400D01*
X1651000D01*
X1638300D01*
X1587500D01*
G37*
G36*
G01X1968000Y4812000D02*
X1975000Y4805000D01*
Y4786000D01*
X1976000Y4785000D01*
X1987000Y4774000D01*
X1989000Y4772000D01*
X2034000D01*
X2035000Y4771000D01*
X2066500Y4739500D01*
Y4693500D01*
X2051000Y4678000D01*
X2036000D01*
X2024000Y4690000D01*
Y4707000D01*
X2029000Y4712000D01*
Y4731000D01*
X2024000Y4736000D01*
X2012000Y4748000D01*
X1878000D01*
X1871000Y4755000D01*
Y4766000D01*
X1878000Y4773000D01*
X1901000D01*
X1910000Y4782000D01*
X1911000Y4783000D01*
Y4806000D01*
X1917000Y4812000D01*
X1968000D01*
G37*
G36*
G01X1541600Y4942800D02*
X1521600D01*
Y4922800D01*
X1541600D01*
Y4942800D01*
G37*
G36*
G01X1511300Y5092700D02*
X1612900D01*
Y5029200D01*
X1562100D01*
X1557000D01*
Y4927600D01*
X1511300D01*
X1506000D01*
Y4985800D01*
X1512000Y4991800D01*
Y5006000D01*
Y5049000D01*
X1511300D01*
Y5092700D01*
G37*
G36*
G01X1840800Y5689990D02*
X1816380Y5714410D01*
X1816360Y5716480D01*
G03X1773690Y5744130I-30500J-318D01*
G02X1759480Y5753440I-4051J9316D01*
G01Y5770560D01*
X1708680D01*
Y6120310D01*
X2303030D01*
Y5917110D01*
X2305580D01*
Y5770560D01*
X2267480D01*
Y5716610D01*
G02X2250140Y5709430I-10159J5D01*
G01X2237050Y5722520D01*
X2056460D01*
X2035130Y5743850D01*
X2035500Y5746370D01*
G03X2035370Y5754260I-23960J3551D01*
G02X2047190Y5766080I9991J1829D01*
G03X2069240Y5773380I4345J23828D01*
G01X2096510D01*
X2100700Y5777570D01*
X2102370Y5777810D01*
G03X2103630Y5837970I-4371J30185D01*
G02X2095890Y5851220I1883J9985D01*
G03X2095840Y5870910I-28891J9772D01*
G02X2105450Y5884380I9610J3307D01*
G01X2153180D01*
Y5989820D01*
X2145520D01*
Y6027120D01*
X2045480D01*
Y5989820D01*
X2037820D01*
Y5926010D01*
X2018060Y5906250D01*
X2015570Y5906580D01*
G03X1991150Y5899030I-4031J-30231D01*
G02X1977170Y5899400I-6795J7556D01*
G01X1975420Y5901160D01*
Y5929220D01*
X1971280D01*
Y5938360D01*
X1975240Y5939250D01*
G03X1938270Y5964970I-6737J29747D01*
G01X1938600Y5962480D01*
X1931170Y5955050D01*
Y5929220D01*
X1919980D01*
Y5915520D01*
X1907680D01*
Y5895480D01*
X1919980D01*
Y5881780D01*
X1948040D01*
X1955010Y5874810D01*
Y5847610D01*
G03X1948310Y5836770I16527J-17705D01*
G01X1947240Y5833130D01*
X1916900D01*
X1893200Y5809430D01*
X1890710Y5809760D01*
G03X1880830Y5749600I-4030J-30229D01*
G02X1886060Y5732440I-1950J-9971D01*
G01X1849470Y5695850D01*
Y5693580D01*
G02X1840800Y5689990I-5079J1D01*
G37*
G36*
G01X2018030Y199390D02*
X1999250Y218170D01*
Y236680D01*
X2016620D01*
Y294730D01*
G03X1999470Y352410I-13355J27419D01*
G02X1988050Y362490I-1260J10082D01*
G01Y376670D01*
G03X1986280Y437220I-19549J29729D01*
G01Y602030D01*
G02X1995880Y612170I10158J-3D01*
G03Y683230I-1980J35530D01*
G02X1986280Y693370I558J10143D01*
G01Y698500D01*
X2002790Y715010D01*
X2150110D01*
X2159000Y723900D01*
X2163130D01*
X2164420Y723030D01*
G03X2189800I12690J18840D01*
G01X2191090Y723900D01*
X2203140D01*
X2204430Y723030D01*
G03X2212900Y719550I12690J18840D01*
G01X2214440Y719260D01*
X2219960Y713740D01*
Y698500D01*
X2166620Y645160D01*
Y619020D01*
X2144820D01*
Y513580D01*
X2157860D01*
Y479020D01*
X2144820D01*
Y373580D01*
X2166620D01*
Y373380D01*
X2172030Y367970D01*
X2172000Y365840D01*
G03X2202840Y335000I30500J-340D01*
G01X2204970Y335030D01*
X2212340Y327660D01*
X2245360D01*
X2255520Y317500D01*
Y213360D01*
X2241550Y199390D01*
X2018030D01*
G37*
G36*
G01X2258750Y328670D02*
X2249580Y337840D01*
X2239790D01*
X2238870Y338220D01*
G03X2213690Y342910I-23983J-58820D01*
G01X2211530Y342870D01*
X2176800Y377600D01*
Y476280D01*
X2247420D01*
Y513580D01*
X2266420D01*
Y336340D01*
X2258750Y328670D01*
G37*
G36*
G01X2192040Y525780D02*
Y634630D01*
X2236000Y678590D01*
X2261810D01*
G03X2263350Y676540I29198J20331D01*
G01X2264480Y675140D01*
X2264470Y645820D01*
X2261340Y642700D01*
Y525780D01*
X2192040D01*
G37*
G36*
G01X2073040Y788410D02*
G02X2063460Y801950I2J10160D01*
G03X2064520Y805700I-28759J10154D01*
G01X2064840Y807170D01*
X2073650Y815980D01*
Y829180D01*
X2087130D01*
G03X2105160Y865700I0J22711D01*
G02Y878060I8069J6180D01*
G03Y905690I-18030J13815D01*
G02Y918060I8057J6185D01*
G03Y945700I-18030J13820D01*
G02Y958060I8061J6180D01*
G03Y985700I-18030J13820D01*
G02Y998070I8057J6185D01*
G03Y1025710I-18030J13820D01*
G02Y1038070I8061J6180D01*
G03Y1065700I-18030J13815D01*
G02Y1078060I8069J6180D01*
G03Y1105690I-18030J13815D01*
G02Y1118050I8061J6180D01*
G03Y1145690I-18030J13820D01*
G02Y1158060I8057J6185D01*
G03Y1185700I-18030J13820D01*
G02Y1198060I8061J6180D01*
G03X2104330Y1226720I-18029J13820D01*
G02X2104650Y1233700I3843J3321D01*
G03X2106130Y1268530I-17520J18191D01*
G02Y1275230I3817J3350D01*
G03X2087130Y1317120I-19000J16636D01*
G01X2028820D01*
X2011700Y1334250D01*
Y1446320D01*
X2015290Y1447420D01*
G03X2026810Y1453790I-9280J30385D01*
G02X2039880Y1453990I6654J-7675D01*
G03X2071170Y1448910I20058J24640D01*
G02X2083780Y1444070I3586J-9505D01*
G03X2112850Y1426890I28228J14580D01*
G02X2118060Y1421810I131J-5078D01*
G01Y1418540D01*
X2117020Y1417170D01*
G03X2111880Y1401890I20113J-15270D01*
G01Y1341870D01*
G03X2153770Y1322870I25254J0D01*
G02X2160470I3350J-3817D01*
G03X2195300Y1324350I16639J19000D01*
G02X2202280Y1324670I3659J-3523D01*
G03X2231960I14840J17200D01*
G02X2238930Y1324350I3316J-3847D01*
G03X2273770Y1322890I18185J17522D01*
G02X2280480I3355J-3824D01*
G03X2313780Y1322880I16656J18981D01*
G02X2320480I3350J-3818D01*
G03X2353770Y1322870I16651J18990D01*
G02X2360470I3350J-3817D01*
G03X2393760Y1322880I16639J19000D01*
G02X2400460I3350J-3818D01*
G03X2435300Y1324350I16650J18990D01*
G02X2442280Y1324670I3659J-3523D01*
G03X2470940Y1323840I14840J17199D01*
G02X2483300I6180J-8061D01*
G03X2510940I13820J18030D01*
G02X2523310I6185J-8057D01*
G03X2550940I13815J18030D01*
G02X2563300I6180J-8069D01*
G03X2599820Y1341870I13809J18030D01*
G01Y1401890D01*
G03X2599720Y1404100I-22714J79D01*
G01X2599690Y1404350D01*
Y1409680D01*
X2620420D01*
X2674640Y1463900D01*
Y1492060D01*
X2704800D01*
Y1581620D01*
X2667500D01*
Y1592560D01*
X2744880D01*
X2783860Y1631540D01*
Y1680530D01*
G02X2795720Y1690550I10159J4D01*
G03X2802520Y1751070I5116J30067D01*
G02X2793090Y1763070I560J10146D01*
G03X2794620Y1782600I-91164J16967D01*
G02X2811960Y1790060I10155J278D01*
G01X2854160Y1747870D01*
Y1680350D01*
X2805410Y1631610D01*
Y1359050D01*
X2790040Y1343680D01*
X2739390D01*
G03X2719760Y1336110I0J-29237D01*
G01X2718310Y1334790D01*
X2714170D01*
X2693280Y1313890D01*
X2690720Y1314300D01*
G03X2687130Y1314580I-3556J-22433D01*
G01X2627110D01*
G03X2609080Y1278060I0J-22711D01*
G02Y1265700I-8069J-6180D01*
G03Y1238070I18030J-13815D01*
G02Y1225700I-8057J-6185D01*
G03Y1198060I18030J-13820D01*
G02Y1185700I-8061J-6180D01*
G03Y1158060I18030J-13820D01*
G02Y1145690I-8057J-6185D01*
G03Y1118050I18030J-13820D01*
G02Y1105690I-8061J-6180D01*
G03Y1078060I18030J-13815D01*
G02Y1065700I-8069J-6180D01*
G03Y1038070I18030J-13815D01*
G02Y1025710I-8061J-6180D01*
G03Y998070I18030J-13820D01*
G02Y985700I-8057J-6185D01*
G03Y958060I18030J-13820D01*
G02Y945700I-8061J-6180D01*
G03Y918060I18030J-13820D01*
G02Y905690I-8057J-6185D01*
G03Y878060I18030J-13815D01*
G02Y865700I-8069J-6180D01*
G03X2607530Y840370I18030J-13816D01*
G02X2598780Y825060I-8756J-5151D01*
G01X2593320D01*
G02X2583750Y838610I6J10159D01*
G03X2524500Y848930I-28749J10187D01*
G01X2524490Y846840D01*
X2520600Y842950D01*
Y831950D01*
G02X2506320Y822660I-10159J-4D01*
G03X2483300Y819920I-9201J-20769D01*
G02X2470940I-6180J8061D01*
G03X2443300I-13820J-18030D01*
G02X2430930I-6185J8057D01*
G03X2403290I-13820J-18030D01*
G02X2390930I-6180J8061D01*
G03X2363300I-13815J-18030D01*
G02X2350940I-6180J8069D01*
G03X2323310I-13815J-18030D01*
G02X2310950I-6180J8061D01*
G03X2283310I-13820J-18030D01*
G02X2270940I-6185J8057D01*
G03X2243300I-13820J-18030D01*
G02X2230940I-6180J8061D01*
G03X2203300I-13820J-18030D01*
G02X2190930I-6185J8057D01*
G03X2163300I-13815J-18030D01*
G02X2150940I-6180J8069D01*
G03X2114420Y801890I-13809J-18030D01*
G01Y788410D01*
X2073040D01*
G37*
G36*
G01X2212340Y1432560D02*
X2198720Y1446180D01*
Y1504680D01*
X2176290Y1527110D01*
Y1607330D01*
X2189480Y1620520D01*
X2255520D01*
X2265150Y1610890D01*
Y1520120D01*
X2275520Y1509760D01*
Y1447480D01*
X2260600Y1432560D01*
X2212340D01*
G37*
G36*
G01X2039160Y1600470D02*
Y1615300D01*
X1979120D01*
X1976680Y1614290D01*
X1970790Y1620180D01*
G02X1965110Y1637410I1505J10047D01*
G01X1969030Y1641330D01*
Y1724550D01*
X1945660Y1747920D01*
Y1891050D01*
X1898530Y1938180D01*
Y1944170D01*
G02X1906380Y1948430I5081J0D01*
G03X1944070Y1951950I16621J25571D01*
G02X1961240Y1944600I7011J-7351D01*
G01Y1940280D01*
X2083570D01*
Y1883000D01*
X2072380D01*
Y1869300D01*
X2060080D01*
Y1849260D01*
X2072380D01*
Y1828230D01*
G03X2117750Y1788160I25181J-17209D01*
G02X2131190I6720J-7621D01*
G03X2177050Y1827500I20195J22858D01*
G01X2174840Y1830940D01*
X2179460Y1835560D01*
X2207520D01*
Y1849260D01*
X2219820D01*
Y1869300D01*
X2207520D01*
Y1880850D01*
X2329730D01*
G02X2336920Y1863510I3J-10159D01*
G01X2267690Y1794280D01*
Y1673560D01*
X2173750D01*
Y1711480D01*
X2127820Y1757410D01*
Y1763620D01*
X2072380D01*
Y1749920D01*
X2060080D01*
Y1729880D01*
X2072380D01*
Y1716180D01*
X2115110D01*
X2135610Y1695680D01*
Y1615300D01*
X2075640D01*
Y1600470D01*
X2039160D01*
G37*
G36*
G01X1958000Y4853000D02*
X2019000D01*
X2028000Y4862000D01*
X2031000Y4865000D01*
Y4873000D01*
X2048000Y4890000D01*
X2059000D01*
X2066000Y4883000D01*
Y4882000D01*
Y4832000D01*
X2023000Y4789000D01*
X1997000D01*
X1991000Y4795000D01*
Y4819000D01*
X1990000Y4820000D01*
X1982000Y4828000D01*
X1981000Y4829000D01*
X1957000D01*
X1951000D01*
Y4853000D01*
X1958000D01*
G37*
G36*
G01X2448930Y4925630D02*
X2452160Y4929210D01*
G03X2431480Y4988110I-26458J23791D01*
G01X2429870Y4988370D01*
X2398620Y5019620D01*
Y5023420D01*
X2394820D01*
X2394580Y5023660D01*
X2310280D01*
X2308500Y5025440D01*
X2267760D01*
Y5133340D01*
X2280460Y5146040D01*
X2420160D01*
X2458260Y5107940D01*
Y5082540D01*
X2580620Y4960180D01*
Y4946380D01*
X2594420D01*
X2596980Y4943820D01*
Y4933130D01*
X2632530Y4897580D01*
X2643220D01*
X2651300Y4889500D01*
X2796600D01*
X2797990Y4886620D01*
G03X2853010Y4874800I32084J15380D01*
G01X2854430Y4876000D01*
X2860720D01*
X2861770Y4872300D01*
G03X2930230I34230J9700D01*
G01X2931280Y4876000D01*
X3186900D01*
X3187700Y4876800D01*
X3263900D01*
X3268750Y4881650D01*
X3383040D01*
Y4995940D01*
X3429000Y5041900D01*
X3454400D01*
X3470820Y5025480D01*
Y4995860D01*
X3466270Y4995380D01*
G03X3469720Y4924420I3738J-35382D01*
G02X3479800Y4914260I-79J-10159D01*
G01Y4891450D01*
X3478630Y4890040D01*
G03Y4761960I77370J-64040D01*
G01X3479800Y4760550D01*
Y4741530D01*
G02X3475130Y4736460I-5081J-5D01*
G03X3442430Y4701730I2870J-35462D01*
G01X3442390Y4699690D01*
X3403600Y4660900D01*
X3339100D01*
X3333000Y4667000D01*
X3253720D01*
X3253570Y4667010D01*
G03X3249650I-1960J-31710D01*
G01X3249500Y4667000D01*
X3173710D01*
X3173560Y4667010D01*
G03X3169640I-1960J-31710D01*
G01X3169490Y4667000D01*
X3085140D01*
X3084990Y4667010D01*
G03X3081070I-1960J-31710D01*
G01X3080920Y4667000D01*
X2751000D01*
X2745000Y4673000D01*
Y4724400D01*
X2536460D01*
Y4900760D01*
X2473800D01*
X2448930Y4925630D01*
G37*
G36*
G01X2146220Y5553740D02*
Y5556120D01*
X2006220D01*
Y5566120D01*
X1966220D01*
Y5590680D01*
X2146220D01*
Y5596870D01*
X2154650D01*
X2175050Y5617270D01*
X2178580Y5614570D01*
G03X2220400Y5619120I18521J24231D01*
G01X2221920Y5620920D01*
X2229360D01*
Y5606310D01*
X2227660Y5604610D01*
Y5575730D01*
G03X2218350Y5560170I20337J-22733D01*
G01X2217410Y5556280D01*
X2200670D01*
G03X2191140Y5554200I0J-22872D01*
G01X2190130Y5553740D01*
X2146220D01*
G37*
G36*
G01X2371090Y196850D02*
X2352040Y215900D01*
Y309880D01*
X2372360Y330200D01*
X2435860D01*
X2473960Y368300D01*
Y375920D01*
X2524760Y426720D01*
X2748280D01*
X2778760Y396240D01*
Y352930D01*
G02X2767990Y342790I-10160J1D01*
G03X2706830Y285220I-3480J-57575D01*
G01Y242520D01*
X2590980D01*
Y239680D01*
X2533120D01*
Y242220D01*
X2477680D01*
Y197910D01*
G03X2476780Y196850I26667J-23554D01*
G01X2371090D01*
G37*
G36*
G01X2469770Y471340D02*
X2469590Y470680D01*
G03X2485260Y435370I29410J-8080D01*
G02X2488850Y420270I-4584J-9066D01*
G03X2474670Y391890I74641J-55027D01*
G01X2474310Y390660D01*
X2463780Y380140D01*
Y372520D01*
X2431640Y340380D01*
X2410480D01*
X2409800Y340570D01*
G03X2375560I-17120J-61170D01*
G01X2374880Y340380D01*
X2368140D01*
X2363670Y335910D01*
G03X2347370Y323910I29026J-56498D01*
G02X2329960Y331030I-7249J7121D01*
G01Y475280D01*
X2419820D01*
Y512580D01*
X2436790D01*
X2469770Y479590D01*
Y471340D01*
G37*
G36*
G01X2513070Y540890D02*
X2496820Y557140D01*
Y675640D01*
X2494300Y678160D01*
Y678550D01*
X2481580Y691270D01*
Y706120D01*
X2489200Y713740D01*
X2614340D01*
G03X2668860I27260J22860D01*
G01X2679700D01*
X2745740Y647700D01*
Y552120D01*
X2731760Y538140D01*
X2723520D01*
Y545320D01*
X2521740D01*
Y544480D01*
G02X2513070Y540890I-5080J4D01*
G37*
G36*
G01X2387600Y657860D02*
Y670560D01*
X2400300Y683260D01*
X2453640D01*
X2468880Y668020D01*
Y541020D01*
X2453640Y525780D01*
X2379980D01*
X2364740Y541020D01*
Y635000D01*
X2387600Y657860D01*
G37*
G36*
G01X2481580Y1422400D02*
X2473960Y1430020D01*
Y1430140D01*
X2453760Y1450340D01*
Y1850140D01*
X2466750Y1863130D01*
G02X2481840Y1862330I7185J-7184D01*
G03X2533970Y1858830I27683J22350D01*
G02X2540950I3490J-3689D01*
G03X2591090Y1860060I24451J25849D01*
G01X2742420D01*
X2771490Y1830990D01*
G03X2771600Y1830580I34419J9015D01*
G01Y1823240D01*
X2773680Y1821160D01*
Y1743620D01*
G03Y1697620I27150J-23000D01*
G01Y1635760D01*
X2740660Y1602740D01*
X2662310D01*
X2662290Y1602760D01*
X2582810D01*
X2582790Y1602740D01*
X2557780D01*
X2553970Y1598930D01*
Y1510420D01*
X2506960Y1463410D01*
Y1427460D01*
X2503380Y1423880D01*
X2500810Y1424300D01*
G03X2488250Y1422800I-3693J-22411D01*
G01X2487300Y1422400D01*
X2481580D01*
G37*
G36*
G01X2603470Y1419860D02*
X2591090D01*
X2589800Y1420730D01*
G03X2564420I-12690J-18840D01*
G01X2563130Y1419860D01*
X2551110D01*
X2549820Y1420730D01*
G03X2539520Y1424480I-12692J-18839D01*
G01X2537730Y1424670D01*
X2532380Y1430020D01*
Y1452880D01*
X2580640Y1501140D01*
Y1564640D01*
X2593340Y1577340D01*
X2651760D01*
X2664460Y1564640D01*
Y1468120D01*
X2657240Y1460900D01*
X2652830Y1465300D01*
X2652440Y1466390D01*
G03X2601440Y1429000I-31164J-10969D01*
G01X2603470Y1427480D01*
Y1419860D01*
G37*
G36*
G01X2305830Y1673560D02*
Y1778480D01*
X2385540Y1858190D01*
G02X2402880Y1851000I7181J-7187D01*
G01Y1673560D01*
X2305830D01*
G37*
G36*
G01X2427100Y1955800D02*
X2410990Y1971910D01*
Y2324630D01*
X2418080Y2331720D01*
X2468880D01*
X2501900Y2298700D01*
X2545080D01*
X2567940Y2275840D01*
X2578900D01*
Y2258360D01*
X2668460D01*
Y2275840D01*
X2708100D01*
Y2258360D01*
X2768140D01*
Y2275840D01*
X2804620D01*
Y2258360D01*
X2865120D01*
Y2049160D01*
X2861780Y2045820D01*
X2848780D01*
Y2032820D01*
X2776060Y1960100D01*
X2447740D01*
Y1955800D01*
X2427100D01*
G37*
G36*
G01X2966020Y2816730D02*
X2940570Y2842180D01*
Y2878730D01*
X2834480D01*
Y2893520D01*
X2859280D01*
Y2953560D01*
X2834480D01*
Y2964430D01*
G02X2839320Y2969500I5080J-4D01*
G03X2877790Y3056960I-2521J53300D01*
G01X2876610Y3058380D01*
X2876670Y3085830D01*
X2902930D01*
Y3276370D01*
X2812470D01*
Y3250210D01*
X2582090D01*
X2578980Y3247100D01*
X2372250D01*
X2363090Y3256260D01*
G02X2366680Y3264930I3593J3590D01*
G01X2380900D01*
X2484470Y3368500D01*
Y3420510D01*
G02X2499230Y3429570I10161J-1D01*
G03X2528600Y3485910I14368J28335D01*
G02X2526210Y3502050I4797J8957D01*
G01X2535700Y3511530D01*
X2594040D01*
Y3504340D01*
X2654040D01*
Y3489820D01*
X2644280D01*
Y3469780D01*
X2654040D01*
Y3453540D01*
X2702700D01*
X2704150Y3450930D01*
G03X2705440Y3448810I27766J15443D01*
G02X2701210Y3440920I-4230J-2811D01*
G01X2642540D01*
Y3425340D01*
X2607780D01*
Y3335780D01*
X2642540D01*
Y3320480D01*
X2706310D01*
X2707640Y3317430D01*
G03X2759220Y3307680I29114J12712D01*
G01X2776810Y3325260D01*
X2836370D01*
Y3323960D01*
X2911620D01*
G02X2921410Y3311060I5J-10161D01*
G03X2934680Y3329130I30593J-8559D01*
G02X2926830Y3333390I-2769J4260D01*
G01Y3342550D01*
X2965760Y3381480D01*
X3033260D01*
Y3397060D01*
X3068020D01*
Y3486620D01*
X3033260D01*
Y3501920D01*
X2922740D01*
Y3428310D01*
X2920290Y3425870D01*
G02X2911620Y3429460I-3590J3594D01*
G01Y3439220D01*
X2851580D01*
Y3414420D01*
X2840530D01*
Y3415720D01*
X2825320D01*
Y3440520D01*
X2770770D01*
G02X2761350Y3454490I0J10161D01*
G03X2721330Y3496360I-29452J11910D01*
G01X2720510Y3496070D01*
X2714560D01*
Y3511530D01*
X2752590D01*
X2837920Y3596860D01*
Y3604150D01*
X2841280Y3605360D01*
G03X2884910Y3667500I-22436J62140D01*
G01Y3692900D01*
G03X2868190Y3736830I-66071J0D01*
G02X2870260Y3752120I7587J6758D01*
G03X2831530Y3802200I-17236J26687D01*
G02X2818630Y3801510I-6869J7486D01*
G03X2775290Y3755680I-18884J-25549D01*
G02X2774320Y3741690I-7820J-6486D01*
G03X2752790Y3692900I44517J-48790D01*
G01Y3692310D01*
G02X2738060Y3683240I-10159J3D01*
G03X2721960Y3687310I-17169J-34037D01*
G02X2717020Y3692380I138J5076D01*
G01Y3710440D01*
X2727220D01*
Y3820960D01*
X2654570D01*
Y3845740D01*
X2725760D01*
Y3852930D01*
X2824900D01*
X2839570Y3867600D01*
G02X2855730Y3865170I7182J-7186D01*
G03X2923200Y3830670I58371J30930D01*
G02X2934760Y3820610I1400J-10063D01*
G01Y3790000D01*
G03X3022440I43840J0D01*
G01Y3812180D01*
G02X3033620Y3822290I10160J2D01*
G03X3046540Y3823660I3181J31610D01*
G02X3059220Y3817390I3107J-9673D01*
G03X3075480Y3799350I29936J10635D01*
G02X3078290Y3782990I-4371J-9172D01*
G01X3060130Y3764830D01*
Y3646460D01*
X3030390Y3616720D01*
X2970260D01*
G03X2915010Y3597200I-23531J-21348D01*
G02X2905700Y3587660I-10143J586D01*
G03X2933710Y3536930I2600J-31662D01*
G01X3040470D01*
X3093330Y3589790D01*
G02X3110230Y3585580I7185J-7184D01*
G03X3145620Y3563530I30371J9320D01*
G01X3148180Y3563940D01*
X3152750Y3559370D01*
X3157880D01*
Y3552180D01*
X3251880D01*
Y3458180D01*
X3259070D01*
Y3440580D01*
X3322180Y3377470D01*
X3446950D01*
G02X3454140Y3360130I3J-10159D01*
G01X3385230Y3291220D01*
Y2964890D01*
X3293130Y2872790D01*
G02X3275900Y2878460I-7184J7183D01*
G03X3267490Y2895300I-30162J-4543D01*
G02X3266730Y2908680I7242J7123D01*
G03X3265040Y2948270I-24011J18806D01*
G02X3264580Y2961600I7435J6929D01*
G03X3262630Y3002190I-23692J19204D01*
G02X3261800Y3015500I7239J7132D01*
G03X3215850Y3012650I-24213J18542D01*
G02X3216680Y2999340I-7239J-7132D01*
G03X3218570Y2960020I24212J-18542D01*
G02X3219030Y2946690I-7435J-6929D01*
G03X3220970Y2906100I23691J-19209D01*
G02X3221730Y2892720I-7242J-7123D01*
G03X3216200Y2866300I24008J-18814D01*
G02X3206370Y2853610I-9838J-2532D01*
G01X3115580D01*
X3115100Y2858160D01*
G03X2983340Y2851300I-65701J-6860D01*
G01Y2825900D01*
G03X2983360Y2824180I66061J-92D01*
G02X2966020Y2816730I-10155J-268D01*
G37*
G36*
G01X2942100Y4361680D02*
G02X2932990Y4376340I-2J10160D01*
G03X2925830Y4413950I-28490J14063D01*
G02X2925260Y4428450I6819J7529D01*
G03X2880810Y4426690I-23123J21789D01*
G02X2881380Y4412190I-6819J-7529D01*
G03X2876130Y4376090I23118J-21794D01*
G02X2867060Y4361360I-9071J-4572D01*
G01X2856140D01*
Y4356520D01*
X2804190D01*
X2803960Y4356540D01*
G03X2798240I-2860J-31640D01*
G01X2798010Y4356520D01*
X2796770D01*
X2796650Y4356390D01*
X2795110Y4356100D01*
G03X2770890Y4334720I5993J-31198D01*
G01X2770510Y4333560D01*
X2766050Y4329110D01*
X2758460Y4336700D01*
Y4433280D01*
G02X2768090Y4443420I10158J-5D01*
G03X2775930Y4444840I-1698J31725D01*
G02X2787910Y4439980I3042J-9697D01*
G03X2806340Y4485400I27943J15111D01*
G02X2794360Y4490260I-3042J9697D01*
G03X2738750Y4490750I-27940J-15114D01*
G02X2722710Y4488560I-8851J4992D01*
G01X2700040Y4511230D01*
G02X2701990Y4527130I7181J7189D01*
G03X2672510Y4583290I-16360J27230D01*
G01X2671510Y4582840D01*
X2665330D01*
Y4590190D01*
X2677660Y4602520D01*
Y4609240D01*
X2679960D01*
Y4625480D01*
X2689720D01*
Y4645520D01*
X2679960D01*
Y4661760D01*
X2677660D01*
Y4690660D01*
X2674760Y4693560D01*
X2674380Y4694680D01*
G03X2672390Y4699320I-30101J-10163D01*
G02X2672580Y4709150I8984J4743D01*
G01X2729750D01*
Y4666680D01*
X2741720Y4654720D01*
G03X2796750Y4643740I24600J-20102D01*
G02X2797690Y4651750I9732J2918D01*
G01X2816830D01*
G02X2817410Y4642730I-8788J-5094D01*
G03X2875990I29290J-12310D01*
G02X2876570Y4651750I9368J3926D01*
G01X3051460D01*
G02X3052450Y4643910I-8791J-5093D01*
G03X3113610I30580J-8610D01*
G02X3114600Y4651750I9781J2747D01*
G01X3140030D01*
G02X3141020Y4643910I-8791J-5093D01*
G03X3202180I30580J-8610D01*
G02X3203170Y4651750I9781J2747D01*
G01X3250010D01*
X3250620Y4651790D01*
G02X3252600I990J-16490D01*
G01X3253210Y4651750D01*
X3295160D01*
G02X3293540Y4639470I-8796J-5086D01*
G03X3295920Y4592380I22460J-22470D01*
G02X3296680Y4577330I-6426J-7869D01*
G01X3265930Y4546580D01*
Y4432990D01*
X3261410Y4432490D01*
G03X3272580Y4370080I3501J-31578D01*
G02X3285200Y4360230I2461J-9856D01*
G01Y4285620D01*
G02X3283100Y4269880I-7336J-7031D01*
G03X3274410Y4262200I16341J-27247D01*
G01X3270400Y4260240D01*
X3265360Y4264720D01*
G03X3264120Y4270270I-27764J-3289D01*
G01X3263860Y4271060D01*
Y4291680D01*
X3247620D01*
Y4301440D01*
X3227580D01*
Y4291680D01*
X3211340D01*
Y4289380D01*
X3197820D01*
Y4291680D01*
X3186660D01*
Y4301440D01*
X3166620D01*
Y4291680D01*
X3150380D01*
Y4288900D01*
X3128070Y4288480D01*
X3126260Y4290260D01*
X3110020D01*
Y4300020D01*
X3089980D01*
Y4298240D01*
G02X3081310Y4294650I-5080J3D01*
G01X3079120Y4296840D01*
X2959060D01*
Y4361680D01*
X2942100D01*
G37*
G36*
G01X2959740Y1175380D02*
Y1136290D01*
X3015750Y1080280D01*
X3197860D01*
Y949960D01*
X3164840Y916940D01*
X3012440D01*
X2929470Y999910D01*
X2929450Y999930D01*
G03X2928940Y1000440I-21820J-21310D01*
G01X2928920Y1000460D01*
X2853010Y1076370D01*
Y1109880D01*
X2853480Y1110890D01*
G03X2785590Y1124960I-32318J14886D01*
G02X2781200Y1119810I-5077J-118D01*
G03X2773450Y1117900I5197J-37766D01*
G01X2772620Y1117600D01*
X2744440D01*
X2743570Y1117930D01*
G03X2729850Y1120390I-13474J-35660D01*
G01X2727720Y1120380D01*
X2715260Y1132840D01*
Y1168400D01*
X2733320Y1186460D01*
X2769400D01*
X2789440Y1206500D01*
X2796540D01*
X2821940Y1231900D01*
X2903220D01*
X2959740Y1175380D01*
G37*
G36*
G01X2991630Y1180320D02*
X2947040Y1224910D01*
Y1395100D01*
X2957830Y1405890D01*
Y1413510D01*
X2958130Y1413810D01*
Y1427940D01*
X2961500D01*
Y1493380D01*
X2971800Y1503680D01*
X3165140D01*
Y1413320D01*
X3190240D01*
Y1191260D01*
X3179300Y1180320D01*
X2991630D01*
G37*
G36*
G01X2898050Y2432720D02*
X2896190Y2434580D01*
X2756930D01*
X2693020Y2498490D01*
Y2519180D01*
X2708970D01*
X2721670Y2506480D01*
X2742340D01*
Y2501640D01*
X2758580D01*
Y2491880D01*
X2778620D01*
Y2501640D01*
X2809380D01*
Y2491880D01*
X2829420D01*
Y2501640D01*
X2860180D01*
Y2491880D01*
X2880220D01*
Y2501640D01*
X2896460D01*
Y2537720D01*
G02X2912960Y2545660I10161J-2D01*
G03X2946210Y2531720I41196J51638D01*
G01X2950680Y2531180D01*
Y2432720D01*
X2898050D01*
G37*
G36*
G01X2982800Y3932800D02*
X2978240Y3937350D01*
X2977890Y3938660D01*
G03X2958840Y3970110I-63796J-17148D01*
G02X2965720Y3987740I6881J7472D01*
G01X2976830D01*
X2981040Y3983540D01*
X2981330Y3982000D01*
G03X3043880Y3993130I31199J5990D01*
G01X3043460Y3995700D01*
X3073900Y4026140D01*
Y4045360D01*
X3081280D01*
Y4061600D01*
X3091040D01*
Y4081640D01*
X3081280D01*
Y4097880D01*
X3020760D01*
Y4096450D01*
X3014970D01*
X3014280Y4096640D01*
G03X2976080Y4054220I-8737J-30542D01*
G02X2966650Y4040260I-9425J-3799D01*
G01X2938080D01*
Y4074340D01*
X2954740Y4091000D01*
Y4170360D01*
X2987480Y4203100D01*
G03X2993460Y4198290I22755J22168D01*
G02X2992860Y4180690I-5365J-8627D01*
G03X3021810Y4124130I14881J-28072D01*
G01X3022870Y4124660D01*
X3061580D01*
X3127960Y4191040D01*
Y4232550D01*
X3148570Y4232940D01*
X3150380Y4231160D01*
X3202900D01*
Y4233460D01*
X3216420D01*
Y4231160D01*
X3269370D01*
G02X3261610Y4214440I-7757J-6561D01*
G01X3225190D01*
X3186530Y4175780D01*
X3183200Y4177600D01*
G03X3176020Y4118960I-15199J-27899D01*
G02X3188750Y4109130I2570J-9830D01*
G01Y4098210D01*
X3182310D01*
X3181120Y4098890D01*
G03X3166870Y4039670I-15920J-27494D01*
G02X3177560Y4029530I532J-10144D01*
G01Y3994230D01*
X3177450Y3993700D01*
G03X3176980Y3982980I31049J-6732D01*
G02X3166910Y3971540I-10077J-1282D01*
G01X3139730D01*
X3108230Y3940040D01*
X2990040D01*
X2982800Y3932800D01*
G37*
G36*
G01X3390900Y5295900D02*
Y5120900D01*
X2803900D01*
X2767000Y5157800D01*
Y5234000D01*
X2817000D01*
Y5248000D01*
Y5295900D01*
X3390900D01*
G37*
G36*
G01X3470830Y2287740D02*
G02X3453490Y2280760I-10157J205D01*
G01X3406950Y2327300D01*
X3385120D01*
Y2335120D01*
X3378030D01*
Y2550550D01*
X3316450Y2612130D01*
X3288130D01*
G02X3278480Y2625460I2J10160D01*
G03X3272400Y2655120I-28980J9513D01*
G02X3272320Y2668450I7626J6711D01*
G03X3272140Y2708380I-23149J19861D01*
G02X3272150Y2721760I7649J6684D01*
G03X3271610Y2762540I-22950J20090D01*
G02X3271200Y2775870I7459J6901D01*
G03X3277130Y2802780I-23608J19311D01*
G02X3286960Y2815470I9838J2532D01*
G01X3289750D01*
X3423370Y2949090D01*
Y3275420D01*
X3453530Y3305590D01*
G02X3470870Y3298780I7185J-7185D01*
G03X3629670Y3259210I85131J3216D01*
G02X3648610Y3254110I8782J-5105D01*
G01Y3095890D01*
G02X3629670Y3090790I-10158J5D01*
G03Y3005210I-73670J-42790D01*
G02X3648610Y3000110I8782J-5105D01*
G01Y2841890D01*
G02X3629670Y2836790I-10158J5D01*
G03Y2751210I-73670J-42790D01*
G02X3648610Y2746110I8782J-5105D01*
G01Y2333890D01*
G02X3629670Y2328790I-10158J5D01*
G03X3470830Y2287740I-73667J-42787D01*
G37*
G36*
G01X3354470Y3870020D02*
Y3837850D01*
X3346640Y3830020D01*
X3319980D01*
Y3817720D01*
X3306280D01*
Y3795500D01*
G02X3292640Y3785960I-10159J4D01*
G03X3275960Y3787150I-10427J-28661D01*
G02X3263720Y3797100I-2079J9946D01*
G01Y3817720D01*
X3250020D01*
Y3830020D01*
X3229980D01*
Y3817720D01*
X3216280D01*
Y3806530D01*
X3207020D01*
X3206070Y3810390D01*
G03X3200090Y3822560I-30848J-7604D01*
G02X3202330Y3837290I7951J6326D01*
G03X3215300Y3871240I-17858J26275D01*
G02X3225160Y3883860I9856J2461D01*
G01X3292670D01*
X3302690Y3893880D01*
G02X3318210Y3892500I7183J-7183D01*
G03X3350490Y3870900I43780J30506D01*
G01X3354470Y3870020D01*
G37*
G36*
G01X3339320Y3639620D02*
Y3735940D01*
X3346530Y3743150D01*
Y3762280D01*
X3353720D01*
Y3790340D01*
X3387530Y3824150D01*
Y3876140D01*
G03X3312160Y3942070I-25532J46858D01*
G01X3301080D01*
G02X3290930Y3951850I2J10159D01*
G03X3239620Y3993390I-43808J-1652D01*
G03X3238380Y3997790I-31119J-6395D01*
G01X3238080Y3998630D01*
Y4019800D01*
X3247840D01*
Y4046120D01*
X3252370Y4046610D01*
G03X3239940Y4108660I-3411J31587D01*
G02X3226890Y4118400I-2889J9741D01*
G01Y4128610D01*
X3233250D01*
X3234370Y4128010D01*
G03X3275400Y4137740I15031J27990D01*
G02X3292540Y4136940I8316J-5836D01*
G03X3317140Y4121040I27604J15728D01*
G02X3321740Y4115980I-479J-5057D01*
G01Y4050740D01*
X3337980D01*
Y4040980D01*
X3358020D01*
Y4050740D01*
X3374260D01*
Y4080290D01*
X3375860Y4081890D01*
G02X3384530Y4078300I3590J-3593D01*
G01Y4043400D01*
X3474750Y3953180D01*
X3639850D01*
X3737740Y3855290D01*
X3735840Y3851930D01*
G03X3737090Y3765930I74159J-41931D01*
G01X3739150Y3762530D01*
X3699410Y3722790D01*
Y3692140D01*
G02X3682070Y3684960I-10159J6D01*
G01X3645990Y3721040D01*
X3641180D01*
Y3895180D01*
X3470820D01*
Y3721040D01*
X3448160D01*
X3366740Y3639620D01*
X3339320D01*
G37*
G36*
G01X3892740Y1834920D02*
G03X3750040Y1858570I-82743J-56919D01*
G02X3733820Y1866720I-6061J8152D01*
G01Y1963200D01*
G02X3751010Y1970530I10158J0D01*
G03X3749810Y2092280I58990J61462D01*
G02X3732470Y2099470I-7179J7192D01*
G01Y2218530D01*
G02X3749810Y2225720I10161J-2D01*
G03Y2346280I60190J60280D01*
G02X3732470Y2353470I-7179J7192D01*
G01Y2726530D01*
G02X3749810Y2733720I10161J-2D01*
G03Y2854280I60190J60280D01*
G02X3732470Y2861470I-7179J7192D01*
G01Y2980530D01*
G02X3749810Y2987720I10161J-2D01*
G03Y3108280I60190J60280D01*
G02X3732470Y3115470I-7179J7192D01*
G01Y3234530D01*
G02X3749810Y3241720I10161J-2D01*
G03X3880780Y3349410I60188J60287D01*
G01X3893930Y3362550D01*
G02X3911270Y3355370I7181J-7186D01*
G01Y1840680D01*
G02X3892740Y1834920I-10160J0D01*
G37*
%LPC*%
G75*
G36*
G01X3642720Y5307270D02*
X3492600D01*
G03X3483060Y5293630I6J-10160D01*
G02X3452500Y5313640I-28660J-10430D01*
G03X3457260Y5318710I-320J5070D01*
G01Y5492730D01*
X3642720D01*
Y5307270D01*
G37*
G36*
G01X2400950Y3983150D02*
X2400560Y3982220D01*
Y3959720D01*
X2410320D01*
Y3939680D01*
X2400560D01*
Y3923440D01*
X2340040D01*
Y3975960D01*
X2342710D01*
Y3982060D01*
X2342310Y3983010D01*
G02X2400950Y3983150I29291J12308D01*
G37*
G36*
G01X418470Y2169200D02*
G03X408950Y2159360I634J-10139D01*
G02X376550Y2190710I-30488J909D01*
G03X386070Y2200550I-634J10139D01*
G02X418470Y2169200I30488J-909D01*
G37*
G36*
G01X389540Y1995020D02*
G03X390470Y2008320I-7185J7185D01*
G02X391790Y2046650I24361J18349D01*
G03X391780Y2059980I-7675J6659D01*
G02X437820Y2060030I22998J20031D01*
G03X437830Y2046700I7675J-6659D01*
G02X436390Y2005100I-23001J-20029D01*
G03X435460Y1991800I7185J-7185D01*
G02X389540Y1995020I-24360J-18351D01*
G37*
G36*
G01X468800Y242640D02*
Y293370D01*
G03X456110Y303210I-10159J1D01*
G02Y362270I-7620J29530D01*
G03X468800Y372110I2531J9839D01*
G01Y438080D01*
X584240D01*
Y242640D01*
X468800D01*
G37*
G36*
G01X2595970Y4182970D02*
G03X2598150Y4199000I-5001J8843D01*
G01X2591750Y4205410D01*
X2590210Y4205700D01*
G02X2609170Y4265900I5987J31200D01*
G03X2621670Y4269390I4148J9275D01*
G02X2622900Y4271050I26128J-18075D01*
G03X2622660Y4283970I-7957J6314D01*
G02X2671680Y4284870I24139J20658D01*
G03X2671920Y4271950I7957J-6314D01*
G02X2678400Y4242830I-24141J-20653D01*
G03X2688190Y4229960I9793J-2709D01*
G01X2743460D01*
Y4213720D01*
X2753220D01*
Y4193680D01*
X2743460D01*
Y4188230D01*
G03X2755820Y4178320I10158J7D01*
G02X2768690Y4116100I6880J-31018D01*
G01X2767150Y4115810D01*
X2765650Y4114300D01*
X2744060D01*
Y4109460D01*
X2727820D01*
Y4099700D01*
X2707780D01*
Y4109460D01*
X2691540D01*
Y4177440D01*
X2680560D01*
Y4165340D01*
X2664320D01*
Y4155580D01*
X2643680D01*
X2643100Y4151160D01*
G02X2595970Y4182970I-31499J4150D01*
G37*
G36*
G01X2249590Y4441270D02*
G02X2233660Y4403170I14312J-28364D01*
G03X2219410Y4409130I-9672J-3109D01*
G02X2235340Y4447230I-14312J28364D01*
G03X2249590Y4441270I9672J3109D01*
G37*
G36*
G01X153790Y5241080D02*
G02X118160Y5241620I-18190J-24481D01*
G03X118410Y5258120I-5804J8340D01*
G02X116950Y5305920I18192J24478D01*
G03X116700Y5321660I-6550J7768D01*
G02X155250Y5322280I18895J23941D01*
G03X155500Y5306540I6550J-7768D01*
G02X154040Y5257580I-18900J-23938D01*
G03X153790Y5241080I5804J-8340D01*
G37*
G36*
G01X1079860Y1182600D02*
G03X1066530Y1179650I-5039J-8822D01*
G02X1056340Y1225600I-25931J18354D01*
G03X1069670Y1228550I5039J8822D01*
G02X1079860Y1182600I25931J-18354D01*
G37*
G36*
G01X1144120Y1519110D02*
G02X1109810Y1514780I-13818J-28609D01*
G03X1107680Y1531690I-6551J7764D01*
G02X1141990Y1536020I13818J28609D01*
G03X1144120Y1519110I6551J-7764D01*
G37*
G36*
G01X1410530Y1479300D02*
G02X1354310Y1506800I-30528J8808D01*
G03X1350730Y1521820I-8213J5979D01*
G02X1396910Y1551980I14468J28282D01*
G03X1412560Y1544030I10145J592D01*
G02X1422590Y1486380I17211J-26703D01*
G03X1410530Y1479300I-2300J-9894D01*
G37*
G36*
G01X1313110Y1514190D02*
G02X1272690Y1508670I-16914J-26891D01*
G03X1270590Y1524110I-7513J6841D01*
G02X1311010Y1529630I16914J26891D01*
G03X1313110Y1514190I7513J-6841D01*
G37*
G36*
G01X1229930Y1510150D02*
G02X1194940Y1507940I-15825J-27549D01*
G03X1193870Y1524850I-6130J8101D01*
G02X1228860Y1527060I15825J27549D01*
G03X1229930Y1510150I6130J-8101D01*
G37*
G36*
G01X2335300Y3021030D02*
G03X2335900Y3034420I-7325J7037D01*
G02X2381700Y3032370I23800J19078D01*
G03X2381100Y3018980I7325J-7037D01*
G02X2335300Y3021030I-23800J-19078D01*
G37*
G36*
G01X3281630Y1520580D02*
G03X3268030Y1519800I-6368J-7914D01*
G02X3265420Y1564970I-21729J21405D01*
G03X3279020Y1565750I6368J7914D01*
G02X3281630Y1520580I21729J-21405D01*
G37*
G36*
G01X2906770Y739080D02*
X2906820Y739420D01*
Y882180D01*
X3138180D01*
Y806880D01*
X3138650Y805860D01*
G02Y780140I-27650J-12860D01*
G01X3138180Y779120D01*
Y689820D01*
X2906820D01*
Y730580D01*
X2906770Y730920D01*
G02Y739080I30230J4080D01*
G37*
G36*
G01X3470820Y1184820D02*
Y1187320D01*
G03X3453440Y1194470I-10162J-3D01*
G02X3402380Y1224030I-21650J21482D01*
G01X3402560Y1224690D01*
Y1229200D01*
X3366390Y1265370D01*
X3354680D01*
Y1241780D01*
X3341920D01*
Y1204480D01*
X3252360D01*
Y1241780D01*
X3239320D01*
Y1347220D01*
X3354680D01*
Y1323830D01*
X3390610D01*
X3453470Y1260970D01*
G03X3470820Y1268150I7189J7180D01*
G01Y1355180D01*
X3641180D01*
Y1184820D01*
X3470820D01*
G37*
G36*
G01X3263060Y3196260D02*
G02X3238360Y3157410I4538J-30162D01*
G03X3227120Y3164560I-9737J-2897D01*
G02X3213760Y3223920I-4547J30160D01*
G03X3220080Y3237820I-2942J9724D01*
G02X3217590Y3253960I27798J12551D01*
G03X3208550Y3265260I-10087J1196D01*
G02X3200090Y3323810I3144J30340D01*
G03X3206070Y3335720I-3861J9395D01*
G02X3247230Y3315070I29551J7557D01*
G03X3241250Y3303160I3861J-9395D01*
G02X3241990Y3292000I-29549J-7564D01*
G03X3251030Y3280700I10087J-1196D01*
G02X3256700Y3221160I-3145J-30339D01*
G03X3250380Y3207260I2942J-9724D01*
G02X3251820Y3203410I-27783J-12586D01*
G03X3263060Y3196260I9737J2897D01*
G37*
G54D87*
X414810Y1885700D03*
X411450Y2286000D03*
X411000Y2393000D03*
X408000Y2479000D03*
X431800Y4610100D03*
X371240Y4445760D03*
X944000Y4231000D03*
X3390900Y5372100D03*
X3739370Y4698000D03*
X3609760Y4968140D03*
X3857190Y4956600D03*
X1193800Y957580D03*
X1499760Y5321140D03*
X2158000Y2556510D03*
X1952720Y2730630D03*
X3210850Y2168250D03*
X2202800Y5787320D03*
G54D91*
X2567940Y1680620D03*
X2489200Y2062660D03*
G54D88*
X2291610Y4555310D03*
X2206000Y4634000D03*
X2287000Y4630000D03*
X2207570Y4550740D03*
X2128850Y4549500D03*
X2032500Y4435400D03*
X2351760Y3864420D03*
X2525000Y4629000D03*
X2368600Y4467400D03*
X2454500Y4549370D03*
X2533770Y4549960D03*
X2846500Y4146600D03*
X3022090Y4464370D03*
X3086680Y4551680D03*
X2926300Y4549200D03*
X3155300Y4459500D03*
X3163300Y4548200D03*
G54D89*
X732280Y1218180D03*
G54D90*
X3248000Y442700D03*
G54D86*
X254000Y3048000D03*
G54D85*
Y254000D03*
Y762000D03*
Y508000D03*
Y1016000D03*
Y1524000D03*
Y1270000D03*
Y1778000D03*
Y2286000D03*
Y2032000D03*
Y2540000D03*
Y2794000D03*
Y3302000D03*
Y3556000D03*
Y4318000D03*
Y4064000D03*
Y4572000D03*
X3810000Y5080000D03*
X3556000Y762000D03*
Y508000D03*
Y1016000D03*
X3810000Y762000D03*
Y508000D03*
Y1016000D03*
Y1524000D03*
Y1270000D03*
%LPD*%
G75*
G36*
G01X3128000Y872000D02*
Y700000D01*
X2917000D01*
Y872000D01*
X3128000D01*
G37*
G54D10*
X0Y254000D03*
Y762000D03*
Y508000D03*
Y1016000D03*
Y1524000D03*
Y1778000D03*
Y2286000D03*
Y2032000D03*
Y3048000D03*
Y2794000D03*
Y3302000D03*
Y3556000D03*
Y4318000D03*
Y4064000D03*
Y4572000D03*
Y4826000D03*
X254000Y254000D03*
Y762000D03*
Y508000D03*
Y1016000D03*
Y1524000D03*
Y1270000D03*
Y1778000D03*
Y2286000D03*
Y2032000D03*
Y2540000D03*
Y3048000D03*
Y2794000D03*
Y3302000D03*
Y3810000D03*
Y3556000D03*
Y4318000D03*
Y4064000D03*
Y4572000D03*
Y5080000D03*
Y4826000D03*
X3556000Y254000D03*
Y762000D03*
Y508000D03*
Y1016000D03*
Y1524000D03*
Y1778000D03*
Y2286000D03*
Y2032000D03*
Y3048000D03*
Y2794000D03*
Y3302000D03*
Y3556000D03*
Y4318000D03*
Y4064000D03*
Y4572000D03*
Y4826000D03*
X3810000Y254000D03*
Y762000D03*
Y508000D03*
Y1016000D03*
Y1524000D03*
Y1270000D03*
Y1778000D03*
Y2286000D03*
Y2032000D03*
Y2540000D03*
Y3048000D03*
Y2794000D03*
Y3302000D03*
Y3810000D03*
Y3556000D03*
Y4318000D03*
Y4064000D03*
Y4572000D03*
Y5080000D03*
Y4826000D03*
G54D20*
X719940Y2049780D03*
Y2349500D03*
X725930Y2870800D03*
X859940Y2049780D03*
Y2349500D03*
X865930Y2870800D03*
X1073300Y4152900D03*
X933300D03*
X2614780Y1536700D03*
X2697800Y3380700D03*
X2557800D03*
X2482700Y5194300D03*
X2622700D03*
X2906880Y1691640D03*
X3046880D03*
X2754780Y1536700D03*
X2978000Y3441700D03*
X3115160Y1457960D03*
X3255160D03*
X3118000Y3441700D03*
G54D11*
X-50500Y382100D03*
X-73660Y627380D03*
Y891540D03*
Y1397000D03*
Y1143000D03*
Y1648460D03*
Y2153920D03*
Y1907540D03*
Y2664460D03*
Y2410460D03*
Y2921000D03*
Y3429000D03*
Y3172460D03*
Y3677920D03*
Y3934460D03*
Y4193540D03*
X-69900Y5375100D03*
Y5250300D03*
X-70700Y5768700D03*
Y5649000D03*
X-69900Y5518700D03*
X129540Y452120D03*
X149860Y586740D03*
X53340Y627380D03*
X334000Y413200D03*
X55880Y891540D03*
X170180Y853440D03*
X58420Y1397000D03*
X55880Y1143000D03*
Y1645920D03*
Y2153920D03*
Y1905000D03*
Y2664460D03*
X53340Y2410460D03*
Y2921000D03*
Y3429000D03*
Y3175000D03*
X55880Y3677920D03*
X53340Y3931920D03*
X135600Y5345600D03*
X136600Y5282600D03*
X135600Y5216600D03*
X330800Y6092100D03*
X227900Y6091400D03*
X363500Y173900D03*
X655320Y175260D03*
X561340D03*
X462280D03*
X365760Y309880D03*
X434340Y264160D03*
X617220Y251460D03*
X448490Y332740D03*
X639080Y489300D03*
X570120Y511080D03*
X526860Y550720D03*
X512080Y652780D03*
X543560Y464820D03*
X466090D03*
X360680Y553720D03*
X617220Y383540D03*
X707900Y504600D03*
X648000Y567110D03*
X654700Y626000D03*
X605500Y1088790D03*
X665480Y1074570D03*
X605540Y1032430D03*
X606540Y978600D03*
X734060Y825500D03*
X678180Y822960D03*
X513080Y728980D03*
X711200Y1490980D03*
X607060Y1447800D03*
X627330Y1223010D03*
X414810Y1885700D03*
X642620Y1578100D03*
X650240Y1794760D03*
X414830Y2026670D03*
X652780Y2166620D03*
X414780Y2080010D03*
X378460Y2160270D03*
X411450Y2286000D03*
X416560Y2199640D03*
X411100Y1973450D03*
X644120Y2039620D03*
X411000Y2393000D03*
X670430Y2475880D03*
X417350Y2644930D03*
X645850Y2555240D03*
X643360Y2611120D03*
X643100Y2388800D03*
X408000Y2479000D03*
X645850Y3000630D03*
Y2809240D03*
X417350Y3041170D03*
Y2843050D03*
Y2698270D03*
X650900Y2715600D03*
X645850Y3160620D03*
X417350Y3094510D03*
X650240Y3386500D03*
X626900Y3458600D03*
X450400Y3504300D03*
X673000Y4143000D03*
X716760Y3913140D03*
X717760Y3872140D03*
X676760Y3913140D03*
X677760Y3872140D03*
X609600Y4165600D03*
X546100D03*
X622300Y4495800D03*
X558800D03*
X622300Y4559300D03*
X558800D03*
X431800Y4610100D03*
X371240Y4445760D03*
X723900Y4857800D03*
X673100D03*
Y4813000D03*
X723900D03*
X485760Y4971140D03*
X486580Y5026000D03*
X696000Y4954000D03*
X643000Y4945000D03*
X673100Y5156200D03*
X609600D03*
X495300Y5372100D03*
X508000Y5308600D03*
X410200Y5076200D03*
X381000Y5156200D03*
X600230Y5406870D03*
X660400Y5384800D03*
X517500Y6093700D03*
X424200D03*
X1040700Y236700D03*
X1033480Y315960D03*
X1084760Y168140D03*
X914400Y175260D03*
X812800D03*
X828040Y320040D03*
X891540Y632460D03*
X960120D03*
X1031240D03*
X1094740D03*
X989060Y490300D03*
X912860D03*
X834120D03*
X1036320Y452120D03*
X1033780Y383540D03*
X775700Y498500D03*
X807350Y629750D03*
X1137920Y821440D03*
X1046480Y822960D03*
X817880Y1499130D03*
X1040600Y1198000D03*
X764540Y1488440D03*
X1095600Y1210200D03*
X1130300Y1490500D03*
X1121000Y1727000D03*
X764540Y1739900D03*
X1121500Y1560300D03*
X843280Y2125980D03*
X1112520Y2555240D03*
X839000Y2538000D03*
X891630Y2673840D03*
X968170Y2676000D03*
X802510Y2677300D03*
X805000Y2612000D03*
X1042980Y2898220D03*
X976250Y2861450D03*
X1100900Y2823600D03*
X1043300Y2695100D03*
X980440Y3025140D03*
X899240Y3313040D03*
X914400Y3213100D03*
X939800Y3263900D03*
X1051100Y3274600D03*
X883000Y3262000D03*
X927100Y3619500D03*
X920750Y3872770D03*
X1060000Y4231000D03*
X944000D03*
X830000Y4202000D03*
X978200Y4482800D03*
X970000Y4379000D03*
X920000Y4354000D03*
X1068000Y4286000D03*
X955000Y4576000D03*
X951000Y4630000D03*
X936000Y4517000D03*
X938000Y4447000D03*
X838000Y4913000D03*
X840000Y4859000D03*
X946000Y4813000D03*
X972000Y4749000D03*
X1011000Y4933000D03*
X958000Y4691000D03*
X1130300Y5067300D03*
X977900D03*
X1028700D03*
X831000Y5157000D03*
X888000Y5285000D03*
X831000Y5259000D03*
X1117600Y5473700D03*
X997400Y5486790D03*
X956900Y5486400D03*
X1203900Y309600D03*
X1201700Y372600D03*
X1203960Y439420D03*
X1351280Y584200D03*
X1480820D03*
X1417320D03*
X1287780D03*
X1221740D03*
X1203960Y502920D03*
X1160780Y622300D03*
X1437640Y995680D03*
X1249680Y955040D03*
X1241830Y858520D03*
X1193800Y957580D03*
X1468800Y1172700D03*
X1527300Y1174300D03*
X1413670Y1182750D03*
X1483900Y1460100D03*
X1380000Y1488100D03*
X1214100Y1482600D03*
X1296200Y1487300D03*
X1451610Y1742490D03*
X1237000Y1772000D03*
X1277000Y1732000D03*
X1429770Y1517330D03*
X1209700Y1552400D03*
X1287500Y1551000D03*
X1365200Y1550100D03*
X1398270Y1742410D03*
X1159180Y2206490D03*
X1202540Y2152220D03*
X1275080Y2679700D03*
X1339100Y2843400D03*
X1200500Y2832700D03*
X1293330Y3332190D03*
X1346200Y3339260D03*
X1366670Y3278480D03*
X1410250Y3238500D03*
X1417370Y3182120D03*
X1409700Y3314700D03*
X1218870Y3611350D03*
X1257000Y3613000D03*
X1144000Y3810000D03*
X1193800Y3797300D03*
X1182000Y3938000D03*
X1393760Y3929140D03*
X1515760Y4093140D03*
X1312000Y3988000D03*
X1183000Y3993580D03*
X1148240Y4094640D03*
X1403000Y4088000D03*
X1367000Y4008000D03*
X1185000Y4160000D03*
X1532000Y3925000D03*
X1511000Y3978000D03*
X1425260Y3880000D03*
X1452260Y3938290D03*
X1471600Y4219780D03*
X1240000Y4174000D03*
X1278810Y4210960D03*
X1412000Y4161000D03*
X1466000Y4156000D03*
X1199760Y4211920D03*
X1313000Y4169000D03*
X1366000Y4190000D03*
X1143000Y4521200D03*
X1371600Y4517800D03*
X1244600Y4521200D03*
X1242300Y4389200D03*
X1371600Y4394200D03*
X1498600Y4521200D03*
X1500900Y4394200D03*
X1237300Y4648200D03*
X1371600D03*
X1505900D03*
X1473200Y5016500D03*
X1311600Y5025700D03*
X1224100Y4860300D03*
X1221900Y4760600D03*
X1308100Y4864100D03*
Y4762500D03*
X1143000D03*
Y4864100D03*
X1516600Y4860300D03*
X1422400Y4762500D03*
Y4864100D03*
X1516600Y4760300D03*
X1397000Y5270500D03*
X1320800D03*
X1181100Y5067300D03*
X1262000Y5314000D03*
X1499760Y5321140D03*
X1320800Y5321300D03*
X1154800Y5327600D03*
X1208800Y5331800D03*
X1381760Y5479140D03*
X1423760Y5478140D03*
X1270000Y5486400D03*
X1182290Y5500290D03*
X1855900Y282500D03*
X1897380Y175260D03*
X1854200Y490220D03*
X1676400Y584200D03*
X1737360D03*
X1854200Y558800D03*
X1546860Y584200D03*
X1610360D03*
X1800860D03*
X1854200Y416560D03*
Y342900D03*
X1741400Y724600D03*
X1577340Y916940D03*
X1576320Y861060D03*
X1902360Y899400D03*
X1573200Y1016000D03*
X1767180Y857880D03*
X1874600Y856170D03*
X1546860Y1456110D03*
X1768090Y1204340D03*
X1829130Y1473710D03*
X1874750Y1203120D03*
X1578860Y1562600D03*
X1536700Y1740790D03*
X1620710Y1843850D03*
X1766760Y1782140D03*
X1785000Y2031000D03*
X1729000Y1968000D03*
X1842000Y2033000D03*
X1923000Y1974000D03*
X1925000Y2030000D03*
X1630680Y3014980D03*
X1633000Y3075000D03*
X1875000Y3077000D03*
X1770300Y3312060D03*
X1629500Y3258820D03*
X1884680Y3220720D03*
X1719500Y3312800D03*
X1541760Y4123140D03*
X1546330Y4178570D03*
X1599000Y4187000D03*
X1700000Y4250000D03*
X1648590Y3942050D03*
X1683980Y3981960D03*
X1809500Y4003500D03*
X1759000Y3943000D03*
X1895270Y3980480D03*
X1905670Y3865500D03*
X1897000Y3924000D03*
X1786000Y4466000D03*
X1600200Y4521200D03*
X1680000Y4343000D03*
X1787000Y4561000D03*
X1765000Y4299000D03*
X1826000Y4405000D03*
X1839000Y4457000D03*
X1844760Y4802140D03*
X1838760Y4843140D03*
X1821000Y4747000D03*
X1612900Y4762500D03*
Y4864100D03*
X1774000Y4669000D03*
X1773000Y4723000D03*
X1917000Y4917000D03*
X1919000Y4679000D03*
X1824000Y4998000D03*
X1750000Y4843000D03*
X1786760Y4803140D03*
X1826000Y5346000D03*
X1689100Y5067300D03*
X1731000Y5067000D03*
X1819000Y5098000D03*
X1536700Y5067300D03*
X1583000Y5067000D03*
X1753000Y5263000D03*
X1842000Y5049000D03*
X1879600Y5499100D03*
X1785860Y5716160D03*
X1886680Y5779530D03*
X2003270Y322150D03*
X2057000Y188000D03*
X2107700Y190000D03*
X2006600D03*
X2189000Y160000D03*
X2291000Y698930D03*
X2202500Y365500D03*
X1968500Y406400D03*
X2236000Y655700D03*
X2155000Y641000D03*
X2199900Y696800D03*
X1993900Y647700D03*
X2217420Y1071880D03*
Y932180D03*
X1987760Y1009140D03*
X1957760Y988140D03*
X1958760Y1029140D03*
X2034700Y812100D03*
X1984000Y1085000D03*
X1949000Y1105000D03*
X2112010Y1458650D03*
X2217420Y1211580D03*
X1938150Y1188850D03*
X1976000Y1151100D03*
X2059940Y1478630D03*
X2006000Y1477800D03*
X2097560Y1811020D03*
X1981200Y1740790D03*
X2204720Y1810000D03*
X2151380Y1811020D03*
X2048800Y2264000D03*
X2098570Y2291120D03*
X1946020Y2096770D03*
X2152650Y2172970D03*
Y2012950D03*
X1998000Y2264000D03*
X2149800Y2385120D03*
X2158000Y2556510D03*
X2077000Y2348000D03*
X2174820Y2436180D03*
X1940600Y2400400D03*
X1983000Y2999000D03*
X1983790Y3065780D03*
X1952720Y2730630D03*
X2313000Y3240000D03*
X1978660Y3147060D03*
X2231000Y3227000D03*
X2184400Y3289300D03*
X2269700Y3861500D03*
X2287380Y4076150D03*
X2047100Y3986700D03*
X2291610Y3995320D03*
X2040900Y4060300D03*
X2213240Y4070400D03*
X2039240Y4154820D03*
X2115700Y3933600D03*
X2129080Y4067100D03*
X2225200Y3898400D03*
X2286530Y4150230D03*
X2281100Y3926000D03*
X2006900Y4111700D03*
X1959000Y3875900D03*
X2014790Y3862820D03*
X2203020Y4146730D03*
X2119540Y4149890D03*
X2068120Y3864190D03*
X2236000Y3980000D03*
X2135000Y3987000D03*
X2136470Y4437030D03*
X2291610Y4555310D03*
X2206000Y4634000D03*
X2287000Y4630000D03*
X2207570Y4550740D03*
X2128850Y4549500D03*
X2032500Y4435400D03*
X2205100Y4437500D03*
X2263900Y4412900D03*
X2047180Y4873670D03*
X2044700Y4838700D03*
X2156860Y5003000D03*
X2043000Y4699000D03*
X2049000Y4731000D03*
X1970000Y4924000D03*
X1975000Y4649000D03*
X2077260Y4930140D03*
X2070100Y5118100D03*
Y5168900D03*
X2195930Y5381620D03*
X2143000Y5375000D03*
X2163000Y5059000D03*
X2225000Y5271000D03*
X2235000Y5218000D03*
X1930000Y5393520D03*
X2180200Y5588200D03*
X2101000Y5750000D03*
X1932000Y5487000D03*
X2127000Y5659000D03*
X2202800Y5787320D03*
X2197100Y5638800D03*
X1936000Y5759000D03*
X2190270Y5477510D03*
X2248000Y5553000D03*
X2120050Y5436370D03*
X2065000Y5455000D03*
X2098000Y5808000D03*
X1952000Y5706000D03*
X1931000Y5654000D03*
X2011540Y5876350D03*
X1968500Y5969000D03*
X2067000Y5861000D03*
X2504300Y174300D03*
X2681400Y182100D03*
X2618700Y174700D03*
X2439800Y449700D03*
X2603400Y467600D03*
X2417000Y656000D03*
X2499000Y462600D03*
X2357120Y1071880D03*
X2496820D03*
X2357120Y932180D03*
X2496820D03*
X2641600Y736600D03*
X2555000Y848800D03*
X2359660Y1488440D03*
X2692400Y1369060D03*
X2633500Y1394230D03*
X2357120Y1211580D03*
X2500780Y1206960D03*
X2565400Y1884680D03*
X2567940Y1680620D03*
X2375410Y1809370D03*
X2509520Y1884680D03*
X2489200Y2062660D03*
X2439800Y2249900D03*
X2440200Y2188400D03*
X2438100Y2309300D03*
X2518410Y2595550D03*
X2440940Y2544600D03*
X2556900Y2787700D03*
X2572330Y3048790D03*
X2359700Y3053500D03*
X2357300Y2999900D03*
X2532400Y3317200D03*
X2513600Y3457900D03*
X2552700Y3172460D03*
X2570600Y3119000D03*
X2565400Y3721100D03*
X2369820Y4073520D03*
X2638200Y3977100D03*
X2596200Y4236900D03*
X2371600Y3995320D03*
X2448300Y4151200D03*
X2351760Y3864420D03*
X2439350Y3876230D03*
X2452700Y4070900D03*
X2619500Y4081300D03*
X2482200Y3927800D03*
X2611600Y4155310D03*
X2492630Y3873570D03*
X2647780Y4251290D03*
X2371600Y4155310D03*
Y4555310D03*
X2685630Y4554360D03*
X2525000Y4629000D03*
X2368600Y4467400D03*
X2454500Y4549370D03*
X2614900Y4469400D03*
X2533770Y4549960D03*
X2646800Y4304630D03*
X2527370Y4386620D03*
X2580630Y4383600D03*
X2439190Y4331490D03*
X2367000Y4635000D03*
X2644290Y4684490D03*
X2585260Y4904740D03*
X2559860Y4930140D03*
X2438000Y4718000D03*
X2425700Y4953000D03*
X2560000Y5319500D03*
X2540340Y5116340D03*
X2670000Y5141000D03*
X2654300Y5321300D03*
X2623000Y5484790D03*
X2582500Y5484400D03*
X2850680Y513290D03*
X2928620Y617220D03*
X2987040D03*
X3045460D03*
X2730140Y891870D03*
X2727960Y996650D03*
X2907630Y978620D03*
X2730600Y838530D03*
X2937000Y735000D03*
X3072000Y848000D03*
X2898140Y922020D03*
X2745740Y1259840D03*
X2908300Y1371600D03*
X2755900Y1369060D03*
X2821160Y1125780D03*
X2800830Y1720620D03*
X3025000Y1852000D03*
X3055000Y1613000D03*
X2921480Y1552420D03*
X2974340Y1836420D03*
X2805910Y1840000D03*
X2806700Y2115820D03*
X2978630Y2007390D03*
X2799080Y1927860D03*
X2920000Y2472100D03*
X2731900Y3466400D03*
X2736760Y3330140D03*
X2952000Y3302500D03*
X2788510Y3080610D03*
X3089160Y3828020D03*
X2978600Y3790000D03*
X3036800Y3853900D03*
X2799750Y3775960D03*
X2853020Y3778800D03*
X2720900Y3649200D03*
X2908300Y3556000D03*
X2946730Y3595370D03*
X3004160Y3935310D03*
X2766060Y4074160D03*
X2762700Y4147300D03*
X3012530Y3987990D03*
X2837900Y3959800D03*
X2846500Y4146600D03*
X3005540Y4066100D03*
X3007740Y4152620D03*
X3010220Y4225280D03*
X2851610Y4555310D03*
X2929280Y4632960D03*
X2767160Y4550600D03*
X2801100Y4324900D03*
X2846700Y4630420D03*
X3083030Y4635300D03*
X3022090Y4464370D03*
X3086680Y4551680D03*
X2926300Y4549200D03*
X2904500Y4390400D03*
X2815850Y4455090D03*
X2766320Y4634620D03*
X2766420Y4475150D03*
X2902140Y4450240D03*
X2830070Y4902000D03*
X2773000Y5031000D03*
X2896000Y4882000D03*
X2897000Y4969000D03*
X2765760Y4892140D03*
X2767330Y4851400D03*
X3007000Y5066000D03*
X2966000D03*
X2730000Y5215000D03*
X2732500Y5342000D03*
X2786000Y5219000D03*
X2787000Y5174000D03*
X2941000Y5339000D03*
X2833000Y5345000D03*
X2780900Y5272900D03*
X2887000Y5339000D03*
X3015760Y5477140D03*
X3057760Y5476140D03*
X2907890Y5486810D03*
X2844800Y5486400D03*
X2757910Y5484960D03*
X3106000Y736000D03*
X3111000Y793000D03*
X3421840Y1457900D03*
X3431790Y1215950D03*
X3239000Y1845000D03*
X3194530Y1844830D03*
X3246300Y1541200D03*
X3300750Y1544350D03*
X3304560Y2109460D03*
X3210850Y2168250D03*
X3415000Y2223000D03*
X3403600Y2159000D03*
X3249500Y2634970D03*
X3262810Y2394860D03*
X3258630Y2501470D03*
X3255830Y2554740D03*
X3260340Y2448150D03*
X3237590Y3034040D03*
X3240890Y2980800D03*
X3249170Y2688310D03*
X3249200Y2741850D03*
X3245740Y2873910D03*
X3242720Y2927490D03*
X3247590Y2795170D03*
X3228000Y3418900D03*
X3247880Y3250360D03*
X3235620Y3343280D03*
X3211700Y3295600D03*
X3222580Y3194720D03*
X3267600Y3166100D03*
X3280000Y3840000D03*
X3175220Y3802790D03*
X3282200Y3757300D03*
X3140600Y3594900D03*
X3154080Y3654730D03*
X3293430Y3978360D03*
X3125960Y3980560D03*
X3208500Y3987000D03*
X3168000Y4149700D03*
X3249400Y4156000D03*
X3247120Y3950200D03*
X3299460Y4242650D03*
X3165200Y4071400D03*
X3248960Y4078200D03*
X3320140Y4152670D03*
X3184470Y3863560D03*
X3384000Y4555000D03*
X3251610Y4635300D03*
X3171600D03*
X3334000Y4532000D03*
X3325540Y4470540D03*
X3155300Y4459500D03*
X3163300Y4548200D03*
X3316000Y4617000D03*
X3264900Y4400910D03*
X3478000Y4701000D03*
X3470000Y4960000D03*
X3434760Y5009140D03*
X3130000Y5340000D03*
X3390900Y5372100D03*
X3454400Y5283200D03*
X3691900Y174400D03*
X3877800Y381200D03*
X3737400D03*
X3883660Y635000D03*
X3650600Y583600D03*
X3811800Y634000D03*
X3881630Y896620D03*
X3756660Y889000D03*
X3882010Y1399540D03*
X3759200Y1394460D03*
X3882010Y1145540D03*
X3761740Y1143000D03*
X3656000Y1633000D03*
X3882010Y1651000D03*
X3759200Y1648460D03*
X3610030Y2193850D03*
X3627120Y1938020D03*
X3883660Y2161540D03*
X3759200Y2159000D03*
X3883660Y1905000D03*
X3756660D03*
X3505200Y2171700D03*
X3883660Y2677160D03*
X3761740Y2674620D03*
X3883660Y2420620D03*
X3754120Y2418080D03*
X3622960Y3404810D03*
X3501310Y3394000D03*
X3857000Y4180000D03*
X3861840Y4418350D03*
X3870950Y4472950D03*
X3571900Y4717500D03*
X3721470Y4963530D03*
X3659000Y4699000D03*
X3712110Y4898490D03*
X3739370Y4698000D03*
X3609760Y4968140D03*
X3857190Y4956600D03*
X3871200Y5578500D03*
Y5671800D03*
X3869600Y5765200D03*
X3868900Y6084000D03*
X3869600Y5981100D03*
X3868900Y5868100D03*
X3794100Y6081000D03*
X3700800D03*
X3607400Y6079400D03*
X3504500Y6078700D03*
G54D12*
X0Y1270000D03*
Y2540000D03*
Y3810000D03*
Y5080000D03*
X3556000Y1270000D03*
Y2540000D03*
Y3810000D03*
Y5080000D03*
G54D30*
X459600Y5236200D03*
Y5196200D03*
Y5156200D03*
Y5116200D03*
Y5076200D03*
X759600D03*
Y5116200D03*
Y5156200D03*
Y5196200D03*
Y5236200D03*
X1869300Y5261600D03*
Y5221600D03*
Y5181600D03*
Y5141600D03*
Y5101600D03*
X1913500Y5533400D03*
Y5573400D03*
Y5613400D03*
X2169300Y5101600D03*
Y5141600D03*
Y5181600D03*
Y5221600D03*
Y5261600D03*
X2093500Y5533400D03*
Y5573400D03*
Y5613400D03*
G54D21*
X520700Y2041200D03*
Y1981200D03*
X1110460Y492280D03*
Y432280D03*
X1092200Y3217700D03*
Y3157700D03*
X800100Y4894100D03*
Y4834100D03*
X1397000Y5122700D03*
Y5062700D03*
Y5237000D03*
Y5177000D03*
X1320800Y5122700D03*
Y5062700D03*
Y5237000D03*
Y5177000D03*
X1905000Y4119400D03*
Y4059400D03*
X1825000Y5575000D03*
Y5635000D03*
X1925320Y804700D03*
Y744700D03*
X1922780Y1302540D03*
Y1242540D03*
X1920240Y1675920D03*
Y1615920D03*
X2222500Y4935700D03*
Y4995700D03*
X2532380Y2278860D03*
Y2338860D03*
X2578100Y2989100D03*
Y2929100D03*
X2654300Y4135600D03*
Y4195600D03*
X2374900Y4935700D03*
Y4995700D03*
X2298700Y4935700D03*
Y4995700D03*
X2768600Y2531900D03*
Y2471900D03*
X2819400Y2531900D03*
Y2471900D03*
X2870200Y2531900D03*
Y2471900D03*
X2717800Y4079720D03*
Y4139720D03*
X2882400Y4331100D03*
Y4271100D03*
X2932800Y4331420D03*
Y4271420D03*
X3330000Y3790000D03*
X3240000D03*
X3330000Y3850000D03*
X3240000D03*
X3348000Y4021000D03*
Y4081000D03*
X3176640Y4261420D03*
Y4321420D03*
X3237600D03*
Y4261420D03*
X3100000Y4260000D03*
Y4320000D03*
G54D31*
X609600Y5156200D03*
X2019300Y5181600D03*
G54D13*
X254810Y5753610D03*
G54D22*
X706600Y2151380D03*
X714220Y2545080D03*
X1110460Y553720D03*
X766600Y2151380D03*
X774220Y2545080D03*
X1020600Y3327400D03*
X960600D03*
Y3162300D03*
X1020600D03*
X960600Y3378200D03*
X1020600D03*
Y3213100D03*
X960600D03*
X1170460Y553720D03*
X1848640Y205740D03*
X1788640D03*
X1858800Y622300D03*
X1798800D03*
Y685800D03*
X1858800D03*
X1887700Y5905500D03*
X2100100Y1859280D03*
X2040100D03*
X2179800D03*
X2239800D03*
X2100100Y1739900D03*
X2040100D03*
X1947700Y5905500D03*
X2678700Y218800D03*
X2618700D03*
X2565400Y218500D03*
X2505400D03*
X2684300Y3479800D03*
X2624300D03*
Y3530600D03*
X2684300D03*
X2635500Y3872000D03*
X2637000Y4025900D03*
X2430300Y3949700D03*
X2370300D03*
X2344900Y4114800D03*
X2404900D03*
X2649700Y4635500D03*
X2849400Y914400D03*
X2789400D03*
X2849400Y977900D03*
X2789400D03*
X2695500Y3872000D03*
X2888000Y4014000D03*
X2948000D03*
X3051020Y4071620D03*
X2697000Y4025900D03*
X2773200Y4203700D03*
X2713200D03*
X2907820Y4074160D03*
X2847820D03*
X2709700Y4635500D03*
X3357400Y2159000D03*
X3297400D03*
X3357400Y2222500D03*
X3297400D03*
X3357400Y2311400D03*
X3297400D03*
X3267820Y4029820D03*
X3207820D03*
X3111020Y4071620D03*
G54D40*
X812800Y4584700D03*
G54D32*
X791770Y5528020D03*
X1595830Y5527970D03*
X2417370Y5528020D03*
X3221430Y5527970D03*
G54D41*
X1111600Y4287800D03*
Y4957800D03*
X1151600Y4287800D03*
X1191600D03*
X1231600D03*
X1271600D03*
X1311600D03*
X1351600D03*
X1391600D03*
X1431600D03*
X1471600D03*
X1511600D03*
Y4957800D03*
X1471600D03*
X1431600D03*
X1391600D03*
X1351600D03*
X1311600D03*
X1271600D03*
X1231600D03*
X1191600D03*
X1151600D03*
X1551600Y4287800D03*
X1591600D03*
X1631600D03*
X1551600Y4957800D03*
X1631600D03*
X1591600D03*
G54D23*
X724690Y2235200D03*
Y2463800D03*
X581660Y2463010D03*
Y2362990D03*
X559550Y2646090D03*
X730550Y2644890D03*
X565450Y3015190D03*
X563250Y2929310D03*
Y2829290D03*
X559550Y2746110D03*
X730550Y2744910D03*
X732310Y2981960D03*
X565450Y3115210D03*
X651450Y3323510D03*
Y3223490D03*
X732790Y3407550D03*
X733120Y3323620D03*
X732310Y3098800D03*
Y3208020D03*
X824710Y2235200D03*
Y2463800D03*
X832330Y2981960D03*
X832810Y3407550D03*
X833140Y3323620D03*
X832330Y3098800D03*
Y3208020D03*
X913640Y4965700D03*
X813560D03*
X901700Y5155440D03*
Y5055360D03*
X1427480Y2248690D03*
X1524000D03*
X1278380Y2103120D03*
X1378460D03*
X1427480Y2348710D03*
X1524000D03*
X1806700Y1028700D03*
X1906780D03*
X1909320Y1384300D03*
X1809240D03*
Y1536700D03*
X1909320D03*
X1620520Y2248690D03*
X1717040D03*
X1620520Y2348710D03*
X1717040D03*
X2056640Y266700D03*
X1956560D03*
X2009140Y1555240D03*
Y1655320D03*
X2105660Y1555240D03*
Y1655320D03*
X1981200Y3937790D03*
Y4037810D03*
X2521000Y4114010D03*
Y4013990D03*
X2901440Y1457960D03*
X3001520D03*
X2738120Y2228370D03*
X2834640D03*
X2738120Y2328390D03*
X2834640D03*
X2889270Y2923540D03*
X2789250D03*
X2895340Y2833500D03*
X2795260D03*
X2881600Y3369190D03*
Y3469210D03*
X2795300Y3370490D03*
Y3470510D03*
X2857700Y3231140D03*
Y3131060D03*
G54D14*
X526520Y340360D03*
X3316500Y1943100D03*
G54D50*
X1486020Y3166980D03*
Y3216980D03*
Y3266980D03*
Y3316980D03*
Y3366980D03*
Y3416980D03*
Y3466980D03*
X1536020Y2866980D03*
Y2916980D03*
Y2966980D03*
Y3016980D03*
X1586020Y2866980D03*
Y2916980D03*
Y2966980D03*
Y3016980D03*
X1636020Y2866980D03*
Y2916980D03*
X1686020Y2816980D03*
X1736020D03*
X1686020Y2866980D03*
Y2916980D03*
Y3016980D03*
X1736020Y2866980D03*
Y2916980D03*
Y3016980D03*
X1786020Y2816980D03*
Y2866980D03*
Y2916980D03*
Y3016980D03*
X1836020Y2816980D03*
Y2866980D03*
Y2916980D03*
Y3016980D03*
X1886020Y2816980D03*
Y2866980D03*
Y2916980D03*
Y3016980D03*
X1636020Y2966980D03*
X1536020Y3066980D03*
Y3116980D03*
Y3166980D03*
Y3216980D03*
Y3266980D03*
Y3316980D03*
Y3366980D03*
Y3416980D03*
X1586020Y3066980D03*
Y3116980D03*
Y3166980D03*
Y3216980D03*
Y3266980D03*
Y3316980D03*
Y3366980D03*
Y3416980D03*
X1636020Y3366980D03*
Y3416980D03*
X1686020Y3066980D03*
Y3116980D03*
Y3166980D03*
Y3216980D03*
Y3266980D03*
Y3366980D03*
Y3416980D03*
X1736020Y3266980D03*
Y3366980D03*
Y3416980D03*
X1786020Y3266980D03*
Y3366980D03*
Y3416980D03*
X1836020Y3266980D03*
Y3366980D03*
Y3416980D03*
X1886020Y3266980D03*
Y3366980D03*
Y3416980D03*
X1536020Y3466980D03*
X1586020D03*
X1636020D03*
X1686020D03*
X1736020D03*
X1786020D03*
X1836020D03*
X1886020D03*
X1936020Y2816980D03*
Y2866980D03*
Y2916980D03*
Y3016980D03*
X1986020Y2816980D03*
Y2866980D03*
Y2916980D03*
X2036020Y2816980D03*
Y2866980D03*
Y2916980D03*
Y2966980D03*
Y3016980D03*
X2086020Y2816980D03*
Y2866980D03*
Y2916980D03*
Y2966980D03*
Y3016980D03*
X2136020Y2916980D03*
Y2966980D03*
Y3016980D03*
X1936020Y3066980D03*
Y3116980D03*
Y3166980D03*
Y3216980D03*
Y3266980D03*
Y3366980D03*
Y3416980D03*
X1986020Y3366980D03*
Y3416980D03*
X2036020Y3066980D03*
Y3116980D03*
Y3166980D03*
Y3216980D03*
Y3266980D03*
Y3316980D03*
Y3366980D03*
Y3416980D03*
X2086020Y3066980D03*
Y3116980D03*
Y3166980D03*
Y3216980D03*
Y3266980D03*
Y3316980D03*
Y3366980D03*
Y3416980D03*
X2136020Y3066980D03*
Y3116980D03*
Y3166980D03*
Y3216980D03*
Y3266980D03*
Y3316980D03*
Y3366980D03*
Y3416980D03*
X1936020Y3466980D03*
X1986020D03*
X2036020D03*
X2086020D03*
X2136020D03*
G54D24*
X785110Y3683000D03*
X484890D03*
G54D60*
X2137130Y771880D03*
X2177110D03*
X2217120D03*
X2257120D03*
Y1371880D03*
X2217120D03*
X2177110D03*
X2137130D03*
X2297130Y771880D03*
X2337130D03*
X2377110D03*
X2417110D03*
X2457120D03*
X2497120D03*
X2537130D03*
X2577110D03*
Y1371880D03*
X2537130D03*
X2497120D03*
X2457120D03*
X2417110D03*
X2377110D03*
X2337130D03*
X2297130D03*
G54D51*
X1516600Y4810300D03*
G54D33*
X608810Y5965490D03*
X1778790D03*
X2234410D03*
X3404390D03*
G54D42*
X1036600Y4602800D03*
Y4562800D03*
Y4522800D03*
Y4482800D03*
Y4442800D03*
Y4402800D03*
Y4362800D03*
Y4882800D03*
Y4842800D03*
Y4802800D03*
Y4762800D03*
Y4722800D03*
Y4682800D03*
Y4642800D03*
X1706600Y4362800D03*
Y4402800D03*
Y4442800D03*
Y4482800D03*
Y4522800D03*
Y4562800D03*
Y4602800D03*
Y4642800D03*
Y4682800D03*
Y4722800D03*
Y4762800D03*
Y4802800D03*
Y4842800D03*
Y4882800D03*
G54D15*
X688290Y607090D03*
G54D16*
Y567110D03*
X778310Y607090D03*
Y567110D03*
G54D52*
X1656080Y256540D03*
G54D70*
X3235600Y3511400D03*
X3275600D03*
X3315600D03*
Y3680400D03*
X3275600D03*
X3235600D03*
G54D43*
X1371600Y4517800D03*
G54D25*
X609600Y4015600D03*
Y4315600D03*
G54D34*
X936520Y340360D03*
X2906500Y1943100D03*
G54D61*
X2043940Y2012950D03*
X2263900D03*
Y2172970D03*
X2043940D03*
G54D80*
G01X1672080Y1758190D02*
X1627740D01*
X1546550Y1677000D01*
X826960D01*
X825270Y1678690D01*
X659130Y1512550D01*
Y1426210D01*
X627330Y1394410D01*
Y1223010D01*
G01X512320Y1578100D02*
X642620D01*
G01X642110Y1887980D02*
Y1802890D01*
X650240Y1794760D01*
G01X719940Y2349500D02*
X724690Y2344750D01*
Y2235200D01*
G01D02*
X691310Y2201820D01*
X686130D01*
X652780Y2168470D01*
Y2166620D01*
G01X719940Y2049780D02*
X709780Y2039620D01*
X644120D01*
G01X724690Y2463800D02*
X719610Y2468880D01*
X677430D01*
X670430Y2475880D01*
G01X581660Y2463010D02*
X587530Y2468880D01*
X662430D01*
X669430Y2475880D01*
X670430D01*
G01X417350Y2644930D02*
X559550Y2646090D01*
G01X417350Y2644930D02*
Y2698270D01*
G01X645850Y3000630D02*
Y3160620D01*
G01X619410Y2929310D02*
X624150D01*
X645850Y2907610D01*
Y2809240D01*
G01X619410Y2929310D02*
X563250D01*
G01X645850Y3000630D02*
X643900Y2998680D01*
Y2953800D01*
X619410Y2929310D01*
G01X417350Y3041170D02*
Y3094510D01*
G01X565450Y3115210D02*
X610860Y3160620D01*
X645850D01*
G01X626900Y3458600D02*
X599370Y3431070D01*
X555000D01*
G01X626900Y3458600D02*
X682590D01*
X697130Y3473140D01*
X811760D01*
X832760Y3452140D01*
G01X555000Y3431070D02*
Y3269280D01*
X600790Y3223490D01*
X651450D01*
G01X822200Y1887980D02*
Y1797560D01*
X764540Y1739900D01*
G01X859940Y2049780D02*
Y2109320D01*
X843280Y2125980D01*
G01X824710Y2235200D02*
Y2208300D01*
X843280Y2189730D01*
Y2125980D01*
G01X824710Y2235200D02*
Y2285090D01*
X859940Y2320320D01*
Y2349500D01*
G01X824710Y2463800D02*
X845820Y2484910D01*
Y2531180D01*
X839000Y2538000D01*
G01X832330Y3098800D02*
Y2981960D01*
G01X865930Y2870800D02*
Y2910630D01*
X980440Y3025140D01*
G01X832330Y3208020D02*
Y3322810D01*
X833140Y3323620D01*
G01X832330Y3098800D02*
Y3208020D01*
G01X832810Y3407550D02*
Y3323950D01*
X833140Y3323620D01*
G01X832760Y3452140D02*
Y3407600D01*
X832810Y3407550D01*
G01X1203900Y309600D02*
X1206160Y307340D01*
G01D02*
X1351280D01*
G01X1585340Y2768600D02*
Y2768240D01*
X1496800Y2679700D01*
X1275080D01*
G01X1312000Y3988000D02*
X1301750D01*
X1263650Y4026100D01*
Y4038600D01*
G01X1806700Y1028700D02*
Y943100D01*
X1823720Y926080D01*
G01X1830000Y1469640D02*
Y1469620D01*
X1809240Y1448860D01*
Y1384300D01*
G01X1822160Y1472450D02*
X1819650D01*
Y1476090D01*
X1809240Y1486500D01*
Y1536700D01*
G01X1829130Y1473710D02*
X1830000Y1472840D01*
Y1469640D01*
G01X1822160Y1472450D02*
Y1469070D01*
X1819640Y1466550D01*
X1819210D01*
G01X1830000Y1469640D02*
X1827190Y1472450D01*
X1822160D01*
G01X1828800Y1669800D02*
X1811900Y1652900D01*
Y1539360D01*
X1809240Y1536700D01*
G01D02*
X1783080D01*
X1741680Y1578100D01*
X1672080D01*
G01X1758440Y1773820D02*
X1742810Y1758190D01*
X1672080D01*
G01X1766760Y1782140D02*
X1758440Y1773820D01*
G01X1956560Y266700D02*
X1953740Y269520D01*
Y391640D01*
X1968500Y406400D01*
G01X2202500Y426300D02*
Y365500D01*
G01Y566400D02*
X2236000Y599900D01*
Y655700D01*
G01X1983760Y894140D02*
X1983640Y894020D01*
Y849140D01*
G01X1949000Y1105000D02*
X1969000Y1085000D01*
X1984000D01*
G01X2218690Y1583440D02*
X2213370Y1578120D01*
Y1537630D01*
X2252000Y1499000D01*
Y1500000D01*
X2251000Y1501000D01*
Y1502000D01*
X2252000Y1503000D01*
G01X2009140Y1655320D02*
X2105660D01*
G01X1982090Y1739900D02*
X1981200Y1740790D01*
G01X2218690Y1723640D02*
X2204720Y1737610D01*
Y1810000D01*
G01X1982090Y1739900D02*
X2009140Y1712850D01*
Y1655320D01*
G01X2043940Y2172970D02*
X2152650D01*
G01X2263900Y2012950D02*
X2152650D01*
G01X2047100Y3986700D02*
Y3975900D01*
X2008990Y3937790D01*
X1981200D01*
G01X2603500Y365250D02*
Y448200D01*
X2603400Y467600D01*
G01X2374900Y565400D02*
X2425300D01*
G01D02*
X2499000Y491700D01*
Y462600D01*
G01X2350770Y1583540D02*
X2359660Y1574650D01*
Y1488440D01*
G01X2739390Y1314450D02*
X2802150D01*
X2834640Y1346940D01*
Y1619500D01*
X2906780Y1691640D01*
X2906880D01*
G01X2350770Y1723640D02*
Y1784730D01*
X2375410Y1809370D01*
G01X2697800Y3380700D02*
X2736760Y3341740D01*
Y3330140D01*
G01X2730090Y1082270D02*
X2786150D01*
X2786380Y1082040D01*
G01X2754880Y1536700D02*
Y1370080D01*
X2755900Y1369060D01*
G01X2906880Y1691640D02*
Y1736480D01*
X2805910Y1837450D01*
Y1840000D01*
G01X2870200Y2471900D02*
X2919800D01*
X2920000Y2472100D01*
G01X3297400Y2311400D02*
X3262450D01*
X3248660Y2325190D01*
G01X2881600Y3369190D02*
X2908540D01*
X2978000Y3438650D01*
Y3441700D01*
G01X2795300Y3370490D02*
X2785090Y3380700D01*
X2697800D01*
G01X2881600Y3369190D02*
X2880300Y3370490D01*
X2795300D01*
G01D02*
X2777110D01*
X2736760Y3330140D01*
G01X3255260Y1457960D02*
X3361740D01*
X3361800Y1457900D01*
X3421840D01*
G01X3297000Y1294500D02*
X3297100Y1294600D01*
X3378500D01*
X3431790Y1241310D01*
Y1215950D01*
G54D53*
X1823720Y785880D03*
Y926080D03*
X1821180Y1274060D03*
Y1133860D03*
X1828800Y1809900D03*
Y1669900D03*
X1831340Y2203300D03*
Y2343300D03*
X1930400Y4209900D03*
Y4349900D03*
X1896000Y4463900D03*
Y4604100D03*
X2202500Y566300D03*
Y426300D03*
X2218690Y1583540D03*
Y1723540D03*
X2095500Y6077100D03*
Y5937100D03*
X2374900Y565300D03*
Y425300D03*
X2350770Y1583540D03*
Y1723540D03*
X2623820Y2208380D03*
Y2348380D03*
X2667000Y3765700D03*
Y3625700D03*
X3297000Y1294500D03*
Y1154500D03*
G54D35*
X733300Y632110D03*
Y542090D03*
G54D71*
X3850010Y5400000D03*
G54D44*
X1224100Y4810300D03*
G54D26*
X737800Y4440200D03*
Y4729200D03*
X887800Y4440200D03*
X837800D03*
X787800D03*
Y4729200D03*
X837800D03*
X887800D03*
G54D17*
X642110Y728220D03*
X732280D03*
Y1887980D03*
X642110D03*
X822200Y728220D03*
X912110D03*
X1002280D03*
X1092200D03*
Y1887980D03*
X1002280D03*
X912110D03*
X822200D03*
X1182120Y728220D03*
X1272290D03*
X1362200D03*
X1452120D03*
Y1887980D03*
X1362200D03*
X1272290D03*
X1182120D03*
X1542290Y728220D03*
Y1887980D03*
G54D62*
X2237200Y4268000D03*
X2110200D03*
Y4808000D03*
X2237200D03*
X2491200Y4268000D03*
X2364200D03*
Y4808000D03*
X2491200D03*
G54D81*
G01X565450Y3015190D02*
X443330D01*
X417350Y3041170D01*
G01X563250Y2829290D02*
X431110D01*
X417350Y2843050D01*
G01X732310Y2981960D02*
Y3098800D01*
G01Y3208020D02*
Y3098800D01*
G01X733120Y3323620D02*
Y3208830D01*
X732310Y3208020D01*
G01X651450Y3323510D02*
X650250Y3370570D01*
Y3386490D01*
X650240Y3386500D01*
G01X732790Y3407550D02*
X708780D01*
X705220Y3403990D01*
X667730D01*
X650240Y3386500D01*
G01X732790Y3407550D02*
X733120Y3407220D01*
Y3323620D01*
G01X1362200Y728220D02*
Y804420D01*
X1341120Y825500D01*
G01X1788640Y205740D02*
X1706880D01*
X1656080Y256540D01*
G01X2006600Y190000D02*
X2107700D01*
G01D02*
X2184400Y266700D01*
G01D02*
X2214880D01*
G01X2667000Y3625700D02*
X2411200D01*
X2310130Y3524630D01*
G01X2374900Y425200D02*
X2415300D01*
X2439800Y449700D01*
G01X2738120Y2328390D02*
X2735410Y2331100D01*
X2716690D01*
X2699310Y2348480D01*
X2623820D01*
G01X2988800Y2394600D02*
X2882260D01*
X2880400Y2396460D01*
X2741140D01*
X2654900Y2482700D01*
Y2544600D01*
G01X2310130Y3524630D02*
Y3371850D01*
G01X2720900Y3649200D02*
X2697400Y3625700D01*
X2667000D01*
G01X2738120Y2328390D02*
X2834640D01*
G01X3248660Y2325190D02*
X3179250Y2394600D01*
X2988800D01*
G01X2895340Y2833500D02*
X2954150Y2774690D01*
Y2610000D01*
G01D02*
X2988800Y2575350D01*
Y2394600D01*
G54D45*
X907290Y5398000D03*
X957300D03*
X1007290D03*
X1057300D03*
X1107290D03*
X1157300D03*
X1207290D03*
X1257300D03*
X1307310D03*
X1357300D03*
X1407310D03*
X1457300D03*
X2532890D03*
X2582900D03*
X2632890D03*
X2682900D03*
X2732890D03*
X2782900D03*
X2832890D03*
X2882900D03*
X2932910D03*
X2982900D03*
X3032910D03*
X3082900D03*
G54D27*
X546100Y4659880D03*
Y4839720D03*
X2349500Y5091680D03*
Y5271520D03*
X2667000Y4837680D03*
Y5017520D03*
G54D72*
X3549990Y5400000D03*
G54D54*
X1536020Y2816980D03*
X1586020D03*
X1636020D03*
G54D36*
X1116000Y2284480D03*
X951000D03*
X1116000Y2400480D03*
X951000D03*
X1348000Y2284300D03*
X1183000D03*
X1348000Y2400300D03*
X1183000D03*
G54D63*
X1983500Y5508400D03*
G54D18*
X512320Y1038100D03*
Y948180D03*
Y858010D03*
Y1488190D03*
Y1398020D03*
Y1308100D03*
Y1218180D03*
Y1128010D03*
Y1758190D03*
Y1668020D03*
Y1578100D03*
X1672080Y858010D03*
Y948180D03*
Y1038100D03*
Y1128010D03*
Y1218180D03*
Y1308100D03*
Y1398020D03*
Y1488190D03*
Y1578100D03*
Y1668020D03*
Y1758190D03*
G54D82*
G01X1874750Y1203120D02*
Y1227150D01*
X1827840Y1274060D01*
X1821180D01*
G01X2649700Y4635500D02*
Y4614100D01*
X2637370Y4601770D01*
Y4534360D01*
X2730500Y4441230D01*
Y4325120D01*
X2784520Y4271100D01*
X2882400D01*
G01X2644290Y4684490D02*
X2649700Y4679080D01*
Y4635500D01*
G01X3100000Y4260000D02*
Y4202620D01*
X3050000Y4152620D01*
X3007740D01*
G01X2932800Y4271420D02*
X2882720D01*
X2882400Y4271100D01*
G01X3111020Y4071620D02*
Y3995500D01*
X3125960Y3980560D01*
G01X3237600Y4261420D02*
X3176640D01*
G01D02*
X3100000Y4260000D01*
G54D73*
G01X707900Y504600D02*
X733300Y530000D01*
Y542090D01*
G01Y645410D02*
Y632110D01*
G01X520700Y2041200D02*
Y2041190D01*
X642540D01*
X644120Y2039620D01*
G01X706600Y2151380D02*
Y2128480D01*
X719940Y2115140D01*
Y2049780D01*
G01X778310Y567110D02*
X819730D01*
G01X1110460Y492280D02*
G02X1110760Y512140I657516J0D01*
G01X766600Y2151380D02*
X817880D01*
X843280Y2125980D01*
G01X774220Y2545080D02*
X831920D01*
X839000Y2538000D01*
G01X837800Y4729200D02*
Y4796400D01*
X800100Y4834100D01*
G01D02*
X815100D01*
X840000Y4859000D01*
G01X1103300Y4722800D02*
X1143000Y4762500D01*
G01X1036600Y4722800D02*
X1103300D01*
G01X1471600Y4957800D02*
Y5014900D01*
X1473200Y5016500D01*
G01X1311600Y4957800D02*
Y5025700D01*
G01X1397000Y5237000D02*
Y5270500D01*
G01X1320800Y5237000D02*
Y5270500D01*
G01X1397000Y5062700D02*
X1320800D01*
G01D02*
X1311600Y5053500D01*
Y5025700D01*
G01X1920240Y1675920D02*
Y1712240D01*
X1902460Y1730020D01*
Y1750440D01*
X1843000Y1809900D01*
X1828800D01*
G01X1706600Y4722800D02*
X1652600D01*
X1612900Y4762500D01*
G01X1825000Y5635000D02*
Y5677020D01*
X1785860Y5716160D01*
G01X2297130Y771880D02*
Y705060D01*
X2291000Y698930D01*
G01X2257120Y771880D02*
Y726120D01*
X2247820Y716820D01*
Y667520D01*
G01D02*
X2236000Y655700D01*
G01X2199900Y696800D02*
X2209800Y712500D01*
G01X2177110Y711190D02*
X2191500Y696800D01*
X2199900D01*
G01X2057120Y931880D02*
X2006190D01*
X1983760Y909450D01*
Y894140D01*
G01D02*
X1998820D01*
X2001090Y891870D01*
X2057120D01*
G01X2177110Y771880D02*
Y711190D01*
G01X2209800Y712500D02*
Y726740D01*
X2217120Y734060D01*
Y771880D01*
G01X1987760Y1009140D02*
Y1013090D01*
X1971490Y1029360D01*
X1958980D01*
X1958760Y1029140D01*
G01X2057120Y971880D02*
X1976550D01*
G01X2057120Y1011890D02*
X1990510D01*
G01X1976550Y971880D02*
X1960290Y988140D01*
X1957760D01*
G01X1990510Y1011890D02*
X1987760Y1009140D01*
G01X2217120Y1371880D02*
Y1211880D01*
G01D02*
X2217420Y1211580D01*
G01X2057120Y1211880D02*
X2024080D01*
X1993900Y1242060D01*
G01X2057120Y1251890D02*
X2003730D01*
X1993900Y1242060D01*
G01X1909320Y1536700D02*
Y1476570D01*
X1963420Y1422470D01*
Y1314250D01*
X1989660Y1288010D01*
Y1246300D01*
X1993900Y1242060D01*
G01X2257120Y1451150D02*
Y1371880D01*
G01X1922780Y1302540D02*
X1928430D01*
X1956640Y1274330D01*
Y1232610D01*
X2010380Y1178860D01*
X2011380D01*
X2018360Y1171880D01*
X2057120D01*
G01X1909320Y1384300D02*
Y1316000D01*
X1922780Y1302540D01*
G01X2040100Y1859280D02*
X2002790D01*
X1968500Y1824990D01*
Y1753490D01*
X1981200Y1740790D01*
G01X2040100Y1739900D02*
X1982090D01*
G01X1923100Y4880600D02*
Y4910900D01*
X1917000Y4917000D01*
G01X1963100Y4880600D02*
Y4917100D01*
X1970000Y4924000D01*
G01X1923100Y4720600D02*
Y4697100D01*
X1919000Y4693000D01*
Y4679000D01*
G01X1963100Y4720600D02*
Y4692900D01*
X1971000Y4685000D01*
Y4653000D01*
X1975000Y4649000D01*
G01X2077260Y4930140D02*
X2042580D01*
X2004000Y4891560D01*
Y4886000D01*
X2003100Y4885100D01*
Y4880600D01*
G01X2093500Y5573400D02*
X2094680Y5574090D01*
X2166090D01*
X2180200Y5588200D01*
G01X2023500Y5503400D02*
X2026520Y5500380D01*
X2167400D01*
X2190270Y5477510D01*
G01X2093500Y5533400D02*
X2200670D01*
G01X2248000Y5553000D02*
Y5596180D01*
X2249700Y5597880D01*
Y5681100D01*
X2228620Y5702180D01*
X2048030D01*
X2011540Y5738670D01*
Y5749910D01*
G01X2457120Y771880D02*
Y730580D01*
X2478100Y709600D01*
X2519250D01*
G01D02*
X2603500Y625350D01*
G01X2417110Y771880D02*
Y669590D01*
G01D02*
X2417000Y669480D01*
Y656000D01*
G01X2497120Y771880D02*
Y931880D01*
G01D02*
X2496820Y932180D01*
G01X2657120Y1091870D02*
X2702560D01*
X2712160Y1082270D01*
X2730090D01*
G01X2337130Y1371880D02*
Y1465910D01*
X2359660Y1488440D01*
G01X2425760Y2085400D02*
Y1454800D01*
X2417110Y1446150D01*
Y1371880D01*
G01X2657120Y1211880D02*
X2758870D01*
X2867790Y1320800D01*
X2933700D01*
X2966720Y1353820D01*
G01X2657120Y1251890D02*
X2737790D01*
X2745740Y1259840D01*
G01X2657120Y1171880D02*
X2535860D01*
G01X2457120Y1371880D02*
Y1250620D01*
G01X2535860Y1171880D02*
X2500780Y1206960D01*
G01X2457120Y1250620D02*
X2500780Y1206960D01*
G01X2657120Y1291870D02*
X2700020D01*
X2722600Y1314450D01*
X2739390D01*
G01X2497120Y1460800D02*
Y1371880D01*
G01X2657120Y1131870D02*
X2730500D01*
G01X2577110Y1371880D02*
Y1426490D01*
G01X2537130Y1371880D02*
Y1429690D01*
G01D02*
X2562860Y1455420D01*
G01X2532380Y2278860D02*
Y2192020D01*
X2425760Y2085400D01*
G01X2623820Y2348480D02*
X2574680D01*
X2563800Y2337600D01*
X2533640D01*
X2532380Y2338860D01*
G01X2637000Y4025900D02*
X2635800Y4024700D01*
Y3979500D01*
X2638200Y3977100D01*
G01X2773000Y5031000D02*
Y5099070D01*
X2686820Y5185250D01*
Y5243890D01*
X2660210Y5270500D01*
X2609000D01*
X2560000Y5319500D01*
G01X2849400Y977900D02*
X2896140D01*
X2897130Y978890D01*
X2907370D01*
X2907630Y978630D01*
Y978620D01*
G01X2966720Y1353820D02*
Y1376680D01*
G01X2717800Y4079720D02*
X2760500D01*
X2766060Y4074160D01*
G01D02*
X2847820D01*
G01X3051020Y4071620D02*
Y4035620D01*
X3012530Y3997130D01*
Y3987990D01*
G01X2709700Y4635500D02*
X2722400Y4622800D01*
Y4591360D01*
X2763160Y4550600D01*
X2767160D01*
G01X3235600Y3511400D02*
Y3426500D01*
X3228000Y3418900D01*
G01X3275600Y3680400D02*
Y3750700D01*
X3282200Y3757300D01*
G01X3207820Y4029820D02*
X3208610Y4029030D01*
X3208500Y3987000D01*
G54D37*
X1058500Y2284480D03*
X1008500D03*
Y2400480D03*
X1058500D03*
X1290500Y2284300D03*
X1240500D03*
Y2400300D03*
X1290500D03*
G54D46*
X932310Y5557990D03*
X982290D03*
X1032310D03*
X1082290D03*
X1132310D03*
X1182290D03*
X1232310D03*
X1282290D03*
X1332310D03*
X1382290D03*
X1432310D03*
X1482290D03*
X2557910D03*
X2607890D03*
X2657910D03*
X2707890D03*
X2757910D03*
X2807890D03*
X2857910D03*
X2907890D03*
X2957910D03*
X3007890D03*
X3057910D03*
X3107890D03*
G54D28*
X529600Y5006200D03*
X569600D03*
X609600D03*
X649600D03*
X689600D03*
Y5306200D03*
X649600D03*
X609600D03*
X569600D03*
X529600D03*
X1939300Y5031600D03*
X1979300D03*
X2019300D03*
X2059300D03*
X2099300D03*
Y5331600D03*
X2059300D03*
X2019300D03*
X1979300D03*
X1939300D03*
X2023500Y5503400D03*
X1983500Y5643400D03*
X2023500D03*
G54D55*
X1701800Y3832350D03*
Y4092450D03*
X2603500Y365250D03*
Y625350D03*
X2661920Y1780030D03*
Y2040130D03*
X3068320Y1000250D03*
Y1260350D03*
G54D19*
X732280Y1038100D03*
Y1218180D03*
Y1398020D03*
G54D64*
X2764510Y227710D03*
X3331490D03*
G54D83*
G01X648000Y567110D02*
X654750D01*
G01X732280Y728220D02*
X733300Y727200D01*
Y645410D01*
G01X1110460Y432280D02*
Y284960D01*
G03X1189680Y205740I79220J0D01*
G01X1351280D01*
G01X819730Y567110D02*
X1058630D01*
G02X1110460Y553720I0J-107007D01*
G01X1110760Y512140D02*
G03X1110460Y553720I-555418J16784D01*
G54D74*
G01X508080Y4839720D02*
X393660Y4954140D01*
X128140D01*
X0Y4826000D01*
G01X508080Y4839720D02*
X546100D01*
G54D29*
X761800Y5455300D03*
X1625800D03*
X2387400D03*
X3251400D03*
G54D65*
X3021660Y771750D03*
X3221660D03*
G54D47*
X1351280Y205740D03*
Y307340D03*
G54D38*
X1143000Y2893060D03*
X1341120Y825500D03*
X1167740Y2563830D03*
X1191260Y2938780D03*
X1983640Y849140D03*
X1983760Y894140D03*
X2252000Y1503000D03*
X2310130Y3371850D03*
X2247900Y3373120D03*
X2621280Y1455420D03*
X2562860D03*
X2786380Y1082040D03*
X2730090Y1082270D03*
X2966720Y1376680D03*
X3024630Y1376630D03*
X3083560Y1376680D03*
X2921000Y1613200D03*
G54D56*
X1883100Y4720600D03*
Y4760600D03*
Y4800600D03*
Y4840600D03*
Y4880600D03*
X2003100Y4720600D03*
X1963100D03*
X1923100D03*
X2003100Y4760600D03*
X1963100D03*
X1923100D03*
X2003100Y4800600D03*
X1963100D03*
X1923100D03*
X2003100Y4840600D03*
X1963100D03*
X1923100D03*
X2003100Y4880600D03*
X1963100D03*
X1923100D03*
X1971540Y5789910D03*
X2011540D03*
X2051540D03*
X1971540Y5749910D03*
X2011540D03*
X2051540D03*
X1971540Y5829910D03*
X2011540D03*
X2051540D03*
G54D84*
G01X654750Y567110D02*
X688290D01*
G01X1058500Y2284480D02*
X1116000D01*
G01X951000D02*
X1008500D01*
G01D02*
X1058500D01*
G01X1116000D02*
X1176740D01*
X1183000Y2284300D01*
G01X1290500D02*
X1348000D01*
G01X1183000D02*
X1240500D01*
G01D02*
X1290500D01*
G01X1427480Y2348710D02*
X1524000D01*
G01X1401320D02*
X1348000Y2295390D01*
Y2284300D01*
G01X1427480Y2348710D02*
X1401320D01*
G01X1524000D02*
X1620520D01*
G01D02*
X1717040D01*
G01X1831340Y2343300D02*
X1825930Y2348710D01*
G01D02*
X1717040D01*
G54D75*
G01X915190Y2211890D02*
Y2527410D01*
X894500Y2548100D01*
G01X1486030Y2966970D02*
X1443360D01*
G01X976250Y2861450D02*
Y2866020D01*
X975080Y2867190D01*
Y2934150D01*
X1005110Y2964180D01*
X1005700D01*
X1112150Y3070630D01*
X1322860D01*
X1376490Y3017000D01*
X1486020Y3016980D01*
G01X1430020Y3092220D02*
X1472580D01*
X1472590Y3092210D01*
X1510790D01*
X1536020Y3066980D01*
G01X1415200Y2991750D02*
X1510790D01*
X1536020Y3016980D01*
G01X1486020Y2916980D02*
X1435890Y2916990D01*
X1385380D01*
G01X1536010Y2966970D02*
X1510240Y2941200D01*
X1500000D01*
X1499450Y2941750D01*
X1472590D01*
X1472040Y2941200D01*
X1445000D01*
G01X1586020Y2866980D02*
X1611250Y2841750D01*
Y2794510D01*
X1585340Y2768600D01*
G01X1402170Y2842210D02*
X1511250D01*
X1536020Y2866980D01*
G01X1421690Y2892210D02*
X1511250D01*
X1536020Y2916980D01*
G01X2151430Y2842210D02*
X2161540Y2832100D01*
G01X2110790Y2842210D02*
X2151430D01*
G54D57*
X2214880Y266700D03*
X2392680D03*
X2954150Y2610000D03*
X3049400Y2838600D03*
X2818850Y3680200D03*
X3009350D03*
X2914100Y3908800D03*
X3144650Y2610000D03*
G54D66*
X2848000Y442700D03*
X3248000D03*
G54D48*
X1534160Y2169160D03*
X1525320Y2503120D03*
X1522780Y2609770D03*
X1365330Y2503120D03*
X1362790Y2609770D03*
X1635760Y2169160D03*
X1685320Y2503120D03*
X1845310D03*
X1842770Y2609770D03*
X1682780D03*
G54D39*
X1111250Y3721100D03*
X1016000D03*
X920750D03*
Y3975100D03*
X1111250D03*
X1454150Y3784600D03*
X1358900D03*
X1263650D03*
Y4038600D03*
X1454150D03*
G54D76*
G01X1157300Y5398000D02*
Y5431290D01*
X1184880Y5458870D01*
X1195660D01*
X1232310Y5495520D01*
Y5557990D01*
G01X1879600Y5499100D02*
Y5499500D01*
X1913500Y5533400D01*
G01X1983500Y5508400D02*
Y5497830D01*
X1972070Y5486400D01*
X1932600D01*
X1932000Y5487000D01*
G01X1931000Y5654000D02*
X1944260Y5667260D01*
X1981730D01*
X1983500Y5665490D01*
Y5643400D01*
G01X3247120Y3950200D02*
X3224620Y3927700D01*
X3157890D01*
X3126390Y3896200D01*
X3008200D01*
X2978600Y3866600D01*
Y3790000D01*
G01X2907820Y4074160D02*
X2911820D01*
X2936300Y4098640D01*
Y4178000D01*
X2985640Y4227340D01*
X3008160D01*
X3010220Y4225280D01*
G01X2833000Y5345000D02*
Y5397890D01*
X2832890Y5398000D01*
G01D02*
Y5428970D01*
X2806060Y5455800D01*
Y5556160D01*
X2807890Y5557990D01*
G01X3357400Y2311400D02*
X3400360D01*
X3477350Y2234410D01*
Y2199550D01*
X3505200Y2171700D01*
G54D49*
X1486020Y2816980D03*
Y2866980D03*
Y2916980D03*
Y2966980D03*
Y3016980D03*
Y3066980D03*
Y3116980D03*
X2136020Y2816980D03*
Y2866980D03*
G54D67*
X2836800Y3022800D03*
X3136900Y3733800D03*
X3172460Y2293620D03*
X3362000Y3923000D03*
G54D58*
X2357120Y1071880D03*
G54D77*
G01X526520Y340360D02*
X518900Y332740D01*
X448490D01*
G01X688290Y607090D02*
X673610D01*
X654700Y626000D01*
G01X512320Y1128010D02*
X592280D01*
X605500Y1114790D01*
Y1088790D01*
G01X512320Y858010D02*
X591330D01*
X665480Y932160D01*
Y1074570D01*
G01X512320Y1038100D02*
X599870D01*
X605540Y1032430D01*
G01X512320Y948180D02*
X576120D01*
X606540Y978600D01*
G01X520700Y1981200D02*
X512320Y1972820D01*
Y1758190D01*
G01X1620710Y1843850D02*
Y1941790D01*
X1581300Y1981200D01*
X520700D01*
G01X1920240Y1615920D02*
X1952500Y1648180D01*
Y1717700D01*
X1929130Y1741070D01*
Y1884200D01*
X1882000Y1931330D01*
Y2050000D01*
X1852000Y2080000D01*
X1438640D01*
X1415280Y2056640D01*
X1070440D01*
X915190Y2211890D01*
G01X894500Y2548100D02*
X867770Y2574830D01*
X823740D01*
X821500Y2572590D01*
X741730D01*
X714220Y2545080D01*
G01X643360Y2611120D02*
X645660D01*
X711700Y2545080D01*
X714220D01*
G01X920750Y3975100D02*
Y3993770D01*
X811150Y4103370D01*
X712630D01*
X673000Y4143000D01*
G01X689600Y5006200D02*
Y4974600D01*
X696000Y4968200D01*
Y4954000D01*
G01X649600Y5006200D02*
Y4972840D01*
X645000Y4968240D01*
Y4947000D01*
X643000Y4945000D01*
G01X459600Y5116200D02*
X393700D01*
X381000Y5128900D01*
Y5156200D01*
G01X609600Y5306200D02*
Y5397500D01*
X600230Y5406870D01*
G01X1107290Y5398000D02*
Y5366140D01*
X1077640Y5336490D01*
X886950D01*
X874440Y5349000D01*
X818710D01*
X793500Y5323790D01*
X707190D01*
X689600Y5306200D01*
G01X649600D02*
Y5374000D01*
X660400Y5384800D01*
G01X778310Y607090D02*
X784690D01*
X807350Y629750D01*
G01X1092200Y728220D02*
Y808740D01*
X1104900Y821440D01*
X1137920D01*
G01X1042980Y2898220D02*
X1038600Y2893840D01*
Y2799740D01*
X1005000Y2766140D01*
Y2605610D01*
X1116000Y2494610D01*
Y2400480D01*
G01X1008500D02*
Y2511100D01*
X931000Y2588600D01*
Y2756800D01*
X973700Y2799500D01*
Y2858900D01*
X976250Y2861450D01*
G01X891630Y2673840D02*
Y2591280D01*
X951000Y2531910D01*
Y2400480D01*
G01X968170Y2676000D02*
Y2590330D01*
X1058500Y2500000D01*
Y2400480D01*
G01X1183000Y2400300D02*
Y2472000D01*
X1217640Y2506640D01*
Y2573410D01*
X1206590Y2584460D01*
Y2584470D01*
X1168260Y2622800D01*
X1117250D01*
X1044950Y2695100D01*
G01X1486020Y2966980D02*
X1486030Y2966970D01*
G01X1443360D02*
X1355440D01*
X1355050Y2967360D01*
X1355040D01*
X1296220Y3026180D01*
X1130570D01*
X1048740Y2944350D01*
Y2906640D01*
X1042980Y2900880D01*
Y2898220D01*
G01X891630Y2673840D02*
Y2758030D01*
X939420Y2805820D01*
Y2929030D01*
X996160Y2985770D01*
X996750D01*
X1103200Y3092220D01*
X1430020D01*
G01X968170Y2676000D02*
Y2761640D01*
X1015740Y2809210D01*
Y2873370D01*
X1006150Y2882960D01*
Y2934090D01*
X1121100Y3049040D01*
X1309070D01*
X1366360Y2991750D01*
X1415200D01*
G01X1385380Y2916990D02*
X1340750D01*
X1277280Y2980460D01*
X1149510D01*
X1102670Y2933620D01*
Y2825370D01*
X1100900Y2823600D01*
G01D02*
Y2722490D01*
X1229450Y2593940D01*
Y2593930D01*
X1240500Y2582880D01*
Y2400300D01*
G01X1536020Y2966980D02*
X1536010Y2966970D01*
G01X1445000Y2941200D02*
X1348870D01*
X1286750Y3003320D01*
X1140040D01*
X1079810Y2943090D01*
Y2864930D01*
X1061460Y2846580D01*
Y2711610D01*
X1044950Y2695100D01*
G01D02*
X1043300D01*
G01X960600Y3378200D02*
Y3327400D01*
G01D02*
Y3284700D01*
X939800Y3263900D01*
G01X1020600Y3378200D02*
Y3327400D01*
G01Y3162300D02*
Y3213100D01*
G01X1409700Y3314700D02*
X1397000Y3327400D01*
Y3378200D01*
X1384300Y3390900D01*
X1257300D01*
X1244600Y3378200D01*
Y3251200D01*
X1211100Y3217700D01*
X1092200D01*
G01X1020600Y3327400D02*
Y3299500D01*
X1011730Y3290630D01*
Y3258570D01*
X1020600Y3249700D01*
Y3213100D01*
G01D02*
X1087600D01*
X1092200Y3217700D01*
G01X1060000Y4231000D02*
X1123150D01*
X1151600Y4259450D01*
Y4287800D01*
G01X1036600Y4402800D02*
X986600D01*
X970000Y4386200D01*
Y4379000D01*
G01X1036600Y4362800D02*
X1009480D01*
X986310Y4339630D01*
X953690D01*
X939320Y4354000D01*
X920000D01*
G01X1111600Y4287800D02*
X1069800D01*
X1068000Y4286000D01*
G01X1036600Y4562800D02*
X960200D01*
X953000Y4570000D01*
Y4574000D01*
X955000Y4576000D01*
G01X1036600Y4602800D02*
X1008240D01*
X981040Y4630000D01*
X951000D01*
G01X813560Y4965700D02*
Y4939540D01*
X838000Y4915100D01*
Y4913000D01*
G01X1036600Y4802800D02*
X991200D01*
X981000Y4813000D01*
X946000D01*
G01X1036600Y4762800D02*
X985800D01*
X972000Y4749000D01*
G01X1036600Y4842800D02*
X988700D01*
X976000Y4855500D01*
Y4898000D01*
X1011000Y4933000D01*
G01X1036600Y4642800D02*
X1008240D01*
X960040Y4691000D01*
X958000D01*
G01X759600Y5196200D02*
X823880D01*
X870370Y5242690D01*
Y5267370D01*
X888000Y5285000D01*
G01X759600Y5236200D02*
X808200D01*
X831000Y5259000D01*
G01X1672080Y1038100D02*
X1603700D01*
X1585600Y1056200D01*
X1505800D01*
X1413670Y1148330D01*
Y1182750D01*
G01X1182120Y728220D02*
Y798800D01*
X1241830Y858520D01*
G01X1672080Y1128010D02*
X1488190D01*
X1468800Y1147400D01*
Y1172700D01*
G01X1729000Y1968000D02*
Y1896460D01*
X1637020Y1804480D01*
X1260200D01*
X1253310Y1811370D01*
X1220690D01*
X1213800Y1804480D01*
X1198480D01*
X1121000Y1727000D01*
G01X1378460Y2103120D02*
X1896670D01*
X1931200Y2137650D01*
Y2215310D01*
X1979910Y2264000D01*
X1998000D01*
G01X1348000Y2400300D02*
Y2425000D01*
X1313360Y2459640D01*
Y2574680D01*
X1309100Y2578940D01*
Y2578950D01*
X1237500Y2650550D01*
Y2787200D01*
X1293700Y2843400D01*
X1339100D01*
G01X1200500Y2832700D02*
Y2655220D01*
X1252310Y2603410D01*
Y2603400D01*
X1290500Y2565210D01*
Y2400300D01*
G01X1339100Y2843400D02*
X1340290Y2842210D01*
X1402170D01*
G01X1200500Y2832700D02*
X1260010Y2892210D01*
X1421690D01*
G01X1191600Y4287800D02*
Y4259600D01*
X1178110Y4246110D01*
Y4245960D01*
X1168440Y4236290D01*
X1168290D01*
X1157150Y4225150D01*
Y4187850D01*
X1185000Y4160000D01*
G01X1471600Y4287800D02*
Y4219780D01*
G01X1271600Y4287800D02*
Y4259440D01*
X1239130Y4226970D01*
Y4174870D01*
X1240000Y4174000D01*
G01X1311600Y4287800D02*
Y4243750D01*
X1278810Y4210960D01*
G01X1431600Y4287800D02*
Y4261600D01*
X1421600Y4251600D01*
Y4209980D01*
X1412000Y4200380D01*
Y4161000D01*
G01X1511600Y4287800D02*
Y4201600D01*
X1466000Y4156000D01*
G01X1231600Y4287800D02*
Y4259440D01*
X1199760Y4227600D01*
Y4211920D01*
G01X1351600Y4287800D02*
Y4241640D01*
X1326630Y4216670D01*
Y4182630D01*
X1313000Y4169000D01*
G01X1391600Y4287800D02*
Y4215600D01*
X1366000Y4190000D01*
G01X1536600Y4682800D02*
X1520500D01*
X1485900Y4648200D01*
G01X1206600Y4682800D02*
X1222700D01*
X1257300Y4648200D01*
G01X1320800Y5122700D02*
X1271270Y5073170D01*
Y5021600D01*
X1271600Y5021270D01*
Y4957800D01*
G01X1397000Y5122700D02*
X1431600Y5088100D01*
Y4957800D01*
G01X1320800Y5177000D02*
Y5122700D01*
G01X1397000Y5177000D02*
Y5122700D01*
G01X1157300Y5398000D02*
Y5330100D01*
X1154800Y5327600D01*
G01X1207290Y5398000D02*
Y5333310D01*
X1208800Y5331800D01*
G01X1282290Y5557990D02*
Y5498690D01*
X1270000Y5486400D01*
G01X1182290Y5557990D02*
Y5500290D01*
G01X1798800Y685800D02*
X1762000D01*
X1741400Y706400D01*
Y724600D01*
G01X1858800Y622300D02*
Y685800D01*
G01D02*
X1899000D01*
X1937100Y647700D01*
X1993900D01*
G01X1672080Y858010D02*
X1636270D01*
X1577340Y916940D01*
G01X1672080Y948180D02*
X1728980D01*
X1755140Y922020D01*
Y869920D01*
X1767180Y857880D01*
G01X1527300Y1174300D02*
Y1197100D01*
X1548380Y1218180D01*
X1672080D01*
G01Y1398020D02*
X1614420D01*
X1587500Y1424940D01*
Y1551250D01*
X1580600Y1558170D01*
Y1560860D01*
X1578860Y1562600D01*
G01X1672080Y1308100D02*
X1583300D01*
X1546860Y1344540D01*
Y1456110D01*
G01X1672080Y1488190D02*
X1732790D01*
X1757170Y1463800D01*
Y1226160D01*
X1768090Y1215240D01*
Y1204340D01*
G01X2161540Y2832100D02*
X2171200Y2822440D01*
Y2732400D01*
X2048570Y2609770D01*
X1842770D01*
G01X1586020Y2966980D02*
Y2970320D01*
X1630680Y3014980D01*
G01X1736020Y3016980D02*
X1686030Y3066970D01*
G01X1836010Y3266970D02*
X1828800Y3259760D01*
Y3225800D01*
X1719980Y3116980D01*
X1686020D01*
G01X1836020Y3266980D02*
X1836010Y3266970D01*
G01X1686020Y3066980D02*
X1641020D01*
X1633000Y3075000D01*
G01X1586020Y3066980D02*
X1624980D01*
X1633000Y3075000D01*
G01X1936020Y3016980D02*
X1935020D01*
X1875000Y3077000D01*
G01X1546330Y4178570D02*
Y4212710D01*
X1551600Y4217980D01*
Y4287800D01*
G01X1591600D02*
Y4231780D01*
X1594000Y4229380D01*
Y4228380D01*
X1596000Y4226380D01*
Y4190000D01*
X1599000Y4187000D01*
G01X1631600Y4287800D02*
X1662200D01*
X1700000Y4250000D01*
G01X1706600Y4362800D02*
X1699800D01*
X1680000Y4343000D01*
G01X1706600Y4562800D02*
X1780200D01*
X1781000Y4562000D01*
X1786000D01*
X1787000Y4561000D01*
G01X1706600Y4602800D02*
X1760800D01*
X1787630Y4629630D01*
X1813210D01*
X1845000Y4661420D01*
Y4723000D01*
X1821000Y4747000D01*
G01X1706600Y4402800D02*
X1735200D01*
X1766000Y4372000D01*
Y4339380D01*
X1765000Y4338380D01*
Y4299000D01*
G01X1706600Y4642800D02*
X1747800D01*
X1774000Y4669000D01*
G01X1773000Y4723000D02*
Y4726900D01*
X1737100Y4762800D01*
X1706600D01*
G01Y4842800D02*
X1749800D01*
X1750000Y4843000D01*
G01X1706600Y4802800D02*
X1786420D01*
X1786760Y4803140D01*
G01X1869300Y5141600D02*
X1805300D01*
X1753000Y5193900D01*
Y5263000D01*
G01X1971540Y5789910D02*
X1944850Y5816600D01*
X1923750D01*
X1886680Y5779530D01*
G01X1913500Y5613400D02*
X1878700D01*
X1866000Y5626100D01*
Y5689000D01*
X1936000Y5759000D01*
G01X1825000Y5575000D02*
X1826600Y5573400D01*
X1913500D01*
G01X2565400Y218500D02*
Y170400D01*
X2527150Y132150D01*
X2216850D01*
X2189000Y160000D01*
G01X1902360Y899400D02*
X1912620D01*
X1925320Y886700D01*
Y804700D01*
G01D02*
X1955380D01*
X1988200Y771880D01*
X2137130D01*
G01X2057120Y851890D02*
Y822830D01*
X2046390Y812100D01*
X2034700D01*
G01X1922780Y1242540D02*
Y1204210D01*
X1938150Y1188850D01*
G01X2057120Y1291870D02*
X2027110D01*
X1992630Y1326350D01*
Y1434570D01*
X1960860Y1466340D01*
Y1506960D01*
X2009140Y1555240D01*
G01X2105660D02*
Y1529080D01*
X2151380Y1483360D01*
Y1432560D01*
X2137130Y1418310D01*
Y1371880D01*
G01X2100100Y1739900D02*
X2118360D01*
X2154680Y1703580D01*
Y1518160D01*
X2177110Y1495730D01*
Y1371880D01*
G01X2057120Y1131870D02*
X1998050D01*
X1987350Y1142570D01*
X1984530D01*
X1976000Y1151100D01*
G01X2043940Y2012950D02*
X2100100Y1956790D01*
Y1859280D01*
G01D02*
Y1813560D01*
X2097560Y1811020D01*
G01X2151380D02*
Y1830860D01*
X2179800Y1859280D01*
G01D02*
Y1882700D01*
X2194480Y1897380D01*
X2343150D01*
X2363980Y1918210D01*
Y2140610D01*
X2331620Y2172970D01*
X2263900D01*
G01X2009140Y1555240D02*
X2008760D01*
X1963000Y1601000D01*
X1935160D01*
X1920240Y1615920D01*
G01X2297130Y1371880D02*
Y1518720D01*
X2286760Y1529080D01*
Y1786380D01*
X2389380Y1889000D01*
Y2325520D01*
X2278730Y2436170D01*
X2174820Y2436180D01*
G01X2624300Y3530600D02*
X2527800D01*
X2465400Y3468200D01*
Y3376400D01*
X2373000Y3284000D01*
X2301320D01*
X2273630Y3256310D01*
Y2940620D01*
X2426550Y2787700D01*
X2556900D01*
G01X2086020Y3016980D02*
X2136020Y3066980D01*
G01X2086020Y2866980D02*
X2110790Y2842210D01*
G01X2136020Y2916980D02*
X2086020Y2966980D01*
G01D02*
X2136020Y3016980D01*
G01X2036020Y2966980D02*
X2017560D01*
X1983000Y2999000D01*
G01X2086020Y2966980D02*
X2036020D01*
G01Y3016980D02*
X1987220Y3065780D01*
X1983790D01*
G01X2036020Y3066980D02*
X2000970Y3102030D01*
Y3106970D01*
X1983740Y3124200D01*
Y3138960D01*
X1978660Y3144040D01*
Y3147060D01*
G01X2237200Y4268000D02*
Y4216590D01*
X2206710Y4186100D01*
X2186710D01*
X2163650Y4163040D01*
Y4130420D01*
X2173870Y4120200D01*
Y4042130D01*
X2236000Y3980000D01*
G01X2110200Y4268000D02*
X2084760Y4242560D01*
Y4170790D01*
X2080170Y4166200D01*
Y4166170D01*
X2078610Y4164610D01*
Y4094510D01*
X2089710Y4083410D01*
Y4032290D01*
X2135000Y3987000D01*
G01X2222500Y4935700D02*
Y4822700D01*
X2237200Y4808000D01*
G01X2099300Y5331600D02*
X2157640D01*
X2191000Y5364960D01*
Y5376690D01*
X2195930Y5381620D01*
G01X2059300Y5331600D02*
Y5364960D01*
X2082450Y5388110D01*
X2129890D01*
X2143000Y5375000D01*
G01X2120050Y5436370D02*
X2097190Y5413510D01*
X2071920D01*
X2055410Y5397000D01*
X2051340D01*
X2019300Y5364960D01*
Y5331600D01*
G01X2169300Y5261600D02*
X2213600D01*
X2223000Y5271000D01*
X2225000D01*
G01X2169300Y5221600D02*
X2231400D01*
X2235000Y5218000D01*
G01X2051540Y5749910D02*
X2100910D01*
X2101000Y5750000D01*
G01X2011540Y5789910D02*
Y5829910D01*
G01X2197100Y5638800D02*
X2173200D01*
X2147800Y5613400D01*
X2093500D01*
G01X1936000Y5759000D02*
X1940240Y5763240D01*
X1958210D01*
X1971540Y5749910D01*
G01X2051540Y5789910D02*
X2089660D01*
X2102360Y5802610D01*
Y5803640D01*
X2098000Y5808000D01*
G01X1952000Y5706000D02*
X1994250D01*
X2023500Y5676750D01*
Y5643400D01*
G01X2011540Y5829910D02*
Y5876350D01*
G01X2095500Y5937100D02*
X2072290D01*
X2011540Y5876350D01*
G01X1968500Y5969000D02*
X1947700Y5948200D01*
Y5905500D01*
G01D02*
X1971540Y5881660D01*
Y5829910D01*
G01X2051540D02*
Y5845540D01*
X2067000Y5861000D01*
G01X2505400Y218500D02*
Y175400D01*
X2504300Y174300D01*
G01X2678700Y218800D02*
X2681400Y216100D01*
Y182100D01*
G01X2618700Y218800D02*
Y174700D01*
G01X2657120Y931880D02*
X2771930D01*
X2789400Y914400D01*
G01X2657120Y891870D02*
X2730140D01*
G01X2657120Y1011890D02*
X2712720D01*
X2727960Y996650D01*
G01X2577110Y771880D02*
Y795830D01*
X2589810Y808530D01*
X2628900D01*
X2641600Y795830D01*
Y736600D01*
G01X2657120Y851890D02*
X2717240D01*
X2730600Y838530D01*
G01X2657120Y1051890D02*
X2694610D01*
X2709210Y1037290D01*
X2814340D01*
X2831400Y1054350D01*
Y1112690D01*
X2821160Y1122930D01*
Y1125780D01*
G01X2789400Y977900D02*
X2766060D01*
X2745440Y957280D01*
X2711630D01*
X2697020Y971880D01*
X2657120D01*
G01X2537130Y771880D02*
Y836100D01*
X2549830Y848800D01*
X2555000D01*
G01X2578100Y2989100D02*
Y3043020D01*
X2572330Y3048790D01*
G01X2857700Y3231140D02*
X2589990D01*
X2586880Y3228030D01*
X2364350D01*
X2352380Y3240000D01*
X2313000D01*
G01X2857700Y3131060D02*
X2711940D01*
X2670540Y3172460D01*
X2552700D01*
G01X2570600Y3119000D02*
X2649500D01*
X2789250Y2979250D01*
Y2923540D01*
G01X2667000Y3765700D02*
X2635500Y3813800D01*
Y3872000D01*
G01X2404900Y4114800D02*
X2407870Y4111830D01*
X2517240D01*
X2520210Y4114800D01*
G01X2344900D02*
X2332230Y4127470D01*
Y4189600D01*
X2364200Y4221570D01*
Y4268000D01*
G01X2491200Y4808000D02*
Y4771200D01*
X2438000Y4718000D01*
G01X2374900Y4935700D02*
Y4931700D01*
X2399380Y4907220D01*
X2436780D01*
X2491200Y4852800D01*
Y4808000D01*
G01X2364200D02*
Y4677180D01*
X2367000Y4674380D01*
Y4635000D01*
G01X2298700Y4935700D02*
Y4926300D01*
X2364200Y4860800D01*
Y4808000D01*
G01X2622700Y5194300D02*
Y5188300D01*
X2670000Y5141000D01*
G01X2789400Y914400D02*
Y787600D01*
X2850680Y726320D01*
Y513290D01*
G01X3340100Y3575900D02*
X3380510D01*
X3395110Y3590500D01*
X3397830D01*
X3472470Y3665140D01*
X3622830D01*
X3665140Y3622830D01*
Y1971970D01*
X3666490Y1970620D01*
Y1885000D01*
X3653550Y1872060D01*
X3517030D01*
X3442970Y1798000D01*
X3079000D01*
X3025000Y1852000D01*
G01X3340100Y3615900D02*
X3366400D01*
X3455010Y3704510D01*
X3639140D01*
X3690540Y3653110D01*
Y1982500D01*
X3691890Y1981150D01*
Y1874470D01*
X3690540Y1873120D01*
Y1743580D01*
X3577130Y1630170D01*
X3072170D01*
X3055000Y1613000D01*
G01X3501310Y3394000D02*
Y3380330D01*
X3404300Y3283320D01*
Y2956990D01*
X3281850Y2834540D01*
X3053460D01*
X3049400Y2838600D01*
G01X2836800Y3022800D02*
X2857500Y3040380D01*
X2857700Y3131060D01*
G01X2789250Y2923540D02*
Y2839510D01*
X2795260Y2833500D01*
G01X2684300Y3479800D02*
Y3530600D01*
G01D02*
X2744690D01*
X2818850Y3604760D01*
Y3680200D01*
G01X3136900Y3733800D02*
X3104600Y3701500D01*
Y3628030D01*
X3032570Y3556000D01*
X2908300D01*
G01X2946730Y3595370D02*
X2948990D01*
X2951270Y3597650D01*
X3038290D01*
X3079200Y3638560D01*
Y3756930D01*
X3137000Y3814730D01*
Y3871770D01*
X3168160Y3902930D01*
X3284770D01*
X3304840Y3923000D01*
X3362000D01*
G01X2695500Y3872000D02*
X2817000D01*
X2853800Y3908800D01*
X2914100D01*
G01X2732500Y5342000D02*
X2732890Y5342390D01*
Y5398000D01*
G01X2932910Y5347490D02*
X2933700Y5346700D01*
Y5344300D01*
G01X2782900Y5398000D02*
Y5287900D01*
X2780900Y5285900D01*
Y5272900D01*
G01X2907890Y5557990D02*
Y5486810D01*
G01X2857910Y5557990D02*
Y5499510D01*
X2844800Y5486400D01*
G01X3316500Y1943100D02*
X3321660Y1937940D01*
X3594970D01*
X3595050Y1938020D01*
X3627120D01*
G01X3357400Y2222500D02*
X3414500D01*
X3415000Y2223000D01*
G01X3403600Y2159000D02*
X3357400D01*
G01X3556000Y2032000D02*
X3483300D01*
X3403600Y2111700D01*
Y2159000D01*
G01X3144650Y2610000D02*
X3159050Y2595600D01*
X3309600D01*
X3361500Y2543700D01*
Y2315500D01*
X3357400Y2311400D01*
G01X3622960Y3404810D02*
X3594400Y3433370D01*
X3345140D01*
X3315600Y3462900D01*
Y3511400D01*
G01X3501310Y3394000D02*
X3329030D01*
X3275600Y3447430D01*
Y3511400D01*
G01X3211100Y3575900D02*
X3159600D01*
X3140600Y3594900D01*
G01X3211100Y3615900D02*
X3192910D01*
X3154080Y3654730D01*
G01X3235600Y3680400D02*
Y3761000D01*
X3240000Y3765400D01*
Y3790000D01*
G01D02*
X3218110D01*
X3161910Y3733800D01*
X3136900D01*
G01X3362000Y3923000D02*
X3371000Y3914000D01*
Y3831000D01*
X3330000Y3790000D01*
G01D02*
Y3750000D01*
X3315600Y3735600D01*
Y3680400D01*
G01X3384000Y4555000D02*
X3381000D01*
X3379000Y4557000D01*
X3365000D01*
X3345460Y4576540D01*
X3327480D01*
X3322310Y4571370D01*
X3317690D01*
X3285000Y4538680D01*
Y4436490D01*
X3304270Y4417220D01*
Y4293520D01*
X3403600Y4194190D01*
Y4051300D01*
X3482650Y3972250D01*
X3647750D01*
X3810000Y3810000D01*
G01X3348000Y4081000D02*
X3359510Y4092510D01*
Y4168980D01*
X3333120Y4195370D01*
X3233090D01*
X3207820Y4170100D01*
Y4029820D01*
G01X3656000Y1633000D02*
X3715940Y1692940D01*
Y1862590D01*
X3717290Y1863940D01*
Y1991680D01*
X3715940Y1993030D01*
Y3715940D01*
X3810000Y3810000D01*
G01Y3302000D02*
X3929460Y3421460D01*
Y4350940D01*
X3862050Y4418350D01*
X3861840D01*
G01X3478000Y4701000D02*
X3505850Y4673150D01*
X3604850D01*
X3687400Y4590600D01*
Y4453990D01*
X3810000Y4331390D01*
Y4318000D01*
G01X3571900Y4717500D02*
X3610690D01*
X3719190Y4826000D01*
X3810000D01*
G01X723800Y5627990D02*
G02Y5727990I0J50000D01*
G01Y6153660D01*
X194820D01*
X-145240Y5813600D01*
Y104140D01*
X3954810D01*
X3955340Y104670D01*
Y6153660D01*
X3289400D01*
Y5727990D01*
G02Y5627990I0J-50000D01*
G01X1663800D02*
X723800D01*
G01X1663800D02*
X723800D01*
G01X920750Y6832600D02*
Y6578600D01*
G01X847730Y6832600D02*
X993770D01*
G01X1174750Y6578600D02*
X1149350Y6582830D01*
X1127130Y6599760D01*
X1108070Y6625160D01*
X1095370Y6654800D01*
X1089020Y6688670D01*
Y6722530D01*
X1095370Y6756400D01*
X1108070Y6786040D01*
X1127130Y6811430D01*
X1149350Y6828370D01*
X1174750Y6832600D01*
X1200150Y6828370D01*
X1222370Y6811430D01*
X1241430Y6786040D01*
X1254130Y6756400D01*
X1260480Y6722530D01*
Y6688670D01*
X1254130Y6654800D01*
X1241430Y6625160D01*
X1222370Y6599760D01*
X1200150Y6582830D01*
X1174750Y6578600D01*
G01X1365250D02*
Y6832600D01*
X1441450D01*
X1466850Y6819890D01*
X1485900Y6790270D01*
X1492250Y6756400D01*
X1485900Y6722530D01*
X1470020Y6697130D01*
X1441450Y6684430D01*
X1365250D01*
G01X1873250Y6832600D02*
Y6578600D01*
X2000250D01*
G01X2111370D02*
X2190750Y6832600D01*
X2270130Y6578600D01*
G01X2241550Y6667500D02*
X2139950D01*
G01X2444750Y6578600D02*
Y6692900D01*
X2381250Y6832600D01*
G01X2508250D02*
X2444750Y6692900D01*
G01X2762250Y6578600D02*
X2635250D01*
Y6832600D01*
X2762250D01*
G01X2711450Y6709840D02*
X2635250D01*
G01X2889250Y6578600D02*
Y6832600D01*
X2968620D01*
X2994020Y6819890D01*
X3009900Y6802970D01*
X3016250Y6769100D01*
X3009900Y6735230D01*
X2990850Y6714070D01*
X2968620Y6701360D01*
X2889250D01*
G01X2968620D02*
X3016250Y6578600D01*
G01X1663800Y5627990D02*
G03Y5727990I0J50000D01*
G01Y6153660D01*
X2349400D01*
Y5727990D01*
G03Y5627990I0J-50000D01*
G01X3289400D02*
X2349400D01*
G01X3289400D02*
X2349400D01*
G54D59*
X2057120Y1091870D03*
Y1051890D03*
Y1011890D03*
Y971880D03*
Y931880D03*
Y891870D03*
Y851890D03*
Y1291870D03*
Y1251890D03*
Y1211880D03*
Y1171880D03*
Y1131870D03*
X2657120Y851890D03*
Y891870D03*
Y931880D03*
Y971880D03*
Y1011890D03*
Y1051890D03*
Y1091870D03*
Y1131870D03*
Y1171880D03*
Y1211880D03*
Y1251890D03*
Y1291870D03*
G54D68*
X3098800Y4766100D03*
Y5216100D03*
G54D78*
G01X730550Y2744910D02*
X689610D01*
X660300Y2715600D01*
X650900D01*
G01X559550Y2746110D02*
X620390D01*
X650900Y2715600D01*
G01X723900Y4895740D02*
Y4857800D01*
G01X901700Y5155440D02*
X848870Y5102610D01*
Y5077970D01*
X814240Y5043340D01*
X788840D01*
X760730Y5015230D01*
Y4932570D01*
X723900Y4895740D01*
G01X609600Y5006200D02*
Y5156200D01*
G01X485760Y4971140D02*
Y4958240D01*
X506900Y4937100D01*
X542830D01*
X569600Y4963870D01*
Y5006200D01*
G01X529600D02*
X509800Y5026000D01*
X486580D01*
G01X459600Y5156200D02*
X609600D01*
G01X459600Y5196200D02*
X422270D01*
X415130Y5203340D01*
X410130D01*
X396740Y5216730D01*
Y5225710D01*
X396000Y5226450D01*
Y5272800D01*
X495300Y5372100D01*
G01D02*
X549500D01*
X569600Y5352000D01*
Y5306200D01*
G01X529600D02*
X510400D01*
X508000Y5308600D01*
G01X459600Y5236200D02*
Y5260200D01*
X508000Y5308600D01*
G01X459600Y5076200D02*
X410200D01*
G01X1278380Y2103120D02*
X1143420D01*
X1116000Y2130540D01*
Y2284480D01*
G01X960600Y3162300D02*
Y3213100D01*
G01D02*
X914400D01*
G01X1111250Y3721100D02*
X1117600D01*
X1193800Y3797300D01*
G01X1036600Y4482800D02*
X978200D01*
G01X1036600Y4522800D02*
X1002860D01*
X997140Y4528520D01*
X947520D01*
X936000Y4517000D01*
G01X1036600Y4442800D02*
X1002860D01*
X997140Y4437080D01*
X947920D01*
X938000Y4447000D01*
G01X1036600Y4682800D02*
X1206600D01*
G01X1057300Y5398000D02*
Y5481530D01*
X1052430Y5486400D01*
G01X1132310Y5557990D02*
Y5488410D01*
X1117600Y5473700D01*
G01X956900Y5486400D02*
X1052430D01*
G01D02*
X1082290Y5516260D01*
Y5557990D01*
G01X1263650Y3784600D02*
Y3766740D01*
X1385490Y3644900D01*
X2172900D01*
X2280000Y3752000D01*
X2435720D01*
X2615100Y3931380D01*
X2809480D01*
X2837900Y3959800D01*
G01X1403000Y4088000D02*
X1452400Y4038600D01*
X1454150D01*
G01X1206600Y4682800D02*
X1371600Y4517800D01*
G01D02*
X1536600Y4682800D01*
G01X1262000Y5314000D02*
X1257300Y5318700D01*
Y5398000D01*
G01X1307310D02*
Y5334790D01*
X1320800Y5321300D01*
G01X1332310Y5557990D02*
Y5484050D01*
X1307310Y5459050D01*
Y5398000D01*
G01X1758440Y1773820D02*
Y1783140D01*
X1785200Y1809900D01*
X1828800D01*
G01X1686030Y3066970D02*
X1730930D01*
X1884680Y3220720D01*
G01X1836010Y3266970D02*
Y3294790D01*
X1811020Y3319780D01*
X1776620Y3319580D01*
X1770300Y3313260D01*
Y3312060D01*
G01X1886020Y3266980D02*
X1886030Y3266970D01*
Y3222070D01*
X1884680Y3220720D01*
G01X1936020Y3216980D02*
X1936010Y3216990D01*
X1888410D01*
X1884680Y3220720D01*
G01X1706600Y4482800D02*
X1746650D01*
X1752450Y4477000D01*
X1775000D01*
X1786000Y4466000D01*
G01X1930400Y4349900D02*
X1881100D01*
X1826000Y4405000D01*
G01X1706600Y4442800D02*
X1710320Y4439080D01*
X1747650D01*
X1781730Y4405000D01*
X1826000D01*
G01X1896000Y4463900D02*
X1845900D01*
X1839000Y4457000D01*
G01D02*
Y4469740D01*
X1831720Y4477020D01*
Y4484940D01*
X1801380Y4515280D01*
X1768060D01*
X1760540Y4522800D01*
X1706600D01*
G01Y4682800D02*
X1536600D01*
G01X1824000Y4998000D02*
X1853260Y4968740D01*
X1958770D01*
X1977000Y4986970D01*
Y4989660D01*
X1979300Y4991960D01*
Y5031600D01*
G01X1842000Y5049000D02*
X1878900Y5012100D01*
X1919800D01*
X1939300Y5031600D01*
G01X1869300Y5181600D02*
X2019300D01*
G01X1869300Y5101600D02*
X1822600D01*
X1819000Y5098000D01*
G01X1979300Y5419300D02*
X1957600Y5441000D01*
X1856340D01*
X1780280Y5364940D01*
Y5362280D01*
X1779000Y5361000D01*
Y5311900D01*
X1806440Y5284460D01*
Y5242130D01*
X1830170Y5218400D01*
X1866100D01*
X1869300Y5221600D01*
G01X1939300Y5331600D02*
X1869300Y5261600D01*
G01X2057120Y1051890D02*
X2013620D01*
X1984000Y1081510D01*
Y1085000D01*
G01X2222500Y4995700D02*
X2260840D01*
X2262620Y4997480D01*
X2296920D01*
X2298700Y4995700D01*
G01X2222500D02*
Y4999500D01*
X2202580Y5019420D01*
Y5021940D01*
X2175800Y5048720D01*
X2173280D01*
X2163000Y5059000D01*
G01X2019300Y5031600D02*
Y5181600D01*
G01X2349500Y5271520D02*
X2345000Y5267020D01*
Y5266930D01*
X2219670Y5141600D01*
X2169300D01*
G01X1979300Y5419300D02*
Y5331600D01*
G01X1930000Y5393520D02*
Y5377520D01*
X1939300Y5368220D01*
Y5331600D01*
G01X2200670Y5533400D02*
X2228400D01*
X2248000Y5553000D01*
G01X2065000Y5455000D02*
X2044000Y5434000D01*
X1994000D01*
X1979300Y5419300D01*
G01X2819400Y2531900D02*
Y2543030D01*
X2766880Y2595550D01*
X2518410D01*
G01X2654900Y2544600D02*
X2440940D01*
G01X2768600Y2531900D02*
X2732200D01*
X2719500Y2544600D01*
X2654900D01*
G01X2557800Y3380700D02*
Y3342600D01*
X2532400Y3317200D01*
G01X2370300Y3949700D02*
Y3994020D01*
X2371600Y3995320D01*
G01X2654300Y4195600D02*
X2637500D01*
X2596200Y4236900D01*
G01X2491200Y4268000D02*
Y4255300D01*
X2494020Y4252480D01*
Y4140990D01*
X2520210Y4114800D01*
G01D02*
X2521000Y4114010D01*
G01X2491200Y4268000D02*
Y4279480D01*
X2439190Y4331490D01*
G01X2425700Y4953000D02*
X2383000Y4995700D01*
X2374900D01*
G01X2298700D02*
X2374900D01*
G01X2679700Y5486400D02*
X2682900Y5483200D01*
Y5398000D01*
G01X2582500Y5484400D02*
X2584500Y5486400D01*
X2679700D01*
G01D02*
X2707890Y5514590D01*
Y5557990D01*
G01X2849400Y914400D02*
X2890520D01*
X2898140Y922020D01*
G01X2870200Y2531900D02*
X2819400D01*
G01X2762700Y4147300D02*
X2755120Y4139720D01*
X2717800D01*
G01X2948000Y4014000D02*
X2986520D01*
X3012530Y3987990D01*
G01X2717800Y4139720D02*
Y4199100D01*
X2713200Y4203700D01*
G01X2932800Y4331420D02*
X2932480Y4331100D01*
X2882400D01*
G01D02*
X2807300D01*
X2801100Y4324900D01*
G01X3100000Y4260000D02*
X3080010D01*
X3068590Y4271420D01*
X2932800D01*
G01X2957910Y5557990D02*
Y5463840D01*
X2932910Y5438840D01*
Y5398000D01*
G01D02*
Y5347490D01*
G01X2933700Y5344300D02*
X2939000Y5339000D01*
X2941000D01*
G01X2882900Y5398000D02*
Y5343100D01*
X2887000Y5339000D01*
G01X2757910Y5557990D02*
Y5484960D01*
G01X3297400Y2311400D02*
Y2277900D01*
X3302000Y2273300D01*
Y2221570D01*
X3297400Y2216970D01*
G01D02*
Y2222500D01*
G01Y2216970D02*
Y2159000D01*
G01X3330000Y3850000D02*
X3290000D01*
X3280000Y3840000D01*
G01X3240000Y3850000D02*
X3270000D01*
X3280000Y3840000D01*
G01X3267820Y4029820D02*
Y4016080D01*
X3292400Y3991500D01*
Y3979390D01*
X3293430Y3978360D01*
G01X3334000Y4532000D02*
X3416300Y4449700D01*
Y4282540D01*
X3519350Y4179490D01*
X3618310D01*
X3733800Y4064000D01*
X3810000D01*
G54D69*
X3211100Y3615900D03*
Y3575900D03*
X3340100D03*
Y3615900D03*
G54D79*
G01X920750Y3872770D02*
Y3721100D01*
G01X837800Y4440200D02*
Y4254900D01*
X874000Y4218700D01*
Y4081900D01*
X899520Y4056380D01*
X947420D01*
X971550Y4032250D01*
Y3923570D01*
X920750Y3872770D01*
G01X901700Y5055360D02*
X913640Y5043420D01*
Y4965700D01*
G01D02*
X882480Y4934540D01*
Y4782960D01*
X887800Y4777640D01*
Y4729200D01*
G01X2214880Y266700D02*
X2258000D01*
X2284220Y292920D01*
Y633220D01*
X2331640Y680640D01*
Y713330D01*
X2337130Y718820D01*
Y771880D01*
G01X2392680Y266700D02*
X2339300D01*
X2312160Y293840D01*
Y621640D01*
X2359580Y669060D01*
Y700960D01*
X2377110Y718490D01*
Y771880D01*
M02*
