G04 ================== begin FILE IDENTIFICATION RECORD ==================*
G04 Layout Name:  D:/projects/Popcorn/Rev2.0/Brd/Popcorn Computer Rev 2p0_Release.brd*
G04 Film Name:    vcc1*
G04 File Format:  Gerber RS274X*
G04 File Origin:  Cadence Allegro 16.6-2015-S105*
G04 Origin Date:  Tue Jul 21 11:26:31 2020*
G04 *
G04 Layer:  VIA CLASS/VCC1*
G04 Layer:  PIN/VCC1*
G04 Layer:  ETCH/VCC1*
G04 Layer:  BOARD GEOMETRY/OUTLINE*
G04 *
G04 Offset:    (0.0000 0.0000)*
G04 Mirror:    No*
G04 Mode:      Positive*
G04 Rotation:  0*
G04 FullContactRelief:  No*
G04 UndefLineWidth:     0.1270*
G04 ================== end FILE IDENTIFICATION RECORD ====================*
%FSLAX25Y25*MOMM*%
%IR0*IPPOS*OFA0.00000B0.00000*MIA0B0*SFA1.00000B1.00000*%
%ADD18O,.95X2.1001*%
%ADD11C,.4064*%
%ADD17C,.6604*%
%ADD16C,.4572*%
%ADD20C,.5999*%
%ADD19C,1.1001*%
%ADD15O,1.3X2.7501*%
%ADD12C,4.*%
%ADD10C,1.5001*%
%ADD14O,1.524X1.1176*%
%ADD21C,1.651*%
%ADD13O,1.1999X2.3*%
%ADD22C,.127*%
%ADD23C,.254*%
%ADD24C,.1397*%
%ADD27C,.61*%
%ADD28C,.7116*%
%ADD33C,.6354*%
%ADD32C,.864*%
%ADD29C,.7624*%
%ADD31C,1.0068*%
%ADD30C,1.3038*%
%ADD26C,2.0086*%
%ADD25C,1.7038*%
G75*
%LPD*%
G75*
G36*
G01X-76200Y127000D02*
X-114300Y165100D01*
Y600470D01*
G02X-96520Y607190I10160J0D01*
G03X-76530Y597020I22855J20193D01*
G02X-70370Y579650I-958J-10117D01*
G03X-60270Y427660I70370J-71654D01*
G02X-62400Y410180I-6096J-8127D01*
G03X-22490Y394170I11901J-28081D01*
G02X-11950Y408280I9328J4024D01*
G03X81560Y449400I11946J99718D01*
G02X99740Y445630I8251J-5929D01*
G03X158310Y441990I29801J6490D01*
G02X175800Y444980I9579J-3382D01*
G03X290490Y414430I78200J63019D01*
G02X304130Y407030I3693J-9463D01*
G03X345110Y441610I29871J6173D01*
G02X340100Y456300I3699J9461D01*
G03X354320Y512760I-86098J51705D01*
G02X363520Y523350I10147J476D01*
G03X340650Y576720I-2840J30368D01*
G02X326630Y577360I-6675J7660D01*
G03X195030Y589290I-72629J-69361D01*
G02X179270Y594830I-5962J8227D01*
G03X150100Y556240I-29409J-8090D01*
G02X159710Y542580I73J-10159D01*
G03X154950Y491430I94291J-34571D01*
G02X141080Y480350I-10023J-1675D01*
G03X113810Y478250I-11542J-28231D01*
G02X98590Y488890I-5245J8704D01*
G03X65830Y583840I-98592J19110D01*
G02X67710Y600480I6662J7674D01*
G03X23710Y620130I-14374J26901D01*
G02X12570Y607640I-9868J-2412D01*
G03X-32480Y603030I-12565J-99640D01*
G02X-45230Y616330I-3282J9615D01*
G03X-96520Y647570I-28428J11050D01*
G02X-114300Y654290I-7620J6720D01*
G01Y864630D01*
G02X-96520Y871350I10160J0D01*
G03Y911730I22860J20190D01*
G02X-114300Y918450I-7620J6720D01*
G01Y1116090D01*
G02X-96520Y1122810I10160J0D01*
G03Y1163190I22860J20190D01*
G02X-114300Y1169910I-7620J6720D01*
G01Y1370090D01*
G02X-96520Y1376810I10160J0D01*
G03Y1417190I22860J20190D01*
G02X-114300Y1423910I-7620J6720D01*
G01Y1621550D01*
G02X-96520Y1628270I10160J0D01*
G03Y1668650I22860J20190D01*
G02X-114300Y1675370I-7620J6720D01*
G01Y1880630D01*
G02X-96520Y1887350I10160J0D01*
G03Y1927730I22860J20190D01*
G02X-114300Y1934450I-7620J6720D01*
G01Y2127010D01*
G02X-96520Y2133730I10160J0D01*
G03Y2174110I22860J20190D01*
G02X-114300Y2180830I-7620J6720D01*
G01Y2383550D01*
G02X-96520Y2390270I10160J0D01*
G03Y2430650I22860J20190D01*
G02X-114300Y2437370I-7620J6720D01*
G01Y2637550D01*
G02X-96520Y2644270I10160J0D01*
G03Y2684650I22860J20190D01*
G02X-114300Y2691370I-7620J6720D01*
G01Y2894090D01*
G02X-96520Y2900810I10160J0D01*
G03Y2941190I22860J20190D01*
G02X-114300Y2947910I-7620J6720D01*
G01Y3145550D01*
G02X-96520Y3152270I10160J0D01*
G03Y3192650I22860J20190D01*
G02X-114300Y3199370I-7620J6720D01*
G01Y3402090D01*
G02X-96520Y3408810I10160J0D01*
G03Y3449190I22860J20190D01*
G02X-114300Y3455910I-7620J6720D01*
G01Y3651010D01*
G02X-96520Y3657730I10160J0D01*
G03Y3698110I22860J20190D01*
G02X-114300Y3704830I-7620J6720D01*
G01Y3907550D01*
G02X-96520Y3914270I10160J0D01*
G03Y3954650I22860J20190D01*
G02X-114300Y3961370I-7620J6720D01*
G01Y4166630D01*
G02X-96520Y4173350I10160J0D01*
G03Y4213730I22860J20190D01*
G02X-114300Y4220450I-7620J6720D01*
G01Y4381500D01*
X-76200Y4419600D01*
X-62200D01*
G02X-56490Y4401040I-1J-10159D01*
G03X56490I56490J-83040D01*
G02X62200Y4419600I5711J8401D01*
G01X107950D01*
X111120Y4416420D01*
X351110D01*
G03X384550Y4412760I20131J29339D01*
G01X387670Y4414020D01*
X401140Y4400550D01*
X445040Y4356640D01*
Y4152900D01*
X558800Y4039140D01*
Y3169740D01*
X552450Y3163390D01*
Y1626690D01*
X613290Y1565850D01*
X613680Y1565000D01*
G03X629520Y1549160I28940J13100D01*
G01X630370Y1548770D01*
X680310Y1498830D01*
X679870Y1496250D01*
G03X716470Y1459650I31330J-5270D01*
G01X719050Y1460090D01*
X832940Y1346200D01*
X1074240D01*
X1076870Y1343570D01*
X1183730D01*
X1562880Y964420D01*
G02X1560500Y948280I-7183J-7186D01*
G03X1551050Y892960I16839J-31344D01*
G02X1550930Y885980I-3750J-3427D01*
G03X1602610Y885040I25395J-24920D01*
G02X1602730Y892020I3750J3427D01*
G03X1608680Y900100I-25387J24926D01*
G02X1624820Y902480I8954J-4803D01*
G01X1749790Y777510D01*
G02X1742340Y760170I-7182J-7185D01*
G03X1769980Y745790I-944J-35568D01*
G02X1778140Y762000I8163J6050D01*
G01X2044520D01*
X2044610Y761910D01*
X2197190D01*
X2209780Y749320D01*
Y696330D01*
X2184380Y670930D01*
Y637170D01*
X2197100Y624450D01*
Y558800D01*
X2222500Y533400D01*
X2781300D01*
X2895600Y647700D01*
Y838200D01*
X2882900Y850900D01*
Y881680D01*
G02X2894330Y891760I10160J0D01*
G03X2923010Y939680I3811J30261D01*
G02X2925380Y953820I8285J5880D01*
G03X2896700Y1007090I-17757J24795D01*
G02X2882900Y1016580I-3639J9487D01*
G01Y1333900D01*
G02X2896870Y1343320I10159J3D01*
G03X2928050Y1348360I11426J28279D01*
G02X2941380Y1348200I6573J-7747D01*
G03X2992250Y1348370I25340J28479D01*
G02X2999060Y1348360I3399J-3775D01*
G03X3050650Y1348780I25567J28272D01*
G02X3057580I3465J-3716D01*
G03X3057540Y1404530I25981J27894D01*
G02X3050610I-3465J3716D01*
G03X2999100Y1404940I-25979J-27899D01*
G02X2992290Y1404950I-3399J3775D01*
G03X2936840Y1400360I-25575J-28269D01*
G02X2923740Y1397900I-7965J6305D01*
G03X2896870Y1399880I-15446J-26300D01*
G02X2882900Y1409300I-3811J9417D01*
G01Y1523340D01*
G02X2900160Y1530610I10160J3D01*
G03X2945490Y1571230I21321J21810D01*
G02X2946650Y1585000I8002J6260D01*
G03X2929610Y1650340I-25649J28203D01*
G02X2924720Y1667420I2292J9896D01*
G01X2946400Y1689100D01*
X3509280D01*
G03X3602720I46720J88900D01*
G01X3732290D01*
G02X3739010Y1671320I0J-10160D01*
G03X3746540Y1620710I20190J-22861D01*
G02X3748540Y1603430I-4214J-9243D01*
G03X3752660Y1441540I61458J-79433D01*
G02X3749950Y1423520I-5797J-8342D01*
G03X3746540Y1366710I9251J-29063D01*
G02X3748540Y1349430I-4214J-9243D01*
G03X3751340Y1188480I61459J-79430D01*
G02X3749490Y1170930I-5933J-8247D01*
G03Y1115070I12250J-27930D01*
G02X3751340Y1097520I-4083J-9303D01*
G03X3749750Y935650I58660J-81519D01*
G02X3746900Y917900I-6098J-8125D01*
G03Y860100I9760J-28900D01*
G02X3749750Y842350I-3248J-9625D01*
G03X3780710Y665940I60251J-80348D01*
G02X3786260Y650670I-2962J-9720D01*
G03X3785480Y618590I25540J-16670D01*
G02X3779770Y603770I-8770J-5131D01*
G03X3842960Y602870I30237J-95770D01*
G02X3837670Y617850I3328J9599D01*
G03X3836870Y651380I-25870J16157D01*
G02X3841980Y666800I8347J5791D01*
G03X3794810Y861270I-31992J95196D01*
G02X3784120Y875740I-1540J10046D01*
G03Y902260I-27460J13260D01*
G02X3794810Y916730I9150J4424D01*
G03X3840370Y920270I15204J99271D01*
G02X3852990Y907100I3077J-9683D01*
G03X3885860Y926820I28639J-10482D01*
G02X3880170Y944150I1412J10063D01*
G03X3799720Y1115900I-70170J71848D01*
G02X3789450Y1130250I-1039J10106D01*
G03Y1155750I-27710J12750D01*
G02X3799720Y1170100I9231J4244D01*
G03X3798320Y1369750I10281J99902D01*
G02X3787660Y1383490I-1179J10090D01*
G03X3785740Y1409490I-28460J10969D01*
G02X3796000Y1424550I8844J5000D01*
G03X3798320Y1623750I13997J99450D01*
G02X3787660Y1637490I-1179J10090D01*
G03X3785740Y1663490I-28460J10969D01*
G02X3796000Y1678550I8844J5000D01*
G03X3855650Y1688540I14006J99450D01*
G01X3856740Y1689100D01*
X3873840D01*
Y1680590D01*
X3870650Y1679310D01*
G03X3912510Y1650970I11359J-28308D01*
G02X3929850Y1658150I10160J-8D01*
G01X3937000Y1651000D01*
Y165100D01*
X3898900Y127000D01*
X3390740D01*
G02X3381860Y142110I-5J10161D01*
G03X3389170Y170200I-50369J28104D01*
G01Y285220D01*
G03X3273810I-57680J-5D01*
G01Y170200D01*
G03X3281120Y142110I57679J14D01*
G02X3272240Y127000I-8875J-4949D01*
G01X2823760D01*
G02X2814880Y142110I-5J10161D01*
G03X2822190Y170200I-50369J28104D01*
G01Y285220D01*
G03X2706830I-57680J-5D01*
G01Y225220D01*
G02X2693280Y215640I-10159J-4D01*
G03X2654000Y204790I-11874J-33539D01*
G02X2640070Y203150I-7825J6482D01*
G03X2646100Y152010I-21371J-28445D01*
G02X2660030Y153650I7825J-6482D01*
G03X2698150Y150710I21368J28450D01*
G02X2712150Y146010I4779J-8966D01*
G03X2714140Y142110I52335J24246D01*
G02X2705260Y127000I-8875J-4949D01*
G01X2222640D01*
G02X2214230Y142870I-4J10161D01*
G03X2163770I-25230J17130D01*
G02X2155360Y127000I-8406J-5709D01*
G01X1833900D01*
Y243600D01*
G02X1847020Y253320I10159J2D01*
G03X1875670Y305730I8884J29179D01*
G02X1875240Y320820I6581J7739D01*
G03X1846590Y372440I-21039J22084D01*
G02X1833900Y382270I-2532J9838D01*
G01Y389480D01*
X1840120D01*
X1841150Y388990D01*
G03X1846590Y446100I13047J27571D01*
G02X1833900Y455930I-2532J9838D01*
G01Y463140D01*
X1840120D01*
X1841150Y462650D01*
G03X1870590Y515940I13051J27567D01*
G02Y533080I5460J8570D01*
G03X1843200Y587250I-16390J25723D01*
G02X1829880Y593600I-3656J9477D01*
G03X1777040Y603250I-29018J-9399D01*
G02X1761180I-7930J6350D01*
G03X1714500Y604390I-23819J-19050D01*
G02X1699260I-7620J6721D01*
G03X1651630Y602000I-22862J-20190D01*
G02X1635130I-8250J5925D01*
G03X1586540Y603250I-24769J-17799D01*
G02X1570680I-7930J6350D01*
G03X1522090Y602000I-23821J-19049D01*
G02X1505590I-8250J5925D01*
G03X1457000Y603250I-24769J-17799D01*
G02X1441140I-7930J6350D01*
G03X1392550Y602000I-23821J-19049D01*
G02X1376050I-8250J5925D01*
G03X1327460Y603250I-24769J-17799D01*
G02X1311600I-7930J6350D01*
G03X1263010Y602000I-23821J-19049D01*
G02X1246510I-8250J5925D01*
G03X1219550Y553780I-24769J-17798D01*
G02X1224260Y548710I-370J-5067D01*
G01Y542290D01*
G02X1211570Y532460I-10158J8D01*
G03X1184910Y479100I-7613J-29536D01*
G02Y463240I-6350J-7930D01*
G03X1185760Y414950I19051J-23817D01*
G02X1185200Y398250I-6061J-8156D01*
G03X1183270Y348300I16501J-25650D01*
G02X1183820Y332560I-6140J-8094D01*
G03X1211550Y280080I20080J-22956D01*
G02X1224260Y270240I2549J-9836D01*
G01Y127000D01*
X-76200D01*
G37*
G36*
G01X533400Y4114800D02*
X482600Y4165600D01*
Y4394200D01*
X419100Y4457700D01*
X404910D01*
X403550Y4460650D01*
G03X338930I-32310J-14890D01*
G01X337570Y4457700D01*
X-38100D01*
X-76200Y4495800D01*
Y4503220D01*
G02X-59000Y4510550I10160J4D01*
G03Y4633450I59000J61450D01*
G02X-76200Y4640780I-7040J7326D01*
G01Y4737290D01*
G02X-59970Y4745440I10159J4D01*
G03Y4906560I59970J80560D01*
G02X-76200Y4914710I-6071J8146D01*
G01Y5011220D01*
G02X-59000Y5018550I10160J4D01*
G03X61450Y5139000I59000J61450D01*
G02X68780Y5156200I7326J7040D01*
G01X165290D01*
G02X173440Y5139970I4J-10159D01*
G03X328190Y5147700I80564J-59968D01*
G01X326860Y5149150D01*
Y5156200D01*
X345140D01*
X345700Y5151750D01*
G03X416300I35300J4450D01*
G01X416860Y5156200D01*
X578780D01*
X579410Y5151850D01*
G03X633420Y5137150I30189J4349D01*
G02X649280I7930J-6350D01*
G03X703290Y5151850I23821J19049D01*
G01X703920Y5156200D01*
X787400D01*
X796930Y5146670D01*
X797310Y5145550D01*
G03X819550Y5123310I33690J11450D01*
G01X820670Y5122930D01*
X927100Y5016500D01*
X1028700D01*
X1104900Y5092700D01*
X1493570D01*
G02X1503150Y5079160I1J-10158D01*
G03X1501820Y5060270I33549J-11854D01*
G02X1487720Y5048980I-9959J-2012D01*
G03X1508080Y5023530I-14518J-32483D01*
G02X1522180Y5034820I9959J2012D01*
G03X1559670Y5040130I14521J32481D01*
G03X1616460Y5079090I23328J26867D01*
G02X1626020Y5092700I9557J3449D01*
G01X1783600D01*
X1784600Y5088920D01*
G03X1805030Y5065280I34400J9081D01*
G02X1807900Y5059160I-1999J-4670D01*
G03X1809070Y5035530I34100J-10156D01*
G02X1806820Y5029160I-4702J-1921D01*
G03X1818480Y4962850I17178J-31160D01*
G01X1820120Y4962590D01*
X1824880Y4957830D01*
X1820910Y4953860D01*
Y4878920D01*
X1857440Y4842390D01*
Y4784440D01*
G02X1841440Y4776120I-10160J-5D01*
G03X1828800Y4781710I-20436J-29123D01*
G02X1821190Y4794180I2226J9915D01*
G03X1790170Y4838560I-34433J8964D01*
G02X1785580Y4843540I487J5054D01*
G03X1746590Y4807580I-35579J-541D01*
G02X1751180Y4802600I-487J-5054D01*
G03X1765340Y4774730I35577J544D01*
G02X1762290Y4756930I-6114J-8114D01*
G03X1746840Y4698880I10709J-33931D01*
G02X1746970Y4692130I-3731J-3448D01*
G03X1738470Y4667040I27026J-23141D01*
G02X1728330Y4656320I-10143J-562D01*
G01X1722670D01*
X1689150Y4622800D01*
X1543600D01*
G02X1534180Y4636770I-3J10159D01*
G03X1477620I-28280J11430D01*
G02X1468200Y4622800I-9417J-3811D01*
G01X1409300D01*
G02X1399880Y4636770I-3J10159D01*
G03X1343320I-28280J11430D01*
G02X1333900Y4622800I-9417J-3811D01*
G01X1275000D01*
G02X1265580Y4636770I-3J10159D01*
G03X1209020I-28280J11430D01*
G02X1199600Y4622800I-9417J-3811D01*
G01X1104900D01*
X1000440Y4727260D01*
X1002490Y4730660D01*
G03X981610Y4783260I-30490J18341D01*
G01X977900Y4784300D01*
Y4797200D01*
X978360Y4798210D01*
G03Y4827790I-32360J14790D01*
G01X977900Y4828800D01*
Y4838700D01*
X914400Y4902200D01*
X878650D01*
G02X868500Y4912520I7J10158D01*
G03X812960Y4895580I-30499J476D01*
G01X815390Y4892090D01*
X776740Y4853440D01*
G02X759410Y4859990I-7189J7180D01*
G03X701670Y4885580I-35511J-2191D01*
G02X695330I-3170J3970D01*
G03X645460Y4835400I-22225J-27783D01*
G03X695330Y4785220I27645J-22397D01*
G02X701670I3170J-3970D01*
G03X725880Y4777470I22237J27777D01*
G02X736600Y4767330I562J-10142D01*
G01Y4445000D01*
X698500Y4406900D01*
Y4178300D01*
X692920Y4172720D01*
X689610Y4174470D01*
G03X641530Y4126390I-16610J-31470D01*
G01X643280Y4123080D01*
X635000Y4114800D01*
X533400D01*
G37*
G36*
G01X2235200Y596900D02*
Y622300D01*
X2209800Y647700D01*
Y660400D01*
X2213180Y663780D01*
X2214060Y664160D01*
G03X2232540Y682640I-14160J32640D01*
G01X2232920Y683520D01*
X2235200Y685800D01*
Y692340D01*
X2235230Y692630D01*
G03Y700970I-35330J4170D01*
G01X2235200Y701260D01*
Y762000D01*
X2197100Y800100D01*
X2080400D01*
G02X2070250Y810670I2J10160D01*
G03X1999150I-35550J1430D01*
G02X1989000Y800100I-10152J-410D01*
G01X1768020D01*
X1763060Y805060D01*
G02X1769560Y822380I7185J7183D01*
G03X1731680Y860260I-2380J35500D01*
G02X1714360Y853760I-10137J685D01*
G01X1591210Y976910D01*
G02X1592100Y992060I7188J7179D01*
G03X1549260Y1034900I-18900J23940D01*
G02X1534110Y1034010I-7971J6298D01*
G01X1428340Y1139780D01*
G02X1430230Y1155640I7182J7187D01*
G03X1430320Y1155690I-15370J27771D01*
G02X1443680Y1153260I5327J-8653D01*
G03X1491580Y1150560I25122J19442D01*
G02X1505760Y1150950I7290J-7079D01*
G03X1504520Y1196440I21541J23349D01*
G02X1490340Y1196050I-7290J7079D01*
G03X1452150Y1199760I-21544J-23350D01*
G02X1438790Y1202190I-5327J8653D01*
G03X1386560Y1199310I-25122J-19443D01*
G02X1370700Y1197420I-8673J5292D01*
G01X1171120Y1397000D01*
X850900D01*
X784590Y1463310D01*
X787890Y1466900D01*
G03X789500Y1468780I-23308J21590D01*
G02X802420Y1471370I7979J-6285D01*
G03X792920Y1518790I15458J27758D01*
G02X780000Y1516200I-7979J6285D01*
G03X743000Y1511790I-15454J-27759D01*
G01X739410Y1508490D01*
X674170Y1573730D01*
X674320Y1576020D01*
G03X640540Y1609800I-31700J2080D01*
G01X638250Y1609650D01*
X596900Y1651000D01*
Y3423110D01*
G02X612020Y3431980I10161J2D01*
G03Y3485220I14880J26620D01*
G02X596900Y3494090I-4959J8868D01*
G01Y4020100D01*
X687140Y4110340D01*
X687960Y4110720D01*
G03X705280Y4128040I-14960J32280D01*
G01X705660Y4128860D01*
X726800Y4150000D01*
Y4384400D01*
X749300Y4406900D01*
Y4436120D01*
X751860Y4438680D01*
Y4791000D01*
G03X759250Y4808990I-27961J21999D01*
G01X759450Y4810750D01*
X825500Y4876800D01*
X901700D01*
X923510Y4854990D01*
G02X922920Y4840080I-7185J-7182D01*
G03X934500Y4779330I23080J-27079D01*
G02X940280Y4765110I-3279J-9617D01*
G03X940340Y4732770I31721J-16111D01*
G02X937230Y4719890I-9043J-4632D01*
G03X929070Y4670280I20768J-28892D01*
G02X927520Y4656730I-8256J-5919D01*
G03X926280Y4604410I23480J-26731D01*
G02X926780Y4597670I-3532J-3651D01*
G03X922700Y4561070I28219J-21673D01*
G02X918480Y4547970I-9222J-4259D01*
G03X913890Y4489120I17518J-30970D01*
G02X914340Y4473570I-6308J-7964D01*
G03X932090Y4411910I23660J-26574D01*
G02X939200Y4396810I-1686J-10018D01*
G03X936570Y4391170I30806J-17799D01*
G02X930320Y4388050I-4773J1742D01*
G03X937380Y4322950I-10319J-34052D01*
G02X952500Y4314090I4961J-8865D01*
G01Y4276710D01*
G02X942710Y4266560I-10159J2D01*
G03Y4195440I1290J-35560D01*
G02X952500Y4185290I-369J-10152D01*
G01Y4127480D01*
X963000Y4116980D01*
Y4065350D01*
X1097680Y3930670D01*
X1146990D01*
X1148120Y3927140D01*
G03X1175710Y3902980I33882J10859D01*
G01X1177280Y3902700D01*
X1228960Y3851020D01*
Y3835600D01*
G02X1213250Y3827090I-10161J1D01*
G03X1174870Y3827430I-19455J-29790D01*
G02X1168150Y3828630I-2699J4302D01*
G03X1156280Y3782080I-24150J-18630D01*
G02X1162760Y3779910I2046J-4649D01*
G03X1220310Y3773570I31040J17390D01*
G02X1235060Y3773970I7564J-6781D01*
G01X1287960Y3721070D01*
Y3653740D01*
G02X1273180Y3644690I-10159J-3D01*
G03X1236640Y3642180I-16179J-31689D01*
G03X1218590Y3575770I-17766J-30829D01*
G02X1225690Y3558430I-84J-10158D01*
G01X1214570Y3547310D01*
Y2985230D01*
G02X1201640Y2975460I-10160J5D01*
G03X1153190Y2940800I-10382J-36680D01*
G02X1143040Y2931180I-10144J538D01*
G03X1181070Y2891040I-38J-38121D01*
G02X1191220Y2900660I10144J-538D01*
G03X1201640Y2902100I41J38120D01*
G02X1214570Y2892330I2770J-9775D01*
G01Y2873170D01*
G02X1203430Y2863060I-10159J2D01*
G03X1207750Y2803070I-2925J-30361D01*
G01X1210520Y2803750D01*
X1219200Y2795070D01*
Y2761160D01*
X1256020Y2724340D01*
G02X1254660Y2708840I-7188J-7179D01*
G03X1304220Y2659280I20420J-29140D01*
G02X1319720Y2660640I8321J-5828D01*
G01X1336140Y2644220D01*
X1332540Y2640610D01*
X1332520Y2640590D01*
G03X1377370Y2569110I30273J-30816D01*
G02X1390960Y2559540I3429J-9565D01*
G01Y2554190D01*
G02X1377850Y2544460I-10162J-6D01*
G03X1402930Y2481840I-12518J-41346D01*
G02X1418950Y2484020I8839J-5004D01*
G01X1436400Y2466570D01*
Y2466280D01*
X1488480Y2414200D01*
X1488770D01*
X1717730Y2185240D01*
X2023030D01*
X2148960Y2059310D01*
G02X2144490Y2042340I-7184J-7181D01*
G03X2174970Y1992170I8157J-29388D01*
G02X2189590Y1992430I7435J-6925D01*
G01X2352510Y1829510D01*
G03X2392290Y1783970I22906J-20135D01*
G01X2395750Y1786270D01*
X2505620Y1676400D01*
X2525430D01*
X2535220Y1666610D01*
X2535600Y1665790D01*
G03X2602580Y1672480I32343J14829D01*
G01X2603500Y1676400D01*
X2768600D01*
X2834640Y1610360D01*
Y1171400D01*
G02X2823740Y1161270I-10158J1D01*
G03Y1090290I-2580J-35490D01*
G02X2834640Y1080160I742J-10131D01*
G01Y830760D01*
X2830740Y826860D01*
Y684440D01*
X2743200Y596900D01*
X2235200D01*
G37*
G36*
G01X965180Y5041920D02*
X914400Y5092700D01*
Y5193290D01*
X954710Y5233600D01*
X1228330D01*
X1276010Y5281280D01*
X1276830Y5281660D01*
G03X1284000Y5286040I-14833J32339D01*
G02X1291950Y5280400I3145J-3989D01*
G03X1345040Y5289010I28849J-9900D01*
G02X1345550Y5295740I4042J3078D01*
G03X1294590Y5345360I-24742J25568D01*
G02X1281530Y5343740I-7483J6873D01*
G03X1246900Y5346220I-19534J-29739D01*
G02X1240250Y5348440I-2161J4596D01*
G03X1183120Y5356420I-31447J-16642D01*
G02X1176370Y5355900I-3666J3517D01*
G03X1122010Y5313780I-21573J-28297D01*
G02X1112650Y5299680I-9363J-3941D01*
G01X1096000D01*
Y5405370D01*
X1131610Y5440980D01*
X1132430Y5441360D01*
G03X1151480Y5462830I-14828J32343D01*
G02X1165850Y5468740I9676J-3101D01*
G03X1148410Y5511160I16439J31554D01*
G02X1134040Y5505250I-9676J3101D01*
G03X1108700Y5508150I-16447J-31550D01*
G02X1096000Y5517990I-2541J9837D01*
G01Y5563000D01*
X1148000Y5615000D01*
X1729000D01*
X1798000Y5684000D01*
X1889790D01*
G02X1898940Y5669430I-3J-10160D01*
G03X1964080Y5667100I32060J-15430D01*
G02X1966700Y5673600I4722J1875D01*
G03X1979960Y5684000I-14702J32399D01*
G01X2074000D01*
X2092020Y5665980D01*
X2091710Y5663510D01*
G03X2131510Y5623710I35290J-4510D01*
G01X2133980Y5624020D01*
X2143000Y5615000D01*
X2143100D01*
G02X2152370Y5600680I1J-10160D01*
G03X2208370Y5599890I27830J-12480D01*
G02X2212600Y5612530I9386J3887D01*
G03X2216170Y5615000I-15524J26253D01*
G01X2235250D01*
X2245390Y5604860D01*
G02X2240380Y5587760I-7185J-7179D01*
G03X2268260Y5523750I7624J-34756D01*
G02X2284200Y5515400I5781J-8354D01*
G01Y5348280D01*
X2335380Y5297100D01*
X2465540D01*
X2553990Y5385550D01*
Y5500740D01*
X2563760Y5510510D01*
X2714840D01*
G02X2724400Y5496930I-5J-10158D01*
G03X2791420I33510J-11970D01*
G02X2800980Y5510510I9565J3422D01*
G01X2801240D01*
G02X2810920Y5497250I3J-10161D01*
G03X2869510Y5460800I33884J-10849D01*
G02X2883520Y5460890I7052J-7315D01*
G03X2941880Y5497340I24373J25921D01*
G02X2951580Y5510510I9702J3012D01*
G01X2980840D01*
G02X2989300Y5494730I-2J-10159D01*
G03X3036190Y5452810I26456J-17592D01*
G03X3069800Y5446740I21567J23330D01*
G02X3083810Y5437340I3850J-9402D01*
G01Y5412330D01*
X3153330Y5342810D01*
Y5310180D01*
X3062870Y5219720D01*
X2821840D01*
X2821220Y5224080D01*
G03X2810200Y5245080I-35215J-5088D01*
G02X2809560Y5251820I3452J3728D01*
G03X2746720Y5263030I-28659J21082D01*
G02X2735410Y5250170I-9761J-2819D01*
G03X2694570Y5211760I-5408J-35167D01*
G01X2694790Y5209390D01*
X2660790Y5175390D01*
X2659580Y5175020D01*
G03X2635980Y5151420I10420J-34020D01*
G01X2635610Y5150210D01*
X2628920Y5143520D01*
X2563300D01*
G03X2517380I-22960J-27180D01*
G01X2402470D01*
X2326270Y5067320D01*
X2197780D01*
X2196590Y5070730D01*
G03X2129400Y5070710I-33592J-11729D01*
G01X2128210Y5067300D01*
X1938330D01*
Y5358740D01*
X1941730Y5359930D01*
G03X1935270Y5428710I-11729J33592D01*
G02X1929590Y5445940I1504J10047D01*
G01X1935170Y5451520D01*
X1936860Y5451750D01*
G03X1915080Y5518300I-4863J35247D01*
G02X1908530Y5519810I-2419J4467D01*
G03X1847530Y5483700I-28924J-20718D01*
G01X1849080Y5480450D01*
X1835990Y5467360D01*
Y5391740D01*
G02X1825870Y5381580I-10160J0D01*
G03X1842210Y5314330I128J-35579D01*
G02X1857000Y5305280I4629J-9045D01*
G01Y5134290D01*
G02X1840660Y5126230I-10159J2D01*
G03X1789660Y5118120I-21656J-28230D01*
G01X1094370D01*
X1018170Y5041920D01*
X965180D01*
G37*
G36*
G01X2603500Y1739900D02*
X2506360Y1837040D01*
G02X2512540Y1854330I7188J7180D01*
G03X2530480Y1862520I-3017J30351D01*
G02X2544440I6980J-7379D01*
G03Y1906840I20960J22160D01*
G02X2530480I-6980J7379D01*
G03X2479170Y1887700I-20959J-22159D01*
G02X2461880Y1881520I-10110J1008D01*
G01X2181300Y2162100D01*
X2182080Y2164940D01*
G03X2144620Y2202400I-29430J8030D01*
G01X2141780Y2201620D01*
X2099340Y2244060D01*
G02X2104540Y2261210I7182J7186D01*
G03X2109410Y2319630I-5969J29911D01*
G02X2104020Y2333840I3607J9495D01*
G03X2066160Y2319490I-27016J14160D01*
G02X2071550Y2305280I-3607J-9495D01*
G03X2069440Y2300150I27036J-14119D01*
G02X2057000Y2293380I-9702J3014D01*
G03X2029750Y2287820I-8198J-29379D01*
G02X2017050I-6350J7930D01*
G03X1967530Y2265440I-19052J-23819D01*
G01X1967310Y2260600D01*
X1752600D01*
X1555430Y2457770D01*
G02X1555510Y2472220I7182J7185D01*
G03X1494420Y2533310I-30190J30900D01*
G02X1479970Y2533230I-7265J7102D01*
G01X1466850Y2546350D01*
Y2660650D01*
X1331940Y2795560D01*
G02X1339120Y2812900I7188J7180D01*
G03X1308600Y2843420I-20J30500D01*
G02X1291260Y2836240I-10160J8D01*
G01X1273030Y2854470D01*
Y3292820D01*
G02X1285720Y3302650I10158J-8D01*
G03X1316210Y3312020I7607J29538D01*
G02X1329420Y3313790I7623J-6715D01*
G03X1336110Y3310480I16769J25476D01*
G02X1341220Y3295290I-3366J-9587D01*
G03X1368860Y3248060I25450J-16809D01*
G02X1379750Y3238070I732J-10133D01*
G03X1391280Y3214620I30497J435D01*
G02X1393050Y3200530I-6325J-7951D01*
G03X1436340Y3206000I24317J-18410D01*
G02X1434570Y3220090I6325J7951D01*
G03X1403040Y3268130I-24319J18406D01*
G02X1396820Y3273840I-1199J4936D01*
G03X1396990Y3275210I-30175J4440D01*
G02X1407750Y3284260I10102J-1089D01*
G03X1391900Y3339470I1948J30439D01*
G02X1376030Y3345600I-5933J8248D01*
G03X1323320Y3359430I-29833J-6340D01*
G02X1310110Y3357660I-7623J6715D01*
G03X1285720Y3361730I-16785J-25468D01*
G02X1273030Y3371560I-2532J9838D01*
G01Y3523090D01*
X1346420Y3596480D01*
Y3619720D01*
X1371600Y3644900D01*
X2603500D01*
X2609830Y3651230D01*
X2611980D01*
X2985240Y4024490D01*
Y4026640D01*
X2994700Y4036100D01*
X2997510Y4035360D01*
G03X3036280Y4074130I8030J30740D01*
G01X3035540Y4076940D01*
X3124200Y4165600D01*
X3126470D01*
G02X3136530Y4154050I-4J-10160D01*
G03X3199470I31470J-4350D01*
G02X3209530Y4165600I10064J1390D01*
G01X3217910D01*
Y4160210D01*
X3217870Y4159900D01*
G03X3275400Y4137740I31530J-3901D01*
G02X3292540Y4136940I8316J-5836D01*
G03X3351840Y4154770I27600J15732D01*
G02X3361980Y4165600I10138J670D01*
G01X3606800D01*
X3646070Y4126330D01*
Y3862020D01*
G02X3627400Y3856480I-10158J3D01*
G03Y3763520I-71400J-46480D01*
G02X3646070Y3757980I8512J-5543D01*
G01Y3608020D01*
G02X3627400Y3602480I-10158J3D01*
G03Y3509520I-71400J-46480D01*
G02X3646070Y3503980I8512J-5543D01*
G01Y3443350D01*
G02X3632670Y3433720I-10161J0D01*
G03X3593740Y3396060I-9712J-28912D01*
G02X3581030Y3383430I-9731J-2918D01*
G03X3543410Y3386250I-25020J-81432D01*
G02X3531760Y3395730I-1504J10049D01*
G03X3485240Y3368070I-30452J-1734D01*
G02X3488000Y3353320I-5349J-8634D01*
G03X3636060Y3331120I68000J-51319D01*
G01X3634950Y3334160D01*
X3647130Y3346330D01*
G02X3664470Y3339140I7181J-7187D01*
G01Y3220950D01*
X3574680Y3131160D01*
X3572040Y3131670D01*
G03X3614720Y3109720I-16045J-83667D01*
G02X3614540Y3124260I7005J7358D01*
G01X3678360Y3188080D01*
G02X3695700Y3180900I7181J-7186D01*
G01Y1752600D01*
X3683000Y1739900D01*
X3663000D01*
G02X3653170Y1752630I0J10161D01*
G03X3458830I-97170J25370D01*
G02X3449000Y1739900I-9830J-2569D01*
G01X2824460D01*
G03X2777200I-23630J-19280D01*
G01X2603500D01*
G37*
G36*
G01X3425540Y5500390D02*
X3382840Y5457690D01*
G02X3365500Y5464870I-7181J7185D01*
G01Y5812630D01*
G02X3379080Y5822190I10159J-5D01*
G03X3479570Y5892980I25309J70793D01*
G01Y6032500D01*
X3822700D01*
X3835400Y6019800D01*
Y5491670D01*
X3831340Y5490830D01*
G03Y5309170I18670J-90830D01*
G01X3835400Y5308330D01*
Y5189530D01*
G02X3823840Y5179470I-10160J3D01*
G03X3749000Y5000220I-13838J-99471D01*
G01X3751000Y4998690D01*
Y4991100D01*
X3744020D01*
X3742670Y4992100D01*
G03X3698980Y4991100I-21202J-28571D01*
G01X3636940D01*
G03X3619920Y5002240I-27182J-22958D01*
G02X3615700Y5019220I2899J9735D01*
G03X3470810Y5080260I-59698J60776D01*
G01X3470790Y5075200D01*
X3407390D01*
X3380280Y5048090D01*
X3046910D01*
G02X3036940Y5060190I3J10160D01*
G03X2986500Y5088580I-29941J5808D01*
G03X2935500Y5065610I-20502J-22581D01*
G01Y5060460D01*
X2859100D01*
X2825800Y5027160D01*
G02X2808480Y5033600I-7187J7182D01*
G03X2760620Y5064360I-35484J-2598D01*
G01X2759770Y5064040D01*
X2754410D01*
X2681470Y4991100D01*
X2578100D01*
X2551830Y4964830D01*
X2550520Y4964470D01*
G03X2525530Y4939480I9340J-34330D01*
G01X2525170Y4938170D01*
X2299760Y4712760D01*
X2173370D01*
X2083410Y4622800D01*
X2041060D01*
Y4676370D01*
X2028690Y4688740D01*
Y4793340D01*
G02X2040150Y4803410I10159J-5D01*
G03X2076820Y4853990I4546J35287D01*
G03X2081320Y4883680I-29641J19679D01*
G02X2088000Y4896220I9751J2855D01*
G03X2103010Y4954690I-10741J33919D01*
G02X2103090Y4961790I3674J3509D01*
G01X2117610Y4976310D01*
X2133330D01*
G03X2185050Y5024710I23532J26687D01*
G02X2185820Y5031700I4028J3094D01*
G03X2194200Y5041900I-22825J27294D01*
G01X2336800D01*
X2413000Y5118100D01*
X2504500D01*
X2504880Y5113430D01*
G03X2575800I35460J2910D01*
G01X2576180Y5118100D01*
X2642770D01*
G03X2695880Y5165410I27229J22899D01*
G02X2695990Y5172490I3699J3483D01*
G01X2709450Y5185950D01*
G03X2738850Y5180540I20544J29051D01*
G02X2751510Y5171430I2527J-9840D01*
G03X2821690Y5181890I35487J2567D01*
G02X2831600Y5194300I9909J2249D01*
G01X3073400D01*
X3187620Y5308520D01*
X3201580Y5294560D01*
X3295210D01*
X3426100Y5425450D01*
G02X3443320Y5416700I7183J-7184D01*
G03X3500360Y5495890I106672J-16697D01*
G01X3497060Y5494180D01*
X3490860Y5500390D01*
X3425540D01*
G37*
%LPC*%
G75*
G36*
G01X440370Y3074500D02*
G03Y3061180I7671J-6660D01*
G02X394330I-23020J-20010D01*
G03Y3074500I-7671J6660D01*
G02X440370I23020J20010D01*
G37*
G36*
G01Y2678260D02*
G03Y2664940I7671J-6660D01*
G02X394330I-23020J-20010D01*
G03Y2678260I-7671J6660D01*
G02X440370I23020J20010D01*
G37*
G36*
G01X418780Y2164130D02*
G03X414020Y2159210I319J-5071D01*
G02X376240Y2195780I-35563J1061D01*
G03X381000Y2200700I-319J5071D01*
G02X418780Y2164130I35563J-1061D01*
G37*
G36*
G01X439980Y2001510D02*
G03X439520Y1994860I3596J-3590D01*
G02X385950Y1998610I-28415J-21411D01*
G03X386410Y2005260I-3596J3590D01*
G02X387950Y2049980I28420J21408D01*
G03Y2056650I-3835J3335D01*
G02X441660Y2056700I26833J23362D01*
G03Y2050030I3835J-3335D01*
G02X439980Y2001510I-26833J-23360D01*
G37*
G36*
G01X3278450Y1516630D02*
G03X3271650Y1516230I-3179J-3963D01*
G02X3268600Y1568920I-25350J24966D01*
G03X3275400Y1569320I3179J3963D01*
G02X3278450Y1516630I25350J-24966D01*
G37*
G36*
G01X3442780Y1249790D02*
G03X3456030Y1260420I3136J9664D01*
G02X3480850Y1203370I99974J9570D01*
G03X3464040Y1200920I-7601J-6738D01*
G02X3442780Y1249790I-32250J15030D01*
G37*
G36*
G01X1079860Y1182600D02*
G03X1066530Y1179650I-5039J-8822D01*
G02X1056340Y1225600I-25931J18354D01*
G03X1069670Y1228550I5039J8822D01*
G02X1079860Y1182600I25931J-18354D01*
G37*
G36*
G01X579870Y1057070D02*
G03Y1064110I-3661J3520D01*
G02X634890Y1108840I25627J24681D01*
G03X648220Y1105680I8396J5723D01*
G02X654420Y1040750I17260J-31113D01*
G03X641100Y1031390I-3164J-9655D01*
G02X632640Y1009370I-35565J1029D01*
G03X632760Y1002650I3868J-3292D01*
G02X579440Y1001660I-26223J-24049D01*
G03X579320Y1008380I-3868J3292D01*
G02X579870Y1057070I26220J24052D01*
G37*
G36*
G01X1230540Y931290D02*
G03X1217420Y930980I-6377J-7911D01*
G02X1219740Y981930I-23622J26603D01*
G03X1232780Y980430I7406J6955D01*
G02X1230540Y931290I16899J-25391D01*
G37*
G36*
G01X1022010Y793130D02*
Y792080D01*
X754970D01*
Y798720D01*
X748700D01*
X747630Y798190D01*
G02X714110Y802430I-13573J27311D01*
G03X700140Y801800I-6653J-7681D01*
G02X698130Y846030I-21961J21163D01*
G03X712100Y846660I6653J7681D01*
G02X742120Y854910I21959J-21162D01*
G03X754970Y864710I2688J9799D01*
G01Y877070D01*
X688980D01*
Y977130D01*
X754970D01*
Y1060110D01*
X1022010D01*
Y861020D01*
G03X1035750Y851510I10160J-2D01*
G02X1029860Y797390I10731J-28548D01*
G03X1022010Y793130I-2769J-4260D01*
G37*
G36*
G01X165850Y810130D02*
G03X160250Y824600I-8915J4868D01*
G02X199770Y860830I9929J28839D01*
G03X213700Y853990I9856J2467D01*
G02X165850Y810130I40296J-91993D01*
G37*
G36*
G01X2965130Y596000D02*
G03X2950530I-7300J-7064D01*
G02Y638440I-21910J21220D01*
G03X2965130I7300J7064D01*
G02X3008950I21910J-21220D01*
G03X3023550I7300J7064D01*
G02Y596000I21910J-21220D01*
G03X3008950I-7300J-7064D01*
G02X2965130I-21910J21220D01*
G37*
G36*
G01X675840Y604020D02*
G03X675140Y590120I7044J-7322D01*
G02X626730Y595630I-27138J-23010D01*
G03X629160Y609330I-6077J8143D01*
G02X675840Y604020I25538J16671D01*
G37*
G36*
G01X580120Y482270D02*
G03X573490Y470710I3338J-9596D01*
G02X533560Y493630I-29925J-5893D01*
G03X540190Y505190I-3338J9596D01*
G02X539630Y510380I29933J5855D01*
G03X528820Y520280I-10157J-238D01*
G02X557350Y551420I-1962J30437D01*
G03X568160Y541520I10157J238D01*
G02X580120Y482270I1958J-30437D01*
G37*
G36*
G01X2478300Y433660D02*
G03X2464250Y431470I-5907J-8266D01*
G02X2454450Y476450I-24451J18230D01*
G03X2468140Y480310I4876J8913D01*
G02X2478300Y433660I30860J-17710D01*
G37*
G36*
G01X3658030Y554020D02*
G03X3650910Y540840I2479J-9853D01*
G02X3608960Y593330I-94908J-32842D01*
G03X3623390Y597370I5364J8630D01*
G02X3658030Y554020I27213J-13770D01*
G37*
G36*
G01X2880130Y493320D02*
G03X2881730Y480070I8404J-5707D01*
G02X2817200Y482520I-33730J-37369D01*
G03X2819810Y495610I-6209J8043D01*
G02X2880130Y493320I30875J17681D01*
G37*
G36*
G01X64130Y3887290D02*
G02X13240Y3909550I-64123J-77294D01*
G03X24270Y3922700I1345J10072D01*
G02X66300Y3904310I29072J9220D01*
G03X64130Y3887290I4313J-9198D01*
G37*
G36*
G01X62270Y2364790D02*
G02X14110Y2385430I-62270J-78790D01*
G03X24980Y2399230I1423J10060D01*
G02X26980Y2425810I28359J11231D01*
G03X16530Y2440940I-8780J5110D01*
G02X16570Y2639050I-16534J99058D01*
G03X27650Y2652920I1675J10023D01*
G02X29750Y2680190I28231J11542D01*
G03X19110Y2695410I-8704J5245D01*
G02X15190Y2893270I-19119J98590D01*
G03X25880Y2907740I1540J10046D01*
G02Y2934260I27460J13260D01*
G03X15190Y2948730I-9150J4424D01*
G02Y3147270I-15190J99270D01*
G03X25880Y3161740I1540J10046D01*
G02Y3188260I27460J13260D01*
G03X15190Y3202730I-9150J4424D01*
G02Y3401270I-15190J99270D01*
G03X25880Y3415740I1540J10046D01*
G02Y3442260I27460J13260D01*
G03X15190Y3456730I-9150J4424D01*
G02X15660Y3655200I-15197J99272D01*
G03X26900Y3668410I1589J10035D01*
G02X67590Y3649760I28978J9511D01*
G03X64920Y3632620I3897J-9385D01*
G02X60250Y3475650I-64921J-76623D01*
G03X63100Y3457900I6098J-8125D01*
G02Y3400100I-9760J-28900D01*
G03X60250Y3382350I3248J-9625D01*
G02Y3221650I-60250J-80350D01*
G03X63100Y3203900I6098J-8125D01*
G02Y3146100I-9760J-28900D01*
G03X60250Y3128350I3248J-9625D01*
G02Y2967650I-60250J-80350D01*
G03X63100Y2949900I6098J-8125D01*
G02Y2892100I-9760J-28900D01*
G03X60250Y2874350I3248J-9625D01*
G02X58600Y2712440I-60250J-80349D01*
G03X62370Y2694260I5929J-8251D01*
G02X66010Y2635690I-6490J-29801D01*
G03X63020Y2618200I3382J-9579D01*
G02X58020Y2458020I-63018J-78201D01*
G03X61250Y2439920I5867J-8291D01*
G02X64770Y2382180I-7907J-29459D01*
G03X62270Y2364790I3803J-9421D01*
G37*
G36*
G01X60930Y1857840D02*
G02X17700Y1876860I-60927J-79840D01*
G03X28580Y1891390I1789J9999D01*
G02Y1918610I27300J13610D01*
G03X17700Y1933140I-9091J4531D01*
G02X15660Y2131200I-17700J98858D01*
G03X26900Y2144410I1589J10035D01*
G02X67590Y2125760I28978J9511D01*
G03X64920Y2108620I3897J-9385D01*
G02X60930Y1952160I-64920J-76625D01*
G03X64290Y1934320I6161J-8076D01*
G02Y1875680I-8410J-29320D01*
G03X60930Y1857840I2801J-9764D01*
G37*
G36*
G01X58600Y843560D02*
G02X19110Y860590I-58592J-81565D01*
G03X29750Y875810I1936J9975D01*
G02X27650Y903080I26131J15728D01*
G03X16570Y916950I-9405J3847D01*
G02X17700Y1114860I-16572J99053D01*
G03X28580Y1129390I1789J9999D01*
G02Y1156610I27300J13610D01*
G03X17700Y1171140I-9091J4531D01*
G02X20260Y1368370I-17694J98861D01*
G03X31330Y1382980I2045J9949D01*
G02Y1411020I27090J14020D01*
G03X20260Y1425630I-9025J4661D01*
G02X15660Y1623200I-20257J98367D01*
G03X26900Y1636410I1589J10035D01*
G02X67590Y1617760I28978J9511D01*
G03X64920Y1600620I3897J-9385D01*
G02X61510Y1444610I-64921J-76623D01*
G03X65410Y1426690I6223J-8030D01*
G02Y1367310I-6990J-29690D01*
G03X61510Y1349390I2323J-9890D01*
G02X60930Y1190160I-61509J-79392D01*
G03X64290Y1172320I6161J-8076D01*
G02Y1113680I-8410J-29320D01*
G03X60930Y1095840I2801J-9764D01*
G02X63020Y937800I-60928J-79840D01*
G03X66010Y920310I6372J-7911D01*
G02X62370Y861740I-10130J-28769D01*
G03X58600Y843560I2159J-9929D01*
G37*
G36*
G01X1138650Y643290D02*
G02X1133370Y608930I22131J-20986D01*
G03X1116870Y611470I-9131J-4455D01*
G02X1070920Y613410I-22130J20990D01*
G03X1055060I-7930J-6350D01*
G02X1004570Y617670I-23817J19051D01*
G03X986790I-8890J-4925D01*
G02X934400Y616070I-26671J14792D01*
G03X917260I-8570J-5460D01*
G02Y648850I-25720J16390D01*
G03X934400I8570J5460D01*
G02X986790Y647250I25719J-16392D01*
G03X1004570I8890J4925D01*
G02X1055060Y651510I26673J-14791D01*
G03X1070920I7930J6350D01*
G02X1122150Y645830I23818J-19050D01*
G03X1138650Y643290I9131J4455D01*
G37*
G36*
G01X668190Y480200D02*
G02X661590Y509880I-29110J9101D01*
G03X678790Y513700I7503J6851D01*
G02X734820Y518930I29109J-9102D01*
G03X751770Y517400I8975J4769D01*
G02X800530Y516210I23933J-18902D01*
G03X815130Y514160I8273J5902D01*
G02X809290Y472590I18991J-23863D01*
G03X794690Y474640I-8273J-5902D01*
G02X748780Y484170I-18991J23863D01*
G03X731830Y485700I-8975J-4769D01*
G02X685390Y484020I-23934J18902D01*
G03X668190Y480200I-7503J-6851D01*
G37*
G36*
G01X1050560Y341230D02*
G02X1016630Y341380I-17077J-25270D01*
G03X1016700Y358270I-5614J8468D01*
G02X1018380Y409870I17079J25271D01*
G03X1019020Y427000I-5129J8769D01*
G02X1005850Y450670I17297J25123D01*
G03X994050Y460210I-10146J-482D01*
G02X1019530Y491750I-4987J30091D01*
G03X1031330Y482210I10146J482D01*
G02X1051720Y425790I4994J-30090D01*
G03X1051080Y408660I5129J-8769D01*
G02X1050630Y358120I-17300J-25118D01*
G03X1050560Y341230I5614J-8468D01*
G37*
G36*
G01X457710Y283750D02*
G02X420630Y291410I-23378J-19589D01*
G03X423270Y307650I-4565J9077D01*
G02X461720Y299710I25226J25090D01*
G03X457710Y283750I3777J-9433D01*
G37*
G36*
G01X358720Y204020D02*
G02X333340Y169340I4778J-30123D01*
G03X316930Y175730I-10043J-1526D01*
G02X324780Y325250I-62930J78270D01*
G03X340390Y326810I7163J7204D01*
G02X364090Y279430I25370J-16927D01*
G03X353470Y267880I-558J-10145D01*
G02X347650Y217730I-99468J-13869D01*
G03X358720Y204020I9473J-3675D01*
G37*
G36*
G01X459860Y4995540D02*
G03X459960Y5002390I-3699J3480D01*
G02X512480Y5001600I26621J23609D01*
G03X512380Y4994750I3699J-3480D01*
G02X459860Y4995540I-26621J-23609D01*
G37*
G36*
G01X677280Y4923740D02*
G03X670660Y4922620I-2674J-4318D01*
G02X661720Y4975260I-27660J22382D01*
G03X668340Y4976380I2674J4318D01*
G02X677280Y4923740I27660J-22382D01*
G37*
G36*
G01X598240Y4475050D02*
G03X582860I-7690J-6637D01*
G02X538050Y4519860I-24060J20750D01*
G03Y4535240I-6637J7690D01*
G02X582860Y4580050I20750J24060D01*
G03X598240I7690J6637D01*
G02X643050Y4535240I24060J-20750D01*
G03Y4519860I6637J-7690D01*
G02X598240Y4475050I-20750J-24060D01*
G37*
G36*
G01X1193320Y4878150D02*
G02X1191790Y4845400I30780J-17849D01*
G03X1173780Y4846250I-9226J-4254D01*
G02X1175310Y4879000I-30780J17849D01*
G03X1193320Y4878150I9226J4254D01*
G37*
G36*
G01X1191650Y4779320D02*
G02X1190780Y4743350I30251J-18727D01*
G03X1173250Y4743780I-8891J-4920D01*
G02X1174120Y4779750I-30251J18727D01*
G03X1191650Y4779320I8891J4920D01*
G37*
G36*
G01X884050Y3216150D02*
G03X875960Y3227120I-10107J1015D01*
G02X864590Y3292450I7037J34879D01*
G03X866620Y3298830I-2624J4348D01*
G02X934700Y3310180I32617J14212D01*
G03X943710Y3299260I10130J-819D01*
G02X951140Y3230170I-3909J-35365D01*
G03X944380Y3218680I3229J-9633D01*
G02X884050Y3216150I-29984J-5583D01*
G37*
G36*
G01X828360Y2652850D02*
G03X828910Y2638350I7381J-6980D01*
G02X779150Y2636450I-23910J-26349D01*
G03X778600Y2650950I-7381J6980D01*
G02X828360Y2652850I23910J26349D01*
G37*
G36*
G01X1145950Y2532550D02*
G03X1139230Y2531740I-2907J-4167D01*
G02X1130830Y2585750I-26711J23504D01*
G03X1137480Y2587010I2620J4352D01*
G02X1145950Y2532550I30261J-23182D01*
G37*
G36*
G01X618960Y2578540D02*
G03X618650Y2585520I-3839J3326D01*
G02X670250Y2587820I24710J25600D01*
G03X670560Y2580840I3839J-3326D01*
G02X618960Y2578540I-24710J-25600D01*
G37*
G36*
G01X1194130Y2199830D02*
G03X1203760Y2187780I9981J-1896D01*
G02X1167590Y2158880I-1219J-35559D01*
G03X1157960Y2170930I-9981J1896D01*
G02X1194130Y2199830I1219J35559D01*
G37*
G36*
G01X1817950Y2006780D02*
G03X1810830Y2006530I-3433J-3744D01*
G02X1809050Y2057220I-25830J24469D01*
G03X1816170Y2057470I3433J3744D01*
G02X1817950Y2006780I25830J-24469D01*
G37*
G36*
G01X1898110Y1999420D02*
G03X1898360Y2006420I-3555J3631D01*
G02X1911330Y2062850I26641J23582D01*
G03X1916000Y2077680I-3906J9380D01*
G02X1959690Y2063920I30024J19090D01*
G03X1955020Y2049090I3906J-9380D01*
G02X1949890Y2004580I-30022J-19090D01*
G03X1949640Y1997580I3555J-3631D01*
G02X1898110Y1999420I-26640J-23582D01*
G37*
G36*
G01X2127830Y1784350D02*
G03X2121110I-3360J-3811D01*
G02Y1837690I-23550J26670D01*
G03X2127830I3360J3811D01*
G02X2178350Y1834230I23552J-26670D01*
G03X2185410Y1833610I3848J3314D01*
G02X2184520Y1787140I19308J-23613D01*
G03X2177440Y1786800I-3366J-3804D01*
G02X2127830Y1784350I-26062J24221D01*
G37*
G36*
G01X1428310Y1715600D02*
G03X1421650Y1715590I-3324J-3841D01*
G02X1421570Y1769300I-23380J26820D01*
G03X1428230Y1769310I3324J3841D01*
G02X1428310Y1715600I23380J-26820D01*
G37*
G36*
G01X1241420Y1731430D02*
G03X1236430Y1736420I-5075J-85D01*
G02X1272580Y1772570I570J35580D01*
G03X1277570Y1767580I5075J85D01*
G02X1241420Y1731430I-570J-35580D01*
G37*
G36*
G01X2088170Y1493210D02*
G03X2100780Y1488370I9024J4665D01*
G02X2083780Y1444070I11229J-29721D01*
G03X2071170Y1448910I-9024J-4665D01*
G02X2039880Y1453990I-11232J29720D01*
G03X2026810Y1453790I-6416J-7875D01*
G02X2026060Y1502440I-20808J24010D01*
G03X2039130Y1502640I6416J7875D01*
G02X2088170Y1493210I20810J-24008D01*
G37*
G36*
G01X1509080Y1479480D02*
G03X1524330Y1478510I8050J6196D01*
G02X1521680Y1436730I22529J-22403D01*
G03X1506430Y1437700I-8050J-6196D01*
G02X1509080Y1479480I-22529J22403D01*
G37*
G36*
G01X1935600Y1056150D02*
G03X1933440Y1073000I-6608J7716D01*
G02X1937670Y1138730I15558J32000D01*
G03X1941040Y1144490I-1620J4814D01*
G02X1940510Y1148630I34965J6580D01*
G03X1935780Y1153350I-5069J-350D01*
G02X1906080Y1173440I2369J35501D01*
G03X1891380Y1177550I-9155J-4402D01*
G02X1900730Y1219090I-16631J25566D01*
G03X1915780Y1216510I8658J5322D01*
G02X1973640Y1191320I22370J-27664D01*
G03X1978370Y1186600I5069J350D01*
G02X2003330Y1128320I-2371J-35500D01*
G03X2005110Y1113640I7808J-6501D01*
G02X2005270Y1056480I-21111J-28639D01*
G03X2006100Y1039630I6071J-8146D01*
G02X1990250Y973650I-18341J-30488D01*
G02X1929190Y1009350I-32496J14488D01*
G02X1935600Y1056150I29570J19789D01*
G37*
G36*
G01X1909070Y864460D02*
G03X1904970Y859000I958J-4989D01*
G02X1864540Y884960I-30368J-2832D01*
G03X1867800Y890960I-1678J4797D01*
G02X1909070Y864460I34562J8440D01*
G37*
G36*
G01X2757200Y868760D02*
G03X2757250Y862100I3860J-3301D01*
G02X2703540Y861640I-26655J-23569D01*
G03X2703490Y868300I-3860J3301D01*
G02X2757200Y868760I26655J23569D01*
G37*
G36*
G01X1144120Y1519110D02*
G02X1109810Y1514780I-13818J-28609D01*
G03X1107680Y1531690I-6551J7764D01*
G02X1141990Y1536020I13818J28609D01*
G03X1144120Y1519110I6551J-7764D01*
G37*
G36*
G01X1410530Y1479300D02*
G02X1354310Y1506800I-30528J8808D01*
G03X1350730Y1521820I-8213J5979D01*
G02X1396910Y1551980I14468J28282D01*
G03X1412560Y1544030I10145J592D01*
G02X1422590Y1486380I17211J-26703D01*
G03X1410530Y1479300I-2300J-9894D01*
G37*
G36*
G01X1313110Y1514190D02*
G02X1272690Y1508670I-16914J-26891D01*
G03X1270590Y1524110I-7513J6841D01*
G02X1311010Y1529630I16914J26891D01*
G03X1313110Y1514190I7513J-6841D01*
G37*
G36*
G01X1229930Y1510150D02*
G02X1194940Y1507940I-15825J-27549D01*
G03X1193870Y1524850I-6130J8101D01*
G02X1228860Y1527060I15825J27549D01*
G03X1229930Y1510150I6130J-8101D01*
G37*
G36*
G01X2716220Y1350010D02*
G02X2662920Y1361220I-23823J19048D01*
G03X2648210Y1367510I-9816J-2611D01*
G02X2608580Y1411810I-14708J26719D01*
G03X2605220Y1426550I-8302J5861D01*
G02X2647200Y1434930I16063J28871D01*
G03X2649760Y1420040I7973J-6294D01*
G02X2662980Y1402070I-16259J-25809D01*
G03X2677690Y1395780I9816J2611D01*
G02X2716220Y1388110I14710J-26719D01*
G03X2732080I7930J6350D01*
G02Y1350010I23820J-19050D01*
G03X2716220I-7930J-6350D01*
G37*
G36*
G01X1402230Y5456530D02*
G02X1403290Y5500750I-20469J22613D01*
G02X1402230Y5456530I20469J-22613D01*
G37*
G36*
G01X2110820Y5390170D02*
G03X2105720Y5403800I-9191J4330D01*
G02X2089830Y5417590I14334J32566D01*
G03X2077600Y5421730I-8631J-5362D01*
G02X2095220Y5473780I-12600J33273D01*
G03X2107450Y5469640I8631J5362D01*
G02X2152230Y5421200I12598J-33272D01*
G03X2157330Y5407570I9191J-4330D01*
G02X2162830Y5404540I-14352J-32558D01*
G03X2169440Y5405370I2827J4222D01*
G02X2176100Y5352080I26491J-23750D01*
G03X2169490Y5351250I-2827J-4222D01*
G02X2110820Y5390170I-26486J23755D01*
G37*
G36*
G01X1695980Y5400300D02*
G02X1555620I-70180J-5D01*
G01Y5464880D01*
X1552330Y5466110D01*
G02X1575510Y5594030I23180J61860D01*
G01X1616150D01*
G02X1672170Y5562970I0J-66049D01*
G02X1695980Y5510300I-46365J-52676D01*
G01Y5400300D01*
G37*
G36*
G01X2859550Y5368690D02*
G03X2866300Y5367940I3792J3378D01*
G02X2860450Y5315310I20699J-28941D01*
G03X2853700Y5316060I-3792J-3378D01*
G02X2859550Y5368690I-20699J28941D01*
G37*
G36*
G01X2255540Y5252750D02*
G03X2256790Y5246130I4361J-2604D01*
G02X2204460Y5236250I-21787J-28129D01*
G03X2203210Y5242870I-4361J2604D01*
G02X2255540Y5252750I21787J28129D01*
G37*
G36*
G01X2093920Y5149850D02*
G03Y5137150I7930J-6350D01*
G02X2046280I-23820J-19050D01*
G03Y5149850I-7930J6350D01*
G02X2093920I23820J19050D01*
G37*
G36*
G01X2688970Y5313290D02*
G02X2680460Y5345410I-34668J8002D01*
G03X2697830Y5350010I7471J6886D01*
G02X2706340Y5317890I34668J-8002D01*
G03X2688970Y5313290I-7471J-6886D01*
G37*
G36*
G01X3215580Y3946400D02*
G03X3206220Y3955310I-10086J-1224D01*
G02X3240040Y3990800I2278J31688D01*
G03X3249400Y3981890I10086J1224D01*
G02X3252070Y3981580I-2326J-31685D01*
G03X3263290Y3988410I1579J10036D01*
G02X3288480Y3946980I30139J-10048D01*
G03X3277260Y3940150I-1579J-10036D01*
G02X3215580Y3946400I-30138J10050D01*
G37*
G36*
G01X3033570Y3964190D02*
G03X3031540Y3951420I6727J-7616D01*
G02X2983120Y3959110I-27379J-16112D01*
G03X2985150Y3971880I-6727J7616D01*
G02X3033570Y3964190I27379J16112D01*
G37*
G36*
G01X3066740Y3864530D02*
G03X3079420Y3858260I9573J3403D01*
G02X3059220Y3817390I9739J-30241D01*
G03X3046540Y3823660I-9573J-3403D01*
G02X3066740Y3864530I-9739J30241D01*
G37*
G36*
G01X3202330Y3837290D02*
G03X3200090Y3822560I5711J-8404D01*
G02X3157360Y3829060I-24867J-19771D01*
G03X3159600Y3843790I-5711J8404D01*
G02X3202330Y3837290I24867J19771D01*
G37*
G36*
G01X2834140Y3753250D02*
G03X2821240Y3752560I-6031J-8176D01*
G02X2818630Y3801510I-21490J23399D01*
G03X2831530Y3802200I6031J8176D01*
G02X2834140Y3753250I21490J-23399D01*
G37*
G36*
G01X3170110Y3627300D02*
G03X3166840Y3612800I5125J-8774D01*
G02X3124570Y3622330I-26245J-17900D01*
G03X3127840Y3636830I-5125J8774D01*
G02X3170110Y3627300I26245J17900D01*
G37*
G36*
G01X2949330Y3563710D02*
G03X2940020Y3554170I833J-10126D01*
G02X2905700Y3587660I-31717J1827D01*
G03X2915010Y3597200I-833J10126D01*
G02X2949330Y3563710I31717J-1827D01*
G37*
G36*
G01X1738900Y3336330D02*
G03X1751590Y3336150I6458J7844D01*
G02X1750900Y3288530I18710J-24086D01*
G03X1738210Y3288710I-6458J-7844D01*
G02X1738900Y3336330I-18710J24086D01*
G37*
G36*
G01X2335300Y3021030D02*
G03X2335900Y3034420I-7325J7037D01*
G02X2381700Y3032370I23800J19078D01*
G03X2381100Y3018980I7325J-7037D01*
G02X2335300Y3021030I-23800J-19078D01*
G37*
G36*
G01X3266730Y2908680D02*
G03X3267490Y2895300I8002J-6257D01*
G02X3221730Y2892720I-21747J-21388D01*
G03X3220970Y2906100I-8002J6257D01*
G02X3219030Y2946690I21751J21381D01*
G03X3218570Y2960020I-7895J6401D01*
G02X3216680Y2999340I22322J20778D01*
G03X3215850Y3012650I-8069J6178D01*
G02X3261800Y3015500I21737J21392D01*
G03X3262630Y3002190I8069J-6178D01*
G02X3264580Y2961600I-21742J-21386D01*
G03X3265040Y2948270I7895J-6401D01*
G02X3266730Y2908680I-22321J-20784D01*
G37*
G36*
G01X3272320Y2668450D02*
G03X3272400Y2655120I7706J-6619D01*
G02X3226350Y2654830I-22899J-20149D01*
G03X3226270Y2668160I-7706J6619D01*
G02X3226220Y2708400I22899J20148D01*
G03X3226230Y2721780I-7639J6696D01*
G02X3225590Y2761150I22971J20064D01*
G03X3225180Y2774480I-7869J6429D01*
G02X3271200Y2775870I22406J20691D01*
G03X3271610Y2762540I7869J-6429D01*
G02X3272150Y2721760I-22410J-20690D01*
G03X3272140Y2708380I7639J-6696D01*
G02X3272320Y2668450I-22969J-20069D01*
G37*
G36*
G01X3284260Y2429230D02*
G03X3284880Y2415910I7969J-6303D01*
G02X3238890Y2413780I-22069J-21051D01*
G03X3238270Y2427100I-7969J6303D01*
G02X3236690Y2467410I22070J21051D01*
G03X3236260Y2480730I-7878J6413D01*
G02X3234590Y2520240I22369J20736D01*
G03X3233890Y2533550I-8007J6252D01*
G02X3279870Y2535970I21938J21189D01*
G03X3280570Y2522660I8007J-6252D01*
G02X3282280Y2482210I-21940J-21189D01*
G03X3282710Y2468890I7878J-6413D01*
G02X3284260Y2429230I-22370J-20735D01*
G37*
G36*
G01X2185020Y2407430D02*
G03X2178760Y2394680I3390J-9576D01*
G02X2139600Y2413870I-28965J-9557D01*
G03X2145860Y2426620I-3390J9576D01*
G02X2185020Y2407430I28965J9557D01*
G37*
G36*
G01X3220030Y1821120D02*
G03X3213680Y1821090I-3156J-3981D01*
G02X3213500Y1868710I-19150J23738D01*
G03X3219850Y1868740I3156J3981D01*
G02X3220030Y1821120I19150J-23738D01*
G37*
G36*
G01X3012800Y1824050D02*
G03X3000140Y1820150I-4062J-9313D01*
G02X2986540Y1864370I-25799J16267D01*
G03X2999200Y1868270I4062J9313D01*
G02X3012800Y1824050I25799J-16267D01*
G37*
G36*
G01X3263060Y3196260D02*
G02X3238360Y3157410I4538J-30162D01*
G03X3227120Y3164560I-9737J-2897D01*
G02X3213760Y3223920I-4547J30160D01*
G03X3220080Y3237820I-2942J9724D01*
G02X3217590Y3253960I27798J12551D01*
G03X3208550Y3265260I-10087J1196D01*
G02X3200090Y3323810I3144J30340D01*
G03X3206070Y3335720I-3861J9395D01*
G02X3247230Y3315070I29551J7557D01*
G03X3241250Y3303160I3861J-9395D01*
G02X3241990Y3292000I-29549J-7564D01*
G03X3251030Y3280700I10087J-1196D01*
G02X3256700Y3221160I-3145J-30339D01*
G03X3250380Y3207260I2942J-9724D01*
G02X3251820Y3203410I-27783J-12586D01*
G03X3263060Y3196260I9737J2897D01*
G37*
G36*
G01X2589030Y3075820D02*
G02X2554320Y3074960I-16696J-27030D01*
G03X2553900Y3091970I-5761J8368D01*
G02X2541920Y3132660I16701J27026D01*
G03X2537730Y3145890I-9172J4374D01*
G02X2580650Y3160260I14969J26571D01*
G03X2585270Y3147180I9311J-4067D01*
G02X2588610Y3092830I-14671J-28179D01*
G03X2589030Y3075820I5761J-8368D01*
G37*
G36*
G01X2460000Y2211600D02*
G02X2420100Y2211340I-19800J-23200D01*
G03X2420000Y2226700I-6700J7637D01*
G02X2418350Y2271580I19800J23198D01*
G03X2417930Y2286430I-7143J7229D01*
G02X2459550Y2287620I20173J22872D01*
G03X2459970Y2272770I7143J-7229D01*
G02X2459900Y2226960I-20172J-22874D01*
G03X2460000Y2211600I6700J-7637D01*
G37*
G36*
G01X3531660Y2186870D02*
G02X3498730Y2201510I-26463J-15168D01*
G03X3502910Y2219380I-2156J9928D01*
G02X3623740Y2234340I53093J66621D01*
G03X3626370Y2219600I8078J-6163D01*
G02X3579580Y2192160I-16339J-25752D01*
G03X3568000Y2201660I-10146J-559D01*
G02X3542130Y2201950I-11991J84341D01*
G03X3531660Y2186870I-1656J-10025D01*
G37*
G36*
G01X3425920Y2179790D02*
G02X3389840Y2186220I-22318J-20790D01*
G03X3392680Y2202210I-4590J9063D01*
G02X3428760Y2195780I22318J20790D01*
G03X3425920Y2179790I4590J-9063D01*
G37*
G36*
G01X3632710Y1968000D02*
G02X3596750Y1940780I-5588J-29981D01*
G03X3583360Y1951320I-10119J921D01*
G02X3626210Y1983740I-27354J80682D01*
G03X3632710Y1968000I8371J-5755D01*
G37*
G54D27*
X655320Y175260D03*
X561340D03*
X462280D03*
X617220Y251460D03*
X512080Y652780D03*
X466090Y464820D03*
X617220Y383540D03*
X513080Y728980D03*
X627330Y1223010D03*
X417350Y2843050D03*
X450400Y3504300D03*
X1040700Y236700D03*
X1084760Y168140D03*
X914400Y175260D03*
X812800D03*
X828040Y320040D03*
X912860Y490300D03*
X1437640Y995680D03*
X1897380Y175260D03*
X2003270Y322150D03*
X2202500Y365500D03*
X3421840Y1457900D03*
X3691900Y174400D03*
X3877800Y381200D03*
X3737400D03*
X3883660Y635000D03*
X3882010Y1399540D03*
Y1145540D03*
X650240Y1794760D03*
X644120Y2039620D03*
X650900Y2715600D03*
X650240Y3386500D03*
X764540Y1739900D03*
X843280Y2125980D03*
X839000Y2538000D03*
X968170Y2676000D03*
X1042980Y2898220D03*
X976250Y2861450D03*
X1100900Y2823600D03*
X1043300Y2695100D03*
X927100Y3619500D03*
X1766760Y1782140D03*
X2217420Y1071880D03*
Y932180D03*
Y1211580D03*
X1981200Y1740790D03*
X2357120Y1071880D03*
X2496820D03*
X2357120Y932180D03*
X2496820D03*
X2357120Y1211580D03*
X2500780Y1206960D03*
X1397000Y5270500D03*
X1630680Y3014980D03*
X1875000Y3077000D03*
X1629500Y3258820D03*
X2158000Y2556510D03*
X1983790Y3065780D03*
X1952720Y2730630D03*
X2313000Y3240000D03*
X1978660Y3147060D03*
X2231000Y3227000D03*
X2184400Y3289300D03*
X2489200Y2062660D03*
X2518410Y2595550D03*
X2556900Y2787700D03*
X2532400Y3317200D03*
X2805910Y1840000D03*
X2978630Y2007390D03*
X2799080Y1927860D03*
X3304560Y2109460D03*
X3210850Y2168250D03*
X3228000Y3418900D03*
X3280000Y3840000D03*
G54D28*
X607060Y1447800D03*
X414810Y1885700D03*
X411450Y2286000D03*
X411000Y2393000D03*
X408000Y2479000D03*
X807350Y629750D03*
X1137920Y821440D03*
X1241830Y858520D03*
X1968500Y406400D03*
X1993900Y647700D03*
X2504300Y174300D03*
X2603400Y467600D03*
X3055000Y1613000D03*
X3656000Y1633000D03*
X431800Y4610100D03*
X410200Y5076200D03*
X1011000Y4933000D03*
X1311600Y5025700D03*
X1308100Y4864100D03*
Y4762500D03*
X1516600Y4860300D03*
X1422400Y4762500D03*
Y4864100D03*
X1516600Y4760300D03*
X1612900Y4762500D03*
Y4864100D03*
X652780Y2166620D03*
X670430Y2475880D03*
X643100Y2388800D03*
X645850Y3000630D03*
Y2809240D03*
Y3160620D03*
X1121000Y1727000D03*
X891630Y2673840D03*
X980440Y3025140D03*
X1051100Y3274600D03*
X920750Y3872770D03*
X830000Y4202000D03*
X1768090Y1204340D03*
X1536700Y1740790D03*
X1620710Y1843850D03*
X1729000Y1968000D03*
X2291000Y698930D03*
X2641600Y736600D03*
X2555000Y848800D03*
X2727960Y996650D03*
X2745740Y1259840D03*
X1499760Y5321140D03*
X1270000Y5486400D03*
X1753000Y5263000D03*
X2190270Y5477510D03*
X2560000Y5319500D03*
X2425700Y4953000D03*
G54D33*
X1829130Y1473710D03*
X1578860Y1562600D03*
X2359660Y1488440D03*
X2513600Y3457900D03*
X2806700Y2115820D03*
X2920000Y2472100D03*
X2731900Y3466400D03*
X2952000Y3302500D03*
X2788510Y3080610D03*
X2978600Y3790000D03*
X3125960Y3980560D03*
X3165200Y4071400D03*
X3248960Y4078200D03*
G54D32*
X1534160Y2169160D03*
X1635760D03*
X1522780Y2609770D03*
X1685320Y2503120D03*
X1845310D03*
X1842770Y2609770D03*
X1682780D03*
G54D29*
X1341120Y825500D03*
G54D31*
X3248000Y442700D03*
G54D30*
X3221660Y771750D03*
G54D26*
X0Y4064000D03*
X254000Y1016000D03*
Y1524000D03*
Y1270000D03*
Y1778000D03*
Y2286000D03*
Y2032000D03*
Y2540000D03*
Y3048000D03*
Y2794000D03*
Y3302000D03*
Y3556000D03*
Y4064000D03*
X3556000Y762000D03*
Y1016000D03*
Y1524000D03*
X254000Y4572000D03*
G54D25*
X0Y254000D03*
X254000Y3810000D03*
X3556000Y254000D03*
X3810000D03*
X254000Y4826000D03*
X3556000Y2540000D03*
Y2794000D03*
%LPD*%
G75*
G54D10*
X0Y254000D03*
Y762000D03*
Y508000D03*
Y1016000D03*
Y1270000D03*
Y1524000D03*
Y1778000D03*
Y2286000D03*
Y2032000D03*
Y2540000D03*
Y3048000D03*
Y2794000D03*
Y3302000D03*
Y3810000D03*
Y3556000D03*
Y4318000D03*
Y4064000D03*
Y4572000D03*
Y5080000D03*
Y4826000D03*
X254000Y254000D03*
Y762000D03*
Y508000D03*
Y1016000D03*
Y1524000D03*
Y1270000D03*
Y1778000D03*
Y2286000D03*
Y2032000D03*
Y2540000D03*
Y3048000D03*
Y2794000D03*
Y3302000D03*
Y3810000D03*
Y3556000D03*
Y4318000D03*
Y4064000D03*
Y4572000D03*
Y5080000D03*
Y4826000D03*
X3556000Y254000D03*
Y762000D03*
Y508000D03*
Y1016000D03*
Y1270000D03*
Y1524000D03*
Y1778000D03*
Y2286000D03*
Y2032000D03*
Y2540000D03*
Y3048000D03*
Y2794000D03*
Y3302000D03*
Y3810000D03*
Y3556000D03*
Y4318000D03*
Y4064000D03*
Y4572000D03*
Y5080000D03*
Y4826000D03*
X3810000Y254000D03*
Y762000D03*
Y508000D03*
Y1016000D03*
Y1524000D03*
Y1270000D03*
Y1778000D03*
Y2286000D03*
Y2032000D03*
Y2540000D03*
Y3048000D03*
Y2794000D03*
Y3302000D03*
Y3810000D03*
Y3556000D03*
Y4318000D03*
Y4064000D03*
Y4572000D03*
Y5080000D03*
Y4826000D03*
G54D20*
X2848000Y442700D03*
X3248000D03*
G54D11*
X-50500Y382100D03*
X-73660Y627380D03*
Y891540D03*
Y1397000D03*
Y1143000D03*
Y1648460D03*
Y2153920D03*
Y1907540D03*
Y2664460D03*
Y2410460D03*
Y2921000D03*
Y3429000D03*
Y3172460D03*
Y3677920D03*
Y3934460D03*
Y4193540D03*
X-69900Y5375100D03*
Y5250300D03*
X-70700Y5768700D03*
Y5649000D03*
X-69900Y5518700D03*
X129540Y452120D03*
X149860Y586740D03*
X53340Y627380D03*
X334000Y413200D03*
X55880Y891540D03*
X170180Y853440D03*
X58420Y1397000D03*
X55880Y1143000D03*
Y1645920D03*
Y2153920D03*
Y1905000D03*
Y2664460D03*
X53340Y2410460D03*
Y2921000D03*
Y3429000D03*
Y3175000D03*
X55880Y3677920D03*
X53340Y3931920D03*
X135600Y5345600D03*
X136600Y5282600D03*
X135600Y5216600D03*
X330800Y6092100D03*
X227900Y6091400D03*
X363500Y173900D03*
X655320Y175260D03*
X561340D03*
X462280D03*
X365760Y309880D03*
X434340Y264160D03*
X617220Y251460D03*
X448490Y332740D03*
X639080Y489300D03*
X570120Y511080D03*
X526860Y550720D03*
X512080Y652780D03*
X543560Y464820D03*
X466090D03*
X360680Y553720D03*
X617220Y383540D03*
X707900Y504600D03*
X648000Y567110D03*
X654700Y626000D03*
X605500Y1088790D03*
X665480Y1074570D03*
X605540Y1032430D03*
X606540Y978600D03*
X734060Y825500D03*
X678180Y822960D03*
X513080Y728980D03*
X711200Y1490980D03*
X607060Y1447800D03*
X627330Y1223010D03*
X414810Y1885700D03*
X642620Y1578100D03*
X650240Y1794760D03*
X414830Y2026670D03*
X652780Y2166620D03*
X414780Y2080010D03*
X378460Y2160270D03*
X411450Y2286000D03*
X416560Y2199640D03*
X411100Y1973450D03*
X644120Y2039620D03*
X411000Y2393000D03*
X670430Y2475880D03*
X417350Y2644930D03*
X645850Y2555240D03*
X643360Y2611120D03*
X643100Y2388800D03*
X408000Y2479000D03*
X645850Y3000630D03*
Y2809240D03*
X417350Y3041170D03*
Y2843050D03*
Y2698270D03*
X650900Y2715600D03*
X645850Y3160620D03*
X417350Y3094510D03*
X650240Y3386500D03*
X626900Y3458600D03*
X450400Y3504300D03*
X673000Y4143000D03*
X716760Y3913140D03*
X717760Y3872140D03*
X676760Y3913140D03*
X677760Y3872140D03*
X609600Y4165600D03*
X546100D03*
X622300Y4495800D03*
X558800D03*
X622300Y4559300D03*
X558800D03*
X431800Y4610100D03*
X371240Y4445760D03*
X723900Y4857800D03*
X673100D03*
Y4813000D03*
X723900D03*
X485760Y4971140D03*
X486580Y5026000D03*
X696000Y4954000D03*
X643000Y4945000D03*
X673100Y5156200D03*
X609600D03*
X495300Y5372100D03*
X508000Y5308600D03*
X410200Y5076200D03*
X381000Y5156200D03*
X600230Y5406870D03*
X660400Y5384800D03*
X517500Y6093700D03*
X424200D03*
X1040700Y236700D03*
X1033480Y315960D03*
X1084760Y168140D03*
X914400Y175260D03*
X812800D03*
X828040Y320040D03*
X891540Y632460D03*
X960120D03*
X1031240D03*
X1094740D03*
X989060Y490300D03*
X912860D03*
X834120D03*
X1036320Y452120D03*
X1033780Y383540D03*
X775700Y498500D03*
X807350Y629750D03*
X1137920Y821440D03*
X1046480Y822960D03*
X817880Y1499130D03*
X1040600Y1198000D03*
X764540Y1488440D03*
X1095600Y1210200D03*
X1130300Y1490500D03*
X1121000Y1727000D03*
X764540Y1739900D03*
X1121500Y1560300D03*
X843280Y2125980D03*
X1112520Y2555240D03*
X839000Y2538000D03*
X891630Y2673840D03*
X968170Y2676000D03*
X802510Y2677300D03*
X805000Y2612000D03*
X1042980Y2898220D03*
X976250Y2861450D03*
X1100900Y2823600D03*
X1043300Y2695100D03*
X980440Y3025140D03*
X899240Y3313040D03*
X914400Y3213100D03*
X939800Y3263900D03*
X1051100Y3274600D03*
X883000Y3262000D03*
X927100Y3619500D03*
X920750Y3872770D03*
X1060000Y4231000D03*
X944000D03*
X830000Y4202000D03*
X978200Y4482800D03*
X970000Y4379000D03*
X920000Y4354000D03*
X1068000Y4286000D03*
X955000Y4576000D03*
X951000Y4630000D03*
X936000Y4517000D03*
X938000Y4447000D03*
X838000Y4913000D03*
X840000Y4859000D03*
X946000Y4813000D03*
X972000Y4749000D03*
X1011000Y4933000D03*
X958000Y4691000D03*
X1130300Y5067300D03*
X977900D03*
X1028700D03*
X831000Y5157000D03*
X888000Y5285000D03*
X831000Y5259000D03*
X1117600Y5473700D03*
X997400Y5486790D03*
X956900Y5486400D03*
X1203900Y309600D03*
X1201700Y372600D03*
X1203960Y439420D03*
X1351280Y584200D03*
X1480820D03*
X1417320D03*
X1287780D03*
X1221740D03*
X1203960Y502920D03*
X1160780Y622300D03*
X1437640Y995680D03*
X1249680Y955040D03*
X1241830Y858520D03*
X1193800Y957580D03*
X1468800Y1172700D03*
X1527300Y1174300D03*
X1413670Y1182750D03*
X1483900Y1460100D03*
X1380000Y1488100D03*
X1214100Y1482600D03*
X1296200Y1487300D03*
X1451610Y1742490D03*
X1237000Y1772000D03*
X1277000Y1732000D03*
X1429770Y1517330D03*
X1209700Y1552400D03*
X1287500Y1551000D03*
X1365200Y1550100D03*
X1398270Y1742410D03*
X1159180Y2206490D03*
X1202540Y2152220D03*
X1275080Y2679700D03*
X1339100Y2843400D03*
X1200500Y2832700D03*
X1293330Y3332190D03*
X1346200Y3339260D03*
X1366670Y3278480D03*
X1410250Y3238500D03*
X1417370Y3182120D03*
X1409700Y3314700D03*
X1218870Y3611350D03*
X1257000Y3613000D03*
X1144000Y3810000D03*
X1193800Y3797300D03*
X1182000Y3938000D03*
X1393760Y3929140D03*
X1515760Y4093140D03*
X1312000Y3988000D03*
X1183000Y3993580D03*
X1148240Y4094640D03*
X1403000Y4088000D03*
X1367000Y4008000D03*
X1185000Y4160000D03*
X1532000Y3925000D03*
X1511000Y3978000D03*
X1425260Y3880000D03*
X1452260Y3938290D03*
X1471600Y4219780D03*
X1240000Y4174000D03*
X1278810Y4210960D03*
X1412000Y4161000D03*
X1466000Y4156000D03*
X1199760Y4211920D03*
X1313000Y4169000D03*
X1366000Y4190000D03*
X1143000Y4521200D03*
X1371600Y4517800D03*
X1244600Y4521200D03*
X1242300Y4389200D03*
X1371600Y4394200D03*
X1498600Y4521200D03*
X1500900Y4394200D03*
X1237300Y4648200D03*
X1371600D03*
X1505900D03*
X1473200Y5016500D03*
X1311600Y5025700D03*
X1224100Y4860300D03*
X1221900Y4760600D03*
X1308100Y4864100D03*
Y4762500D03*
X1143000D03*
Y4864100D03*
X1516600Y4860300D03*
X1422400Y4762500D03*
Y4864100D03*
X1516600Y4760300D03*
X1397000Y5270500D03*
X1320800D03*
X1181100Y5067300D03*
X1262000Y5314000D03*
X1499760Y5321140D03*
X1320800Y5321300D03*
X1154800Y5327600D03*
X1208800Y5331800D03*
X1381760Y5479140D03*
X1423760Y5478140D03*
X1270000Y5486400D03*
X1182290Y5500290D03*
X1855900Y282500D03*
X1897380Y175260D03*
X1854200Y490220D03*
X1676400Y584200D03*
X1737360D03*
X1854200Y558800D03*
X1546860Y584200D03*
X1610360D03*
X1800860D03*
X1854200Y416560D03*
Y342900D03*
X1741400Y724600D03*
X1577340Y916940D03*
X1576320Y861060D03*
X1902360Y899400D03*
X1573200Y1016000D03*
X1767180Y857880D03*
X1874600Y856170D03*
X1546860Y1456110D03*
X1768090Y1204340D03*
X1829130Y1473710D03*
X1874750Y1203120D03*
X1578860Y1562600D03*
X1536700Y1740790D03*
X1620710Y1843850D03*
X1766760Y1782140D03*
X1785000Y2031000D03*
X1729000Y1968000D03*
X1842000Y2033000D03*
X1923000Y1974000D03*
X1925000Y2030000D03*
X1630680Y3014980D03*
X1633000Y3075000D03*
X1875000Y3077000D03*
X1770300Y3312060D03*
X1629500Y3258820D03*
X1884680Y3220720D03*
X1719500Y3312800D03*
X1541760Y4123140D03*
X1546330Y4178570D03*
X1599000Y4187000D03*
X1700000Y4250000D03*
X1648590Y3942050D03*
X1683980Y3981960D03*
X1809500Y4003500D03*
X1759000Y3943000D03*
X1895270Y3980480D03*
X1905670Y3865500D03*
X1897000Y3924000D03*
X1786000Y4466000D03*
X1600200Y4521200D03*
X1680000Y4343000D03*
X1787000Y4561000D03*
X1765000Y4299000D03*
X1826000Y4405000D03*
X1839000Y4457000D03*
X1844760Y4802140D03*
X1838760Y4843140D03*
X1821000Y4747000D03*
X1612900Y4762500D03*
Y4864100D03*
X1774000Y4669000D03*
X1773000Y4723000D03*
X1917000Y4917000D03*
X1919000Y4679000D03*
X1824000Y4998000D03*
X1750000Y4843000D03*
X1786760Y4803140D03*
X1826000Y5346000D03*
X1689100Y5067300D03*
X1731000Y5067000D03*
X1819000Y5098000D03*
X1536700Y5067300D03*
X1583000Y5067000D03*
X1753000Y5263000D03*
X1842000Y5049000D03*
X1879600Y5499100D03*
X1785860Y5716160D03*
X1886680Y5779530D03*
X2003270Y322150D03*
X2057000Y188000D03*
X2107700Y190000D03*
X2006600D03*
X2189000Y160000D03*
X2291000Y698930D03*
X2202500Y365500D03*
X1968500Y406400D03*
X2236000Y655700D03*
X2155000Y641000D03*
X2199900Y696800D03*
X1993900Y647700D03*
X2217420Y1071880D03*
Y932180D03*
X1987760Y1009140D03*
X1957760Y988140D03*
X1958760Y1029140D03*
X2034700Y812100D03*
X1984000Y1085000D03*
X1949000Y1105000D03*
X2112010Y1458650D03*
X2217420Y1211580D03*
X1938150Y1188850D03*
X1976000Y1151100D03*
X2059940Y1478630D03*
X2006000Y1477800D03*
X2097560Y1811020D03*
X1981200Y1740790D03*
X2204720Y1810000D03*
X2151380Y1811020D03*
X2048800Y2264000D03*
X2098570Y2291120D03*
X1946020Y2096770D03*
X2152650Y2172970D03*
Y2012950D03*
X1998000Y2264000D03*
X2149800Y2385120D03*
X2158000Y2556510D03*
X2077000Y2348000D03*
X2174820Y2436180D03*
X1940600Y2400400D03*
X1983000Y2999000D03*
X1983790Y3065780D03*
X1952720Y2730630D03*
X2313000Y3240000D03*
X1978660Y3147060D03*
X2231000Y3227000D03*
X2184400Y3289300D03*
X2269700Y3861500D03*
X2287380Y4076150D03*
X2047100Y3986700D03*
X2291610Y3995320D03*
X2040900Y4060300D03*
X2213240Y4070400D03*
X2039240Y4154820D03*
X2115700Y3933600D03*
X2129080Y4067100D03*
X2225200Y3898400D03*
X2286530Y4150230D03*
X2281100Y3926000D03*
X2006900Y4111700D03*
X1959000Y3875900D03*
X2014790Y3862820D03*
X2203020Y4146730D03*
X2119540Y4149890D03*
X2068120Y3864190D03*
X2236000Y3980000D03*
X2135000Y3987000D03*
X2136470Y4437030D03*
X2291610Y4555310D03*
X2206000Y4634000D03*
X2287000Y4630000D03*
X2207570Y4550740D03*
X2128850Y4549500D03*
X2032500Y4435400D03*
X2205100Y4437500D03*
X2263900Y4412900D03*
X2047180Y4873670D03*
X2044700Y4838700D03*
X2156860Y5003000D03*
X2043000Y4699000D03*
X2049000Y4731000D03*
X1970000Y4924000D03*
X1975000Y4649000D03*
X2077260Y4930140D03*
X2070100Y5118100D03*
Y5168900D03*
X2195930Y5381620D03*
X2143000Y5375000D03*
X2163000Y5059000D03*
X2225000Y5271000D03*
X2235000Y5218000D03*
X1930000Y5393520D03*
X2180200Y5588200D03*
X2101000Y5750000D03*
X1932000Y5487000D03*
X2127000Y5659000D03*
X2202800Y5787320D03*
X2197100Y5638800D03*
X1936000Y5759000D03*
X2190270Y5477510D03*
X2248000Y5553000D03*
X2120050Y5436370D03*
X2065000Y5455000D03*
X2098000Y5808000D03*
X1952000Y5706000D03*
X1931000Y5654000D03*
X2011540Y5876350D03*
X1968500Y5969000D03*
X2067000Y5861000D03*
X2504300Y174300D03*
X2681400Y182100D03*
X2618700Y174700D03*
X2439800Y449700D03*
X2603400Y467600D03*
X2417000Y656000D03*
X2499000Y462600D03*
X2357120Y1071880D03*
X2496820D03*
X2357120Y932180D03*
X2496820D03*
X2641600Y736600D03*
X2555000Y848800D03*
X2359660Y1488440D03*
X2692400Y1369060D03*
X2633500Y1394230D03*
X2357120Y1211580D03*
X2500780Y1206960D03*
X2565400Y1884680D03*
X2567940Y1680620D03*
X2375410Y1809370D03*
X2509520Y1884680D03*
X2489200Y2062660D03*
X2439800Y2249900D03*
X2440200Y2188400D03*
X2438100Y2309300D03*
X2518410Y2595550D03*
X2440940Y2544600D03*
X2556900Y2787700D03*
X2572330Y3048790D03*
X2359700Y3053500D03*
X2357300Y2999900D03*
X2532400Y3317200D03*
X2513600Y3457900D03*
X2552700Y3172460D03*
X2570600Y3119000D03*
X2565400Y3721100D03*
X2369820Y4073520D03*
X2638200Y3977100D03*
X2596200Y4236900D03*
X2371600Y3995320D03*
X2448300Y4151200D03*
X2351760Y3864420D03*
X2439350Y3876230D03*
X2452700Y4070900D03*
X2619500Y4081300D03*
X2482200Y3927800D03*
X2611600Y4155310D03*
X2492630Y3873570D03*
X2647780Y4251290D03*
X2371600Y4155310D03*
Y4555310D03*
X2685630Y4554360D03*
X2525000Y4629000D03*
X2368600Y4467400D03*
X2454500Y4549370D03*
X2614900Y4469400D03*
X2533770Y4549960D03*
X2646800Y4304630D03*
X2527370Y4386620D03*
X2580630Y4383600D03*
X2439190Y4331490D03*
X2367000Y4635000D03*
X2644290Y4684490D03*
X2585260Y4904740D03*
X2559860Y4930140D03*
X2438000Y4718000D03*
X2425700Y4953000D03*
X2560000Y5319500D03*
X2540340Y5116340D03*
X2670000Y5141000D03*
X2654300Y5321300D03*
X2623000Y5484790D03*
X2582500Y5484400D03*
X2850680Y513290D03*
X2928620Y617220D03*
X2987040D03*
X3045460D03*
X2730140Y891870D03*
X2727960Y996650D03*
X2907630Y978620D03*
X2730600Y838530D03*
X2937000Y735000D03*
X3072000Y848000D03*
X2898140Y922020D03*
X2745740Y1259840D03*
X2908300Y1371600D03*
X2755900Y1369060D03*
X2821160Y1125780D03*
X2800830Y1720620D03*
X3025000Y1852000D03*
X3055000Y1613000D03*
X2921480Y1552420D03*
X2974340Y1836420D03*
X2805910Y1840000D03*
X2806700Y2115820D03*
X2978630Y2007390D03*
X2799080Y1927860D03*
X2920000Y2472100D03*
X2731900Y3466400D03*
X2736760Y3330140D03*
X2952000Y3302500D03*
X2788510Y3080610D03*
X3089160Y3828020D03*
X2978600Y3790000D03*
X3036800Y3853900D03*
X2799750Y3775960D03*
X2853020Y3778800D03*
X2720900Y3649200D03*
X2908300Y3556000D03*
X2946730Y3595370D03*
X3004160Y3935310D03*
X2766060Y4074160D03*
X2762700Y4147300D03*
X3012530Y3987990D03*
X2837900Y3959800D03*
X2846500Y4146600D03*
X3005540Y4066100D03*
X3007740Y4152620D03*
X3010220Y4225280D03*
X2851610Y4555310D03*
X2929280Y4632960D03*
X2767160Y4550600D03*
X2801100Y4324900D03*
X2846700Y4630420D03*
X3083030Y4635300D03*
X3022090Y4464370D03*
X3086680Y4551680D03*
X2926300Y4549200D03*
X2904500Y4390400D03*
X2815850Y4455090D03*
X2766320Y4634620D03*
X2766420Y4475150D03*
X2902140Y4450240D03*
X2830070Y4902000D03*
X2773000Y5031000D03*
X2896000Y4882000D03*
X2897000Y4969000D03*
X2765760Y4892140D03*
X2767330Y4851400D03*
X3007000Y5066000D03*
X2966000D03*
X2730000Y5215000D03*
X2732500Y5342000D03*
X2786000Y5219000D03*
X2787000Y5174000D03*
X2941000Y5339000D03*
X2833000Y5345000D03*
X2780900Y5272900D03*
X2887000Y5339000D03*
X3015760Y5477140D03*
X3057760Y5476140D03*
X2907890Y5486810D03*
X2844800Y5486400D03*
X2757910Y5484960D03*
X3106000Y736000D03*
X3111000Y793000D03*
X3421840Y1457900D03*
X3431790Y1215950D03*
X3239000Y1845000D03*
X3194530Y1844830D03*
X3246300Y1541200D03*
X3300750Y1544350D03*
X3304560Y2109460D03*
X3210850Y2168250D03*
X3415000Y2223000D03*
X3403600Y2159000D03*
X3249500Y2634970D03*
X3262810Y2394860D03*
X3258630Y2501470D03*
X3255830Y2554740D03*
X3260340Y2448150D03*
X3237590Y3034040D03*
X3240890Y2980800D03*
X3249170Y2688310D03*
X3249200Y2741850D03*
X3245740Y2873910D03*
X3242720Y2927490D03*
X3247590Y2795170D03*
X3228000Y3418900D03*
X3247880Y3250360D03*
X3235620Y3343280D03*
X3211700Y3295600D03*
X3222580Y3194720D03*
X3267600Y3166100D03*
X3280000Y3840000D03*
X3175220Y3802790D03*
X3282200Y3757300D03*
X3140600Y3594900D03*
X3154080Y3654730D03*
X3293430Y3978360D03*
X3125960Y3980560D03*
X3208500Y3987000D03*
X3168000Y4149700D03*
X3249400Y4156000D03*
X3247120Y3950200D03*
X3299460Y4242650D03*
X3165200Y4071400D03*
X3248960Y4078200D03*
X3320140Y4152670D03*
X3184470Y3863560D03*
X3384000Y4555000D03*
X3251610Y4635300D03*
X3171600D03*
X3334000Y4532000D03*
X3325540Y4470540D03*
X3155300Y4459500D03*
X3163300Y4548200D03*
X3316000Y4617000D03*
X3264900Y4400910D03*
X3478000Y4701000D03*
X3470000Y4960000D03*
X3434760Y5009140D03*
X3130000Y5340000D03*
X3390900Y5372100D03*
X3454400Y5283200D03*
X3691900Y174400D03*
X3877800Y381200D03*
X3737400D03*
X3883660Y635000D03*
X3650600Y583600D03*
X3811800Y634000D03*
X3881630Y896620D03*
X3756660Y889000D03*
X3882010Y1399540D03*
X3759200Y1394460D03*
X3882010Y1145540D03*
X3761740Y1143000D03*
X3656000Y1633000D03*
X3882010Y1651000D03*
X3759200Y1648460D03*
X3610030Y2193850D03*
X3627120Y1938020D03*
X3883660Y2161540D03*
X3759200Y2159000D03*
X3883660Y1905000D03*
X3756660D03*
X3505200Y2171700D03*
X3883660Y2677160D03*
X3761740Y2674620D03*
X3883660Y2420620D03*
X3754120Y2418080D03*
X3622960Y3404810D03*
X3501310Y3394000D03*
X3857000Y4180000D03*
X3861840Y4418350D03*
X3870950Y4472950D03*
X3571900Y4717500D03*
X3721470Y4963530D03*
X3659000Y4699000D03*
X3712110Y4898490D03*
X3739370Y4698000D03*
X3609760Y4968140D03*
X3857190Y4956600D03*
X3871200Y5578500D03*
Y5671800D03*
X3869600Y5765200D03*
X3868900Y6084000D03*
X3869600Y5981100D03*
X3868900Y5868100D03*
X3794100Y6081000D03*
X3700800D03*
X3607400Y6079400D03*
X3504500Y6078700D03*
G54D21*
X3850010Y5400000D03*
X3549990D03*
G54D12*
X254810Y5753610D03*
G54D22*
G01X3556000Y3302000D02*
X3575830D01*
X3665140Y3391310D01*
Y4141860D01*
X3603720Y4203280D01*
X3114080D01*
X3024050Y4113250D01*
X2997010D01*
X2966170Y4082410D01*
Y4032390D01*
X2604080Y3670300D01*
X1463700D01*
X1357760Y3776240D01*
Y3909460D01*
X1354390Y3912830D01*
Y3945450D01*
X1357760Y3948820D01*
Y3998760D01*
X1367000Y4008000D01*
G01X2897000Y4969000D02*
X2924850Y4941150D01*
Y4940150D01*
X2968650Y4896350D01*
Y4169210D01*
X2968370Y4168930D01*
Y4149370D01*
X2590330Y3771330D01*
X1696940D01*
X1580800Y3887470D01*
Y3963880D01*
X1496050Y4048630D01*
X1296370D01*
X1185000Y4160000D01*
G01X1471600Y4219780D02*
X1510970Y4259150D01*
X1618460D01*
X1676610Y4201000D01*
X2124110D01*
X2163650Y4161460D01*
Y4130420D01*
X2168450Y4125620D01*
Y4047550D01*
X2236000Y3980000D01*
G01X1412000Y4161000D02*
Y4154320D01*
X1449690Y4116630D01*
X1482310D01*
X1505370Y4139690D01*
Y4197870D01*
X1533870Y4226370D01*
X1615310D01*
X1798680Y4043000D01*
X1935120D01*
X2030790Y3947330D01*
X2063410D01*
X2103080Y3987000D01*
X2135000D01*
G01X2438000Y4718000D02*
X2410970Y4690970D01*
Y4424970D01*
X2242680Y4256680D01*
X1749320D01*
X1721000Y4285000D01*
X1720680D01*
X1711310Y4294370D01*
X1661630D01*
X1628570Y4327430D01*
X1523570D01*
X1432230Y4236090D01*
Y4203470D01*
X1466000Y4169700D01*
Y4156000D01*
G01X2367000Y4635000D02*
X2361700D01*
X2330980Y4604280D01*
Y4485460D01*
X2329230Y4483710D01*
Y4422550D01*
X2212360Y4305680D01*
X1814000D01*
X1781310Y4338370D01*
X1780630D01*
X1736630Y4382370D01*
X1542580D01*
X1406830Y4246620D01*
Y4230830D01*
X1366000Y4190000D01*
G01X3470000Y4960000D02*
X3364000D01*
X3328000Y4996000D01*
X2925680D01*
X2913310Y5008370D01*
X2880690D01*
X2803830Y4931510D01*
X2749450D01*
X2725760Y4907820D01*
Y4697760D01*
X2646260Y4618260D01*
Y4538050D01*
X2703740Y4480570D01*
Y3920670D01*
X2579800Y3796730D01*
X1707470D01*
X1606200Y3898000D01*
Y4122700D01*
X1550330Y4178570D01*
X1546330D01*
G01X1599000Y4187000D02*
Y4179900D01*
X1730000Y4048900D01*
Y3970680D01*
X1702840Y3943520D01*
Y3896160D01*
X1776870Y3822130D01*
X2496870D01*
X2547970Y3873230D01*
Y4127330D01*
X2488000Y4187300D01*
Y4491890D01*
X2494400Y4498290D01*
Y4579600D01*
X2488300Y4585700D01*
Y4610020D01*
X2485630Y4612690D01*
Y4645310D01*
X2700360Y4860040D01*
Y4918350D01*
X2738920Y4956910D01*
X2793300D01*
X2870160Y5033770D01*
X2923840D01*
X2936210Y5021400D01*
X3391340D01*
X3418450Y5048510D01*
X3458060D01*
X3538430Y4968140D01*
X3609760D01*
G01X1787000Y4561000D02*
X1942680D01*
X2014370Y4632690D01*
Y4665310D01*
X2002000Y4677680D01*
Y4898380D01*
X2037890Y4934270D01*
Y4946450D01*
X2094440Y5003000D01*
X2156860D01*
G01X3549990Y5400000D02*
Y5403510D01*
X3479800Y5473700D01*
X3436600D01*
X3284150Y5321250D01*
X3212640D01*
X3110500Y5423390D01*
Y5494400D01*
X3067700Y5537200D01*
X2552700D01*
X2527300Y5511800D01*
Y5396610D01*
X2454480Y5323790D01*
X2346440D01*
X2310890Y5359340D01*
Y5577110D01*
X2212370Y5675630D01*
X2143630D01*
X2127000Y5659000D01*
G01X3739370Y4698000D02*
X3690540Y4649170D01*
Y3380780D01*
X3681000Y3371240D01*
Y3214100D01*
X3556000Y3089100D01*
Y3048000D01*
G01X3857190Y4956600D02*
X3911600Y4902190D01*
Y2895600D01*
X3810000Y2794000D01*
G01X3712110Y4898490D02*
Y4790860D01*
X3771030Y4731940D01*
X3771300D01*
X3784000Y4719240D01*
Y4679030D01*
X3715940Y4610970D01*
Y3650060D01*
X3810000Y3556000D01*
G01X723800Y5627990D02*
G02Y5727990I0J50000D01*
G01Y6153660D01*
X194820D01*
X-145240Y5813600D01*
Y104140D01*
X3954810D01*
X3955340Y104670D01*
Y6153660D01*
X3289400D01*
Y5727990D01*
G02Y5627990I0J-50000D01*
G01X714370Y6844300D02*
X793750Y6590300D01*
X873130Y6844300D01*
G01X1117600Y6823130D02*
X1098550Y6835840D01*
X1076330Y6844300D01*
X1050930D01*
X1022350Y6831590D01*
X1000130Y6810430D01*
X984250Y6785030D01*
X971550Y6742700D01*
X968370Y6704600D01*
X974730Y6666500D01*
X984250Y6641100D01*
X1003300Y6615690D01*
X1025530Y6598760D01*
X1047750Y6590300D01*
X1069970D01*
X1092200Y6598760D01*
X1111250Y6611460D01*
X1127130Y6628390D01*
G01X1371600Y6823130D02*
X1352550Y6835840D01*
X1330330Y6844300D01*
X1304930D01*
X1276350Y6831590D01*
X1254130Y6810430D01*
X1238250Y6785030D01*
X1225550Y6742700D01*
X1222370Y6704600D01*
X1228730Y6666500D01*
X1238250Y6641100D01*
X1257300Y6615690D01*
X1279530Y6598760D01*
X1301750Y6590300D01*
X1323970D01*
X1346200Y6598760D01*
X1365250Y6611460D01*
X1381130Y6628390D01*
G01X1514480Y6674960D02*
X1597020D01*
G01X1847850Y6590300D02*
Y6844300D01*
X1730370Y6662270D01*
X1889130D01*
G01X2254250Y6844300D02*
Y6590300D01*
X2381250D01*
G01X2492370D02*
X2571750Y6844300D01*
X2651130Y6590300D01*
G01X2622550Y6679200D02*
X2520950D01*
G01X2825750Y6590300D02*
Y6704600D01*
X2762250Y6844300D01*
G01X2889250D02*
X2825750Y6704600D01*
G01X3143250Y6590300D02*
X3016250D01*
Y6844300D01*
X3143250D01*
G01X3092450Y6721540D02*
X3016250D01*
G01X3270250Y6590300D02*
Y6844300D01*
X3349620D01*
X3375020Y6831590D01*
X3390900Y6814670D01*
X3397250Y6780800D01*
X3390900Y6746930D01*
X3371850Y6725770D01*
X3349620Y6713060D01*
X3270250D01*
G01X3349620D02*
X3397250Y6590300D01*
G01X1663800Y5627990D02*
X723800D01*
G01X1663800D02*
X723800D01*
G01X1663800D02*
G03Y5727990I0J50000D01*
G01Y6153660D01*
X2349400D01*
Y5727990D01*
G03Y5627990I0J-50000D01*
G01X3289400D02*
X2349400D01*
G01X3289400D02*
X2349400D01*
G54D13*
X761800Y5455300D03*
X1625800D03*
X2387400D03*
X3251400D03*
G54D23*
G01X1262000Y5314000D02*
X1214640Y5266640D01*
X941020D01*
X881380Y5207000D01*
X520710D01*
X462280Y5265430D01*
Y5339080D01*
X495300Y5372100D01*
G01X1117600Y5473700D02*
X977620Y5333720D01*
X866060D01*
X840940Y5308600D01*
X508000D01*
G01X2567940Y1680620D02*
X2228000Y2020560D01*
Y2027000D01*
X2036720Y2218280D01*
X1731420D01*
X1502460Y2447240D01*
X1502170D01*
X1469440Y2479970D01*
Y2480260D01*
X1424000Y2525700D01*
Y2637000D01*
X1247610Y2813390D01*
Y3533620D01*
X1321000Y3607010D01*
Y3734760D01*
X1262000Y3793760D01*
Y4008000D01*
X1230700Y4039300D01*
X1138920D01*
X1102520Y4075700D01*
Y4179340D01*
X1142760Y4219580D01*
Y4384140D01*
X1196000Y4437380D01*
X1727620D01*
X1816530Y4348470D01*
X1855810D01*
X2187060Y4679720D01*
X2327720D01*
X2445460Y4797460D01*
X2547080D01*
X2668610Y4918990D01*
Y4931510D01*
X2768100Y5031000D01*
X2773000D01*
G54D14*
X791770Y5528020D03*
X1595830Y5527970D03*
X2417370Y5528020D03*
X3221430Y5527970D03*
G54D24*
G01X1879600Y5499100D02*
Y5472320D01*
X1863320Y5456040D01*
Y5365900D01*
X1884330Y5344890D01*
Y4978630D01*
X1848240Y4942540D01*
Y4890240D01*
X1884770Y4853710D01*
Y4754190D01*
X1851330Y4720750D01*
Y4657050D01*
X1823270Y4628990D01*
X1733990D01*
X1694670Y4589670D01*
X1116570D01*
X1049760Y4522860D01*
Y4402180D01*
X990330Y4342750D01*
Y4076670D01*
X1109000Y3958000D01*
X1161990D01*
X1162520Y3957470D01*
X1162530D01*
X1182000Y3938000D01*
G01X1932000Y5487000D02*
X1889990Y5444990D01*
Y5376950D01*
X1911000Y5355940D01*
Y4967580D01*
X1874910Y4931490D01*
Y4901290D01*
X1911440Y4864760D01*
Y4743140D01*
X1878000Y4709700D01*
Y4646000D01*
X1834320Y4602320D01*
X1745040D01*
X1705720Y4563000D01*
X1127620D01*
X1076430Y4511810D01*
Y4391130D01*
X1017000Y4331700D01*
Y4087720D01*
X1120050Y3984670D01*
X1174090D01*
X1183000Y3993580D01*
G54D15*
X608810Y5965490D03*
X1778790D03*
X2234410D03*
X3404390D03*
G54D16*
X1143000Y2893060D03*
X1341120Y825500D03*
X1167740Y2563830D03*
X1191260Y2938780D03*
X1983640Y849140D03*
X1983760Y894140D03*
X2252000Y1503000D03*
X2310130Y3371850D03*
X2247900Y3373120D03*
X2621280Y1455420D03*
X2562860D03*
X2786380Y1082040D03*
X2730090Y1082270D03*
X2966720Y1376680D03*
X3024630Y1376630D03*
X3083560Y1376680D03*
X2921000Y1613200D03*
G54D17*
X1534160Y2169160D03*
X1525320Y2503120D03*
X1522780Y2609770D03*
X1365330Y2503120D03*
X1362790Y2609770D03*
X1635760Y2169160D03*
X1685320Y2503120D03*
X1845310D03*
X1842770Y2609770D03*
X1682780D03*
G54D18*
X2764510Y227710D03*
X3331490D03*
G54D19*
X3021660Y771750D03*
X3221660D03*
M02*
