G04 ================== begin FILE IDENTIFICATION RECORD ==================*
G04 Layout Name:  D:/projects/Popcorn/Rev2.0/Brd/Popcorn Computer Rev 2p0_Release.brd*
G04 Film Name:    vcc2*
G04 File Format:  Gerber RS274X*
G04 File Origin:  Cadence Allegro 16.6-2015-S105*
G04 Origin Date:  Tue Jul 21 11:26:30 2020*
G04 *
G04 Layer:  VIA CLASS/VCC2*
G04 Layer:  PIN/VCC2*
G04 Layer:  ETCH/VCC2*
G04 Layer:  BOARD GEOMETRY/OUTLINE*
G04 *
G04 Offset:    (0.0000 0.0000)*
G04 Mirror:    No*
G04 Mode:      Positive*
G04 Rotation:  0*
G04 FullContactRelief:  No*
G04 UndefLineWidth:     0.1270*
G04 ================== end FILE IDENTIFICATION RECORD ====================*
%FSLAX25Y25*MOMM*%
%IR0*IPPOS*OFA0.00000B0.00000*MIA0B0*SFA1.00000B1.00000*%
%ADD18O,.95X2.1001*%
%ADD11C,.4064*%
%ADD17C,.6604*%
%ADD16C,.4572*%
%ADD20C,.5999*%
%ADD19C,1.1001*%
%ADD15O,1.3X2.7501*%
%ADD12C,4.*%
%ADD10C,1.5001*%
%ADD14O,1.524X1.1176*%
%ADD21C,1.651*%
%ADD13O,1.1999X2.3*%
%ADD22C,.127*%
%ADD25C,.61*%
%ADD29C,.7116*%
%ADD31C,.864*%
%ADD30C,.6354*%
%ADD26C,.6608*%
%ADD32C,.6862*%
%ADD23C,1.0002*%
%ADD28C,4.2036*%
%ADD27C,2.0086*%
%ADD24C,1.7038*%
G75*
%LPD*%
G75*
G36*
G01X3903950Y624660D02*
X3903940Y553520D01*
G02X3884860Y548670I-10157J3D01*
G03X3884850Y467320I-74859J-40666D01*
G02X3903930Y462460I8922J-4857D01*
G01X3903900Y110980D01*
X1833900D01*
Y563900D01*
X1224260D01*
Y110980D01*
X-93600D01*
Y461860D01*
G02X-74550Y466770I10159J-5D01*
G03Y549230I74550J41230D01*
G02X-93600Y554140I-8891J4915D01*
G01Y689420D01*
G02X-75770Y696090I10161J3D01*
G03Y827910I75770J65910D01*
G02X-93600Y834580I-7669J6667D01*
G01Y969860D01*
G02X-74550Y974770I10159J-5D01*
G03X-70350Y1064040I74550J41226D01*
G02X-88900Y1069770I-8390J5731D01*
G01Y1155700D01*
X-63500Y1181100D01*
X1013700D01*
G03X1067500I26900J16900D01*
G01X1082810D01*
X1083730Y1180730D01*
G03X1107470I11870J29470D01*
G01X1108390Y1181100D01*
X1308100D01*
X1553200Y936000D01*
X1551170Y932600D01*
G03X1554810Y896390I26171J-15657D01*
G02X1554550Y882420I-7508J-6848D01*
G03X1605410Y870240I21773J-21360D01*
G01X1604480Y873180D01*
X1610250Y878950D01*
X1612900Y876300D01*
X1727370D01*
G02X1737320Y864080I0J-10161D01*
G03X1797040I29860J-6200D01*
G02X1806990Y876300I9950J2059D01*
G01X1835180D01*
G02X1845030Y863650I1J-10159D01*
G03X1904910Y859610I29572J-7475D01*
G02X1911840Y870410I10093J1147D01*
G03X1922280Y876300I-9475J28992D01*
G01X1943930D01*
G02X1953270Y862140I-1J-10161D01*
G03X1991810Y817130I30373J-12998D01*
G02X2004410Y808490I2512J-9844D01*
G03X2028730Y842010I30287J3608D01*
G02X2016610Y851310I-1982J9964D01*
G03X2014010Y862140I-32966J-2187D01*
G02X2023350Y876300I9341J3999D01*
G01X2026460D01*
X2051860Y901700D01*
Y904240D01*
X2128060Y980440D01*
Y1079500D01*
X2166160Y1117600D01*
X2694980D01*
G02X2703240Y1101520I2J-10160D01*
G03X2751510Y1057120I26856J-19242D01*
G02X2764750Y1057060I6585J-7737D01*
G03X2819280Y1085040I21627J24978D01*
G02X2827340Y1095910I10118J921D01*
G03X2849460Y1114410I-6183J29867D01*
G01X2850740Y1117600D01*
X2870200D01*
X2874100Y1113700D01*
X2878000Y1117600D01*
X3022780D01*
X3147060Y1241880D01*
Y1493700D01*
X3069400Y1571360D01*
G02X3071190Y1587150I7185J7182D01*
G03X3024750Y1609110I-16189J25849D01*
G02X3014670Y1597660I-10078J-1290D01*
G01X2963860D01*
G02X2953780Y1609090I1J10161D01*
G03X2888220I-32780J4110D01*
G02X2878140Y1597660I-10081J-1269D01*
G01X2578280D01*
X2489200Y1686740D01*
Y1845310D01*
G02X2501900Y1855150I10161J2D01*
G03X2530480Y1862520I7625J29531D01*
G02X2544440I6980J-7379D01*
G03Y1906840I20960J22160D01*
G02X2530480I-6980J7379D01*
G03X2501900Y1914210I-20955J-22161D01*
G02X2489200Y1924050I-2539J9838D01*
G01Y2006600D01*
X2527300Y2044700D01*
X3149780D01*
X3417490Y2312410D01*
X3418300D01*
X3494390Y2388500D01*
X3864810D01*
X3904110Y2349200D01*
Y2295840D01*
X3894730D01*
X3894020Y2300080D01*
G03X3885000Y2245600I-84019J-14076D01*
G02X3904100Y2240780I8941J-4824D01*
G01X3904090Y2077250D01*
G02X3884980Y2072430I-10162J-3D01*
G03X3893990Y2017770I-74981J-40432D01*
G01X3894710Y2022000D01*
X3904080D01*
Y2006780D01*
X3904060Y1877240D01*
Y1850050D01*
G02X3886190Y1843430I-10161J-1D01*
G03X3886180Y1712560I-76191J-65429D01*
G02X3904050Y1705940I7708J-6621D01*
G01X3904040Y1569350D01*
G02X3884940Y1564520I-10160J-3D01*
G03X3884930Y1483470I-74940J-40516D01*
G02X3904030Y1478640I8940J-4829D01*
G01X3904020Y1315380D01*
G02X3884920Y1310550I-10161J2D01*
G03X3893930Y1255380I-74918J-40556D01*
G01X3894660Y1259590D01*
X3904010D01*
Y1241880D01*
X3903980Y1099640D01*
Y1061460D01*
G02X3884890Y1056610I-10160J-3D01*
G03X3884880Y975370I-74889J-40611D01*
G02X3903970Y970520I8930J-4846D01*
G01X3903950Y820240D01*
Y807510D01*
G02X3884860Y802660I-10160J-5D01*
G03Y721340I-74860J-40660D01*
G02X3903950Y716490I8930J-4845D01*
G01Y624660D01*
G37*
G36*
G01X-88900Y4445000D02*
X-94430Y4450530D01*
Y4781390D01*
G02X-75290Y4786140I10160J-1D01*
G03Y4865860I75290J39860D01*
G02X-94430Y4870610I-8980J4751D01*
G01Y5035390D01*
G02X-75290Y5040140I10160J-1D01*
G03Y5119860I75290J39860D01*
G02X-94430Y5124610I-8980J4751D01*
G01Y5194300D01*
X-63500D01*
X-38100Y5219700D01*
Y5816600D01*
X203200Y6057900D01*
X524030D01*
G02X534120Y6046580I-3J-10159D01*
G03X533630Y6038000I74691J-8570D01*
G01Y5892980D01*
G03X558800Y5836850I75180J4D01*
G01Y5702300D01*
X673100Y5588000D01*
X713770D01*
G02X721460Y5571200I-2J-10161D01*
G03X715360Y5562910I49994J-43176D01*
G03X691620Y5510300I46435J-52615D01*
G01Y5419580D01*
G02X676200Y5410890I-10158J-2D01*
G03X644300Y5410700I-15795J-26090D01*
G02X629260Y5416220I-5366J8629D01*
G03X616330Y5380970I-29030J-9348D01*
G02X631370Y5375450I5366J-8629D01*
G03X684430Y5366020I29030J9351D01*
G02X701210Y5364890I8007J-6254D01*
G03X831980Y5400300I60593J35402D01*
G01Y5464930D01*
X835270Y5466160D01*
G03X862080Y5571200I-23181J61858D01*
G02X869770Y5588000I7692J6639D01*
G01X1517870D01*
G02X1525550Y5571190I0J-10160D01*
G03X1552330Y5466110I49960J-43220D01*
G01X1555620Y5464880D01*
Y5400300D01*
G03X1695980I70180J-5D01*
G01Y5510300D01*
G03X1672170Y5562970I-70175J-6D01*
G03X1666110Y5571190I-56041J-34971D01*
G02X1673790Y5588000I7680J6650D01*
G01X1701800D01*
X1752600Y5638800D01*
Y5753100D01*
X1778000Y5778500D01*
X1803400D01*
X1854200Y5829300D01*
Y6057900D01*
X1892300Y6096000D01*
X2095500D01*
X2146300Y6045200D01*
Y5765800D01*
X2159000D01*
X2336800Y5588000D01*
Y5582640D01*
X2335560Y5581210D01*
G03X2317260Y5512440I61492J-53183D01*
G03X2317220Y5510300I70135J-2381D01*
G01Y5400300D01*
G03X2336800Y5351670I70177J-1D01*
G01Y5291280D01*
X2303320Y5257800D01*
X2265550D01*
G02X2255410Y5268720I-7J10161D01*
G03X2194590I-30410J2280D01*
G02X2184450Y5257800I-10133J-759D01*
G01X1783500D01*
Y5262900D01*
G03X1722500I-30500J100D01*
G01Y5257800D01*
X1437580D01*
G02X1427440Y5268590I0J10160D01*
G03X1366560I-30440J1910D01*
G02X1356420Y5257800I-10140J-630D01*
G01X1350470D01*
Y5263430D01*
X1350590Y5263970D01*
G03X1344620Y5289550I-29791J6534D01*
G02Y5302250I7930J6350D01*
G03X1296170Y5339290I-23825J19043D01*
G02X1281480Y5337470I-8201J5997D01*
G03X1249050Y5341620I-19484J-23468D01*
G02X1235760Y5346060I-4314J9197D01*
G03X1186780Y5352910I-26963J-14259D01*
G02X1173290Y5351860I-7333J7028D01*
G03X1176820Y5306490I-18488J-24261D01*
G02X1190310Y5307540I7333J-7028D01*
G03X1221750Y5304180I18492J24258D01*
G02X1235040Y5299740I4314J-9197D01*
G03X1289280Y5300370I26958J14262D01*
G02X1297680Y5301410I4546J-2272D01*
G03X1299440Y5299530I23125J19885D01*
G02Y5292270I-3555J-3630D01*
G03X1290360Y5268590I21360J-21771D01*
G02X1280220Y5257800I-10140J-630D01*
G01X924920D01*
G02X915690Y5272220I-5J10161D01*
G03X858550Y5292940I-27691J12784D01*
G02X844310Y5286440I-9810J2643D01*
G03X800520Y5260060I-13310J-27441D01*
G02X790360Y5250250I-10154J350D01*
G01X517770D01*
X515160Y5247640D01*
X388160D01*
X295180Y5154660D01*
X291910Y5156290D01*
G03X243980Y4995400I-37909J-76291D01*
G01X248460Y4994870D01*
Y4911130D01*
X243980Y4910600D01*
G03Y4741400I10020J-84600D01*
G01X248460Y4740870D01*
Y4657130D01*
X243980Y4656600D01*
G03Y4487400I10020J-84600D01*
G01X248460Y4486870D01*
Y4472940D01*
X220520Y4445000D01*
X-88900D01*
G37*
G36*
G01X1638480Y894080D02*
X1612850Y919710D01*
X1612640Y921430D01*
G03X1581830Y952240I-35300J-4490D01*
G01X1580110Y952450D01*
X1564370Y968190D01*
G02X1571970Y985520I7185J7180D01*
G03X1542720Y1014770I1230J30480D01*
G02X1525390Y1007170I-10150J-415D01*
G01X1333500Y1199060D01*
Y1206500D01*
X1295400Y1244600D01*
X648870D01*
G03X605790I-21540J-21590D01*
G01X363530D01*
G02X353470Y1256160I3J10160D01*
G03X154530I-99470J13840D01*
G02X144470Y1244600I-10063J-1400D01*
G01X127000D01*
X101600Y1270000D01*
Y4211780D01*
X154350Y4264530D01*
G02X170030Y4262910I7181J-7188D01*
G03X286560Y4413010I83971J55093D01*
G01Y4476990D01*
G03Y4667010I-32560J95010D01*
G01Y4747280D01*
G03Y4904720I-32560J78720D01*
G01Y4984990D01*
G03X335710Y5138390I-32560J95006D01*
G01X333210Y5141890D01*
X342280Y5150960D01*
X346750Y5146500D01*
X347120Y5145330D01*
G03X397600Y5187670I33879J10870D01*
G02X395160Y5203840I4743J8985D01*
G01X413560Y5222240D01*
X535480D01*
X538020Y5219700D01*
X1647430D01*
G02X1654610Y5202360I-5J-10159D01*
G01X1635940Y5183690D01*
X854530D01*
G03Y5130310I-23530J-26690D01*
G01X1658060D01*
X1747450Y5219700D01*
X1759760D01*
X1775000Y5234940D01*
X2189770D01*
G02X2199810Y5223270I-6J-10159D01*
G03X2270300Y5222480I35190J-5263D01*
G02X2280380Y5233920I10078J1281D01*
G01X2317540D01*
X2424100Y5340480D01*
X2424590Y5340780D01*
G03X2457580Y5400300I-37188J59515D01*
G01Y5449100D01*
X2461190Y5450190D01*
G03X2510950Y5563270I-23500J77829D01*
G02X2520100Y5577840I9153J4410D01*
G01X2928160D01*
X2959100Y5546900D01*
Y5541030D01*
X2959080Y5541010D01*
Y5384050D01*
G02X2947160Y5374040I-10161J-3D01*
G03X2917370Y5365600I-6163J-35041D01*
G02X2910630I-3370J3801D01*
G03X2866300Y5367940I-23631J-26600D01*
G02X2859550Y5368690I-2958J4128D01*
G03X2853700Y5316060I-26549J-23689D01*
G02X2860450Y5315310I2958J-4128D01*
G03X2910630Y5312400I26548J23690D01*
G02X2917370I3370J-3801D01*
G03X2947160Y5303960I23627J26601D01*
G02X2959080Y5293950I1759J-10007D01*
G01Y5095920D01*
X2955710Y5094710D01*
G03Y5037290I10290J-28710D01*
G01X2959080Y5036080D01*
Y4860080D01*
X2925020Y4826020D01*
X2728330D01*
X2673490Y4880860D01*
X2555200D01*
X2470960Y4965100D01*
X2469410D01*
X2468790Y4965720D01*
X2459080D01*
X2457690Y4968580D01*
G03X2393710I-31990J-15580D01*
G01X2392320Y4965720D01*
X2193690D01*
G02X2185510Y4981900I3J10159D01*
G03X2185050Y5024710I-28650J21100D01*
G02X2185820Y5031700I4028J3094D01*
G03X2134810Y5037290I-22820J27299D01*
G02X2134040Y5030300I-4028J-3094D01*
G03X2128210Y4981900I22819J-27300D01*
G02X2120030Y4965720I-8183J-6021D01*
G01X2080640D01*
X2080630Y4965730D01*
X1996080D01*
X1995450Y4965100D01*
X1981200D01*
X1975350Y4959250D01*
X1973000Y4959450D01*
G03X1943300Y4947520I-3005J-35452D01*
G02X1936680Y4946640I-3814J3355D01*
G03X1884570Y4931640I-19682J-29641D01*
G01X1050110D01*
X1046560Y4935190D01*
X1046360Y4936960D01*
G03X989450Y4961310I-35359J-3960D01*
G01X944420Y5006340D01*
X726440D01*
X707790Y4987690D01*
X704980Y4988430D01*
G03X668340Y4976380I-8979J-34429D01*
G02X661720Y4975260I-3946J3198D01*
G03X631550Y4911310I-18713J-30263D01*
G01X635000Y4910140D01*
Y4900050D01*
X634980Y4900030D01*
Y4777370D01*
X635000Y4777350D01*
Y4762500D01*
X715700Y4681800D01*
Y4175140D01*
G02X698310Y4168000I-10161J1D01*
G03X656430Y4174490I-25317J-24999D01*
G02X642350Y4179510I-4730J8990D01*
G03X584900Y4191210I-32749J-13910D01*
G02X570800I-7050J7315D01*
G03Y4139990I-24700J-25610D01*
G02X584900I7050J-7315D01*
G03X626170Y4134110I24703J25609D01*
G02X640250Y4129090I4730J-8990D01*
G03X653850Y4113010I32751J13908D01*
G02X655570Y4097270I-5468J-8562D01*
G01X609600Y4051300D01*
Y3810000D01*
X749300Y3670300D01*
X1016000D01*
X1066800Y3619500D01*
Y3320000D01*
G02X1055410Y3309920I-10159J4D01*
G03Y3239280I-4310J-35320D01*
G02X1066800Y3229200I1231J-10084D01*
G01Y2936520D01*
G02X1053230Y2926950I-10158J-2D01*
G03Y2869490I-10250J-28730D01*
G02X1066800Y2859920I3412J-9568D01*
G01Y2733510D01*
G02X1053310Y2723910I-10160J-1D01*
G03Y2666290I-10010J-28810D01*
G02X1066800Y2656690I3330J-9599D01*
G01Y2146300D01*
X1244600Y1968500D01*
X1562100D01*
X1737970Y1792630D01*
X1737240Y1789810D01*
G03X1774430Y1752620I29520J-7670D01*
G01X1777250Y1753350D01*
X1968500Y1562100D01*
Y1475740D01*
X1975540Y1468700D01*
X1975920Y1467580D01*
G03X1995780Y1447720I30080J10220D01*
G01X1996900Y1447340D01*
X2006600Y1437640D01*
X2064560D01*
X2089960Y1412240D01*
Y982980D01*
X2026550Y919570D01*
G02X2011870Y919890I-7187J7180D01*
G03X1951660Y914700I-28109J-25750D01*
G02X1934060Y915570I-8550J5484D01*
G03X1866780Y899190I-31698J-16165D01*
G01Y894080D01*
X1638480D01*
G37*
G36*
G01X1289860Y3960150D02*
Y3749040D01*
X1264460Y3723640D01*
X1226360D01*
Y3721100D01*
X749300D01*
X647700Y3822700D01*
Y4025900D01*
X787400Y4165600D01*
X828650D01*
X840100Y4154150D01*
X1126900D01*
X1138350Y4165600D01*
X1149420D01*
Y4160460D01*
G03X1215350Y4141430I35578J-462D01*
G02X1222220Y4143180I4333J-2650D01*
G03X1268630Y4152880I17777J30820D01*
G01X1281280D01*
G03X1344720I31720J16120D01*
G01X1377170D01*
X1378350Y4149450D01*
G03X1417950Y4125920I33653J11549D01*
G01X1420540Y4126360D01*
X1429560Y4117340D01*
Y4048300D01*
X1409700Y4028440D01*
X1396120D01*
G03X1336260Y4025920I-29123J-20440D01*
G02X1324050Y4021480I-8774J5119D01*
G03X1289860Y3960150I-12049J-33478D01*
G37*
G36*
G01X3904350Y5130800D02*
X3904340Y5072560D01*
Y4897720D01*
G02X3886450Y4891130I-10159J1D01*
G03X3869810Y4906680I-76449J-65130D01*
G02X3871710Y4924120I6046J8165D01*
G03X3825260Y4940900I-14522J32481D01*
G02X3815580Y4926270I-9118J-4485D01*
G03X3757590Y4911670I-5587J-100273D01*
G02X3743370Y4915490I-5294J8670D01*
G03X3740250Y4920260I-31241J-17029D01*
G02X3742330Y4934710I8037J6218D01*
G03X3693330Y4941760I-20860J28821D01*
G02X3691250Y4927310I-8037J-6218D01*
G03X3704970Y4863630I20860J-28824D01*
G02X3712770Y4851140I-2037J-9953D01*
G03X3886450Y4760870I97232J-25140D01*
G02X3904340Y4754280I7731J-6591D01*
G01Y4643720D01*
G02X3886450Y4637130I-10159J1D01*
G03X3783510Y4668870I-76446J-65132D01*
G02X3771620Y4682970I-2684J9800D01*
G03X3708320Y4715380I-32251J15031D01*
G02X3690470Y4715600I-8865J4961D01*
G03X3690050Y4681620I-31469J-16604D01*
G02X3707900Y4681400I8865J-4961D01*
G03X3735370Y4662650I31467J16603D01*
G02X3741190Y4645150I-1142J-10098D01*
G03X3824880Y4472680I68812J-73149D01*
G02X3836290Y4464920I1510J-10048D01*
G03X3841260Y4453350I34659J8036D01*
G02X3840120Y4446530I-4243J-2796D01*
G03X3826480Y4422320I21718J-28183D01*
G02X3820880Y4417840I-5047J569D01*
G03X3763280Y4406900I-10876J-99839D01*
G01X3602720D01*
G03X3509280I-46720J-88900D01*
G01X3378200D01*
X3352350Y4432750D01*
G02X3351980Y4446730I7183J7185D01*
G03X3354730Y4490880I-26440J23808D01*
G02X3356610Y4504530I8339J5806D01*
G03X3366820Y4518270I-22613J27467D01*
G02X3373070Y4521140I4686J-1964D01*
G03X3351180Y4568730I10932J33858D01*
G02X3344930Y4565860I-4686J1964D01*
G03X3321560Y4565330I-10923J-33861D01*
G01X3320700Y4565010D01*
X3314700D01*
Y4576520D01*
G02X3319310Y4581570I5078J-7D01*
G03Y4652430I-3310J35430D01*
G02X3314700Y4657480I468J5057D01*
G01Y4660900D01*
X3297960Y4677640D01*
X2686090D01*
G02X2675960Y4687000I-2J10160D01*
G03X2612620I-31670J-2510D01*
G02X2602490Y4677640I-10128J800D01*
G01X2535960D01*
X2463800Y4749800D01*
X2224810D01*
X2125750Y4650740D01*
Y4581380D01*
X2121800Y4580480D01*
G03Y4518520I7050J-30980D01*
G01X2125750Y4517620D01*
Y4467110D01*
X2122850Y4465730D01*
G03X2104750Y4438760I13621J-28700D01*
G01X2104640Y4436820D01*
X2100120Y4432300D01*
X2064480D01*
X2064220Y4437110D01*
G03X2000780I-31720J-1710D01*
G01X2000520Y4432300D01*
X1882370D01*
G02X1872730Y4445690I-6J10161D01*
G03X1807350Y4440740I-33734J11311D01*
G02X1805730Y4434240I-4515J-2327D01*
G03X1803180Y4432300I20246J-29258D01*
G01X983510D01*
G02X973400Y4443470I1J10161D01*
G03X960110Y4474880I-35403J3537D01*
G02X959660Y4490430I6308J7964D01*
G03X968300Y4531930I-23659J26575D01*
G02X972520Y4545030I9222J4259D01*
G03X979720Y4601590I-17520J30968D01*
G02X979220Y4608330I3532J3651D01*
G03X979930Y4650720I-28219J21674D01*
G02X981480Y4664270I8256J5919D01*
G03X989660Y4707230I-23481J26730D01*
G02X992770Y4720110I9043J4632D01*
G03X983500Y4782670I-20770J28889D01*
G02X977720Y4796890I3279J9617D01*
G03X934500Y4779330I-31723J16110D01*
G02X940280Y4765110I-3279J-9617D01*
G03X940340Y4732770I31721J-16111D01*
G02X937230Y4719890I-9043J-4632D01*
G03X929070Y4670280I20768J-28892D01*
G02X927520Y4656730I-8256J-5919D01*
G03X926280Y4604410I23480J-26731D01*
G02X926780Y4597670I-3532J-3651D01*
G03X922700Y4561070I28219J-21673D01*
G02X918480Y4547970I-9222J-4259D01*
G03X913890Y4489120I17518J-30970D01*
G02X914340Y4473570I-6308J-7964D01*
G03X902600Y4443470I23662J-26568D01*
G02X892490Y4432300I-10111J-1009D01*
G01X762000D01*
X749300Y4445000D01*
Y4699000D01*
X660400Y4787900D01*
Y4889500D01*
X689780Y4918880D01*
X692200Y4918620D01*
G03X731380Y4957800I3800J35380D01*
G01X731120Y4960220D01*
X739140Y4968240D01*
X934260D01*
X975990Y4926510D01*
X976310Y4925090D01*
G03X1007040Y4897640I34690J7909D01*
G01X1008810Y4897440D01*
X1028800Y4877450D01*
X1097370D01*
G02X1107510Y4866580I4J-10161D01*
G03X1173780Y4846250I35493J-2479D01*
G02X1191790Y4845400I8784J-5104D01*
G03X1258080Y4870860I32314J14893D01*
G01X1257850Y4871600D01*
Y4877450D01*
X1273370D01*
Y4871850D01*
X1273260Y4871340D01*
G03X1343590Y4866580I34836J-7239D01*
G02X1353730Y4877450I10136J709D01*
G01X1376770D01*
G02X1386910Y4866580I4J-10161D01*
G03X1457890I35490J-2480D01*
G02X1468030Y4877450I10136J709D01*
G01X1471400D01*
G02X1481440Y4865740I-1J-10160D01*
G03X1551760I35160J-5440D01*
G02X1561800Y4877450I10041J1550D01*
G01X1567270D01*
G02X1577410Y4866580I4J-10161D01*
G03X1648390I35490J-2480D01*
G02X1658530Y4877450I10136J709D01*
G01X1711240D01*
G02X1719850Y4861890I4J-10160D01*
G03X1746590Y4807580I30151J-18893D01*
G02X1751180Y4802600I-487J-5054D01*
G03X1765340Y4774730I35577J544D01*
G02X1762290Y4756930I-6114J-8114D01*
G03X1746840Y4698880I10709J-33931D01*
G02X1746970Y4692130I-3731J-3448D01*
G03X1800160Y4693120I27035J-23130D01*
G02X1800030Y4699870I3731J3448D01*
G03X1805960Y4709590I-27017J23152D01*
G02X1811950Y4712590I4704J-1913D01*
G03X1854890Y4757820I9047J34409D01*
G02X1860170Y4770070I9680J3091D01*
G03X1870380Y4826830I-15410J32070D01*
G03X1874320Y4842040I-31622J16307D01*
G02X1891080Y4849450I10156J-311D01*
G01X1994940D01*
X2007280Y4861800D01*
X2013300Y4855780D01*
X2011960Y4852630D01*
G03X2076820Y4853990I32736J-13933D01*
G03X2081320Y4883680I-29641J19679D01*
G02X2088000Y4896220I9751J2855D01*
G03X2112840Y4930140I-10740J33920D01*
G02X2123000Y4940300I10160J0D01*
G01X2392310D01*
X2393700Y4937440D01*
G03X2452900Y4930070I31996J15561D01*
G02X2467860Y4930700I7769J-6549D01*
G01X2543120Y4855440D01*
X2662960D01*
X2717800Y4800600D01*
X2946400D01*
X2984500Y4838700D01*
Y5027260D01*
G02X2997740Y5036940I10160J-2D01*
G03Y5095060I9260J29060D01*
G02X2984500Y5104740I-3080J9682D01*
G01Y5440910D01*
G02X2999770Y5449690I10160J-2D01*
G03X3036190Y5452810I15992J27451D01*
G03X3037330Y5500470I21569J23328D01*
G03X2999770Y5504590I-21565J-23330D01*
G02X2984500Y5513370I-5110J8782D01*
G01Y5532580D01*
X3029760Y5577840D01*
X3118720D01*
G02X3127870Y5563270I-1J-10159D01*
G03X3165980Y5454650I73239J-35299D01*
G01Y5400300D01*
G03X3336820I85420J-5D01*
G01Y5510300D01*
G03X3319710Y5561580I-85416J-5D01*
G02X3327840Y5577840I8126J6100D01*
G01X3334560D01*
X3372660Y5615940D01*
Y5810420D01*
G02X3385390Y5820250I10161J-1D01*
G03X3479570Y5892980I19001J72738D01*
G01Y6035040D01*
X3817160D01*
X3842560Y6009640D01*
Y5995260D01*
X3842070Y5994220D01*
G03Y5967980I27530J-13120D01*
G01X3842560Y5966940D01*
Y5883530D01*
X3841970Y5882410D01*
G03Y5853790I26930J-14310D01*
G01X3842560Y5852670D01*
Y5779360D01*
X3842070Y5778320D01*
G03Y5752080I27530J-13120D01*
G01X3842560Y5751040D01*
Y5682320D01*
X3842290Y5681530D01*
G03Y5662070I28910J-9730D01*
G01X3842560Y5661280D01*
Y5589020D01*
X3842290Y5588230D01*
G03Y5568770I28910J-9730D01*
G01X3842560Y5567980D01*
Y5501640D01*
X3846930Y5497270D01*
X3842070Y5492410D01*
X3840280Y5492220D01*
G03X3891370Y5317000I9736J-92220D01*
G02X3906060Y5307910I4532J-9091D01*
G01Y5185850D01*
X3904350Y5184140D01*
Y5130800D01*
G37*
G36*
G01X2166160Y1143000D02*
X2128060Y1181100D01*
Y1431230D01*
G03X2098640Y1487470I-16043J27423D01*
G01X2095420Y1485980D01*
X2088160Y1493240D01*
X2087810Y1493880D01*
G03X2075190Y1506500I-27870J-15250D01*
G01X2074550Y1506850D01*
X1797240Y1784160D01*
X1797030Y1785890D01*
G03X1770510Y1812410I-30270J-3750D01*
G01X1768780Y1812620D01*
X1549400Y2032000D01*
X1237160D01*
X1104900Y2164260D01*
Y2509570D01*
G02X1114500Y2519710I10158J-3D01*
G03Y2590770I-1980J35530D01*
G02X1104900Y2600910I558J10143D01*
G01Y2793110D01*
X1108680Y2794110D01*
G03Y2853090I-7780J29490D01*
G01X1104900Y2854090D01*
Y3619500D01*
X1120140Y3634740D01*
X1292860D01*
X1302540Y3625060D01*
Y3599450D01*
X1305540Y3596450D01*
Y3377880D01*
G02X1294920Y3367730I-10161J1D01*
G03X1320020Y3308660I-1590J-35543D01*
G02X1326630Y3309550I3816J-3354D01*
G03X1329870Y3307650I19592J29698D01*
G01X1330580Y3307280D01*
X1337980Y3299880D01*
X1335990Y3296500D01*
G03X1365270Y3242930I30680J-18018D01*
G02X1374950Y3234050I-401J-10153D01*
G03X1388120Y3210640I35300J4450D01*
G02X1389010Y3203600I-3164J-3976D01*
G03X1452710Y3178030I28358J-21484D01*
G01X1453230Y3182530D01*
X1940560D01*
G02X1949020Y3166750I-1J-10158D01*
G03X2008300I29640J-19690D01*
G02X2016760Y3182530I8461J5622D01*
G01X2151470D01*
X2323290Y3010710D01*
X2322650Y3007970D01*
G03X2334260Y2972790I34651J-8070D01*
G01Y2108200D01*
X2463800Y1978660D01*
Y1676220D01*
X2567760Y1572260D01*
X2881990D01*
G02X2891860Y1559680I1J-10161D01*
G03X2951100I29620J-7260D01*
G02X2960970Y1572260I9869J2419D01*
G01X3032580D01*
X3121660Y1483180D01*
Y1252400D01*
X3012260Y1143000D01*
X2852300D01*
G03X2790020I-31140J-17220D01*
G01X2166160D01*
G37*
G36*
G01X932970Y4207530D02*
X896160Y4244340D01*
Y4267200D01*
X897430Y4268470D01*
Y4309980D01*
G02X910350Y4319750I10159J-6D01*
G03X953430Y4341830I9645J34248D01*
G02X959680Y4344950I4773J-1742D01*
G03X1005330Y4374830I10317J34050D01*
G01X1005540Y4376580D01*
X1023160Y4394200D01*
X1211790D01*
X1211800Y4389130D01*
G03X1272800I30500J70D01*
G01X1272810Y4394200D01*
X1340780D01*
X1341410Y4389850D01*
G03X1401790I30190J4350D01*
G01X1402420Y4394200D01*
X1470080D01*
X1470710Y4389850D01*
G03X1531090I30190J4350D01*
G01X1531720Y4394200D01*
X1791930D01*
X1793250Y4391100D01*
G03X1858750I32750J13900D01*
G01X1860070Y4394200D01*
X2095500D01*
X2133600Y4356100D01*
X2476500D01*
X2501900Y4330700D01*
Y4216400D01*
X2464340Y4178840D01*
X2461160Y4180250D01*
G03X2432820Y4178940I-12857J-29051D01*
G01X2431670Y4178300D01*
X2393530D01*
G03X2349670I-21930J-22990D01*
G01X2301460D01*
X2300400Y4178810D01*
G03X2272660I-13870J-28580D01*
G01X2271600Y4178300D01*
X2206590D01*
X2206330Y4178330D01*
G03X2199710I-3310J-31600D01*
G01X2199450Y4178300D01*
X2133800D01*
X2132790Y4178760D01*
G03X2106290I-13250J-28870D01*
G01X2105280Y4178300D01*
X2060640D01*
G03X2017840I-21400J-23480D01*
G01X1746250D01*
G02X1738780Y4195340I4J10159D01*
G01X1783880Y4240440D01*
G03X1784360Y4240930I-18833J18929D01*
G01X1791690Y4248260D01*
Y4258520D01*
G03Y4260120I-26690J800D01*
G01Y4275470D01*
G03X1737200Y4276800I-26687J23531D01*
G01X1738310Y4275400D01*
Y4270390D01*
X1736270Y4268350D01*
X1730600D01*
X1729080Y4270500D01*
G03X1664470Y4248040I-29083J-20499D01*
G02X1654330Y4237320I-10143J-562D01*
G01X1642110D01*
X1593590Y4285840D01*
X1180250D01*
X1133700Y4239290D01*
Y4236450D01*
X1104780Y4207530D01*
X1091180D01*
Y4213820D01*
X1091730Y4214910D01*
G03X1089200Y4251330I-31731J16094D01*
G02X1090200Y4258200I4172J2901D01*
G03X1038800Y4265670I-22202J27801D01*
G02X1037800Y4258800I-4172J-2901D01*
G03X1025960Y4220650I22200J-27802D01*
G02X1016240Y4207530I-9719J-2960D01*
G01X932970D01*
G37*
G36*
G01X2390140Y2092960D02*
X2362200Y2120900D01*
Y2964440D01*
X2366030Y2965410D01*
G03X2385060Y3022160I-8729J34493D01*
G02X2385360Y3028850I3964J3174D01*
G03X2333880Y3077980I-25659J24649D01*
G02X2319320Y3077780I-7377J6985D01*
G01X2223020Y3174080D01*
G02X2230380Y3191430I7180J7190D01*
G03X2227860Y3262440I620J35572D01*
G02X2217510Y3276280I-894J10121D01*
G03X2187540Y3253860I-33111J13020D01*
G02X2197890Y3240020I894J-10121D01*
G03X2195430Y3226380I33112J-13014D01*
G02X2178080Y3219020I-10160J-180D01*
G01X2171700Y3225400D01*
X1915060D01*
X1914010Y3229090D01*
G03X1855350I-29330J-8370D01*
G01X1854300Y3225400D01*
X1636700D01*
Y3223000D01*
X1529520D01*
X1525360Y3227160D01*
X1471840D01*
X1436680Y3262320D01*
G03X1434160Y3264850I-26437J-23813D01*
G01X1434070Y3264930D01*
X1428870Y3270130D01*
G02X1430200Y3285620I7183J7185D01*
G03X1393570Y3346420I-20492J29089D01*
G02X1379470Y3351870I-4603J9055D01*
G03X1342250Y3374620I-33270J-12610D01*
G02X1330960Y3384720I-1130J10097D01*
G01Y3606980D01*
X1327960Y3609980D01*
Y3939540D01*
X1361230Y3972810D01*
X1363610Y3972580D01*
G03X1397890Y3990340I3390J35419D01*
G01X1422400D01*
X1473200Y4041140D01*
Y4102100D01*
X1511300Y4140200D01*
X1969190D01*
G02X1978330Y4125600I3J-10159D01*
G03X2038620Y4113430I28567J-13900D01*
G02X2046460Y4123880I10145J555D01*
G03X2067450Y4140200I-7217J30941D01*
G01X2089100D01*
X2090430Y4137160D01*
G03X2148650I29110J12730D01*
G01X2149980Y4140200D01*
X2171710D01*
X2172870Y4136720D01*
G03X2233170I30150J10010D01*
G01X2234330Y4140200D01*
X2256210D01*
X2257550Y4137200D01*
G03X2315510I28980J13030D01*
G01X2316850Y4140200D01*
X2343650D01*
G03X2399550I27950J15110D01*
G01X2418330D01*
X2419710Y4137340D01*
G03X2478540Y4141450I28590J13858D01*
G01X2478910Y4142610D01*
X2540000Y4203700D01*
Y4330700D01*
X2531610Y4339090D01*
G02X2536020Y4356050I7182J7186D01*
G03X2546160Y4361000I-8646J30572D01*
G02X2559060Y4360270I6007J-8191D01*
G03X2561840Y4409220I21569J23329D01*
G02X2548940Y4409950I-6007J8191D01*
G03X2496800Y4395270I-21568J-23328D01*
G02X2479840Y4390860I-9774J2772D01*
G01X2476500Y4394200D01*
X2304950D01*
G02X2295000Y4406430I-2J10161D01*
G03X2249590Y4441270I-31104J6473D01*
G02X2235340Y4447230I-4578J9069D01*
G03X2178970Y4455580I-30245J-9729D01*
G02X2162350Y4455460I-8352J5780D01*
G03X2159000Y4459430I-25875J-18436D01*
G01Y4539460D01*
X2159220Y4540180D01*
G03Y4558820I-30370J9320D01*
G01X2159000Y4559540D01*
Y4635500D01*
X2247900Y4724400D01*
X2396240D01*
G02X2406360Y4715150I1J-10160D01*
G03X2462320Y4697560I31641J2851D01*
G02X2477290Y4698210I7783J-6531D01*
G01X2540000Y4635500D01*
X2705100D01*
X2722650Y4653050D01*
X2725210D01*
G02X2735170Y4640890I1J-10158D01*
G03X2797470I31150J-6270D01*
G02X2807430Y4653050I9959J2002D01*
G01X2888540D01*
G02X2898410Y4640480I2J-10159D01*
G03X2960150I30870J-7520D01*
G02X2970020Y4653050I9868J2411D01*
G01X3210370D01*
G02X3220360Y4641050I0J-10158D01*
G03X3268330Y4608290I31246J-5748D01*
G02X3283080Y4603500I5347J-8640D01*
G03X3289300Y4593480I32922J13496D01*
G01Y4457700D01*
X3295450Y4451550D01*
G03X3306550Y4440450I30090J18990D01*
G01X3365500Y4381500D01*
X3459120D01*
G02X3468020Y4366440I2J-10158D01*
G03X3643980I87980J-48440D01*
G02X3652880Y4381500I8898J4902D01*
G01X3713120D01*
G02X3722020Y4366440I2J-10158D01*
G03X3819790Y4218050I87978J-48438D01*
G02X3828830Y4201730I996J-10112D01*
G03X3821670Y4175780I28169J-21735D01*
G02X3811440Y4164420I-10088J-1202D01*
G03X3881510Y3993480I-1438J-100421D01*
G02X3898900Y3986350I7231J-7135D01*
G01Y3887650D01*
G02X3881510Y3880520I-10159J5D01*
G03Y3739480I-71510J-70520D01*
G02X3898900Y3732350I7231J-7135D01*
G01Y3633650D01*
G02X3881510Y3626520I-10159J5D01*
G03Y3485480I-71510J-70520D01*
G02X3898900Y3478350I7231J-7135D01*
G01Y3379650D01*
G02X3881510Y3372520I-10159J5D01*
G03Y3231480I-71510J-70520D01*
G02X3898900Y3224350I7231J-7135D01*
G01Y3125650D01*
G02X3881510Y3118520I-10159J5D01*
G03Y2977480I-71510J-70520D01*
G02X3898900Y2970350I7231J-7135D01*
G01Y2871650D01*
G02X3881510Y2864520I-10159J5D01*
G03X3746060Y2716550I-71510J-70520D01*
G02X3745130Y2700200I-6468J-7834D01*
G03X3791460Y2681470I16610J-25580D01*
G02X3802160Y2693880I9902J2280D01*
G03X3841570Y2698660I7851J100122D01*
G02X3854490Y2686050I3201J-9644D01*
G03X3887470Y2646900I29173J-8891D01*
G02X3898900Y2636820I1270J-10080D01*
G01Y2593770D01*
G02X3880350Y2588040I-10160J1D01*
G03Y2491960I-70350J-48040D01*
G02X3898900Y2486230I8390J-5731D01*
G01Y2463800D01*
X3886190Y2451090D01*
X3884050Y2451120D01*
G03X3854430Y2429330I-389J-30498D01*
G01X3853350Y2425700D01*
X3783860D01*
X3782610Y2428970D01*
G03X3725630I-28490J-10890D01*
G01X3724380Y2425700D01*
X3492500D01*
X3393440Y2326640D01*
Y2324280D01*
X3255890Y2186730D01*
G02X3240300Y2188220I-7179J7188D01*
G03X3190880Y2138800I-29450J-19970D01*
G02X3192370Y2123210I-5698J-8411D01*
G01X3162120Y2092960D01*
X2850640D01*
G02X2840880Y2105940I1J10160D01*
G03X2772520I-34180J9880D01*
G02X2762760Y2092960I-9761J-2820D01*
G01X2507850D01*
G03X2470550I-18650J-30300D01*
G01X2390140D01*
G37*
%LPC*%
G75*
G36*
G01X3281630Y1520580D02*
G03X3268030Y1519800I-6368J-7914D01*
G02X3265420Y1564970I-21729J21405D01*
G03X3279020Y1565750I6368J7914D01*
G02X3281630Y1520580I21729J-21405D01*
G37*
G36*
G01X2753330Y872060D02*
G03X2753450Y858730I7728J-6596D01*
G02X2707410Y858340I-22851J-20201D01*
G03X2707290Y871670I-7728J6596D01*
G02X2753330Y872060I22851J20201D01*
G37*
G36*
G01X2875990Y496270D02*
G03X2878270Y482510I8428J-5672D01*
G02X2820840Y484690I-30268J-39810D01*
G03X2824150Y498240I-5522J8528D01*
G02X2875990Y496270I26529J15049D01*
G37*
G36*
G01X2086810Y167780D02*
G03X2079570Y167490I-3477J-3705D01*
G02X2034540Y167360I-22574J20510D01*
G03X2027350Y167650I-3740J-3438D01*
G02X2029060Y210640I-20750J22354D01*
G03X2036250Y210350I3740J3438D01*
G02X2077890Y210220I20750J-22351D01*
G03X2085130Y210510I3477J3705D01*
G02X2086810Y167780I22571J-20511D01*
G37*
G36*
G01X3531660Y2186870D02*
G02X3498730Y2201510I-26463J-15168D01*
G03X3502910Y2219380I-2156J9928D01*
G02X3623740Y2234340I53093J66621D01*
G03X3626370Y2219600I8078J-6163D01*
G02X3579580Y2192160I-16339J-25752D01*
G03X3568000Y2201660I-10146J-559D01*
G02X3542130Y2201950I-11991J84341D01*
G03X3531660Y2186870I-1656J-10025D01*
G37*
G36*
G01X3425920Y2179790D02*
G02X3389840Y2186220I-22318J-20790D01*
G03X3392680Y2202210I-4590J9063D01*
G02X3428760Y2195780I22318J20790D01*
G03X3425920Y2179790I4590J-9063D01*
G37*
G36*
G01X3632710Y1968000D02*
G02X3596750Y1940780I-5588J-29981D01*
G03X3583360Y1951320I-10119J921D01*
G02X3626210Y1983740I-27354J80682D01*
G03X3632710Y1968000I8371J-5755D01*
G37*
G36*
G01X2963480Y719860D02*
G02X2944020Y764680I-26479J15138D01*
G03X2956520Y774190I2346J9887D01*
G02X3030060Y836400I65144J-2437D01*
G03X3041520Y846850I1309J10073D01*
G02X3100540Y837230I30481J1145D01*
G03X3110280Y823490I9505J-3584D01*
G02X3130710Y769730I717J-30490D01*
G03X3129460Y755480I6568J-7756D01*
G02X3079890Y720230I-23459J-19490D01*
G03X3064520Y722630I-8693J-5256D01*
G02X2978950Y722500I-42860J49120D01*
G03X2963480Y719860I-6650J-7680D01*
G37*
G36*
G01X2266240Y659690D02*
G02X2205500Y656220I-30241J-3990D01*
G03X2196480Y666490I-10156J176D01*
G02X2230400Y696280I3422J30310D01*
G03X2239420Y686010I10156J-176D01*
G02X2247020Y684140I-3427J-30308D01*
G03X2260760Y694940I3668J9474D01*
G02X2279980Y670490I30239J3991D01*
G03X2266240Y659690I-3668J-9474D01*
G37*
G36*
G01X648000Y511190D02*
X647590D01*
G02X558270Y548360I421J126916D01*
G01X549280Y557340D01*
G02X533060Y601420I39518J39565D01*
G01X533080Y601630D01*
Y663300D01*
G02X548700Y702070I55925J0D01*
G03X548680Y709140I-3657J3525D01*
G02X532850Y747060I40081J38996D01*
G02X533180Y785430I685314J13292D01*
G02X599720Y932690I198718J-1128D01*
G03X596360Y949850I-6756J7586D01*
G02X583310Y998370I10178J28753D01*
G03X583060Y1011820I-7737J6584D01*
G02X583540Y1053550I22481J20609D01*
G03X583530Y1067640I-7329J7040D01*
G02X632130Y1103660I21969J21155D01*
G03X646930Y1100360I8872J4951D01*
G02X635220Y1064900I18551J-25790D01*
G03X626830Y1066990I-4840J-1545D01*
G02X624140Y1064650I-21328J21802D01*
G03Y1056600I3101J-4025D01*
G02X628770Y1012660I-18599J-24174D01*
G03X629020Y999210I7737J-6584D01*
G02X636930Y976030I-22480J-20611D01*
G03X651180Y965880I10125J-864D01*
G02X676250Y975070I80776J-181563D01*
G01Y989840D01*
X754950D01*
Y1060130D01*
X1022030D01*
Y979840D01*
X1091760D01*
Y874360D01*
X1022030D01*
Y792060D01*
X754950D01*
Y864360D01*
X698150D01*
G03X645020Y784300I33755J-80060D01*
G01Y784270D01*
G02X644980Y782170I-55920J15D01*
G03X644670Y749220I573184J-21869D01*
G02X629060Y709370I-55910J-1081D01*
G03X629080Y702300I3657J-3525D01*
G02X644920Y663300I-40091J-39000D01*
G01Y656190D01*
X650340D01*
X650670Y656230D01*
G02X681670Y611760I4029J-30231D01*
G02X648000Y511190I-33670J-44649D01*
G37*
G36*
G01X2644470Y158390D02*
G02X2639960Y196570I-25771J16312D01*
G03X2655630Y198410I7088J7279D01*
G02X2660140Y160230I25771J-16312D01*
G03X2644470Y158390I-7088J-7279D01*
G37*
G36*
G01X1918400Y5681770D02*
G03X1923640Y5694770I-4203J9250D01*
G02X1924610Y5719420I28359J11228D01*
G03X1920610Y5732670I-9121J4475D01*
G02X1908660Y5745470I15382J26338D01*
G03X1896340Y5750600I-9104J-4506D01*
G02X1914020Y5793060I-9658J28932D01*
G03X1926340Y5787930I9104J4506D01*
G02X1963390Y5745580I9661J-28930D01*
G03X1967390Y5732330I9121J-4475D01*
G02X1964600Y5678230I-15393J-26328D01*
G03X1959360Y5665230I4203J-9250D01*
G02X1918400Y5681770I-28355J-11233D01*
G37*
G36*
G01X1904400Y5516850D02*
G03X1917490Y5513830I8259J5917D01*
G02X1907200Y5469250I14511J-26827D01*
G03X1894110Y5472270I-8259J-5917D01*
G02X1904400Y5516850I-14511J26827D01*
G37*
G36*
G01X976930Y5509400D02*
G02X977370Y5463790I20470J-22610D01*
G02X976930Y5509400I-20470J22610D01*
G37*
G36*
G01X1402230Y5456530D02*
G02X1403290Y5500750I-20469J22613D01*
G02X1402230Y5456530I20469J-22613D01*
G37*
G36*
G01X2066980Y5830500D02*
G02X2040450Y5845990I21J30500D01*
G03X2026590Y5849820I-8842J-5004D01*
G02X2038090Y5891360I-15050J26528D01*
G03X2051950Y5887530I8842J5004D01*
G02X2095890Y5851220I15050J-26529D01*
G03X2103630Y5837970I9623J-3265D01*
G02X2120450Y5787350I-5629J-29975D01*
G03X2121190Y5772860I7472J-6882D01*
G02X2078550Y5770650I-20192J-22860D01*
G03X2077810Y5785140I-7472J6882D01*
G02X2071410Y5822930I20192J22857D01*
G03X2066980Y5830500I-4431J2488D01*
G37*
G36*
G01X1147780Y5469280D02*
G02X1135950Y5498060I-30179J4416D01*
G03X1152110Y5504710I6107J8119D01*
G02X1163940Y5475930I30179J-4416D01*
G03X1147780Y5469280I-6107J-8119D01*
G37*
G36*
G01X2165710Y5354640D02*
G02X2117470Y5391690I-22713J20357D01*
G03X2111740Y5407020I-8503J5558D01*
G02X2092560Y5423150I8309J29349D01*
G03X2078810Y5427800I-9151J-4406D01*
G02X2092490Y5468220I-13808J27198D01*
G03X2106240Y5463570I9151J4406D01*
G02X2145580Y5419680I13812J-27196D01*
G03X2151310Y5404350I8503J-5558D01*
G02X2160000Y5400330I-8303J-29351D01*
G03X2173220Y5401980I5660J8434D01*
G02X2178930Y5356290I22709J-20364D01*
G03X2165710Y5354640I-5660J-8434D01*
G37*
G36*
G01X521330Y5336030D02*
G02X485150Y5328800I-13331J-27431D01*
G03X481970Y5344670I-7615J6728D01*
G02X518150Y5351900I13331J27431D01*
G03X521330Y5336030I7615J-6728D01*
G37*
G36*
G01X153790Y5241080D02*
G02X118160Y5241620I-18190J-24481D01*
G03X118410Y5258120I-5804J8340D01*
G02X116950Y5305920I18192J24478D01*
G03X116700Y5321660I-6550J7768D01*
G02X155250Y5322280I18895J23941D01*
G03X155500Y5306540I6550J-7768D01*
G02X154040Y5257580I-18900J-23938D01*
G03X153790Y5241080I5804J-8340D01*
G37*
G36*
G01X2883520Y5460890D02*
G03X2869510Y5460800I-6958J-7405D01*
G02X2869170Y5512320I-24711J25598D01*
G03X2883180Y5512410I6958J7405D01*
G02X2883520Y5460890I24711J-25598D01*
G37*
G36*
G01X2602470Y5513850D02*
G02X2603030Y5455340I20529J-29061D01*
G02X2602470Y5513850I-20529J29061D01*
G37*
G36*
G01X2810200Y5245080D02*
G02X2814050Y5197110I-24200J-26082D01*
G02X2751510Y5171430I-27053J-23111D01*
G03X2738850Y5180540I-10133J-730D01*
G02X2735410Y5250170I-8849J34463D01*
G03X2746720Y5263030I1549J10041D01*
G02X2809560Y5251820I34181J9872D01*
G03X2810200Y5245080I4092J-3012D01*
G37*
G36*
G01X2093920Y5149850D02*
G03Y5137150I7930J-6350D01*
G02X2046280I-23820J-19050D01*
G03Y5149850I-7930J6350D01*
G02X2093920I23820J19050D01*
G37*
G36*
G01X1152530Y5095080D02*
G03X1158870I3170J3970D01*
G02Y5039520I22230J-27780D01*
G03X1152530I-3170J-3970D01*
G02Y5095080I-22230J27780D01*
G37*
G36*
G01X1000130D02*
G03X1006470I3170J3970D01*
G02Y5039520I22230J-27780D01*
G03X1000130I-3170J-3970D01*
G02Y5095080I-22230J27780D01*
G37*
G36*
G01X1709840Y5038390D02*
G02X1710260Y5095910I-20739J28913D01*
G02X1709840Y5038390I20739J-28913D01*
G37*
G36*
G01X1859180Y5017840D02*
G03X1856930Y5011470I2452J-4449D01*
G02X1806820Y5029160I-32932J-13469D01*
G03X1809070Y5035530I-2452J4449D01*
G02X1807900Y5059160I32930J13474D01*
G03X1805030Y5065280I-4869J1450D01*
G02X1853100Y5087840I13972J32721D01*
G03X1855970Y5081720I4869J-1450D01*
G02X1859180Y5017840I-13970J-32723D01*
G37*
G36*
G01X459860Y4995540D02*
G03X459960Y5002390I-3699J3480D01*
G02X512480Y5001600I26621J23609D01*
G03X512380Y4994750I3699J-3480D01*
G02X459860Y4995540I-26621J-23609D01*
G37*
G36*
G01X2862510Y4916620D02*
G03X2877150Y4912180I9260J4176D01*
G02X2863560Y4867380I18849J-30179D01*
G03X2848920Y4871820I-9260J-4176D01*
G02X2862510Y4916620I-18849J30179D01*
G37*
G36*
G01X598240Y4475050D02*
G03X582860I-7690J-6637D01*
G02X538050Y4519860I-24060J20750D01*
G03Y4535240I-6637J7690D01*
G02X582860Y4580050I20750J24060D01*
G03X598240I7690J6637D01*
G02X643050Y4535240I24060J-20750D01*
G03Y4519860I6637J-7690D01*
G02X598240Y4475050I-20750J-24060D01*
G37*
G36*
G01X884050Y3216150D02*
G03X875960Y3227120I-10107J1015D01*
G02X864590Y3292450I7037J34879D01*
G03X866620Y3298830I-2624J4348D01*
G02X934700Y3310180I32617J14212D01*
G03X943710Y3299260I10130J-819D01*
G02X951140Y3230170I-3909J-35365D01*
G03X944380Y3218680I3229J-9633D01*
G02X884050Y3216150I-29984J-5583D01*
G37*
G36*
G01X440370Y3074500D02*
G03Y3061180I7671J-6660D01*
G02X394330I-23020J-20010D01*
G03Y3074500I-7671J6660D01*
G02X440370I23020J20010D01*
G37*
G36*
G01Y2678260D02*
G03Y2664940I7671J-6660D01*
G02X394330I-23020J-20010D01*
G03Y2678260I-7671J6660D01*
G02X440370I23020J20010D01*
G37*
G36*
G01X828360Y2652850D02*
G03X828910Y2638350I7381J-6980D01*
G02X779150Y2636450I-23910J-26349D01*
G03X778600Y2650950I-7381J6980D01*
G02X828360Y2652850I23910J26349D01*
G37*
G36*
G01X618960Y2578540D02*
G03X618650Y2585520I-3839J3326D01*
G02X670250Y2587820I24710J25600D01*
G03X670560Y2580840I3839J-3326D01*
G02X618960Y2578540I-24710J-25600D01*
G37*
G36*
G01X418780Y2164130D02*
G03X414020Y2159210I319J-5071D01*
G02X376240Y2195780I-35563J1061D01*
G03X381000Y2200700I-319J5071D01*
G02X418780Y2164130I35563J-1061D01*
G37*
G36*
G01X439980Y2001510D02*
G03X439520Y1994860I3596J-3590D01*
G02X385950Y1998610I-28415J-21411D01*
G03X386410Y2005260I-3596J3590D01*
G02X387950Y2049980I28420J21408D01*
G03Y2056650I-3835J3335D01*
G02X441660Y2056700I26833J23362D01*
G03Y2050030I3835J-3335D01*
G02X439980Y2001510I-26833J-23360D01*
G37*
G36*
G01X1428310Y1715600D02*
G03X1421650Y1715590I-3324J-3841D01*
G02X1421570Y1769300I-23380J26820D01*
G03X1428230Y1769310I3324J3841D01*
G02X1428310Y1715600I23380J-26820D01*
G37*
G36*
G01X1241420Y1731430D02*
G03X1236430Y1736420I-5075J-85D01*
G02X1272580Y1772570I570J35580D01*
G03X1277570Y1767580I5075J85D01*
G02X1241420Y1731430I-570J-35580D01*
G37*
G36*
G01X802420Y1471370D02*
G03X789500Y1468780I-4941J-8875D01*
G02X743170Y1464930I-24959J19659D01*
G03X730240Y1465550I-6840J-7513D01*
G02X732570Y1514490I-19040J25432D01*
G03X745500Y1513870I6840J7513D01*
G02X780000Y1516200I19046J-25429D01*
G03X792920Y1518790I4941J8875D01*
G02X802420Y1471370I24958J-19662D01*
G37*
G36*
G01X1509080Y1479480D02*
G03X1524330Y1478510I8050J6196D01*
G02X1521680Y1436730I22529J-22403D01*
G03X1506430Y1437700I-8050J-6196D01*
G02X1509080Y1479480I-22529J22403D01*
G37*
G36*
G01X1505760Y1150950D02*
G03X1491580Y1150560I-6890J-7469D01*
G02X1443680Y1153260I-22778J22142D01*
G03X1430320Y1155690I-8033J-6223D01*
G02X1438790Y1202190I-16652J27055D01*
G03X1452150Y1199760I8033J6223D01*
G02X1490340Y1196050I16646J-27060D01*
G03X1504520Y1196440I6890J7469D01*
G02X1505760Y1150950I22781J-22141D01*
G37*
G36*
G01X2005110Y1113640D02*
G02X1951950Y1069540I-21113J-28640D01*
G02X1937670Y1138730I-2956J35459D01*
G03X1941040Y1144490I-1620J4814D01*
G02X1940510Y1148630I34965J6580D01*
G03X1935780Y1153350I-5069J-350D01*
G02X1906080Y1173440I2369J35501D01*
G03X1891380Y1177550I-9155J-4402D01*
G02X1900730Y1219090I-16631J25566D01*
G03X1915780Y1216510I8658J5322D01*
G02X1973640Y1191320I22370J-27664D01*
G03X1978370Y1186600I5069J350D01*
G02X2003330Y1128320I-2371J-35500D01*
G03X2005110Y1113640I7808J-6501D01*
G37*
G36*
G01X2688970Y5313290D02*
G02X2680460Y5345410I-34668J8002D01*
G03X2697830Y5350010I7471J6886D01*
G02X2706340Y5317890I34668J-8002D01*
G03X2688970Y5313290I-7471J-6886D01*
G37*
G36*
G01X633420Y5137150D02*
G02Y5175250I-23820J19050D01*
G03X649280I7930J6350D01*
G02Y5137150I23820J-19050D01*
G03X633420I-7930J-6350D01*
G37*
G36*
G01X1508080Y5023530D02*
G02X1487720Y5048980I-34878J-7033D01*
G03X1501820Y5060270I4141J9278D01*
G02X1560030Y5094170I34880J7034D01*
G02X1559670Y5040130I22969J-27174D01*
G02X1522180Y5034820I-22969J27171D01*
G03X1508080Y5023530I-4141J-9278D01*
G37*
G36*
G01X1144120Y1519110D02*
G02X1109810Y1514780I-13818J-28609D01*
G03X1107680Y1531690I-6551J7764D01*
G02X1141990Y1536020I13818J28609D01*
G03X1144120Y1519110I6551J-7764D01*
G37*
G36*
G01X1410530Y1479300D02*
G02X1354310Y1506800I-30528J8808D01*
G03X1350730Y1521820I-8213J5979D01*
G02X1396910Y1551980I14468J28282D01*
G03X1412560Y1544030I10145J592D01*
G02X1422590Y1486380I17211J-26703D01*
G03X1410530Y1479300I-2300J-9894D01*
G37*
G36*
G01X1313110Y1514190D02*
G02X1272690Y1508670I-16914J-26891D01*
G03X1270590Y1524110I-7513J6841D01*
G02X1311010Y1529630I16914J26891D01*
G03X1313110Y1514190I7513J-6841D01*
G37*
G36*
G01X1229930Y1510150D02*
G02X1194940Y1507940I-15825J-27549D01*
G03X1193870Y1524850I-6130J8101D01*
G02X1228860Y1527060I15825J27549D01*
G03X1229930Y1510150I6130J-8101D01*
G37*
G36*
G01X1156470Y3962790D02*
G03X1156600Y3969730I-3642J3539D01*
G02X1208530Y3968790I26405J23849D01*
G03X1208400Y3961850I3642J-3539D01*
G02X1156470Y3962790I-26405J-23849D01*
G37*
G36*
G01X1168150Y3828630D02*
G03X1174870Y3827430I4021J3102D01*
G02X1162760Y3779910I18930J-30127D01*
G03X1156280Y3782080I-4434J-2479D01*
G02X1168150Y3828630I-12280J27920D01*
G37*
G36*
G01X3434600Y4963550D02*
G03X3426770Y4974470I-10110J1018D01*
G02X3470160Y5005590I7989J34670D01*
G03X3477990Y4994670I10110J-1018D01*
G02X3434600Y4963550I-7989J-34670D01*
G37*
G36*
G01X861680Y4893770D02*
G03X862420Y4886630I3943J-3200D01*
G02X815600Y4884890I-22415J-27630D01*
G03X815810Y4892080I-3484J3700D01*
G02X861680Y4893770I22195J20920D01*
G37*
G36*
G01X3606230Y4739030D02*
G03X3604170Y4732500I2545J-4393D01*
G02X3536690Y4722610I-32267J-14997D01*
G03X3532830Y4728280I-5028J726D01*
G02X3606230Y4739030I23175J97720D01*
G37*
G36*
G01X2014900Y4720830D02*
G02X2077100Y4709170I34099J10167D01*
G02X2014900Y4720830I-34099J-10167D01*
G37*
G36*
G01X1952870Y4689900D02*
G03X1965310Y4683230I9674J3107D01*
G02X1941130Y4638100I9689J-34234D01*
G03X1928690Y4644770I-9674J-3107D01*
G02X1952870Y4689900I-9689J34234D01*
G37*
G36*
G01X3489070Y5291180D02*
G02X3455360Y5318770I-34674J-7977D01*
G03X3463750Y5335040I277J10156D01*
G02X3503360Y5302620I86241J64960D01*
G03X3489070Y5291180I-4386J-9166D01*
G37*
G36*
G01X3619920Y5002240D02*
G02X3576790Y4981510I-10157J-34099D01*
G03X3566160Y4995420I-9415J3822D01*
G02X3615700Y5019220I-10149J84585D01*
G03X3619920Y5002240I7119J-7245D01*
G37*
G36*
G01X1191650Y4779320D02*
G02X1190780Y4743350I30251J-18727D01*
G03X1173250Y4743780I-8891J-4920D01*
G02X1174120Y4779750I-30251J18727D01*
G03X1191650Y4779320I8891J4920D01*
G37*
G36*
G01X1611010Y3038290D02*
G03X1611580Y3053280I-6560J7755D01*
G02X1652670Y3051690I21416J21719D01*
G03X1652100Y3036700I6560J-7755D01*
G02X1611010Y3038290I-21416J-21719D01*
G37*
G36*
G01X2137910Y2418650D02*
G03X2141030Y2425030I-1704J4786D01*
G02X2186710Y2402650I33786J11152D01*
G03X2183590Y2396270I1704J-4786D01*
G02X2137910Y2418650I-33786J-11152D01*
G37*
G36*
G01X2089000Y2256850D02*
G03X2082780Y2253460I-1367J-4893D01*
G02X2023240Y2239250I-33981J10541D01*
G03X2016510Y2239760I-3652J-3532D01*
G02Y2288240I-18510J24240D01*
G03X2023240Y2288750I3078J4042D01*
G02X2058370Y2298270I25562J-24749D01*
G03X2064590Y2301660I1367J4893D01*
G02X2065330Y2303820I34012J-10446D01*
G03X2060540Y2316450I-9488J3625D01*
G02X2110240Y2335300I16460J31547D01*
G03X2115030Y2322670I9488J-3625D01*
G02X2089000Y2256850I-16449J-31552D01*
G37*
G36*
G01X1194130Y2199830D02*
G03X1203760Y2187780I9981J-1896D01*
G02X1167590Y2158880I-1219J-35559D01*
G03X1157960Y2170930I-9981J1896D01*
G02X1194130Y2199830I1219J35559D01*
G37*
G36*
G01X1817950Y2006780D02*
G03X1810830Y2006530I-3433J-3744D01*
G02X1809050Y2057220I-25830J24469D01*
G03X1816170Y2057470I3433J3744D01*
G02X1817950Y2006780I25830J-24469D01*
G37*
G36*
G01X1898110Y1999420D02*
G03X1898360Y2006420I-3555J3631D01*
G02X1911330Y2062850I26641J23582D01*
G03X1916000Y2077680I-3906J9380D01*
G02X1959690Y2063920I30024J19090D01*
G03X1955020Y2049090I3906J-9380D01*
G02X1949890Y2004580I-30022J-19090D01*
G03X1949640Y1997580I3555J-3631D01*
G02X1898110Y1999420I-26640J-23582D01*
G37*
G36*
G01X2127830Y1784350D02*
G03X2121110I-3360J-3811D01*
G02Y1837690I-23550J26670D01*
G03X2127830I3360J3811D01*
G02X2178350Y1834230I23552J-26670D01*
G03X2185410Y1833610I3848J3314D01*
G02X2184520Y1787140I19308J-23613D01*
G03X2177440Y1786800I-3366J-3804D01*
G02X2127830Y1784350I-26062J24221D01*
G37*
G36*
G01X2000700Y3023840D02*
G02X1965900Y3024250I-17695J-24841D01*
G03X1966090Y3040940I-5701J8411D01*
G02X2000890Y3040530I17695J24841D01*
G03X2000700Y3023840I5701J-8411D01*
G37*
G36*
G01X2716220Y1350010D02*
G02X2662920Y1361220I-23823J19048D01*
G03X2648210Y1367510I-9816J-2611D01*
G02X2608580Y1411810I-14708J26719D01*
G03X2605220Y1426550I-8302J5861D01*
G02X2601980Y1428600I16016J28898D01*
G03X2589060Y1427730I-5934J-8245D01*
G02Y1483110I-26200J27690D01*
G03X2601980Y1482240I6986J7375D01*
G02X2647200Y1434930I19302J-26817D01*
G03X2649760Y1420040I7973J-6294D01*
G02X2662980Y1402070I-16259J-25809D01*
G03X2677690Y1395780I9816J2611D01*
G02X2716220Y1388110I14710J-26719D01*
G03X2732080I7930J6350D01*
G02Y1350010I23820J-19050D01*
G03X2716220I-7930J-6350D01*
G37*
G36*
G01X2794360Y4490260D02*
G03X2806340Y4485400I8938J4837D01*
G02X2787910Y4439980I9513J-30309D01*
G03X2775930Y4444840I-8938J-4837D01*
G02X2794360Y4490260I-9513J30309D01*
G37*
G36*
G01X2881380Y4412190D02*
G03X2880810Y4426690I-7389J6971D01*
G02X2925260Y4428450I21327J23549D01*
G03X2925830Y4413950I7389J-6971D01*
G02X2881380Y4412190I-21327J-23549D01*
G37*
G36*
G01X2671680Y4284870D02*
G03X2671920Y4271950I7957J-6314D01*
G02X2622900Y4271050I-24139J-20658D01*
G03X2622660Y4283970I-7957J6314D01*
G02X2671680Y4284870I24139J20658D01*
G37*
G36*
G01X3288480Y3946980D02*
G03X3277260Y3940150I-1579J-10036D01*
G02X3252070Y3981580I-30139J10048D01*
G03X3263290Y3988410I1579J10036D01*
G02X3288480Y3946980I30139J-10048D01*
G37*
G36*
G01X1688910Y3950580D02*
G03X1680340Y3940910I1585J-10037D01*
G02X1643660Y3973430I-31748J1137D01*
G03X1652230Y3983100I-1585J10037D01*
G02X1688910Y3950580I31748J-1137D01*
G37*
G36*
G01X2149680Y3958820D02*
G03X2145000Y3945880I4688J-9012D01*
G02X2101020Y3961780I-29303J-12278D01*
G03X2105700Y3974720I-4688J9012D01*
G02X2149680Y3958820I29303J12278D01*
G37*
G36*
G01X1461930Y3904050D02*
G03X1455130Y3890810I2754J-9781D01*
G02X1414190Y3909780I-29874J-10809D01*
G03X1419890Y3923520I-3542J9522D01*
G02X1462520Y3972360I32370J14771D01*
G03X1475560Y3981180I2922J9729D01*
G02X1544040Y3964790I35439J-3186D01*
G03X1548270Y3952290I9431J-3774D01*
G02X1501460Y3933740I-16266J-27289D01*
G03X1495980Y3945750I-9770J2797D01*
G02X1495060Y3946190I14889J32314D01*
G03X1487720Y3941230I-2278J-4540D01*
G02X1461930Y3904050I-35459J-2939D01*
G37*
G36*
G01X2509630Y3911770D02*
G03X2512160Y3898630I8772J-5125D01*
G02X2471220Y3850100I-19528J-25059D01*
G03X2458310Y3850740I-6843J-7511D01*
G02X2440910Y3907960I-18962J25490D01*
G03X2451290Y3920460I496J10148D01*
G02X2509630Y3911770I30911J7340D01*
G37*
G36*
G01X1872880Y3944680D02*
G03X1872460Y3958360I-7713J6610D01*
G02X1919390Y3959800I22808J22119D01*
G03X1919810Y3946120I7713J-6610D01*
G02X1919490Y3901560I-22809J-22117D01*
G03X1920690Y3893500I3598J-3584D01*
G02X1921240Y3893190I-15323J-27829D01*
G03X1934160Y3895710I4978J8857D01*
G02X1985430Y3893530I24839J-19809D01*
G03X1998950Y3890360I8453J5636D01*
G02X2034360Y3887840I15835J-27541D01*
G03X2047290Y3888180I6259J8005D01*
G02X2048550Y3839170I20831J-23986D01*
G03X2035620Y3838830I-6259J-8005D01*
G02X1988360Y3845190I-20830J23990D01*
G03X1974840Y3848360I-8453J-5636D01*
G02X1943430Y3848210I-15837J27540D01*
G03X1930510Y3845690I-4978J-8857D01*
G02X1880100Y3884360I-24840J19810D01*
G03X1878000Y3898540I-8172J6035D01*
G02X1872880Y3944680I19000J25462D01*
G37*
G36*
G01X3066740Y3864530D02*
G03X3079420Y3858260I9573J3403D01*
G02X3059220Y3817390I9739J-30241D01*
G03X3046540Y3823660I-9573J-3403D01*
G02X3066740Y3864530I-9739J30241D01*
G37*
G36*
G01X3202330Y3837290D02*
G03X3200090Y3822560I5711J-8404D01*
G02X3157360Y3829060I-24867J-19771D01*
G03X3159600Y3843790I-5711J8404D01*
G02X3202330Y3837290I24867J19771D01*
G37*
G36*
G01X2834140Y3753250D02*
G03X2821240Y3752560I-6031J-8176D01*
G02X2818630Y3801510I-21490J23399D01*
G03X2831530Y3802200I6031J8176D01*
G02X2834140Y3753250I21490J-23399D01*
G37*
G36*
G01X3174590Y3625660D02*
G03X3171600Y3612370I5859J-8300D01*
G02X3120090Y3623970I-30996J-17471D01*
G03X3123080Y3637260I-5859J8300D01*
G02X3174590Y3625660I30996J17471D01*
G37*
G36*
G01X2949330Y3563710D02*
G03X2940020Y3554170I833J-10126D01*
G02X2905700Y3587660I-31717J1827D01*
G03X2915010Y3597200I-833J10126D01*
G02X2949330Y3563710I31717J-1827D01*
G37*
G36*
G01X2272410Y3397130D02*
G03X2286620Y3396840I7253J7114D01*
G02X2285620Y3347840I23510J-24990D01*
G03X2271410Y3348130I-7253J-7114D01*
G02X2272410Y3397130I-23510J24990D01*
G37*
G36*
G01X1751440Y3288090D02*
G03X1744700Y3287680I-3140J-3993D01*
G02X1745420Y3337170I-25200J25117D01*
G03X1752150Y3336570I3702J3480D01*
G02X1751440Y3288090I18150J-24511D01*
G37*
G36*
G01X3478900Y3366360D02*
G02X3536300Y3400480I22413J27637D01*
G02X3575590Y3400500I19695J-98480D01*
G03X3587650Y3409210I1979J9964D01*
G02X3641260Y3374300I35307J-4398D01*
G03X3638170Y3359740I5223J-8716D01*
G02X3478900Y3366360I-82173J-57740D01*
G37*
G36*
G01X2540470Y3129070D02*
G03X2535690Y3141210I-9638J3216D01*
G02X2585100Y3157750I17012J31250D01*
G03X2588600Y3145180I9251J-4196D01*
G02X2540470Y3129070I-17998J-26180D01*
G37*
G36*
G01X2466290Y2226150D02*
G03X2466380Y2212490I7568J-6780D01*
G02X2413710Y2212150I-26181J-24091D01*
G03X2413620Y2225810I-7568J6780D01*
G02X2412100Y2272230I26181J24092D01*
G03X2411720Y2285420I-7911J6373D01*
G02X2465800Y2286970I26378J23879D01*
G03X2466180Y2273780I7911J-6373D01*
G02X2466290Y2226150I-26380J-23876D01*
G37*
G36*
G01X3294140Y4170930D02*
G02X3292540Y4136940I26000J-18257D01*
G03X3275400Y4137740I-8824J-5036D01*
G02X3277000Y4171730I-26000J18257D01*
G03X3294140Y4170930I8824J5036D01*
G37*
G36*
G01X3024500Y4179610D02*
G02X2992860Y4180690I-16760J-26990D01*
G03X2993460Y4198290I-4765J8973D01*
G02X3025100Y4197210I16760J26990D01*
G03X3024500Y4179610I4765J-8973D01*
G37*
G36*
G01X2293550Y3882480D02*
G02X2238150Y3857760I-23852J-20984D01*
G03X2227370Y3866700I-10088J-1194D01*
G02X2236970Y3927910I-2167J31698D01*
G03X2250520Y3934600I3767J9436D01*
G02X2250740Y3935380I30685J-8234D01*
G03X2239820Y3948460I-9706J2995D01*
G02X2266360Y3970620I-3815J31542D01*
G03X2277280Y3957540I9706J-2995D01*
G02X2296320Y3898110I3823J-31540D01*
G03X2293550Y3882480I4862J-8922D01*
G37*
G36*
G01X3262310Y3201280D02*
G02X3233500Y3155960I5292J-35181D01*
G03X3227870Y3159540I-4873J-1446D01*
G02X3208320Y3227320I-5288J35184D01*
G03X3213940Y3239680I-4069J9308D01*
G02X3212550Y3254560I33941J10675D01*
G03X3208030Y3260210I-5045J597D01*
G02X3198160Y3328500I3672J35389D01*
G03X3201150Y3334460I-1932J4699D01*
G02X3216570Y3373330I34470J8819D01*
G03X3215340Y3391150I-5446J8577D01*
G02X3245940Y3394230I12662J27749D01*
G03X3248300Y3376530I5979J-8210D01*
G02X3249160Y3310380I-12679J-33245D01*
G03X3246170Y3304420I1932J-4699D01*
G02X3247030Y3291400I-34470J-8815D01*
G03X3251550Y3285750I5045J-597D01*
G02X3262140Y3217760I-3668J-35391D01*
G03X3256520Y3205400I4069J-9308D01*
G02X3256680Y3204860I-34030J-10377D01*
G03X3262310Y3201280I4873J1446D01*
G37*
G36*
G01X3288550Y2419420D02*
G02X3234900Y2416930I-25743J-24560D01*
G03X3234600Y2423590I-3980J3157D01*
G02X3232750Y2470620I25740J24564D01*
G03X3232540Y2477280I-3937J3209D01*
G02X3230590Y2523370I26091J24190D01*
G03X3230240Y2530020I-4007J3123D01*
G02X3236500Y2584610I25590J24719D01*
G03X3235100Y2602430I-5514J8532D01*
G02X3222500Y2658140I14400J32537D01*
G03X3222460Y2664810I-3854J3312D01*
G02X3222400Y2711750I26710J23504D01*
G03X3222410Y2718440I-3819J3351D01*
G02X3221650Y2764370I26790J23415D01*
G03X3221450Y2771030I-3931J3215D01*
G02X3228780Y2825370I26140J24138D01*
G03X3228370Y2842860I-5373J8624D01*
G02X3217730Y2895850I17370J31051D01*
G03X3217350Y2902540I-4001J3129D01*
G02X3215080Y2949890I25370J24946D01*
G03X3214850Y2956550I-3947J3198D01*
G02X3212640Y3002430I26040J24248D01*
G03X3212230Y3009080I-4032J3089D01*
G02X3265840Y3012410I25358J24959D01*
G03X3266250Y3005760I4032J-3089D01*
G02X3268530Y2958400I-25360J-24956D01*
G03X3268760Y2951740I3947J-3198D01*
G02X3270730Y2905550I-26040J-24248D01*
G03X3271110Y2898860I4001J-3129D01*
G02X3264550Y2843710I-25369J-24948D01*
G03X3264960Y2826220I5373J-8624D01*
G02X3275140Y2772650I-17369J-31053D01*
G03X3275340Y2765990I3931J-3215D01*
G02X3275970Y2718410I-26139J-24140D01*
G03X3275960Y2711720I3819J-3351D01*
G02X3276170Y2665140I-26791J-23411D01*
G03X3276210Y2658470I3854J-3312D01*
G02X3268830Y2605100I-26711J-23502D01*
G03X3270230Y2587280I5514J-8532D01*
G02X3283870Y2532840I-14400J-32537D01*
G03X3284220Y2526190I4007J-3123D01*
G02X3286220Y2479000I-25589J-24722D01*
G03X3286430Y2472340I3937J-3209D01*
G02X3288250Y2426080I-26090J-24192D01*
G03X3288550Y2419420I3980J-3157D01*
G37*
G54D25*
X448490Y332740D03*
X807350Y629750D03*
X1137920Y821440D03*
X1241830Y858520D03*
X1193800Y957580D03*
X1741400Y724600D03*
X2189000Y160000D03*
X1968500Y406400D03*
X2155000Y641000D03*
X1993900Y647700D03*
X2504300Y174300D03*
X2603400Y467600D03*
X2417000Y656000D03*
X2499000Y462600D03*
X2641600Y736600D03*
X2555000Y848800D03*
X2567940Y1680620D03*
X2727960Y996650D03*
X2898140Y922020D03*
X2800830Y1720620D03*
X3025000Y1852000D03*
X2805910Y1840000D03*
X3431790Y1215950D03*
X3656000Y1633000D03*
X1499760Y5321140D03*
X1270000Y5486400D03*
X1826000Y5346000D03*
X1930000Y5393520D03*
X2180200Y5588200D03*
X2127000Y5659000D03*
X2190270Y5477510D03*
X2248000Y5553000D03*
X650240Y1794760D03*
X644120Y2039620D03*
X417350Y2843050D03*
X650900Y2715600D03*
X650240Y3386500D03*
X626900Y3458600D03*
X450400Y3504300D03*
X764540Y1739900D03*
X843280Y2125980D03*
X839000Y2538000D03*
X968170Y2676000D03*
X976250Y2861450D03*
X927100Y3619500D03*
X1143000Y4521200D03*
X1371600Y4517800D03*
X1244600Y4521200D03*
X1498600D03*
X1237300Y4648200D03*
X1371600D03*
X1505900D03*
X1600200Y4521200D03*
X1339100Y2843400D03*
X1200500Y2832700D03*
X1875000Y3077000D03*
X2217420Y1211580D03*
X1981200Y1740790D03*
X2152650Y2172970D03*
Y2012950D03*
X1940600Y2400400D03*
X2357120Y1211580D03*
X2500780Y1206960D03*
X2375410Y1809370D03*
X2908300Y1371600D03*
X2440940Y2544600D03*
X2532400Y3317200D03*
X3280000Y3840000D03*
X3282200Y3757300D03*
G54D29*
X607060Y1447800D03*
X414810Y1885700D03*
X652780Y2166620D03*
X411450Y2286000D03*
X411000Y2393000D03*
X670430Y2475880D03*
X643100Y2388800D03*
X408000Y2479000D03*
X645850Y3000630D03*
Y2809240D03*
Y3160620D03*
X431800Y4610100D03*
X371240Y4445760D03*
X410200Y5076200D03*
X1121000Y1727000D03*
X891630Y2673840D03*
X980440Y3025140D03*
X1311600Y5025700D03*
X1768090Y1204340D03*
X1536700Y1740790D03*
X1620710Y1843850D03*
X2560000Y5319500D03*
X2540340Y5116340D03*
X2670000Y5141000D03*
X2773000Y5031000D03*
X2897000Y4969000D03*
X2757910Y5484960D03*
X920750Y3872770D03*
X1308100Y4762500D03*
X1422400D03*
X1516600Y4760300D03*
X1787000Y4561000D03*
X1612900Y4762500D03*
X3478000Y4701000D03*
X3130000Y5340000D03*
X3390900Y5372100D03*
X1275080Y2679700D03*
X1729000Y1968000D03*
X2158000Y2556510D03*
X1952720Y2730630D03*
X2745740Y1259840D03*
X1680000Y4343000D03*
X2313000Y3240000D03*
X2556900Y2787700D03*
G54D31*
X1534160Y2169160D03*
X1525320Y2503120D03*
X1522780Y2609770D03*
X1365330Y2503120D03*
X1362790Y2609770D03*
X1635760Y2169160D03*
X1685320Y2503120D03*
X1845310D03*
X1842770Y2609770D03*
X1682780D03*
G54D30*
X642620Y1578100D03*
X1829130Y1473710D03*
X1578860Y1562600D03*
X2359660Y1488440D03*
X1809500Y4003500D03*
X1759000Y3943000D03*
X2287380Y4076150D03*
X2047100Y3986700D03*
X2213240Y4070400D03*
X2129080Y4067100D03*
X2287000Y4630000D03*
X2207570Y4550740D03*
X2565400Y3721100D03*
X2369820Y4073520D03*
X2351760Y3864420D03*
X2452700Y4070900D03*
X2619500Y4081300D03*
X2611600Y4155310D03*
X2371600Y4555310D03*
X2368600Y4467400D03*
X2454500Y4549370D03*
X2614900Y4469400D03*
X2533770Y4549960D03*
X2367000Y4635000D03*
X2920000Y2472100D03*
X2736760Y3330140D03*
X2952000Y3302500D03*
X2788510Y3080610D03*
X2978600Y3790000D03*
X2720900Y3649200D03*
X3004160Y3935310D03*
X2766060Y4074160D03*
X2837900Y3959800D03*
X2846500Y4146600D03*
X3005540Y4066100D03*
X2851610Y4555310D03*
X2767160Y4550600D03*
X3022090Y4464370D03*
X3086680Y4551680D03*
X2926300Y4549200D03*
X3125960Y3980560D03*
X3168000Y4149700D03*
X3299460Y4242650D03*
X3165200Y4071400D03*
X3248960Y4078200D03*
X3155300Y4459500D03*
X3163300Y4548200D03*
X3264900Y4400910D03*
G54D26*
X1341120Y825500D03*
G54D32*
X2252000Y1503000D03*
G54D23*
X3248000Y442700D03*
G54D28*
X254810Y5753610D03*
G54D27*
X3556000Y1778000D03*
X254000Y1524000D03*
Y1778000D03*
Y2286000D03*
Y2032000D03*
Y2540000D03*
Y3048000D03*
Y2794000D03*
Y3302000D03*
Y3556000D03*
Y4064000D03*
X3556000Y4572000D03*
Y3048000D03*
Y2794000D03*
Y3810000D03*
Y3556000D03*
G54D24*
X254000Y254000D03*
Y762000D03*
Y508000D03*
Y1016000D03*
X3556000Y762000D03*
Y508000D03*
Y1016000D03*
Y1270000D03*
Y1524000D03*
X254000Y3810000D03*
X3556000Y2540000D03*
Y4064000D03*
%LPD*%
G75*
G54D10*
X0Y254000D03*
Y762000D03*
Y508000D03*
Y1016000D03*
Y1270000D03*
Y1524000D03*
Y1778000D03*
Y2286000D03*
Y2032000D03*
Y2540000D03*
Y3048000D03*
Y2794000D03*
Y3302000D03*
Y3810000D03*
Y3556000D03*
Y4318000D03*
Y4064000D03*
Y4572000D03*
Y5080000D03*
Y4826000D03*
X254000Y254000D03*
Y762000D03*
Y508000D03*
Y1016000D03*
Y1524000D03*
Y1270000D03*
Y1778000D03*
Y2286000D03*
Y2032000D03*
Y2540000D03*
Y3048000D03*
Y2794000D03*
Y3302000D03*
Y3810000D03*
Y3556000D03*
Y4318000D03*
Y4064000D03*
Y4572000D03*
Y5080000D03*
Y4826000D03*
X3556000Y254000D03*
Y762000D03*
Y508000D03*
Y1016000D03*
Y1270000D03*
Y1524000D03*
Y1778000D03*
Y2286000D03*
Y2032000D03*
Y2540000D03*
Y3048000D03*
Y2794000D03*
Y3302000D03*
Y3810000D03*
Y3556000D03*
Y4318000D03*
Y4064000D03*
Y4572000D03*
Y5080000D03*
Y4826000D03*
X3810000Y254000D03*
Y762000D03*
Y508000D03*
Y1016000D03*
Y1524000D03*
Y1270000D03*
Y1778000D03*
Y2286000D03*
Y2032000D03*
Y2540000D03*
Y3048000D03*
Y2794000D03*
Y3302000D03*
Y3810000D03*
Y3556000D03*
Y4318000D03*
Y4064000D03*
Y4572000D03*
Y5080000D03*
Y4826000D03*
G54D20*
X2848000Y442700D03*
X3248000D03*
G54D11*
X-50500Y382100D03*
X-73660Y627380D03*
Y891540D03*
Y1397000D03*
Y1143000D03*
Y1648460D03*
Y2153920D03*
Y1907540D03*
Y2664460D03*
Y2410460D03*
Y2921000D03*
Y3429000D03*
Y3172460D03*
Y3677920D03*
Y3934460D03*
Y4193540D03*
X-69900Y5375100D03*
Y5250300D03*
X-70700Y5768700D03*
Y5649000D03*
X-69900Y5518700D03*
X129540Y452120D03*
X149860Y586740D03*
X53340Y627380D03*
X334000Y413200D03*
X55880Y891540D03*
X170180Y853440D03*
X58420Y1397000D03*
X55880Y1143000D03*
Y1645920D03*
Y2153920D03*
Y1905000D03*
Y2664460D03*
X53340Y2410460D03*
Y2921000D03*
Y3429000D03*
Y3175000D03*
X55880Y3677920D03*
X53340Y3931920D03*
X135600Y5345600D03*
X136600Y5282600D03*
X135600Y5216600D03*
X330800Y6092100D03*
X227900Y6091400D03*
X363500Y173900D03*
X655320Y175260D03*
X561340D03*
X462280D03*
X365760Y309880D03*
X434340Y264160D03*
X617220Y251460D03*
X448490Y332740D03*
X639080Y489300D03*
X570120Y511080D03*
X526860Y550720D03*
X512080Y652780D03*
X543560Y464820D03*
X466090D03*
X360680Y553720D03*
X617220Y383540D03*
X707900Y504600D03*
X648000Y567110D03*
X654700Y626000D03*
X605500Y1088790D03*
X665480Y1074570D03*
X605540Y1032430D03*
X606540Y978600D03*
X734060Y825500D03*
X678180Y822960D03*
X513080Y728980D03*
X711200Y1490980D03*
X607060Y1447800D03*
X627330Y1223010D03*
X414810Y1885700D03*
X642620Y1578100D03*
X650240Y1794760D03*
X414830Y2026670D03*
X652780Y2166620D03*
X414780Y2080010D03*
X378460Y2160270D03*
X411450Y2286000D03*
X416560Y2199640D03*
X411100Y1973450D03*
X644120Y2039620D03*
X411000Y2393000D03*
X670430Y2475880D03*
X417350Y2644930D03*
X645850Y2555240D03*
X643360Y2611120D03*
X643100Y2388800D03*
X408000Y2479000D03*
X645850Y3000630D03*
Y2809240D03*
X417350Y3041170D03*
Y2843050D03*
Y2698270D03*
X650900Y2715600D03*
X645850Y3160620D03*
X417350Y3094510D03*
X650240Y3386500D03*
X626900Y3458600D03*
X450400Y3504300D03*
X673000Y4143000D03*
X716760Y3913140D03*
X717760Y3872140D03*
X676760Y3913140D03*
X677760Y3872140D03*
X609600Y4165600D03*
X546100D03*
X622300Y4495800D03*
X558800D03*
X622300Y4559300D03*
X558800D03*
X431800Y4610100D03*
X371240Y4445760D03*
X723900Y4857800D03*
X673100D03*
Y4813000D03*
X723900D03*
X485760Y4971140D03*
X486580Y5026000D03*
X696000Y4954000D03*
X643000Y4945000D03*
X673100Y5156200D03*
X609600D03*
X495300Y5372100D03*
X508000Y5308600D03*
X410200Y5076200D03*
X381000Y5156200D03*
X600230Y5406870D03*
X660400Y5384800D03*
X517500Y6093700D03*
X424200D03*
X1040700Y236700D03*
X1033480Y315960D03*
X1084760Y168140D03*
X914400Y175260D03*
X812800D03*
X828040Y320040D03*
X891540Y632460D03*
X960120D03*
X1031240D03*
X1094740D03*
X989060Y490300D03*
X912860D03*
X834120D03*
X1036320Y452120D03*
X1033780Y383540D03*
X775700Y498500D03*
X807350Y629750D03*
X1137920Y821440D03*
X1046480Y822960D03*
X817880Y1499130D03*
X1040600Y1198000D03*
X764540Y1488440D03*
X1095600Y1210200D03*
X1130300Y1490500D03*
X1121000Y1727000D03*
X764540Y1739900D03*
X1121500Y1560300D03*
X843280Y2125980D03*
X1112520Y2555240D03*
X839000Y2538000D03*
X891630Y2673840D03*
X968170Y2676000D03*
X802510Y2677300D03*
X805000Y2612000D03*
X1042980Y2898220D03*
X976250Y2861450D03*
X1100900Y2823600D03*
X1043300Y2695100D03*
X980440Y3025140D03*
X899240Y3313040D03*
X914400Y3213100D03*
X939800Y3263900D03*
X1051100Y3274600D03*
X883000Y3262000D03*
X927100Y3619500D03*
X920750Y3872770D03*
X1060000Y4231000D03*
X944000D03*
X830000Y4202000D03*
X978200Y4482800D03*
X970000Y4379000D03*
X920000Y4354000D03*
X1068000Y4286000D03*
X955000Y4576000D03*
X951000Y4630000D03*
X936000Y4517000D03*
X938000Y4447000D03*
X838000Y4913000D03*
X840000Y4859000D03*
X946000Y4813000D03*
X972000Y4749000D03*
X1011000Y4933000D03*
X958000Y4691000D03*
X1130300Y5067300D03*
X977900D03*
X1028700D03*
X831000Y5157000D03*
X888000Y5285000D03*
X831000Y5259000D03*
X1117600Y5473700D03*
X997400Y5486790D03*
X956900Y5486400D03*
X1203900Y309600D03*
X1201700Y372600D03*
X1203960Y439420D03*
X1351280Y584200D03*
X1480820D03*
X1417320D03*
X1287780D03*
X1221740D03*
X1203960Y502920D03*
X1160780Y622300D03*
X1437640Y995680D03*
X1249680Y955040D03*
X1241830Y858520D03*
X1193800Y957580D03*
X1468800Y1172700D03*
X1527300Y1174300D03*
X1413670Y1182750D03*
X1483900Y1460100D03*
X1380000Y1488100D03*
X1214100Y1482600D03*
X1296200Y1487300D03*
X1451610Y1742490D03*
X1237000Y1772000D03*
X1277000Y1732000D03*
X1429770Y1517330D03*
X1209700Y1552400D03*
X1287500Y1551000D03*
X1365200Y1550100D03*
X1398270Y1742410D03*
X1159180Y2206490D03*
X1202540Y2152220D03*
X1275080Y2679700D03*
X1339100Y2843400D03*
X1200500Y2832700D03*
X1293330Y3332190D03*
X1346200Y3339260D03*
X1366670Y3278480D03*
X1410250Y3238500D03*
X1417370Y3182120D03*
X1409700Y3314700D03*
X1218870Y3611350D03*
X1257000Y3613000D03*
X1144000Y3810000D03*
X1193800Y3797300D03*
X1182000Y3938000D03*
X1393760Y3929140D03*
X1515760Y4093140D03*
X1312000Y3988000D03*
X1183000Y3993580D03*
X1148240Y4094640D03*
X1403000Y4088000D03*
X1367000Y4008000D03*
X1185000Y4160000D03*
X1532000Y3925000D03*
X1511000Y3978000D03*
X1425260Y3880000D03*
X1452260Y3938290D03*
X1471600Y4219780D03*
X1240000Y4174000D03*
X1278810Y4210960D03*
X1412000Y4161000D03*
X1466000Y4156000D03*
X1199760Y4211920D03*
X1313000Y4169000D03*
X1366000Y4190000D03*
X1143000Y4521200D03*
X1371600Y4517800D03*
X1244600Y4521200D03*
X1242300Y4389200D03*
X1371600Y4394200D03*
X1498600Y4521200D03*
X1500900Y4394200D03*
X1237300Y4648200D03*
X1371600D03*
X1505900D03*
X1473200Y5016500D03*
X1311600Y5025700D03*
X1224100Y4860300D03*
X1221900Y4760600D03*
X1308100Y4864100D03*
Y4762500D03*
X1143000D03*
Y4864100D03*
X1516600Y4860300D03*
X1422400Y4762500D03*
Y4864100D03*
X1516600Y4760300D03*
X1397000Y5270500D03*
X1320800D03*
X1181100Y5067300D03*
X1262000Y5314000D03*
X1499760Y5321140D03*
X1320800Y5321300D03*
X1154800Y5327600D03*
X1208800Y5331800D03*
X1381760Y5479140D03*
X1423760Y5478140D03*
X1270000Y5486400D03*
X1182290Y5500290D03*
X1855900Y282500D03*
X1897380Y175260D03*
X1854200Y490220D03*
X1676400Y584200D03*
X1737360D03*
X1854200Y558800D03*
X1546860Y584200D03*
X1610360D03*
X1800860D03*
X1854200Y416560D03*
Y342900D03*
X1741400Y724600D03*
X1577340Y916940D03*
X1576320Y861060D03*
X1902360Y899400D03*
X1573200Y1016000D03*
X1767180Y857880D03*
X1874600Y856170D03*
X1546860Y1456110D03*
X1768090Y1204340D03*
X1829130Y1473710D03*
X1874750Y1203120D03*
X1578860Y1562600D03*
X1536700Y1740790D03*
X1620710Y1843850D03*
X1766760Y1782140D03*
X1785000Y2031000D03*
X1729000Y1968000D03*
X1842000Y2033000D03*
X1923000Y1974000D03*
X1925000Y2030000D03*
X1630680Y3014980D03*
X1633000Y3075000D03*
X1875000Y3077000D03*
X1770300Y3312060D03*
X1629500Y3258820D03*
X1884680Y3220720D03*
X1719500Y3312800D03*
X1541760Y4123140D03*
X1546330Y4178570D03*
X1599000Y4187000D03*
X1700000Y4250000D03*
X1648590Y3942050D03*
X1683980Y3981960D03*
X1809500Y4003500D03*
X1759000Y3943000D03*
X1895270Y3980480D03*
X1905670Y3865500D03*
X1897000Y3924000D03*
X1786000Y4466000D03*
X1600200Y4521200D03*
X1680000Y4343000D03*
X1787000Y4561000D03*
X1765000Y4299000D03*
X1826000Y4405000D03*
X1839000Y4457000D03*
X1844760Y4802140D03*
X1838760Y4843140D03*
X1821000Y4747000D03*
X1612900Y4762500D03*
Y4864100D03*
X1774000Y4669000D03*
X1773000Y4723000D03*
X1917000Y4917000D03*
X1919000Y4679000D03*
X1824000Y4998000D03*
X1750000Y4843000D03*
X1786760Y4803140D03*
X1826000Y5346000D03*
X1689100Y5067300D03*
X1731000Y5067000D03*
X1819000Y5098000D03*
X1536700Y5067300D03*
X1583000Y5067000D03*
X1753000Y5263000D03*
X1842000Y5049000D03*
X1879600Y5499100D03*
X1785860Y5716160D03*
X1886680Y5779530D03*
X2003270Y322150D03*
X2057000Y188000D03*
X2107700Y190000D03*
X2006600D03*
X2189000Y160000D03*
X2291000Y698930D03*
X2202500Y365500D03*
X1968500Y406400D03*
X2236000Y655700D03*
X2155000Y641000D03*
X2199900Y696800D03*
X1993900Y647700D03*
X2217420Y1071880D03*
Y932180D03*
X1987760Y1009140D03*
X1957760Y988140D03*
X1958760Y1029140D03*
X2034700Y812100D03*
X1984000Y1085000D03*
X1949000Y1105000D03*
X2112010Y1458650D03*
X2217420Y1211580D03*
X1938150Y1188850D03*
X1976000Y1151100D03*
X2059940Y1478630D03*
X2006000Y1477800D03*
X2097560Y1811020D03*
X1981200Y1740790D03*
X2204720Y1810000D03*
X2151380Y1811020D03*
X2048800Y2264000D03*
X2098570Y2291120D03*
X1946020Y2096770D03*
X2152650Y2172970D03*
Y2012950D03*
X1998000Y2264000D03*
X2149800Y2385120D03*
X2158000Y2556510D03*
X2077000Y2348000D03*
X2174820Y2436180D03*
X1940600Y2400400D03*
X1983000Y2999000D03*
X1983790Y3065780D03*
X1952720Y2730630D03*
X2313000Y3240000D03*
X1978660Y3147060D03*
X2231000Y3227000D03*
X2184400Y3289300D03*
X2269700Y3861500D03*
X2287380Y4076150D03*
X2047100Y3986700D03*
X2291610Y3995320D03*
X2040900Y4060300D03*
X2213240Y4070400D03*
X2039240Y4154820D03*
X2115700Y3933600D03*
X2129080Y4067100D03*
X2225200Y3898400D03*
X2286530Y4150230D03*
X2281100Y3926000D03*
X2006900Y4111700D03*
X1959000Y3875900D03*
X2014790Y3862820D03*
X2203020Y4146730D03*
X2119540Y4149890D03*
X2068120Y3864190D03*
X2236000Y3980000D03*
X2135000Y3987000D03*
X2136470Y4437030D03*
X2291610Y4555310D03*
X2206000Y4634000D03*
X2287000Y4630000D03*
X2207570Y4550740D03*
X2128850Y4549500D03*
X2032500Y4435400D03*
X2205100Y4437500D03*
X2263900Y4412900D03*
X2047180Y4873670D03*
X2044700Y4838700D03*
X2156860Y5003000D03*
X2043000Y4699000D03*
X2049000Y4731000D03*
X1970000Y4924000D03*
X1975000Y4649000D03*
X2077260Y4930140D03*
X2070100Y5118100D03*
Y5168900D03*
X2195930Y5381620D03*
X2143000Y5375000D03*
X2163000Y5059000D03*
X2225000Y5271000D03*
X2235000Y5218000D03*
X1930000Y5393520D03*
X2180200Y5588200D03*
X2101000Y5750000D03*
X1932000Y5487000D03*
X2127000Y5659000D03*
X2202800Y5787320D03*
X2197100Y5638800D03*
X1936000Y5759000D03*
X2190270Y5477510D03*
X2248000Y5553000D03*
X2120050Y5436370D03*
X2065000Y5455000D03*
X2098000Y5808000D03*
X1952000Y5706000D03*
X1931000Y5654000D03*
X2011540Y5876350D03*
X1968500Y5969000D03*
X2067000Y5861000D03*
X2504300Y174300D03*
X2681400Y182100D03*
X2618700Y174700D03*
X2439800Y449700D03*
X2603400Y467600D03*
X2417000Y656000D03*
X2499000Y462600D03*
X2357120Y1071880D03*
X2496820D03*
X2357120Y932180D03*
X2496820D03*
X2641600Y736600D03*
X2555000Y848800D03*
X2359660Y1488440D03*
X2692400Y1369060D03*
X2633500Y1394230D03*
X2357120Y1211580D03*
X2500780Y1206960D03*
X2565400Y1884680D03*
X2567940Y1680620D03*
X2375410Y1809370D03*
X2509520Y1884680D03*
X2489200Y2062660D03*
X2439800Y2249900D03*
X2440200Y2188400D03*
X2438100Y2309300D03*
X2518410Y2595550D03*
X2440940Y2544600D03*
X2556900Y2787700D03*
X2572330Y3048790D03*
X2359700Y3053500D03*
X2357300Y2999900D03*
X2532400Y3317200D03*
X2513600Y3457900D03*
X2552700Y3172460D03*
X2570600Y3119000D03*
X2565400Y3721100D03*
X2369820Y4073520D03*
X2638200Y3977100D03*
X2596200Y4236900D03*
X2371600Y3995320D03*
X2448300Y4151200D03*
X2351760Y3864420D03*
X2439350Y3876230D03*
X2452700Y4070900D03*
X2619500Y4081300D03*
X2482200Y3927800D03*
X2611600Y4155310D03*
X2492630Y3873570D03*
X2647780Y4251290D03*
X2371600Y4155310D03*
Y4555310D03*
X2685630Y4554360D03*
X2525000Y4629000D03*
X2368600Y4467400D03*
X2454500Y4549370D03*
X2614900Y4469400D03*
X2533770Y4549960D03*
X2646800Y4304630D03*
X2527370Y4386620D03*
X2580630Y4383600D03*
X2439190Y4331490D03*
X2367000Y4635000D03*
X2644290Y4684490D03*
X2585260Y4904740D03*
X2559860Y4930140D03*
X2438000Y4718000D03*
X2425700Y4953000D03*
X2560000Y5319500D03*
X2540340Y5116340D03*
X2670000Y5141000D03*
X2654300Y5321300D03*
X2623000Y5484790D03*
X2582500Y5484400D03*
X2850680Y513290D03*
X2928620Y617220D03*
X2987040D03*
X3045460D03*
X2730140Y891870D03*
X2727960Y996650D03*
X2907630Y978620D03*
X2730600Y838530D03*
X2937000Y735000D03*
X3072000Y848000D03*
X2898140Y922020D03*
X2745740Y1259840D03*
X2908300Y1371600D03*
X2755900Y1369060D03*
X2821160Y1125780D03*
X2800830Y1720620D03*
X3025000Y1852000D03*
X3055000Y1613000D03*
X2921480Y1552420D03*
X2974340Y1836420D03*
X2805910Y1840000D03*
X2806700Y2115820D03*
X2978630Y2007390D03*
X2799080Y1927860D03*
X2920000Y2472100D03*
X2731900Y3466400D03*
X2736760Y3330140D03*
X2952000Y3302500D03*
X2788510Y3080610D03*
X3089160Y3828020D03*
X2978600Y3790000D03*
X3036800Y3853900D03*
X2799750Y3775960D03*
X2853020Y3778800D03*
X2720900Y3649200D03*
X2908300Y3556000D03*
X2946730Y3595370D03*
X3004160Y3935310D03*
X2766060Y4074160D03*
X2762700Y4147300D03*
X3012530Y3987990D03*
X2837900Y3959800D03*
X2846500Y4146600D03*
X3005540Y4066100D03*
X3007740Y4152620D03*
X3010220Y4225280D03*
X2851610Y4555310D03*
X2929280Y4632960D03*
X2767160Y4550600D03*
X2801100Y4324900D03*
X2846700Y4630420D03*
X3083030Y4635300D03*
X3022090Y4464370D03*
X3086680Y4551680D03*
X2926300Y4549200D03*
X2904500Y4390400D03*
X2815850Y4455090D03*
X2766320Y4634620D03*
X2766420Y4475150D03*
X2902140Y4450240D03*
X2830070Y4902000D03*
X2773000Y5031000D03*
X2896000Y4882000D03*
X2897000Y4969000D03*
X2765760Y4892140D03*
X2767330Y4851400D03*
X3007000Y5066000D03*
X2966000D03*
X2730000Y5215000D03*
X2732500Y5342000D03*
X2786000Y5219000D03*
X2787000Y5174000D03*
X2941000Y5339000D03*
X2833000Y5345000D03*
X2780900Y5272900D03*
X2887000Y5339000D03*
X3015760Y5477140D03*
X3057760Y5476140D03*
X2907890Y5486810D03*
X2844800Y5486400D03*
X2757910Y5484960D03*
X3106000Y736000D03*
X3111000Y793000D03*
X3421840Y1457900D03*
X3431790Y1215950D03*
X3239000Y1845000D03*
X3194530Y1844830D03*
X3246300Y1541200D03*
X3300750Y1544350D03*
X3304560Y2109460D03*
X3210850Y2168250D03*
X3415000Y2223000D03*
X3403600Y2159000D03*
X3249500Y2634970D03*
X3262810Y2394860D03*
X3258630Y2501470D03*
X3255830Y2554740D03*
X3260340Y2448150D03*
X3237590Y3034040D03*
X3240890Y2980800D03*
X3249170Y2688310D03*
X3249200Y2741850D03*
X3245740Y2873910D03*
X3242720Y2927490D03*
X3247590Y2795170D03*
X3228000Y3418900D03*
X3247880Y3250360D03*
X3235620Y3343280D03*
X3211700Y3295600D03*
X3222580Y3194720D03*
X3267600Y3166100D03*
X3280000Y3840000D03*
X3175220Y3802790D03*
X3282200Y3757300D03*
X3140600Y3594900D03*
X3154080Y3654730D03*
X3293430Y3978360D03*
X3125960Y3980560D03*
X3208500Y3987000D03*
X3168000Y4149700D03*
X3249400Y4156000D03*
X3247120Y3950200D03*
X3299460Y4242650D03*
X3165200Y4071400D03*
X3248960Y4078200D03*
X3320140Y4152670D03*
X3184470Y3863560D03*
X3384000Y4555000D03*
X3251610Y4635300D03*
X3171600D03*
X3334000Y4532000D03*
X3325540Y4470540D03*
X3155300Y4459500D03*
X3163300Y4548200D03*
X3316000Y4617000D03*
X3264900Y4400910D03*
X3478000Y4701000D03*
X3470000Y4960000D03*
X3434760Y5009140D03*
X3130000Y5340000D03*
X3390900Y5372100D03*
X3454400Y5283200D03*
X3691900Y174400D03*
X3877800Y381200D03*
X3737400D03*
X3883660Y635000D03*
X3650600Y583600D03*
X3811800Y634000D03*
X3881630Y896620D03*
X3756660Y889000D03*
X3882010Y1399540D03*
X3759200Y1394460D03*
X3882010Y1145540D03*
X3761740Y1143000D03*
X3656000Y1633000D03*
X3882010Y1651000D03*
X3759200Y1648460D03*
X3610030Y2193850D03*
X3627120Y1938020D03*
X3883660Y2161540D03*
X3759200Y2159000D03*
X3883660Y1905000D03*
X3756660D03*
X3505200Y2171700D03*
X3883660Y2677160D03*
X3761740Y2674620D03*
X3883660Y2420620D03*
X3754120Y2418080D03*
X3622960Y3404810D03*
X3501310Y3394000D03*
X3857000Y4180000D03*
X3861840Y4418350D03*
X3870950Y4472950D03*
X3571900Y4717500D03*
X3721470Y4963530D03*
X3659000Y4699000D03*
X3712110Y4898490D03*
X3739370Y4698000D03*
X3609760Y4968140D03*
X3857190Y4956600D03*
X3871200Y5578500D03*
Y5671800D03*
X3869600Y5765200D03*
X3868900Y6084000D03*
X3869600Y5981100D03*
X3868900Y5868100D03*
X3794100Y6081000D03*
X3700800D03*
X3607400Y6079400D03*
X3504500Y6078700D03*
G54D21*
X3850010Y5400000D03*
X3549990D03*
G54D12*
X254810Y5753610D03*
G54D22*
G01X830000Y4202000D02*
X851160Y4180840D01*
X1115840D01*
X1160390Y4225390D01*
Y4228230D01*
X1191310Y4259150D01*
X1582530D01*
X1631050Y4210630D01*
X1716310D01*
X1765000Y4259320D01*
Y4299000D01*
G01X1011000Y4933000D02*
X1039860Y4904140D01*
X1874180D01*
X1902180Y4876140D01*
X1983880D01*
X2037880Y4930140D01*
X2077260D01*
G01X1753000Y5263000D02*
X1647000Y5157000D01*
X831000D01*
G01X723800Y5627990D02*
G02Y5727990I0J50000D01*
G01Y6153660D01*
X194820D01*
X-145240Y5813600D01*
Y104140D01*
X3954810D01*
X3955340Y104670D01*
Y6153660D01*
X3289400D01*
Y5727990D01*
G02Y5627990I0J-50000D01*
G01X552450Y6565900D02*
Y6819900D01*
X628650D01*
X654050Y6807190D01*
X673100Y6777570D01*
X679450Y6743700D01*
X673100Y6709830D01*
X657220Y6684430D01*
X628650Y6671730D01*
X552450D01*
G01X774700Y6819900D02*
X819150Y6565900D01*
X869950Y6819900D01*
X920750Y6565900D01*
X965200Y6819900D01*
G01X1060450Y6565900D02*
Y6819900D01*
X1139820D01*
X1165220Y6807190D01*
X1181100Y6790270D01*
X1187450Y6756400D01*
X1181100Y6722530D01*
X1162050Y6701370D01*
X1139820Y6688660D01*
X1060450D01*
G01X1139820D02*
X1187450Y6565900D01*
G01X1336680Y6650560D02*
X1419220D01*
G01X1625600Y6565900D02*
X1631950Y6620930D01*
X1641480Y6667490D01*
X1654170Y6709830D01*
X1670050Y6756400D01*
X1695450Y6819900D01*
X1568450D01*
G01X2076450D02*
Y6565900D01*
X2203450D01*
G01X2314570D02*
X2393950Y6819900D01*
X2473330Y6565900D01*
G01X2444750Y6654800D02*
X2343150D01*
G01X2647950Y6565900D02*
Y6680200D01*
X2584450Y6819900D01*
G01X2711450D02*
X2647950Y6680200D01*
G01X2965450Y6565900D02*
X2838450D01*
Y6819900D01*
X2965450D01*
G01X2914650Y6697140D02*
X2838450D01*
G01X3092450Y6565900D02*
Y6819900D01*
X3171820D01*
X3197220Y6807190D01*
X3213100Y6790270D01*
X3219450Y6756400D01*
X3213100Y6722530D01*
X3194050Y6701370D01*
X3171820Y6688660D01*
X3092450D01*
G01X3171820D02*
X3219450Y6565900D01*
G01X1663800Y5627990D02*
X723800D01*
G01X1663800D02*
X723800D01*
G01X1663800D02*
G03Y5727990I0J50000D01*
G01Y6153660D01*
X2349400D01*
Y5727990D01*
G03Y5627990I0J-50000D01*
G01X3289400D02*
X2349400D01*
G01X3289400D02*
X2349400D01*
G54D13*
X761800Y5455300D03*
X1625800D03*
X2387400D03*
X3251400D03*
G54D14*
X791770Y5528020D03*
X1595830Y5527970D03*
X2417370Y5528020D03*
X3221430Y5527970D03*
G54D15*
X608810Y5965490D03*
X1778790D03*
X2234410D03*
X3404390D03*
G54D16*
X1143000Y2893060D03*
X1341120Y825500D03*
X1167740Y2563830D03*
X1191260Y2938780D03*
X1983640Y849140D03*
X1983760Y894140D03*
X2252000Y1503000D03*
X2310130Y3371850D03*
X2247900Y3373120D03*
X2621280Y1455420D03*
X2562860D03*
X2786380Y1082040D03*
X2730090Y1082270D03*
X2966720Y1376680D03*
X3024630Y1376630D03*
X3083560Y1376680D03*
X2921000Y1613200D03*
G54D17*
X1534160Y2169160D03*
X1525320Y2503120D03*
X1522780Y2609770D03*
X1365330Y2503120D03*
X1362790Y2609770D03*
X1635760Y2169160D03*
X1685320Y2503120D03*
X1845310D03*
X1842770Y2609770D03*
X1682780D03*
G54D18*
X2764510Y227710D03*
X3331490D03*
G54D19*
X3021660Y771750D03*
X3221660D03*
M02*
